<?xml version="1.0" encoding="UTF-8"?><svg id="b" xmlns="http://www.w3.org/2000/svg" viewBox="0 0 720 587.4"><g id="c"><path d="M672.8,183.6c-48.6-1.3-131.3,6.1-199.1,14.5-2.7-26.4-16.4-50.7-24-69.9-5.2-13.1-6.5-19.4-4.9-46.1,1.9-31.8,6.8-73.1-28.5-80.8-18.8-4.1-32.1,3.3-37.4,6.4-44,26.4-72.1,114-79.2,138.3-7.3,25.1-13.3,61.9-17.1,88.3-.6-.2-1.2-.3-1.9-.4-9.8-1.5-22.1,3.7-23.9,6.5-4.1,6.1-1.4,14.8-1,16.3-15.5-16.9-38.2-40.8-57.9-58.2-24-21.3-53.4-39.8-53.4-39.8-77-49.3-109.4-37.3-120-32.1-7.7,3.7-14.2,9.8-17.8,14.7-25.3,34.2,28.4,74.1,43,104.5,15.7,32.7,1.6,125,105.7,130.8,1.8.1,11,.6,21.6,0-2.3,4.2-4.7,8.4-7,12.1-3.7,6.1-22,31.7-15.7,57.8,2.6,10.7,9,18.7,12.4,19,.8,0,13.3-1.7,14.5,4.6.7,3.6-3.8,15,2.4,23,4.6,5.8,16.3,10.2,21.6,14.6,5.3,4.4,3.1,7.1-2.7,15.8-7.9,11.8-10.2,19.5-8.7,32.2,2.5,21.4,12.7,36.5,29.2,30.3,10.4-3.9,16.7-7.9,18.5-14.9,2.9-10.8-6.2-30.6-2.3-43.6,4-13.2,22.7-9.7,42.3-21.9,33.2-20.8,27.8-76.9,23.8-123.5,3.9,2.3,7.5,3.3,10.4,2.8.9-.2,2.5-.5,4.2-1.2,7.6,13.1,15.7,26.4,24.4,38,36.7,49,63.4,37.8,85.7,30.6,11.8-3.8,19.2-5.3,28.3,12,9.8,18.6,10.3,32.3,31.8,28.6,8.1-1.4,13.6-3.3,17.1-8.6,7.5-11.5-1.6-30.3-6.2-37.8-9.3-15.2-23.2-16.9-31.3-21.2-3.4-1.8-5.4-3.7-2.3-11.1,7-16.4,14.2-22.2,1.3-36.8-2.2-2.5-4.8-4.5-4.4-7.3,87.7-40.3,206.8-119.4,246.6-158.4,6.5-6.4,8.9-9.2,9-13.2.2-9.5-14.3-13.9-47.2-14.8ZM442.8,306.1c36.2-10.3,79.5-23,116.1-33.9-14.3,8.1-29.5,16.3-45,24.2-19.6,10-36.7,18.1-51.5,24.5-6.3-6.6-13.7-11.5-19.7-14.8ZM561.4,224c-36.8,10.7-66.9,19.6-95.5,26.6-1.9.5-3.7.9-5.6,1.4,3.2-4.7,5.7-9.5,7.8-14.2,29.2-5,63.3-10.1,93.4-13.8Z" fill="#714e67"/><path d="M585.7,256.7c-44.3,13.4-106,31.4-152.6,44.7-.4-.2-.7-.3-1-.4-5.6-2.4-11.6-5.2-17.2-8,16.9-10.6,29.5-21.3,38.6-32,29-6.7,52.6-13.4,86.1-23.1,23.9-7,44.7-13,62.3-18.1,6.3-.5,30.6-2.3,38.2.1-9.1,8.1-29.1,21.6-54.4,36.7ZM712.7,197.9c-1-2.2-8-3.9-8.8-4.1-33.9-8.3-144,.8-229.7,11.4.2,8.1-.8,16.4-3.4,24.8,41.7-7,93.3-14.5,129.7-17.3,6.1-.5,11.7-.8,16.8-1,5.1-.2,9.7-.2,13.6,0,4.6.2,8.3.6,10.9,1.3,7.5,2.1,7.9,7.5,3.9,11.6,0,0-4.4,4.5-18.2,14-4.4,3.1-9.4,6.4-14.8,9.8-3.7,2.4-7.7,4.9-11.8,7.4-4,2.5-8.1,5-12.4,7.5-36.2,21.6-82.5,46.4-121.2,63.2,3.9,5.3,6.9,11.5,8.3,18.6.6,3,.9,7.8.2,11.3,23.3-11.3,49.4-25.6,77.6-42.3,68-40.4,134.5-87.8,157.6-113,1.2-1.4,1.9-2.7,1.7-3.2Z" fill="#fb96b8"/><path d="M382,407.7c-.9,2.2-1.4,5.6-1.7,11.8-.6,11.2-4.9,17.1-11,18.8-1.5-1.3-2.9-2.6-4.4-4-14.5-14-27.3-34.8-39.2-55.3.7-1,1.3-2.1,1.9-3.5,5.2,9.7,17.9,15.3,31.3,15.9,2.7,2.4,5.5,4.8,8.3,7,3.4,2.6,6.6,4.7,9.8,6.5,1.7,1,3.4,1.9,5,2.6ZM295.6,401.6c-1.6,8.9-8,17.7-16.4,24.1-1.7,7.4-4,14.7-7.2,21.4-.8,1.7-1.7,3.4-2.6,5,2,1.3,4.4,3.8,8.1,8.7,6.9,8.9,13.8,11.2,19.8,9.2.5-1.9.9-3.8,1.3-5.8,3.8-18.9,2.8-41.9,1-64.5-1.3.6-2.6,1.2-4,1.8Z" fill="#ebb4e1"/><path d="M398.5,320.7c5.1,2,9.1,4.2,11.1,6.7,2.9,3.6,5.4,6.9,7.4,9.9.7,1.1,1.4,2.2,2.1,3.2.6,1,1.2,2,1.7,3,0,0,0,.2.1.3.4.9.8,1.7,1.1,2.5.9,2.2,1.3,4.1,1.3,5.8-1.1-1.4-2.4-2.8-3.8-4.4-.8-.9-1.7-1.9-2.5-3-.2-.2-.4-.5-.6-.7-.1-.2-.6-1.1-1.4-2.5-.5-.9-1.1-2-1.9-3.3-.7-1.2-1.5-2.5-2.3-3.8-3.3-5.1-7.7-11-12.2-13.7ZM434.1,321.8c-1.3,0-2.5.2-3.5.3.1.2.2.5.4.8.4.7,3.2,5.7,5.8,8.2.8.8,1.6,1.3,2.3,1.4.2,0,.8-.2,1.3-1.2-.1-.5-.3-.9-.4-1.4-.5-2.1-.6-4.4-.4-6.8-1.1-.9-2.9-1.3-5.6-1.3ZM436,339c-.3-.1-.6-.3-.9-.4-.9-.5-1.9-1.2-2.9-2.1-.9-.8-1.8-1.8-2.7-2.9-.8-1-1.6-2-2.4-3.3-1.3-2.1-2.1-3.5-2.7-4.5-.7-1.3-.4-2.5-.3-2.7,0,0,.5-.6,1-1.2-.4-.6-1.4-1.9-1.4-1.9.1-.9,0-1.9.4-2.7.9-1.5,1.1-1.4,2.8-1.8,5.6-1.3,10.8-1.2,14.7.4.4-.5.8-.9,1.4-1.4-4.1-2.5-7-3.9-10.6-5.5-1.5-.7-3.2-1.4-5.2-2.3-1.5-.7-3.2-1.4-5.1-2.3-2.3-1.1-5-2.3-8.1-3.8-2.2-1.1-4.5-2.2-6.7-3.3-5.1,2.6-13.5,6.4-26.6,10.8,5,1.1,9.9,2.4,14.5,3.9,2,.7,4,1.4,5.9,2.1,1.8.7,3.5,1.5,5.1,2.3,3.8,1.9,6.8,4.1,8.8,6.5,3.7,4.6,6.7,8.7,9,12.4.7,1.1,1.3,2.2,1.9,3.2.6,1.1,1.2,2.2,1.7,3.2.2.4.3.7.5,1.1,2.1,4.9,2.7,9.1,1.8,12.9-.1.5-.3,1-.4,1.5-.3.8-.6,1.6-1,2.3-3.2,5.9-10,9.9-16.7,12.8,2.7,1.9,5.9,4.5,8.7,7.6.9,1,1.7,2,2.4,3,.2.3.4.5.5.8.5.8,1,1.6,1.4,2.4,1.6,3.1,2.5,6.4,2.2,10.1.4-1.3.6-2.7.7-4.2.2-3.3.6-5.6,1-7.3.2-.7.3-1.3.5-1.8.5-1.3,1.1-2.1,1.8-2.8,1-1,2.1-1.8,3.6-3.3,1-1,1.8-2,2.4-2.9,3.6-5.7-1.3-9.3-6.3-15.2,1.2-.6,2.3-1.2,3.3-1.9-.2-1.3-.3-1.6.7-2.9,0,0,2.4-1.4,2.4-1.4.2,0,.4,0,.7.1.7-2,2-3.5,3.5-4.4.9-2,1.6-4.3,1.9-6.8.2-1.1.3-2.1.5-3.1-2,1.4-4.7,2.1-7.8.8ZM374.1,325.1c.1,0,.2.1.4.2.8.4,1.6.8,2.3,1.2,1.7,1.1,2.9,2.2,3.7,3.5.6-.7,1.3-1.5,2.1-2.3,1.2-1.3,2.6-2.8,4.2-4.5.5-.5,1-1.1,1.6-1.7.1-.1.2-.2.4-.3,1.8-1.7,3.7-2.3,5.6-2.1-1.8-.6-3.6-1.1-5.5-1.7-1.3-.4-2.7-.7-4-1.1-1-.3-2-.5-3-.7-3.1-.7-6.2-1.4-9.3-2-1.5-.3-3.1-.6-4.6-.9-.5,0-.9-.2-1.4-.3-.8.2-1.6.5-2.4.7.2.3.3.7.5,1.1.1.3.3.6.4,1,.4,1.5.5,2.5.7,3.5.3,1.3,1.1,2.3,3.7,3.9,0,0,.1,0,.2.1,1.2.7,2.7,1.4,4.6,2.4ZM416,385.5c0,0-.2-.2-.2-.3-.8-1-1.7-1.9-2.8-2.9-.5-.5-1-.9-1.6-1.4-.6-.5-1.2-.9-1.7-1.4-3.1-2.4-6.4-4.3-7-4.7,0,0-1.7-.7-2.1-2.5-.2-.9,0-2.4,1.1-3.5.3-.3.7-.5,1.2-.7,2.1-.8,6-2.2,9.9-4.1-1.1-.8-2.2-1.6-3.3-2.3-1.7-1.2-3.4-2.2-4.9-2.6-1.5-.4-2.8-.1-3.6,1.3-.5.8-.8,1.9-1,3.4-1.6,11.5-8.8,19.3-18.1,23.6-.9.4-1.7.8-2.6,1.1-1.3.5-2.6.9-3.9,1.3-1.9.5-3.8.9-5.8,1.2,0,0,.1,0,.2.1,4.6,3.7,9.5,7,14.5,9.5,1,.5,1.9.9,2.9,1.4,2.9,1.3,5.9,2.3,8.9,2.9,1.7.4,3.4.6,5,.8,4.5.3,8.7-.3,12-1.7,3.2-1.4,5.5-3.4,6.5-6,1.1-2.7.8-6-1.4-9.7-.5-.9-1.2-1.8-2-2.8ZM201,401.8c-.6,8.5-.6,14.8,0,19.6.1,1,.3,2,.5,2.9.5,2.3,1.3,4.1,2.2,5.5.1-1.7.4-3.7.7-5.7.2-1.5.4-3.1.5-4.8,0-.6-.6-5.3-.8-11.1-.2-6.1,0-13.4,2.2-18.2-3,4.5-5.1,8.6-5.3,11.9ZM215.1,385c.8.2,1.5.3,2.2.5,3.7.8,6.7,1.5,9,2.1,0-2.3.7-4.7,2.2-7.4,5.9-10,3.6-9.4,2.2-13.7-.2-.8-.4-1.5-.4-2.1-.8.3-1.6.5-2.4.8-4.3,4.3-8.8,9-12.9,13.6-2.3,2.6-4.4,5.2-6.3,7.7,1.6-1.3,3.6-1.9,6.3-1.4ZM179.6,422.7c2-2.4,1.2-11.4,1.1-12.4,0-.3,0-.6,0-.9-3.4,1.6-6.2,3.8-7,6,1.9,2.3,3.3,4.7,4.1,7.2,1.4.7,1.8.3,1.9.1ZM229.8,426.2c-1-1.1-1.9-1.8-2.8-2.2-1.5-.7-2.7-.2-3.7,1-1,1.1-1.8,2.9-2.5,4.9-.5,1.2-.9,2.5-1.4,3.8,5.4-.7,10.3-2.2,11-2.3.3,0,.5,0,.8,0,2.1.3,3.9,2.5,2.8,5.1,0,0-1.8,3.6-3.3,8.3-.8,2.6-1.6,5.6-1.8,8.5-.3,3.4,0,6.7,1.6,9.3.7,1.2,1.6,2.1,2.8,2.9,2.3,1.5,5.3,1.9,8.8,1.3,3.4-.7,7.1-2.4,10.8-5.5,2.6-2.1,5.2-4.9,7.6-8.3.6-.8,1.2-1.7,1.7-2.6.6-.9,1.1-1.8,1.6-2.8,2.8-5,4.9-10.6,6.6-16.3-3.1,1.5-6.2,2.7-9.5,3.5-11,2.7-22.5.8-31-8.5ZM221.6,456c-.2-5.7,1.5-11.6,3.1-16-7.7,1.5-15.3,2-21.1-1-.7-.4-1.5-.8-2.1-1.3-3.3-2.5-5.8-6.5-7.1-12.6-.3-1.4-.5-2.9-.7-4.5,0-.3-.8-6.4.1-19.3.6-8.8,9.6-20.7,19.7-31.7-10,2.9-19.5,5.1-27.9,6.2-12.4,22.6-14,22.6-19,33.4-.2.4-.3.7-.5,1.1.7,0,1.4.1,1.9.3,2.2-3.6,6.5-6.6,11.9-8.7,1.6-.6,1.7-.8,3.3-.1,0,0,1.9,2,1.9,2,0,.8.2,1.6,0,2.3.5,0,1,.2,1.4.5,1.6,1.3,1.2,1.5,1.4,3.5.2,1.8,1.1,10.1-1.6,15.4-1.2,2.3-3.1,4.1-6.1,4.5-.4,0-.8,0-1.2,0,.7.7,1.4,1.4,2.1,2.3,1.7,1.9,3.5,3.3,5.4,4.5,1.8,0,3.7.4,5.5,1.7.3-.3.5-.5.5-.5.9,0,1.9-.5,2.7-.2,1.5.5,1.6.8,2.2,2,1.3,0,2.5-.1,3.8-.3-.9,9-3.4,15.2,7.1,17.2,3.6.7,5.3.1,7.9,1.9,1.6,1.1,3.5,3.1,6.4,6.7.9,1.1,1.8,2,2.8,2.9-2-2.6-3.4-6.1-3.8-10.3,0-.6,0-1.2,0-1.8ZM344.5,56.8c-11.5,19.4-21,41.6-28.1,61.2-4.7,12.8-8.3,24.5-10.8,33.5,2.3,13,9.3,30.7,21.2,25.6,3.3-8.5,6.9-17.6,10.9-27.4,1.7-4.2,4.1-9.4,6.9-14.6,1-1.8,2-3.6,3-5.4-6.6-7.9-9.7-23.9-9.6-30.9.2-8.5,3.2-24.9,6.5-41.9ZM437,153.6c3.3-4.7,6.6-9.4,9.8-13.9-1.8-4.2-3.5-8.2-5-12.1-3.6,3.3-7.4,6.7-11.4,10.4,5.2,2.8,7.4,9.3,6.6,15.6ZM428,158.3c3-4.7,3.4-14.4-3.7-14.6,0,0-.1,0-.2,0-.4.3-.7.7-1.1,1-2.2,2-4.3,3.8-6.3,5.5-3.5,9.1,7.1,14.6,11.3,8.1ZM407.7,197.6c4.7-8.2,11.8-18.8,19.6-30-7.7,2.7-17-2.6-18.3-11.6-2.8,1.9-5.3,3.4-7.6,4.5,3.8,7.9,6.9,18.1-3.6,32.4,3.1,1.3,6.6,2.9,9.9,4.8ZM186.2,197.9c-7.9-6.6-15.6-12.5-24.1-18.6-1.3-.9-2.5-1.8-3.8-2.7-18.4-13-38.4-25.3-57.9-34.3,12.4,12,24.2,23.9,29.2,30.7,4.1,5.7,10.6,20.6,9.7,30.8,1.8.8,3.6,1.7,5.5,2.7,1.7.9,3.4,1.8,5.2,2.8,2.9,1.6,8.4,4.7,33.4,21.7,12.7-2.6,8.3-21.1,2.9-33.1ZM76,257.9c-5.4-.7-10.5-1.4-15.3-2,1,4,1.9,8.3,2.8,12.8,5.2,1.9,10.5,3.9,16,5.9-4.2-4.7-6.2-11.2-3.5-16.6ZM96.6,271.5c2.3-2.8,2.6-8-2.4-11.4-2.6-.2-5.3-.5-8.3-.9-.5,0-1-.1-1.5-.2-3.1,2.2-3.3,5.3-.7,9.2,2.8,4.2,9,8,12.9,3.2ZM112.7,259.9c-2.5.4-5.4.6-8.8.7,3.8,8-.4,17.8-8.5,19.9,12.7,4.8,24.6,9.5,33.1,13.5,1.7-3.5,3.4-6.3,4.5-8,.3-.5.7-1,1-1.5-16.7-5.8-20-16-21.4-24.6Z" fill="#c0f4ec"/><path d="M76,257.9c-5.4-.7-10.5-1.4-15.3-2-.6-2.4-1.3-4.8-2-7-1.7-5.3-4.7-10.7-8.3-16.3-9.1-13.9-22.5-28.6-32-42.9,10.1,6,22.7,13,37.9,21.5,1.4.8,2.9,1.6,4.3,2.4,19.1,10.7,30.2,12.8,36.2,10.2.8,1.7,2,3.6,3.8,5.9.9,1.2,2,2.5,3.1,3.8,1.9,5.9,4.2,11.1,6.2,14.1,1.8,2.7,1.9,7.2,2.7,12.2-2.5.4-5.4.6-8.8.7-1.5-3.2-4.3-6-8.6-8,0,0,0-.2,0-.3,0,0-1.4-2.4-1.4-2.4-1.4-1-1.6-.9-3.3-.6-4.8.8-8.2,2.2-10.6,4-1.9,1.4-3.2,2.9-4.1,4.6ZM88.9,257.1c-1.9.5-3.4,1.2-4.5,2,.5,0,1,.1,1.5.2,3,.4,5.7.7,8.3.9-.9-.6-1.9-1.2-3.2-1.6-1.3-.5-1.6-.5-2.1-1.5ZM101.5,302.5c-.4-.2-.6-.3-.9-.4-4.3,3.1.2,10.7,3,10.3,4.2-.6,6.6-1.9,6.4-2.9-.3-1.6-3.3-4.6-8.5-7ZM77.4,166c6.9,7,12.7,13.2,15.7,17.5,1.1,1.5,2.4,3.7,3.6,6.3,1.7,3.4,3.3,7.5,4.5,11.6,2.1-1.9,4.7-3.3,8-4,7-1.4,16.9.3,30.1,6.4.9-10.3-5.6-25.1-9.7-30.8-5-6.9-16.8-18.7-29.2-30.7-3.1-1.4-6.1-2.7-9.2-4-18.9-7.6-36.8-11.5-51.6-9.1,10.9,10.8,26,24.9,37.8,36.8ZM185.9,447.6c0,1.5.7,3.4,1.1,4.4,1.4,0,3.9-1.1,4.8-3.4-1.9-.7-1.4-1.4-2.7-3.1-.7-1-1.9-1.8-2.4-1.2-.9.9-.7,3-.7,3.3ZM437,153.6c3.3-4.7,6.6-9.4,9.8-13.9.5,1.1,1,2.2,1.5,3.3,7.5,17,16.4,35.9,18.4,55.9.1,1.2.2,2.4.3,3.6,0,1.2,0,2.4.1,3.6,0,7.1-.8,14.4-3.1,21.8-8.9,2.6-25.6,6.1-42.6,9.7,1.7-3.2,3-6.7,3.7-10.2,1.1-5.9.2-11-2-15.3-.6-1.2-1.3-2.3-2.1-3.3-.8-1.1-1.7-2.2-2.7-3.2-.1-.1-.3-.2-.4-.4-3-3-6.6-5.5-10.3-7.6,4.7-8.2,11.8-18.8,19.6-30,2.7-.9,5.2-2.9,7.1-6,1.5-2.4,2.4-5.2,2.7-8ZM429.7,182.3s0,0,0,0c-2.6,1.1-2.3,1.8-2.2,4.5,0,.2,0,.3,0,.5,0,0,0,0,0,0-4.1,7.9-3.9,13.8-1.3,17.1,1.3,1.6,3.1,2.6,5.3,2.9,2,.3,4.3,0,6.8-.9.1,0,.2,0,.3-.1,4.2-1.5,5.6-2.9,6.7-4.6,0,0,0,0,0,0,5.7-8.7-1.9-25.3-15.8-19.4ZM416.7,150.2c2-1.7,4.1-3.5,6.3-5.5.4-.3.7-.7,1.1-1-1.7,0-3.4.4-4.8.9.2,1.7-.5,1.7-1.5,3.4-.4.7-.8,1.4-1,2.1ZM434.8,189.1c-4.1,7.2-3.4,10.7-2.6,11,1.7.6,6.4-1.3,7.1-2.1,1.9-2.1,1-9.7-3.9-9.8-.1.2-.3.5-.5.8ZM362.4,110.9c.7-.6,3-2.5,6.3-3.8,2.5-1,5.5-1.7,8.8-1.2-1.4-4.1-2.4-8.4-3-12.1-.4-2.8-.6-5.4-.6-7.3.1-5.3,1.3-13.6,3-23.3,2.9-16.5,7.2-36.7,10.1-51.8-13.8,6.6-26.3,20.2-37.2,36.9-1.8,2.7-3.6,5.6-5.3,8.5-3.4,17-6.4,33.4-6.5,41.9-.1,7,3,23,9.6,30.9,4.3-7.3,9.4-14.3,14.8-18.6ZM396.6,148.9c.1,3.2,2.5,7,4.7,11.6,2.3-1.1,4.8-2.6,7.6-4.5-.2-1.4-.2-2.9,0-4.4.3-2.5,1.3-4.9,2.5-7.1-.1-.1-.2-.2-.2-.2,0-.9-.5-1.9-.2-2.7.6-1.7.8-1.6,2.4-2.3,7.4-3.5,13-3.4,16.9-1.3,4-3.7,7.8-7.1,11.4-10.4-1-2.7-1.9-5.3-2.6-7.9-1.4-5-2-10.8-2.2-17.1-.4-16.5,2.3-36.2,1.9-53.5-4.9,10.7-11.3,23.6-19,39.3-.7,1.5-1.4,2.9-2.2,4.5-9.6,19.7-17.6,27.7-23.9,29,.5,3.3.4,7.4,0,12,1.8,5.9,2.8,11.5,2.9,15.1ZM418.6,427.1c-2.2,1.4-4.1,5.1-4.8,6.8,0,.9.3,1.5.6,1.6,1,.4,3.1,0,3.4-.1,2.8-.6,6-2.1,6.2-2.2,0,0,0,0,0,0,.7-1.7-2.1-8-5.5-6ZM442.2,387.9s0,0,0,0c0,0-.6,0-2.1,1.8-.5.7-1.1,1.5-1.5,2.2,1,1.8,2.9,4.6,4.3,3.9.8-.4,1.7-1.5,2.3-2.3-.4-2.6-2-5.3-2.9-5.8ZM431.3,432.8c-.2,5.8-4.9,7.2-6.6,7.9-.5.2-7.9,3.5-13.1,1.3-1.6-.7-3.1-1.9-4-4-.6-1.3-.8-2.7-.9-4.1-.2-.7-.2-1,0-1.6,0-2.2.6-4.2.9-5.6,0-.2,0-.3.1-.5.4-1.4,1.5-2.1,1.7-2.2,0,0,1.4-.2,2.2-.3,3.9-4.5,8.2-5.1,11.8-3.6-.9-1.5-3.3-5.6-6.3-10.1-3.8,2-8.5,3.1-14.1,3.1-6.1,0-13.2-1.7-21-5.3-.9,2.2-1.4,5.6-1.7,11.8-.6,11.2-4.9,17.1-11,18.8,8.4,7.1,17.4,11.9,27.1,12.9,5.8.6,11.4-.1,16.7-1.4,7.1-1.7,13.8-4.4,19.8-6,4.5-5.8,2.2-10-2.1-15,.4,1.3.6,2.6.5,3.9ZM458.8,364.5c1.8-3.2,5-6.4,9.9-9.4.2-1.1.3-2.6.3-4.4-10.4-1.3-19.8-5.7-25.1-12.7,0,0-.1,0-.2.1-.2.9-.3,2-.5,3.1-.3,2.5-1,4.8-1.9,6.8,5-3.1,13-.2,15.6,12,2,9.4-19.8,14.3-22.8-2.9,0-.2,0-.4,0-.5-1,.7-2.1,1.3-3.3,1.9,5,5.9,9.9,9.5,6.3,15.2-.6.9-1.3,1.9-2.4,2.9-1.5,1.5-2.7,2.3-3.6,3.3-.7.7-1.3,1.5-1.8,2.8-.2.5-.4,1.1-.5,1.8-.4,1.7-.7,4-1,7.3-.1,1.5-.4,2.9-.7,4.2,0,.3,0,.6,0,.9,0,.3-.1.7-.2,1,1.5,0,3,.3,4.9.8,1.2.4,2.4.6,3.6.9-1.2-1.3-2.6-3.2-3.9-6.1-.4-1-.6-1.6-.6-2.1,0-.7.4-1.1,1-2.3,0-.1,2.3-4.6,5.8-7.1,2.1-1.5,4.7-2.2,7.5-.9.5.2.9.5,1.3.8,4.5,3.2,6.7,11.1,5.6,14-.3.7-1.4,2.4-3.1,4.1,6.9-.9,13.5-3.3,19.6-6.6.8-4.1-.9-7.2-7.3-14-.3-.3-.5-.6-.8-.9-1.5-1.8-2.4-3.6-2.9-5.6-.3-1.3-.4-2.5-.2-3.8.2-1.6.7-3.1,1.6-4.7ZM400.3,292.7c-.7,0-1.4,0-2.1,0-3.6-.2-7.4-.3-11.3-.5-5.5-.2-10.3-.7-14.4-1.3-2.8-.4-5.2-.9-7.5-1.4-1.3-.3-2.4-.6-3.5-1-1.3-.4-2.4-.8-3.5-1.3-.5-.2-1-.5-1.5-.7-2.4,1.3-4.7,2.5-7.1,3.7-1.1.6-2.2,1.2-3.3,1.7-1.1.6-2.2,1.2-3.3,1.7-7.6,4-15,7.7-21.5,11-1.1.6-2.2,1.1-3.3,1.7-1.1.6-2.2,1.1-3.3,1.7-1.3.7-2.6,1.3-3.8,2,0,0,0,0,0,0,.9,2,1.7,4,2.6,6,.2.4.3.7.5,1.1.1.2.2.5.3.7,1-.2,2.1-.4,3.2-.6,1.2-.2,2.4-.5,3.6-.7.6-.1,1.3-.3,1.9-.4.5-.1,1.1-.2,1.6-.3,1.9-.4,3.9-.8,5.8-1.3,2.3-.5,4.6-1.1,7-1.6,3.3-.8,6.6-1.6,9.9-2.4.7-.2,1.3-.3,2-.5.5-.1,1-.3,1.5-.4,1.2-.3,2.4-.6,3.5-.9,2.3-.6,4.5-1.2,6.7-1.8.8-.2,1.6-.5,2.4-.7.4-.1.8-.2,1.1-.3.5-.1,1-.3,1.5-.4.7-.2,1.3-.4,2-.6,11.6-3.5,22.4-7.3,31.2-11.4.3-.2.7-.3,1-.5ZM449.7,360.6c-.3-1.4-1.2-4.3-2.9-5.9-2.3-2.1-2.6,1.2-2.5,2.4.1,1.8.5,2-.5,3.3,2,1.4,4.7.8,5.9,0ZM140.1,334.8c-16,6.6-31.8,13.3-40.5,16.2-25.1-19.8-30.3-52-35.4-78.8-.2-1.2-.5-2.4-.7-3.6,5.2,1.9,10.5,3.9,16,5.9,3.2,3.7,7.7,6.3,12.2,6.4,1.3,0,2.6-.1,3.8-.4,12.7,4.8,24.6,9.5,33.1,13.5-1.7,3.5-3.3,7.7-4.1,12.1-1.7,9.8.8,20.8,15.6,28.6ZM106.4,296.9c0,0,0,0,0,0,0-.1-.2-.3-.2-.4-1.4-2.2-1.5-3-4.3-2.4,0,0,0,0,0,0-12.1,2.5-12.4,15.3-6,22.1,4.5,4.8,9.3,3.6,12.6,2.7,11.4-3,13-13.9-2-21.9ZM208.7,470c0,0,0,0-.1,0,0,0,0,0,0,.1-.5.9-.2,4,.9,6.4,1.6.6,3.3,1,3.9,0,.4-.7.8-2.5.5-5.2-2.3-1-4.3-1.6-5.2-1.3ZM222.7,465.3c-2.9-3.6-4.8-5.6-6.4-6.7-2.6-1.8-4.3-1.3-7.9-1.9-10.4-2-8-8.2-7.1-17.2-1.3.2-2.5.3-3.8.3,0,.1.1.3.2.5,7.3,15.8-13.4,24.2-17.1,15.3-4.9-11.5,0-18.4,6-18.7-1.9-1.1-3.7-2.6-5.4-4.5-.8-.8-1.5-1.6-2.1-2.3,0,0-.1,0-.2,0-.3,8.7-5.7,17.7-13.4,24.7.9,1.4,1.9,2.6,2.7,3.4,15.5-1,21,6.4,20.2,14.5,0,.3,0,.6,0,.9-1.3,8.9-1.5,12.8,1.9,16,6.8-.7,13.7-2.5,19.8-5.7-1.3-.2-2.7-.6-4.2-1.3-3.4-1.5-5.8-10.1-4-15,0,0,0,0,0-.1.5-1.3,2.2-4.9,7.3-4.9,1.4,0,3.1.3,5.1.9,1.2.4,2.6,1,4.1,1.8.3.2.6.3.9.5.4.2.7.4,1,.9.2.2.3.5.3.8,0,.3.2.6.2,1,.5,2.8.5,5.2.2,7.2.9-.9,1.7-1.8,2.5-2.8,1.2-1.5,2.4-2.6,3.5-3.4-.5-.5-1-1-1.4-1.6-1-.8-1.9-1.7-2.8-2.9ZM277.5,460.9c-3.8-4.9-6.2-7.4-8.1-8.7-2.3,4-5,7.7-8.1,11-2,2.1-4,3.8-6.1,5.3-4.4,3.1-9,4.9-13.3,5.5,0,5.5.5,10.1.6,11.9,1.3-2,3.4-3.5,6.3-4,1.8-.3,3.6-.1,5.3.3.4-.3,1.1-.9,2.2-1,1.7-.1,1.8,0,3,1.2,0,0,0,0,.1,0,0,0,2.1,1.6,3.8,4,.5.4.8.6,1,1.4,1.6,2.7,2.6,6.1.5,9.3-.2.3-.3.5-.5.8-.8,1-3.4,4.3-13.5,6.1-4.6.8-7.9-2.5-9.2-6.8-.7,6.6-.3,11.4,6.7,13.6,5.9-2.1,12.9-3.7,19.8-6.3,7.9-3.1,15.7-7.6,21.7-16.5,3.5-5.2,6-11.2,7.8-18-6,2-12.9-.3-19.8-9.2ZM258.5,346.1c2.4-1,4.8-2,7.1-2.9,3.2-1.3,6.2-2.6,9.1-3.8,0-.2-.1-.4-.2-.5-.2-.5-.4-1-.5-1.4-.7-2-1.4-4-2-6,0,0,0,0,0,0-12.9,1.7-31.7,4.4-50.7,6.6-1.9,3.6-5.3,7.9-10.6,12.8-3.1,2.9-6.7,5.9-11.1,9.3-3.1,2.4-6.1,4.6-9,6.8-.6.4-1.1.9-1.7,1.3.4,0,.7-.1,1.1-.2,10.3-1.8,22.2-5.1,34.2-9.1.8-.3,1.7-.6,2.5-.8,4.6-1.6,9.3-3.2,13.8-4.9,3.9-1.4,7.7-2.9,11.4-4.4,2.3-.9,4.5-1.8,6.6-2.6ZM249.3,497c.3,0,5.9-1,8.5-2.8.8-.6,1.2-1,.3-2.4,0,0-.1,0-.2-.1-4-2.4-8.2-3.8-9.5-1.7-1.4,2.3-.2,6.3.9,7,0,0,0,0,0,0Z" fill="#bae8fe"/><path d="M494.5,484.4c-9.4,2.4-13.5,2.1-16.1.6-9.4-5.3-13.4-43-37.4-42.5-2.5,0-5.2.6-8,1.3,4.5-5.8,2.2-10-2.1-15-1.1-3.8-3.9-7.3-7.4-8.7-.9-1.5-3.3-5.6-6.3-10.1,5.4-2.8,8.8-7.2,9.8-12,1.5,0,3,.3,4.9.8,1.2.4,2.4.6,3.6.9,1.4,1.5,2.5,2.1,2.9,2.4,4.4,2.5,8.2.5,10.7-1.9,6.9-.9,13.5-3.3,19.6-6.6-.2,1-.6,2.1-1,3.3-3.3,8.3-9.9,17.8-8.6,25.3,2.2,12.5,19.9,10.6,31.4,21.9,6.7,6.6,10.6,18.4,11.1,20.3,4.6,15.5-2.1,18.9-6.9,20.1ZM241.3,497.2c-1.2-3.7-.9-8.2,1.1-11.4-.1-1.8-.5-6.5-.6-11.9-5.8.8-11.2-.6-14.9-4.3-1.1.9-2.3,2-3.5,3.4-.8,1-1.6,1.9-2.5,2.8-1,6.1-5.1,9.1-11,8.1-6.1,3.2-13,5-19.8,5.7.5.4,1,.9,1.6,1.3,5.9,4.4,17.2,8.8,21.4,14.8,7.5,10.8-5.6,19.5-10.6,32.5-1.3,3.5-3.2,9.2-.8,21.6,2,10.2,6.3,19.5,13.1,20.2,2,.2,4,.1,10.6-2.9,9.6-4.3,10.2-7.9,9.3-15.1-2-16.2-10.5-39.5,8.6-49.3,1.5-.8,3.1-1.4,4.7-2-7.1-2.2-7.4-7-6.7-13.6ZM374.5,93.8c-.4-2.8-.6-5.4-.6-7.3.1-5.3,1.3-13.6,3-23.3,2.9-16.5,7.2-36.7,10.1-51.8,1.1-.5,2.2-1,3.3-1.4,1.3-.5,2.7-1,4-1.4,10.6-3,20.9-.7,25.6,1.2,10.5,4.1,15.4,13.1,17.6,24.5.9,4.6,1.3,9.6,1.4,14.8-4.9,10.7-11.3,23.6-19,39.3-.7,1.5-1.4,2.9-2.2,4.5-9.6,19.7-17.6,27.7-23.9,29-.3-2-.9-3.7-1.7-5,0-.1-.1-.2-.2-.4-.8-1.2-1.6-2.3-2.5-3.2-2.9-3.3-5.7-5.3-8.5-6.4-1.2-.5-2.3-.8-3.4-.9-1.4-4.1-2.4-8.4-3-12.1ZM380.2,70.1c-.3,2.5-.4,4.8-.3,6.9.5,7.6,3.8,12.5,8.3,15,2.2,1.2,4.7,1.9,7.4,2,1.9,0,3.8,0,5.8-.5,5.9-1.3,11.8-5,15.7-10.7.2-.3.4-.6.6-.9,1.6-2.5,4.6-7.3.9-15.1-.2-.4-.4-.8-.6-1.2-2.7-5-6.9-9.2-11.8-11.5-7.1-3.4-15.4-3-21.9,4.6,0,0,0,0-.1,0-.2.1-.3.2-1.8,2.1,0,0,0,.2-.2.6-.2.3-.4.5-.5.8-.9,1.5-1.2,1.5-.8,3.3,0,.1,0,.2.1.3-.1.6-.3,1.2-.4,1.7-.2.9-.3,1.7-.4,2.6ZM391.4,85.5c1.4.9,3.1,1.4,4.9,1.4,4.5.1,9.7-2.3,13.3-6.2.5-.5.9-1.1,1.4-1.7.9-1.2,1.6-2.6,2-3.5,0,0,0-.2,0-.3,0-.1,0-.3,0-.3.8-3.9-3.8-11.3-9.8-14.4-4.6-2.3-10-2.2-14.6,4-3.5,11.9-1.4,18.4,2.7,21ZM445.6,259.1c1.4-1.5,2.7-3.1,3.9-4.6,2.4-3,4.6-6.1,6.5-9.1,1.3-2,2.4-4.1,3.4-6.1.7-1.3,1.3-2.6,1.9-4,.6-1.3,1.1-2.6,1.6-3.9.4-1.2.8-2.4,1.2-3.5-8.9,2.6-25.6,6.1-42.6,9.7-.3.6-.6,1.1-.9,1.7-.8,1.5-1.7,2.9-2.6,4.2-.5.7-1,1.4-1.5,2.1-.6.8-1.2,1.6-1.8,2.3-2.5,3.1-4.7,5.3-5.7,6.2-.1.1-.3.3-.4.4-3.9,3.5-9.9,7.6-17.1,12.1-2.8,1.7-5.7,3.5-8.8,5.3-3.1,1.8-6.2,3.6-9.5,5.4-1.8,1-3.5,2-5.4,3-1.7.9-3.4,1.9-5.2,2.8-1.4.8-2.9,1.5-4.3,2.3-.6.3-1.2.6-1.7.9.5.2,1,.5,1.5.7,1,.5,2.2.9,3.5,1.3,1.1.4,2.3.7,3.5,1,2.2.6,4.7,1,7.5,1.4,4.1.6,8.9,1.1,14.4,1.3,3.9.2,7.6.4,11.3.5.7,0,1.4,0,2.1,0,1-.5,2.1-1,3.1-1.5h0c1.3-.7,2.6-1.4,3.8-2.1.5-.3,1.1-.6,1.6-.9.1,0,.2-.1.4-.2,13.2-8,23.6-16.1,31.8-24.2,1.6-1.6,3.1-3.1,4.5-4.7ZM361.7,275.4c-.2-.9-.4-2-.6-3.2-.2-1.4-.5-3-.8-4.7,0-.2,0-.5-.1-.7-.3-2-.7-4.2-1.2-6.5-.3-1.4-.6-2.8-1-4.3-1.2-4.5-6.5-11-10.5-18-.6-1.1-1.2-2.1-1.7-3.2-.3-.7-.6-1.3-.9-2-1.9,1.1-4,2.1-6,3.2-.4.2-.9.5-1.3.7,0,0,0,0-.1,0-16.3,8.6-24.9,12.6-28.7,12.8-5.2,16.9-7.6,26.8-9,32.2,1.5,4.4,3.5,9.2,5.7,14.4.3.8.7,1.6,1,2.4.6,1.5,1.3,3,1.9,4.6,1.6-.8,3.3-1.7,5.1-2.6,1.1-.6,2.2-1.1,3.3-1.7,1.1-.6,2.2-1.1,3.4-1.7,6.5-3.3,13.7-7,21.2-10.9,1.1-.6,2.2-1.1,3.2-1.7,1.1-.6,2.2-1.1,3.2-1.7.9-.5,1.9-1,2.8-1.5,0,0,.1,0,.2-.1.5-.3,1-.5,1.5-.8,2.9-1.5,5.7-3.1,8.6-4.6.3-.2.7-.4,1-.5ZM95.6,214.3c-.2,1.6-.3,3.1-.2,4.5.1,1.6.5,3.2,1.4,5.1-6,2.5-17.1.5-36.2-10.2-1.5-.8-2.9-1.6-4.3-2.4-15.2-8.5-27.8-15.5-37.9-21.5-2.9-4.4-5.4-8.7-7.3-13-2.8-6.3-4.4-12.5-3.8-18.5,1.5-14.6,16.1-23.5,21.1-25.8,2.4-1.1,5-1.9,7.6-2.6,1.2-.3,2.3-.5,3.5-.7,10.9,10.8,26,24.9,37.8,36.8,6.9,7,12.7,13.2,15.7,17.5,1.1,1.5,2.4,3.7,3.6,6.3,1.7,3.4,3.3,7.5,4.5,11.6-.9.8-1.6,1.7-2.3,2.7-1.8,2.7-2.9,6.1-3.3,10,0,0,0,0,0,.1ZM74.6,204.9c1.8-.7,3.5-1.7,5-2.9,2.1-1.6,3.8-3.6,4.9-5.9.3-.7.6-1.3.8-2,1.7-5.5.2-10.7-2.5-15-1.3-2.1-2.8-4-4.3-5.6-1.1-1.2-2.2-2.3-3.2-3.2,0-.1,0-.2,0-.2-.3-.9-1.3-1.3-1.9-2,0,0-.6-.3-1.5-.6,0,0,0,0-.1,0-1.3-1-1.4-1.2-3-1,0,0-.1,0-.2,0,0,0-.2,0-.3,0-9.9-2.3-16.7,2.2-20.3,8.8-3,5.3-3.9,11.9-3,17.5.8,4.4,2.7,8.1,5.8,10.1,1.5.9,3,1.7,4.6,2.3,6.4,2.4,13.4,2.2,19-.1ZM68.4,173.8c-3.4-1.1-10.3-2.3-14.2,5.1-.3.6-.6,1.2-.8,1.8-2.6,6.5-1.4,13.9,1.2,15.8,0,0,.1.1.2.2,0,0,0,0,0,0,1.8,1.1,3.7,1.9,5.7,2.3,5.4,1.3,10.9.2,14.5-2.4,1.5-1.1,2.6-2.4,3.2-4,.7-1.7.9-3.6.3-5.8-1.5-5.7-7.5-10.9-10.1-13ZM199.5,359.9c4.4-3.3,8.1-6.4,11.1-9.3,5.2-4.9,8.6-9.1,10.6-12.8-24,2.8-48.2,4.9-60.9,3.4-1.5-.2-2.8-.4-3.9-.7-2.8-.7-5.3-1.4-7.6-2.2-3.3-1.1-6.1-2.3-8.6-3.7-16,6.6-31.8,13.3-40.5,16.2,4.8,3.8,10.3,7.1,16.6,9.8,15.3,6.6,35.5,10,62.7,8.4.1,0,.3,0,.4,0,.6,0,1.2,0,1.8-.1,1.4-.1,2.9-.3,4.4-.5,1.1-.1,2.2-.3,3.4-.5.6-.4,1.1-.9,1.7-1.3,2.9-2.2,5.8-4.5,9-6.8ZM265.8,302c-.5-.4-1-.9-1.6-1.4-4.2-3.7-11.6-10.2-24.4-20.3-1.7,1-5,2-10.3,3-5,.9-11.8,1.9-20.8,2.9-2.9.3-5.6.7-8.3.9,1.9,9.4.4,21.1,2.4,26.6.5,1.4,1,2.8,1.6,4.1.9,2.2,1.8,4.2,2.7,6.1.1.2.2.4.3.6,1.4,2.9,2.6,5.3,3.3,7.2,3.6-.4,7.2-.8,10.8-1.2.6,0,1.2-.1,1.7-.2,17.3-2.1,34.3-4.5,46.6-6.1-.4-1.7-.8-3.4-1.2-5-1.4-6.1-2.3-11.9-2.8-17.3Z" fill="#d9c7fb"/><path d="M358.9,391.6c-13.4-.6-26.1-6.2-31.3-15.9,0,0,0-.2.1-.3.4-1.1.7-2.3.9-3.5.5-2.9.5-6.1.1-9.6-.1-1-.3-2.1-.4-3.1-.2-1.1-.4-2.2-.6-3.3,0-.3-.1-.7-.2-1,.2.2.3.5.5.7,1,1.3,2,2.7,3,4.1.3.5.7.9,1.1,1.4,2,2.7,4.2,5.5,6.5,8.5,5.8,7.3,12.7,15.1,20.3,22.2ZM416.9,344.7c-.2-.2-.4-.5-.6-.7-.1-.2-.6-1.1-1.4-2.5-.5-.9-1.1-2-1.9-3.3-.7-1.2-1.5-2.5-2.3-3.8-3.3-5.1-7.7-11-12.2-13.7-1-.4-2.1-.8-3.3-1.2-.3-.1-.6-.2-.9-.3-1.9-.2-3.8.4-5.6,2.1-.1.1-.3.2-.4.3-.6.6-1.1,1.1-1.6,1.7-1.6,1.7-3,3.2-4.2,4.5-.8.9-1.5,1.6-2.1,2.3-.8-1.3-2.1-2.5-3.7-3.5-.7-.4-1.4-.9-2.3-1.2-.1,0-.2-.1-.4-.2-2-.9-3.5-1.7-4.6-2.4,0,0-.1,0-.2-.1-2.6-1.5-3.3-2.6-3.7-3.9-.3-1-.3-2-.7-3.5-.1-.3-.2-.6-.4-1-.2-.4-.3-.7-.5-1.1,0,0,0,0,0,0-1.7.5-3.5,1-5.3,1.5-.4.1-.9.2-1.3.4-.9.2-1.7.5-2.6.7-1.2.3-2.5.7-3.8,1-7.1,1.8-15,3.7-23.7,5.6-1.2.3-2.4.5-3.6.8-1.2.3-2.4.5-3.6.8-.9.2-1.9.4-2.8.6,1.8,4.3,3.5,8.7,5,12.9,1.7,1.4,3.6,3.3,5.7,6,1.3,1.7,2.9,3.9,4.8,6.5.5.7,1,1.4,1.6,2.1,1.3,1.7,2.6,3.6,4.1,5.5.6.7,1.1,1.5,1.7,2.3,1.7,2.3,3.6,4.6,5.6,7.1,2.2,2.7,4.6,5.5,7.1,8.3,5.1,5.6,10.6,11.1,16.6,15.9,2-.3,3.9-.7,5.8-1.2,1.3-.4,2.6-.8,3.9-1.3.9-.3,1.8-.7,2.6-1.1,9.3-4.3,16.5-12,18.1-23.6.2-1.5.6-2.6,1-3.4.9-1.4,2.1-1.7,3.6-1.3,1.5.4,3.1,1.4,4.9,2.6,1.1.7,2.2,1.6,3.3,2.3,1.3-.7,2.6-1.4,3.8-2.2,3.6-2.4,6.6-5.4,6.8-9.2,0-.2,0-.4,0-.7-1.1-1.4-2.4-2.8-3.8-4.4-.8-.9-1.7-1.9-2.5-3ZM467.7,343.2c-1.2-4.1-3.4-8.8-7.2-13.7-.8-1-1.6-1.9-2.4-2.9-.8-.9-1.7-1.8-2.7-2.8-.6-.6-1.2-1.1-1.9-1.7-2.9-2.5-6.2-5-10.2-7.4,0,0-.2-.1-.3-.2-.6.4-1.1.9-1.4,1.4,4.1,1.8,6.7,5.3,6.8,10.7,0,0,0,.1,0,.2,0,1.1-.1,2.3-.3,3.6,0,0,0,.2,0,.2-.1.6-.2,1.1-.3,1.7-.2.8-.6,1.8-1.2,2.7-.7,1.1-1.6,2.1-2.7,2.9,5.2,7,14.7,11.3,25.1,12.7,0-2.1-.4-4.7-1.2-7.6ZM439.7,323c-.2,2.4,0,4.7.4,6.8.1.5.2.9.4,1.4.1-.2.2-.4.3-.6,0-.4.2-.7.2-1.1.5-2.8.5-5.1-1.3-6.5ZM171,426.3c-.9-.9-1.7-1.9-2.3-2.8-3.1-4.6-3-9-.6-12.9-.6-.2-1.2-.3-1.9-.3-1.9,4.3-3.3,8.4-4.3,12.2-2.6,10.7-1.8,19.2.3,25.4.9,2.8,2.1,5.1,3.3,7,7.8-7,13.1-16,13.4-24.7-3.9-.1-6.6-2.7-7.1-3.2-.3-.2-.5-.5-.7-.7ZM177.1,422.2c.2.1.4.3.6.4-.8-2.5-2.2-4.9-4.1-7.2-.2.6-.3,1.3,0,1.9.6,2.2,2.6,4.1,3.6,4.9ZM297.6,376.1c-1.4-1.3-2.8-2.7-4.1-4.3-2.6-3-5.3-6.5-7.8-10.4-.6,2-1.1,4.4-1.3,7.5-.1,2.4-.2,5.7-.3,9.5,0,1.6,0,3.3-.2,5,0,.6,0,1.2,0,1.8-.2,5.9-.6,12.7-1.4,19.8-.7,6.7-1.8,13.7-3.4,20.7,8.5-6.5,14.8-15.3,16.4-24.1,1.4-.5,2.7-1.1,4-1.8-.2-2.5-.4-5-.6-7.4-.5-5.5-.9-11-1.4-16.3ZM277.3,346c-11.4,4.9-25.7,10.8-40.5,16-2.2.8-4.3,1.5-6.5,2.3,0,.7.2,1.4.4,2.1,1.4,4.3,3.7,3.7-2.2,13.7-1.6,2.6-2.2,5.1-2.2,7.4-2.3-.6-5.3-1.3-9-2.1-.7-.2-1.4-.3-2.2-.5-2.7-.5-4.7,0-6.3,1.4-.9,1.2-1.8,2.4-2.6,3.6-2.2,4.8-2.5,12.1-2.2,18.2.2,5.8.9,10.5.8,11.1,0,1.7-.3,3.3-.5,4.8-.3,2.1-.5,4-.7,5.7,2.4,3.4,6.1,4.4,11.3,4.2.1,0,.3,0,.4,0,1.3,0,2.6-.2,3.9-.4.5-1.3.9-2.6,1.4-3.8.8-2,1.6-3.7,2.5-4.9,1-1.2,2.2-1.7,3.7-1,.8.4,1.7,1.1,2.8,2.2,8.6,9.4,20.1,11.2,31,8.5,3.2-.8,6.4-2,9.5-3.5,2.2-7.3,3.6-15,4.5-22.5.1-.9.2-1.8.3-2.7.7-6,1.1-11.7,1.3-17.1,0-1,0-1.9.1-2.9,0-2.4.2-4.7.2-6.8.2-6.5.3-11.8.8-14.9.8-5.3,2.2-8.1,3.4-10.8-1.3-2.4-2.5-4.9-3.7-7.6ZM296.8,260.8c-.2,2.6-.4,4.1-.5,5.5,4.3-15.6,12.6-43.1,30.6-89.3-11.9,5.1-18.8-12.6-21.2-25.6-.9,3.3-1.7,6.2-2.3,8.7-5.9,24.2-10.8,55-13.9,77.4,8.8,7.1,7.5,21.5,7.4,23.2ZM385.8,184.9c0,1.5.3,2.4.4,2.9,2.2.8,4.4,1.9,6.6,3.1,1.5.6,3.2,1.3,5,2,10.4-14.2,7.3-24.5,3.6-32.4-2.2-4.6-4.6-8.3-4.7-11.6-.1-3.6-1.1-9.2-2.9-15.1-.9,8.5-3.1,18.7-5.1,28.7-.9,4.5-1.7,8.9-2.3,13.1-.8,5.8-.7,8.5-.7,9.3ZM337.5,236.8c.4-.2.9-.5,1.3-.7,2.1-1.1,4.1-2.2,6-3.2-.2-.5-.4-1-.6-1.5-1.6-4.3-2.1-8.6-.2-12.5,1.2-2.5,2.5-4.9,3.8-7.3,10.6-18.8,23.8-31.3,30.8-28.9.2-7,2.1-16.8,4-26.6,2.8-14.1,5.7-28.3,3.9-34.5-.1-.4-.4-.9-.7-1.4-.4-.6-.8-1.2-1.3-1.8-.3-.4-.7-.8-1-1.2-1-1-2-1.9-2.7-2.5-.5-.4-1.6-1.2-3.1-1.6-3.1-.9-8.4-.2-15.9,8.6-1.2,1.4-2.4,3-3.7,4.9-1.6,2.3-3.1,4.7-4.5,7.2-1.7,2.9-3.3,5.9-4.7,8.9-3.6,7.5-6.6,15-9.4,22.2-.2.5-.4,1-.6,1.4-3.6,8.9-6.8,17.2-9.7,24.9-5.1,13.5-9.4,25.2-12.8,35.4,0,0,0,.2,0,.3-3,8.7-5.5,16.3-7.5,22.8,3.8-.2,12.4-4.1,28.7-12.8,0,0,0,0,.1,0ZM183.4,231c.7.5,1.4.9,2.1,1.4,46.3,31.3,68.8,50.1,79.5,59.4-.3-5.9-.2-10.8-.1-14.4-7-7.9-21.6-24.1-38.9-41.9-16.3-16.8-28.3-28.1-39.7-37.6,5.5,12,9.8,30.5-2.9,33.1ZM124.3,254.4c-7.1-6.9-14.9-14.4-20.5-20.8,1.9,5.9,4.2,11.1,6.2,14.1,1.8,2.7,1.9,7.2,2.7,12.2,1.4,8.6,4.7,18.8,21.4,24.6,1-1.6,2-3,2.9-4.4,1.1-2.3,2.3-4.6,3.7-6.4-1-3.9-8.2-11.2-16.4-19.3ZM229.5,283.4c5.3-1,8.6-1.9,10.3-3-5.4-4.2-11.7-9-19.2-14.5,0,0-.1-.1-.2-.2-8.7-6.4-18.8-13.6-30.7-21.8-7.2-4.9-14.9-10.2-23.4-15.8-2.8-1.9-5.7-3.8-8.7-5.8,0,0-4.4-3-10.6-6.5-3-1.7-6.4-3.5-10-5.2-4.4-2.1-9.1-4-13.6-5.2-1.1-.3-2.3-.6-3.4-.8-7.4-1.4-11.9-.3-14.5,2.8-1.4,1.6-2.1,3.9-2.5,6.5,0,.5,0,.9-.2,1.4,0,.8-.1,1.6-.1,2.5,0,.1,0,.2,0,.4,0,3.2,6.8,10.9,7.5,11.7,4.6,5.1,10.1,10.5,15.5,15.7,7.2,7,14.3,13.8,18.4,19.6,4.4-5.9,22.4-3.2,41.8,6.3,2.4,1.2,4.8,2.4,7.2,3.8,4.2,2.4,6.2,6.8,7.3,11.9,2.7-.3,5.4-.6,8.3-.9,9-1.1,15.8-2,20.8-2.9Z" fill="#f8fcb9"/><path d="M374.3,212.6c.1.5.2,1,.3,1.6,0,0,0,.1,0,.2.1,1.1.2,2.3.2,3.5,0,1.2,0,2.5-.1,3.9-.6,9.2-3.4,21.1-5.1,30.6-.8,4.3-1.3,8-1.4,10.9,0,1.4,0,2.7.3,3.6,0,0,0,0,0,0,.4,1.5,1,2.7,1.7,3.5,0,0,0,0,0,0,0,0,0,0,0,0-.1,0-.3.1-.4.2-2.4,1.4-4.9,2.7-7.5,4.1-.3.1-.5.3-.8.4-.2-.9-.4-2-.6-3.2-.2-1.4-.5-3-.8-4.7,0-.2,0-.5-.1-.7-.3-2-.7-4.2-1.2-6.5-.3-1.4-.6-2.8-1-4.3-1.2-4.5-6.5-11-10.5-18-.6-1.1-1.2-2.1-1.7-3.2-.3-.7-.6-1.3-.9-2-.2-.5-.4-1-.6-1.5-1.6-4.3-2.1-8.6-.2-12.5,1.2-2.5,2.5-4.9,3.8-7.3,10.6-18.8,23.8-31.3,30.8-28.9,0,1.5,0,2.9.1,4.1-5.7,1.1-8.7,7.9-4.4,25.8ZM207.1,324c-.9-1.8-1.8-3.9-2.7-6.1-.5-1.3-1.1-2.7-1.6-4.1-1.9-5.4-.5-17.2-2.4-26.6-1.1-5.1-3.1-9.5-7.3-11.9-2.4-1.4-4.8-2.6-7.2-3.8-19.4-9.5-37.3-12.2-41.8-6.3.9,1.2,1.6,2.3,2.2,3.4,5.3-2.3,11.7,1.5,18.3,18.7.2.5.5,1.1.8,1.7,4.3,8.4,16.8,19.5,25.7,28.4,3.1,3.1,5.7,5.9,7.4,8.2.8,1.2,1.5,2.2,1.8,3.1.6,1.6.7,2.9.6,4.1,3.2-.3,6.5-.6,9.8-1-.7-1.9-2-4.3-3.3-7.2,0-.2-.2-.4-.3-.6Z" fill="#fbd5dc"/><path d="M411.7,239.7c-.4.6-.8,1.2-1.3,1.8-.6.9-1.3,1.7-2.1,2.6-.5.7-1.1,1.4-1.7,2.1,0,.1-.2.2-.3.3-.5.6-1.1,1.2-1.8,1.8-2.2,2-5.1,4.3-8.6,6.7-3.5,2.4-7.6,5.1-12.2,7.8-4,2.4-8.4,5-12.9,7.5,0,0-.2,0-.3.1,0,0-.2.1-.3.2,0,0,0,0,0,0,0,0,0,0,0,0-.7-.9-1.3-2-1.7-3.5,0,0,0,0,0,0-.2-.9-.3-2.2-.3-3.6,0-2.9.6-6.7,1.4-10.9,1.7-9.5,4.5-21.4,5.1-30.6,0-1.4.1-2.7.1-3.9,0-1.3,0-2.4-.2-3.5,0,0,0-.1,0-.2,0-.6-.2-1.1-.3-1.6-4.3-17.8-1.3-24.6,4.4-25.8.1,1,.3,1.9.5,2.7.1.5.3.9.5,1.3,1.2,2.8,3.1,3.9,7.4,5.5,1.2.5,2.5,1,4.1,1.6.6.2,1.2.5,1.8.7,4,1.6,7.9,3.3,11.3,5.3,1.7,1,3.4,2,4.9,3.1,1.3,1,2.5,2,3.6,3,.5.5.9.9,1.3,1.4.5.6,1,1.2,1.5,1.9,4.4,6.4,4.3,14.8-3.8,26.4ZM392.8,190.9c-2.2-1.3-4.4-2.4-6.6-3.1,0,.2.2.4.2.4,1.2.7,3.5,1.6,6.4,2.7ZM140.7,273.7c-1.4,1.9-2.6,4.1-3.7,6.4,1.7-2.5,3.2-4.6,3.8-6,0-.1,0-.3-.1-.4ZM198.5,325.6c-1.7-2.3-4.3-5.1-7.4-8.2-8.9-8.9-21.4-20-25.7-28.4-.3-.6-.6-1.1-.8-1.7-6.6-17.1-13-21-18.3-18.7.7,1.4,1.3,2.7,1.5,3.8,0,.3.1.7.1,1,.2,2.5-.9,4.6-3.1,7.8-1,1.5-2.2,3.2-3.6,5.2-.9,1.4-2,3-3.1,4.8-1.3,2.1-2.3,4.1-3.3,6-2.1,4.4-3.3,8.3-3.7,11.8-1.1,10.2,5.1,17.1,18,21.9.9.3,1.7.6,2.7.9.9.3,1.7.6,2.6.8,1.7.5,3.4.9,5.6,1.3,4.1.6,9.7.8,19.2.4,6.4-.3,13.5-.8,21-1.5.2,0,.4,0,.6,0,.1-1.2,0-2.5-.6-4.1-.3-.9-1-2-1.8-3.1ZM270.9,271.3h0s0,0,0,0c0,0,0,0,0,0ZM316.1,341.8c-.2-.6-.4-1.2-.6-1.8,0-.2-.1-.4-.2-.6-1.1-3.2-2.4-6.4-3.7-9.6-.5-1.3-1-2.5-1.5-3.8-.5-1.1-.9-2.3-1.4-3.4-.5-1.1-.9-2.3-1.4-3.4-.4-1-.8-1.9-1.2-2.9-.4-1-.9-2.1-1.3-3.1-.2-.4-.3-.8-.5-1.1-.3-.7-.6-1.4-.9-2.1-.5-1.1-1-2.2-1.4-3.4-.4-.9-.7-1.7-1.1-2.6-1-2.2-1.9-4.5-2.8-6.6-1.2-3-2.4-5.9-3.5-8.7-.3-.9-.7-1.8-1-2.6-.8-2.2-1.5-4.3-2.1-6.2-1.8-5.8-2.8-10.7-2.3-14.2.6-4.8,1.4-12.5-1-18.1-.7-1.6-1.7-3.1-3.1-4.2-.9-.8-2.1-1.4-3.4-1.8-.8-.3-1.7-.5-2.7-.6-6.3-.7-13.7,2.2-16.4,3.9-.5,1-1.4,3.8,0,9.2,1.9,7.3,6.5,14.8,8.6,17.5h0c.2.2.4.4.5.6.1.1.4.9.5,1,0,.4,0,.7.1,1.1h0c0,.1,0,.4,0,.7,0,1.1-.2,3.1-.2,6,0,.7,0,1.5,0,2.3,0,3.4.1,7.6.5,12.4.1,1.7.3,3.4.5,5.2,0,.4,0,.8.1,1.1.1.9.2,1.8.3,2.7.7,5,1.6,10.3,2.9,15.8.2,1,.5,2,.8,3,.3,1.2.6,2.4,1,3.6.2.7.5,1.5.7,2.2.1.4.2.8.4,1.2.3,1,.7,2.1,1.1,3.1.3,1,.7,2,1.1,3,.4,1.1.9,2.2,1.3,3.3.2.4.4.9.6,1.3.3.7.6,1.3.9,2,1.5,3.3,3.2,6.6,5,9.9,1,1.7,2,3.4,3.1,5,1.6,2.4,3.2,4.5,4.7,6.5.7.9,1.4,1.8,2.2,2.6.6.7,1.2,1.3,1.8,1.9h0c1.3,1.4,2.7,2.6,3.9,3.7,4.4,3.8,8.2,5.5,10.3,5.1.5,0,1-.2,1.5-.4,1.1-.4,2.1-1,3-2,.6-.7,1.2-1.6,1.6-2.8.1-.4.2-.7.3-1.1.8-3.1.7-7.8-.8-14.7-.9-4.1-2.3-9.1-4.4-15Z" fill="#d1d8f7"/><path d="M672.8,183.6c-48.6-1.3-131.3,6.1-199.1,14.5-2.7-26.4-16.4-50.7-24-69.9-5.2-13.1-6.5-19.4-4.9-46.1,1.9-31.8,6.8-73.1-28.5-80.8-18.8-4.1-32.1,3.3-37.4,6.4-44,26.4-72.1,114-79.2,138.3-7.3,25.1-13.3,61.9-17.1,88.3-.6-.2-1.2-.3-1.9-.4-9.8-1.5-22.1,3.7-23.9,6.5-4.1,6.1-1.4,14.8-1,16.3-15.5-16.9-38.2-40.8-57.9-58.2-24-21.3-53.4-39.8-53.4-39.8-77-49.3-109.4-37.3-120-32.1-7.7,3.7-14.2,9.8-17.8,14.7-25.3,34.2,28.4,74.1,43,104.5,15.7,32.7,1.6,125,105.7,130.8,1.8.1,11,.6,21.6,0-2.3,4.2-4.7,8.4-7,12.1-3.7,6.1-22,31.7-15.7,57.8,2.6,10.7,9,18.7,12.4,19,.8,0,13.3-1.7,14.5,4.6.7,3.6-3.8,15,2.4,23,4.6,5.8,16.3,10.2,21.6,14.6,5.3,4.4,3.1,7.1-2.7,15.8-7.9,11.8-10.2,19.5-8.7,32.2,2.5,21.4,12.7,36.5,29.2,30.3,10.4-3.9,16.7-7.9,18.5-14.9,2.9-10.8-6.2-30.6-2.3-43.6,4-13.2,22.7-9.7,42.3-21.9,33.2-20.8,27.8-76.9,23.8-123.5,3.9,2.3,7.5,3.3,10.4,2.8.9-.2,2.5-.5,4.2-1.2,7.6,13.1,15.7,26.4,24.4,38,36.7,49,63.4,37.8,85.7,30.6,11.8-3.8,19.2-5.3,28.3,12,9.8,18.6,10.3,32.3,31.8,28.6,8.1-1.4,13.6-3.3,17.1-8.6,7.5-11.5-1.6-30.3-6.2-37.8-9.3-15.2-23.2-16.9-31.3-21.2-3.4-1.8-5.4-3.7-2.3-11.1,7-16.4,14.2-22.2,1.3-36.8-2.2-2.5-4.8-4.5-4.4-7.3,87.7-40.3,206.8-119.4,246.6-158.4,6.5-6.4,8.9-9.2,9-13.2.2-9.5-14.3-13.9-47.2-14.8ZM711,201.1c-23.1,25.3-89.6,72.6-157.6,113-28.2,16.8-54.4,31-77.6,42.3.7-3.5.3-8.3-.2-11.3-1.3-7.1-4.3-13.3-8.3-18.6,38.7-16.9,85-41.6,121.2-63.2,4.3-2.6,8.4-5.1,12.4-7.5,4.1-2.6,8.1-5,11.8-7.4,5.4-3.5,10.4-6.8,14.8-9.8,13.7-9.5,18.2-14,18.2-14,4-4.1,3.6-9.5-3.9-11.6-2.6-.7-6.3-1.1-10.9-1.3-3.9-.1-8.5-.1-13.6,0-5.1.2-10.7.5-16.8,1-36.3,2.8-87.9,10.3-129.7,17.3,2.6-8.4,3.5-16.7,3.4-24.8,85.8-10.6,195.8-19.7,229.7-11.4.8.2,7.8,1.9,8.8,4.1.3.6-.5,1.9-1.7,3.2ZM468.5,393.5c-.2,1-.6,2.1-1,3.3-3.3,8.3-9.9,17.8-8.6,25.3,2.2,12.5,19.9,10.6,31.4,21.9,6.7,6.6,10.6,18.4,11.1,20.3,4.6,15.5-2.1,18.9-6.9,20.1-9.4,2.4-13.5,2.1-16.1.6-9.4-5.3-13.4-43-37.4-42.5-2.5,0-5.2.6-8,1.3-6.1,1.6-12.7,4.2-19.8,6-5.3,1.3-10.9,2.1-16.7,1.4-9.7-1-18.7-5.8-27.1-12.9-1.5-1.3-2.9-2.6-4.4-4-14.5-14-27.3-34.8-39.2-55.3.7-1,1.3-2.1,1.9-3.5,0,0,0-.2.1-.3.4-1.1.7-2.3.9-3.5.5-2.9.5-6.1.1-9.6-.1-1-.3-2.1-.4-3.1-.2-1.1-.4-2.2-.6-3.3,0-.3-.1-.7-.2-1,.2.2.3.5.5.7,1,1.3,2,2.7,3,4.1.3.5.7.9,1.1,1.4,2,2.7,4.2,5.5,6.5,8.5,5.8,7.3,12.7,15.1,20.3,22.2,2.7,2.4,5.5,4.8,8.3,7,3.4,2.6,6.6,4.7,9.8,6.5,1.7,1,3.4,1.9,5,2.6,7.8,3.7,14.8,5.3,21,5.3,5.5,0,10.3-1.1,14.1-3.1,5.4-2.8,8.8-7.2,9.8-12,0-.3.1-.7.2-1,0-.3,0-.6,0-.9.3-3.6-.6-7-2.2-10.1-.4-.8-.9-1.6-1.4-2.4-.2-.3-.3-.5-.5-.8-.7-1.1-1.5-2.1-2.4-3-2.8-3.1-6-5.7-8.7-7.6,6.7-2.9,13.5-6.9,16.7-12.8.4-.7.8-1.5,1-2.3.2-.5.3-1,.4-1.5.9-3.8.4-8-1.8-12.9-.2-.4-.3-.7-.5-1.1-.5-1-1-2.1-1.7-3.2-.6-1-1.2-2.1-1.9-3.2-2.3-3.7-5.3-7.7-9-12.4-2-2.4-5-4.6-8.8-6.5-1.6-.8-3.3-1.6-5.1-2.3-1.9-.7-3.8-1.4-5.9-2.1-4.6-1.5-9.5-2.8-14.5-3.9,13.1-4.4,21.4-8.1,26.6-10.8,2.2,1.1,4.4,2.2,6.7,3.3,3.2,1.5,5.8,2.8,8.1,3.8,1.9.9,3.6,1.6,5.1,2.3,1.9.9,3.6,1.6,5.2,2.3,3.5,1.6,6.4,3,10.6,5.5,0,0,.2.1.3.2,4,2.4,7.3,4.9,10.2,7.4.6.6,1.3,1.1,1.9,1.7,1,.9,1.9,1.8,2.7,2.8.9,1,1.7,1.9,2.4,2.9,3.8,4.9,6,9.6,7.2,13.7.8,2.9,1.2,5.4,1.2,7.6,0,1.8,0,3.3-.3,4.4-4.9,2.9-8.1,6.1-9.9,9.4-.9,1.6-1.4,3.1-1.6,4.7-.2,1.3,0,2.6.2,3.8.5,1.9,1.4,3.8,2.9,5.6.3.3.5.6.8.9,6.5,6.8,8.1,9.9,7.3,14ZM298.6,464.3c-.4,2-.8,3.9-1.3,5.8-1.8,6.7-4.3,12.8-7.8,18-5.9,8.8-13.8,13.4-21.7,16.5-6.9,2.7-13.9,4.2-19.8,6.3-1.7.6-3.3,1.3-4.7,2-19.1,9.8-10.6,33.1-8.6,49.3.9,7.3.3,10.8-9.3,15.1-6.7,3-8.7,3.1-10.6,2.9-6.8-.7-11.1-10-13.1-20.2-2.4-12.4-.5-18.1.8-21.6,5-13,18.2-21.8,10.6-32.5-4.2-6-15.5-10.4-21.4-14.8-.6-.4-1.1-.9-1.6-1.3-3.4-3.3-3.2-7.1-1.9-16,0-.3,0-.6,0-.9.8-8.1-4.8-15.5-20.2-14.5-.9-.8-1.8-2-2.7-3.4-1.2-1.8-2.4-4.2-3.3-7-2.1-6.2-2.9-14.8-.3-25.4.9-3.8,2.3-7.9,4.3-12.2.2-.4.3-.7.5-1.1,5-10.8,6.6-10.8,19-33.4,8.4-1.1,18-3.3,27.9-6.2-10.1,11-19.1,22.8-19.7,31.7-.9,12.9-.2,19-.1,19.3.2,1.6.4,3.1.7,4.5,1.3,6.1,3.8,10.1,7.1,12.6.7.5,1.4.9,2.1,1.3,5.8,3,13.3,2.5,21.1,1-1.6,4.4-3.2,10.3-3.1,16,0,.6,0,1.2,0,1.8.4,4.3,1.8,7.7,3.8,10.3.4.6.9,1.1,1.4,1.6,3.7,3.6,9.1,5,14.9,4.3,4.3-.6,8.9-2.4,13.3-5.5,2.1-1.5,4.2-3.2,6.1-5.3,3.1-3.3,5.8-7,8.1-11,.9-1.6,1.8-3.3,2.6-5,3.2-6.7,5.5-14,7.2-21.4,1.6-6.9,2.6-13.9,3.4-20.7.8-7.1,1.1-13.9,1.4-19.8,0-.6,0-1.2,0-1.8,0-1.8.1-3.5.2-5,.1-3.8.2-7.1.3-9.5.2-3.1.7-5.5,1.3-7.5,2.5,3.9,5.2,7.4,7.8,10.4,1.4,1.6,2.8,3,4.1,4.3.4,5.3.9,10.8,1.4,16.3.2,2.5.4,4.9.6,7.4,1.8,22.6,2.8,45.6-1,64.5ZM99.6,351c-25.1-19.8-30.3-52-35.4-78.8-.2-1.2-.5-2.4-.7-3.6-.9-4.5-1.8-8.7-2.8-12.8-.6-2.4-1.3-4.8-2-7-1.7-5.3-4.7-10.7-8.3-16.3-9.1-13.9-22.5-28.6-32-42.9-2.9-4.4-5.4-8.7-7.3-13-2.8-6.3-4.4-12.5-3.8-18.5,1.5-14.6,16.1-23.5,21.1-25.8,2.4-1.1,5-1.9,7.6-2.6,1.2-.3,2.3-.5,3.5-.7,14.8-2.4,32.7,1.5,51.6,9.1,3,1.2,6.1,2.6,9.2,4,19.5,8.9,39.5,21.2,57.9,34.3,1.3.9,2.6,1.8,3.8,2.7,8.6,6.2,16.2,12,24.1,18.6,11.4,9.6,23.4,20.9,39.7,37.6,17.3,17.8,31.8,34,38.9,41.9-.1,3.5-.2,8.4.1,14.4-10.7-9.3-33.2-28-79.5-59.4-.7-.5-1.4-.9-2.1-1.4-25-16.9-30.5-20-33.4-21.7-1.8-1-3.5-1.9-5.2-2.8-1.9-1-3.7-1.9-5.5-2.7-13.2-6.1-23.1-7.9-30.1-6.4-3.3.7-5.9,2-8,4-.9.8-1.6,1.7-2.3,2.7-1.8,2.7-2.9,6.1-3.3,10,0,0,0,0,0,.1-.2,1.6-.3,3.1-.2,4.5.1,1.6.5,3.2,1.4,5.1.8,1.7,2,3.6,3.8,5.9.9,1.2,2,2.5,3.1,3.8,5.5,6.4,13.4,13.8,20.5,20.8,8.3,8.1,15.4,15.4,16.4,19.3,0,.2,0,.3.1.4-.6,1.4-2.1,3.5-3.8,6-.9,1.4-1.9,2.8-2.9,4.4-.3.5-.7,1-1,1.5-1.1,1.7-2.8,4.5-4.5,8-1.7,3.5-3.3,7.7-4.1,12.1-1.7,9.8.8,20.8,15.6,28.6,2.5,1.3,5.4,2.5,8.6,3.7,2.3.8,4.9,1.5,7.6,2.2,1.1.3,2.5.5,3.9.7,12.6,1.5,36.8-.6,60.9-3.4,19-2.2,37.8-4.9,50.7-6.6,0,0,0,0,0,0,.6,2,1.3,4,2,6,.2.5.4,1,.5,1.4,0,.2.1.4.2.5-2.8,1.2-5.9,2.5-9.1,3.8-2.3.9-4.6,1.9-7.1,2.9-2.2.9-4.4,1.8-6.6,2.6-3.7,1.5-7.5,2.9-11.4,4.4-4.6,1.7-9.2,3.3-13.8,4.9-.8.3-1.7.6-2.5.8-11.9,3.9-23.8,7.3-34.2,9.1-.4,0-.7.1-1.1.2-1.1.2-2.3.4-3.4.5-1.5.2-2.9.4-4.4.5-.6,0-1.2.1-1.8.1-.1,0-.3,0-.4,0-27.1,1.6-47.4-1.8-62.7-8.4-6.3-2.8-11.8-6.1-16.6-9.8ZM270.8,271.2h0c0,0,0,0,0,0,0,0,0,0,0,0ZM274.8,408.7c-.9,7.5-2.4,15.2-4.5,22.5-1.7,5.8-3.9,11.3-6.6,16.3-.5.9-1.1,1.9-1.6,2.8-.5.9-1.1,1.8-1.7,2.6-2.4,3.4-5,6.2-7.6,8.3-3.7,3-7.4,4.8-10.8,5.5-3.4.7-6.5.2-8.8-1.3-1.1-.7-2.1-1.7-2.8-2.9-1.5-2.6-1.9-5.9-1.6-9.3.2-2.9,1-5.9,1.8-8.5,1.5-4.7,3.3-8.2,3.3-8.3,1.1-2.6-.7-4.8-2.8-5.1-.3,0-.5,0-.8,0-.7,0-5.6,1.6-11,2.3-1.3.2-2.6.3-3.9.4-.1,0-.3,0-.4,0-5.2.2-8.9-.8-11.3-4.2-1-1.4-1.7-3.2-2.2-5.5-.2-.9-.4-1.9-.5-2.9-.6-4.7-.6-11.1,0-19.6.2-3.2,2.2-7.3,5.3-11.9.8-1.2,1.7-2.4,2.6-3.6,1.9-2.5,4-5.1,6.3-7.7,4.1-4.6,8.5-9.3,12.9-13.6.8-.3,1.6-.5,2.4-.8,2.2-.7,4.4-1.5,6.5-2.3,14.8-5.3,29.1-11.1,40.5-16,1.2,2.6,2.4,5.2,3.7,7.6-1.2,2.6-2.6,5.5-3.4,10.8-.5,3.1-.6,8.4-.8,14.9,0,2.1-.1,4.4-.2,6.8,0,.9,0,1.9-.1,2.9-.3,5.3-.6,11.1-1.3,17.1-.1.9-.2,1.8-.3,2.7ZM210.7,331.8c-3.3.4-6.6.7-9.8,1-.2,0-.4,0-.6,0-7.5.7-14.6,1.2-21,1.5-9.5.4-15,.2-19.2-.4-2.1-.3-3.9-.7-5.6-1.3-.9-.3-1.7-.5-2.6-.8-.9-.3-1.8-.6-2.7-.9-12.9-4.8-19-11.7-18-21.9.4-3.5,1.6-7.4,3.7-11.8.9-1.9,2-3.9,3.3-6,1.1-1.8,2.1-3.4,3.1-4.8,1.4-2.1,2.6-3.8,3.6-5.2,2.1-3.2,3.3-5.3,3.1-7.8,0-.3,0-.7-.1-1-.3-1.2-.8-2.5-1.5-3.8-.6-1.1-1.3-2.2-2.2-3.4-4.2-5.8-11.2-12.6-18.4-19.6-5.4-5.2-10.9-10.6-15.5-15.7-.7-.8-7.5-8.5-7.5-11.7,0-.1,0-.2,0-.4,0-.9,0-1.7.1-2.5,0-.5,0-.9.2-1.4.4-2.7,1.2-4.9,2.5-6.5,2.6-3.1,7.1-4.2,14.5-2.8,1.1.2,2.2.5,3.4.8,4.5,1.2,9.2,3.1,13.6,5.2,3.6,1.7,7,3.5,10,5.2,6.2,3.5,10.5,6.5,10.6,6.5,3,2,5.9,3.9,8.7,5.8,8.5,5.6,16.3,10.9,23.4,15.8,11.9,8.2,22,15.4,30.7,21.8,0,0,.1.1.2.2,7.4,5.5,13.8,10.3,19.2,14.5,12.8,10,20.3,16.6,24.4,20.3.6.5,1.1,1,1.6,1.4.6,5.3,1.5,11.2,2.8,17.3.4,1.6.8,3.3,1.2,5-12.3,1.6-29.3,4-46.6,6.1-.6,0-1.2.1-1.7.2-3.6.4-7.2.8-10.8,1.2ZM300.7,369h0c-.6-.6-1.2-1.2-1.8-1.9-.7-.8-1.4-1.7-2.2-2.6-1.6-2-3.2-4.1-4.7-6.5-1.1-1.7-2.1-3.3-3.1-5-1.9-3.2-3.6-6.5-5-9.9-.3-.7-.6-1.3-.9-2-.2-.4-.4-.9-.6-1.3-.5-1.1-.9-2.2-1.3-3.3-.4-1-.7-2-1.1-3-.4-1-.7-2.1-1.1-3.1-.1-.4-.2-.8-.4-1.2-.2-.7-.5-1.5-.7-2.2-.4-1.2-.7-2.4-1-3.6-.3-1-.5-2-.8-3-1.3-5.5-2.3-10.9-2.9-15.8-.1-.9-.2-1.8-.3-2.7,0-.4,0-.8-.1-1.1-.2-1.8-.4-3.5-.5-5.2-.4-4.8-.5-9-.5-12.4,0-.8,0-1.6,0-2.3,0-2.9.1-5,.2-6,0-.3,0-.5,0-.6h0c0-.4,0-.8-.1-1.1,0-.2-.4-.9-.5-1-.2-.2-.3-.4-.5-.6h0c-2.1-2.8-6.7-10.3-8.6-17.6-1.4-5.4-.5-8.1,0-9.2,2.7-1.7,10.2-4.6,16.4-3.9,1,.1,1.9.3,2.7.6,1.3.4,2.4,1.1,3.4,1.8,1.4,1.1,2.4,2.6,3.1,4.2,2.4,5.6,1.6,13.3,1,18.1-.4,3.5.5,8.4,2.3,14.2.6,2,1.3,4.1,2.1,6.2.3.9.6,1.7,1,2.6,1.1,2.8,2.2,5.7,3.5,8.7.9,2.2,1.8,4.4,2.8,6.6.4.8.7,1.7,1.1,2.6.5,1.1,1,2.2,1.4,3.4.3.7.6,1.4.9,2.1.2.4.3.8.5,1.1.4,1,.9,2.1,1.3,3.1.4,1,.8,1.9,1.2,2.9.5,1.1,1,2.3,1.4,3.4.5,1.1.9,2.3,1.4,3.4.5,1.3,1,2.5,1.5,3.8,1.3,3.2,2.5,6.5,3.7,9.6,0,.2.1.4.2.6.2.6.4,1.2.6,1.8,2.1,5.9,3.5,10.9,4.4,15,1.5,7,1.6,11.6.8,14.7,0,.4-.2.8-.3,1.1-.4,1.2-1,2.1-1.6,2.8-.9,1-1.9,1.6-3,2-.5.2-1,.3-1.5.4-2.1.4-5.8-1.3-10.3-5.1-1.3-1.1-2.6-2.3-3.9-3.7ZM303.3,160.1c.6-2.5,1.4-5.4,2.3-8.7,2.5-9,6.1-20.6,10.8-33.5,7.1-19.6,16.6-41.8,28.1-61.2,1.7-2.9,3.5-5.7,5.3-8.5,10.9-16.6,23.4-30.3,37.2-36.9,1.1-.5,2.2-1,3.3-1.4,1.3-.5,2.7-1,4-1.4,10.6-3,20.9-.7,25.6,1.2,10.5,4.1,15.4,13.1,17.6,24.5.9,4.6,1.3,9.6,1.4,14.8.4,17.2-2.3,37-1.9,53.5.2,6.3.8,12.1,2.2,17.1.7,2.6,1.6,5.2,2.6,7.9,1.4,3.9,3.1,7.9,5,12.1.5,1.1,1,2.2,1.5,3.3,7.5,17,16.4,35.9,18.4,55.9.1,1.2.2,2.4.3,3.6,0,1.2,0,2.4.1,3.6,0,7.1-.8,14.4-3.1,21.8-.4,1.2-.8,2.4-1.2,3.5-.5,1.3-1,2.6-1.6,3.9-.6,1.3-1.2,2.6-1.9,4-1,2-2.2,4.1-3.4,6.1-1.9,3-4,6-6.5,9.1-1.2,1.5-2.5,3.1-3.9,4.6-1.4,1.6-2.9,3.1-4.5,4.7-8.2,8.1-18.6,16.2-31.8,24.2-.1,0-.2.1-.4.2-.5.3-1.1.6-1.6.9-1.2.7-2.5,1.4-3.8,2.1h0c-1,.5-2,1-3.1,1.5-.3.2-.7.3-1,.5-8.9,4.1-19.7,7.9-31.2,11.4-.7.2-1.3.4-2,.6-.5.1-1,.3-1.5.4-.4.1-.8.2-1.1.3-.8.2-1.6.5-2.4.7-2.2.6-4.5,1.2-6.7,1.8-1.2.3-2.4.6-3.5.9-.5.1-1,.3-1.5.4-.7.2-1.3.3-2,.5-3.3.8-6.6,1.6-9.9,2.4-2.3.5-4.7,1.1-7,1.6-2,.4-3.9.9-5.8,1.3-.5.1-1.1.2-1.6.3-.6.1-1.3.3-1.9.4-1.2.3-2.4.5-3.6.7-1.1.2-2.1.4-3.2.6-.1-.2-.2-.5-.3-.7-.2-.4-.3-.7-.5-1.1-.9-2-1.7-4-2.6-6,0,0,0,0,0,0,1.2-.6,2.5-1.3,3.8-2,1.1-.5,2.2-1.1,3.3-1.7,1.1-.5,2.2-1.1,3.3-1.7,6.5-3.3,13.8-7,21.5-11,1.1-.6,2.2-1.1,3.3-1.7,1.1-.6,2.2-1.1,3.3-1.7,2.3-1.2,4.7-2.5,7.1-3.7.6-.3,1.2-.6,1.7-.9,1.4-.8,2.9-1.5,4.3-2.3,1.7-.9,3.5-1.9,5.2-2.8,1.8-1,3.6-2,5.4-3,3.3-1.8,6.4-3.6,9.5-5.4,3.1-1.8,6.1-3.6,8.8-5.3,7.2-4.5,13.2-8.6,17.1-12.1.1-.1.3-.3.4-.4,1-.9,3.2-3.1,5.7-6.2.6-.7,1.2-1.5,1.8-2.3.5-.7,1-1.4,1.5-2.1.9-1.3,1.8-2.7,2.6-4.2.3-.5.6-1.1.9-1.7,1.7-3.2,3-6.7,3.7-10.2,1.1-5.9.2-11-2-15.3-.6-1.2-1.3-2.3-2.1-3.3-.8-1.1-1.7-2.2-2.7-3.2-.1-.1-.3-.2-.4-.4-3-3-6.6-5.5-10.3-7.6-3.3-1.9-6.8-3.5-9.9-4.8-1.8-.7-3.5-1.4-5-2-2.9-1.1-5.2-2-6.4-2.7,0,0-.1-.2-.2-.4-.2-.5-.4-1.3-.4-2.9,0-.7-.2-3.5.7-9.3.6-4.2,1.4-8.6,2.3-13.1,1.9-9.9,4.1-20.1,5.1-28.7.5-4.6.6-8.7,0-12-.3-2-.9-3.7-1.7-5,0-.1-.1-.2-.2-.4-.8-1.2-1.6-2.3-2.5-3.2-2.9-3.3-5.7-5.3-8.5-6.4-1.2-.5-2.3-.8-3.4-.9-3.3-.5-6.3.2-8.8,1.2-3.2,1.3-5.5,3.2-6.3,3.8-5.4,4.3-10.5,11.3-14.8,18.6-1.1,1.8-2.1,3.6-3,5.4-2.8,5.3-5.1,10.4-6.9,14.6-4,9.8-7.6,18.9-10.9,27.4-18,46.3-26.3,73.7-30.6,89.3.1-1.4.4-2.9.5-5.5.1-1.8,1.4-16.1-7.4-23.2,3.1-22.4,8-53.2,13.9-77.4ZM394.3,319.2c.3.1.6.2.9.3,1.1.4,2.2.8,3.3,1.2,5.1,2,9.1,4.2,11.1,6.7,2.9,3.6,5.4,6.9,7.4,9.9.7,1.1,1.4,2.2,2.1,3.2.6,1,1.2,2,1.7,3,0,0,0,.2.1.3.4.9.8,1.7,1.1,2.5.9,2.2,1.3,4.1,1.3,5.8,0,.2,0,.4,0,.7-.2,3.8-3.2,6.8-6.8,9.2-1.2.8-2.5,1.5-3.8,2.2-3.9,1.9-7.8,3.3-9.9,4.1-.5.2-.9.5-1.2.7-1.2,1.1-1.3,2.6-1.1,3.5.4,1.8,2.1,2.5,2.1,2.5.6.4,3.9,2.3,7,4.7.6.5,1.2.9,1.7,1.4.6.5,1.1.9,1.6,1.4,1.1,1,2,2,2.8,2.9,0,0,.2.2.2.3.8.9,1.4,1.9,2,2.8,2.2,3.7,2.5,7,1.4,9.7-1.1,2.6-3.4,4.7-6.5,6-3.3,1.4-7.4,2-12,1.7-1.6-.1-3.3-.4-5-.8-3-.7-6-1.7-8.9-2.9-1-.4-2-.9-2.9-1.4-5-2.5-9.9-5.8-14.5-9.5,0,0-.1,0-.2-.1-5.9-4.8-11.5-10.3-16.6-15.9-2.5-2.8-4.9-5.5-7.1-8.3-2-2.4-3.8-4.8-5.6-7.1-.6-.8-1.2-1.5-1.7-2.3-1.5-1.9-2.8-3.8-4.1-5.5-.5-.7-1.1-1.4-1.6-2.1-1.9-2.6-3.5-4.8-4.8-6.5-2.1-2.7-4-4.6-5.7-6-1.5-4.2-3.2-8.6-5-12.9.9-.2,1.9-.4,2.8-.6,1.2-.3,2.4-.5,3.6-.8,1.2-.3,2.4-.5,3.6-.8,8.7-1.9,16.6-3.8,23.7-5.6,1.3-.3,2.5-.7,3.8-1,.9-.2,1.7-.5,2.6-.7.4-.1.9-.2,1.3-.4,1.8-.5,3.6-1,5.3-1.5,0,0,0,0,0,0,.8-.2,1.6-.5,2.4-.7.5,0,.9.2,1.4.3,1.5.3,3,.6,4.6.9,3.1.6,6.3,1.3,9.3,2,1,.2,2,.5,3,.7,1.4.3,2.7.7,4,1.1,1.9.5,3.7,1.1,5.5,1.7ZM338.7,166.3c.2-.5.4-1,.6-1.4,2.8-7.2,5.8-14.7,9.4-22.2,1.5-3,3-6,4.7-8.9,1.4-2.4,2.9-4.8,4.5-7.2,1.3-1.9,2.5-3.5,3.7-4.9,7.4-8.8,12.7-9.4,15.9-8.6,1.6.4,2.6,1.2,3.1,1.6.8.6,1.8,1.5,2.7,2.5.4.4.7.8,1,1.2.5.6,1,1.2,1.3,1.8.3.5.6,1,.7,1.4,1.8,6.1-1.1,20.3-3.9,34.5-1.9,9.8-3.8,19.6-4,26.6,0,1.5,0,2.9.1,4.1.1,1,.3,1.9.5,2.7.1.5.3.9.5,1.3,1.2,2.8,3.1,3.9,7.4,5.5,1.2.5,2.5,1,4.1,1.6.6.2,1.2.5,1.8.7,4,1.6,7.9,3.3,11.3,5.3,1.7,1,3.4,2,4.9,3.1,1.3,1,2.5,2,3.6,3,.5.5.9.9,1.3,1.4.5.6,1,1.2,1.5,1.9,4.4,6.4,4.3,14.8-3.8,26.4-.4.6-.8,1.2-1.3,1.8-.6.9-1.3,1.7-2.1,2.6-.5.7-1.1,1.4-1.7,2.1,0,.1-.2.2-.3.3-.5.6-1.1,1.2-1.8,1.8-2.2,2-5.1,4.3-8.6,6.7-3.5,2.4-7.6,5.1-12.2,7.8-4,2.4-8.4,5-12.9,7.5,0,0-.2,0-.3.1,0,0-.2.1-.3.2-.1,0-.3.1-.4.2-2.4,1.4-4.9,2.7-7.5,4.1-.3.1-.5.3-.8.4-.3.2-.7.4-1,.5-2.8,1.5-5.7,3.1-8.6,4.6-.5.3-1,.5-1.5.8,0,0-.1,0-.2.1-.9.5-1.9,1-2.8,1.5-1.1.6-2.2,1.1-3.2,1.7-1.1.6-2.2,1.1-3.2,1.7-7.4,3.9-14.7,7.6-21.2,10.9-1.1.6-2.3,1.2-3.4,1.7-1.1.6-2.2,1.1-3.3,1.7-1.8.9-3.5,1.8-5.1,2.6-.7-1.5-1.3-3.1-1.9-4.6-.3-.8-.7-1.6-1-2.4-2.2-5.2-4.1-10-5.7-14.4,1.4-5.3,3.8-15.3,9-32.2,2-6.5,4.5-14.1,7.5-22.8,0,0,0-.2,0-.3,3.5-10.1,7.7-21.9,12.8-35.4,2.9-7.7,6.1-16,9.7-24.9ZM559,272.2c-14.3,8.1-29.5,16.3-45,24.2-19.6,10-36.7,18.1-51.5,24.5-6.3-6.6-13.7-11.5-19.7-14.8,36.2-10.3,79.5-23,116.1-33.9ZM433.1,301.3c-.4-.2-.7-.3-1-.4-5.6-2.4-11.6-5.2-17.2-8,16.9-10.6,29.5-21.3,38.6-32,29-6.7,52.6-13.4,86.1-23.1,23.9-7,44.7-13,62.3-18.1,6.3-.5,30.6-2.3,38.2.1-9.1,8.1-29.1,21.6-54.4,36.7-44.3,13.4-106,31.4-152.6,44.7ZM465.9,250.6c-1.9.5-3.7.9-5.6,1.4,3.2-4.7,5.7-9.5,7.8-14.2,29.2-5,63.3-10.1,93.4-13.8-36.8,10.7-66.9,19.6-95.5,26.6ZM432.2,336.5c1,.9,2,1.6,2.9,2.1.3.2.6.3.9.4,3.1,1.3,5.7.6,7.8-.8,0,0,.1,0,.2-.1,1.1-.8,2-1.9,2.7-2.9.6-.9,1-1.9,1.2-2.7.1-.6.2-1.2.3-1.7,0,0,0-.2,0-.2.2-1.3.3-2.5.3-3.6,0,0,0-.1,0-.2,0-5.5-2.7-9-6.8-10.7-3.9-1.7-9.1-1.8-14.7-.4-1.7.4-1.9.3-2.8,1.8-.5.8-.3,1.8-.4,2.7,0,0,1,1.4,1.4,1.9-.5.6-1,1.2-1,1.2,0,.2-.4,1.4.3,2.7.6,1,1.3,2.4,2.7,4.5.8,1.2,1.6,2.3,2.4,3.3.9,1.1,1.8,2.1,2.7,2.9ZM431,322.8c-.2-.3-.3-.6-.4-.8,1-.2,2.2-.3,3.5-.3,2.8,0,4.5.4,5.6,1.3,1.7,1.3,1.8,3.7,1.3,6.5,0,.4-.1.7-.2,1.1-.1.2-.2.5-.3.6-.6,1-1.1,1.3-1.3,1.2-.7-.1-1.5-.7-2.3-1.4-2.6-2.5-5.4-7.5-5.8-8.2ZM441.3,348.1c-1.5,1-2.8,2.4-3.5,4.4-.2,0-.5,0-.7-.1,0,0-2.4,1.4-2.4,1.4-1,1.3-.9,1.6-.7,2.9,0,.2,0,.3,0,.5,3,17.2,24.8,12.2,22.8,2.9-2.6-12.2-10.6-15.1-15.6-12ZM443.8,360.6c1-1.3.6-1.6.5-3.3,0-1.2.2-4.5,2.5-2.4,1.7,1.5,2.6,4.5,2.9,5.9-1.2.7-3.8,1.3-5.9,0ZM446.4,382.1c-.4-.3-.8-.6-1.3-.8-2.9-1.3-5.4-.6-7.5.9-3.5,2.5-5.8,7-5.8,7.1-.6,1.1-1,1.5-1,2.3,0,.5.2,1.2.6,2.1,1.3,2.8,2.7,4.8,3.9,6.1,1.4,1.5,2.5,2.1,2.9,2.4,4.4,2.5,8.2.5,10.7-1.9,1.7-1.6,2.8-3.4,3.1-4.1,1.2-2.9-1.1-10.8-5.6-14ZM445.1,393.6c-.6.8-1.5,1.9-2.3,2.3-1.3.6-3.3-2.1-4.3-3.9.4-.7,1-1.6,1.5-2.2,1.5-1.9,2-1.8,2.1-1.8,0,0,0,0,0,0,.9.4,2.5,3.2,2.9,5.8ZM423.4,420.2c-3.6-1.5-7.9-.9-11.8,3.6-.8,0-2.2.3-2.2.3-.2.1-1.3.8-1.7,2.2,0,.1,0,.3-.1.5-.4,1.4-.8,3.4-.9,5.6-.2.6-.2.9,0,1.6,0,1.4.3,2.8.9,4.1.9,2.1,2.4,3.3,4,4,5.2,2.2,12.6-1.1,13.1-1.3,1.8-.7,6.4-2,6.6-7.9,0-1.3-.1-2.6-.5-3.9-1.1-3.8-3.9-7.3-7.4-8.7ZM424.1,433.1s0,0,0,0c-.2.1-3.4,1.6-6.2,2.2-.3,0-2.4.5-3.4.1-.3-.1-.6-.7-.6-1.6.7-1.6,2.5-5.4,4.8-6.8,3.3-2,6.1,4.3,5.5,6ZM179,430.2c.4,0,.8,0,1.2,0,3-.4,4.9-2.2,6.1-4.5,2.7-5.3,1.8-13.6,1.6-15.4-.2-2,.1-2.3-1.4-3.5-.4-.3-.9-.4-1.4-.5.1-.7,0-1.5,0-2.3,0,0-1.9-2-1.9-2-1.6-.7-1.7-.5-3.3.1-5.4,2.1-9.6,5.2-11.9,8.7-2.4,3.8-2.5,8.3.6,12.9.6.9,1.4,1.9,2.3,2.8.2.2.5.5.7.7.5.4,3.2,3,7.1,3.2,0,0,.1,0,.2,0ZM180.6,409.4c0,.2,0,.5,0,.9,0,1,1,10-1.1,12.4-.1.1-.5.6-1.9-.1-.2,0-.4-.2-.6-.4-.9-.8-3-2.7-3.6-4.9-.2-.6-.1-1.3,0-1.9.7-2.2,3.5-4.3,7-6ZM197.5,439.8c-.5-1.2-.6-1.5-2.2-2-.9-.3-1.8.1-2.7.2,0,0-.2.2-.5.5-1.8-1.2-3.7-1.8-5.5-1.7-5.9.3-10.8,7.2-6,18.7,3.7,8.8,24.4.5,17.1-15.3,0-.2-.2-.3-.2-.5ZM186.9,452c-.4-1-1-2.9-1.1-4.4,0-.3-.1-2.4.7-3.3.6-.6,1.7.2,2.4,1.2,1.3,1.7.8,2.4,2.7,3.1-.9,2.3-3.4,3.3-4.8,3.4ZM220.5,467.7c0-.3-.1-.5-.3-.8-.2-.4-.6-.7-1-.9-.2-.2-.5-.3-.9-.5-1.5-.8-3-1.4-4.1-1.8-2-.7-3.7-.9-5.1-.9-5.1,0-6.9,3.6-7.3,4.9,0,0,0,0,0,.1-1.8,4.9.6,13.5,4,15,1.5.6,2.9,1,4.2,1.3,5.8,1,10-2.1,11-8.1.3-2.1.3-4.5-.2-7.2,0-.4-.2-.7-.2-1ZM209.5,476.5c-1.2-2.4-1.4-5.5-.9-6.4,0,0,0,0,0-.1,0,0,0,.1.1,0,.9-.2,3,.3,5.2,1.3.3,2.6,0,4.5-.5,5.2-.6.9-2.3.5-3.9,0ZM263.1,486.4c-1.8-2.3-3.8-3.9-3.8-4,0,0,0,0-.1,0-1.2-1.1-1.3-1.3-3-1.2-1.1,0-1.8.6-2.2,1-1.8-.4-3.6-.6-5.3-.3-2.9.5-4.9,2-6.3,4-2.1,3.2-2.3,7.6-1.1,11.4,1.4,4.3,4.7,7.6,9.2,6.8,10.1-1.8,12.7-5.1,13.5-6.1.2-.3.4-.5.5-.8,2-3.3,1.1-6.6-.5-9.3-.2-.8-.4-1.1-1-1.4ZM257.7,494.2c-2.5,1.9-8.2,2.8-8.5,2.8,0,0,0,0,0,0-1.1-.7-2.2-4.7-.9-7,1.3-2.1,5.5-.8,9.5,1.7,0,0,.1,0,.2.1.8,1.4.5,1.8-.3,2.4ZM388.2,92c2.2,1.2,4.7,1.9,7.4,2,1.9,0,3.8,0,5.8-.5,5.9-1.3,11.8-5,15.7-10.7.2-.3.4-.6.6-.9,1.6-2.5,4.6-7.3.9-15.1-.2-.4-.4-.8-.6-1.2-2.7-5-6.9-9.2-11.8-11.5-7.1-3.4-15.4-3-21.9,4.6,0,0,0,0-.1,0-.2.1-.3.2-1.8,2.1,0,0,0,.2-.2.6-.2.3-.4.5-.5.8-.9,1.5-1.2,1.5-.8,3.3,0,.1,0,.2.1.3-.1.6-.3,1.2-.4,1.7-.2.9-.3,1.7-.4,2.6-.3,2.5-.4,4.8-.3,6.9.5,7.6,3.8,12.5,8.3,15ZM388.7,64.5c4.6-6.1,10-6.3,14.6-4,6,3.1,10.6,10.5,9.8,14.4,0,0,0,.2,0,.3,0,0,0,.2,0,.3-.3.9-1.1,2.3-2,3.5-.4.6-.9,1.1-1.4,1.7-3.6,3.9-8.8,6.3-13.3,6.2-1.8,0-3.5-.5-4.9-1.4-4.1-2.6-6.1-9.1-2.7-21ZM411.1,141.6c-.3.9.1,1.8.2,2.7,0,0,0,0,.2.2-1.3,2.2-2.2,4.6-2.5,7.1-.2,1.6-.2,3,0,4.4,1.4,9,10.7,14.2,18.3,11.6,2.7-.9,5.2-2.9,7.1-6,1.5-2.4,2.4-5.2,2.7-8,.8-6.3-1.4-12.8-6.6-15.6-3.9-2.1-9.5-2.2-16.9,1.3-1.6.7-1.8.7-2.4,2.3ZM417.7,148.1c1-1.7,1.7-1.8,1.5-3.4,1.4-.5,3.2-.9,4.8-.9,0,0,.1,0,.2,0,7.1.1,6.7,9.9,3.7,14.6-4.2,6.5-14.8,1.1-11.3-8.1.3-.7.6-1.4,1-2.1ZM429.7,182.3s0,0,0,0c-2.6,1.1-2.3,1.8-2.2,4.5,0,.2,0,.3,0,.5,0,0,0,0,0,0-4.1,7.9-3.9,13.8-1.3,17.1,1.3,1.6,3.1,2.6,5.3,2.9,2,.3,4.3,0,6.8-.9.1,0,.2,0,.3-.1,4.2-1.5,5.6-2.9,6.7-4.6,0,0,0,0,0,0,5.7-8.7-1.9-25.3-15.8-19.4ZM439.2,198.1c-.6.7-5.4,2.7-7.1,2.1-.8-.3-1.4-3.8,2.6-11,.2-.3.4-.6.5-.8,5,0,5.8,7.7,3.9,9.8ZM84.6,196.2c.3-.7.6-1.3.8-2,1.7-5.5.2-10.7-2.5-15-1.3-2.1-2.8-4-4.3-5.6-1.1-1.2-2.2-2.3-3.2-3.2,0-.1,0-.2,0-.2-.3-.9-1.3-1.3-1.9-2,0,0-.6-.3-1.5-.6,0,0,0,0-.1,0-1.3-1-1.4-1.2-3-1,0,0-.1,0-.2,0,0,0-.2,0-.3,0-9.9-2.3-16.7,2.2-20.3,8.8-3,5.3-3.9,11.9-3,17.5.8,4.4,2.7,8.1,5.8,10.1,1.5.9,3,1.7,4.6,2.3,6.4,2.4,13.4,2.2,19-.1,1.8-.7,3.5-1.7,5-2.9,2.1-1.6,3.8-3.6,4.9-5.9ZM60.5,199c-2-.5-3.9-1.2-5.7-2.3,0,0,0,0,0,0,0,0-.1-.1-.2-.2-2.6-1.9-3.8-9.3-1.2-15.8.3-.7.5-1.3.8-1.8,3.9-7.4,10.8-6.2,14.2-5.1,2.6,2.1,8.6,7.3,10.1,13,.6,2.1.4,4.1-.3,5.8-.7,1.6-1.8,2.9-3.2,4-3.6,2.7-9.1,3.7-14.5,2.4ZM103.9,260.6c-1.5-3.2-4.3-6-8.6-8,0,0,0-.2,0-.3,0,0-1.4-2.4-1.4-2.4-1.4-1-1.6-.9-3.3-.6-4.8.8-8.2,2.2-10.6,4-1.9,1.4-3.2,2.9-4.1,4.6-2.8,5.4-.7,11.9,3.5,16.6,3.2,3.7,7.7,6.3,12.2,6.4,1.3,0,2.6-.1,3.8-.4,8.1-2.2,12.3-12,8.5-19.9ZM88.9,257.1c.5,1,.8,1,2.1,1.5,1.2.5,2.3,1,3.2,1.6,5,3.4,4.7,8.5,2.4,11.4-3.9,4.7-10.1.9-12.9-3.2-2.6-3.9-2.3-7.1.7-9.2,1.1-.8,2.6-1.5,4.5-2ZM106.4,296.9c0,0,0,0,0,0,0-.1-.2-.3-.2-.4-1.4-2.2-1.5-3-4.3-2.4,0,0,0,0,0,0-12.1,2.5-12.4,15.3-6,22.1,4.5,4.8,9.3,3.6,12.6,2.7,11.4-3,13-13.9-2-21.9ZM103.6,312.4c-2.8.4-7.3-7.3-3-10.3.3.1.6.2.9.4,5.2,2.5,8.1,5.4,8.5,7,.2,1-2.2,2.3-6.4,2.9Z" fill="#714e67"/></g></svg>