<?xml version="1.0" encoding="UTF-8"?><svg id="b" xmlns="http://www.w3.org/2000/svg" viewBox="0 0 720 616.2"><g id="c"><path d="M440,142.5c-22.4,9.7-29.7,15.1-38.2,18.3-65.7,24.3-100.3-110.4-166.7-143C152.1-23,13.9-4.4,1,189.4c-5.7,85,13.6,149.7,33.4,194.8,52.5,119.6,153.1,196.7,201.3,220.6,2,.9,2,.9,2.1,1,118.4,53.5,415.4-107.8,467.9-247.5,59.3-157.9-72.8-299.1-265.7-215.7Z" fill="#714e67"/><path d="M408.8,188.8c-16.1,6-37.8,10.1-65.4-12.1-32.4-26.1-57.7-74.9-95.1-92.8-74.2-35.5-195.1-1.7-190.8,182.6,4.2,178.1,140.8,295.9,191,309.2.4.1.8.2,1.2.3h0c9.7,2.3,57.9,15.1,147.5-20,98.9-38.7,205.4-120.6,234-198,49.3-133.3-47-235-222.4-169.1ZM151.2,105.9c7.9-4.9,15.4-2.5,16.7-2.1.2.1,12.2,4.6,12.3,19.6,0,17-18.3,26.8-31.2,17-11.8-8.9-9.7-27.1,2.2-34.5ZM262.1,547.7c-11.8-8.9-9.7-27.1,2.2-34.5,7.9-4.9,15.4-2.5,16.7-2.1.2.1,12.2,4.6,12.3,19.6,0,17-18.3,26.8-31.2,17ZM402.7,535c-11,6.6-38.3,13.6-46.8,12.2-.6.2-1.3.4-1.9.3-1.8-.4-1.7-.6-2.7-2.2-8.3-13.7-29.8-49.9-11.9-77.1,12.3-18.7,36.6-21.4,42.8,1.9,1.9,7.1,1.5,15.3.7,21.3,6-3.8,15-7.6,22.9-3.2,14.4,7.9,13.5,36.8-3.2,46.9ZM582,374.6l-.6,2.1-3.5-1s0,0,0,0l3.5,1c-1,3.2-11.1,44-54.3,67.7-24.1,13.3-53.8,18.2-83.3,10.3-70.9-18.9-105.9-27.9-217.5-56.7,0,.3-.2.6-.3.8-5.7,17.5-18.2,31.7-37,47.2-1.1.9-2.5.8-2.7.8,0,0-1.4-.8-2.1-1.2-9-2-32.2-19.5-42-30.2-3-3.4-10-11.1-9.5-26.1.2-6.7,2.2-13.2,5.4-18.2-47-27.2-68-86.6-44.2-139.3,22.3-49.4,78.2-77.2,132-62.9,132.3,35.2,149.7,39.8,277.8,72.9,59.5,15.4,93.2,75.6,78.2,132.7ZM563.7,231.3c-11.8-8.9-9.7-27.1,2.2-34.5,7.9-4.9,15.4-2.5,16.7-2.1.2.1,12.2,4.6,12.3,19.6,0,17-18.3,26.8-31.2,17Z" fill="#f5cbe1"/><path d="M562.7,291.8c-11.4-18.1-31.3-36.5-60.4-44.2-124-33.1-149.4-39.7-277.8-72.9-62.5-16.2-126.7,27.5-132.7,93.2-3.6,38.9,16,77.8,51.3,97.8,7.3-6.1,17.8-6.3,28.6,6,1.2,1.4,2.3,2.8,3,3.7,1.9-11.1,6.8-28.6,19.8-32.8,18.3-5.9,38.7,19.9,33.4,49.1,107.5,28.7,153.8,41.1,217.4,57.5,54.8,14.1,112.5-17.6,128.8-73.3l.4-1.3h0c1.6-5.8,13-43.5-11.7-82.9ZM179.5,325.4c-32.8,8.2-67.3-14.5-71.9-48.5-4.4-32.7,20.7-62.1,55-63,11.7-.3,20.3,3,21.4,3.4.2,0,26,8.7,35.1,37.1,9.8,30.8-7.6,63-39.6,71ZM427.5,295.9l-21.1,72.4c-3.7,12.9-3.7,13-4,14.1-.4,1.2-1.6,2.2-3.3,1.9-.3,0-.6-.2-.8-.2-42.8-10.9-112.9-27.8-159.8-40.4-1.7-.5-2.8-2.1-2.6-3.8,0-.5,25-87.2,25.2-87.6.4-.7,1.4-1.8,3.2-1.4,8.8,2.1,14.6,4.5,112.9,28.8,47.7,11.8,48,11.4,49.3,12.6,0,0,.4.4.7.9.7,1.3.4,1.4.4,2.8ZM520.4,416.4c-37.2,12-76.8-13.3-81.7-52-4.5-35.5,22.1-68,58.9-70.1,13.4-.8,23.3,3,24.9,3.6h0c1,.4,25.5,8.8,36.3,35.9,13.3,33.6-3.6,71.4-38.3,82.7ZM576.8,375.4l1.1.3s0,0,0,0l-1.1-.3Z" fill="#f8fcb9"/><path d="M419.5,297.5c-3.3,12.4-6.5,24.7-9.8,37.1-6.6,24.6-11.5,42.7-11.8,43.8-5.1-1.3-10.2-2.6-15.3-4-2.1-.6-6.3-1.7-11.7-3.1-1.6-7.1-2.1-14.3-1.4-21.1,2.4-22.6,11.3-44.7,24.2-59.7l25.9,7ZM265.4,256.7l-21.8,80.9c3.1.8,6.2,1.6,9.2,2.3,4.2-4.5,8.2-10.1,11.3-17,10.5-23.6,12.2-47,7.8-64.6-3.1-.8-5.4-1.3-6.6-1.6Z" fill="gray"/><path d="M178.6,225.3c.3-.6.6-1.3.9-1.9,1.1.4,1.8.7,2,.7h0c1.2.4,8.1,2.7,15.6,8.5-2.4,3.4-5.8,8.1-7.8,9.9-4.8,4.5-5.7,1.1-8.8-2.2-2.3-2.4-4.4-2.3-5.8-3.9-1.4-1.6.9-5.2,4-11.3ZM215.6,269c-6.4,2.4-10.3,4.8-12.8-1.1-1.6-3.8-1.6-4.7-4.5-8.2-3-3.6.1-7.3.5-7.7.6-.7,2.3-2.7,9.7-6.6-2.9-4.5-6.2-8.1-9.5-11-1.5,1.7-3.5,4.2-6.6,7.9-6.8,8.3-9.9,4.8-13.2,1.1-2-2.2-2.3-1.9-4-2.8-7.4-4.1-1.8-8.9,1.1-15.7.3-.8.6-1.5.9-2.2-4-1.2-10.3-2.5-17.9-2.1,0,.8,0,1.7,0,2.8-.2,9.4.4,16.5-4.3,16.9-1.6.1-6.5-1.5-9.2.5-.6.4-3.2,2.9-4.4,1.3-4.1-5.4-3.9-5.5-8.2-10.7-.4-.4-.7-.8-1-1.2-5.4,3.9-9.7,8.7-12.9,14,5.8,4.1,6.5,4.4,10.4,6.7.4.2.7.8.5,1.4-5.6,14.5-4.9,15.3-6.2,15.6-1.1.2-1-.4-9.7-1.1-.6,0-1.1-.1-1.6-.2-.2,4.6.3,9.2,1.4,13.8,2.5-.4,6-1.1,10-2.4,2-.6,5.4-2.1,6.3.7.6,2,.3,4.6,2.6,6.4,2,1.6,3.4,2,3,3.4-.3,1-1.1,1-5,2.9-4.5,2.2-7.1,4-9.2,5.9,1.9,2.7,4.1,5.3,6.6,7.7,2.1,2,4.4,3.8,6.7,5.4,2.3-2.1,5.1-4.6,6.6-6.6,2.5-3.4,4.1-7.7,4.7-8.1.8-.6,1.8.2,2.6.7,1,.6,4.5,2.7,12.8,8.1.7.4.7,1.2.6,1.6-2,5.7-2.6,6.5-4.5,13.1,5.1.7,10.2.7,15.2,0,.4-4.8.3-6.7,0-13.2-.2-3.9,2-3.9,5.4-4.2,1.1-.1,1.8-.3,10.7-.7.7,0,1.1.4,1.3.8,1.3,3.4,1.3,3.4,2.9,7.4.3.8.6,1.6.9,2.3,3.8-2.4,7.3-5.4,10.3-8.8-1.3-2.1-2.6-3.7-5.5-6.9-.1-.1-1.3-1.5-1.4-1.6-.5-1.3.6-1,4.8-8,1.1-1.8,2.3-4.9,7.1-5.6,2.4-.3,4,.5,5.7,1.5,1-4.3,1.4-8.7,1.2-13.2-.2,0-.5.1-.7.2ZM131.7,287.8c-2.8-2.3-3-3.4-3.7-8.6-1.3-.1-7.5,2-13.3,3.5,1.3,4.3,3.3,8.6,5.8,12.5.8-.6,1.7-1.3,2.9-2.2,3.8-2.8,6.4-4.3,8.4-5.3ZM188.4,303.7c-2.5.3-3.8.6-9.7.9-2.3.1-2.5.1-3,.2-.3.5-.1,1-.3,7.5,0,2.9,0,4.6,0,6.5,5.9-1.1,11.6-3.1,16.8-6-.4-1.6-1-3.5-1.9-5.3-.9-1.9-.9-1.9-1.8-3.8ZM122.5,265.2c1.5-5.5,1.7-6.1,5-13-4.4-3-6.3-4.1-9.5-5.9-2.9,5.5-4.7,11.6-5.3,17.8.7.2,1.6.3,2.7.5,2.3.4,3.7.5,7.1.7ZM208.7,283.2c-2.1.9-2.3,1.7-3.4,3.6-1.7,3.1-3.6,5.4-5,6.9,2.8,3.5,4.2,5.4,5.6,7.3,2.5-3.1,4.6-6.5,6.4-10.4.9-2.1,1.7-4.2,2.4-6.4-1.9-1.3-3.2-2.2-5.9-1.1ZM142.6,239.5c1.7-1.3,3.3-3.7,10.8-2,1.1.2,2.4,1.2,3.2-2.8.8-3.8.3-9.5,0-13.8-6,.6-12.7,2.3-19.4,6.1-1.1.6-2.1,1.2-3,1.8.4.6.9,1.3,1.6,2.3,2.2,3.1,3.3,4.4,6.8,8.5ZM200.9,253.6c-2.2,3-.2,3.9,1.3,6.5,3,5,2.3,9.4,5.2,9.4,2.7,0,5.5-2.2,8.7-3.3-.6-5.1-2-10.2-4.4-15.1-.6-1.3-1.3-2.5-2-3.7-3.1,1.3-6.8,3.4-8.9,6.3ZM159.5,306.2c-5.1-2.8-5.1-3.2-12.1-7.9-4.3,7.3-5.6,8.7-10.2,13.4,5.7,3.5,11.9,5.8,18.3,7,.9-2.4,1.8-5.2,2.5-7.6q.7-2.5,1.5-5ZM540.3,338.1c-2,3.1,0,4.4,1.4,6.6,3.6,5.7,2.6,10.8,6,10.8,3,0,6.3-2.6,9.8-3.8-.7-7.3-3-14.5-6.8-21.2-3.6,1.6-8.1,4.2-10.4,7.6ZM512,319c1.3,1.8,3.8,1.8,6,4,3.5,3.4,4.4,8.1,10,2.9,2.2-2,5-5.9,9.1-11.6-7.8-6.3-15.1-8.8-17.1-9.6h0c-.2,0-1-.4-2.3-.8-3.4,7.6-7.2,12.9-5.7,15.1ZM460.6,336.7c-4.9-3.4-7-4.6-10.7-6.7-3.3,6.3-5.4,13.2-6,20.2,4.8,1,8.1,1.2,11.1,1.3,1.8-6.3,2-6.9,5.6-14.8ZM556.4,354.7c-7.4,3-11.1,5-13.6-1.1-1.7-4.3-1.7-5.3-4.9-9.2-1.9-2.4-1.9-5.4.5-8.2.7-.9,2.7-3.3,11.1-7.8-.9-1.4-1.8-2.9-2.9-4.2-2.4-3.2-5-5.9-7.6-8.2-1.3,1.5-2.9,3.5-6.7,8.1-3.6,4.4-8,9.8-13.4,4.2-2.6-2.7-2.6-3.4-5-4.5-9.4-4.2-3.3-10.3-.5-16.4.7-1.6,1.3-3.1,1.8-4.3-4.4-1.3-11.5-2.7-20-2.2,0,.9-.1,2.1-.1,3.5-.2,10.4.4,18.3-4.7,18.7-2,.2-7.1-1.8-10.4.7-.4.3-1.6,1.5-2.9,1.8-.1,0-1,.3-1.5-.5-4.4-6-4.3-6.1-8.9-11.9-.5-.6-.8-1-1.2-1.5-6,4.4-10.9,9.9-14.4,15.9,2.3,1.6,5.1,3.6,6.5,4.5,5.1,3.3,5.6,3.1,5.5,4.1,0,.4-1.7,4.4-3.2,8.5-2.9,8.4-2.8,8.4-3.2,8.8-.9.8-1.5,0-10.4-.8-1,0-1.9-.2-2.7-.3-.3,5.2.2,10.5,1.4,15.7,2.7-.5,6.6-1.3,11.3-2.8,2.4-.8,6.1-2.4,6.8,1.1,1,5.2.9,5.5,4.2,7.9.5.4,2.3,1.3,1.7,2.7-.4,1-1.9,1-7.8,4.2-3.6,2-5.9,3.7-7.9,5.6,1.6,2.3,3.4,4.6,5.3,6.7,2.9,3.1,6,5.7,9.3,8,2.5-2.2,5.5-5.1,7.1-7.2,2.6-3.5,5-9,5.4-9.4.3-.2.8-.5,1.5-.2,1.3.7,4.2,2.5,15.4,9.8.6.4.7,1.1.6,1.6-2.4,6.7-3,7.5-5.1,15,5.6.8,11.3.8,16.9,0,.3-3.5.4-7.9.2-12.5-.2-3.8-.7-6.3,2.8-6.8,4.1-.7,14.7-1.3,15-1.2.6.2.8.7.9.8,1.6,4.1,1.5,4.1,3.2,8.2.4,1,.7,1.9,1,2.9,4.2-2.8,8.1-6.1,11.6-10.1-1.3-2.3-2.8-4.2-6.1-8-1.2-1.3-1.3-1.3-1.5-1.8-.5-1.3.7-1,5.3-8.8,1.3-2.3,2.5-5.3,7.4-6.2,2.9-.5,4.6.5,6.7,1.7,1.2-5,1.7-10.1,1.4-15.2-.4.1-.9.3-1.3.4ZM481.8,387.7c-4.9,8.5-6.3,9.8-11.6,15.4,6.3,3.9,13.2,6.6,20.3,7.9,3.2-9.1,4.5-13.9,4.6-14.5-5.9-3.3-6-3.8-13.3-8.8ZM477,322.7c2.1-1.5,3.4-4.3,12.3-2.3.6.1,2.8,1.5,3.5-5.5.4-4.2,0-9.3-.1-13.6-6.3.7-13.2,2.5-20.3,6.4-1.6.9-3.2,1.8-4.7,2.9.8,1.1,1.6,2.4,2.5,3.5,2.1,2.9,3.5,4.5,6.9,8.7ZM465,376.4c-1-.8-2.1-1.9-2.7-3-1.1-2.1-1.1-5-1.5-6.7-.2,0-.6-.1-2.6.4-2.1.6-7.5,2.3-12.5,3.7,1.4,4.9,3.5,9.7,6.4,14.3.9-.7,1.9-1.5,3.4-2.6,4-3,7.3-5,9.4-6.1ZM549,370.5c-2.4,1-2.7,2-3.8,4.1-1.9,3.5-4,6-5.6,7.8,3.1,4,4.6,6,6.3,8.5.3-.3.5-.6.8-1,4.2-5.5,7.2-11.7,9.1-18.1-2.2-1.5-3.7-2.6-6.7-1.3ZM526.8,393.4c-.6,0-4,.6-9.4,1-3.6.2-3.6.2-4.7.4-.4.9-.2,1.4-.5,10.2,0,1.1,0,3.5,0,6,6.6-1.2,12.9-3.6,18.7-7-.5-1.9-1.2-4.1-2.1-6.3-.9-2.2-1-2.1-2-4.3ZM390.6,289.7l-51.6-13.9c-28.4-7.6-51.3-13.4-63.9-16.6,3.9,18.3,1.8,41.9-8.7,65.5-2.6,5.7-6.1,11.2-10.4,16.1,6.3,1.6,12.5,3.2,18.8,4.8,16.3,4.2,66.7,17.8,93,24.9-1.4-7.3-1.8-14.8-.8-22.1,3.1-24.3,12.2-44.7,23.7-58.7ZM586.1,205.4c-2.5-2.8-5.7-3.7-6.1-3.8h0s0,0,0,0,0,0,0,0h0c-.6-.3-7.1-3.2-13.6,1.7-9.8,7.5-5.1,24.1,8,24.5,11.9.4,19.8-13.3,11.7-22.4ZM278.5,518h0s0,0,0,0,0,0,0,0h0c-.6-.3-7.1-3.2-13.6,1.7-9.8,7.5-5.1,24.1,8,24.5,11.9.4,19.8-13.3,11.7-22.4-2.5-2.8-5.7-3.7-6.1-3.8ZM159.8,136.9c11.9.4,19.8-13.3,11.7-22.4-2.5-2.8-5.7-3.7-6.1-3.8h0s0,0,0,0,0,0,0,0h0c-.6-.3-7.1-3.2-13.6,1.7-9.8,7.5-5.1,24.1,8,24.5Z" fill="#fff"/><path d="M416.9,161.3c-10.5,5.6-34.1,19.8-65-3.1-41.6-30.9-73-110.7-120-133.9C147.1-17.8,3.1,4.5,5.6,227.1c2.4,211.5,172.8,341.2,232,370.4l1.3.6h0c9,4.2,49.9,24.5,145-3.4,127.2-37.3,281.6-142.1,317.4-239.2,59-159.8-83.2-301-284.4-194.2ZM635.7,360.5c-43.9,116.8-265.4,250.9-385.6,223.1l-2.2-.5c-.1,0-24.3-4.7-63.7-38.9C117.2,486.2,43.5,374.8,52.5,231.7,62.9,68.7,182.6,42.9,253,78.1c57.4,28.7,86,123.5,147.1,106.4,6.3-1.8,23.5-9.2,50-15.4,152.9-35.6,233.2,64.7,185.6,191.4ZM402.3,528.7c-7.7,6.3-37.1,12.6-45.2,11.2.3-.6-.3-.7-1-.6-6.4-9.7-14.4-23.2-17.3-36.8-6.4-30.5,19-48.3,30.3-40.2,11.4,8.2,6,34.7,5.8,36-.5,3.2,2.8,4.8,5,3.4,1-.6,8.1-8.1,16.3-9.5,15.9-2.8,20.1,25,6.1,36.5ZM186,438.6s0,0,0,0c0,0,0,0,0,0,0,0,0,0,0,0ZM221.9,373.2c1.4,6,1.6,11.7.7,17.2-.2,1.1-.4,2.2-.6,3.2-.2,1.1-.5,2.1-.9,3.1-5.4,17.3-20.5,31.2-34.4,41.9-.5-.1-1-.2-1.2-.2-6.7-1.6-30.4-16.8-40.8-28.5-9.7-10.9-8-27.3-1.8-36.2.7-1.1,1.5-2,2.4-2.8,1-1,2.1-1.8,3.2-2.4,0,0,0,0,.1,0,6.9-3.4,13.3,1.4,18,6.9,1.3,1.5,2.4,3.1,3.4,4.5,1.1,1.6,2,3.1,2.6,4.3.7,1.3,1.2,2.1,1.3,2.3,1.5,2.6,5.1,2,6-.5,0,0,0-.2.1-.2,0-.3.2-1.4.4-3.2.1-1,.3-2.1.5-3.4,1.3-7.6,4.2-20,10.8-26.5,10.7-10.6,25.8,2.6,30.1,20.5Z" fill="#fe6d68"/><path d="M440,142.5c-22.4,9.7-29.7,15.1-38.2,18.3-65.7,24.3-100.3-110.4-166.7-143C152.1-23,13.9-4.4,1,189.4c-5.7,85,13.6,149.7,33.4,194.8,52.5,119.6,153.1,196.7,201.3,220.6,2,.9,2,.9,2.1,1,118.4,53.5,415.4-107.8,467.9-247.5,59.3-157.9-72.8-299.1-265.7-215.7ZM383.9,594.7c-95.1,27.9-136,7.6-145,3.4h0s-1.3-.6-1.3-.6C178.4,568.3,8,438.6,5.6,227.1,3.1,4.5,147.1-17.8,231.9,24.2c47,23.3,78.4,103,120,133.9,30.8,22.9,54.4,8.7,65,3.1,201.2-106.8,343.4,34.4,284.4,194.2-35.8,97.1-190.2,201.9-317.4,239.2ZM450.1,169.1c-26.5,6.2-43.7,13.6-50,15.4-61,17.2-89.6-77.7-147.1-106.4-70.4-35.2-190.2-9.3-200.5,153.7-9.1,143.1,64.7,254.5,131.7,312.5,39.4,34.1,63.6,38.8,63.7,38.9l2.2.5c120.2,27.8,341.7-106.3,385.6-223.1,47.6-126.7-32.7-227-185.6-191.4ZM397.2,555.9c-89.6,35.1-137.8,22.3-147.5,20h0c-.4-.1-.8-.2-1.2-.3-50.2-13.3-186.9-131.1-191-309.2-4.3-184.3,116.6-218.1,190.8-182.6,37.5,17.9,62.8,66.7,95.1,92.8,27.6,22.2,49.3,18.2,65.4,12.1,175.4-65.9,271.7,35.8,222.4,169.1-28.6,77.5-135.1,159.3-234,198ZM503.8,242c-128.2-33.1-145.5-37.7-277.8-72.9-53.8-14.3-109.7,13.4-132,62.9-23.8,52.7-2.8,112.2,44.2,139.3-3.2,5-5.2,11.5-5.4,18.2-.5,15,6.5,22.8,9.5,26.1,9.7,10.7,33,28.2,42,30.2.7.4,2,1.1,2.1,1.2.2,0,1.6.2,2.7-.8,18.8-15.5,31.3-29.7,37-47.2,0-.3.2-.6.3-.8,111.6,28.8,146.5,37.7,217.5,56.7,29.6,7.9,59.2,2.9,83.3-10.3,43.2-23.8,53.4-64.5,54.3-67.7l-3.5-1-1.1-.3,1.1.3,3.5,1,.6-2.1c14.9-57-18.7-117.3-78.2-132.7ZM221.1,396.7c-5.4,17.3-20.5,31.2-34.4,41.9-.5-.1-1-.2-1.2-.2-6.7-1.6-30.4-16.8-40.8-28.5-9.7-10.9-8-27.3-1.8-36.2.7-1.1,1.5-2,2.4-2.8,1-1,2.1-1.8,3.2-2.4,0,0,0,0,.1,0,6.9-3.4,13.3,1.4,18,6.9,1.3,1.5,2.4,3.1,3.4,4.5,1.1,1.6,2,3.1,2.6,4.3.7,1.3,1.2,2.1,1.3,2.3,1.5,2.6,5.1,2,6-.5,0,0,0-.2.1-.2,0-.3.2-1.4.4-3.2.1-1,.3-2.1.5-3.4,1.3-7.6,4.2-20,10.8-26.5,10.7-10.6,25.8,2.6,30.1,20.5,1.4,6,1.6,11.7.7,17.2-.2,1.1-.4,2.2-.6,3.2-.2,1.1-.5,2.1-.9,3.1ZM186,438.6s0,0,0,0c0,0,0,0,0,0,0,0,0,0,0,0ZM574.4,374.7h0s-.4,1.3-.4,1.3c-16.3,55.6-74,87.4-128.8,73.3-63.6-16.4-109.9-28.8-217.4-57.5,5.4-29.2-15-55.1-33.4-49.1-13,4.2-17.9,21.7-19.8,32.8-.7-1-1.8-2.4-3-3.7-10.9-12.3-21.3-12.2-28.6-6-35.2-20-54.8-58.8-51.3-97.8,6.1-65.7,70.2-109.4,132.7-93.2,128.4,33.2,153.8,39.8,277.8,72.9,29.1,7.7,49,26.1,60.4,44.2,24.7,39.4,13.2,77.1,11.7,82.9ZM184.1,217.3c-1.1-.4-9.7-3.7-21.4-3.4-34.3.9-59.4,30.4-55,63,4.6,34,39.1,56.6,71.9,48.5,32-8,49.3-40.2,39.6-71-9-28.5-34.9-37.1-35.1-37.1ZM205.9,301c-1.4-2-2.8-3.8-5.6-7.3,1.4-1.5,3.3-3.8,5-6.9,1-1.9,1.3-2.8,3.4-3.6,2.6-1.1,4-.3,5.9,1.1-.6,2.2-1.4,4.3-2.4,6.4-1.7,3.8-3.9,7.3-6.4,10.4ZM215.2,282c-1.8-1-3.3-1.8-5.7-1.5-4.8.7-6,3.8-7.1,5.6-4.2,7-5.4,6.8-4.8,8,0,.2,1.3,1.5,1.4,1.6,2.9,3.2,4.2,4.8,5.5,6.9-3,3.4-6.5,6.4-10.3,8.8-.3-.8-.5-1.6-.9-2.3-1.7-4-1.6-4-2.9-7.4-.2-.4-.6-.8-1.3-.8-8.8.4-9.6.6-10.7.7-3.4.3-5.6.3-5.4,4.2.3,6.5.4,8.4,0,13.2-5,.7-10.1.7-15.2,0,1.9-6.6,2.4-7.3,4.5-13.1.2-.4.1-1.1-.6-1.6-8.3-5.5-11.8-7.5-12.8-8.1-.8-.5-1.8-1.3-2.6-.7-.6.4-2.2,4.7-4.7,8.1-1.4,2-4.2,4.6-6.6,6.6-2.3-1.6-4.6-3.4-6.7-5.4-2.5-2.4-4.7-5-6.6-7.7,2-1.9,4.7-3.7,9.2-5.9,3.9-1.9,4.7-1.9,5-2.9.4-1.4-1-1.8-3-3.4-2.2-1.8-1.9-4.4-2.6-6.4-.9-2.8-4.3-1.3-6.3-.7-4.1,1.3-7.5,2-10,2.4-1.1-4.5-1.6-9.2-1.4-13.8.5,0,1,.1,1.6.2,8.6.8,8.6,1.4,9.7,1.1,1.4-.3.7-1,6.2-15.6.2-.6,0-1.2-.5-1.4-3.9-2.3-4.6-2.7-10.4-6.7,3.2-5.3,7.5-10.1,12.9-14,.3.3.6.7,1,1.2,4.3,5.2,4.1,5.3,8.2,10.7,1.2,1.5,3.8-.9,4.4-1.3,2.7-2,7.6-.3,9.2-.5,4.7-.4,4.1-7.5,4.3-16.9,0-1.1,0-2,0-2.8,7.6-.4,13.9.9,17.9,2.1-.3.7-.5,1.4-.9,2.2-2.8,6.8-8.4,11.6-1.1,15.7,1.7,1,2,.6,4,2.8,3.3,3.6,6.4,7.2,13.2-1.1,3-3.7,5.1-6.2,6.6-7.9,3.3,2.9,6.6,6.5,9.5,11-7.4,3.9-9.1,5.9-9.7,6.6-.4.5-3.5,4.1-.5,7.7,2.9,3.5,2.9,4.4,4.5,8.2,2.5,5.9,6.4,3.5,12.8,1.1.3,0,.5-.2.7-.2.3,4.5-.1,8.9-1.2,13.2ZM175.3,318.8c0-1.9,0-3.7,0-6.5.2-6.5,0-7,.3-7.5.5,0,.7,0,3-.2,6-.3,7.3-.6,9.7-.9.9,1.9.9,1.9,1.8,3.8.8,1.9,1.4,3.7,1.9,5.3-5.2,3-10.9,5-16.8,6ZM114.6,282.8c5.8-1.5,12-3.7,13.3-3.5.7,5.2.9,6.3,3.7,8.6-1.9,1-4.6,2.6-8.4,5.3-1.1.8-2.1,1.5-2.9,2.2-2.6-4-4.5-8.2-5.8-12.5ZM155.5,318.7c-6.3-1.2-12.5-3.5-18.3-7,4.5-4.8,5.8-6.1,10.2-13.4,7,4.7,7,5.1,12.1,7.9q-.7,2.5-1.5,5c-.7,2.4-1.7,5.2-2.5,7.6ZM112.7,264.1c.6-6.2,2.3-12.2,5.3-17.8,3.3,1.8,5.2,3,9.5,5.9-3.3,6.9-3.5,7.5-5,13-3.4-.2-4.8-.3-7.1-.7-1.1-.2-2-.4-2.7-.5ZM211.7,251.1c2.4,5,3.8,10.1,4.4,15.1-3.3,1.1-6,3.2-8.7,3.3-2.9,0-2.2-4.4-5.2-9.4-1.6-2.6-3.6-3.5-1.3-6.5,2.1-2.8,5.9-4.9,8.9-6.3.7,1.2,1.3,2.4,2,3.7ZM179.5,223.4c1.1.4,1.8.7,2,.7h0c1.2.4,8.1,2.7,15.6,8.5-2.4,3.4-5.8,8.1-7.8,9.9-4.8,4.5-5.7,1.1-8.8-2.2-2.3-2.4-4.4-2.3-5.8-3.9-1.4-1.6.9-5.2,4-11.3.3-.6.6-1.3.9-1.9ZM156.6,234.6c-.8,4-2.2,3.1-3.2,2.8-7.5-1.7-9,.7-10.8,2-3.5-4.1-4.6-5.4-6.8-8.5-.7-1-1.2-1.7-1.6-2.3,1-.6,2-1.3,3-1.8,6.8-3.7,13.4-5.5,19.4-6.1.2,4.3.7,10,0,13.8ZM522.5,297.8h0c-1.6-.5-11.4-4.3-24.9-3.6-36.8,2.1-63.4,34.6-58.9,70.1,4.9,38.7,44.5,64.1,81.7,52,34.8-11.2,51.6-49.1,38.3-82.7-10.8-27.1-35.3-35.5-36.3-35.9ZM531.9,399.8c-1.6-4.1-1.6-4.1-3.2-8.2,0,0-.2-.6-.9-.8-.3,0-10.9.5-15,1.2-3.5.6-2.9,3-2.8,6.8.2,4.6,0,9-.2,12.5-5.6.8-11.3.8-16.9,0,2.1-7.5,2.7-8.3,5.1-15,.2-.5,0-1.2-.6-1.6-11.2-7.4-14.1-9.1-15.4-9.8-.6-.4-1.2,0-1.5.2-.4.4-2.8,5.9-5.4,9.4-1.7,2.2-4.7,5-7.1,7.2-3.3-2.3-6.4-4.9-9.3-8-2-2.1-3.8-4.4-5.3-6.7,1.9-1.9,4.3-3.6,7.9-5.6,5.9-3.2,7.3-3.3,7.8-4.2.6-1.4-1.2-2.3-1.7-2.7-3.3-2.4-3.2-2.7-4.2-7.9-.7-3.5-4.4-1.9-6.8-1.1-4.7,1.5-8.6,2.4-11.3,2.8-1.2-5.2-1.7-10.4-1.4-15.7.8,0,1.7.2,2.7.3,8.9.8,9.6,1.6,10.4.8.4-.4.3-.5,3.2-8.8,1.4-4.1,3.1-8.1,3.2-8.5,0-1.1-.5-.9-5.5-4.1-1.4-.9-4.2-2.9-6.5-4.5,3.6-6,8.4-11.5,14.4-15.9.3.4.7.9,1.2,1.5,4.7,5.8,4.5,5.9,8.9,11.9.6.7,1.4.5,1.5.5,1.3-.4,2.6-1.6,2.9-1.8,3.3-2.5,8.4-.6,10.4-.7,5-.4,4.5-8.3,4.7-18.7,0-1.4,0-2.5.1-3.5,8.5-.5,15.6.9,20,2.2-.5,1.2-1,2.7-1.8,4.3-2.8,6.1-8.9,12.1.5,16.4,2.4,1.1,2.4,1.7,5,4.5,5.4,5.6,9.8.2,13.4-4.2,3.8-4.7,5.4-6.6,6.7-8.1,2.6,2.3,5.2,5,7.6,8.2,1,1.4,2,2.8,2.9,4.2-8.4,4.5-10.4,6.9-11.1,7.8-2.3,2.8-2.4,5.8-.5,8.2,3.2,3.9,3.2,4.9,4.9,9.2,2.5,6.1,6.2,4.1,13.6,1.1.4-.2.9-.3,1.3-.4.3,5.1-.2,10.2-1.4,15.2-2.1-1.2-3.9-2.2-6.7-1.7-4.9.9-6.1,3.9-7.4,6.2-4.6,7.8-5.9,7.5-5.3,8.8.2.5.3.5,1.5,1.8,3.4,3.8,4.8,5.7,6.1,8-3.4,4-7.3,7.4-11.6,10.1-.3-1-.7-2-1-2.9ZM530.8,404c-5.8,3.4-12.2,5.8-18.7,7,0-2.5,0-4.9,0-6,.3-8.9,0-9.3.5-10.2,1.1-.2,1.1-.1,4.7-.4,5.4-.3,8.8-.9,9.4-1,1,2.1,1,2.1,2,4.3,1,2.2,1.6,4.4,2.1,6.3ZM470.2,403.2c5.3-5.6,6.7-7,11.6-15.4,7.4,5,7.4,5.5,13.3,8.8-.2.6-1.4,5.4-4.6,14.5-7.1-1.3-14-3.9-20.3-7.9ZM545.9,390.9c-1.7-2.5-3.1-4.5-6.3-8.5,1.6-1.8,3.7-4.3,5.6-7.8,1.1-2.2,1.4-3.1,3.8-4.1,3-1.3,4.5-.2,6.7,1.3-1.8,6.5-4.9,12.6-9.1,18.1-.3.3-.5.6-.8,1ZM557.5,351.7c-3.5,1.1-6.8,3.7-9.8,3.8-3.3,0-2.4-5.1-6-10.8-1.4-2.2-3.5-3.5-1.4-6.6,2.3-3.4,6.8-6,10.4-7.6,3.8,6.8,6.1,14,6.8,21.2ZM519.9,304.7h0c2,.7,9.3,3.2,17.1,9.5-4.1,5.7-6.9,9.6-9.1,11.6-5.6,5.2-6.5.5-10-2.9-2.2-2.2-4.7-2.2-6-4-1.6-2.1,2.2-7.5,5.7-15.1,1.3.4,2.1.8,2.3.8ZM492.8,314.8c-.7,7-2.9,5.7-3.5,5.5-8.9-2-10.1.8-12.3,2.3-3.5-4.2-4.9-5.8-6.9-8.7-.8-1.1-1.7-2.4-2.5-3.5,1.5-1,3.1-2,4.7-2.9,7.1-3.8,14-5.7,20.3-6.4.1,4.3.6,9.5.1,13.6ZM449.9,330c3.7,2.1,5.8,3.3,10.7,6.7-3.7,7.9-3.9,8.5-5.6,14.8-3-.1-6.3-.3-11.1-1.3.7-7,2.7-13.9,6-20.2ZM452.1,385.1c-2.8-4.5-5-9.3-6.4-14.3,4.9-1.3,10.3-3.1,12.5-3.7,1.9-.5,2.4-.5,2.6-.4.3,1.6.3,4.5,1.5,6.7.6,1.1,1.7,2.2,2.7,3-2.1,1.1-5.4,3.1-9.4,6.1-1.5,1.1-2.5,1.9-3.4,2.6ZM426.4,292.1c-1.3-1.2-1.5-.8-49.3-12.6-98.3-24.3-104.1-26.7-112.9-28.8-1.7-.4-2.8.7-3.2,1.4-.2.4-25.2,87-25.2,87.6-.2,1.7.9,3.4,2.6,3.8,46.9,12.6,117,29.5,159.8,40.4.3,0,.6.2.8.2,1.6.4,2.9-.6,3.3-1.9.3-1.1.3-1.1,4-14.1l21.1-72.4c0-1.5.4-1.5-.4-2.8-.3-.5-.7-.8-.7-.9ZM243.7,337.7l21.8-80.9c1.2.3,3.5.9,6.6,1.6,4.3,17.6,2.6,41-7.8,64.6-3.1,6.9-7.1,12.5-11.3,17-3.1-.8-6.2-1.6-9.2-2.3ZM256,340.8c4.3-4.9,7.8-10.4,10.4-16.1,10.5-23.6,12.6-47.2,8.7-65.5,12.6,3.2,35.5,9,63.9,16.6l51.6,13.9c-11.4,14-20.5,34.4-23.7,58.7-.9,7.3-.6,14.7.8,22.1-26.3-7.1-76.7-20.7-93-24.9-6.3-1.6-12.5-3.2-18.8-4.8ZM382.5,374.4c-2.1-.6-6.3-1.7-11.7-3.1-1.6-7.1-2.1-14.3-1.4-21.1,2.4-22.6,11.3-44.7,24.2-59.7l25.9,7c-3.3,12.4-6.5,24.7-9.8,37.1-6.6,24.6-11.5,42.7-11.8,43.8-5.1-1.3-10.2-2.6-15.3-4ZM582.6,194.7c-1.3-.4-8.8-2.8-16.7,2.1-11.9,7.4-14,25.5-2.2,34.5,12.9,9.8,31.2,0,31.2-17,0-15-12-19.4-12.3-19.6ZM574.4,227.9c-13.1-.4-17.9-17-8-24.5,6.5-4.9,13-2,13.6-1.7h0s0,0,0,0,0,0,0,0h0c.4.1,3.6,1,6.1,3.8,8.1,9.2.2,22.8-11.7,22.4ZM281,511.1c-1.3-.4-8.8-2.8-16.7,2.1-11.9,7.4-14,25.5-2.2,34.5,12.9,9.8,31.2,0,31.2-17,0-15-12-19.4-12.3-19.6ZM272.9,544.3c-13.1-.4-17.9-17-8-24.5,6.5-4.9,13-2,13.6-1.7h0s0,0,0,0,0,0,0,0h0c.4.1,3.6,1,6.1,3.8,8.1,9.2.2,22.8-11.7,22.4ZM149,140.3c12.9,9.8,31.2,0,31.2-17,0-15-12-19.4-12.3-19.6-1.3-.4-8.8-2.8-16.7,2.1-11.9,7.4-14,25.5-2.2,34.5ZM151.8,112.4c6.5-4.9,13-2,13.6-1.7h0s0,0,0,0,0,0,0,0h0c.4.1,3.6,1,6.1,3.8,8.1,9.2.2,22.8-11.7,22.4-13.1-.4-17.9-17-8-24.5ZM405.9,488.2c-7.9-4.4-16.9-.6-22.9,3.2.8-6,1.2-14.2-.7-21.3-6.2-23.3-30.5-20.6-42.8-1.9-17.9,27.3,3.7,63.5,11.9,77.1.9,1.6.9,1.8,2.7,2.2.6.1,1.3,0,1.9-.3,8.5,1.5,35.8-5.6,46.8-12.2,16.7-10,17.5-39,3.2-46.9ZM357.2,539.9c.3-.6-.3-.7-1-.6-6.4-9.7-14.4-23.2-17.3-36.8-6.4-30.5,19-48.3,30.3-40.2,11.4,8.2,6,34.7,5.8,36-.5,3.2,2.8,4.8,5,3.4,1-.6,8.1-8.1,16.3-9.5,15.9-2.8,20.1,25,6.1,36.5-7.7,6.3-37.1,12.6-45.2,11.2Z" fill="#714e67"/></g></svg>