<?xml version="1.0" encoding="UTF-8"?><svg id="b" xmlns="http://www.w3.org/2000/svg" viewBox="0 0 720 719.9"><g id="c"><path d="M590.6,83.6C489.6-.7,380.9,0,360,0h-2.3C175.2.9,21.1,140,2,322.1c-20.9,199.1,123.8,374,317.8,395.6,187.7,20.9,355.5-105.8,392.6-284.1,26.8-128.7-18.3-263.4-121.8-349.9Z" fill="#714e67"/><path d="M627,132l-137.9,120.6,126.1-133.7c4,4.3,8,8.7,11.8,13.1ZM237.1,31l85.1,202.4c9.7-3.5,18.6-5.6,26.2-6.8l-10.5-217.2c-22.9,1.4-59.4,6.1-100.8,21.5Z" fill="#ffdce8"/><path d="M388.2,511.5l27.3,195.2c-5.4.9-10.9,1.6-16.4,2.2-29,3.2-57.4,2.8-85-.8,10.5-59.5,24.7-133.3,37.3-197,12.1,1.7,24.5,1.8,36.7.4ZM371.3,224.8c2.4,0,16.8-.4,36,4.6L482.2,30.8c-59.9-22.2-109.1-21.9-122.2-21.9-4.1,0-11.7,0-22.1.6l10.5,217.2c11.1-1.8,19.4-1.8,22.8-1.8Z" fill="#f8fcb9"/><path d="M615.2,118.9l-126.1,133.7-16.3,14.3c-17.8-17.7-37.1-28-54-33.9-4-1.4-7.9-2.5-11.5-3.5L482.2,30.8c2.8,1,5.6,2.1,8.5,3.3,30.4,12.2,63.1,30.2,95,57,10.3,8.7,20.2,18,29.5,27.8ZM290.6,487.8c-42.1,51.4-91.4,112.2-129.9,161.1,29.2,20.2,61.6,36.1,96.1,46.7,18.6,5.7,37.8,10,57.4,12.5,10.5-59.5,24.7-133.3,37.3-197-14.1-2-27.9-6-40.9-12-6.9-3.2-13.6-7-20-11.3Z" fill="#fbd5dc"/><path d="M697.1,261.5l-26,7c-65.6,0-131.2,0-196.7,0,0,0,0,0,0,0-.4-.5-.8-.9-1.3-1.4s0,0-.1-.1l16.3-14.3,137.9-120.6c31.8,37.2,56,81.2,70.1,129.4ZM256.9,482.5c-40.8,0-81.7,0-122.5,0-30.4,14.2-59.8,28.1-85.3,40.5,22,41.9,52.3,78.7,88.4,108.4,7.5,6.2,15.3,12,23.2,17.5,38.5-48.9,87.8-109.7,129.9-161.1-2.4-1.7-4.8-3.4-7.2-5.2-8.8,0-17.7,0-26.5,0Z" fill="#d1d8f7"/><path d="M75.3,482.5c19.7,0,39.4,0,59.1,0-30.4,14.2-59.8,28.1-85.3,40.5-4.2-7.9-8-16-11.6-24.3-2.3-5.3-4.5-10.7-6.5-16.1,14.8,0,29.6,0,44.3,0ZM697.1,261.5l-26,7c9.3,0,18.6,0,28,0-.6-2.3-1.3-4.7-2-7Z" fill="#bae8fe"/><path d="M689,482.5c-8.3,22.2-18.7,43.3-31.1,63.1l-82.2-63.1c37.8,0,75.6,0,113.3,0ZM21,268.4c61.2,0,122.5,0,183.7,0-52.9-27.9-108.4-56.8-151.9-78.5-13.8,24.9-24.5,51.3-31.8,78.5Z" fill="#c0f4ec"/><path d="M260.4,261.5c2,2.3,3.9,4.6,5.9,6.9-20.5,0-41,0-61.5,0-52.9-27.9-108.4-56.8-151.9-78.5,7.7-14,16.5-27.5,26.2-40.4,12.8-17,27.2-33.1,43.3-47.9,38,42.5,90.8,104.1,138,159.9ZM575.7,482.5c-11.7,0-23.4,0-35.1,0-27.2,0-54.4,0-81.5,0-.1.1-.3.2-.4.3-1.4,1.1-2.8,2.1-4.2,3.1l98.4,167.4c37.2-24.5,69.4-55.9,94.8-92.2,3.5-5.1,6.9-10.2,10.2-15.4l-82.2-63.1Z" fill="#d9c7fb"/><path d="M237.1,31l85.1,202.4s0,0,0,0c-10.8,3.9-22.5,9.6-34.2,18-6.7,4.8-12.9,10.1-18.5,15.7-.4.4-.9.9-1.3,1.3-.6,0-1.3,0-1.9,0-1.9-2.3-3.9-4.6-5.9-6.9-47.2-55.8-100-117.5-138-159.9,3.9-3.6,7.8-7.1,11.9-10.5,20.6-17.3,41.5-31,61.9-41.7,14-7.4,27.7-13.4,40.9-18.3ZM454.5,486c-.7.5-1.4,1-2.1,1.5-12.6,8.6-26.1,15-40.1,19.1-7.9,2.4-16,4-24.1,4.9l27.3,195.2c13.7-2.2,27.2-5.2,40.3-8.9,33.4-9.5,64.6-23.7,93.1-41.9,1.3-.8,2.6-1.7,3.9-2.5l-98.4-167.4Z" fill="#bfaee7"/><path d="M254.5,452.6c-4.6-6.4-8.6-13.1-12-20-3-5.9-5.5-12-7.6-18.2-6.9-20.5-8.9-42.1-6.4-63.1.5-4.1,1.2-8.1,2-12.1,3.5-16.5,9.8-32.5,19-47.1,3.6-5.8,7.7-11.3,12.1-16.6l-43,.2-199.8,1c-4.1,16.6-6.9,33.5-8.5,50.6-.3,3.4-.6,6.8-.8,10.2-2,31.6.2,63.6,6.9,95.2,3,14,6.7,27.6,11.3,40.9h245.2c-1.7-1.6-3.4-3.3-5.1-5-4.8-5-9.3-10.3-13.5-16.1ZM54.6,410c-2.2,0-4.4-1.8-4.4-4.4,0-4.8,0-53.3,0-65.9,0-1.2,0-2.1,0-2.6,0-2.4,2-4.4,4.4-4.4,18.5,0,37,0,55.4,0,12.4,0,24.7,0,37.1,0,1.9,0,3.2,1.2,3.8,2.2.2.3.3.5.3.7.1.5.1,1,.3,1.5,0,2.9,0,5.9,0,8.8,0,20.1,0,40.2,0,60.3,0,.8-1.4,3.6-4.4,3.6-30.8,0-61.7,0-92.5,0ZM709.2,323c-1.8-16.9-4.8-33.5-8.9-49.7h-3.9s-44.5.2-44.5.2l-172.1.9c10.3,11.9,18.4,25,24.1,38.8,3,7.2,5.4,14.6,7.2,22.1,2.8,11.9,4.1,24.1,3.8,36.3-.1,6.1-.7,12.2-1.6,18.2-1.9,12.6-5.4,24.9-10.6,36.7-3.1,7-6.7,13.8-10.9,20.2-6.3,9.7-13.8,18.7-22.5,26.9h222.7c6.2-17.9,10.9-36.5,14.1-55.6.1-.8.2-1.5.4-2.3,4.8-30,5.8-61.1,2.5-92.9ZM677.3,360.7c0,.5-.2,3.8-4.6,4.2-1.7.2-6.8-.7-54-1.6-4.8,0-59.8-1.1-59.9-1.2-1-.5-2.3-.6-3.1-1.4,0,0-1.3-3.1-1.2-3.2,1.4-3.2,1-4.1,4.5-4.3.2,0,60.2,1.2,65.5,1.3,21.5.4,30.1.8,48.6,1.5.3,0,1.8,0,3.1,1.4,1.2,1.3,1.2,1.4,1.2,3.2ZM553,325.2c.3-1.1.2-2.4.9-3.2.7-.9,1.9-1.3,2.9-1.7.5-.2,8.9-1,9.7-1.1,20.3-2,31.4-1.1,98-1.1,1.8,0,1.9,0,3.1,1.3,1.3,1.3,1.3,1.3,1.3,3.1s0,3.8-4.4,4.4c-1.9.3-65.6-.6-83.6.1-12.8.6-22.9,2.1-23,2-1.1-.3-2.4-.2-3.2-.9,0,0-1.7-2.9-1.7-3ZM558.7,399.2c-1.8,0-1.9-.1-3.1-1.4,0,0-.5-1.3-.8-2.3-.2-.5-.3-.9-.3-.9,1.5-3.1,1.1-4.1,4.6-4.2,1,0,19.2.9,40.4,1.9,27.3,1.2,59.6,2.6,67.7,2.2,3-.1,5.3-.4,5.3-.4,1.1.3,2.3.3,3.2,1,1.4,1.1,1.4,1.2,1.6,3,0,.6.4,4.4-4.8,4.9-5.2.5-11.2.6-29,0-10.9-.4-26.3-1-48.7-2-10.4-.5-22.3-1-36-1.6ZM147.1,337.4l4.4-.2-4.4-1v33-31.7Z" fill="#f7f2eb"/><path d="M506.1,374.8c-.2,4.7-.6,9.3-1.3,14-1.6,11-4.6,21.8-9.1,32.3-3,7-6.6,13.9-10.9,20.5-1,1.5-2,3.1-3,4.6-7.5,10.6-16.2,19.8-25.8,27.6-1.9,1.5-3.8,3-5.8,4.4,0,0-.2.1-.3.2-.7.5-1.3,1-2,1.4-1.4,1-2.8,1.9-4.3,2.8-10.4,6.6-21.7,11.8-33.3,15.3-7.7,2.3-15.5,4-23.4,4.9-11.2,1.3-22.6,1.3-33.8-.2-13.8-1.8-27.3-5.9-40.3-12.1-4.8-2.3-9.5-5-14.1-7.9-.9-.5-1.7-1.1-2.6-1.6-1.3-.9-2.6-1.8-3.9-2.8-.6-.4-1.2-.8-1.8-1.3-1.4-1-2.7-2.1-4-3.2-4.6-3.7-9-7.7-13-11.9-6.9-7.2-12.8-15.1-17.8-23.3,19.3-7.8,36-13.7,51.4-18.5,1.5-.5,3.1-.9,4.6-1.4,4.9,5.9,10.6,11,16.8,15.1,1.4.9,2.9,1.8,4.4,2.7,9.7,5.5,20.4,9,31.5,10.1,4.9.5,9.9.5,14.8,0,6.5-.6,12.9-2,19.2-4.3,4.5-1.6,8.9-3.7,13.2-6.2,2.9-1.7,5.6-3.6,8.2-5.6.5-.4,1-.8,1.4-1.1,7.4-6,13.5-13.2,18.1-21.1,3.6-6.2,6.4-12.9,8.2-19.8,1.5-.3,2.9-.6,4.4-1,5.1-1.1,10.5-2.3,16-3.6,11.8-2.7,24.4-5.6,38.3-9ZM296.6,347.1c.4-1.4.9-2.8,1.4-4.2,2.4-6.9,5.8-13.5,10-19.5.7-1,1.4-1.9,2.1-2.9,5.1-6.5,11.2-12.3,18.3-17,4-2.7,8.3-5.1,13-7,2.2-.9,4.3-1.7,6.4-2.4,1.3-.4,2.6-.8,3.9-1.1,3.7-1,7.1-1.6,10-2,5.1-.7,8.8-.6,10.2-.7.2,0,5-.2,12.1.9,3.7.6,8,1.6,12.7,3.1,8.4,2.8,18,7.6,27,15.5,1.2,1.1,2.4,2.2,3.6,3.4,2-.4,4-.9,6-1.3,15.7-3.5,33.5-7.4,54.4-11.9-5.3-9-11.8-17.6-19.3-25.3,0,0-.2-.2-.3-.3-.5-.6-1.1-1.1-1.7-1.6,0,0-.1-.1-.2-.2-1.5-1.4-3-2.9-4.5-4.3-4.2-3.8-8.7-7.4-13.6-10.8-11.1-7.7-22.1-12.9-32.2-16.4-4.1-1.4-8-2.6-11.7-3.5-16.1-4-28.5-4-32.9-4.1h0c-1.6,0-10.1-.2-22.4,1.9-6.3,1.1-13.6,2.8-21.5,5.5-.6.2-1.1.4-1.7.6-14.1,5.1-29.9,13.3-44.8,26.8-1.2,1.1-2.5,2.3-3.7,3.5-.3.3-.7.6-1,1-.5.5-1,1-1.6,1.5-.4.4-.7.7-1,1.1-.3.3-.5.5-.7.8-5.9,6.3-11.1,13-15.6,20-8.6,13.6-14.6,28.3-17.9,43.4-.9,4.1-1.6,8.2-2.1,12.3-.5,4.3-.9,8.6-1,12.9,12.8-3.8,24.4-7.3,35.1-10.4,9-2.7,17.4-5.1,25.2-7.4Z" fill="#d9d0d9"/><path d="M440.5,378.6c0,.5-.2,1-.2,1.5-.6,3.5-1.4,6.9-2.6,10.3-.6,1.7-1.2,3.4-1.9,5.2-1.1,2.5-2.3,5-3.6,7.3-4.1,7.3-9.4,13.5-15.5,18.7-.4.4-.9.7-1.3,1.1-5.7,4.6-12.1,8.2-18.8,10.8-5.9,2.3-12.2,3.7-18.5,4.3-3.9.4-7.9.4-11.8,0-9.3-.8-18.6-3.4-27.3-8.1,0,0-.1,0-.2-.1-2.7-1.5-5.2-3.1-7.6-4.8-3.6-2.6-6.9-5.6-9.9-8.8-1.9-2.1-3.7-4.3-5.4-6.5-1.8-2.5-3.4-5.1-4.8-7.7-2.9-5.3-5-10.9-6.4-16.7-2.2-9.1-2.6-18.7-1-28,.7-4.3,1.9-8.6,3.4-12.8,0-.3.2-.5.3-.8,2.1-5.5,5-10.8,8.7-15.7,0,0,0,0,0-.1.9-1.2,1.9-2.4,2.9-3.6,5.7-6.7,11.9-11.6,18-15.1,5-2.9,9.9-5,14.5-6.4.3,0,.6-.2.9-.3,6.3-1.9,11.6-2.5,15.2-2.8,2.6-.2,4.3-.1,4.5-.1h0c1.1,0,4.4,0,8.9.6,3.6.5,8,1.3,12.9,2.9.1,0,.3,0,.4.1,8.6,2.9,16.2,7.3,22.7,12.8,0,0,0,0,.1.1,2.4,2,4.6,4.2,6.6,6.5,2.9,3.3,5.5,6.8,7.7,10.5,3.8,6.4,6.7,13.3,8.3,20.6.4,1.9.8,3.8,1,5.7.9,6.4.9,13,0,19.6Z" fill="#fff"/><path d="M309.9,416.4c.6.7,1.2,1.4,1.7,2.1-1.5.5-3.1.9-4.6,1.4-15.4,4.8-32.1,10.7-51.4,18.5-1.9-3.1-3.6-6.3-5.2-9.5-2.9-5.8-5.4-11.9-7.4-18-4.9-14.9-7.2-30.5-6.8-46.1,12.8-3.8,24.4-7.3,35.1-10.4,9-2.7,17.4-5.1,25.2-7.4-.9,3-1.6,6-2.1,9.1-1.7,10.5-1.3,21.5,1.5,32.2,1.3,4.8,3,9.5,5.2,14.1.5.9.9,1.9,1.4,2.8,2.1,4,4.5,7.7,7.2,11.2ZM502.7,338.2c-1.8-7.7-4.3-15.3-7.4-22.6-2.3-5.3-4.9-10.5-7.8-15.5-20.8,4.5-38.6,8.4-54.4,11.9-2,.5-4,.9-6,1.3.8.8,1.6,1.6,2.4,2.5.5.5,1,1,1.4,1.6,3.6,4.1,6.6,8.5,9.1,13,4.5,8,7.5,16.6,8.9,25.3,0,.2,0,.3,0,.5,1.3,8.3,1.3,16.8,0,25.1-.2,1.1-.4,2.2-.6,3.4-.3,1.2-.6,2.5-.9,3.7,1.5-.3,2.9-.6,4.4-1,5.1-1.1,10.5-2.3,16-3.6,11.8-2.7,24.4-5.6,38.3-9,0-1.7.1-3.5.1-5.2,0-10.6-1.1-21.1-3.5-31.4ZM59,341.6v59.6h83.7l4.4-32.1v-31.7l-75.3,3.6-12.8.6Z" fill="#cefdd9"/><path d="M448.9,355.7c-1.4-8.7-4.4-17.3-8.9-25.3-2.5-4.5-5.6-8.9-9.1-13-.5-.5-.9-1.1-1.4-1.6-.8-.9-1.6-1.7-2.4-2.5-1.2-1.2-2.4-2.3-3.6-3.4-9-8-18.5-12.7-27-15.5-4.7-1.6-9-2.5-12.7-3.1-7.2-1.2-11.9-.9-12.1-.9-1.4,0-5.1,0-10.2.7-2.9.4-6.3,1-10,2-1.3.3-2.6.7-3.9,1.1-2.1.7-4.2,1.4-6.4,2.4-4.6,2-8.9,4.3-13,7-7.1,4.7-13.2,10.5-18.3,17-.7.9-1.4,1.9-2.1,2.9-4.2,6-7.6,12.6-10,19.5-.5,1.4-.9,2.8-1.4,4.2-.9,3-1.6,6-2.1,9.1-1.7,10.5-1.3,21.5,1.5,32.2,1.3,4.8,3,9.5,5.2,14.1.5.9.9,1.9,1.4,2.8,2.1,4,4.5,7.7,7.2,11.2.6.7,1.2,1.4,1.7,2.1,4.9,5.9,10.6,11,16.8,15.1,1.4.9,2.9,1.8,4.4,2.7,9.7,5.5,20.4,9,31.5,10.1,4.9.5,9.9.5,14.8,0,6.5-.6,12.9-2,19.2-4.3,4.5-1.6,8.9-3.7,13.2-6.2,2.9-1.7,5.6-3.6,8.2-5.6.5-.4,1-.8,1.4-1.1,7.4-6,13.5-13.2,18.1-21.1,3.6-6.2,6.4-12.9,8.2-19.8.3-1.2.6-2.4.9-3.7.2-1.1.5-2.2.6-3.4,1.4-8.3,1.4-16.7,0-25.1,0-.2,0-.3,0-.5ZM440.5,378.6c0,.5-.2,1-.2,1.5-.6,3.5-1.4,6.9-2.6,10.3-.6,1.7-1.2,3.4-1.9,5.2-1.1,2.5-2.3,5-3.6,7.3-4.1,7.3-9.4,13.5-15.5,18.7-.4.4-.9.7-1.3,1.1-5.7,4.6-12.1,8.2-18.8,10.8-5.9,2.3-12.2,3.7-18.5,4.3-3.9.4-7.9.4-11.8,0-9.3-.8-18.6-3.4-27.3-8.1,0,0-.1,0-.2-.1-2.7-1.5-5.2-3.1-7.6-4.8-3.6-2.6-6.9-5.6-9.9-8.8-1.9-2.1-3.7-4.3-5.4-6.5-1.8-2.5-3.4-5.1-4.8-7.7-2.9-5.3-5-10.9-6.4-16.7-2.2-9.1-2.6-18.7-1-28,.7-4.3,1.9-8.6,3.4-12.8,0-.3.2-.5.3-.8,2.1-5.5,5-10.8,8.7-15.7,0,0,0,0,0-.1.9-1.2,1.9-2.4,2.9-3.6,5.7-6.7,11.9-11.6,18-15.1,5-2.9,9.9-5,14.5-6.4.3,0,.6-.2.9-.3,6.3-1.9,11.6-2.5,15.2-2.8,2.6-.2,4.3-.1,4.5-.1h0c1.1,0,4.4,0,8.9.6,3.6.5,8,1.3,12.9,2.9.1,0,.3,0,.4.1,8.6,2.9,16.2,7.3,22.7,12.8,0,0,0,0,.1.1,2.4,2,4.6,4.2,6.6,6.5,2.9,3.3,5.5,6.8,7.7,10.5,3.8,6.4,6.7,13.3,8.3,20.6.4,1.9.8,3.8,1,5.7.9,6.4.9,13,0,19.6ZM677.2,397.9c0,.6.4,4.4-4.8,4.9-5.2.5-11.2.6-29,0-10.9-.4-26.3-1-48.7-2-10.4-.5-22.3-1-36-1.6-1.8,0-1.9-.1-3.1-1.4,0,0-.5-1.3-.8-2.3-.2-.5-.3-.9-.3-.9,1.5-3.1,1.1-4.1,4.6-4.2,1,0,19.2.9,40.4,1.9,27.3,1.2,59.6,2.6,67.7,2.2,3-.1,5.3-.4,5.3-.4,1.1.3,2.3.3,3.2,1,1.4,1.1,1.4,1.2,1.6,3ZM676.1,357.5c1.2,1.3,1.2,1.4,1.2,3.2,0,.5-.2,3.8-4.6,4.2-1.7.2-6.8-.7-54-1.6-4.8,0-59.8-1.1-59.9-1.2-1-.5-2.3-.6-3.1-1.4,0,0-1.3-3.1-1.2-3.2,1.4-3.2,1-4.1,4.5-4.3.2,0,60.2,1.2,65.5,1.3,21.5.4,30.1.8,48.6,1.5.3,0,1.8,0,3.1,1.4ZM590.6,83.6C489.6-.7,380.9,0,360,0h-2.3C175.2.9,21.1,140,2,322.1c-20.9,199.1,123.8,374,317.8,395.6,187.7,20.9,355.5-105.8,392.6-284.1,26.8-128.7-18.3-263.4-121.8-349.9ZM52.8,189.9c7.7-14,16.5-27.5,26.2-40.4,12.8-17,27.2-33.1,43.3-47.9,3.9-3.6,7.8-7.1,11.9-10.5,20.6-17.3,41.5-31,61.9-41.7,14-7.4,27.7-13.4,40.9-18.3,41.5-15.5,77.9-20.1,100.8-21.5,10.4-.6,18-.6,22.1-.6,13.1,0,62.4-.3,122.2,21.9,2.8,1,5.6,2.1,8.5,3.3,30.4,12.2,63.1,30.2,95,57,10.3,8.7,20.2,18,29.5,27.8,4,4.3,8,8.7,11.8,13.1,31.8,37.2,56,81.2,70.1,129.4.7,2.3,1.3,4.6,2,7-9.3,0-18.6,0-28,0-65.6,0-131.2,0-196.7,0,0,0,0,0,0,0-.4-.5-.8-.9-1.3-1.4s0,0-.1-.1c-17.8-17.7-37.1-28-54-33.9-4-1.4-7.9-2.5-11.5-3.5-19.3-5-33.6-4.6-36-4.6-3.4,0-11.7,0-22.8,1.8-7.6,1.2-16.5,3.3-26.2,6.8,0,0,0,0,0,0-10.8,3.9-22.5,9.6-34.2,18-6.7,4.8-12.9,10.1-18.5,15.7-.4.4-.9.9-1.3,1.3-.6,0-1.3,0-1.9,0-20.5,0-41,0-61.5,0-61.2,0-122.5,0-183.7,0,7.4-27.3,18-53.6,31.8-78.5ZM487.5,300.1c3,5,5.6,10.2,7.8,15.5,3.1,7.3,5.6,14.9,7.4,22.6,2.4,10.3,3.5,20.8,3.5,31.4,0,1.7,0,3.5-.1,5.2-.2,4.7-.6,9.3-1.3,14-1.6,11-4.6,21.8-9.1,32.3-3,7-6.6,13.9-10.9,20.5-1,1.5-2,3.1-3,4.6-7.5,10.6-16.2,19.8-25.8,27.6-1.9,1.5-3.8,3-5.8,4.4,0,0-.2.1-.3.2-.7.5-1.3,1-2,1.4-1.4,1-2.8,1.9-4.3,2.8-10.4,6.6-21.7,11.8-33.3,15.3-7.7,2.3-15.5,4-23.4,4.9-11.2,1.3-22.6,1.3-33.8-.2-13.8-1.8-27.3-5.9-40.3-12.1-4.8-2.3-9.5-5-14.1-7.9-.9-.5-1.7-1.1-2.6-1.6-1.3-.9-2.6-1.8-3.9-2.8-.6-.4-1.2-.8-1.8-1.3-1.4-1-2.7-2.1-4-3.2-4.6-3.7-9-7.7-13-11.9-6.9-7.2-12.8-15.1-17.8-23.3-1.9-3.1-3.6-6.3-5.2-9.5-2.9-5.8-5.4-11.9-7.4-18-4.9-14.9-7.2-30.5-6.8-46.1.1-4.3.4-8.6,1-12.9.5-4.1,1.2-8.2,2.1-12.3,3.3-15.1,9.2-29.8,17.9-43.4,4.5-7,9.7-13.7,15.6-20,.2-.3.5-.5.7-.8.4-.4.7-.8,1-1.1.5-.5,1-1,1.6-1.5.3-.3.7-.6,1-1,1.2-1.2,2.5-2.3,3.7-3.5,14.9-13.5,30.7-21.8,44.8-26.8.6-.2,1.2-.4,1.7-.6,7.9-2.7,15.2-4.4,21.5-5.5,12.3-2.1,20.8-1.8,22.4-1.9h0c4.4,0,16.8,0,32.9,4.1,3.7.9,7.6,2.1,11.7,3.5,10.1,3.5,21.1,8.7,32.2,16.4,4.8,3.3,9.3,7,13.6,10.8,1.5,1.4,3.1,2.8,4.5,4.3,0,0,.1.1.2.2.6.5,1.1,1.1,1.7,1.6,0,0,.2.2.3.3,7.5,7.8,13.9,16.3,19.3,25.3ZM16.5,432.8c-6.7-31.6-8.9-63.6-6.9-95.2.2-3.4.5-6.8.8-10.2,1.6-17.1,4.5-34,8.5-50.6l199.8-1,43-.2c-4.5,5.3-8.5,10.8-12.1,16.6-9.2,14.6-15.5,30.5-19,47.1-.8,4-1.5,8.1-2,12.1-2.6,21-.5,42.6,6.4,63.1,2.1,6.2,4.6,12.2,7.6,18.2,3.4,6.9,7.4,13.5,12,20,4.2,5.8,8.7,11.1,13.5,16.1,1.6,1.7,3.3,3.4,5.1,5H27.7c-4.5-13.3-8.3-26.9-11.3-40.9ZM657.9,545.7c-3.3,5.2-6.7,10.4-10.2,15.4-25.5,36.3-57.6,67.7-94.8,92.2-1.3.8-2.6,1.7-3.9,2.5-28.4,18.2-59.7,32.5-93.1,41.9-13.1,3.7-26.6,6.7-40.3,8.9-5.4.9-10.9,1.6-16.4,2.2-29,3.2-57.4,2.8-85-.8-19.7-2.6-38.9-6.8-57.4-12.5-34.5-10.6-66.9-26.5-96.1-46.7-8-5.5-15.7-11.4-23.2-17.5-36.1-29.7-66.4-66.4-88.4-108.4-4.2-7.9-8-16-11.6-24.3-2.3-5.3-4.5-10.7-6.5-16.1,14.8,0,29.6,0,44.3,0,19.7,0,39.4,0,59.1,0,40.8,0,81.7,0,122.5,0,8.8,0,17.7,0,26.5,0,2.4,1.8,4.7,3.6,7.2,5.2,6.4,4.3,13.1,8.1,20,11.3,13,6,26.8,10.1,40.9,12,12.1,1.7,24.5,1.8,36.7.4,8.1-1,16.2-2.6,24.1-4.9,14-4.2,27.5-10.5,40.1-19.1.7-.5,1.4-1,2.1-1.5,1.4-1,2.8-2,4.2-3.1.1-.1.3-.2.4-.3,27.2,0,54.4,0,81.5,0,11.7,0,23.4,0,35.1,0,37.8,0,75.6,0,113.3,0-8.3,22.2-18.7,43.3-31.1,63.1ZM706.7,415.8c-.1.8-.2,1.5-.4,2.3-3.2,19.1-7.9,37.6-14.1,55.6h-222.7c8.8-8.2,16.3-17.2,22.5-26.9,4.2-6.5,7.8-13.3,10.9-20.2,5.2-11.8,8.7-24.1,10.6-36.7.9-6,1.4-12.1,1.6-18.2.3-12.2-1-24.4-3.8-36.3-1.8-7.5-4.2-14.9-7.2-22.1-5.8-13.8-13.8-26.9-24.1-38.8l172.1-.9,44.5-.2h3.9c4.1,16.1,7.1,32.7,8.9,49.6,3.3,31.8,2.3,62.9-2.5,92.9ZM554.7,328.2s-1.7-2.9-1.7-3c.3-1.1.2-2.4.9-3.2.7-.9,1.9-1.3,2.9-1.7.5-.2,8.9-1,9.7-1.1,20.3-2,31.4-1.1,98-1.1,1.8,0,1.9,0,3.1,1.3,1.3,1.3,1.3,1.3,1.3,3.1s0,3.8-4.4,4.4c-1.9.3-65.6-.6-83.6.1-12.8.6-22.9,2.1-23,2-1.1-.3-2.4-.2-3.2-.9ZM151.4,406.4c0-20.1,0-40.2,0-60.3,0-2.9,0-5.9,0-8.8-.1-.5-.1-1-.3-1.5,0-.2-.2-.4-.3-.7-.6-1-1.9-2.2-3.8-2.2-12.3,0-24.7,0-37.1,0-18.5,0-37,0-55.4,0-2.4,0-4.4,2-4.4,4.4s0,1.4,0,2.6c0,12.6,0,61.1,0,65.9,0,2.6,2.2,4.4,4.4,4.4,30.8,0,61.7,0,92.5,0,3,0,4.4-2.8,4.4-3.6ZM59,401.2v-59.6l12.8-.6,74.6-3.6.7,31.7-4.4,32.1H59Z" fill="#714e67"/></g></svg>