<?xml version="1.0" encoding="UTF-8"?><svg id="b" xmlns="http://www.w3.org/2000/svg" viewBox="0 0 533.3 720"><g id="c"><path d="M529.2,338.7c-5.9-6.3-154.8-104.1-215.1-324.7-1.7-2.9-1.2-3.1-2.8-5.9-.6-1-1.3-1.8-2.1-2.5-10.2-10.1-27.8-5.8-32.2,7.8-1.7,5.4-4.9,51-30.5,111.7-63.5,150.1-194.5,242.7-227.9,240.1-19-1.4-23.2,18.8-13.2,27.7,2,1.8,9.6,4.8,10.5,5.2,143.6,57.7,185,89.8,212.3,143.9,17.7,35.1,45.8,123.4,67.5,169.7,5.5,11.8,21.2,10.2,25.3-.4,4-10.2,36.9-205.6,93.1-282.1,32.8-44.7,73-48.2,110.3-66.1,10.4-5,11.4-17.6,4.9-24.5Z" fill="#714e67" fill-rule="evenodd"/><path d="M295.4,19.3c8.8,31.1,58.7,208,222.6,329.9-91.2,41.5-139.2,19.7-209.8,357.1-85-194.3-38-222.2-292.3-325.3,53.4,7.2,250.3-148.6,279.5-361.7Z" fill="#dcc4f1" fill-rule="evenodd"/><path d="M314.1,14c60.3,220.6,209.2,318.4,215.1,324.7,6.5,6.9,5.5,19.5-4.9,24.5-37.3,17.9-77.4,21.4-110.3,66.1-56.2,76.5-89.1,271.9-93.1,282.1-4.2,10.6-19.8,12.2-25.3.4-21.7-46.3-49.9-134.6-67.5-169.7-27.3-54.1-68.7-86.2-212.3-143.9-.9-.3-8.4-3.4-10.5-5.2-10-8.9-5.8-29.1,13.2-27.7,33.4,2.5,164.4-90.1,227.9-240.1,25.7-60.7,28.8-106.3,30.5-111.7,4.4-13.7,22-18,32.2-7.8.8.8,1.6,1.6,2.1,2.5,1.7,2.9,1.2,3.1,2.8,5.9ZM299.3,88.9c-46.3,149.2-162.5,258.9-235.6,295.3,141.9,62.3,174.4,98,207.6,187.4,13,34.9,18.6,53.7,32.8,89.3,39.7-175.9,72.1-256.4,134.9-293.1,15.8-9.3,28.6-13.8,48.8-22.2-27.7-22.2-73.5-63.1-117.9-126.8-33.4-48-56.1-94.3-70.8-129.8Z" fill="#714e67" fill-rule="evenodd"/></g></svg>