<?xml version="1.0" encoding="UTF-8"?><svg id="b" xmlns="http://www.w3.org/2000/svg" viewBox="0 0 494 720"><g id="c"><path d="M493.7,347.1c-1.6-6.7-5-6.4-31-28.7C312.3,189.5,287.6,70,283.9,54.2c-7.7-32.3-5.3-41.6-9.7-47.8-6.7-9.6-19.9-6.9-24.1-1.1-1,1.4-1.6,3-2.6,4.3-18.4,48.5-54.5,147.6-112.3,223.8-60.8,80.2-112,90.1-126,94.1-10.8,3.1-11.4,15.1-5.1,20.6,3.6,3.2,49.9,27.2,95.6,77.1,90.5,98.9,111.7,230,124,286.2,1.5,7,8.6,10.1,14.3,8,7-2.5,7.4-10.6,7.4-10.6,14-72.9,2.5-193.7,71.3-273.5,57-66.1,149.9-70.4,165.8-72.5,9.2-1.2,12.7-9.5,11.3-15.7Z" fill="#714e67" fill-rule="evenodd"/><path d="M481.2,350c-263.6,24.5-225.8,255.1-247,359.2-28.3-142.4-73.2-279.8-222.4-370.1C153.2,306.8,233.5,87,261.7,15.1c18.8,169.2,168,295.3,219.5,334.9Z" fill="#ffe0ef" fill-rule="evenodd"/><path d="M247.5,9.5c1-1.4,1.6-3,2.6-4.3,4.1-5.8,17.3-8.5,24.1,1.1,4.3,6.2,2,15.6,9.7,47.8,3.8,15.8,28.5,135.3,178.9,264.2,26,22.3,29.4,22,31,28.7,1.4,6.2-2.1,14.5-11.3,15.7-15.9,2.1-108.9,6.3-165.8,72.5-68.7,79.8-57.2,200.6-71.3,273.5,0,0-.5,8.1-7.4,10.6-5.7,2-12.7-1.1-14.3-8-12.3-56.2-33.5-187.3-124-286.2C53.9,375.2,7.7,351.2,4,348.1c-6.3-5.5-5.7-17.5,5.1-20.6,14.1-4,65.3-13.9,126-94.1C193,157.1,229.1,58,247.5,9.5ZM256.6,68.1c-22.1,52.4-55.4,123.3-100.6,181.2-46.3,59.2-88.2,83.1-116.2,93.7,34.8,23.9,88.7,67.6,131.7,144.4,29.7,53,47.6,109.6,59.5,157.2,5.9-69.8,11.3-151.7,61.3-217.1,45.6-59.6,114.5-79,157.4-86.3-59-48.8-158.3-144.7-193.1-273.1Z" fill="#714e67" fill-rule="evenodd"/></g></svg>