<?xml version="1.0" encoding="UTF-8"?><svg id="b" xmlns="http://www.w3.org/2000/svg" viewBox="0 0 514.2 720"><g id="c"><path d="M478.6,121.2c-1.4-4.4-2.7-8.2-3.9-11.3-.7-16.5-24.3-33.3-45.1-44.9-30.6-17.1-73-33.2-119.3-45.5C235.4-.3,153.1-8.2,127.7,11.1c-.1,0-.3,0-.4,0-1.2.2-3,.5-12.8,11-37.4,3.6-59.6,14.5-64.7,32-12.2,21.3-25.1,62.2-25.2,62.7-4.3,16.3,5.6,33,25.1,49.3-2.2,20.5-5.5,47.7-10.5,84.6-1-.4-1.7-.6-1.9-.7-1.8-.6-3.7-.1-5.1,1.2-5.2,5-8.2,26.5-16.2,92-2.1,17.4-4.5,37.1-7.2,57C-3.5,493.4.1,527,1.8,543.2c.1,1.3.3,2.5.4,3.6.5,5,2.3,9.4,5.1,13.3-1.4,23-2.3,39.9-2.7,47.7v1.1c-1.8,34.8,7.5,39.3,32.4,51.5,3.5,1.7,7.3,3.6,11.6,5.8,17.7,9.1,114.3,42.2,185.1,50.1,3,.3,6,.7,9.1,1.1,10.4,1.3,21.3,2.6,31.4,2.6,15.5,0,29.2-3.1,36.3-14.4,9.3-14.9,13.4-24.6,28.6-64.8.8-.5,1.5-1.1,2.1-1.7,1.8-2,3.6-3.2,5.5-4.7,10.2-7.5,20.8-15.3,50.9-101.1,13.3-37.7,24-67.6,32.6-91.7,18.5-51.6,26.2-73,27.2-82.7.2-2.3-1-4.4-3.2-5.3-2-.8-4.1-1.5-6.3-2.1,8.7-24.1,15.7-43.9,21.8-61.2,2.7-7.7,5.2-14.8,7.6-21.5,14.9-5.1,24-13,26.8-23.5,1.6-6.1,4.9-23.4,7-38.7,2-14.6,2.5-23,2.1-28,0-.3.2-.6.3-.8,4.4-16.8-7.5-36.1-34.7-56.5Z" fill="#714e67"/><path d="M289.9,648.8c13.1,0,26.3-.9,36.3-3.2-12.3,32.4-16.4,41.5-24.5,54.6-8.2,13.2-34.5,10-57.8,7.1-3.1-.4-6.2-.8-9.2-1.1-69.6-7.7-164.2-40.1-181.5-49-4.3-2.2-8.2-4.1-11.7-5.8-23.9-11.7-28.2-13.8-26.8-41.9v-1.1c.4-6.7,1.1-20.3,2.2-38.8,10.8,8,26.6,14.1,43.6,20.8,4.1,1.6,8.2,3.2,12.4,4.9,17.4,7,109.7,38.7,178.2,50.7,9.8,1.7,24.2,2.8,38.8,2.8ZM421,276c-2.9,0-5.8,0-8.9-.1-47.9-1.2-109.9-11.2-174.6-28.4-70.1-18.6-138.5-45.2-178.4-74-2.2,20.2-5.5,46.4-10.2,80.9,17.2,6.4,50,18.8,73.7,28.2,89.3,35.2,114.4,39.6,141.1,44.4,6.9,1.2,14.1,2.5,22.5,4.4,39.1,8.7,75.1,11.1,104,13,18.7,1.3,34.8,2.3,47.8,4.8,8.9-24.6,16-44.7,22.2-62.3,1.8-5.1,3.6-10.1,5.2-14.8-12.1,2.6-26.9,3.9-44.3,3.9Z" fill="#c8ece5"/><path d="M444.4,361c-1.6-.4-3.2-.8-5-1.2-1.6-.4-3.3-.7-5-1-12.1-2.1-27.3-3.1-44.9-4.3-29.2-2-65.6-4.4-105.5-13.2-8.1-1.8-15.2-3.1-22-4.3-27.1-4.8-52.8-9.4-143-44.9-22.3-8.8-53.7-20.7-71.4-27.3-1.8-.7-3.4-1.3-4.9-1.8-1.7-.6-3.1-1.2-4.3-1.6-.4,1.4-.9,3.3-1.4,5.5-3,14.3-6.7,43.8-10.3,73.3-.2,1.4-.4,2.9-.5,4.3-.3,2.5-.6,5.1-.9,7.7-1.9,15.4-4,32.3-6.2,49.4-7.6,57.7-9.1,92.1-8.7,113.7.2,12.8,1.1,21,1.7,26.9.1,1.4.3,2.6.4,3.7.1,1.2.4,2.3.7,3.4.9,2.7,2.5,5.1,4.6,7.5,8.6,9.3,26.6,16.3,46.6,24.1,4.1,1.6,8.3,3.2,12.5,4.9,17.2,6.9,108.4,38.3,176.2,50.1,25.7,4.5,65.6,3.2,77.7-2,1.3-.6,2.3-1.2,2.9-1.8,1.7-1.8,3.3-3.2,4.9-4.4.7-.5,1.4-1.1,2.1-1.6,1.8-1.3,3.6-2.7,5.8-4.9,7.7-7.9,18.8-26.6,41.6-91.4,13.3-37.7,24-67.7,32.6-91.8,15-41.9,23.5-65.5,26-76.4-.7-.2-1.4-.4-2.1-.6ZM294.5,495.1c-27,29.8-88.1,49.8-113.2,57-.4.1-.8.2-1.2.2-1,0-2-.3-2.8-1-20-16.7-67.9-59.6-80.7-97.8-16.6-44.8-7.7-85.1,22.1-100,16-8,37.5-8.4,56.1-1.1,17.3,6.8,30.8,19.6,38.7,36.5,14-12.2,31.5-18.5,50.1-17.8,20,.8,39.5,9.8,51,23.6,21.3,25.7,13.2,66.1-20.1,100.6Z" fill="#f8fcb9"/><path d="M288.2,489.2c-24.9,27.4-81.5,46.4-107,53.9-20.4-17.1-64.5-57.3-76.3-92.5-15-40.6-7.9-76.5,17.8-89.4,7.2-3.6,15.7-5.4,24.6-5.4s16.6,1.5,24.5,4.7c17,6.7,29.8,20,36.3,37.4.5,1.4,1.7,2.4,3.2,2.7,1.5.3,3-.2,4-1.2,12.9-13.4,30.1-20.3,48.2-19.6,17.6.7,34.7,8.5,44.6,20.4,18.3,22.1,10.4,57.9-19.8,89.1Z" fill="#fe6d68"/><path d="M504.5,191.8c-1.6,16.8-6.1,42.7-8.4,51.4-1.7,6.3-6.9,11.5-15.3,15.5-1.9.9-4,1.7-6.3,2.5-1.9.6-3.9,1.3-6,1.8-14,3.6-32.9,5.3-56.2,4.7-47.3-1.1-108.6-11.1-172.7-28.1-80.6-21.4-144.8-49.1-179.5-75.5-1.6-1.3-3.2-2.5-4.7-3.8-1.6-1.4-3.2-2.7-4.7-4.1-14.6-13.3-21.3-26-18.3-37.3,2-7.6,10-30.2,17.8-47.6,2.8,8.9,9.5,18.4,20,28.2,3,2.8,6.3,5.6,9.8,8.5,4.1,3.3,8.6,6.6,13.5,9.9,3.8,2.6,7.8,5.2,12.1,7.8,39.9,24.3,95.5,46.6,156.6,62.8,31.5,8.3,62.5,14.5,91.6,18.4,9.5,1.3,18.7,2.3,27.8,3,8.9.7,17.5,1.2,25.8,1.5,3.9.1,7.8.2,11.6.2s7,0,10.4-.2c36.7-1.1,62.2-7.8,75.1-19.7ZM98.2,108.8c4,2.7,8.2,5.5,12.8,8.2,2.7,1.6,5.5,3.3,8.4,4.9,20.9,11.9,45.5,23.3,72.7,33.5,22.8,8.6,47.3,16.5,72.9,23.2,31.4,8.3,62.2,14.4,91,18.2,26.5,3.5,51.3,5,73.2,4.4,40.9-1.2,67.4-9.9,73.5-23.9.3-.8.6-1.6.8-2.4.1-.5.2-1,.3-1.5.2-1.4.3-2.8.2-4.3-.7-9.1-7.9-19.8-20.9-31.3,1.7,7,3.7,16.7,4.1,24.3,0,1.6.1,3.1,0,4.5,0,1.4-.2,2.7-.5,3.8,0,.1,0,.3-.1.4-3.8,12.8-23.2,19.3-58,19.3-4.1,0-8.5,0-13-.3-39.8-1.6-91-10.2-144-24.3-53-14-101.7-31.9-137.1-50.2-38.5-19.9-56.1-37.5-52.2-52.1,1-3.6,5.9-10.8,14.8-21.5,1.1-1.3,2.3-2.7,3.5-4.2,1-1.2,2-2.3,3.1-3.6.1-.2.3-.3.4-.5-9.3,1.4-17.3,3.4-23.9,5.9-6.7,2.5-12,5.6-15.6,9.2-2.7,2.6-4.4,5.5-5.3,8.6-3.6,13.5,10.4,31.9,38.8,51.4ZM139.1,106.5c34.8,18,82.7,35.5,135.1,49.4,119.2,31.6,198.4,28.3,202.7,12,.1-.4.2-.9.2-1.4.1-1.2.1-2.7,0-4.5-.1-1.4-.3-3-.5-4.8-1.2-8.6-4-20.1-6.8-30-.3-1.2-.7-2.4-1-3.5-.6.5-1.2,1-1.8,1.5-7,5.4-18.3,8.6-32.6,10.2-2.4.3-4.9.5-7.5.6-2.6.2-5.3.3-8.1.3-1.8,0-3.7,0-5.5,0-36.4,0-83.9-7.6-128.8-19.5-46.3-12.3-88.7-28.4-119.3-45.5-13.7-7.7-28.7-17.5-37.4-28.1-1.2-1.5-2.3-3-3.3-4.5-.9-1.4-1.7-2.9-2.4-4.3-.4-.9-.7-1.8-1-2.7-.1-.4-.2-.8-.4-1.3-.4.5-.8.9-1.3,1.4-.6.7-1.3,1.4-2,2.2-1.1,1.3-2.3,2.6-3.5,3.9-1.1,1.3-2.3,2.6-3.4,4-8.8,10.3-17.4,20.9-18.3,24-1.7,6.5,9.5,21.1,47,40.5ZM130.1,26.5c0,0,0-.2,0-.2,0-.8,0-1.6.2-2.2.3-1,.8-1.9,1.6-2.9,0,0,0,0,0,0,.9-1.1,2.2-2.2,3.9-3.2,7.2-4.3,21.5-7.7,45.6-7.7s1.6,0,2.4,0c34.3.3,78.2,7.1,123.7,19.2,45.5,12.1,87.1,27.9,117,44.6,12.7,7.1,21.8,13.5,28.1,19.1,3.6,3.2,6.2,6.1,8.1,8.7,2.8,3.9,3.9,7.2,3.7,9.7,0,0,0,.2,0,.3,0,.3,0,.6-.2.8-.3,1.2-1,2.3-2.1,3.5-1.1,1.1-2.5,2.2-4.4,3.2-7,3.9-20,6.9-40.8,7.2-2,0-4.1,0-6.3,0-.8,0-1.7,0-2.6,0-3.1,0-6.3-.2-9.5-.3-32.2-1.6-71.3-8.1-111.6-18.8-45.5-12.1-87.1-27.9-117-44.6-11.1-6.2-19.5-11.9-25.7-17-2.1-1.7-3.9-3.4-5.5-5-1.7-1.7-3.1-3.2-4.2-4.7-1.3-1.6-2.3-3.2-3-4.6-.9-1.8-1.4-3.4-1.5-4.8ZM182.6,22.7c-2.9,1-5.3,2.4-7,4.5-.9,1.2-1.6,2.5-2,4.1,0,.3-.1.6-.2.8-.4,2-.2,4.1.4,6.1.5,1.6,1.3,3.3,2.5,4.9.4.5.8,1.1,1.2,1.6,1,1.2,2,2.4,3.3,3.5,1.5,1.4,3.1,2.8,4.9,4.2.7.6,1.5,1.1,2.3,1.6,24.5,17.1,74.1,32.2,108.1,41.2,31.4,8.3,56.1,13.9,75,17,4.8.8,9.2,1.4,13.2,1.9,1.2.1,2.4.3,3.5.4,2.4.2,4.9.4,7.5.6,1.7,0,3.4.1,5.1.1,11.9,0,23.5-2.4,26.1-12.2.1-.6.3-1.1.3-1.7.2-1.5.2-3-.1-4.5,0-.5-.2-1-.4-1.4-.4-1.4-1.1-2.8-2-4.1-.9-1.4-2.1-2.8-3.6-4.2-.6-.6-1.3-1.2-2-1.8-14.1-11.9-47.5-24.1-106.7-39.8-42.5-11.3-73.4-19-95.4-22.5-12.6-2-25.6-3.4-34.1-.5ZM190,43.1c1.7,1.4,3.9,3,6.5,4.6,2.1,1.3,4.4,2.7,7.1,4.1,2,1.1,4.1,2.2,6.4,3.3,4.5,2.2,9.8,4.6,15.8,7,2.6,1.1,5.4,2.1,8.3,3.2,8.6,3.3,18.6,6.7,30.1,10.3,0-.8.2-1.6.3-2.3.2-.8.4-1.7.8-2.5.2-.5.4-.9.6-1.3.6-1.2,1.3-2.3,2-3.3,0-.1.2-.2.3-.3.2-.2.4-.5.6-.7,1-1.1,2.2-2.2,3.5-3.2,7.7-5.6,22.1-8.3,48.7,2.9,2,.8,3.7,1.5,5.2,2.1,6.8,2.6,10.7,5.3,12.6,9,.8,1.6,1.3,3.3,1.5,5.3.2,1.5.2,3.2.1,5.1,0,1-.1,2.1-.3,3.2-.1,1.3-.3,2.7-.5,4.2,0,.1,0,.2,0,.3,0,.5-.2,1-.3,1.4,3.2.7,6.4,1.4,9.4,2.1,6.4,1.4,12.3,2.6,17.8,3.6,8.5,1.5,15.9,2.6,22.2,3.2,24.3,2.4,27.5-2.4,27.9-4,.2-.9.2-2.6-1.9-5-.2-.2-.3-.4-.5-.6-1.6-1.7-4.2-3.8-8.2-6.2-2.7-1.6-6.1-3.4-10.3-5.4-.9-.4-1.9-.9-2.9-1.3-17.6-7.7-44.9-16.5-83.4-26.6-42.2-11.2-72.8-18.8-94.5-22.3-9.4-1.5-16-2-20.6-2s-9.1,1-10.2,1.9c-.6.4-.7.8-.7.9-.4,1.6,1.1,4.8,6.5,9.2ZM317.5,83c-1.1-.4-2.2-.9-3.4-1.4-14.3-6-22.4-6.7-26.5-6.3-.5,0-1,.1-1.4.2-.2,0-.4.1-.7.2-1.5.4-2.5.9-2.9,1.3,0,.4,0,.8-.1,1.1-.1,1-.4,1.9-.8,2.7,5.4,1.6,11.1,3.1,17.2,4.7,8.2,2.2,15.9,4.1,23.2,5.9,0-.1,0-.2,0-.3.2-1.1.4-2.7.5-4.2,0-.7.1-1.4.2-2-.8-.4-1.9-.8-2.9-1.1-.7-.3-1.5-.6-2.3-.9Z" fill="#ffb1be"/><path d="M263.7,371c-18.6-.7-36.1,5.6-50.1,17.8-7.9-16.8-21.4-29.6-38.7-36.5-18.6-7.4-40.1-6.9-56.1,1.1-29.8,15-38.7,55.2-22.1,100,12.8,38.2,60.7,81.1,80.7,97.8.8.7,1.8,1,2.8,1s.8,0,1.2-.2c25-7.2,86.1-27.2,113.2-57,33.3-34.5,41.4-74.9,20.1-100.6-11.4-13.8-30.9-22.8-51-23.6ZM181.1,543.1c-20.4-17.1-64.5-57.3-76.3-92.5-15-40.6-7.9-76.5,17.8-89.4,7.2-3.6,15.7-5.4,24.6-5.4s16.6,1.5,24.5,4.7c17,6.7,29.8,20,36.3,37.4.5,1.4,1.7,2.4,3.2,2.7,1.5.3,3-.2,4-1.2,12.9-13.4,30.1-20.3,48.2-19.6,17.6.7,34.7,8.5,44.6,20.4,18.3,22.1,10.4,57.9-19.8,89.1-24.9,27.4-81.5,46.4-107,53.9ZM478.6,121.2c-1.4-4.4-2.7-8.2-3.9-11.3-.7-16.5-24.3-33.3-45.1-44.9-30.6-17.1-73-33.2-119.3-45.5C235.4-.3,153.1-8.2,127.7,11.1c-.1,0-.3,0-.4,0-1.2.2-3,.5-12.8,11-37.4,3.6-59.6,14.5-64.7,32-12.2,21.3-25.1,62.2-25.2,62.7-4.3,16.3,5.6,33,25.1,49.3-2.2,20.5-5.5,47.7-10.5,84.6-1-.4-1.7-.6-1.9-.7-1.8-.6-3.7-.1-5.1,1.2-5.2,5-8.2,26.5-16.2,92-2.1,17.4-4.5,37.1-7.2,57C-3.5,493.4.1,527,1.8,543.2c.1,1.3.3,2.5.4,3.6.5,5,2.3,9.4,5.1,13.3-1.4,23-2.3,39.9-2.7,47.7v1.1c-1.8,34.8,7.5,39.3,32.4,51.5,3.5,1.7,7.3,3.6,11.6,5.8,17.7,9.1,114.3,42.2,185.1,50.1,3,.3,6,.7,9.1,1.1,10.4,1.3,21.3,2.6,31.4,2.6,15.5,0,29.2-3.1,36.3-14.4,9.3-14.9,13.4-24.6,28.6-64.8.8-.5,1.5-1.1,2.1-1.7,1.8-2,3.6-3.2,5.5-4.7,10.2-7.5,20.8-15.3,50.9-101.1,13.3-37.7,24-67.6,32.6-91.7,18.5-51.6,26.2-73,27.2-82.7.2-2.3-1-4.4-3.2-5.3-2-.8-4.1-1.5-6.3-2.1,8.7-24.1,15.7-43.9,21.8-61.2,2.7-7.7,5.2-14.8,7.6-21.5,14.9-5.1,24-13,26.8-23.5,1.6-6.1,4.9-23.4,7-38.7,2-14.6,2.5-23,2.1-28,0-.3.2-.6.3-.8,4.4-16.8-7.5-36.1-34.7-56.5ZM480.8,258.7c-1.9.9-4,1.7-6.3,2.5-1.9.6-3.9,1.3-6,1.8-14,3.6-32.9,5.3-56.2,4.7-47.3-1.1-108.6-11.1-172.7-28.1-80.6-21.4-144.8-49.1-179.5-75.5-1.6-1.3-3.2-2.5-4.7-3.8-1.6-1.4-3.2-2.7-4.7-4.1-14.6-13.3-21.3-26-18.3-37.3,2-7.6,10-30.2,17.8-47.6,2.8,8.9,9.5,18.4,20,28.2,3,2.8,6.3,5.6,9.8,8.5,4.1,3.3,8.6,6.6,13.5,9.9,3.8,2.6,7.8,5.2,12.1,7.8,39.9,24.3,95.5,46.6,156.6,62.8,31.5,8.3,62.5,14.5,91.6,18.4,9.5,1.3,18.7,2.3,27.8,3,8.9.7,17.5,1.2,25.8,1.5,3.9.1,7.8.2,11.6.2s7,0,10.4-.2c36.7-1.1,62.2-7.8,75.1-19.7-1.6,16.8-6.1,42.7-8.4,51.4-1.7,6.3-6.9,11.5-15.3,15.5ZM460,286.8c-6.2,17.6-13.3,37.7-22.2,62.3-13-2.4-29-3.5-47.8-4.8-28.9-1.9-64.9-4.3-104-13-8.4-1.8-15.5-3.1-22.5-4.4-26.6-4.7-51.8-9.2-141.1-44.4-23.7-9.3-56.4-21.7-73.7-28.2,4.8-34.5,8-60.7,10.2-80.9,39.9,28.8,108.3,55.4,178.4,74,64.7,17.1,126.6,27.2,174.6,28.4,3,0,6,.1,8.9.1,17.4,0,32.2-1.3,44.3-3.9-1.7,4.7-3.4,9.7-5.2,14.8ZM420.5,438.1c-8.6,24.1-19.4,54-32.6,91.8-22.8,64.8-33.9,83.5-41.6,91.4-2.1,2.2-4,3.6-5.8,4.9-.7.5-1.4,1-2.1,1.6-1.6,1.2-3.2,2.6-4.9,4.4-.6.6-1.6,1.3-2.9,1.8-12.1,5.2-52,6.5-77.7,2-67.7-11.9-159-43.2-176.2-50.1-4.2-1.7-8.4-3.3-12.5-4.9-20-7.8-37.9-14.9-46.6-24.1-2.2-2.3-3.8-4.8-4.6-7.5-.4-1.1-.6-2.2-.7-3.4-.1-1.1-.2-2.4-.4-3.7-.6-5.9-1.5-14.1-1.7-26.9-.4-21.5,1.1-55.9,8.7-113.7,2.2-17,4.3-33.9,6.2-49.4.3-2.6.6-5.2.9-7.7.2-1.4.4-2.9.5-4.3,3.6-29.5,7.3-59,10.3-73.3.5-2.2.9-4.1,1.4-5.5,1.2.4,2.7,1,4.3,1.6,1.5.5,3.1,1.2,4.9,1.8,17.6,6.6,49,18.5,71.4,27.3,90.2,35.5,115.9,40.1,143,44.9,6.8,1.2,13.9,2.5,22,4.3,39.9,8.8,76.3,11.3,105.5,13.2,17.7,1.2,32.8,2.2,44.9,4.3,1.7.3,3.4.6,5,1,1.7.4,3.4.8,5,1.2.7.2,1.4.4,2.1.6-2.5,10.9-11,34.5-26,76.4ZM243.9,707.3c-3.1-.4-6.2-.8-9.2-1.1-69.6-7.7-164.2-40.1-181.5-49-4.3-2.2-8.2-4.1-11.7-5.8-23.9-11.7-28.2-13.8-26.8-41.9v-1.1c.4-6.7,1.1-20.3,2.2-38.8,10.8,8,26.6,14.1,43.6,20.8,4.1,1.6,8.2,3.2,12.4,4.9,17.4,7,109.7,38.7,178.2,50.7,9.8,1.7,24.2,2.8,38.8,2.8s26.3-.9,36.3-3.2c-12.3,32.4-16.4,41.5-24.5,54.6-8.2,13.2-34.5,10-57.8,7.1ZM181.4,10.1c.8,0,1.6,0,2.4,0,34.3.3,78.2,7.1,123.7,19.2,45.5,12.1,87.1,27.9,117,44.6,12.7,7.1,21.8,13.5,28.1,19.1,3.6,3.2,6.2,6.1,8.1,8.7,2.8,3.9,3.9,7.2,3.7,9.7,0,0,0,.2,0,.3,0,.3,0,.6-.2.8-.3,1.2-1,2.3-2.1,3.5-1.1,1.1-2.5,2.2-4.4,3.2-7,3.9-20,6.9-40.8,7.2-2,0-4.1,0-6.3,0-.8,0-1.7,0-2.6,0-3.1,0-6.3-.2-9.5-.3-32.2-1.6-71.3-8.1-111.6-18.8-45.5-12.1-87.1-27.9-117-44.6-11.1-6.2-19.5-11.9-25.7-17-2.1-1.7-3.9-3.4-5.5-5-1.7-1.7-3.1-3.2-4.2-4.7-1.3-1.6-2.3-3.2-3-4.6-.9-1.8-1.4-3.4-1.5-4.8,0,0,0-.2,0-.2,0-.8,0-1.6.2-2.2.3-1,.8-1.9,1.6-2.9,0,0,0,0,0,0,.9-1.1,2.2-2.2,3.9-3.2,7.2-4.3,21.5-7.7,45.6-7.7ZM119.2,32c.4-.5.9-.9,1.3-1.4.1.4.2.8.4,1.3.3.9.6,1.8,1,2.7.7,1.5,1.4,2.9,2.4,4.3,1,1.5,2.1,3,3.3,4.5,8.8,10.6,23.7,20.5,37.4,28.1,30.6,17.1,73,33.2,119.3,45.5,44.9,11.9,92.4,19.5,128.8,19.5s3.7,0,5.5,0c2.8,0,5.5-.2,8.1-.3,2.6-.2,5.1-.4,7.5-.6,14.3-1.5,25.6-4.8,32.6-10.2.6-.5,1.2-1,1.8-1.5.3,1.1.7,2.3,1,3.5,2.8,9.8,5.6,21.4,6.8,30,.2,1.7.4,3.3.5,4.8.1,1.8.1,3.3,0,4.5,0,.5-.1,1-.2,1.4-4.3,16.3-83.5,19.5-202.7-12-52.3-13.9-100.3-31.4-135.1-49.4-37.5-19.4-48.8-33.9-47-40.5.9-3.1,9.4-13.8,18.3-24,1.1-1.3,2.3-2.7,3.4-4,1.2-1.3,2.3-2.6,3.5-3.9.7-.7,1.3-1.5,2-2.2ZM104.1,33.7c-.1.2-.3.3-.4.5-1.1,1.2-2.1,2.4-3.1,3.6-1.2,1.4-2.4,2.8-3.5,4.2-8.9,10.6-13.9,17.9-14.8,21.5-3.9,14.7,13.7,32.2,52.2,52.1,35.4,18.3,84.1,36.2,137.1,50.2,53,14,104.2,22.7,144,24.3,4.6.2,8.9.3,13,.3,34.7,0,54.2-6.5,58-19.3,0-.1.1-.3.1-.4.3-1.1.4-2.3.5-3.8,0-1.4,0-2.9,0-4.5-.4-7.6-2.4-17.3-4.1-24.3,13,11.5,20.2,22.2,20.9,31.3.1,1.5,0,2.9-.2,4.3,0,.5-.2,1-.3,1.5-.2.8-.5,1.6-.8,2.4-6.1,14-32.6,22.7-73.5,23.9-21.9.6-46.7-.9-73.2-4.4-28.8-3.8-59.7-9.9-91-18.2-25.5-6.8-50.1-14.6-72.9-23.2-27.2-10.3-51.8-21.6-72.7-33.5-2.9-1.6-5.6-3.3-8.4-4.9-4.5-2.8-8.8-5.5-12.8-8.2-28.4-19.5-42.4-37.8-38.8-51.4.8-3.1,2.6-6,5.3-8.6,3.6-3.6,8.8-6.6,15.6-9.2,6.6-2.5,14.6-4.5,23.9-5.9ZM176.4,43.2c.4.5.8,1.1,1.2,1.6,1,1.2,2,2.4,3.3,3.5,1.5,1.4,3.1,2.8,4.9,4.2.7.6,1.5,1.1,2.3,1.6,24.5,17.1,74.1,32.2,108.1,41.2,31.4,8.3,56.1,13.9,75,17,4.8.8,9.2,1.4,13.2,1.9,1.2.1,2.4.3,3.5.4,2.4.2,4.9.4,7.5.6,1.7,0,3.4.1,5.1.1,11.9,0,23.5-2.4,26.1-12.2.1-.6.3-1.1.3-1.7.2-1.5.2-3-.1-4.5,0-.5-.2-1-.4-1.4-.4-1.4-1.1-2.8-2-4.1-.9-1.4-2.1-2.8-3.6-4.2-.6-.6-1.3-1.2-2-1.8-14.1-11.9-47.5-24.1-106.7-39.8-42.5-11.3-73.4-19-95.4-22.5-12.6-2-25.6-3.4-34.1-.5-2.9,1-5.3,2.4-7,4.5-.9,1.2-1.6,2.5-2,4.1,0,.3-.1.6-.2.8-.4,2-.2,4.1.4,6.1.5,1.6,1.3,3.3,2.5,4.9ZM194.5,31.2c4.6,0,11.2.5,20.6,2,21.7,3.5,52.2,11.1,94.5,22.3,38.4,10.2,65.8,18.9,83.4,26.6,1,.4,2,.9,2.9,1.3,4.2,1.9,7.6,3.7,10.3,5.4,4.1,2.4,6.6,4.5,8.2,6.2.2.2.4.4.5.6,2,2.4,2.1,4.1,1.9,5-.4,1.5-3.6,6.3-27.9,4-6.3-.6-13.7-1.7-22.2-3.2-5.5-1-11.4-2.2-17.8-3.6-3-.7-6.2-1.3-9.4-2.1.1-.5.3-.9.3-1.4,0-.1,0-.2,0-.3.2-1.5.4-2.9.5-4.2.1-1.1.2-2.2.3-3.2,0-1.9,0-3.6-.1-5.1-.2-2-.7-3.8-1.5-5.3-2-3.8-5.8-6.4-12.6-9-1.5-.6-3.2-1.2-5.2-2.1-26.6-11.2-41-8.5-48.7-2.9-1.4,1-2.5,2.1-3.5,3.2-.2.2-.4.5-.6.7,0,.1-.2.2-.3.3-.8,1-1.5,2.1-2,3.3-.2.4-.4.9-.6,1.3-.3.8-.6,1.7-.8,2.5-.2.8-.3,1.6-.3,2.3-11.5-3.6-21.5-7-30.1-10.3-2.9-1.1-5.7-2.2-8.3-3.2-6.1-2.5-11.3-4.8-15.8-7-2.3-1.1-4.4-2.2-6.4-3.3-2.7-1.4-5-2.8-7.1-4.1-2.6-1.7-4.8-3.2-6.5-4.6-5.4-4.4-7-7.5-6.5-9.2,0-.1.2-.5.7-.9,1.1-.8,3.7-1.9,10.2-1.9ZM298.7,85.6c-6-1.6-11.7-3.2-17.2-4.7.4-.9.7-1.8.8-2.7,0-.4.1-.7.1-1.1.5-.4,1.4-1,2.9-1.3.2,0,.4-.1.7-.2.4,0,.9-.1,1.4-.2,4.1-.4,12.3.3,26.5,6.3,1.2.5,2.4,1,3.4,1.4.8.3,1.6.6,2.3.9.9.4,2,.8,2.9,1.1,0,.6,0,1.3-.2,2-.2,1.5-.4,3.1-.5,4.2,0,.1,0,.2,0,.3-7.3-1.8-15-3.8-23.2-5.9Z" fill="#714e67"/></g></svg>