<?xml version="1.0" encoding="UTF-8"?><svg id="b" xmlns="http://www.w3.org/2000/svg" viewBox="0 0 364.5 720"><g id="c"><path d="M364.3,146.5c-1.2-34.4-4.3-83.7-33.4-109.1C302,12.1,215.8-5.4,179.2,1.5c-31.1,5.9-48.8,42.9-62.6,73.5-27.1,59.9-74.6,187.5-77.7,234.7-1.3,20.6,12.7,39,30.5,53-16.7,7.1-31.2,18-39.7,32.1C10.7,426.1-.3,530.8,0,588.4c.4,28.3,2.4,69.3,28.3,92.1,25.5,22.4,101.5,42.1,135.3,39.3,17.4-1.5,32.3-12,47.9-36.8,18.6-29.5,80.7-154.5,85.7-206.8,2-20.7-7.7-41.3-21.4-58.1,24.9-3.9,47.7-14.8,58.9-32,1.4-2.2,5.8-8.2,11.3-31.3,12.4-52,19.7-150.3,18.3-208.2Z" fill="#714e67"/><path d="M247.2,419.5c-30.4-1.8-79.4-13.2-117.5-26.4-.3,0-.6.1-.6.1-.5-.3-1-.6-1.3-.8-14.6-5.1-27.5-10.5-36.9-15.6-5.5-3-11.1-6.5-16.5-10.3-18.5,7.2-35.3,19.4-43.1,36.8-17,37.7-26,134-25.9,182.8v2.2s0,0,0,0c.4,25.4,1.8,69.6,29.3,90.4,29.6,22.3,109,41,134.8,34.6,23.2-5.8,38.1-32.9,51.9-59.1,25.2-47.7,67.9-140.5,70.6-180.3,1.3-18.4-8.1-38.3-22.5-55-7.4.8-15,1-22.4.6ZM153.6,429.2c.3,0,.6.2.9.2.2,0,15.3,3.7,24.5,14.2,12.4,14.3,3.2,30.2-21.2,29.6-21.1-.5-43.7-14.4-43.5-29.3.2-13.4,18.4-20.1,39.3-14.8ZM120.6,597.1c-20.2-1.6-38.7-15.7-33.3-27.6,1.4-3,4.3-5.6,9-7.1,10.5-3.5,22.9.3,23.1.3.1,0,12.7,3.1,20.3,11.4,10.8,11.9,2,24.7-19,23ZM111.5,636.2c-20.1-2.7-37.9-17.7-32-29.3,4-7.8,17.6-9.8,31.6-5.4.2,0,.5.1.7.2.1,0,12.6,3.7,19.8,12.5,10.2,12.4.8,24.8-20.1,22ZM132,555.2c-20.2-1.6-38.7-15.7-33.3-27.6,1.4-3,4.3-5.6,9-7.1,10.5-3.5,22.9.3,23.1.3.1,0,12.7,3.1,20.3,11.4,10.8,11.9,2,24.7-19,23ZM143.7,516.2c-20.2-1.6-38.7-15.7-33.3-27.6,1.4-3,4.3-5.6,9-7.1,10.5-3.5,22.9.3,23.1.3.1,0,12.7,3.1,20.3,11.4,10.8,11.9,2,24.7-19,23ZM63.1,392.2c4.5-2.9,10.6-3.2,15.6-.5,5.3,2.8,7.7,7.7,8.8,11.5,3.7-3.2,9.7-7.2,16.6-6.9,9.8.3,15.4,8.9,15.1,19.5-.6,17.2-20.4,22.5-27.4,24.3-3.1.8-5.6,1.4-6.8,1.9,0,0-.2.2-.3.3-.9.7-.9.4-2,.5-8.7-1.3-24.2-14-28.6-26.7-4.1-12.1,2.6-19.9,9-23.9ZM50.5,454.5c2-2.6,5.5-4.4,10.4-4.7,10.8-.8,21.9,5.6,22.2,5.7,0,0,11.8,6,17.4,15.9,8,14.1-3.2,24.6-23.4,18-19.5-6.4-34.7-24.6-26.6-34.9ZM38.9,495.4c2-2.6,5.5-4.4,10.4-4.7,10.8-.8,21.9,5.6,22.2,5.7,0,0,11.8,6,17.4,15.9,8,14.1-3.2,24.6-23.4,18-19.5-6.4-34.7-24.6-26.6-34.9ZM34.2,541.6c2-2.6,5.5-4.4,10.4-4.7,10.8-.8,21.9,5.6,22.2,5.7,0,0,11.8,6,17.4,15.9,8,14.1-3.2,24.6-23.4,18-19.5-6.4-34.7-24.6-26.6-34.9ZM25.3,579.7c2-2.6,5.5-4.4,10.4-4.7,10.8-.8,21.9,5.6,22.2,5.7,0,0,11.8,6,17.4,15.9,8,14.1-3.2,24.6-23.4,18-19.5-6.4-34.7-24.6-26.6-34.9ZM51.6,650.2c-15.5-2.4-27.4-14.9-21.7-24,1.7-2.7,4.8-4.6,9-5.5,7.3-1.5,14.4,1.1,15,1.3,0,0,9.3,2.7,14.6,9.7,7.8,10.4-.6,21-16.9,18.5ZM97.9,672.3c-15.5-2.4-27.4-14.9-21.7-24,1.7-2.7,4.8-4.6,9-5.5,7.3-1.5,14.4,1.1,15,1.3,0,0,9.3,2.7,14.6,9.7,7.8,10.4-.6,21-16.9,18.5ZM153.2,687c-15.5-2.4-27.4-14.9-21.7-24,1.7-2.7,4.8-4.6,9-5.5,7.3-1.5,14.4,1.1,15,1.3,0,0,9.3,2.7,14.6,9.7,7.8,10.4-.6,21-16.9,18.5ZM175.3,654.9c-18.6,2.8-40.3-6-39.4-18.7.6-9.6,14-15.7,29.9-14.7.2,0,.5,0,.7,0,.1,0,13.1.6,22,7.4,11.9,9.1,7.1,22.9-13.2,26ZM187.4,614.9c-18.6,2.8-40.3-6-39.4-18.7.6-9.6,14-15.7,29.9-14.7.2,0,.5,0,.7,0,.1,0,13.1.6,22,7.4,11.9,9.1,7.1,22.9-13.2,26ZM193.8,574.7c-20.2-1.6-38.7-15.7-33.3-27.6,1.4-3,4.3-5.6,9-7.1,10.5-3.5,22.9.3,23.1.3.1,0,12.7,3.1,20.3,11.4,10.8,11.9,2,24.7-19,23ZM212,535.7c-20.2-1.6-38.7-15.7-33.3-27.6,1.4-3,4.3-5.6,9-7.1,10.5-3.5,22.9.3,23.1.3.1,0,12.7,3.1,20.3,11.4,10.8,11.9,2,24.7-19,23ZM244,489.1c-19.7,6.9-45.1,2.1-50.1-11.8-4.6-12.8,10.5-25.9,32.2-28.3.3,0,.6,0,.9,0,0,0,15.9-2,27.9,4.9,15.8,9.2,12.2,27.2-10.9,35.2ZM334.5,374.6c-9.5,24.6-38.6,35.3-62.9,38.6-1.1.1-2.2.3-3.3.4-1.1.1-2.3.2-3.4.3-.2,0-.5,0-.7,0,0-.2,0-.4.1-.6.2-.9.4-2,.6-3.2.2-1,.3-2.1.5-3.3,1.8-11.3,4.3-30.3,6.3-45.3,21.2-3.7,40.8-13.5,48-30.5,13.3-31.5,20.7-127.3,18.9-179.9-1.2-26.4-4.1-64.5-27.3-84.8-23.2-20.3-91.9-34.4-122.7-30.3-13,1.7-26.9,8.8-42,35.4-20.1,35.6-69.8,161.2-72.4,203.5-1.3,20.7,17.3,37,30.6,46-3.9,11.6-8.2,22.7-12.2,34.5-.3,1-.6,2-1,3-.3,1-.6,2-1,3-.8,2.5-1.6,5.2-2.3,7.8-2.7-1.6-5.3-3.2-7.9-5-.9-.6-1.9-1.3-2.8-1.9-.9-.6-1.8-1.3-2.7-1.9-18.6-13.9-32.1-31.7-30.9-50.3,2.9-45.5,49.1-169.5,74.3-226.3,14.7-33.2,30.7-67.2,56.6-75.6,28.1-9.2,113.1,5.7,147.5,29.7,31.9,22.2,35.1,74.4,36.2,108.8h0s0,2.7,0,2.7c1.3,59.3-7.6,181.5-24.5,225.3ZM219.6,410.7s0,0,0,0c1.5-6.9,3.4-15.7,5.3-25,.2-.9.4-1.8.6-2.7.2-.9.4-1.8.5-2.7,1.3-6.4,2.5-12.9,3.6-18.9,5.5.8,10.7,1.4,15.3,1.7,6.9.5,14.2.3,21.4-.6-1.8,13.3-3.9,29.2-5.5,40-.2,1.1-.3,2.2-.5,3.2-.2,1.1-.3,2.2-.5,3.2-.3,1.7-.6,3.2-.8,4.3-.5.3-.7.6-.8,1.3-10.5.3-23.9-1.1-38.7-3.6ZM98.9,354.5c3.5-10.4,7.3-20.3,10.8-30.5,3.4,2.1,6,3.5,7.3,4.2,6.9,3.7,16,7.5,26.3,11.2-1.3,6.1-2.5,11.3-3.7,15.9-.2.9-.4,1.8-.7,2.6-.2.9-.5,1.8-.7,2.6-5,18.6-8.4,23.2-10.1,26.3-8.8-3.1-16.7-6.2-23.4-9.2-3.8-1.7-7.6-3.6-11.3-5.6,1.1-4,2.3-7.9,3.5-11.8.3-1,.6-1.9.9-2.9.3-1,.6-1.9,1-2.9ZM219.8,383.4c-2.9,14.3-5.5,25.9-5.5,26.2,0,0,0,.2,0,.2-26.5-4.8-56.5-12.9-81-21.2,1.7-2.8,5.1-8,10.3-27.3.2-.8.5-1.7.7-2.6.2-.8.4-1.7.7-2.6,1.1-4.3,2.2-9.3,3.4-14.9,23.7,8.1,52.5,15.5,75.9,19.3-1,5.7-2.2,11.7-3.3,17.5-.2.9-.4,1.8-.5,2.7-.2.9-.4,1.8-.6,2.7ZM272.6,355.9c18.4-3.5,36.2-12.1,42.4-27.5,13.5-33.5,19.8-128.8,18.3-175v-2.1c0,0,0,0,0,0-1.2-27.6-4.4-66.8-29.7-84.2-27-18.5-95.6-31.2-119.3-24.7-21.3,5.8-34.4,32.9-46.3,59.2-20,44-56.2,138.7-58.2,174-.8,14.4,10.6,28.7,27,40.1,1.5,1.1,3.1,2.1,4.7,3.1,5.8,3.6,12,6.9,18.4,9.6,4.2,1.8,9.1,3.7,14.4,5.6,1.7.6,3.4,1.2,5.1,1.8,22.5,7.7,51.4,15.4,75.7,19.3,1.8.3,3.6.6,5.3.8,9.3,1.3,17.7,2,24.5,1.8,3.9,0,8-.4,12.1-1,1.9-.3,3.7-.6,5.6-.9ZM205.4,70c1.2-.9,1.3-.6,2.7-.4,9.4,1.3,53.1,7.5,79.4,21.3,1.3.7,1.6.5,2,1.9.3,1.1-.1,1.9-.2,2.1-.5,1-.6,1-1.6,1.3-1.4.4-1.4.1-2.7-.5-28.3-14.8-78.3-20.8-78.4-20.9-.6-.3-1.4-.5-1.8-1,0,0-.5-2-.5-2,.3-.6.5-1.4,1-1.8ZM190,93.2c1.1-.9,1.2-.7,2.6-.5,24.4,2.9,88.5,19.9,100.5,26,1.1.6,1.3.6,1.6,1.8,0,.2.3,1.1-.2,2.1-.5,1-.6,1-1.6,1.3-1.4.4-1.5,0-2.8-.6-12.5-5.9-74.4-22.5-98.7-25.3-1.1-.1-1.1-.2-1.8-1,0,0-.6-2-.6-2,.3-.6.5-1.4,1-1.8ZM262,134.4c-.2,1.1-.3,1.1-1.2,1.7-.6.4-1.3.4-2,.4-.5,0-15.2-3.3-16.5-3.6-32.2-7.2-33.7-8.8-36.6-9.3-2.2-.4-2.1-.9-2.6-3.2,0,0,1.1-1.8,1.1-1.8,1.2-.8,1.3-.6,2.7-.4,4.3.8,3.9,2.4,53.1,12.9,1.1.2,1.1.3,1.7,1.2.6.9.6,1,.4,2ZM239.8,335.3c-97.1-23.7-97.1-23.5-101.2-24.9-8.4-2.8-15.5-8.1-20.8-14.9-1.6-2-3-4.2-4.2-6.5-5.2-9.8-7.2-21.5-4.6-33.3,1.5-7,18.4-85.9,18.8-87.2,6.1-24.1,29.1-38.9,52.1-33.3,97.1,23.7,97.1,23.5,101.2,24.9,10.6,3.5,19.2,11.1,24.6,20.7,9.3,16.7,5.3,32.6,5,34.1-18.3,85.2-18,85.3-19.8,90.6-7.3,22.1-29.2,35.2-51.1,29.9Z" fill="#ffb1be"/><path d="M143.1,306.1c97.1,23.7,97.1,24,101.3,24.6,19.1,2.8,37.5-10.2,42.3-30.5,1.7-6.9,1.5-6.9,18.6-86.5,0,0,0,0,0,0,0-.4,4.6-17.8-6.8-34-5.2-7.3-12.8-13.1-22.1-15.3-97.1-23.7-97.1-24-101.3-24.6-19.4-2.8-38.1,10.6-42.6,31.6-1.5,7-18.5,86.2-18.7,87-3.8,21.6,8.9,42.8,29.2,47.8ZM123.4,252.5c1.3-5.9,15.6-72.6,15.9-73.7,5.2-20.6,24.9-33.2,44.7-28.4,82.3,20.1,82.4,19.9,86.3,21.2,9,3.1,16.3,9.7,20.9,18,7.7,14.1,4.4,27.3,4.1,28.7-15.5,72-15.2,72-16.7,76.6-6.2,18.9-25.1,30.1-43.8,25.5-82.3-20.1-82.4-19.9-86.3-21.3-18.3-6.3-29.3-26.5-25-46.6Z" fill="#cdbaf9"/><path d="M257.8,249.4c9.6-6.7,19.3-13.1,29.4-19.4-4.3,19.9-8.6,39.8-12.8,59.7-3.3,15.5-17.9,28.2-35.1,25.9-3.4-.5-3.9-.7-55.8-13.4,19.4-13.4,36.1-25.6,52.1-37.1h0s0,0,0,0c2.2-1.6,4.4-3.2,6.6-4.7l.8.2.2-.9c2-1.4,3.9-2.8,5.8-4.1l1.1.3.3-1.3c1.8-1.3,3.6-2.5,5.4-3.7l1.5.4.4-1.7ZM254.1,216l-.8-.2c.2.3.4.7.6,1l.2-.8ZM185.7,270.5l1.5-5.8-5.8-1.6,1.4-5.6-5.3-1.4,1.5-6.1-5.5-1.5,1.6-6.3,1.6.4c-.4-.7-.8-1.4-1.2-2l-.4,1.7-5.8-1.6,1-4.1c-12,7.2-25.8,15.7-42.3,26,.5,15.1,10.5,28.7,25,32.2,1.5.4,2.9.7,4.3,1,10.2-7.4,21.3-15.7,32.8-24.2l-4.3-1.2ZM180.7,250.2c-.3-.6-.6-1.3-1-1.9l-.4,1.5,1.4.4ZM249.9,208.3l-2-.5c.7.7,1.2,1.2,1.7,1.7l.3-1.3,5.8,1.6-1.5,6.1,5.8,1.6-1,4c10.9-7.8,21.3-15,30.6-21.2-1-3.7-2.6-7.6-5.3-11.4-2.8-4-6.6-7.5-11.1-9.9-13.7,7.4-25,13.4-35.8,19.3l14.1,3.8-1.6,6.3ZM179.5,155c-16.1-2.1-31.5,9-35.2,26.4-.5,2.3-3.1,14.3-6,28,25.1-15.6,53.1-31.7,78.5-45.5-33.6-8.3-34.3-8.5-37.2-8.9ZM184.1,257.1c-.1-.3-.3-.5-.4-.8l-.2.7.6.2ZM187.6,264.3c0,0,0-.2-.1-.3v.2c0,0,.1,0,.1,0Z" fill="#b0cae1"/><path d="M173.4,201.1v-.3c0,0,.3,0,.3,0,0,.1-.2.2-.3.3ZM170.8,234.4l-5.6-1.5,1.6-6.2-5.6-1.5,6.6-26.3,5.5,1.5,1.5-5.9,5.2,1.4c.2-.1.4-.3.7-.4l1.4-5.6,5.8,1.6v.6c.1,0,.4-.2.7-.3l-.7-.2,1.6-6.3,22.7,6.1-1.5,6c0,0,.2.2.2.3l5.3,1.4-1.2,5c0,.1.1.3.2.4.2.3.3.6.4.9l4.5,1.2,1.5-6.1,5.6,1.5,1.6-6.2,8.7,2.3c10.9-5.9,22.1-11.9,35.8-19.3-2.3-1.3-4.8-2.3-7.5-2.9-21.4-5.2-37.2-9.1-49-12-25.4,13.7-53.4,29.9-78.5,45.5-4.4,20.7-9.7,45.1-9.8,45.5-.5,2.6-.6,5.1-.5,7.7,16.5-10.3,30.3-18.8,42.3-26l.5-2.2ZM171.2,234.5c0,0-.1-.2-.2-.2v.2s.2,0,.2,0ZM228.2,202.4l-.8-.2-.2.6c.3-.1.7-.3,1-.4ZM229.6,265.6l-1.1,4.3-4.1-1.1c-.5.3-1,.6-1.5.8l-1.1,4.4-4.9-1.3c-.3.2-.7.3-1,.5l-1.3,5.2-5.7-1.5-1.5,5.8-17.5-4.7,1.4-5.7-1.3-.4c-11.5,8.5-22.7,16.7-32.8,24.2,9.9,2.4,18.6,4.5,26.2,6.4,19.4-13.4,36.1-25.6,52.1-37.1l-3.8-1c-.7.5-1.5.9-2.2,1.4ZM289.6,200.2c-9.3,6.2-19.6,13.4-30.6,21.2l-.5,1.9,5.5,1.5-6.2,24.6c9.6-6.7,19.3-13.1,29.4-19.4.9-4.3,1.9-8.6,2.8-12.9,0,0,0,0,0,0,0-.3,2-7.8-.4-16.9ZM244.5,254.8l-1.2,4.9c2-1.4,3.9-2.8,5.8-4.1l-4.1-1.1c-.2.1-.3.3-.5.4ZM258.1,223.6h-.5c.1.2.2.5.3.8l.2-.8ZM250.6,254.5c1.8-1.3,3.6-2.5,5.4-3.7l-4.1-1.1-1.2,4.9ZM208.9,275.8c-.2,0-.3.1-.5.2h.4c0,.1,0-.2,0-.2ZM251.9,248.1c-.4.4-.7.7-1.1,1.1l.8.2.3-1.3ZM236.7,260.8l-1.1,4.4c2.2-1.6,4.4-3.2,6.6-4.7l-3.7-1c-.6.5-1.2.9-1.9,1.4ZM187.7,209.5c.7-.4.7-.4,1.2-1,.1-.1.7-1,.6-2.2,0-.2-.1-1.3-1-2.1-.3-.2-.6-.4-1-.5-.2,0-1.2-.4-2.2.3-2.6,1.6-4.3,3.1-5.6,4.6-6.2,7-3.5,14.4-2.6,19.3.1.6,0,.7.3,1.2.1.2.3.4.5.6.7.5,1.4.4,1.5.4.4,0,.7-.3.7-.3.7-.5.9-1.2.9-1.3.1-.5,0-.5,0-1-.2-1.9-.5-3.8-.6-5.6-.3-3.8,0-8,7.1-12.2Z" fill="#fff"/><path d="M170.2,236.6l.5-2.2-5.6-1.5,1.6-6.2-5.6-1.5,6.6-26.3,5.5,1.5,1.5-5.9,5.2,1.4h.5c0,.1.1-.4.1-.4l1.4-5.6,5.8,1.6v.6c-.1,0-1.6,5.7-1.6,5.7l-5.8-1.6-1.5,6.1-5.3-1.4h-.2s0,.3,0,.3l-6.4,25.5,5.6,1.5-1.5,6.1v.2s.2,0,.2,0l1.7.5,3.7,1-1.2,4.6-.4,1.7-5.8-1.6,1-4.1ZM229.8,263.4l-5.5-1.5-1.4,5.6-5.3-1.4-1.5,5.8-5.8-1.6-1.4,5.4v.3c0,0-.5-.1-.5-.1l-5.2-1.4h0c0,0-11.4-3-11.4-3l.3-1.2,1.1-4.5-5.5-1.5h-.2c0,0,0-.3,0-.3l1.4-5.6-4.8-1.3-.6-.2.2-.7,1.2-4.9-4.2-1.1-1.4-.4.4-1.5,1.2-4.6-4.3-1.2-1.6-.4-1.6,6.3,5.5,1.5-1.5,6.1,5.3,1.4-1.4,5.6,5.8,1.6-1.5,5.8,4.3,1.2,1.3.4-1.4,5.7,17.5,4.7,1.5-5.8,5.7,1.5,1.3-5.2.2-.7.9.2,4.9,1.3,1.1-4.4.3-1.2,1.2.3,4.1,1.1,1.1-4.3.5-1.9,1.7.5,3.8,1h0s0,0,0,0l1.1-4.4.5-1.9-5.8-1.6-1.5,6.1ZM258.5,223.3l.5-1.9,1-4-5.8-1.6,1.5-6.1-5.8-1.6-.3,1.3-1.3,5,5,1.3.8.2-.2.8-1.3,5.3,3.9,1.1,1,.3h.5c0,.1-.2,1-.2,1l-5.9,23.6-.3,1.3-.8-.2-4.8-1.3-1.6,6.3-5.6-1.5-1.6,6.3,1.4.4,3.7,1,.8.2.2-.9,1.2-4.9v-.5c.1,0,.5,0,.5,0l4.1,1.1,1.1.3.3-1.3,1.2-4.9,4.1,1.1,1.5.4.4-1.7,6.2-24.6-5.5-1.5ZM188.5,191.7l21.8,5.9-1.6,6.2,5.6,1.5-1.5,6.1h.2c0,0,5.6,1.6,5.6,1.6h0c0,0,0,0,0,0l1.3-5.4.2-.7.7.2,4.8,1.3,1.2-4.6.2-1,.2-.6.8.2.9.2,18.8,5.1,2,.5,1.6-6.3-14.1-3.8-8.7-2.3-1.6,6.2-5.6-1.5-1.5,6.1-4.5-1.2-.8-.2.3-1.1,1.2-5-5.3-1.4h-.3c0,0,0-.3,0-.3l1.5-6-22.7-6.1-1.6,6.3.7.2Z" fill="#fb96b8"/><path d="M124.1,453.7c-9-10.3-3-18.2,8.4-20.3,9.5-1.7,18.2.7,20.5,1.3h0c.2,0,11.2,2.8,19.1,9.8,2.2,2,6.5,6.2,6.9,11.4.3,3.9-2.2,7.3-6.4,9.4-13.7,6.6-38.2.2-48.5-11.6ZM145.8,511c11.9.5,20.8-4.7,13.3-13.6-1.8-2.1-4.4-4.2-7.8-6.2-4.8-2.7-9.4-3.9-10.3-4.2-15.1-3.9-24.4,0-25.8,4.3-2.6,7.5,13.5,19,30.8,19.6ZM134.2,549.9c11.9.5,20.8-4.7,13.3-13.6-1.8-2.1-4.4-4.2-7.8-6.2-4.8-2.7-9.4-3.9-10.3-4.2-15.1-3.9-24.4,0-25.8,4.3-2.6,7.5,13.5,19,30.8,19.6ZM128.2,572.1c-4.8-2.7-9.4-3.9-10.3-4.2-15.1-3.9-24.4,0-25.8,4.3-2.6,7.5,13.5,19,30.8,19.6,11.9.5,20.8-4.7,13.3-13.6-1.8-2.1-4.4-4.2-7.8-6.2ZM120.2,611.6c-4.7-3-9.2-4.4-10.1-4.7-14.9-4.7-24.3-1.3-26,2.9-2.9,7.3,12.6,19.7,29.8,21.3,11.8,1.1,20.9-3.6,13.8-12.9-1.7-2.2-4.2-4.5-7.6-6.6ZM105.6,652.6c-3.3-2.2-6.6-3.2-7.1-3.4,0,0,0,0,0,0-.4-.1-7.1-2.5-13-.9-13.2,3.4.4,18.3,16.1,19,8.4.4,14.1-3.8,8.6-10.6-1.1-1.3-2.6-2.8-4.6-4.1ZM59.3,630.4c-3.3-2.2-6.6-3.2-7.1-3.4,0,0,0,0,0,0-.4-.1-7.1-2.5-13-.9-13.2,3.4.4,18.3,16.1,19,8.4.4,14.1-3.8,8.6-10.6-1.1-1.3-2.6-2.8-4.6-4.1ZM160.9,667.3c-3.3-2.2-6.6-3.2-7.1-3.4,0,0,0,0,0,0-.4-.1-7.1-2.5-13-.9-13.2,3.4.4,18.3,16.1,19,8.4.4,14.1-3.8,8.6-10.6-1.1-1.3-2.6-2.8-4.6-4.1ZM219.6,510.7c-4.8-2.7-9.4-3.9-10.3-4.2-15.1-3.9-24.4,0-25.8,4.3-2.6,7.5,13.5,19,30.8,19.6,11.9.5,20.8-4.7,13.3-13.6-1.8-2.1-4.4-4.2-7.8-6.2ZM79.9,484.6c11.4,3.4,21.6.8,16.4-9.6-1.2-2.4-3.3-5.2-6.2-7.9-4.3-4-8.8-6.4-9.7-6.9-13.7-7.3-23.1-5.7-25.7-2.4-4.9,6.2,8,21.7,25.1,26.8ZM68.3,525.5c11.4,3.4,21.6.8,16.4-9.6-1.2-2.4-3.3-5.2-6.2-7.9-4.3-4-8.8-6.4-9.7-6.9-13.7-7.3-23.1-5.7-25.7-2.4-4.9,6.2,8,21.7,25.1,26.8ZM79.9,562.2c-1.2-2.4-3.3-5.2-6.2-7.9-4.3-4-8.8-6.4-9.7-6.9-13.7-7.3-23.1-5.7-25.7-2.4-4.9,6.2,8,21.7,25.1,26.8,11.4,3.4,21.6.8,16.4-9.6ZM64.9,592.4c-4.3-4-8.8-6.4-9.7-6.9-13.7-7.3-23.1-5.7-25.7-2.4-4.9,6.2,8,21.7,25.1,26.8,11.4,3.4,21.6.8,16.4-9.6-1.2-2.4-3.3-5.2-6.2-7.9ZM201.4,549.7c-4.8-2.7-9.4-3.9-10.3-4.2-15.1-3.9-24.4,0-25.8,4.3-2.6,7.5,13.5,19,30.8,19.6,11.9.5,20.8-4.7,13.3-13.6-1.8-2.1-4.4-4.2-7.8-6.2ZM197.4,593.3c-2-1.6-4.9-3.1-8.4-4.3-5.2-1.8-9.9-2.1-10.9-2.1-15.6-1-24.2,4.6-24.8,9.3-1,7.3,14.8,15.5,32.1,13.5,12.5-1.4,21.8-8.7,12-16.4ZM185.3,633.4c-2-1.6-4.9-3.1-8.4-4.3-5.2-1.8-9.9-2.1-10.9-2.1-15.6-1-24.2,4.6-24.8,9.3-1,7.3,14.8,15.5,32.1,13.5,12.5-1.4,21.8-8.7,12-16.4ZM228.8,454.2h-1.2c0,0,0,.1,0,.1-1.8.2-13.3,1.1-22.3,7.8-7.6,5.6-10.2,13.9,0,20.1,13.8,8.3,41.3,5,51.2-7.2,9.3-11.5-6.8-22.3-27.7-20.7Z" fill="#f8fcb9"/><path d="M210.9,197.7h-.3c0,0,0-.3,0-.3,0,0,.2.2.2.3ZM180.6,195.4c-.2.1-.4.3-.7.4h.5c0,.1.1-.4.1-.4ZM88,410.3s-.9,1.2-2.3,1.2c-.7,0-2.5-.4-2.7-2.5,0-.4-.2-10.6-8.6-13.3-4.7-1.5-8.2.9-8.8,1.3-16.8,11.2-.9,28.8,8.6,35.8,4.1,3,6.7,4,8.1,4.4.9-.5,2.3-.9,4.9-1.6,9.7-2.5,29.7-7.2,26.2-24.9-2.5-12.4-15.3-11.8-25.4-.5ZM215.1,204.5c0-.1-.1-.3-.2-.4l-.3,1.1.8.2c0-.3-.2-.5-.4-.9ZM222.9,269.6c.5-.3,1-.6,1.5-.8l-1.2-.3-.3,1.2ZM244.5,254.8c.2-.1.3-.3.5-.4h-.3c0,0-.1.4-.1.4ZM229.6,265.6c.7-.5,1.5-.9,2.2-1.4l-1.7-.5-.5,1.9ZM215.8,273.1c.3-.2.7-.3,1-.5l-.9-.2-.2.7ZM257.8,224.5l-5.9,23.6c-.4.4-.7.7-1.1,1.1l-4.8-1.3-1.6,6.3-5.6-1.5-1.6,6.3,1.4.4c-.6.5-1.2.9-1.9,1.4l.5-1.9-5.8-1.6-1.5,6.1-5.5-1.5-1.4,5.6-5.3-1.4-1.5,5.8-5.8-1.6-1.4,5.4c-.2,0-.3.1-.5.2l-5.2-1.4h0c0,0-11.4-3-11.4-3l.3-1.2,1.1-4.5-5.5-1.5c0,0,0-.2-.1-.3l1.4-5.6-4.8-1.3c-.1-.3-.3-.5-.4-.8l1.2-4.9-4.2-1.1c-.3-.6-.6-1.3-1-1.9l1.2-4.6-4.3-1.2c-.4-.7-.8-1.4-1.2-2l1.2-4.6-3.7-1-1.7-.5c0,0-.1-.2-.2-.2l1.5-6.1-5.6-1.5,6.4-25.5c0,0,.2-.2.3-.3l5.3,1.4,1.5-6.1,5.8,1.6,1.4-5.7c.3,0,.5-.2.8-.3l21.8,5.9-1.6,6.2,5.6,1.5-1.5,6.1h.2c0,0,5.6,1.6,5.6,1.6h0c0,0,0,0,0,0l1.3-5.4.2-.7.7.2,4.8,1.3,1.2-4.6.2-1c.3-.1.7-.3,1-.4l.9.2,18.8,5.1c.7.7,1.2,1.2,1.7,1.7l-1.3,5,5,1.3c.2.3.4.7.6,1l-1.3,5.3,3.9,1.1,1,.3c.1.3.2.6.3,1ZM189.6,206.2c0-.2-.1-1.3-1-2.1-.3-.2-.6-.4-1-.5-.2,0-1.2-.4-2.2.3-2.6,1.6-4.3,3.1-5.6,4.6-6.2,7-3.5,14.4-2.6,19.3.1.6,0,.7.3,1.2.1.2.3.4.5.6.7.5,1.4.4,1.5.4.4,0,.7-.3.7-.3.7-.5.9-1.2.9-1.3.1-.5,0-.5,0-1-.2-1.9-.5-3.8-.6-5.6-.3-3.8,0-8,7.1-12.2.7-.4.7-.4,1.2-1,.1-.1.7-1,.6-2.2Z" fill="#ffdce8"/><path d="M364.3,146.5c-1.2-34.4-4.3-83.7-33.4-109.1C302,12.1,215.8-5.4,179.2,1.5c-31.1,5.9-48.8,42.9-62.6,73.5-27.1,59.9-74.6,187.5-77.7,234.7-1.3,20.6,12.7,39,30.5,53-16.7,7.1-31.2,18-39.7,32.1C10.7,426.1-.3,530.8,0,588.4c.4,28.3,2.4,69.3,28.3,92.1,25.5,22.4,101.5,42.1,135.3,39.3,17.4-1.5,32.3-12,47.9-36.8,18.6-29.5,80.7-154.5,85.7-206.8,2-20.7-7.7-41.3-21.4-58.1,24.9-3.9,47.7-14.8,58.9-32,1.4-2.2,5.8-8.2,11.3-31.3,12.4-52,19.7-150.3,18.3-208.2ZM292,473.9c-2.7,39.8-45.4,132.6-70.6,180.3-13.8,26.2-28.6,53.3-51.9,59.1-25.8,6.4-105.2-12.2-134.8-34.6-27.6-20.8-28.9-65-29.3-90.4h0s0-2.2,0-2.2c-.1-48.7,8.9-145.1,25.9-182.8,7.9-17.4,24.7-29.6,43.1-36.8,5.4,3.9,11,7.3,16.5,10.3,9.4,5.1,22.3,10.5,36.9,15.6.3.2.8.5,1.3.8,0,0,.3,0,.6-.1,38.1,13.2,87.1,24.6,117.5,26.4,7.4.4,14.9.2,22.4-.6,14.4,16.7,23.7,36.6,22.5,55ZM96.9,360.2c.3-1,.6-1.9.9-2.9.3-1,.6-1.9,1-2.9,3.5-10.4,7.3-20.3,10.8-30.5,3.4,2.1,6,3.5,7.3,4.2,6.9,3.7,16,7.5,26.3,11.2-1.3,6.1-2.5,11.3-3.7,15.9-.2.9-.4,1.8-.7,2.6-.2.9-.5,1.8-.7,2.6-5,18.6-8.4,23.2-10.1,26.3-8.8-3.1-16.7-6.2-23.4-9.2-3.8-1.7-7.6-3.6-11.3-5.6,1.1-4,2.3-7.9,3.5-11.8ZM260.3,405.6c-.2,1.1-.3,2.2-.5,3.2-.3,1.7-.6,3.2-.8,4.3-.5.3-.7.6-.8,1.3-10.5.3-23.9-1.1-38.7-3.6,0,0,0,0,0,0,1.5-6.9,3.4-15.7,5.3-25,.2-.9.4-1.8.6-2.7.2-.9.4-1.8.5-2.7,1.3-6.4,2.5-12.9,3.6-18.9,5.5.8,10.7,1.4,15.3,1.7,6.9.5,14.2.3,21.4-.6-1.8,13.3-3.9,29.2-5.5,40-.2,1.1-.3,2.2-.5,3.2ZM144.2,358.6c.2-.8.4-1.7.7-2.6,1.1-4.3,2.2-9.3,3.4-14.9,23.7,8.1,52.5,15.5,75.9,19.3-1,5.7-2.2,11.7-3.3,17.5-.2.9-.4,1.8-.5,2.7-.2.9-.4,1.8-.6,2.7-2.9,14.3-5.5,25.9-5.5,26.2,0,0,0,.2,0,.2-26.5-4.8-56.5-12.9-81-21.2,1.7-2.8,5.1-8,10.3-27.3.2-.8.5-1.7.7-2.6ZM230.5,355.9c-1.8-.2-3.5-.5-5.3-.8-24.3-3.9-53.2-11.6-75.7-19.3-1.8-.6-3.5-1.2-5.1-1.8-5.3-1.9-10.2-3.8-14.4-5.6-6.4-2.8-12.7-6-18.4-9.6-1.6-1-3.2-2-4.7-3.1-16.4-11.3-27.8-25.6-27-40.1,2.1-35.3,38.3-130,58.2-174,11.9-26.3,25.1-53.4,46.3-59.2,23.8-6.4,92.4,6.2,119.3,24.7,25.3,17.4,28.5,56.6,29.7,84.2h0s0,2.1,0,2.1c1.5,46.1-4.8,141.5-18.3,175-6.2,15.4-24,24-42.4,27.5-1.9.4-3.7.7-5.6.9-4.1.6-8.2.9-12.1,1-6.9.2-15.3-.5-24.5-1.8ZM268.4,413.6c-1.1.1-2.3.2-3.4.3-.2,0-.5,0-.7,0,0-.2,0-.4.1-.6.2-.9.4-2,.6-3.2.2-1,.3-2.1.5-3.3,1.8-11.3,4.3-30.3,6.3-45.3,21.2-3.7,40.8-13.5,48-30.5,13.3-31.5,20.7-127.3,18.9-179.9-1.2-26.4-4.1-64.5-27.3-84.8-23.2-20.3-91.9-34.4-122.7-30.3-13,1.7-26.9,8.8-42,35.4-20.1,35.6-69.8,161.2-72.4,203.5-1.3,20.7,17.3,37,30.6,46-3.9,11.6-8.2,22.7-12.2,34.5-.3,1-.6,2-1,3-.3,1-.6,2-1,3-.8,2.5-1.6,5.2-2.3,7.8-2.7-1.6-5.3-3.2-7.9-5-.9-.6-1.9-1.3-2.8-1.9-.9-.6-1.8-1.3-2.7-1.9-18.6-13.9-32.1-31.7-30.9-50.3,2.9-45.5,49.1-169.5,74.3-226.3,14.7-33.2,30.7-67.2,56.6-75.6,28.1-9.2,113.1,5.7,147.5,29.7,31.9,22.2,35.1,74.4,36.2,108.8h0s0,2.7,0,2.7c1.3,59.3-7.6,181.5-24.5,225.3-9.5,24.6-38.6,35.3-62.9,38.6-1.1.1-2.2.3-3.3.4ZM204.9,73.8s-.5-2-.5-2c.3-.6.5-1.4,1-1.8,1.2-.9,1.3-.6,2.7-.4,9.4,1.3,53.1,7.5,79.4,21.3,1.3.7,1.6.5,2,1.9.3,1.1-.1,1.9-.2,2.1-.5,1-.6,1-1.6,1.3-1.4.4-1.4.1-2.7-.5-28.3-14.8-78.3-20.8-78.4-20.9-.6-.3-1.4-.5-1.8-1ZM290.9,305.4c1.8-5.3,1.4-5.4,19.8-90.6.3-1.5,4.3-17.4-5-34.1-5.4-9.7-14-17.2-24.6-20.7-4-1.3-4.1-1.1-101.2-24.9-23-5.6-46,9.2-52.1,33.3-.3,1.4-17.3,80.3-18.8,87.2-2.5,11.8-.6,23.6,4.6,33.3,1.2,2.3,2.6,4.4,4.2,6.5,5.3,6.8,12.4,12.2,20.8,14.9,4,1.3,4.1,1.1,101.2,24.9,21.9,5.3,43.8-7.8,51.1-29.9ZM244.4,330.7c-4.2-.6-4.1-.8-101.3-24.6-20.2-4.9-33-26.2-29.2-47.8.2-.9,17.2-80.1,18.7-87,4.5-20.9,23.2-34.4,42.6-31.6,4.2.6,4.1.8,101.3,24.6,9.3,2.3,16.9,8,22.1,15.3,11.4,16.2,6.9,33.6,6.8,34,0,0,0,0,0,0-17.1,79.6-16.9,79.6-18.6,86.5-4.9,20.3-23.2,33.3-42.3,30.5ZM291.2,189.6c-4.5-8.3-11.8-14.8-20.9-18-3.9-1.4-4-1.1-86.3-21.2-19.7-4.8-39.5,7.8-44.7,28.4-.3,1.2-14.6,67.8-15.9,73.7-4.3,20.2,6.7,40.3,25,46.6,4,1.4,4,1.1,86.3,21.3,18.8,4.6,37.6-6.6,43.8-25.5,1.5-4.5,1.2-4.6,16.7-76.6.3-1.4,3.6-14.6-4.1-28.7ZM290,217.2s0,0,0,0c-.9,4.3-1.9,8.6-2.8,12.9-4.3,19.9-8.6,39.8-12.8,59.7-3.3,15.5-17.9,28.2-35.1,25.9-3.4-.5-3.9-.7-55.8-13.4-7.6-1.9-16.2-4-26.2-6.4-1.4-.3-2.8-.7-4.3-1-14.5-3.6-24.5-17.1-25-32.2,0-2.5,0-5.1.5-7.7,0-.4,5.3-24.9,9.8-45.5,2.9-13.6,5.5-25.6,6-28,3.7-17.3,19.1-28.5,35.2-26.4,2.9.4,3.7.6,37.2,8.9,11.8,2.9,27.6,6.8,49,12,2.7.7,5.2,1.7,7.5,2.9,4.5,2.4,8.2,5.9,11.1,9.9,2.7,3.9,4.4,7.8,5.3,11.4,2.4,9.2.4,16.7.4,16.9ZM189.5,97s-.6-2-.6-2c.3-.6.5-1.4,1-1.8,1.1-.9,1.2-.7,2.6-.5,24.4,2.9,88.5,19.9,100.5,26,1.1.6,1.3.6,1.6,1.8,0,.2.3,1.1-.2,2.1-.5,1-.6,1-1.6,1.3-1.4.4-1.5,0-2.8-.6-12.5-5.9-74.4-22.5-98.7-25.3-1.1-.1-1.1-.2-1.8-1ZM261.6,132.4c.6.9.6,1,.4,2-.2,1.1-.3,1.1-1.2,1.7-.6.4-1.3.4-2,.4-.5,0-15.2-3.3-16.5-3.6-32.2-7.2-33.7-8.8-36.6-9.3-2.2-.4-2.1-.9-2.6-3.2,0,0,1.1-1.8,1.1-1.8,1.2-.8,1.3-.6,2.7-.4,4.3.8,3.9,2.4,53.1,12.9,1.1.2,1.1.3,1.7,1.2ZM114.3,443.9c-.2,14.9,22.4,28.8,43.5,29.3,24.4.6,33.6-15.3,21.2-29.6-9.2-10.5-24.3-14.2-24.5-14.2-.3,0-.6-.2-.9-.2-20.9-5.4-39.1,1.4-39.3,14.8ZM132.5,433.4c9.5-1.7,18.2.7,20.5,1.3h0c.2,0,11.2,2.8,19.1,9.8,2.2,2,6.5,6.2,6.9,11.4.3,3.9-2.2,7.3-6.4,9.4-13.7,6.6-38.2.2-48.5-11.6-9-10.3-3-18.2,8.4-20.3ZM162.7,493.3c-7.6-8.4-20.2-11.4-20.3-11.4-.1,0-12.6-3.8-23.1-.3-4.6,1.5-7.6,4.1-9,7.1-5.4,11.9,13.1,26,33.3,27.6,21,1.7,29.8-11.1,19-23ZM145.8,511c-17.3-.7-33.3-12.2-30.8-19.6,1.5-4.3,10.7-8.2,25.8-4.3.9.3,5.5,1.5,10.3,4.2,3.4,1.9,6.1,4.1,7.8,6.2,7.5,8.8-1.4,14-13.3,13.6ZM151,532.2c-7.6-8.4-20.2-11.4-20.3-11.4-.1,0-12.6-3.8-23.1-.3-4.6,1.5-7.6,4.1-9,7.1-5.4,11.9,13.1,26,33.3,27.6,21,1.7,29.8-11.1,19-23ZM134.2,549.9c-17.3-.7-33.3-12.2-30.8-19.6,1.5-4.3,10.7-8.2,25.8-4.3.9.3,5.5,1.5,10.3,4.2,3.4,1.9,6.1,4.1,7.8,6.2,7.5,8.8-1.4,14-13.3,13.6ZM139.6,574.1c-7.6-8.4-20.2-11.4-20.3-11.4-.1,0-12.6-3.8-23.1-.3-4.6,1.5-7.6,4.1-9,7.1-5.4,11.9,13.1,26,33.3,27.6,21,1.7,29.8-11.1,19-23ZM122.8,591.8c-17.3-.7-33.3-12.2-30.8-19.6,1.5-4.3,10.7-8.2,25.8-4.3.9.3,5.5,1.5,10.3,4.2,3.4,1.9,6.1,4.1,7.8,6.2,7.5,8.8-1.4,14-13.3,13.6ZM111.8,601.7c-.2,0-.5-.1-.7-.2-14.1-4.4-27.6-2.5-31.6,5.4-5.9,11.6,11.9,26.6,32,29.3,20.9,2.8,30.3-9.6,20.1-22-7.2-8.8-19.7-12.5-19.8-12.5ZM113.9,631c-17.3-1.6-32.8-13.9-29.8-21.3,1.7-4.2,11.1-7.6,26-2.9.9.3,5.4,1.7,10.1,4.7,3.3,2.1,5.9,4.4,7.6,6.6,7.1,9.2-2,13.9-13.8,12.9ZM100.2,644c-.6-.2-7.7-2.7-15-1.3-4.2.8-7.3,2.8-9,5.5-5.7,9.1,6.2,21.6,21.7,24,16.3,2.5,24.7-8.1,16.9-18.5-5.2-7-14.5-9.7-14.6-9.7ZM101.5,667.2c-15.7-.7-29.3-15.6-16.1-19,6-1.5,12.7.8,13,.9,0,0,0,0,0,0,.5.2,3.7,1.2,7.1,3.4,2,1.3,3.5,2.7,4.6,4.1,5.4,6.8-.2,10.9-8.6,10.6ZM53.9,621.9c-.6-.2-7.7-2.7-15-1.3-4.2.8-7.3,2.8-9,5.5-5.7,9.1,6.2,21.6,21.7,24,16.3,2.5,24.7-8.1,16.9-18.5-5.2-7-14.5-9.7-14.6-9.7ZM55.2,645.1c-15.7-.7-29.3-15.6-16.1-19,6-1.5,12.7.8,13,.9,0,0,0,0,0,0,.5.2,3.7,1.2,7.1,3.4,2,1.3,3.5,2.7,4.6,4.1,5.4,6.8-.2,10.9-8.6,10.6ZM155.5,658.8c-.6-.2-7.7-2.7-15-1.3-4.2.8-7.3,2.8-9,5.5-5.7,9.1,6.2,21.6,21.7,24,16.3,2.5,24.7-8.1,16.9-18.5-5.2-7-14.5-9.7-14.6-9.7ZM156.8,682c-15.7-.7-29.3-15.6-16.1-19,6-1.5,12.7.8,13,.9,0,0,0,0,0,0,.5.2,3.7,1.2,7.1,3.4,2,1.3,3.5,2.7,4.6,4.1,5.4,6.8-.2,10.9-8.6,10.6ZM210.7,501.3c-.1,0-12.6-3.8-23.1-.3-4.6,1.5-7.6,4.1-9,7.1-5.4,11.9,13.1,26,33.3,27.6,21,1.7,29.8-11.1,19-23-7.6-8.4-20.2-11.4-20.3-11.4ZM214.2,530.4c-17.3-.7-33.3-12.2-30.8-19.6,1.5-4.3,10.7-8.2,25.8-4.3.9.3,5.5,1.5,10.3,4.2,3.4,1.9,6.1,4.1,7.8,6.2,7.5,8.8-1.4,14-13.3,13.6ZM77.1,489.4c20.2,6.6,31.4-3.9,23.4-18-5.7-9.9-17.3-15.8-17.4-15.9-.2-.1-11.3-6.6-22.2-5.7-4.9.4-8.4,2.2-10.4,4.7-8.1,10.3,7.1,28.5,26.6,34.9ZM54.7,457.8c2.6-3.3,12-4.9,25.7,2.4.9.5,5.4,2.9,9.7,6.9,2.9,2.7,4.9,5.5,6.2,7.9,5.2,10.4-5,12.9-16.4,9.6-17.1-5.1-30-20.5-25.1-26.8ZM65.5,530.3c20.2,6.6,31.4-3.9,23.4-18-5.7-9.9-17.3-15.8-17.4-15.9-.2-.1-11.3-6.6-22.2-5.7-4.9.4-8.4,2.2-10.4,4.7-8.1,10.3,7.1,28.5,26.6,34.9ZM43.1,498.8c2.6-3.3,12-4.9,25.7,2.4.9.5,5.4,2.9,9.7,6.9,2.9,2.7,4.9,5.5,6.2,7.9,5.2,10.4-5,12.9-16.4,9.6-17.1-5.1-30-20.5-25.1-26.8ZM60.7,576.5c20.2,6.6,31.4-3.9,23.4-18-5.7-9.9-17.3-15.8-17.4-15.9-.2-.1-11.3-6.6-22.2-5.7-4.9.4-8.4,2.2-10.4,4.7-8.1,10.3,7.1,28.5,26.6,34.9ZM38.4,545c2.6-3.3,12-4.9,25.7,2.4.9.5,5.4,2.9,9.7,6.9,2.9,2.7,4.9,5.5,6.2,7.9,5.2,10.4-5,12.9-16.4,9.6-17.1-5.1-30-20.5-25.1-26.8ZM51.9,614.6c20.2,6.6,31.4-3.9,23.4-18-5.7-9.9-17.3-15.8-17.4-15.9-.2-.1-11.3-6.6-22.2-5.7-4.9.4-8.4,2.2-10.4,4.7-8.1,10.3,7.1,28.5,26.6,34.9ZM29.5,583.1c2.6-3.3,12-4.9,25.7,2.4.9.5,5.4,2.9,9.7,6.9,2.9,2.7,4.9,5.5,6.2,7.9,5.2,10.4-5,12.9-16.4,9.6-17.1-5.1-30-20.5-25.1-26.8ZM192.5,540.3c-.1,0-12.6-3.8-23.1-.3-4.6,1.5-7.6,4.1-9,7.1-5.4,11.9,13.1,26,33.3,27.6,21,1.7,29.8-11.1,19-23-7.6-8.4-20.2-11.4-20.3-11.4ZM196,569.5c-17.3-.7-33.3-12.2-30.8-19.6,1.5-4.3,10.7-8.2,25.8-4.3.9.3,5.5,1.5,10.3,4.2,3.4,1.9,6.1,4.1,7.8,6.2,7.5,8.8-1.4,14-13.3,13.6ZM200.5,588.9c-8.9-6.8-21.8-7.4-22-7.4-.2,0-.5,0-.7,0-15.9-1-29.3,5.2-29.9,14.7-.8,12.7,20.9,21.5,39.4,18.7,20.3-3,25-16.9,13.2-26ZM185.4,609.7c-17.2,2-33.1-6.2-32.1-13.5.6-4.6,9.2-10.3,24.8-9.3,1,0,5.6.4,10.9,2.1,3.5,1.2,6.4,2.7,8.4,4.3,9.8,7.7.5,15-12,16.4ZM188.5,628.9c-8.9-6.8-21.8-7.4-22-7.4-.2,0-.5,0-.7,0-15.9-1-29.3,5.2-29.9,14.7-.8,12.7,20.9,21.5,39.4,18.7,20.3-3,25-16.9,13.2-26ZM173.4,649.7c-17.2,2-33.1-6.2-32.1-13.5.6-4.6,9.2-10.3,24.8-9.3,1,0,5.6.4,10.9,2.1,3.5,1.2,6.4,2.7,8.4,4.3,9.8,7.7.5,15-12,16.4ZM255,453.9c-12-6.9-27.8-4.9-27.9-4.9-.3,0-.6,0-.9,0-21.7,2.4-36.8,15.5-32.2,28.3,5,13.8,30.3,18.6,50.1,11.8,23.1-8,26.7-26,10.9-35.2ZM205.3,482.1c-10.2-6.2-7.6-14.5,0-20.1,9-6.6,20.5-7.6,22.3-7.8h0s1.2-.1,1.2-.1c20.9-1.6,37,9.2,27.7,20.7-9.9,12.2-37.4,15.5-51.2,7.2ZM82.6,442.8c1.1-.1,1.2.1,2-.5.1,0,.2-.2.3-.3,1.3-.5,3.7-1.1,6.8-1.9,6.9-1.9,26.8-7.1,27.4-24.3.4-10.6-5.2-19.2-15.1-19.5-6.9-.2-12.9,3.8-16.6,6.9-1.1-3.8-3.5-8.7-8.8-11.5-5-2.6-11.1-2.3-15.6.5-6.4,4-13.2,11.8-9,23.9,4.4,12.8,19.9,25.4,28.6,26.7ZM74.4,395.7c8.4,2.6,8.5,12.9,8.6,13.3.2,2.1,2,2.5,2.7,2.5,1.4,0,2.3-1.2,2.3-1.2,10.1-11.3,22.9-11.9,25.4.5,3.6,17.8-16.4,22.4-26.2,24.9-2.5.7-3.9,1.1-4.9,1.6-1.4-.4-4-1.4-8.1-4.4-9.5-7-25.4-24.6-8.6-35.8.6-.4,4.1-2.8,8.8-1.3Z" fill="#714e67"/></g></svg>