<?xml version="1.0" encoding="UTF-8"?><svg id="b" xmlns="http://www.w3.org/2000/svg" viewBox="0 0 487.2 720"><g id="c"><path d="M477,260.1c-10.5-18-26.7-29-42.4-33.9-7.8-2.4-8.2-2.2-232-51.3,1.4-4.9,2.1-11,2.2-18.4.2-12-2.7-21.2-8.2-27.5,3.7-16.8,10.5-48.9,24.3-112,0-.3,1.1-4-1.2-7.9-1.3-2.3-3.4-4-5.9-5-1.8-.6-1.8-.5-17-3.8-5.7-1.2-11.4,2.1-13.1,7.7-.2.8-17.1,77.8-24.8,112.9-17.9,6.5-21.8,30.6-22.9,46.2-27.3,5.8-50.3,26.5-57.5,55.2-.4,1.6-76.7,348.8-76.9,350.1-8.1,39.7,16.2,76.1,51.1,87,8.1,2.5,8.3,2.1,267,59,37.1,8.1,73.8-12.6,86.7-47.3,4.1-11,3.2-11.3,79.1-356.9.7-3.1,6.8-27.9-8.5-54Z" fill="#714e67"/><path d="M142.4,166c1.1-13,4.1-30.2,14.8-37.3,1.1-.7,2.3-1.4,3.7-1.9.7-.3,1.3-.5,2-.7.4-.1.9-.2,1.4-.3,3-.6,6.7-.7,8.5-.6,4.4.1,11.4.9,17.1,5.8.8.7,1.6,1.5,2.3,2.4,1,1.1,1.8,2.4,2.6,3.9,1.1,2.1,2.1,4.6,2.7,7.5,2.3,10.3,0,23.5-.1,24.7-.3,1.5-.6,2.7-.9,4-9.2-2-18.9-4.1-28.9-6.3-8.5-1.9-17-2.2-25.2-1.2ZM479.3,312.7l-76.3,347.2c-7.2,32.8-38.9,57.2-74.7,53.3-8.7-1-8.6-1.5-267.9-58.4-37-8.1-59.6-44.1-53.1-79.5q.7-3.9,76.7-349.4c5.9-26.7,26.6-46.4,51.5-52.3,1.1-.3,2.1-.5,3.2-.7,1.1-.2,2.1-.4,3.2-.5,5.8-.8,11.7-.9,17.7-.2,3.7.5,5.7.8,34.2,7.1,1.1.2,2.1.5,3.3.7,1,.2,2.1.5,3.2.7,33.8,7.4,98.7,21.8,226.8,49.9,13.1,2.9,27.8,10.6,38.5,24.1,21.6,27.1,14,56.2,13.6,58ZM445.7,283.9c-4.4-7.7-15.3-22.8-36.9-29.9-7.1-2.3-7.2-1.9-232.5-51.4-34.8-7.6-69.2,13.8-77.9,48.1-.6,2.3-61.8,281-67.1,305.5-6.8,31,10.4,65.4,44.2,76.3,7.1,2.3,7.2,1.9,232.5,51.4,32.4,7.1,64.6-11,75.8-41.3,3.6-9.6,2.8-9.9,69.2-311.8.6-2.8,5.8-24.2-7.2-46.9ZM446.7,329.4c-22.2,101.1-44.4,202.2-66.6,303.4-6.2,28.3-33.6,49.4-64.4,46-7.5-.8-7.5-1.3-232.7-50.8-30.6-6.7-51.3-36.4-45.9-68.3q.6-3.3,67.1-305.6c6.6-29.9,34.5-49.5,64.1-46.4,8,.8,7.9,1.3,233.1,50.8,10.8,2.4,20.1,7.5,27.5,14.3,2.3,2.1,25,22.5,17.9,56.6ZM286.4,549.6c-4.6-8.4-13.5-14.6-17.6-16.9-26.3-14.5-47.4,12.2-55.6,26.6,0-.1-.1-.2-.2-.3-1.5-2.8-3.3-5.7-4.7-7.7-7.1-10.4-28.2-23.1-43.1-21.8-18.9,1.6-19.6,21.8-19.8,27.2-.6,21,16.7,50.6,34.3,69.4,20.5,21.9,32.2,20,33.1,20,.3,0,.7,0,1,0,38.2-2.9,91.8-60.9,72.5-96.3ZM419.2,311.1c-5.5-9.5-14.2-17-25-20.9-6.7-2.4-6.9-1.9-222.3-49.2-24.7-5.4-49.3,9.7-55.6,34.1-.4,1.5-32.5,147.6-35.3,160.5-5.1,23.4,8.1,46.6,30.1,54.4,6.7,2.4,6.9,1.9,222.3,49.2,23.1,5.1,46.2-7.9,54.2-29.6,2.5-6.7,2-6.9,36.7-165,.3-1.7,4.3-17.1-5.2-33.5Z" fill="#ffcfec"/><path d="M165.7,119.3c7.5-34.2,22.3-101.5,24-109.1.6-2.5,2.9-4,5.2-3.8.4,0,15.1,3.3,16.4,3.6,2,.4,4,2.6,3.6,5.4,0,.1,0,.3,0,.4h0c-13,59.1-19.7,91-23.5,108.6-6.6-4.4-15.3-6.1-25.6-5ZM271.6,349c7-3.8,14.2-7.7,21.5-11.8,35-19.5,61.4-34.2,81.8-45.3-18.7-4.1-35.7-7.9-51.2-11.3-24,11.7-45.9,22.6-65.7,32.9,6.9,10.1,11.1,22.9,13.6,35.4ZM340.4,533.8c21.3,1.6,38.9-13.5,42.8-31.4,6.1-27.6,12.1-55.2,18.2-82.8-77.4,38.1-130.7,67.8-169.1,90.9,101.8,22.5,102.9,22.9,108.2,23.3ZM165.6,363.8c-30.9,17.9-53.9,32.4-72,44.2-3.9,17.8-6.6,30.2-6.7,30.5,0,.2,0,.4,0,.6,17.3-10.3,47.4-23,87.5-41.6-4.4-11.3-7.4-22.7-8.7-33.6ZM243.9,473.6c-2.5.5-2.4.5-2.9.6-.2,0-.3,0-.5,0-.5,0-.4-.1-.9-.2-1.1-.4-16.4-5.6-34.3-25.5-29.5,16.4-51.7,29.7-69.7,40.8,19.6,4.3,37.3,8.2,53.2,11.7,16.4-7.7,37.1-17,61.2-28.7-2.1.4-4.1.8-6.2,1.3ZM368.5,364.6c2.6,3.4,4.4,7.6,5.2,12.6,1.6,10-1.5,21.9-6,32.1,16.8-9.5,30.2-16.9,41.1-22.9,3.2-14.4,6.3-28.7,9.5-43.1,0,0,0,0,0,0,0-.1.3-1.1.5-2.7-17.8,8.4-34.5,16.4-50.3,24ZM195,300c19-8.1,33.7-7.9,45-2.6,17.4-9.9,32.2-18.2,44.9-25.3-113.4-25-114.4-25.5-119.9-25.9-19.9-1.5-38.5,11.8-42.9,31.9-1.5,6.6-10.7,48.7-19.3,88.1,17.3-8,38.7-17.7,63.6-30,3.3-16.2,12.3-29.4,28.7-36.3Z" fill="#d1e1f4"/><path d="M240,297.5c17.4-9.9,32.2-18.2,44.9-25.3,11.7,2.6,24.6,5.4,38.9,8.6-24,11.7-45.9,22.6-65.7,32.9-4.7-6.9-10.6-12.6-18.1-16.1ZM166.3,336.4c-24.9,12.2-46.3,21.9-63.6,30-3.3,15-6.5,29.5-9.1,41.6,18.1-11.8,41.1-26.3,72-44.2-1.2-9.7-1-19,.7-27.4ZM359.7,423.5c-23.1,32.8-66.2,40-109.6,48.8-24.1,11.7-44.8,21-61.2,28.7,16.2,3.6,30.6,6.7,43.4,9.6,38.5-23.1,91.7-52.8,169.1-90.9,2.4-11.1,4.9-22.2,7.3-33.4-10.8,5.9-24.2,13.4-41.1,22.9-2.4,5.4-5.2,10.3-8,14.3ZM190.2,428.7c-6.4-9.9-11.8-20.5-16-31.2-40.1,18.6-70.2,31.3-87.5,41.6-3.5,21.2,10.2,41.8,31.5,46.4,6,1.3,11.7,2.6,17.4,3.8,18-11.1,40.2-24.4,69.7-40.8-4.9-5.4-10-12-15.1-19.8ZM410.8,309.7c-5.5-7.3-13.7-12.9-23.6-15-4.2-.9-8.2-1.8-12.2-2.7-20.4,11.1-46.8,25.8-81.8,45.3-7.3,4.1-14.5,8-21.5,11.8,1.4,7.2,2.2,14.2,2.6,20.7,0,.6,0,1.2,0,1.8,6-5.2,14.1-10.9,18.3-13,18.4-9.2,60.6-14.2,75.9,6.1,15.8-7.6,32.5-15.6,50.3-24,.8-5.5,1.4-18.5-8-30.8Z" fill="#fff"/><path d="M365.3,397.7c-2,6.3-4.5,11.9-7.4,17-16.8,28.6-48.5,38.6-85.5,46.6-10.1,2.2-20.5,4.2-31.2,6.4-2.7-1.1-9.2-3.9-17.5-10.6-4.3-3.4-8.5-7.4-12.6-11.8-12.8-13.9-23.8-32-31-50.6-4.5-11.5-7.5-23.3-8.5-34.4-.9-10-.3-19.4,2.2-27.7,3.6-11.9,11.2-21.5,23.8-26.9,16.5-7.1,26.7-6,31.1-5.3,1.5.2,2.9.6,4.2,1,8.3,2.5,14.7,8,19.6,15,7.1,10.1,11.1,23.4,13.4,35.6,1.1,6.2,1.8,12.1,2.1,17.2.3,4.6.3,4.6.2,9.3,0,3.2,3.6,4.7,5.8,2,2.5-3.1,12.1-10.7,18.6-14.8,10.1-6.5,33.5-11.4,51.4-8,9.4,1.8,15.3,5.3,18.9,9.6,8.1,9.6,4.8,23.3,2.6,30.3Z" fill="#ff7477"/><path d="M179.4,579.9v.2s0,0-.2-.1h.2ZM252,621c-22,18.5-38.7,18.7-39.5,18.7h0c-.2,0-1.1,0-1.8,0-20.4-2.5-58.9-52.7-58.9-82.1,0-11,3.3-15.6,4.2-16.7,9.6-13.1,35.8,1.3,45.1,11.3,2.9,3.1,7.7,11.5,8.9,15.2,0,.3.7,2,2.6,2.3,2.3.3,3.2-1.7,3.4-2,.8-1.7,5-10.8,13.4-19.9,21.6-23.3,38.9-9.6,47.1-1.1,18.8,19.5.2,53.6-24.4,74.3ZM253.5,599s-.2-2.4-.2-2.4c-.1-.2-.6-1.2-1.9-1.5-15.4-4.4-66.1-13.9-73.2-16.7,0,0-.2.3-.4.7-2.1-1.2-2.1-1.4-2.3-1.2-.2.1-1.8,1.5-1.8,1.5-.1.2-.7,1.3-.2,2.6.1.3.5,1.3,1.9,2,5.3,2.7,58,12.5,73.6,16.9,1.6.4,1.7.7,3.1,0,.7-.4,1-1.2,1.5-1.9Z" fill="#ff9abd"/><path d="M477,260.1c-10.5-18-26.7-29-42.4-33.9-7.8-2.4-8.2-2.2-232-51.3,1.4-4.9,2.1-11,2.2-18.4.2-12-2.7-21.2-8.2-27.5,3.7-16.8,10.5-48.9,24.3-112,0-.3,1.1-4-1.2-7.9-1.3-2.3-3.4-4-5.9-5-1.8-.6-1.8-.5-17-3.8-5.7-1.2-11.4,2.1-13.1,7.7-.2.8-17.1,77.8-24.8,112.9-17.9,6.5-21.8,30.6-22.9,46.2-27.3,5.8-50.3,26.5-57.5,55.2-.4,1.6-76.7,348.8-76.9,350.1-8.1,39.7,16.2,76.1,51.1,87,8.1,2.5,8.3,2.1,267,59,37.1,8.1,73.8-12.6,86.7-47.3,4.1-11,3.2-11.3,79.1-356.9.7-3.1,6.8-27.9-8.5-54ZM479.3,312.7l-76.3,347.2c-7.2,32.8-38.9,57.2-74.7,53.3-8.7-1-8.6-1.5-267.9-58.4-37-8.1-59.6-44.1-53.1-79.5q.7-3.9,76.7-349.4c5.9-26.7,26.6-46.4,51.5-52.3,1.1-.3,2.1-.5,3.2-.7,1.1-.2,2.1-.4,3.2-.5,5.8-.8,11.7-.9,17.7-.2,3.7.5,5.7.8,34.2,7.1,1.1.2,2.1.5,3.3.7,1,.2,2.1.5,3.2.7,33.8,7.4,98.7,21.8,226.8,49.9,13.1,2.9,27.8,10.6,38.5,24.1,21.6,27.1,14,56.2,13.6,58ZM157.2,128.7c1.1-.7,2.3-1.4,3.7-1.9.7-.3,1.3-.5,2-.7.4-.1.9-.2,1.4-.3,3-.6,6.7-.7,8.5-.6,4.4.1,11.4.9,17.1,5.8.8.7,1.6,1.5,2.3,2.4,1,1.1,1.8,2.4,2.6,3.9,1.1,2.1,2.1,4.6,2.7,7.5,2.3,10.3,0,23.5-.1,24.7-.3,1.5-.6,2.7-.9,4-9.2-2-18.9-4.1-28.9-6.3-8.5-1.9-17-2.2-25.2-1.2,1.1-13,4.1-30.2,14.8-37.3ZM194.9,6.3c.4,0,15.1,3.3,16.4,3.6,2,.4,4,2.6,3.6,5.4,0,.1,0,.3,0,.4h0c-13,59.1-19.7,91-23.5,108.6-6.6-4.4-15.3-6.1-25.6-5,7.5-34.2,22.3-101.5,24-109.1.6-2.5,2.9-4,5.2-3.8ZM408.8,254c-7.1-2.3-7.2-1.9-232.5-51.4-34.8-7.6-69.2,13.8-77.9,48.1-.6,2.3-61.8,281-67.1,305.5-6.8,31,10.4,65.4,44.2,76.3,7.1,2.3,7.2,1.9,232.5,51.4,32.4,7.1,64.6-11,75.8-41.3,3.6-9.6,2.8-9.9,69.2-311.8.6-2.8,5.8-24.2-7.2-46.9-4.4-7.7-15.3-22.8-36.9-29.9ZM446.7,329.4c-22.2,101.1-44.4,202.2-66.6,303.4-6.2,28.3-33.6,49.4-64.4,46-7.5-.8-7.5-1.3-232.7-50.8-30.6-6.7-51.3-36.4-45.9-68.3q.6-3.3,67.1-305.6c6.6-29.9,34.5-49.5,64.1-46.4,8,.8,7.9,1.3,233.1,50.8,10.8,2.4,20.1,7.5,27.5,14.3,2.3,2.1,25,22.5,17.9,56.6ZM394.2,290.2c-6.7-2.4-6.9-1.9-222.3-49.2-24.7-5.4-49.3,9.7-55.6,34.1-.4,1.5-32.5,147.6-35.3,160.5-5.1,23.4,8.1,46.6,30.1,54.4,6.7,2.4,6.9,1.9,222.3,49.2,23.1,5.1,46.2-7.9,54.2-29.6,2.5-6.7,2-6.9,36.7-165,.3-1.7,4.3-17.1-5.2-33.5-5.5-9.5-14.2-17-25-20.9ZM418.7,340.6c-.2,1.6-.5,2.6-.5,2.7,0,0,0,0,0,0-3.2,14.4-6.3,28.7-9.5,43.1-2.4,11.1-4.9,22.2-7.3,33.4-6.1,27.6-12.1,55.2-18.2,82.8-3.9,17.9-21.5,33-42.8,31.4-5.3-.4-6.4-.8-108.2-23.3-12.8-2.8-27.2-6-43.4-9.6-15.9-3.5-33.6-7.4-53.2-11.7-5.6-1.2-11.4-2.5-17.4-3.8-21.3-4.7-35-25.2-31.5-46.4,0-.2,0-.4,0-.6,0-.3,2.8-12.7,6.7-30.5,2.7-12.1,5.8-26.7,9.1-41.6,8.6-39.4,17.9-81.5,19.3-88.1,4.4-20.2,23-33.5,42.9-31.9,5.5.4,6.5.9,119.9,25.9,11.7,2.6,24.6,5.4,38.9,8.6,15.4,3.4,32.4,7.1,51.2,11.3,4,.9,8.1,1.8,12.2,2.7,10,2.2,18.1,7.8,23.6,15,9.4,12.3,8.8,25.3,8,30.8ZM368.5,364.6c-15.3-20.3-57.5-15.3-75.9-6.1-4.2,2.1-12.3,7.9-18.3,13,0-.6,0-1.1,0-1.8-.4-6.4-1.2-13.5-2.6-20.7-2.5-12.5-6.7-25.3-13.6-35.4-4.7-6.9-10.6-12.6-18.1-16.1-11.3-5.3-25.9-5.6-45,2.6-16.4,7-25.4,20.2-28.7,36.3-1.7,8.5-1.9,17.8-.7,27.4,1.3,10.9,4.3,22.4,8.7,33.6,4.2,10.8,9.6,21.4,16,31.2,5.1,7.9,10.2,14.4,15.1,19.8,17.9,19.9,33.2,25,34.3,25.5.5,0,.4.1.9.2.2,0,.3,0,.5,0,.5,0,.4,0,2.9-.6,2.1-.4,4.1-.9,6.2-1.3,43.5-8.9,86.5-16,109.6-48.8,2.8-3.9,5.6-8.9,8-14.3,4.5-10.2,7.6-22.1,6-32.1-.8-5-2.6-9.1-5.2-12.6ZM365.3,397.7c-2,6.3-4.5,11.9-7.4,17-16.8,28.6-48.5,38.6-85.5,46.6-10.1,2.2-20.5,4.2-31.2,6.4-2.7-1.1-9.2-3.9-17.5-10.6-4.3-3.4-8.5-7.4-12.6-11.8-12.8-13.9-23.8-32-31-50.6-4.5-11.5-7.5-23.3-8.5-34.4-.9-10-.3-19.4,2.2-27.7,3.6-11.9,11.2-21.5,23.8-26.9,16.5-7.1,26.7-6,31.1-5.3,1.5.2,2.9.6,4.2,1,8.3,2.5,14.7,8,19.6,15,7.1,10.1,11.1,23.4,13.4,35.6,1.1,6.2,1.8,12.1,2.1,17.2.3,4.6.3,4.6.2,9.3,0,3.2,3.6,4.7,5.8,2,2.5-3.1,12.1-10.7,18.6-14.8,10.1-6.5,33.5-11.4,51.4-8,9.4,1.8,15.3,5.3,18.9,9.6,8.1,9.6,4.8,23.3,2.6,30.3ZM268.8,532.7c-26.3-14.5-47.4,12.2-55.6,26.6,0-.1-.1-.2-.2-.3-1.5-2.8-3.3-5.7-4.7-7.7-7.1-10.4-28.2-23.1-43.1-21.8-18.9,1.6-19.6,21.8-19.8,27.2-.6,21,16.7,50.6,34.3,69.4,20.5,21.9,32.2,20,33.1,20,.3,0,.7,0,1,0,38.2-2.9,91.8-60.9,72.5-96.3-4.6-8.4-13.5-14.6-17.6-16.9ZM252,621c-22,18.5-38.7,18.7-39.5,18.7h0c-.2,0-1.1,0-1.8,0-20.4-2.5-58.9-52.7-58.9-82.1,0-11,3.3-15.6,4.2-16.7,9.6-13.1,35.8,1.3,45.1,11.3,2.9,3.1,7.7,11.5,8.9,15.2,0,.3.7,2,2.6,2.3,2.3.3,3.2-1.7,3.4-2,.8-1.7,5-10.8,13.4-19.9,21.6-23.3,38.9-9.6,47.1-1.1,18.8,19.5.2,53.6-24.4,74.3ZM251.4,595.1c-15.4-4.4-66.1-13.9-73.2-16.7,0,0-.2.3-.4.7-2.1-1.2-2.1-1.4-2.3-1.2-.2.1-1.8,1.5-1.8,1.5-.1.2-.7,1.3-.2,2.6.1.3.5,1.3,1.9,2,5.3,2.7,58,12.5,73.6,16.9,1.6.4,1.7.7,3.1,0,.7-.4,1-1.2,1.5-1.9,0,0-.2-2.4-.2-2.4-.1-.2-.6-1.2-1.9-1.5ZM179.2,580h.2c0,0,0,.1,0,.1,0,0-.1,0-.2-.1Z" fill="#714e67"/></g></svg>