<?xml version="1.0" encoding="UTF-8"?><svg id="b" xmlns="http://www.w3.org/2000/svg" viewBox="0 0 663.4 720"><g id="c"><path d="M631.7,204.9c-42.9-41.2-96.9-50.4-154-26.8,28.3-51,33.2-93.6,14.5-127C470.3,11.9,421.5-1,395.9,0c-49.9,2.1-92.5,42.1-114,107.1-5.7,17.3-9.5,36.3-10.3,53.2-24-25-59.6-50-97.3-58-34.7-7.3-65.9.2-92.7,22.5-25.3,20.9-37.9,42.6-38.5,66.2-1.1,45.7,44.5,87.4,88.7,127.7.9.9,1.9,1.7,2.8,2.6-39.1-5.9-104.4-6.1-128.1,74.4-2.5,8.6-23.3,85.2,25.7,132.7,80.1,77.8,134.1,47.3,186.4,17.9,3.7-2.1,7.5-4.3,11.4-6.4-21.6,84.2-3.6,128.5,16.3,151.2,16.4,18.8,40.1,28.9,66.5,28.9s12-.5,18.1-1.5c34.3-5.7,69.4-33.9,89.2-71.8,17.2-32.9,21.9-69.3,14-105.5,35,35.6,84.7,77.3,151.9,47.4,15.3-6.8,53-54.9,53.5-113.1.3-36.1-14.2-85.3-79.7-125.6,54.3-3.1,87.7-18.5,99.3-46.1,18.4-43.6-26.9-98.4-27.4-98.9Z" fill="#714e67"/><path d="M619.2,217.3c-43.5-41.5-97.9-45.7-157.4-11.9-2,1.2-3.2,1.8-4.2,2.2-3.6,1.5-7.7.5-10.1-2.5-2.4-3-2.7-7.2-.5-10.4,37.6-56,48-102.7,29.9-134.9-17.2-30.6-57.3-43.1-80.3-42.1-62.7,2.6-90.9,73.5-98.1,95.1-10.2,31-11.3,57.8-7.9,71,2.5,3.8,4.7,7.4,6.4,10.9,1.8,3.7.9,8.2-2.3,10.7-3.2,2.6-7.8,2.6-11,0-3.9-3.1-6.7-7.8-8.7-13.5-18.7-27.1-60.5-63-104.3-72.3-29.2-6.2-55.4.2-78,18.8-21.2,17.5-31.7,34.9-32.1,53.1-.9,37.7,41.7,76.6,83,114.3,8.3,7.5,16.8,15.4,24.9,23,2.7,2.5,3.5,6.5,2,9.9-1.5,3.4-5,5.5-8.6,5.2-3.1-.2-7.2-1.1-12.5-2.1-33.3-6.7-102.6-20.7-126,58.9-8.1,27.4-12.7,82.4,21.1,115.2,70.7,68.7,114.7,43.9,165.6,15.2,9.7-5.5,19.8-11.1,30.1-16.2,1.2-.6,2.5-.9,3.8-.9,2,0,4.1.7,5.7,2.1,2.6,2.3,3.7,5.9,2.7,9.2-21.4,69.8-18.9,124.6,7.2,154.3,16,18.3,41.1,26.2,68.6,21.6,29.1-4.9,59.2-29.4,76.6-62.6,20.7-39.4,20.9-84.8.7-127.8-1.8-3.8-.6-8.4,2.8-10.9,3.4-2.5,8.2-2.1,11.2.8,5,4.9,10.3,10.4,15.8,16.2,35.6,37.4,80,84,143.8,55.6,8.1-3.6,42.6-45,43.1-97.2.4-51.7-34.2-95.2-100.2-125.8-3.8-1.8-5.8-5.9-4.8-10,1-4,4.7-6.8,8.8-6.7,64.7,1.9,104.9-10,116.4-34.2,15.3-32-20.5-78.2-23-81.3ZM333.3,453.7c-59.7,0-108.3-45.7-108.3-101.9s29.2-102.8,82.3-111.5c44.1-7.2,74.7,9.3,92.5,24.5,25.7,21.9,41.7,55.2,41.7,87,0,56.2-48.6,101.9-108.3,101.9Z" fill="#f8fcb9"/><path d="M424.1,351.8c0,46.5-40.7,84.4-90.8,84.4s-90.7-37.9-90.7-84.4,11.7-85.1,67.6-94.2c37.5-6.2,63.3,7.8,78.4,20.6,21.6,18.3,35.6,47.3,35.6,73.6Z" fill="#c8ece5"/><path d="M399.8,264.8c-17.9-15.2-48.5-31.8-92.5-24.5-53.1,8.7-82.3,48.3-82.3,111.5s48.6,101.9,108.3,101.9,108.3-45.7,108.3-101.9-16-65.1-41.7-87ZM333.3,436.2c-50,0-90.7-37.9-90.7-84.4s11.7-85.1,67.6-94.2c37.5-6.2,63.3,7.8,78.4,20.6,21.6,18.3,35.6,47.3,35.6,73.6,0,46.5-40.7,84.4-90.8,84.4ZM631.7,204.9c-42.9-41.2-96.9-50.4-154-26.8,28.3-51,33.2-93.6,14.5-127C470.3,11.9,421.5-1,395.9,0c-49.9,2.1-92.5,42.1-114,107.1-5.7,17.3-9.5,36.3-10.3,53.2-24-25-59.6-50-97.3-58-34.7-7.3-65.9.2-92.7,22.5-25.3,20.9-37.9,42.6-38.5,66.2-1.1,45.7,44.5,87.4,88.7,127.7.9.9,1.9,1.7,2.8,2.6-39.1-5.9-104.4-6.1-128.1,74.4-2.5,8.6-23.3,85.2,25.7,132.7,80.1,77.8,134.1,47.3,186.4,17.9,3.7-2.1,7.5-4.3,11.4-6.4-21.6,84.2-3.6,128.5,16.3,151.2,16.4,18.8,40.1,28.9,66.5,28.9s12-.5,18.1-1.5c34.3-5.7,69.4-33.9,89.2-71.8,17.2-32.9,21.9-69.3,14-105.5,35,35.6,84.7,77.3,151.9,47.4,15.3-6.8,53-54.9,53.5-113.1.3-36.1-14.2-85.3-79.7-125.6,54.3-3.1,87.7-18.5,99.3-46.1,18.4-43.6-26.9-98.4-27.4-98.9ZM642.2,298.6c-11.6,24.3-51.8,36.1-116.4,34.2-4.1,0-7.8,2.7-8.8,6.7-1,4,1.1,8.2,4.8,10,66,30.6,100.6,74.1,100.2,125.8-.4,52.3-35,93.6-43.1,97.2-63.8,28.4-108.2-18.2-143.8-55.6-5.6-5.8-10.8-11.3-15.8-16.2-3-2.9-7.7-3.3-11.2-.8-3.4,2.5-4.6,7-2.8,10.9,20.2,42.9,20,88.3-.7,127.8-17.4,33.2-47.5,57.8-76.6,62.6-27.6,4.6-52.6-3.3-68.6-21.6-26-29.8-28.6-84.6-7.2-154.3,1-3.3,0-7-2.7-9.2-1.6-1.4-3.6-2.1-5.7-2.1s-2.6.3-3.8.9c-10.3,5-20.4,10.7-30.1,16.2-50.9,28.7-94.8,53.5-165.6-15.2-33.8-32.8-29.1-87.8-21.1-115.2,23.4-79.6,92.7-65.6,126-58.9,5.3,1.1,9.4,1.9,12.5,2.1,3.6.3,7.1-1.8,8.6-5.2,1.5-3.4.7-7.3-2-9.9-8.1-7.7-16.6-15.5-24.9-23-41.2-37.7-83.9-76.6-83-114.3.4-18.2,11-35.6,32.1-53.1,22.5-18.7,48.8-25,78-18.8,43.8,9.2,85.5,45.2,104.3,72.3,2,5.7,4.9,10.4,8.7,13.5,3.2,2.6,7.8,2.6,11,0,3.2-2.6,4.2-7.1,2.3-10.7-1.7-3.4-3.9-7.1-6.4-10.9-3.4-13.3-2.4-40,7.9-71,7.2-21.7,35.3-92.5,98.1-95.1,23.1-1,63.2,11.5,80.3,42.1,18.1,32.3,7.7,78.9-29.9,134.9-2.2,3.2-2,7.4.5,10.4,2.4,3,6.6,4,10.1,2.5,1-.4,2.2-1.1,4.2-2.2,59.5-33.7,113.9-29.6,157.4,11.9,2.5,3.1,38.3,49.3,23,81.3Z" fill="#714e67"/></g></svg>