<?xml version="1.0" encoding="UTF-8"?><svg id="b" xmlns="http://www.w3.org/2000/svg" viewBox="0 0 591.2 720"><g id="c"><path d="M589.5,177.9c-6.1-25.7-28.8-71.3-47.2-86.1-3.9-4.5-8.7-8.1-14.2-10.5-8.8-3.9-9.2-2.8-378.8-80.4-21.3-4.5-42.2,9.3-47.3,30.9-.4,1.6-93.2,473.5-101.3,514.7-1.6,8-.8,15.9,1.9,23,2.3,22.7,28.3,57.1,47.3,64.2q4.1,1.5,387,85.5c19,4.2,40.2-7.1,46.6-28.4q1.1-3.8,107.3-496.3c.2-1.4,1.2-5.8-1.4-16.5Z" fill="#714e67"/><path d="M406.6,479.8c-37.8-3-90.4,23.9-107.4,32.6h0c-2.4,1.3-20.1,10-26.4,28.1-7,20,6.4,39.8,43.9,34.5,31.1-4.4,83.2-28.1,101.7-35,23.5-8.7,33.9-56.4-11.8-60.1ZM323.3,564.2c-15.9,3.7-30.9-10.9-26.9-27.7,2.4-10.2,12.9-19.8,27.1-16.4,1.9.5,8.5,2.3,13.4,9.7,8.4,12.9,1.8,30.8-13.6,34.4ZM396.5,540.8c-15.9,3.7-30.9-10.9-26.9-27.7,2.4-10.2,12.9-19.8,27.1-16.4,1.9.5,8.5,2.3,13.4,9.7,8.4,12.9,1.8,30.8-13.6,34.4ZM538.9,97.6c-.3-.5-.7-.9-1.1-1.3-1.9-2.3-4.2-4.4-6.7-6.1-3.5-2.4-7.6-4.3-12.1-5.2-21.3-4.5-41.4-8.7-60.3-12.7C149.4,7.2,148.9,6.1,140,6.4c-15.2.6-28.8,11.9-32,28.2C100.2,74.3,13.4,515.4,7.2,547.2c-.2,1.2-.4,1.8-.4,1.8-.6,3.7-.6,7.4,0,10.9.4,2.8,1.2,5.6,2.2,8.2,4.2,10.5,13.1,18.7,24.7,21.1q370.1,77.7,375.7,78.5c17.8,1.1,32.2-12.2,35.2-27.7,33.7-171.2,67.3-342.4,101-513.6,0,0,0,0,0,0,0-.4,3.7-15.3-6.7-28.9ZM60.9,407.3c12.2.2,21.8,9.6,25.4,13.3.9.9.9,2.1.9,2.3,0,1.3-.8,2.1-1,2.2-2.3,2.2-4.6-.2-4.9-.5-12.1-12.3-20.7-10.8-21.2-11-.8-.3-1.7-.4-2.2-.9,0,0-1-2.2-1-2.3.3-.8.3-1.7.9-2.3,1.2-1.2,1.3-1,3-1ZM29.7,442.5c.4-2.3,2.5-16,11.4-25.9,1-1.1,1-1.3,2.5-1.3.2,0,1.3,0,2.3.8.9.9,1,.9,1,2.2,0,.3,0,.5,0,.7,0,.5-.1.7-.3,1-.2.3-.5.6-1,1.1-8.1,9.3-9.6,22.7-9.7,22.8-.4.7-.6,1.6-1.3,2.1,0,0-2.4.6-2.4.6-.7-.4-1.6-.6-2.1-1.3-.9-1.2-.8-1.4-.5-2.9ZM36.3,492.7c-.3.2-1.8,1.3-3.9-2.4,0-.2-.4-1.6-.7-2.9-.2-1.2-.5-2.3-.5-2.5-.3-1.6-.6-3.1-.8-4.5-.4-2.5-.7-4.9-.9-7-.5-4.9-.7-8.8-.7-11.1,0-1.3.7-2.2.9-2.3.9-.9.9-1,2.2-1,1.1,0,1.3,0,2,.6,0,0,.2.2.3.3,1.2,1.2,1,1.3,1,3,0,.4,0,.9,0,1.3.2,3.4.4,6.4.7,9.2,1,9.7,2.7,15.3,2.6,15.5-.1.8,0,1.7-.4,2.4-.4.7-1.3,1-2,1.4ZM57.2,533.8c-.2.3-1.1,1.9-4.5-.6,0,0-1.3-1.8-2.8-3.8-6.6-9.4-10-17.4-11.5-20.8-.5-1.2,0-2.3,0-2.5.5-1.2,1.5-1.7,1.7-1.7,1.2-.5,1.3-.5,2.4,0,1.6.6,1.4.9,2.1,2.4,5.9,13.6,13.1,22.2,13.1,22.5.2.8.7,1.6.6,2.4,0,.8-.8,1.4-1.2,2.1ZM93.8,557c-.6.6-1.5.7-2.3.9-.6.1-9.9-.8-12.8-.3-1.7.3-2.2-.2-5.5-2.9-4.2-3.5-7.1-6.3-7.8-7-1-.9-1-2.1-1-2.3s.9-2.3.9-2.3c.8-.3,1.4-.9,2.2-1,1.7,0,1.6.3,2.9,1.5,3.6,3.5,6.8,6.2,8.5,7.5,2.6-.2,5,.1,12.7.4,1.3,0,1.3,0,2.2,1,0,0,.9,2.3.9,2.3-.3.7-.4,1.7-1,2.2ZM137.4,550.4c-.3.2-4.2,1.6-4.5,1.7-10.3,3.6-18.9,4.7-22.5,5.1-1.3.2-2.2-.6-2.4-.7-1-.8-1.2-1.9-1.2-2.1-.1-1.3-.1-1.3.7-2.3,1-1.3,1.2-1.1,2.9-1.3,14.8-1.8,24.4-6.3,24.7-6.3.8,0,1.7-.3,2.4,0,.7.3,1.2,1.1,1.7,1.7.3.3,1.6,1.6-1.7,4.2ZM90.2,541.3c-1.5.4-2.2-.2-2.5-.3-10.3-6-33.6-20.1-40.4-52-.3-1.2-1.8-8.5-2.1-15.8-.7-21.9,16-40.7,39.1-26.5,7.9,4.8,14.6,12.8,17.6,16.8,12.2-6.5,47.6-24.3,63.7-3.4,10.6,13.8,6.7,37.9,1.4,44.7-11,14.4-23.4,21.8-25.7,23.2-23.7,14.3-46.1,12-51.2,13.2ZM92.4,437s1.4-2,1.4-2c.8-.1,1.6-.6,2.4-.4,1.7.4,1.6.6,2.5,2.1,2.2,3.4,4,6.6,5.2,8.8,2.5-1.2,5.6-2.6,9.7-4.4.2,0,1.2-.5,2.4,0,0,0,1.7,1.7,1.7,1.7,0,.8.3,1.7,0,2.4-.6,1.6-.9,1.4-2.4,2-8.6,3.6-11.4,5.4-12.5,5.5-2.1.2-3-1.4-3.2-1.7-.5-.9-2.7-5.2-6.8-11.7-.7-1.1-.7-1.1-.4-2.4ZM131.2,434.8s1.7-.5,3-.8c7.2-1.8,15.8-3.3,24.2-2.7,3.9.3,3.7,3.1,3.7,3.5,0,1.3-.1,1.3-1.1,2.2-1.2,1-1.4.8-3,.7-12.2-.8-24.7,3.4-25,3.3-.8,0-1.7.1-2.4-.3-.7-.4-1-1.3-1.5-1.9-.2-.3-1.4-1.8,2.2-4ZM175.8,524.2c-.2.3-3.7,3.6-4.1,3.9-8.1,7.5-14.8,11.8-17.5,13.6-1.1.7-2.2.5-2.4.4-1.3-.3-1.9-1.2-2-1.4-.7-1.1-.7-1.2-.4-2.4.4-1.6.6-1.5,2-2.4,11.9-7.6,19.6-16.1,19.8-16.2.7-.3,1.4-.9,2.2-.9s1.5.6,2.2.9c.3.1,2.1.8,0,4.5ZM174.3,442.9c-.5-.7-1.2-1.3-1.3-2.1,0,0,.5-2.4.5-2.4,2.3-1.5,2.6-2.1,4.8-.5,10.8,7.8,13.5,20.1,14.5,24.4.3,1.3-.4,2.2-.5,2.4-.7,1.1-1.8,1.3-2,1.4-1.3.3-1.3.2-2.4-.5-1.4-.9-1.2-1.2-1.6-2.8-3.3-15.1-11.7-19.5-12.1-20ZM188.1,508.4c-.6,1.5-.5,1.7-2,2.3-1.2.5-1.3.5-2.4,0-.4-.2-2.9-1.3-1.4-4.8,4.4-10.2,5.2-22.3,5.3-24.2,0-1.5,0-1.7,1.1-2.7.6-.5,1.5-.5,2.3-.8.4-.1,2.1-.7,3,3.4,0,.2-.8,15-5.8,26.9ZM421.2,545.7c-26.8,10.1-78.4,34.1-110.7,36.3-56.4,3.8-59.6-50.5-15.8-74.4q.1,0,1.6-.8c14.5-7.4,93.6-49.1,132-27.3,28.3,16.1,16.7,57.3-7.1,66.3ZM492.1,130.6q-50.5,256.8-50.9,258.1c-3.4,11.4-19.2,17.3-36.2,13.7-295.2-62-295.3-61.4-302.6-64-9.2-3.3-16.3-8.9-19.8-15.4-.9-1.7-1.5-3.4-1.9-5.2-.3-1.6-.4-3.2-.2-4.9,0-.5,0-1,.2-1.5,4.1-20.6,50.5-256.7,50.7-257.5,3.1-11.8,19.1-18,36.4-14.3,74.1,15.6,129.6,27.2,171.3,35.9,8.6,1.8,16.6,3.5,24,5,17.5,3.7,32.1,6.7,44.1,9.2,57.1,11.9,59.1,12.4,63.5,14,9,3.2,16,8.8,19.4,15.2,3.1,6,2.1,10.6,1.9,11.6Z" fill="#ffcfec"/><path d="M462.9,108.2c-32.6-6.8-61.5-12.9-87.3-18.4-20.4-4.3-38.9-8.2-55.5-11.7-1.1-.2-2.3-.5-3.4-.7-149.6-31.6-150.8-32.1-157-32.3-12.1-.5-20.8,4.4-22.1,11.1-18.9,96.3-30.8,156.3-38.2,193.9-2,10.2-3.7,18.8-5.1,26-2.8,14.2-4.5,22.9-5.6,28.3-1.7,8.5-1.7,8.8-1.7,9.3-.7,8.4,9.4,17.4,23.1,20.3,295.3,62,295.2,62.8,303.6,63.1,12.1.4,20.6-4.7,21.8-10.9,16.8-85.6,33.7-171.2,50.5-256.8h0c0-.1,0-.2,0-.4,1.3-7.9-8.3-17.7-23-20.8ZM136.8,211.7c-1.4-.2-4-1.5-8.8-8.7-1.6-2.4-3.2-5.1-4.5-8.1-1.5-3.3-2.8-6.9-3.5-10.5-.2-.8-.3-1.6-.4-2.3-.8-6.1,0-12.5,3.3-18.3.5-.9,1.6-2,3-3,0,0,0,0,0,0,2-1.4,4.7-2.3,7.7-1.8,1,.2,1.9.5,2.9,1.1,3.4,2,5.9,6,7.6,10.3.8-2.1,2.1-3.7,4.2-4.7,4.1-2.1,11.5-1,14.3.3,16.1,7.1,6.6,38.5-23.4,45.8-1.3.3-1.6.6-2.5.1ZM465.3,155.1q-38.4,195.1-38.9,197.1c-3.1,8.6-15.1,13-27.9,10.3-220.9-46.4-221.1-45.8-227.3-48.1-11.9-4.4-17.6-13.6-16.2-20.9,3.1-15.7,38.3-195,38.7-196.4,2.6-9.2,14.9-14.1,28.2-11.3,220.9,46.4,221.1,45.8,227.3,48.1,5.6,2.1,10.2,5.4,13.1,9.3,4.4,6,3.2,11,3.1,11.8Z" fill="#9e799d"/><path d="M337.2,168.8l1.6.3c-.6.3-1.2.5-1.8.8l.2-1.1ZM459.1,153.6c0,0,0,.2,0,.3h0c-12.8,65.1-25.6,130.2-38.4,195.3-.8,4.3-6.8,7.9-15.3,7.7-6.5-.1-6.4-.8-227.4-47.2-10.1-2.1-17-8.8-16.6-14.4q0-1.1,38.5-195.9c1-5,7.8-8.2,15.8-7.9,6.1.2,6.1.8,226.9,47.2,10.4,2.2,17.5,9.1,16.5,14.9ZM410.1,204.1l-10.7-2.1,2-10-11.2-2.2,2.1-10.3-11.3-2.2-.4,2.2c-1-.8-2.1-1.7-3.5-2.7l3.8.8,2.1-10.7-44.1-8.7-2.1,10.5-10.9-2.2-2,10.3-8.8-1.7c-.2-.4-.5-.9-.8-1.5-.1-.2-.3-.5-.4-.7l1.7-8.4-10.3-2c-.2-.2-.4-.3-.5-.5l2-10.2-44.1-8.7-2.1,10.7,1.3.3c-.5.2-1,.3-1.5.5l.2-1-11.3-2.2-1.9,9.4c-.4.2-.8.5-1.2.7l-10.2-2-2,10-10.7-2.1-8.9,44.6,10.9,2.2-2.1,10.5,10.9,2.2-2.1,10.6,11.3,2.2.6-3c.9,1.1,1.7,2.2,2.6,3.3l-3-.6-2.1,10.7,10.8,2.1-2.1,10.4,10.4,2.1-1.9,9.4,11.2,2.2-2,9.9,11,2.2-1.9,9.7,33.9,6.7,1.9-9.8,11,2.2,1.7-8.7c.6-.3,1.3-.6,1.9-.8l9.5,1.9,1.5-7.4c.9-.5,1.8-1,2.7-1.5l8,1.6,1.4-7.2c1.3-.8,2.7-1.7,4-2.5l7.4,1.5,1.5-7.5c1.1-.8,2.3-1.6,3.4-2.4l8.6,1.7,2-9.8c.3-.2.6-.5.8-.7l10.2,2,2.1-10.5,10.9,2.2,8.8-44.6ZM312.4,293.8v-.5c-.2.1-.5.2-.9.3l.9.2ZM390,190.1l-1.5-.3c.4.5.8,1.1,1.3,1.7l.3-1.4ZM398.3,204l.3-1.4-1-.2c.3.5.5,1.1.8,1.6ZM389.9,246.2l.4-2.3c-.6.6-1.3,1.3-2,2l1.5.3ZM234.3,170.1v.6c0-.2.2-.3.4-.5h-.4ZM252.6,251.9l2.6.5c-.7-1-1.4-2.1-2.1-3.1l-.5,2.6ZM234.4,226.6h.5c-.1,0-.3-.2-.4-.3v.3ZM269.9,275.4h.4c-.1,0-.2-.2-.3-.4v.4ZM261.5,263.4l1.1.2c-.3-.5-.6-.9-.9-1.4l-.2,1.1Z" fill="#d1e1f4"/><path d="M135.8,205.6v.2s0,0-.2,0h.2ZM160.3,171.7c-2-.9-8.4-1.6-9.7.1-1.7,2.3-1.8,12.6-2.9,14.4-1.3,2.4-5.2,2.2-5.9-.9,0-.1-2.8-16.4-8.3-19.7-.2-.1-.7-.4-1.5-.5-.9,0-2.2.3-3.6,1.9-.4.7-4.4,6.7-1.8,17.5.8,3.2,2.1,6.9,4.4,11,2.2,4.1,5.1,7.9,7,9.7.7-.2,1.7-.4,2.9-.8,22.5-7.4,27.8-29,19.4-32.7Z" fill="#fb96b8"/><path d="M257.5,174.4c1.8-1.1,3.8-.7,4.1-.6.7.2,1.3.4,1.9.8,1.9,1.3,2.2,3.1,2.3,3.4.4,2.1-.7,3.6-.9,3.8-.8,1.1-1,1.1-2.2,1.8-12.9,7.5-12.8,14.6-11.8,21,.5,3.1,1.3,6.1,2,9.4.2.9.2.9,0,1.7,0,.2-.3,1.5-1.5,2.3,0,0-.6.4-1.4.6-.2,0-1.5.3-2.9-.5-.4-.3-.8-.6-1.1-1-.7-.9-.5-1-.8-2-2.5-8.2-8.5-20.3,2.2-32.5,2.3-2.6,5.4-5.2,10-8.1Z" fill="#fff"/><path d="M51.8,475.7c-1.4-16.5,6.7-26.1,15-27.3,15.4-2.2,30.5,19.6,31.7,21.2.2.2,1.5,1.9,3.6,1.1,1.6-.6,26.4-15.8,44.6-13.9,25.8,2.7,19.6,38.7,15.3,44.2-6.5,8.3-19.5,22.8-41.7,29.5-14,4.3-24.7,3.5-30.5,4.4-5.1-3-16.9-10.1-25.7-22.6-8.6-12.2-11.4-25.1-12.3-36.6ZM225.1,213.9l-10.9-2.2,8.9-44.6,10.7,2.1,2-10,10.2,2c.4-.2.8-.5,1.2-.7l1.9-9.4,11.3,2.2-.2,1c.5-.2,1-.3,1.5-.5l-1.3-.3,2.1-10.7,44.1,8.7-2,10.2c.2.2.4.3.5.5l10.3,2-1.7,8.4c.1.2.3.4.4.7.4.6.6,1,.8,1.5l8.8,1.7,2-10.3,10.9,2.2,2.1-10.5,44.1,8.7-2.1,10.7-3.8-.8c1.4,1.1,2.5,1.9,3.5,2.7l.4-2.2,11.3,2.2-2.1,10.3,11.2,2.2-2,10,10.7,2.1-8.8,44.6-10.9-2.2-2.1,10.5-10.2-2c-.3.2-.6.5-.8.7l-2,9.8-8.6-1.7c-1.1.8-2.2,1.6-3.4,2.4l-1.5,7.5-7.4-1.5c-1.3.8-2.6,1.7-4,2.5l-1.4,7.2-8-1.6c-.9.5-1.8,1-2.7,1.5l-1.5,7.4-9.5-1.9c-.6.3-1.3.6-1.9.8l-1.7,8.7-11-2.2-1.9,9.8-33.9-6.7,1.9-9.7-11-2.2,2-9.9-11.2-2.2,1.9-9.4-10.4-2.1,2.1-10.4-10.8-2.1,2.1-10.7,3,.6c-.9-1.1-1.7-2.3-2.6-3.3l-.6,3-11.3-2.2,2.1-10.6-10.9-2.2,2.1-10.5ZM397.6,202.4c.3.5.5,1.1.8,1.6l.3-1.4-1-.2ZM388.5,189.8c.4.5.8,1.1,1.3,1.7l.3-1.4-1.5-.3ZM388.4,245.9l1.5.3.4-2.3c-.6.6-1.3,1.3-2,2ZM336.9,169.9c.6-.3,1.2-.5,1.8-.8l-1.6-.3-.2,1.1ZM311.5,293.6l.9.2v-.5c-.2.1-.5.2-.9.3ZM269.9,275.4h.4c-.1,0-.2-.2-.3-.4v.4ZM255.2,252.4c-.7-1-1.4-2.1-2.1-3.1l-.5,2.6,2.6.5ZM262.6,263.6c-.3-.5-.6-.9-.9-1.4l-.2,1.1,1.1.2ZM245.3,215c.3,1.1.2,1.1.8,2,.3.4.6.7,1.1,1,1.3.8,2.6.6,2.9.5.7-.1,1.3-.5,1.4-.6,1.3-.8,1.5-2.1,1.5-2.3.2-.9,0-.9,0-1.7-.6-3.2-1.5-6.3-2-9.4-1-6.4-1.1-13.5,11.8-21,1.3-.7,1.4-.6,2.2-1.8.2-.3,1.3-1.7.9-3.8,0-.3-.4-2.2-2.3-3.4-.6-.4-1.2-.7-1.9-.8-.3,0-2.3-.5-4.1.6-4.7,2.9-7.7,5.5-10,8.1-10.7,12.1-4.7,24.3-2.2,32.5ZM234.9,226.7c-.1-.1-.3-.2-.4-.4v.3c0,0,.4,0,.4,0ZM234.2,170.7c.2-.2.3-.3.5-.5h-.4c0,0-.1.5-.1.5ZM321.9,526.4h0c-14.9-3.5-25.1,12.9-16.8,25.1,6.8,10,22.2,9.2,27.5-2.3,4-8.6-.4-19.6-10.2-22.6l-.6-.2ZM552.1,112.6c1.3,8,0,14-.2,15.1q-101,513.5-101.5,515.7c-5.5,21.1-26.1,34.3-47,29.9C33.7,595.8,33.3,596.9,24.5,593c-3.5-1.5-6.7-3.6-9.5-6,9.3,18.8,27.4,38.6,39.5,41.3,382.4,84.3,382.4,84.9,388.9,85.2,15.5.8,30.9-9.7,34.8-27.7l106.4-492.8s0,0,0-.1c2.3-13.9-15.3-55.4-32.6-80.3ZM395.2,502.9h0c-14.9-3.5-25.1,12.9-16.8,25.1,6.8,10,22.2,9.2,27.5-2.3,4-8.6-.4-19.6-10.2-22.6l-.6-.2Z" fill="#fe6d68"/><path d="M589.5,177.9c-6.1-25.7-28.8-71.3-47.2-86.1-3.9-4.5-8.7-8.1-14.2-10.5-8.8-3.9-9.2-2.8-378.8-80.4-21.3-4.5-42.2,9.3-47.3,30.9-.4,1.6-93.2,473.5-101.3,514.7-1.6,8-.8,15.9,1.9,23,2.3,22.7,28.3,57.1,47.3,64.2q4.1,1.5,387,85.5c19,4.2,40.2-7.1,46.6-28.4q1.1-3.8,107.3-496.3c.2-1.4,1.2-5.8-1.4-16.5ZM584.6,193s0,0,0,.1l-106.4,492.8c-3.9,18-19.3,28.5-34.8,27.7-6.6-.3-6.5-1-388.9-85.2-12.1-2.7-30.2-22.5-39.5-41.3,2.9,2.4,6.1,4.4,9.5,6,8.8,3.9,9.2,2.8,378.8,80.4,21,4.4,41.5-8.8,47-29.9q.6-2.2,101.5-515.7c.2-1.1,1.5-7.2.2-15.1,17.3,24.9,34.9,66.4,32.6,80.3ZM140,6.4c8.9-.4,9.4.8,318.7,65.9,18.9,4,39,8.2,60.3,12.7,4.5.9,8.5,2.8,12.1,5.2,2.5,1.7,4.8,3.8,6.7,6.1.4.4.8.9,1.1,1.3,10.4,13.6,6.8,28.5,6.7,28.9,0,0,0,0,0,0-33.7,171.2-67.4,342.4-101,513.6-3,15.5-17.4,28.8-35.2,27.7q-5.6-.3-375.7-78.5c-11.5-2.4-20.5-10.6-24.7-21.1-1-2.6-1.8-5.3-2.2-8.2-.5-3.5-.5-7.2,0-10.9,0,0,.1-.7.4-1.8,6.2-31.9,93-472.9,100.8-512.6,3.2-16.3,16.8-27.5,32-28.2ZM167.1,504.9c5.2-6.8,9.2-31-1.4-44.7-16.1-20.9-51.6-3.2-63.7,3.4-3.1-4-9.7-12-17.6-16.8-23.1-14.2-39.8,4.7-39.1,26.5.2,7.3,1.8,14.6,2.1,15.8,6.8,31.8,30.1,46,40.4,52,.3,0,1,.6,2.5.3,5.1-1.2,27.6,1.1,51.2-13.2,2.4-1.4,14.8-8.9,25.7-23.2ZM120.3,530.5c-14,4.3-24.7,3.5-30.5,4.4-5.1-3-16.9-10.1-25.7-22.6-8.6-12.2-11.4-25.1-12.3-36.6-1.4-16.5,6.7-26.1,15-27.3,15.4-2.2,30.5,19.6,31.7,21.2.2.2,1.5,1.9,3.6,1.1,1.6-.6,26.4-15.8,44.6-13.9,25.8,2.7,19.6,38.7,15.3,44.2-6.5,8.3-19.5,22.8-41.7,29.5ZM30.2,445.3c-.9-1.2-.8-1.4-.5-2.9.4-2.3,2.5-16,11.4-25.9,1-1.1,1-1.3,2.5-1.3.2,0,1.3,0,2.3.8.9.9,1,.9,1,2.2,0,.3,0,.5,0,.7,0,.5-.1.7-.3,1-.2.3-.5.6-1,1.1-8.1,9.3-9.6,22.7-9.7,22.8-.4.7-.6,1.6-1.3,2.1,0,0-2.4.6-2.4.6-.7-.4-1.6-.6-2.1-1.3ZM139.1,546.2c.3.3,1.6,1.6-1.7,4.2-.3.2-4.2,1.6-4.5,1.7-10.3,3.6-18.9,4.7-22.5,5.1-1.3.2-2.2-.6-2.4-.7-1-.8-1.2-1.9-1.2-2.1-.1-1.3-.1-1.3.7-2.3,1-1.3,1.2-1.1,2.9-1.3,14.8-1.8,24.4-6.3,24.7-6.3.8,0,1.7-.3,2.4,0,.7.3,1.2,1.1,1.7,1.7ZM93.9,552.5s.9,2.3.9,2.3c-.3.7-.4,1.7-1,2.2-.6.6-1.5.7-2.3.9-.6.1-9.9-.8-12.8-.3-1.7.3-2.2-.2-5.5-2.9-4.2-3.5-7.1-6.3-7.8-7-1-.9-1-2.1-1-2.3s.9-2.3.9-2.3c.8-.3,1.4-.9,2.2-1,1.7,0,1.6.3,2.9,1.5,3.6,3.5,6.8,6.2,8.5,7.5,2.6-.2,5,.1,12.7.4,1.3,0,1.3,0,2.2,1ZM57.9,412.8s-1-2.2-1-2.3c.3-.8.3-1.7.9-2.3,1.2-1.2,1.3-1,3-1,12.2.2,21.8,9.6,25.4,13.3.9.9.9,2.1.9,2.3,0,1.3-.8,2.1-1,2.2-2.3,2.2-4.6-.2-4.9-.5-12.1-12.3-20.7-10.8-21.2-11-.8-.3-1.7-.4-2.2-.9ZM57.8,529.3c.2.8.7,1.6.6,2.4,0,.8-.8,1.4-1.2,2.1-.2.3-1.1,1.9-4.5-.6,0,0-1.3-1.8-2.8-3.8-6.6-9.4-10-17.4-11.5-20.8-.5-1.2,0-2.3,0-2.5.5-1.2,1.5-1.7,1.7-1.7,1.2-.5,1.3-.5,2.4,0,1.6.6,1.4.9,2.1,2.4,5.9,13.6,13.1,22.2,13.1,22.5ZM38.3,491.2c-.4.7-1.3,1-2,1.4-.3.2-1.8,1.3-3.9-2.4,0-.2-.4-1.6-.7-2.9-.2-1.2-.5-2.3-.5-2.5-.3-1.6-.6-3.1-.8-4.5-.4-2.5-.7-4.9-.9-7-.5-4.9-.7-8.8-.7-11.1,0-1.3.7-2.2.9-2.3.9-.9.9-1,2.2-1,1.1,0,1.3,0,2,.6,0,0,.2.2.3.3,1.2,1.2,1,1.3,1,3,0,.4,0,.9,0,1.3.2,3.4.4,6.4.7,9.2,1,9.7,2.7,15.3,2.6,15.5-.1.8,0,1.7-.4,2.4ZM186.4,462.8c-3.3-15.1-11.7-19.5-12.1-20-.5-.7-1.2-1.3-1.3-2.1,0,0,.5-2.4.5-2.4,2.3-1.5,2.6-2.1,4.8-.5,10.8,7.8,13.5,20.1,14.5,24.4.3,1.3-.4,2.2-.5,2.4-.7,1.1-1.8,1.3-2,1.4-1.3.3-1.3.2-2.4-.5-1.4-.9-1.2-1.2-1.6-2.8ZM129.1,438.8c-.2-.3-1.4-1.8,2.2-4,0,0,1.7-.5,3-.8,7.2-1.8,15.8-3.3,24.2-2.7,3.9.3,3.7,3.1,3.7,3.5,0,1.3-.1,1.3-1.1,2.2-1.2,1-1.4.8-3,.7-12.2-.8-24.7,3.4-25,3.3-.8,0-1.7.1-2.4-.3-.7-.4-1-1.3-1.5-1.9ZM99.6,451.1c-.5-.9-2.7-5.2-6.8-11.7-.7-1.1-.7-1.1-.4-2.4,0,0,1.4-2,1.4-2,.8-.1,1.6-.6,2.4-.4,1.7.4,1.6.6,2.5,2.1,2.2,3.4,4,6.6,5.2,8.8,2.5-1.2,5.6-2.6,9.7-4.4.2,0,1.2-.5,2.4,0,0,0,1.7,1.7,1.7,1.7,0,.8.3,1.7,0,2.4-.6,1.6-.9,1.4-2.4,2-8.6,3.6-11.4,5.4-12.5,5.5-2.1.2-3-1.4-3.2-1.7ZM194,481.5c0,.2-.8,15-5.8,26.9-.6,1.5-.5,1.7-2,2.3-1.2.5-1.3.5-2.4,0-.4-.2-2.9-1.3-1.4-4.8,4.4-10.2,5.2-22.3,5.3-24.2,0-1.5,0-1.7,1.1-2.7.6-.5,1.5-.5,2.3-.8.4-.1,2.1-.7,3,3.4ZM175.8,524.2c-.2.3-3.7,3.6-4.1,3.9-8.1,7.5-14.8,11.8-17.5,13.6-1.1.7-2.2.5-2.4.4-1.3-.3-1.9-1.2-2-1.4-.7-1.1-.7-1.2-.4-2.4.4-1.6.6-1.5,2-2.4,11.9-7.6,19.6-16.1,19.8-16.2.7-.3,1.4-.9,2.2-.9s1.5.6,2.2.9c.3.1,2.1.8,0,4.5ZM428.3,479.4c-38.4-21.9-117.5,19.9-132,27.3q-1.4.8-1.6.8c-43.8,24-40.6,78.2,15.8,74.4,32.2-2.2,83.8-26.1,110.7-36.3,23.8-9,35.4-50.2,7.1-66.3ZM418.5,539.9c-18.6,6.9-70.6,30.6-101.7,35-37.5,5.3-50.9-14.5-43.9-34.5,6.3-18,24-26.8,26.4-28.1h0c17.1-8.7,69.6-35.6,107.4-32.6,45.7,3.7,35.4,51.4,11.8,60.1ZM323.5,520.2c-14.2-3.4-24.7,6.2-27.1,16.4-3.9,16.8,11,31.4,26.9,27.7,15.3-3.6,22-21.5,13.6-34.4-4.8-7.4-11.5-9.2-13.4-9.7ZM332.7,549.1c-5.3,11.6-20.7,12.3-27.5,2.3-8.3-12.1,1.9-28.6,16.8-25.1h0s.6.2.6.2c9.7,2.9,14.2,13.9,10.2,22.6ZM396.7,496.7c-14.2-3.4-24.7,6.2-27.1,16.4-3.9,16.8,11,31.4,26.9,27.7,15.3-3.6,22-21.5,13.6-34.4-4.8-7.4-11.5-9.2-13.4-9.7ZM405.9,525.7c-5.3,11.6-20.7,12.3-27.5,2.3-8.3-12.1,1.9-28.6,16.8-25.1h0s.6.2.6.2c9.7,2.9,14.2,13.9,10.2,22.6ZM80.5,313c-.2,1.6,0,3.3.2,4.9.4,1.8,1,3.5,1.9,5.2,3.4,6.5,10.5,12.2,19.8,15.4,7.3,2.6,7.4,2,302.6,64,17,3.6,32.8-2.3,36.2-13.7q.4-1.3,50.9-258.1c.2-1,1.2-5.6-1.9-11.6-3.4-6.4-10.4-12-19.4-15.2-4.4-1.6-6.3-2.1-63.5-14-12.1-2.5-26.6-5.6-44.1-9.2-7.4-1.6-15.4-3.2-24-5-41.7-8.7-97.2-20.3-171.3-35.9-17.3-3.6-33.3,2.5-36.4,14.3-.2.8-46.6,236.9-50.7,257.5,0,.5-.1,1-.2,1.5ZM99.3,250.1c7.4-37.6,19.2-97.7,38.2-193.9,1.3-6.7,10-11.5,22.1-11.1,6.2.2,7.4.8,157,32.3,1.1.2,2.2.5,3.4.7,16.6,3.5,35.1,7.4,55.5,11.7,25.8,5.4,54.8,11.5,87.3,18.4,14.7,3.1,24.3,12.9,23,20.8,0,.1,0,.3,0,.4h0c-16.8,85.6-33.7,171.2-50.5,256.8-1.2,6.2-9.7,11.3-21.8,10.9-8.4-.3-8.3-1.1-303.6-63.1-13.6-2.9-23.8-11.9-23.1-20.3,0-.4,0-.7,1.7-9.3,1.1-5.4,2.8-14.1,5.6-28.3,1.4-7.2,3.1-15.7,5.1-26ZM171.2,314.4c6.2,2.3,6.3,1.8,227.3,48.1,12.8,2.7,24.7-1.7,27.9-10.3q.7-1.9,38.9-197.1c.1-.8,1.3-5.9-3.1-11.8-2.8-3.8-7.4-7.2-13.1-9.3-6.2-2.3-6.3-1.8-227.3-48.1-13.3-2.8-25.6,2.1-28.2,11.3-.4,1.4-35.6,180.7-38.7,196.4-1.4,7.3,4.3,16.4,16.2,20.9ZM215.6,91.5c6.1.2,6.1.8,226.9,47.2,10.4,2.2,17.5,9.1,16.5,14.9,0,0,0,.2,0,.3h0c-12.8,65.1-25.6,130.2-38.4,195.3-.8,4.3-6.8,7.9-15.3,7.7-6.5-.1-6.4-.8-227.4-47.2-10.1-2.1-17-8.8-16.6-14.4q0-1.1,38.5-195.9c1-5,7.8-8.2,15.8-7.9ZM120,184.4c.7,3.7,2,7.2,3.5,10.5,1.4,2.9,2.9,5.7,4.5,8.1,4.8,7.2,7.4,8.5,8.8,8.7.9.4,1.2.2,2.5-.1,30-7.3,39.5-38.6,23.4-45.8-2.8-1.2-10.1-2.3-14.3-.3-2.1,1.1-3.4,2.6-4.2,4.7-1.8-4.3-4.2-8.3-7.6-10.3-1-.6-2-.9-2.9-1.1-2.9-.6-5.7.4-7.7,1.8,0,0,0,0,0,0-1.5,1-2.5,2.2-3,3-3.4,5.9-4.2,12.2-3.3,18.3.1.8.2,1.6.4,2.3ZM132,165.1c.8,0,1.3.4,1.5.5,5.5,3.4,8.3,19.6,8.3,19.7.7,3.1,4.6,3.3,5.9.9,1-1.8,1.2-12.2,2.9-14.4,1.3-1.8,7.7-1,9.7-.1,8.4,3.7,3.1,25.3-19.4,32.7-1.3.4-2.2.7-2.9.8-1.9-1.8-4.8-5.6-7-9.7-2.3-4.1-3.6-7.8-4.4-11-2.6-10.8,1.4-16.8,1.8-17.5,1.4-1.6,2.7-2,3.6-1.9ZM135.6,205.7h.2c0,0,0,0,0,0,0,0-.2,0-.3,0Z" fill="#714e67"/></g></svg>