<?xml version="1.0" encoding="UTF-8"?><svg id="b" xmlns="http://www.w3.org/2000/svg" viewBox="0 0 720 353.7"><g id="c"><path d="M712,27.9c-40-42.9-224.8-28.8-349.2-7.4-52.7,9.1-88.1,18.2-110.4,25-34.7-11.8-71.8,3.9-93.5,27.4-14.5,15.7-21.2,32.5-24.2,46.7-4,6.6-7.1,13.7-9.3,21.6-15.8-4.7-41.2-8.4-69.7,4.4-35.2,15.7-69.7,58.1-50,108.5,20.1,51.5,81.7,76.6,85.2,78.2,44.2,20.8,135.2,32.1,177.9,7,6.3-3.7,12-8.9,17.2-15.2,119.5-23.5,311-133.7,392.7-212.8,53-51.3,43.5-72.6,33.2-83.6ZM308.5,102.2c48.1-12.7,140.4-35.8,218-46.7,33-4.6,58.4-6.1,76.7-5.2-117.4,40.4-211,71.5-281.9,94.5-2.2-12.3-6.1-27.5-12.9-42.6ZM324.9,198.2c71.5-21.6,156.9-48,225.1-70,4.6-1.5,8.9-2.9,13.2-4.3-24.9,14.8-55.1,31.2-89.2,48-57,28.1-111.7,51.2-153.5,65.2,2.4-13.3,3.8-26.6,4.4-38.9Z" fill="#714e67"/><path d="M701.9,69.2c-47.9,75.7-272.3,211.7-407.4,243.1,10.9-17.7,18.8-40.6,23.9-64,71.9-23.3,177.7-73.1,249-115.3,13.9-8.2,25.3-15.5,34.8-21.9,5.3-3.6,10-6.9,14.2-10,4.6-3.4,8.5-6.5,11.9-9.3,18.8-15.8,20.4-23.2,20.9-26.4,1.2-6.7-3.2-12.7-10.3-17-1.3-.8-2.8-1.5-4.3-2.2-.7-.3-1.4-.6-2.1-.8-2.5-.9-5.2-1.7-8.2-2.4-64.6-14.6-244.8,30.1-320.3,50.1-3.4-6.3-7.4-12.6-12.1-18.5-8-10.1-16.7-17.6-25.8-22.9,16.5-4.7,38.8-10.2,68.2-15.9,45.8-9,98.6-16.7,150-21.3,128.2-11.5,210-1.1,223.7,24.6.8,1.4,6.7,9.7-6.2,30.1ZM597.6,102.3c23.9-16.3,38.6-29.3,41.5-37.3.5-1.4.8-2.4-1.2-4.7-2.5-2.9-6.8-5.2-13-6.9-50.1,17.3-143.8,49.4-244.5,82.5-20.7,6.8-39.8,13.1-57.4,18.8.9,6.9,1.3,12.2,1.6,15,.5,5.6.7,11.7.7,18.2,88.7-26.8,198.5-60.9,272.5-85.6Z" fill="#ffb1be"/><path d="M315.3,190.8c0,1.7,0,3.5-.1,5.2,0,1.7-.2,3.5-.3,5.2-.7,12.6-2.4,26.1-5,39.4-.4,1.9-.7,3.7-1.1,5.6-.4,1.9-.8,3.7-1.3,5.5-5.8,24.5-14.8,47.6-26.9,63.5-1.6,2.1-3.2,4-4.9,5.9-1.5,1.6-3,3.1-4.5,4.4-.6.5-1.2,1-1.8,1.4-34.5,27.2-126.6,17.7-172.1-2.6-10.1-4.5-51.2-22.3-73.9-57.5-31.6-49.1-1.5-91.1,28.6-108.2,29-16.5,56.1-12.3,71.4-7.7,1.7.5,3.3,1.1,4.7,1.6,1.9.7,3.5,1.3,4.8,1.8,1.4.6,2.3,1,2.8,1.2,3.9,1.6,6.5-1.7,6.8-3.2.1-.6,0-1.1.2-1.7h0c-.3-5.5-1-15.2,1.4-27.3.8-4.1,1.9-8.5,3.6-13.1.4-1.2.9-2.4,1.3-3.6,1.4-3.5,3-6.8,4.7-9.8,8.1-14.4,18.2-22.9,20.2-24.6,14.7-12.5,37-22.8,60.3-20.7,3.4.3,6.7.9,10.1,1.7,2.7.7,5.4,1.5,8,2.6,7.1,2.8,14.2,7.1,20.9,13,8.8,7.7,15.7,17,21.1,26.8.8,1.5,1.6,3,2.4,4.5.8,1.5,1.5,3,2.2,4.5,7.1,15.4,11,31.1,13.1,43.1.3,1.7.6,3.4.8,4.9.3,1.8.5,3.4.7,5,.7,5.8,1,9.7,1,10.4.7,6.9,1,14.5.8,22.6Z" fill="#fe6d68"/><path d="M712,27.9c-40-42.9-224.8-28.8-349.2-7.4-52.7,9.1-88.1,18.2-110.4,25-34.7-11.8-71.8,3.9-93.5,27.4-14.5,15.7-21.2,32.5-24.2,46.7-4,6.6-7.1,13.7-9.3,21.6-15.8-4.7-41.2-8.4-69.7,4.4-35.2,15.7-69.7,58.1-50,108.5,20.1,51.5,81.7,76.6,85.2,78.2,44.2,20.8,135.2,32.1,177.9,7,6.3-3.7,12-8.9,17.2-15.2,119.5-23.5,311-133.7,392.7-212.8,53-51.3,43.5-72.6,33.2-83.6ZM294.5,312.4c10.9-17.7,18.8-40.6,23.9-64,71.9-23.3,177.7-73.1,249-115.3,13.9-8.2,25.3-15.5,34.8-21.9,5.3-3.6,10-6.9,14.2-10,4.6-3.4,8.5-6.5,11.9-9.3,18.8-15.8,20.4-23.2,20.9-26.4,1.2-6.7-3.2-12.7-10.3-17-1.3-.8-2.8-1.5-4.3-2.2-.7-.3-1.4-.6-2.1-.8-2.5-.9-5.2-1.7-8.2-2.4-64.6-14.6-244.8,30.1-320.3,50.1-3.4-6.3-7.4-12.6-12.1-18.5-8-10.1-16.7-17.6-25.8-22.9,16.5-4.7,38.8-10.2,68.2-15.9,45.8-9,98.6-16.7,150-21.3,128.2-11.5,210-1.1,223.7,24.6.8,1.4,6.7,9.7-6.2,30.1-47.9,75.7-272.3,211.7-407.4,243.1ZM271.1,325.6c-.6.5-1.2,1-1.8,1.4-34.5,27.2-126.6,17.7-172.1-2.6-10.1-4.5-51.2-22.3-73.9-57.5-31.6-49.1-1.5-91.1,28.6-108.2,29-16.5,56.1-12.3,71.4-7.7,1.7.5,3.3,1.1,4.7,1.6,1.9.7,3.5,1.3,4.8,1.8,1.4.6,2.3,1,2.8,1.2,3.9,1.6,6.5-1.7,6.8-3.2.1-.6,0-1.1.2-1.7h0c-.3-5.5-1-15.2,1.4-27.3.8-4.1,1.9-8.5,3.6-13.1.4-1.2.9-2.4,1.3-3.6,1.4-3.5,3-6.8,4.7-9.8,8.1-14.4,18.2-22.9,20.2-24.6,14.7-12.5,37-22.8,60.3-20.7,3.4.3,6.7.9,10.1,1.7,2.7.7,5.4,1.5,8,2.6,7.1,2.8,14.2,7.1,20.9,13,8.8,7.7,15.7,17,21.1,26.8.8,1.5,1.6,3,2.4,4.5.8,1.5,1.5,3,2.2,4.5,7.1,15.4,11,31.1,13.1,43.1.3,1.7.6,3.4.8,4.9.3,1.8.5,3.4.7,5,.7,5.8,1,9.7,1,10.4.7,6.9,1,14.5.8,22.6,0,1.7,0,3.5-.1,5.2,0,1.7-.2,3.5-.3,5.2-.7,12.6-2.4,26.1-5,39.4-.4,1.9-.7,3.7-1.1,5.6-.4,1.9-.8,3.7-1.3,5.5-5.8,24.5-14.8,47.6-26.9,63.5-1.6,2.1-3.2,4-4.9,5.9-1.5,1.6-3,3.1-4.5,4.4ZM324.9,198.2c71.5-21.6,156.9-48,225.1-70,4.6-1.5,8.9-2.9,13.2-4.3-24.9,14.8-55.1,31.2-89.2,48-57,28.1-111.7,51.2-153.5,65.2,2.4-13.3,3.8-26.6,4.4-38.9ZM325.2,187.8c0-6.4-.2-12.6-.7-18.2-.2-2.8-.6-8.1-1.6-15,17.6-5.7,36.7-12,57.4-18.8,100.6-33.2,194.3-65.2,244.5-82.5,6.3,1.7,10.6,4,13,6.9,2,2.3,1.7,3.3,1.2,4.7-2.8,8-17.5,21.1-41.5,37.3-74,24.7-183.8,58.8-272.5,85.6ZM321.4,144.8c-2.2-12.3-6.1-27.5-12.9-42.6,48.1-12.7,140.4-35.8,218-46.7,33-4.6,58.4-6.1,76.7-5.2-117.4,40.4-211,71.5-281.9,94.5Z" fill="#714e67"/></g></svg>