<?xml version="1.0" encoding="UTF-8"?><svg id="b" xmlns="http://www.w3.org/2000/svg" viewBox="0 0 588.8 720"><g id="c"><path d="M578.3,550.9c.2-11.9-1.2-105.3-10-155.6-1.3-7.5-2.6-13.2-3.9-17.7,27.3-45.9,33.1-168.7,10-249.3C527.1-36.7,349.4,3.4,331.5,6.4c-1.4.2-1.5,0-2.4,1-.2.2-.3.4-.3.7-22.2,5.7-45.7,17.4-68.8,38.8-30.3,28.2-98,103.1-115.9,210.2C82.2,312.2,3,475.2,1.1,489.4c-3.5,25.8,1.8,41.6,10.2,52.9,23,30.9,77.1,38.5,150,77,44.2,23.3,282.7,130,361,93,68.1-32.2,54.4-81.8,56-161.4ZM518,142.1c30.8,72.5,23.1,153.7,14.1,202-2.7-2-5.4-4-8.2-6.1-25.3-18.5-48.7-29.9-140.8-24.7-48.1,2.7-78.6-8.2-103.2-25.3-27.5-19.1-44.7-43.7-73.6-49.6,7.8-32,23.4-84.5,48.3-119.4C319.2,28.4,368.3,27,413.7,25.5c56.5,30.5,96.8,98.9,104.3,116.7Z" fill="#714e67"/><path d="M531,350c-2.6,12.9-5.1,23-6.8,29.4-28-32.4-83.9-31.7-113.1-28.3-13.8,1.6-59,10.1-101.9-2.3-54.4-15.7-76-56.2-112-80.4-1.6-1.1-3.2-2.1-4.9-3.1-1.8-1.1-3.6-2.1-5.5-3.1-8.2-4.4-17.3-7.9-27.7-10.1,9.8-6.6,15.6-7.3,18.1-7.8,8.3-1.7,15.7-2,22.3-1.3.9,0,1.8.2,2.7.4.9.1,1.8.3,2.6.5,32.4,6.4,48.9,38.2,88,58.6,36.4,19,73.6,17.3,93.3,16.3,102.9-5.5,116.3,11,144.7,31.4ZM530.2,498.8c.6.4,3.4,2.2,9.3,2.9,1,.1,9.1,2.2,13-26.4,4.2-31.1.6-77.8.1-84,0,0-.1,0-.2.1-4.4,3.1-11.7,6.4-21.3,2.7,8.1,56.9-16.2,94.7-1,104.6ZM182.3,237.9c6.8-.9,12.9-1,18.6-.3,7.9-32.5,23.7-85.8,49.3-121.7,30.2-42.3,59.5-69,90.6-82.7,22.5-9.9,42.9-11.8,62.7-12.7-23.4-10.3-49.3-13.7-76.6-4.4-1.3.4-1.4.7-2.6,0,0,0-.5-.5-.9-1-35.4,11-58.4,33.7-71.6,47.2-24.8,25.4-83.3,92.8-101.5,189.4,3.5-2.7,6.9-5.1,10.2-7,6.4-3.6,11.3-5.5,21.7-6.9ZM395.7,11.7c6.6,2.3,13,5.1,19.2,8.4,1.5.8,3.1,1.7,4.6,2.5,1.4.8,2.8,1.7,4.2,2.5,53.7,32.8,91.4,96.6,99.4,115.6,30.9,73.5,23.3,155.3,14.2,204.3-.3,1.9-.7,3.7-1,5.5,0,0,0,0,0,0-.2,1-.4,1.9-.6,2.9-3,14.7-5.9,25.6-7.4,31.4,0,0,0,.2,0,.3-.1.5-.2.9-.4,1.3.7.5,1.5,1,2.3,1.4,0,0,.2,0,.2.1,7,3.8,17.3,5.8,28.2-11.1.3-.5.7-1.1,1-1.7.3-.4.5-.9.8-1.3.6-1,1.1-2,1.7-3.1,26.3-51,30.8-188.6-1.3-265.1-12.4-29.6-45.8-90.8-143.7-99.3-9.3-.8-18.2-1-26.7-.9-6.3,0-12.2.4-17.8.8.7,0,1.4.2,2.1.3,7.1,1.1,14.1,2.8,20.9,5.2ZM491.7,698c0-.2.1-.4.2-.5,0,.2-.2.4-.2.5ZM520,707.4c-68.9,32.5-274.5-52.9-344.2-86.8-16-7.8-27.2-14.7-58.8-28.2-74.5-31.8-119.2-38.4-110.7-102.3,1-7.8,34.7-80,75.9-145.2,25.2-39.9,44.7-63.8,59.4-78.2,1.4-1.4,2.9-2.8,4.2-4,1.1-1,2.1-1.9,3.1-2.8,1.5-1.3,3-2.5,4.4-3.6,1.6.3,3.3.6,5,1,5.1,1.1,9.9,2.6,14.4,4.3,2.3.9,4.5,1.8,6.6,2.8,2,.9,4,1.9,5.9,3,57.8,31.6,75.1,110,217.3,90.2,3.9-.5,87.2-14.8,119.8,28.2-.5,1.8-.6,2.9,1.1,4.1.6.4,1.2.8,1.7,1.2,2.3,13.5,3.3,29.3.9,49.7-3.7,32-13.3,53.9,1.6,62.9,5.2,3.1,12.1,3.5,12.1,3.5,9.9.2,14.3-11.8,16.7-23.8.2-1.1,5.7-24.3,2.1-82.3,0-.9-.6-10.5-.8-10.8-.2-.6-.4-1.4-.9-1.8-.2-.2-.4-.3-.5-.4,1.4-1.4,2.7-2.9,3.9-4.5,10.8,44.1,12.8,152.6,12.5,167.3-1.6,80.2,11.8,126.1-52.9,156.7ZM508.9,398.4c0,.7.4,1.3.6,1.9,0,0,2.6,2.9,5.4,7.3.7,1.2.6,1.4,2,1.7,1,.3,1.1.3,2-.3.1,0,.9-.6,1.2-1.7,0-.2.3-1.1-.3-2-.6-.9-2.6-4.2-5.8-8.1-.9-1.1-.8-1.3-2.3-1.4-.7,0-1.3.4-1.9.6,0,0-.9,1.8-.9,1.8ZM481.5,380.2c.3.6,1,1,1.4,1.5,0,0,6.3,2.4,13,6.8,4.4,2.9,4.3,3.5,6,3.3,1.1-.1,1.1-.2,1.8-1,0-.1.7-.9.5-2,0-.2-.2-1.1-1-1.8-2.4-1.8-8.2-6-17.6-10.1-1.3-.6-1.4-.8-2.7-.3-.6.3-1,1-1.5,1.4,0,0,0,2,0,2.1ZM380.7,373.6c.3.6.5,1.4,1,1.8.5.4,1.3.4,2,.6.3,0,12.6-1.8,19.2-2.5,1.5-.2,1.7.1,2.7-1.1.7-.8.7-.9.6-2-.1-1.1-.1-1.1-1-1.8-.5-.4-1.3-.4-2-.6-.3-.1-15,1.9-16.4,2.1-3.5.4-3.5.4-3.8.5-.3.1-3.3,1.2-2.3,3ZM346.7,375.4c.3.6.3,1.4.8,1.9.1.1.8.8,1.9.8,1.4,0,4.9,0,10-.2,5.4-.2,10.5-.6,10.5-.6.6-.2,1.4-.4,1.8-.9.7-.8.7-.9.6-1.9,0-1.1-.1-1.1-.9-1.8-.8-.7-.9-.7-1.9-.6-13.6,1-19.8.7-20.1.8-.3,0-3.4.9-2.7,2.7ZM312.9,372.2s.4,2,.5,2c.6.9.7.9,1.7,1.1,3,.5,10,1.6,19.7,2.3,1.4,0,1.5.3,2.6-.6.8-.7.8-.8.9-1.8,0-1.1,0-1.1-.7-1.9-.4-.5-1.2-.6-1.8-.9,0,0-5.3-.3-12.1-1.1-8.2-1-8.4-1.7-9.8-.7-.6.4-.7,1.1-1.1,1.7ZM280.4,364.5c.4,1,1.3,1.4,1.5,1.5,2.9,1.2,9.6,3.9,18.9,6.3,1.4.4,1.5.6,2.7-.1.9-.5,1-.6,1.2-1.6.3-1,.3-1.1-.3-2-.3-.6-1.1-.8-1.6-1.2,0,0-8.2-1.9-18.3-6-1.3-.5-1.3-.7-2.6-.2-.6.3-1,1-1.4,1.4,0,0,0,2,0,2.1ZM250.6,347.3c.2,1.1.2,1.1,1.1,1.7,2.7,2,8.8,6.2,16.9,10.6,1.2.7,1.3.9,2.6.5,1-.3,1.1-.3,1.6-1.3.5-1,.5-1,.2-2-.2-.6-.9-1.1-1.3-1.6,0,0-4.7-2.4-10.8-6.4-6.5-4.2-6.4-4.9-8.1-4.6-.7.1-1.2.7-1.7,1.1,0,0-.5,2-.5,2ZM224.6,325c0,1.1.7,1.8.8,1.9,1.6,1.5,4.1,3.9,7.4,6.9,4.2,3.8,7.8,6.8,7.8,6.8.6.3,1.3.7,2,.6,1.1,0,1.1-.1,1.8-1,.7-.8.7-.9.6-2,0-1.1-.1-1.1-.9-1.8-9.1-7.6-14.7-13.3-15-13.4-.3-.1-3.1-1.7-3.8.1-.2.6-.7,1.2-.7,1.9ZM140.2,270.5s.5,2,.5,2c.2.3.6.5,1,.7.2.1.5.2.7.4,0,0,.5,0,1.4.2.2,0,.4,0,.6,0,.7.1,1.6.3,2.6.5,2.4.5,5.5,1.2,8.9,2.3,6.1,1.9,6.2,2.5,7.7,1.8,1-.4,1-.5,1.4-1.5,0-.2.4-1,0-2,0-.2-.5-1-1.5-1.4-2.6-1-8.1-2.9-15.8-4.5-.8-.2-1.7-.3-2.6-.5-.3,0-.7-.1-1-.2,0,0,0,0,0,0-.8-.1-1.2-.3-1.6-.2-.3,0-.6.2-1,.5-.6.4-.7,1.1-1.1,1.7ZM192.3,413.2c-.8-.3-.8-.1-.9-.2-59.7,2.7-64.8-10.4-88.4-37.2-.3-.1-.5-.4-.7-.5-.9-.5-3-.2-3.7,1.6-5.3,15.8-4.9,34.8-15.8,47.4-10.9,12.7-29.8,15.2-44.7,22.9-1.7.9-2,3.4-.4,4.5,36,26.6,41,29,42.8,29.8l.3.3c3.3,9.7,4.6,34.1,7.8,50.6.3,1.5,1.9,2.5,3.3,2.1,1-.3.9-.5,31.7-21.6,3.5-2.4,6.2-7.2,10.4-7.1,17.1.2,33.8,5.2,50.7,7.9,2,.3,3.6-1.6,3-3.5-5.2-16.1-17.7-46.9-17.2-48.5,3.4-8.9,15.9-29.8,23.2-44.7.7-1.4,0-3.1-1.5-3.7ZM194.6,292.5c-.1-1.1-.2-1.1-1-1.8-2.9-2.2-8.9-6.7-16.8-10.9-1.2-.7-1.3-.9-2.6-.5-.6.2-1.1.9-1.6,1.3,0,0-.2,2-.2,2.1.2.7.9,1.1,1.3,1.6,0,0,4.7,2.4,11.1,6.8,5.9,4.1,5.8,4.7,7.5,4.5,1.1-.1,1.1-.2,1.8-1,.7-.9.7-.9.5-2ZM220.1,315.4c0-.7-.5-1.2-.8-1.9,0-.2-14.4-13.7-14.9-13.9-.3-.1-3.1-1.6-3.8.3-.2.6-.7,1.3-.7,1.9,0,1.1,0,1.1.9,1.8,8.1,7.2,14.5,13.6,14.7,13.8.6.4,1.2.8,1.9.7,1.1,0,1.1,0,1.9-.8.7-.8.8-.8.7-1.9ZM292.3,513.3c20.6-14,45.1-34.4,54.2-53.3,13-25.3,11.9-49.2-2.8-59.8-14.7-10.6-42.9-7.9-55.9,17.4-15.2-22.6-43.5-19.8-57-6.5-13.5,13.3-12.4,37.3,2.8,59.8,10.7,17,37,32.5,58.7,42.4ZM416.4,604c-2.8-17.9-24.6-36-51.7-27.4,5.3-26.7-16.5-44.8-35.5-45.1-19-.2-35.2,17.4-40.5,44.1-4.5,19.6,2.9,49.1,11.2,71.5,24.5,4.8,56.2,7.9,76,1,27.1-8.6,43.3-26.2,40.5-44.1ZM439.4,367.9c-.7-.8-.8-.8-1.9-.9-1.8,0-7.2-.3-14.5-.2-3.2,0-6,.2-6,.2-.3,0-3.4,1-2.5,2.8.3.6.4,1.4.9,1.8.5.5,1.3.5,1.9.7,0,0,5.1-.3,11.5-.2,9,0,9.2.7,10.5-.5.8-.7.8-.8.9-1.9,0-1.1,0-1.1-.7-1.9ZM450.8,373.6c0,0,8.8.9,18.9,3.6,1.3.4,1.4.6,2.6,0,.9-.5,1-.6,1.3-1.6.3-1,.3-1.1-.3-2,0-.1-.6-1-1.6-1.3-2.8-.8-9.6-2.6-19.6-3.9-1.4-.2-1.5-.4-2.6.5-.5.4-.7,1.2-1,1.8,0,0,.5,2,.5,2,.4.5,1.2.7,1.8,1ZM516.5,423.5c.2-.7.1-1.4-.2-2-.3-.6-1-.9-1.5-1.3,0,0-2,.2-2.1.2-1,.5-1,.5-1.3,1.6-51.6,160.2-72.3,221.7-46.4,265.3.7,1.2.6,1.4,2,1.7,1,.3,1.1.3,2-.3.9-.6,1-.6,1.2-1.7.3-1,.3-1.1-.3-2-15.3-25.5-14.2-57.3,3.1-121,13.4-49.4,42.2-135.7,43.5-140.5ZM550.3,676.2s-1.6-1.2-1.7-1.2c-.7-.2-1.3.2-2,.3-.3,0-23,14.5-39.3,18.5-10.9,2.7-12.5-.7-15-.9-2.4-.2-2.2.6-3,2.8,0,0,.9,1.8.9,1.8.4.4,1,.6,1.4.6,0,0,0,0,0,0,4.2,1.9,13.4,7.2,51.3-14.5.5-.3,6.3-3.6,6.5-3.8.5-.5,1-1,1.2-1.6s-.2-1.3-.3-2ZM492.2,698.2c0,0-.1,0-.4,0,0,0,.2,0,.4,0Z" fill="#ff9abd"/><path d="M388.2,602.8c1.4,12.3-10.2,25.5-29,33-13.7,5.9-35.4,5.5-52,3.4-5-15.2-9.3-35.4-5.7-49.3,4.4-18.9,16-32.1,29-33,13-.9,27.4,10.6,23,29.5,18.8-7.5,33.2,4,34.6,16.3Z" fill="#fe6d68" stroke="#795a71" stroke-linecap="round" stroke-linejoin="round" stroke-width="4.3"/><path d="M329.6,463c-6.1,14-23.1,29.2-37.4,39.8-15.5-7-34.4-18-42.3-30.3-11.2-16.3-12.4-33.8-3-43.8,9.3-9.9,29.3-12.3,40.4,4,8.7-18.7,28.6-21.1,39.2-13.5,10.6,7.6,11.8,25.1,3,43.8Z" fill="#ffe0ef" stroke="#795a71" stroke-linecap="round" stroke-linejoin="round" stroke-width="4.2"/><path d="M416.4,604c-2.8-17.9-24.6-36-51.7-27.4,5.3-26.7-16.5-44.8-35.5-45.1-19-.2-35.2,17.4-40.5,44.1-4.5,19.6,2.9,49.1,11.2,71.5,24.5,4.8,56.2,7.9,76,1,27.1-8.6,43.3-26.2,40.5-44.1ZM359.2,635.8c-13.7,5.9-35.4,5.5-52,3.4-5-15.2-9.3-35.4-5.7-49.3,4.4-18.9,16-32.1,29-33,13-.9,27.4,10.6,23,29.5,18.8-7.5,33.2,4,34.6,16.3,1.4,12.3-10.2,25.5-29,33ZM346.5,460c13-25.3,11.9-49.2-2.8-59.8-14.7-10.6-42.9-7.9-55.9,17.4-15.2-22.6-43.5-19.8-57-6.5-13.5,13.3-12.4,37.3,2.8,59.8,10.7,17,37,32.5,58.7,42.4,20.6-14,45.1-34.4,54.2-53.3ZM249.9,472.5c-11.2-16.3-12.4-33.8-3-43.8,9.3-9.9,29.3-12.3,40.4,4,8.7-18.7,28.6-21.1,39.2-13.5,10.6,7.6,11.8,25.1,3,43.8-6.1,14-23.1,29.2-37.4,39.8-15.5-7-34.4-18-42.3-30.3ZM187.2,418.2c-31-.9-39.9-.4-44.4-.7-4.7.3-5.5-.9-8.3-3.6-3.3-3.1-10.2-10.4-32-31.2-4.9,14.8-9.9,29.6-14.8,44.4-.3.8-.9,1.3-1,1.3-14.1,7.2-28.2,14.4-42.3,21.6,34.8,26,36,25,39.3,29.5,0,.1.2.2.2.4,1.9,3.6.9,4.1,9.2,47.5,13-8.9,25.9-17.7,38.8-26.6.5-.4,1-.4,1.1-.4,4.1-.6,4.1.6,48.3,7.4-4.9-15.1-9.9-30.2-14.8-45.2-.2-.6-.1-1.1-.1-1.2.6-4,1.7-3.7,20.7-42.9ZM165,491.4c.6,1.9-1,3.8-3,3.5-10.8-1.7-21.4-5.1-32.3-5.2,0,0-26.3,18.3-26.6,18.5-1.6.7-3.4-.2-3.8-1.9-2.1-10.8-.4-23.1-6.3-32.4-5.9-9.4-17.7-13.4-26.5-20.2-1.5-1.2-1.3-3.6.4-4.5,9.5-4.9,21.6-6.6,28.4-14.7,6.9-8.2,6.6-20.5,9.9-30.7.6-1.9,2.7-2.1,3.7-1.6.3.1.5.4.7.5,22.4,31.2,34,27.5,56.5,24.4,0,0,0-.1.9.2,1.4.5,2.1,2.2,1.5,3.6-4.6,9.7-13.1,18.4-13.7,29.1-.6,11,6.8,21,10.2,31.5ZM80.8,481.6s0,0,0,.1l-.3-.3c.1,0,.2,0,.3.1Z" fill="#fff"/><path d="M149.2,460.2c3.1,9.6,6.2,19.1,9.3,28.7-27.2-4.4-27.3-5.1-29.9-4.7-1.1.2-1.1.4-24.9,17-5.3-27.4-4.7-27.7-5.9-30.1,0-.1-.1-.2-.2-.3-3.3-4.5-4.5-3.6-24.5-18.8,24-12.5,24.5-11.9,26.3-13.8,0,0,.4-.4.5-.7,3.1-9.3,6-18.7,9.1-28,20.1,19.6,19.8,20.2,22.2,21.4.1,0,.2.1.4.2,5.3,1.8,5.8.4,30.4,1.2-11.6,24.7-12.3,24.6-12.7,27.1,0,0,0,.5,0,.8Z" fill="#d9c7fb"/><path d="M379.1,585.4c-6.5-3.9-14.4-4.8-22.5-2.5.8-7.5-1.2-14.3-5.7-19.6-5-5.9-12.9-9.3-20.6-8.8-14.1.9-26.6,14.9-31.2,34.8-4.4,16.8,2.5,41.1,5.7,50.7.3.9,1.1,1.6,2,1.7,4.8.6,12.8,1.3,21.7,1.3s22.5-1.1,31.6-5c19.8-7.9,32-22.1,30.5-35.5-.8-6.9-5.1-13.3-11.5-17.1ZM358.3,633.5s0,0,0,0c-14.7,6.3-38.3,4.7-49.2,3.4-3.2-10-9-31.7-5.1-46.5,4.1-17.8,14.9-30.3,26.7-31.1,6.1-.4,12.5,2.3,16.5,7.1,3,3.6,6.2,9.8,4,19.5-.2.9,0,1.8.8,2.4.7.6,1.7.8,2.5.4,8-3.2,15.9-2.9,22.1.8,5.1,3.1,8.5,8.1,9.2,13.5,1.3,11.2-9.7,23.4-27.4,30.4ZM400.9,578.3c-9.8-6.1-21.5-7.8-33.2-5.1,1.2-10.7-1.7-20.9-8.4-29.1-7.4-9.2-19-15-30.1-15.1-20.1-.3-37.4,18.3-42.9,46-5.4,23.4,6.1,58.8,11.3,73,.3.8,1,1.4,1.8,1.6,9.7,1.9,28.5,5,46.9,5s21.6-1.1,30.3-4.1c28.2-8.9,45.2-27.8,42.2-46.8-1.5-9.9-8.2-19.4-17.9-25.4ZM375,645.8c-21.8,7.6-57.6,2.2-73.4-.8-5.2-14.5-15.6-47.4-10.6-68.9,5-25.3,20.2-42.1,37.7-42.1s.2,0,.3,0c9.7.1,19.8,5.2,26.3,13.3,4.6,5.7,9.5,15.2,6.8,28.9-.2.9.1,1.7.8,2.3.6.6,1.6.8,2.4.5,11.6-3.7,23.3-2.4,32.9,3.5,8.3,5.2,14.3,13.6,15.6,21.9,2.6,16.6-13,33.2-38.9,41.4ZM292.3,515.8c.5,0,1-.1,1.4-.4,12.9-8.8,44.2-31.7,55-54.3,13.5-26.3,12.1-51.6-3.6-62.9-8.1-5.9-19.6-7.8-30.6-5.1-11.2,2.7-20.7,9.8-27,20.1-6.8-8.4-16.1-13.5-26.5-14.5-11.8-1.2-24,2.9-31.9,10.7-14.4,14.1-13.4,39.4,2.5,62.9,12.8,20.4,46.1,37.1,59.7,43.3.3.1.7.2,1,.2ZM235.7,469.5c-14.5-21.5-15.8-44.3-3.1-56.7,6.1-6,15.2-9.5,24.4-9.5s2.4,0,3.5.2c7.2.7,17.5,4,25.3,15.5.5.7,1.3,1.1,2.2,1.1.9,0,1.6-.6,2-1.3,5.6-10.8,14.7-18.3,25.7-20.9,9.5-2.3,19.7-.6,26.6,4.4,13.6,9.8,14.4,32.6,2.1,56.7,0,0,0,0,0,0-10,20.9-39,42.5-52.2,51.6-14-6.5-44.6-22.3-56.4-41ZM293.6,504.8c9.1-6.7,30.9-23.9,38.2-40.7,9.2-19.7,7.7-38.6-3.8-46.8-6-4.3-14.3-5.6-22.2-3.5-7.8,2.1-14.4,7.1-18.8,14.5-5-5.8-11.7-9.2-19-9.7-8.5-.7-17.2,2.6-22.8,8.5-10.1,10.8-9,29.6,2.8,46.8,9.5,14.9,33.5,26.8,43.3,31.2.3.1.7.2,1,.2.5,0,1-.2,1.5-.5ZM252,471.2s0,0,0,0c-10.5-15.3-11.8-31.7-3.3-40.7,4.2-4.5,10.6-7.1,17-7.1s1.2,0,1.8,0c5,.4,12.2,2.6,17.8,10.7.5.7,1.3,1.1,2.2,1.1.9,0,1.7-.6,2-1.4,3.7-7.9,9.9-13.3,17.5-15.3,6.5-1.7,13.3-.7,18.1,2.8,9.5,6.8,10.4,23.2,2.2,40.8-6.5,15.1-26.1,31-35.4,37.9-10.1-4.6-31.4-15.6-39.9-28.8ZM313.3,374.3s-.5-2-.5-2c.4-.6.5-1.3,1.1-1.7,1.4-1,1.6-.3,9.8.7,6.8.8,12.1,1.1,12.1,1.1.6.3,1.4.4,1.8.9.7.8.7.9.7,1.9,0,1.1,0,1.1-.9,1.8-1.1.9-1.2.7-2.6.6-9.7-.6-16.7-1.8-19.7-2.3-1.1-.2-1.1-.2-1.7-1.1ZM280.4,364.5s0-2.1,0-2.1c.5-.5.8-1.2,1.4-1.4,1.3-.5,1.3-.3,2.6.2,10.1,4.1,18.3,6,18.3,6,.5.4,1.3.6,1.6,1.2.5.9.6,1,.3,2-.3,1-.3,1.1-1.2,1.6-1.2.7-1.3.5-2.7.1-9.3-2.4-16-5.1-18.9-6.3-.2,0-1-.4-1.5-1.5ZM346.7,375.4c-.7-1.8,2.4-2.6,2.7-2.7.3,0,6.5.2,20.1-.8,1.1,0,1.1,0,1.9.6.8.7.8.8.9,1.8,0,1.1,0,1.1-.6,1.9-.4.5-1.2.7-1.8.9,0,0-5.1.4-10.5.6-5.1.2-8.5.2-10,.2-1.1,0-1.8-.7-1.9-.8-.5-.5-.5-1.3-.8-1.9ZM509.5,400.3c-.2-.6-.7-1.3-.6-1.9,0,0,.9-1.8.9-1.8.6-.2,1.3-.7,1.9-.6,1.4.1,1.3.3,2.3,1.4,3.2,3.8,5.2,7.1,5.8,8.1.6.9.3,1.9.3,2-.3,1.1-1.1,1.6-1.2,1.7-.9.6-1,.6-2,.3-1.3-.3-1.2-.6-2-1.7-2.7-4.4-5.3-7.3-5.4-7.3ZM380.7,373.6c-1-1.7,2.1-2.9,2.3-3,.3-.1.3,0,3.8-.5,1.3-.2,16-2.2,16.4-2.1.7.2,1.4.2,2,.6.8.7.9.7,1,1.8.1,1.1,0,1.1-.6,2-1,1.2-1.2.9-2.7,1.1-6.6.7-18.9,2.6-19.2,2.5-.7-.2-1.4-.1-2-.6-.5-.4-.7-1.2-1-1.8ZM481.5,380.2s0-2.1,0-2.1c.5-.5.8-1.2,1.5-1.4,1.3-.5,1.4-.3,2.7.3,9.4,4,15.2,8.3,17.6,10.1.9.7,1,1.6,1,1.8.2,1.1-.4,1.9-.5,2-.7.9-.7.9-1.8,1-1.7.2-1.5-.4-6-3.3-6.8-4.4-13-6.8-13-6.8-.5-.5-1.2-.8-1.4-1.5ZM516.5,423.5c-1.3,4.8-30.1,91-43.5,140.5-17.3,63.7-18.3,95.5-3.1,121,.6.9.6,1,.3,2-.3,1-.3,1.1-1.2,1.7-.9.6-1,.6-2,.3-1.3-.3-1.3-.5-2-1.7-25.9-43.6-5.2-105.2,46.4-265.3.3-1,.4-1.1,1.3-1.6,0,0,2-.2,2.1-.2.5.4,1.2.7,1.5,1.3.3.6.4,1.4.2,2ZM217.4,318.1c-.7,0-1.3-.4-1.9-.7-.2-.2-6.6-6.6-14.7-13.8-.8-.7-.8-.8-.9-1.8,0-.7.4-1.3.7-1.9.6-1.9,3.5-.4,3.8-.3.5.3,14.8,13.7,14.9,13.9.3.6.8,1.2.8,1.9,0,1.1,0,1.1-.7,1.9-.8.8-.8.8-1.9.8ZM439.4,367.9c.7.8.7.9.7,1.9,0,1.1,0,1.1-.9,1.9-1.3,1.1-1.5.5-10.5.5-6.4,0-11.5.2-11.5.2-.6-.2-1.4-.2-1.9-.7-.5-.5-.6-1.2-.9-1.8-.8-1.8,2.3-2.7,2.5-2.8,0,0,2.8-.1,6-.2,7.3-.1,12.7.1,14.5.2,1.1,0,1.1,0,1.9.9ZM469.7,377.2c-10.1-2.7-18.8-3.6-18.9-3.6-.6-.3-1.4-.5-1.8-1,0,0-.5-2-.5-2,.3-.6.5-1.3,1-1.8,1.1-.9,1.2-.6,2.6-.5,10,1.3,16.8,3.1,19.6,3.9,1.1.3,1.5,1.1,1.6,1.3.5.9.5,1,.3,2-.3,1-.3,1.1-1.3,1.6-1.2.7-1.3.5-2.6,0ZM250.6,347.3s.5-2,.5-2c.6-.4,1.1-1,1.7-1.1,1.7-.3,1.6.4,8.1,4.6,6.2,4,10.8,6.4,10.8,6.4.4.5,1.1.9,1.3,1.6.3,1,.3,1.1-.2,2-.5,1-.6,1-1.6,1.3-1.3.4-1.4.2-2.6-.5-8.1-4.4-14.2-8.6-16.9-10.6-.9-.6-.9-.7-1.1-1.7ZM578.3,550.9c.2-11.9-1.2-105.3-10-155.6-1.3-7.5-2.6-13.2-3.9-17.7,27.3-45.9,33.1-168.7,10-249.3C527.1-36.7,349.4,3.4,331.5,6.4c-1.4.2-1.5,0-2.4,1-.2.2-.3.4-.3.7-22.2,5.7-45.7,17.4-68.8,38.8-30.3,28.2-98,103.1-115.9,210.2C82.2,312.2,3,475.2,1.1,489.4c-3.5,25.8,1.8,41.6,10.2,52.9,23,30.9,77.1,38.5,150,77,44.2,23.3,282.7,130,361,93,68.1-32.2,54.4-81.8,56-161.4ZM390.5,5.4c8.4-.1,17.4.1,26.7.9,97.9,8.5,131.3,69.8,143.7,99.3,32.1,76.5,27.6,214.1,1.3,265.1-.6,1.1-1.1,2.1-1.7,3.1-.3.4-.5.9-.8,1.3-.3.6-.7,1.1-1,1.7-10.9,16.8-21.2,14.9-28.2,11.1,0,0-.2,0-.2-.1-.8-.5-1.6-.9-2.3-1.4.1-.4.2-.9.4-1.3,0,0,0-.2,0-.3,1.5-5.8,4.4-16.7,7.4-31.4.2-.9.4-1.9.6-2.9,0,0,0,0,0,0,.3-1.8.7-3.6,1-5.5,9.1-49,16.7-130.8-14.2-204.3-8-19-45.8-82.8-99.4-115.6-1.4-.9-2.8-1.7-4.2-2.5-1.5-.9-3-1.7-4.6-2.5-6.2-3.3-12.6-6.1-19.2-8.4-6.8-2.4-13.8-4.1-20.9-5.2-.7-.1-1.4-.2-2.1-.3,5.6-.4,11.5-.7,17.8-.8ZM531.2,394.2c9.6,3.8,16.9.4,21.3-2.7,0,0,.1,0,.2-.1.5,6.2,4.1,52.9-.1,84-3.9,28.6-12,26.5-13,26.4-5.9-.7-8.7-2.5-9.3-2.9-15.2-9.9,9.2-47.7,1-104.6ZM293,302.3c36.4,19,73.6,17.3,93.3,16.3,102.9-5.5,116.3,11,144.7,31.4-2.6,12.9-5.1,23-6.8,29.4-28-32.4-83.9-31.7-113.1-28.3-13.8,1.6-59,10.1-101.9-2.3-54.4-15.7-76-56.2-112-80.4-1.6-1.1-3.2-2.1-4.9-3.1-1.8-1.1-3.6-2.1-5.5-3.1-8.2-4.4-17.3-7.9-27.7-10.1,9.8-6.6,15.6-7.3,18.1-7.8,8.3-1.7,15.7-2,22.3-1.3.9,0,1.8.2,2.7.4.9.1,1.8.3,2.6.5,32.4,6.4,48.9,38.2,88,58.6ZM206.2,238.5c7.8-32,23.4-84.5,48.3-119.4C319.2,28.4,368.3,27,413.7,25.5c56.5,30.5,96.8,98.9,104.3,116.7,30.8,72.5,23.1,153.7,14.1,202-2.7-2-5.4-4-8.2-6.1-25.3-18.5-48.7-29.9-140.8-24.7-48.1,2.7-78.6-8.2-103.2-25.3-27.5-19.1-44.7-43.7-73.6-49.6ZM251.9,62.4c13.2-13.5,36.2-36.2,71.6-47.2.4.4.8.9.9,1,1.2.6,1.3.4,2.6,0,27.3-9.3,53.2-5.9,76.6,4.4-19.7.8-40.1,2.8-62.7,12.7-31.2,13.7-60.5,40.4-90.6,82.7-25.5,35.8-41.4,89.2-49.3,121.7-5.7-.7-11.8-.6-18.6.3-10.4,1.4-15.3,3.3-21.7,6.9-3.3,1.9-6.8,4.2-10.2,7,18.1-96.6,76.7-164.1,101.5-189.4ZM520,707.4c-68.9,32.5-274.5-52.9-344.2-86.8-16-7.8-27.2-14.7-58.8-28.2-74.5-31.8-119.2-38.4-110.7-102.3,1-7.8,34.7-80,75.9-145.2,25.2-39.9,44.7-63.8,59.4-78.2,1.4-1.4,2.9-2.8,4.2-4,1.1-1,2.1-1.9,3.1-2.8,1.5-1.3,3-2.5,4.4-3.6,1.6.3,3.3.6,5,1,5.1,1.1,9.9,2.6,14.4,4.3,2.3.9,4.5,1.8,6.6,2.8,2,.9,4,1.9,5.9,3,57.8,31.6,75.1,110,217.3,90.2,3.9-.5,87.2-14.8,119.8,28.2-.5,1.8-.6,2.9,1.1,4.1.6.4,1.2.8,1.7,1.2,2.3,13.5,3.3,29.3.9,49.7-3.7,32-13.3,53.9,1.6,62.9,5.2,3.1,12.1,3.5,12.1,3.5,9.9.2,14.3-11.8,16.7-23.8.2-1.1,5.7-24.3,2.1-82.3,0-.9-.6-10.5-.8-10.8-.2-.6-.4-1.4-.9-1.8-.2-.2-.4-.3-.5-.4,1.4-1.4,2.7-2.9,3.9-4.5,10.8,44.1,12.8,152.6,12.5,167.3-1.6,80.2,11.8,126.1-52.9,156.7ZM548.7,675c-.7-.2-1.3.2-2,.3-.3,0-23,14.5-39.3,18.5-10.9,2.7-12.5-.7-15-.9-2.4-.2-2.2.6-3,2.8,0,0,.9,1.8.9,1.8.4.4,1,.6,1.4.6,0,0,0,0,0,0,4.2,1.9,13.4,7.2,51.3-14.5.5-.3,6.3-3.6,6.5-3.8.5-.5,1-1,1.2-1.6s-.2-1.3-.3-2c0,0-1.6-1.2-1.7-1.2ZM491.8,697.5c0,.1-.1.3-.2.5,0-.1,0-.3.2-.5ZM492.2,698.2c-.2,0-.3,0-.4,0,.3,0,.5,0,.4,0ZM194.6,292.5c.1,1.1.1,1.1-.5,2-.7.9-.7.9-1.8,1-1.7.2-1.6-.4-7.5-4.5-6.4-4.4-11.1-6.8-11.1-6.8-.4-.5-1.1-.9-1.3-1.6,0,0,.2-2,.2-2.1.5-.4.9-1.1,1.6-1.3,1.3-.4,1.4-.2,2.6.5,7.8,4.2,13.9,8.7,16.8,10.9.9.7.9.7,1,1.8ZM140.7,272.5s-.5-2-.5-2c.4-.6.5-1.3,1.1-1.7.4-.3.7-.5,1-.5.4,0,.8,0,1.6.2,0,0,0,0,0,0,.3,0,.7.1,1,.2.9.2,1.8.3,2.6.5,7.7,1.6,13.1,3.5,15.8,4.5,1,.4,1.4,1.3,1.5,1.4.5,1,.1,1.9,0,2-.4,1-.4,1-1.4,1.5-1.5.7-1.5,0-7.7-1.8-3.4-1.1-6.6-1.8-8.9-2.3-1-.2-1.9-.4-2.6-.5-.2,0-.4,0-.6,0-.8-.1-1.3-.2-1.4-.2-.2-.1-.5-.3-.7-.4-.4-.2-.8-.4-1-.7ZM224.6,325c0-.7.5-1.3.7-1.9.7-1.8,3.5-.3,3.8-.1.2.1,5.9,5.8,15,13.4.8.7.8.7.9,1.8,0,1.1,0,1.1-.6,2-.7.8-.7.9-1.8,1-.7,0-1.3-.3-2-.6,0,0-3.6-3-7.8-6.8-3.3-3-5.8-5.4-7.4-6.9-.1-.1-.8-.8-.8-1.9ZM192.3,413.2c-.8-.3-.8-.1-.9-.2-59.7,2.7-64.8-10.4-88.4-37.2-.3-.1-.5-.4-.7-.5-.9-.5-3-.2-3.7,1.6-5.3,15.8-4.9,34.8-15.8,47.4-10.9,12.7-29.8,15.2-44.7,22.9-1.7.9-2,3.4-.4,4.5,36,26.6,41,29,42.8,29.8.1,0,.2,0,.3.1,0,0,0,0,0,.1,3.3,9.7,4.6,34.1,7.8,50.6.3,1.5,1.9,2.5,3.3,2.1,1-.3.9-.5,31.7-21.6,3.5-2.4,6.2-7.2,10.4-7.1,17.1.2,33.8,5.2,50.7,7.9,2,.3,3.6-1.6,3-3.5-5.2-16.1-17.7-46.9-17.2-48.5,3.4-8.9,15.9-29.8,23.2-44.7.7-1.4,0-3.1-1.5-3.7ZM166.5,461.2c0,0,0,.6.1,1.2,4.9,15.1,9.8,30.2,14.8,45.2-44.1-6.8-44.2-8-48.3-7.4,0,0-.6,0-1.1.4-12.9,8.9-25.9,17.8-38.8,26.6-8.4-43.5-7.3-43.9-9.2-47.5,0-.1-.2-.2-.2-.4-3.3-4.5-4.5-3.5-39.3-29.5,14.1-7.2,28.2-14.4,42.3-21.6,0,0,.7-.6,1-1.3,4.9-14.8,9.9-29.6,14.8-44.4,21.9,20.9,28.8,28.1,32,31.2,2.8,2.7,3.6,3.9,8.3,3.6,4.5.3,13.5-.2,44.4.7-19,39.2-20.1,38.9-20.7,42.9ZM109.6,402.6c-.3-.1-.5-.4-.7-.5-.9-.5-3.1-.2-3.7,1.6-3.3,10.2-3,22.5-9.9,30.7-6.9,8.2-19,9.8-28.4,14.7-1.7.9-1.9,3.3-.4,4.5,8.8,6.7,20.6,10.8,26.5,20.2,5.8,9.3,4.2,21.6,6.3,32.4.3,1.7,2.2,2.7,3.8,1.9.3-.2,26.6-18.5,26.6-18.5,10.9.1,21.6,3.5,32.3,5.2,2,.3,3.6-1.6,3-3.5-3.4-10.5-10.9-20.5-10.2-31.5.6-10.7,9.2-19.4,13.7-29.1.7-1.4,0-3.1-1.5-3.6-.8-.3-.8-.2-.9-.2-22.6,3.1-34.1,6.8-56.5-24.4ZM131.2,430.9c.1,0,.2.1.4.2,5.3,1.8,5.8.4,30.4,1.2-11.6,24.7-12.3,24.6-12.7,27.1,0,0,0,.5,0,.8,3.1,9.6,6.2,19.1,9.3,28.7-27.2-4.4-27.3-5.1-29.9-4.7-1.1.2-1.1.4-24.9,17-5.3-27.4-4.7-27.7-5.9-30.1,0-.1-.1-.2-.2-.3-3.3-4.5-4.5-3.6-24.5-18.8,24-12.5,24.5-11.9,26.3-13.8,0,0,.4-.4.5-.7,3.1-9.3,6-18.7,9.1-28,20.1,19.6,19.8,20.2,22.2,21.4Z" fill="#714e67"/></g></svg>