<?xml version="1.0" encoding="UTF-8"?><svg id="b" xmlns="http://www.w3.org/2000/svg" viewBox="0 0 720 653.1"><g id="c"><path d="M717.1,152.5c-7.2-25.1-26.9-46.5-52.8-57.4-25.1-10.6-53.1-9.8-79.6,1.9-.8-29-12.1-54.6-32.4-72.8-20.9-18.7-48.8-27.4-74.5-23.2-48.1,7.9-83,62.1-86.7,134.7-4.2,51.3,22.3,118.7,41.2,159.3-25.3,37.8-55.5,82.8-85.2,127.3-23.1-34.8-46.2-69.4-66.6-99.9,16.3-39.5,38.7-105.1,32.4-153.8-6.8-69.4-42.6-119.6-89-125.1-24.9-2.9-51.2,6.6-70.4,25.5-18.5,18.1-28.1,42.8-27.8,70.3-25.7-9.7-52.2-9.1-75.6,2-24.3,11.6-42.3,33-48.1,57.4-10.8,45.5,24.2,96.3,86.8,126.4,35.9,18.6,88.9,22.9,130.4,22.9,8.9,0,17.2-.2,24.8-.5,22.7,34.3,49.5,74.8,76.2,115.1-43.5,65.2-82.3,123.6-98.2,148.2-1.8,2.8-3.8,8.8,3.4,17.2,3.4,4,11.1,9.1,16.1,10.7,2.8.9,5.3,1.3,7.3,1.3,5.6,0,8.5-2.7,9.9-4.8,16.7-24.2,50.4-74.1,88.8-131.4,42.3,63.8,80.6,121.1,96.7,144.5,1.4,2,4.3,4.8,9.9,4.8s4.4-.4,7.2-1.3c4.9-1.6,12.2-6.4,15.6-10.4,7.1-8.3,5.2-14.3,3.3-17.1-18.2-28.4-60.2-92.1-105.8-160.9,32.8-49.1,67-100.4,95.9-144,44.7-.2,117.4-5,162.1-30.8,64.1-34.6,98.2-89.3,84.7-136.1Z" fill="#714e67"/><path d="M187.2,239.4c-5.3,6.1-6.5,12.4-3.3,17.2.7,1,21.9,33.2,52.2,79-41.6,1.2-102.9-1.2-141.9-21.3C36.6,286.6,4.3,241.2,13.8,201.5c4.9-20.5,20.8-39.4,41.5-49.2,10.7-5.1,22.3-7.7,34.1-7.7s26.9,3.2,40.2,9.6c2,1,4.3.8,6.1-.5,1.8-1.3,2.8-3.4,2.6-5.6-2.7-27.8,5.7-52.8,23.7-70.5,16.4-16.1,39.5-24.5,60.5-22.1,40.6,4.7,72.1,50.6,78.4,114.4,5.5,43.3-13.1,101.6-28.5,140.3-22.6-33.8-41.4-61.6-52.4-77.6,0,0,0,0,0,0-1.9-2.8-6.7-6.9-17.1-3.5-4.9,1.6-12.2,6.4-15.6,10.4Z" fill="#ffb1be"/><path d="M626.7,278.5c-40.1,23.1-104.9,28.5-148.7,29.3,23.8-36,43.4-65.7,54.5-83,0,0,0,0,0,0,1.8-2.8,3.8-8.8-3.4-17.2-3.4-4-11.1-9.1-16.1-10.7-7.8-2.5-14.1-1.2-17.3,3.5-.7,1.1-23.6,35.1-55.9,83.4-18.1-39.9-41-100.9-37.2-147.2,3.5-67.2,34.5-117,77.1-124,22-3.6,46.9,4.2,64.9,20.4,19.8,17.8,29.9,43.7,28.4,73.2-.1,2.1.9,4.1,2.7,5.2,1.8,1.1,4,1.2,5.8.2,25.9-14,53.7-16,78.3-5.6,22.3,9.4,40,28.5,46.2,49.9,11.9,41.5-19.9,90.8-79.2,122.8Z" fill="#fe6d68"/><path d="M366.8,474.9c44,66.4,84.3,127.5,102.3,155.6-.2.5-.8,1.5-1.8,2.7-1.9,2.1-7.2,5.7-9.9,6.6-1.6.5-2.7.6-3.2.6-16.7-24.3-56-83.2-99-148.1,3.9-5.8,7.8-11.6,11.7-17.5ZM254.8,340.9c1.3,1.9,2.6,3.9,3.9,5.8,20.9,31.7,45,68,69.1,104.4,3.9-5.8,7.8-11.6,11.7-17.5-22.4-33.7-44.8-67.3-64.9-97.4-1.3-2-2.7-4-4-6-1.4-2-2.7-4-4-6-24.4-36.4-44.7-66.6-56.6-83.8-.6,0-1.6.1-3.2.6-2.7.9-8.1,4.4-9.9,6.6-1,1.2-1.6,2.2-1.8,2.7,3.7,5.6,25.8,39.1,55.9,84.6,1.3,1.9,2.6,3.9,3.9,5.9ZM363.4,458.3c1.3-1.9,2.5-3.8,3.8-5.7,30.3-45.3,61.6-92.3,88.7-133.2,1.3-1.9,2.5-3.8,3.8-5.7,1.3-1.9,2.6-3.9,3.8-5.8,25.6-38.6,46.7-70.8,58.6-89.2-.2-.5-.7-1.7-2.1-3.3-2-2.3-7.8-6.2-10.6-7.1-1.9-.6-3.2-.7-3.9-.7-3.3,5-27.2,40.4-59.6,88.8-1.2,1.8-2.5,3.7-3.7,5.6-1.2,1.8-2.5,3.7-3.7,5.6-25.3,37.7-55,82-84,125.5-1.3,1.9-2.5,3.8-3.8,5.7-1.3,1.9-2.5,3.8-3.8,5.7-3.9,5.9-7.8,11.7-11.7,17.5-1.3,1.9-2.5,3.8-3.8,5.7-1.3,1.9-2.5,3.8-3.8,5.7-42.1,63.1-79.3,119.1-95,143.3.2.5.7,1.7,2.1,3.3,2,2.3,7.8,6.2,10.7,7.1,2,.7,3.3.7,3.9.7,17.2-24.9,51.9-76.3,91.2-135,1.3-1.9,2.5-3.8,3.8-5.7,1.3-1.9,2.5-3.8,3.8-5.7,3.9-5.8,7.8-11.6,11.7-17.5,1.3-1.9,2.5-3.8,3.8-5.7Z" fill="#f8fcb9"/><path d="M717.1,152.5c-7.2-25.1-26.9-46.5-52.8-57.4-25.1-10.6-53.1-9.8-79.6,1.9-.8-29-12.1-54.6-32.4-72.8-20.9-18.7-48.8-27.4-74.5-23.2-48.1,7.9-83,62.1-86.7,134.7-4.2,51.3,22.3,118.7,41.2,159.3-25.3,37.8-55.5,82.8-85.2,127.3-23.1-34.8-46.2-69.4-66.6-99.9,16.3-39.5,38.7-105.1,32.4-153.8-6.8-69.4-42.6-119.6-89-125.1-24.9-2.9-51.2,6.6-70.4,25.5-18.5,18.1-28.1,42.8-27.8,70.3-25.7-9.7-52.2-9.1-75.6,2-24.3,11.6-42.3,33-48.1,57.4-10.8,45.5,24.2,96.3,86.8,126.4,35.9,18.6,88.9,22.9,130.4,22.9,8.9,0,17.2-.2,24.8-.5,22.7,34.3,49.5,74.8,76.2,115.1-43.5,65.2-82.3,123.6-98.2,148.2-1.8,2.8-3.8,8.8,3.4,17.2,3.4,4,11.1,9.1,16.1,10.7,2.8.9,5.3,1.3,7.3,1.3,5.6,0,8.5-2.7,9.9-4.8,16.7-24.2,50.4-74.1,88.8-131.4,42.3,63.8,80.6,121.1,96.7,144.5,1.4,2,4.3,4.8,9.9,4.8s4.4-.4,7.2-1.3c4.9-1.6,12.2-6.4,15.6-10.4,7.1-8.3,5.2-14.3,3.3-17.1-18.2-28.4-60.2-92.1-105.8-160.9,32.8-49.1,67-100.4,95.9-144,44.7-.2,117.4-5,162.1-30.8,64.1-34.6,98.2-89.3,84.7-136.1ZM478,307.8c23.8-36,43.4-65.7,54.5-83,0,0,0,0,0,0,1.8-2.8,3.8-8.8-3.4-17.2-3.4-4-11.1-9.1-16.1-10.7-7.8-2.5-14.1-1.2-17.3,3.5-.7,1.1-23.6,35.1-55.9,83.4-18.1-39.9-41-100.9-37.2-147.2,3.5-67.2,34.5-117,77.1-124,22-3.6,46.9,4.2,64.9,20.4,19.8,17.8,29.9,43.7,28.4,73.2-.1,2.1.9,4.1,2.7,5.2,1.8,1.1,4,1.2,5.8.2,25.9-14,53.7-16,78.3-5.6,22.3,9.4,40,28.5,46.2,49.9,11.9,41.5-19.9,90.8-79.2,122.8-40.1,23.1-104.9,28.5-148.7,29.3ZM455.9,319.4c-27.1,40.9-58.4,87.9-88.7,133.2-1.3,1.9-2.5,3.8-3.8,5.7-1.3,1.9-2.5,3.8-3.8,5.7-3.9,5.9-7.8,11.7-11.7,17.5-1.3,1.9-2.5,3.8-3.8,5.7-1.3,1.9-2.5,3.8-3.8,5.7-39.3,58.7-74,110.1-91.2,135-.6,0-1.8,0-3.9-.7-2.9-.9-8.7-4.8-10.7-7.1-1.4-1.6-2-2.8-2.1-3.3,15.6-24.3,52.9-80.3,95-143.3,1.3-1.9,2.5-3.8,3.8-5.7,1.3-1.9,2.5-3.8,3.8-5.7,3.9-5.8,7.8-11.6,11.7-17.5,1.3-1.9,2.5-3.8,3.8-5.7,1.3-1.9,2.5-3.8,3.8-5.7,29.1-43.5,58.7-87.8,84-125.5,1.3-1.9,2.5-3.7,3.7-5.6,1.3-1.9,2.5-3.7,3.7-5.6,32.5-48.4,56.3-83.9,59.6-88.8.7,0,2,0,3.9.7,2.9.9,8.7,4.8,10.6,7.1,1.4,1.6,2,2.8,2.1,3.3-11.9,18.4-33,50.5-58.6,89.2-1.3,1.9-2.5,3.8-3.8,5.8-1.3,1.9-2.5,3.8-3.8,5.7ZM467.2,633.2c-1.9,2.1-7.2,5.7-9.9,6.6-1.6.5-2.7.6-3.2.6-16.7-24.3-56-83.2-99-148.1,3.9-5.8,7.8-11.6,11.7-17.5,44,66.4,84.3,127.5,102.3,155.6-.2.5-.8,1.5-1.8,2.7ZM254.8,340.9c-1.3-2-2.6-3.9-3.9-5.9-30.1-45.5-52.2-79-55.9-84.6.2-.6.8-1.6,1.8-2.7,1.8-2.1,7.2-5.7,9.9-6.6,1.6-.5,2.7-.6,3.2-.6,11.8,17.2,32.2,47.4,56.6,83.8,1.3,2,2.7,4,4,6,1.3,2,2.7,4,4,6,20.1,30.1,42.5,63.7,64.9,97.4-3.9,5.9-7.8,11.7-11.7,17.5-24.1-36.4-48.2-72.8-69.1-104.4-1.3-2-2.6-3.9-3.9-5.8ZM94.2,314.2C36.6,286.6,4.3,241.2,13.8,201.5c4.9-20.5,20.8-39.4,41.5-49.2,10.7-5.1,22.3-7.7,34.1-7.7s26.9,3.2,40.2,9.6c2,1,4.3.8,6.1-.5,1.8-1.3,2.8-3.4,2.6-5.6-2.7-27.8,5.7-52.8,23.7-70.5,16.4-16.1,39.5-24.5,60.5-22.1,40.6,4.7,72.1,50.6,78.4,114.4,5.5,43.3-13.1,101.6-28.5,140.3-22.6-33.8-41.4-61.6-52.4-77.6,0,0,0,0,0,0-1.9-2.8-6.7-6.9-17.1-3.5-4.9,1.6-12.2,6.4-15.6,10.4-5.3,6.1-6.5,12.4-3.3,17.2.7,1,21.9,33.2,52.2,79-41.6,1.2-102.9-1.2-141.9-21.3Z" fill="#714e67"/></g></svg>