<?xml version="1.0" encoding="UTF-8"?><svg id="b" xmlns="http://www.w3.org/2000/svg" viewBox="0 0 720 364.8"><g id="c"><path d="M648.7,32.2c-4.6,3.6-6.6,4.9-20.5,21.5-5,6-36.3,44.3-60.2,73.9-7.8-13.1-22.6-29.2-39.7-36.8-46.1-20.3-75.5,31.1-86.1,52-7.4-9.8-25.6-32.3-47.5-43.3-54.5-27.5-83.9,34.8-87.1,54.4-.1.9-.2,2-.3,3.3-10.4-1.3-23.4-1.2-38.6,2.7-2,.5-4,1.1-5.9,1.6-1.6-10-4.4-20.5-9-30.7-5-11-31.9-37.8-61.7-36.9-44.7,1.3-63.5,62.1-68.8,81.8-8-6.7-22.4-17.6-38.9-23.7,15.7-28.1,35.8-61,54-85.3,11.4-15.3,22.6-28.4,30.7-24.9,8.4,3.7,11.2,21.1,18,23.8,6,2.4,15.6.3,17.4-15.3,3.2-28.8-23.3-77.2-73.2-31.9-4.3,4-6.2,5.4-18.8,23-7.5,10.5-78.4,112.7-79.7,115.9,0,.2-.1.3-.2.4C10,174.9.4,208.8,0,223.3c-.6,22.3,5.8,39.3,5.9,39.6,18.5,54.7,73.3,73.6,85.9,78.2,6.2,2.2,25.1,12.1,79.1,21.2,1.2.2,10.2,1.7,14.6,2.4.9.1.9,0,1.7-.4v-.3c16.6-13.3,41.5-50.3,58-89.3.6-1.5,11.2-25.2,16.5-56.1,13.7-4.5,28.2-1.8,33.8-1,9.6,1.2,19.1,3.6,26.8,6.3,6.7,14.1,16.5,30.1,30.9,47.4,13.3,16,35.8,37.2,61.4,54.2,24.3,16.2,37.1,19.3,38.4,19.6v.3c1,0,1,.2,1.8-.3.2-.1,3.5-2.4,3.9-2.6,53.1-35.6,67.1-53.9,72.9-59.6,39.9-38.9,49.6-76.2,49.3-104,18.8-29.5,47.1-69.9,71.4-97.8,12.6-14.4,24.8-26.6,32.5-22.4,8.1,4.3,9.5,21.9,16.1,25.1,5.8,2.8,15.5,1.5,18.5-13.9,5.4-28.5-17.3-78.8-70.5-37.4Z" fill="#714e67"/><path d="M567.4,137.8c-.2-.4-.3-.8-.4-1.2-.2-.6-.5-1.3-.8-2-.4-.9-.9-1.9-1.4-2.9-12.2-22.7-55.3-69.8-97.6-17.8-13,16-21,35.5-21.8,36.7-1.1,1.6-3.6,1.9-5.1,0-4.5-5.6-22.5-30-43.6-43-12.3-7.6-39.9-20.8-66.4,10.7-10.6,12.6-18.2,30.4-18.6,38.8,0,.2,0,.4,0,.6,0,.9,0,1.9-.1,3.1,0,.9,0,2,0,3.1,0,11.1,2.1,30.6,14.7,55.9.6,1.1,1.1,2.2,1.7,3.4.6,1.1,1.2,2.2,1.8,3.3,4.9,8.9,11,18.3,18.8,28.4,1.4,1.8,7.9,10.2,18.6,21.8,21.4,23.3,41.8,38.3,46,41.4,22.4,16.5,35.2,21.3,39.9,22.8,32.8-22.3,51.5-39.6,55.7-43.4,11.1-10.2,14.7-15,19.7-20,9-9.1,41.3-42.8,46.1-88.6.2-2,.4-4,.5-6,0-1.7.1-3.5.1-5.2,0-1.7,0-3.3-.1-5-.2-3.8-.9-17.9-7.4-35ZM551.6,176.3c0,1.8-.2,3.6-.5,5.5-.4,3.4-1.1,6.9-2.1,10.7-.7,2.8-6.2,23.8-22.5,44.5-16.7,21.2-34.6,33.1-66.9,60.9-3.7,3.2-7,6.2-7.1,6.2-2,1.8-2,1.8-2.2,2-.9.6-2.3.7-3.4-.2-.9-.7-12.1-10.1-29.8-26.6-3.2-3-23.8-22.4-32.7-31.4-26-25.9-28.6-32.9-31.6-40.1-2.4-5.5-4.1-10.9-5.1-16-1-5.1-1.1-10.1-.2-14.9,1.9-10.1,8.4-19.7,21.8-28.9,26.9-18.5,53.7,17.1,74.1,39.5,2.5,2.7,4.2,4.5,5.4,5.7,11.5-33.7,30.5-57.8,49.2-65.5,4.6-1.9,11.5-3.1,17.6-1.8,0,0,5.6.6,15.1,7.4,5.1,3.6,12.3,9.7,16.8,19.7.5,1.1,1,2.3,1.4,3.5.4,1.2.8,2.5,1.2,3.8.7,2.8,1.2,5.8,1.5,9.1.2,2.1.2,4.4,0,6.8ZM44.5,151.2c-1.9.8-3.8,1.6-5.6,2.6,15.2-23.2,79.7-119.2,90.1-129.3,69.4-67.2,88,47.6,59.3,38.5-7.9-2.5-12.2-44.6-40.5-12.2-17.5,20-44.9,63.9-65.9,100.6-.8-.3-1.7-.5-2.5-.8-3.2-.9-6.4-1.7-9.7-2.1-9.5-1.3-17.9-.1-25.2,2.8ZM259,164.9c0-.7-.2-1.4-.3-2.1-1.5-10.5-4.3-20.8-9-30.6-5.5-11.4-45.4-48.8-80-25-8.3,5.8-26,20.6-41,72.4-.4,1.5-.7,3.1-1.5,3.9-1,1-2.9,1.4-4.3.2-4.8-4-21.2-19.6-41.1-27.1-.8-.3-1.6-.6-2.4-.9-.8-.3-1.7-.5-2.5-.8-11.5-3.5-24-3.8-35.8,2.4-.5.3-1,.5-1.5.8-.5.3-.9.6-1.4.9-1.3.8-2.6,1.7-3.8,2.7-20.4,15.8-29.2,48.2-29.1,62.7.5,80.1,77.8,107.1,88.6,111.3,4.5,1.7,16.4,7.9,44.2,15,21.6,5.5,42.2,8.9,47.4,9.8,15.4-13.8,32.3-42.4,42.6-63.4,3.2-6.4,9.7-20.1,17.7-42.6,3-8.6,6.7-20.1,9.6-33.2.2-.9.4-1.8.6-2.7.2-.9.4-1.8.5-2.7,2.9-15.1,4.5-32,2.7-48.8,0-.7-.1-1.4-.2-2.1ZM229.7,202.3c0,1.1-.2,2.4-.5,3.7-.4,2.3-1,4.8-1.7,7.6-.5,1.8-1.1,3.7-1.7,5.6-5.4,16.7-15.4,38.6-23.3,56.3-13.6,30.7-23.8,50.3-24.4,51.1-.5.7-1.7,1.5-3.3,1-6.1-1.8-10-3.3-48.8-13.6-19.4-5.1-40.6-10.8-59.8-24.5-7.5-5.4-42.2-30.9-36.6-64.6,2-11.8,8.3-21.2,13-27.2,3.6-4.5,7.8-7.3,11.8-9.1,1-.4,2-.8,2.9-1.1,1.9-.6,3.7-1,5.3-1.2,1.2-.2,2.4-.3,3.4-.3,2.5-.1,4.3,0,4.9,0,15.5,1,40.2,11.5,64.3,38.4,12.3-29.9,23.1-80.9,57.3-75.2,22,3.7,31.7,13.7,35.4,27.5.3,1,.5,2,.7,3.1.2,1.1.4,2.2.5,3.3.8,5.9.8,12.4.3,19.3ZM307.5,170.3c.6,8.7,2.5,25.2,11.8,46.9-4.1-1.5-8.4-2.9-12.9-4.1-5.4-1.4-10.8-2.3-11.1-2.3-13.2-1.5-23.9-.4-32.8,2.6,1.5-10.4,3.4-28,.9-47.7.1,0,.2,0,.3-.1,8.5-2.4,24.3-5.9,43.5-2.4,0,2.8.2,5.5.3,7.2ZM702.3,80.8c-7.7-3.1-8.8-45.4-39.4-15.3-21.4,21-57.9,71.4-82.3,108.4,0-1.5-.2-2.9-.3-4.3-1.5-16.4-6-28.5-8.4-34.3-.3-.7-.6-1.4-1-2.2-.4-.9-.9-1.9-1.4-2.9,27.8-35.2,68.4-85.6,76.6-92.4,74.4-61.7,84.1,54.2,56.1,42.9Z" fill="#fb96b8"/><path d="M458.1,219.1s0,0,0,0c0,0,0,0,0,0,0,0,0,0,0,0ZM547.5,175.6c-.3,8.5-2.7,21.5-12.2,38.7-8.7,15.9-19.4,28.3-37.7,43.5-19.7,16.3-23.4,17.7-49.1,41.9-5-3.9-16.8-13.5-31.9-27-1-.9-15-13.1-30.7-29.6-6.2-6.6-21.6-23.1-25.8-32.5-9.7-22-10.6-36.9,6-51.8,7.1-6.4,11-7.9,12.1-8.3,19.5-7.5,41.3,18.7,60.7,38.9.7.7,6.4,6.7,9.1,9.1,1.3,1.2,2.8.4,3.2-.2.1-.2.2-.4.3-.6h-.3c1.4-3.8,7.2-20.3,18.9-36.9.6-.8,10.4-15.3,23-23.2,14.6-9.1,24-5.1,27.4-3.5,14.4,7,20.7,16.2,23.7,23.1.6,1.3,1,2.5,1.3,3.6.5,1.6.8,3,1,4,.2.7.4,2,.6,3.7.2,1.8.4,4.2.3,7.1ZM460.1,254.9s-.4-1.5-.4-1.6c-.3-.4-.7-.5-1.2-.7h0c-3-2.4-4.5-3.9-6.5-5.6-2.4-1.9-8.8-4.3-10.6-6-.9-.8-4.1-4.3-5-5.1-1.6-1.5-9.6-5.3-10.7-6.2-.9-.8-4.1-4.6-4.8-5.2-.4-.4-6.2-3-6.7-3.2l-.5.5-2.1-.5c0,.9-.2,1.8,0,2.6,0,0,4.8,5.6,5.4,6,.8.5,5.4,2.4,6.3,3,.9.6,7.1,6.8,8.6,7.9,1,.7,5.8,2.8,7,3.5,1.7.9,5.4,5,7.7,6.9,2.2,1.9,9.2,5,10.7,5.3,1.8.5,1.8-.1,2.7-1.8ZM485,232.8c0-1-.4-.9-.9-1.8-.2-.3-1.7-2.4-3.1-3.8-1.2-1.1-4.9-1.8-5.9-2.5-.5-.3-2.2-2.7-2.8-3.3-.9-.9-5.7-1.9-6.3-2.4-.3-.2-1.1-1.3-1.2-1.4,0-.1-1.2-1.5-1.4-1.6-.4-.2-3.9-.6-4.8-.7,0,0-.3,0-.4,0-.7.6-1.2,1.3-1.9,1.9.5.5,1.1,1,1.6,1.5,0,.1,0,.2,0,.3,0,.2,2.1,2.7,2.3,2.8,0,0,.2,0,1,.2.2,0,2.3.3,2.8.5.5.2,3.4,3.3,3.6,3.5,1.3,1.3,1.5,1.1,3.3,1.5,1.8.4,2,.2,3.2,1.6,2.5,2.9,2.4,3.1,3.9,3.7,1.4.6,1.4.6,2.8,1.2,1.8.8,1.8,1,2.4,1,.5,0,1-.5,1.5-.7,0,0,.6-1.5.6-1.6ZM223.4,183.6c.7,3.9.9,8.3.9,13.1,0,1.7,0,3.4-.1,5.3,0,1.8-.4,4-.9,6.6-3.5,16.9-16.2,47.4-23.5,62.8-12,25.3-21.6,42.9-25.3,49.6-.8-.3-1.5-.5-2.3-.8-43.1-14.5-63.7-14.3-91-27.9-18.8-9.4-36.2-25.6-42.9-39.9-10-21.1-.5-37.5,4.6-44.9,5.6-8,9.6-11,13.8-12.7.7-.3,1.4-.5,2.1-.8,1.3-.4,2.7-.8,4.1-1,10.3-1.8,20.6,1.6,24.3,2.9,26.8,9.5,47.7,33.3,47.8,33.4l-.2.2c.2.1.4.3.6.4.7.5,2.4.4,3-1,7.5-16.8,12-31.5,19.2-46.2,11.9-24.3,22.9-29.2,34.9-26.9,18.6,3.6,27.2,11.2,30.4,24.4.3,1.1.5,2.2.7,3.4ZM135.6,250.3l1.7-.9c-1.3-.4-1.2-.5-2.5-1,0,0-.1,0-.2,0-.1,0-.3.1-.4.2-1,.5-3.2,1.8-4,2.5-.2.2-1,3.4-1.3,3.9-.2.4-3.5,3.1-3.9,3.5-1.4,1.3-1.2,1.5-1.8,3.4-.5,1.9-.4,2-1.8,3.3-.2.2-1.9,1.7-2.4,2.2-.6.5-1,.7-2,4.1,0,.3-1,3.4-.8,4.2.2.5.7.8,1.1,1.2,0,0,1.6,0,1.7,0,.9-.3.8-.5,1.3-1.2,0-.1,2.7-2.7,3.3-3.5.9-1.1,1.6-4.9,2.3-5.9.3-.5,2.9-2.3,3.4-2.7.9-.8,2.3-5.6,2.9-6.2.3-.3,1.5-1.1,1.7-1.1.3-.2.7-.4,1-.6.9-.6.8-.8,1.1-1.8.1-.4.7-2.1.6-2.2-.6-.7-.5-.7-1.1-1.5ZM181.2,236.5c-.3-.9-.8-1.6-1.1-2.5l-1.8,1.2-.5-.3c-2,2.1-4.9,5.4-5.1,5.8-.4.8-2,5.7-2.5,6.8-.5.9-5.6,7.2-6.7,8.7-1.7,2.3-2.4,5.9-4,9-.4.8-5.3,6.4-6.3,7.7-1.4,1.9-2.7,5.1-5.1,9.5h0c-.3.4-.7.8-.8,1.2,0,0,.3,1.6.3,1.6,1.5,1.1,1.7,1.6,3.2.5,1.6-1.2,6.6-7,7.6-8.7,1.3-2.4,3.7-8.3,4.5-9.6.7-1.1,5-5.6,5.7-6.8,1-1.6,4.5-10,5.1-10.9.7-1,4.3-4.7,4.8-5.4.4-.6,2.8-7.7,2.8-7.7Z" fill="#c899d8"/><path d="M648.7,32.2c-4.6,3.6-6.6,4.9-20.5,21.5-5,6-36.3,44.3-60.2,73.9-7.8-13.1-22.6-29.2-39.7-36.8-46.1-20.3-75.5,31.1-86.1,52-7.4-9.8-25.6-32.3-47.5-43.3-54.5-27.5-83.9,34.8-87.1,54.4-.1.9-.2,2-.3,3.3-10.4-1.3-23.4-1.2-38.6,2.7-2,.5-4,1.1-5.9,1.6-1.6-10-4.4-20.5-9-30.7-5-11-31.9-37.8-61.7-36.9-44.7,1.3-63.5,62.1-68.8,81.8-8-6.7-22.4-17.6-38.9-23.7,15.7-28.1,35.8-61,54-85.3,11.4-15.3,22.6-28.4,30.7-24.9,8.4,3.7,11.2,21.1,18,23.8,6,2.4,15.6.3,17.4-15.3,3.2-28.8-23.3-77.2-73.2-31.9-4.3,4-6.2,5.4-18.8,23-7.5,10.5-78.4,112.7-79.7,115.9,0,.2-.1.3-.2.4C10,174.9.4,208.8,0,223.3c-.6,22.3,5.8,39.3,5.9,39.6,18.5,54.7,73.3,73.6,85.9,78.2,6.2,2.2,25.1,12.1,79.1,21.2,1.2.2,10.2,1.7,14.6,2.4.9.1.9,0,1.7-.4v-.3c16.6-13.3,41.5-50.3,58-89.3.6-1.5,11.2-25.2,16.5-56.1,13.7-4.5,28.2-1.8,33.8-1,9.6,1.2,19.1,3.6,26.8,6.3,6.7,14.1,16.5,30.1,30.9,47.4,13.3,16,35.8,37.2,61.4,54.2,24.3,16.2,37.1,19.3,38.4,19.6v.3c1,0,1,.2,1.8-.3.2-.1,3.5-2.4,3.9-2.6,53.1-35.6,67.1-53.9,72.9-59.6,39.9-38.9,49.6-76.2,49.3-104,18.8-29.5,47.1-69.9,71.4-97.8,12.6-14.4,24.8-26.6,32.5-22.4,8.1,4.3,9.5,21.9,16.1,25.1,5.8,2.8,15.5,1.5,18.5-13.9,5.4-28.5-17.3-78.8-70.5-37.4ZM574.3,189c-4.8,45.8-37.1,79.5-46.1,88.6-4.9,5-8.6,9.8-19.7,20-4.2,3.8-22.9,21.1-55.7,43.4-4.8-1.5-17.5-6.3-39.9-22.8-4.3-3.1-24.7-18.2-46-41.4-10.7-11.7-17.2-20-18.6-21.8-7.8-10-13.9-19.5-18.8-28.4-.6-1.1-1.2-2.2-1.8-3.3-.6-1.1-1.2-2.3-1.7-3.4-12.6-25.3-14.6-44.8-14.7-55.9,0-1.1,0-2.1,0-3.1,0-1.2,0-2.2.1-3.1,0-.2,0-.4,0-.6.5-8.5,8-26.2,18.6-38.8,26.5-31.5,54.1-18.3,66.4-10.7,21.1,13,39.1,37.4,43.6,43,1.5,1.9,4,1.5,5.1,0,.8-1.1,8.8-20.6,21.8-36.7,42.3-52,85.4-4.9,97.6,17.8.5,1,1,2,1.4,2.9.3.7.6,1.3.8,2,.2.4.3.8.4,1.2,6.5,17.1,7.2,31.1,7.4,35,0,1.7.1,3.4.1,5,0,1.8,0,3.5-.1,5.2-.1,2-.3,4-.5,6ZM306.3,213c-5.4-1.4-10.8-2.3-11.1-2.3-13.2-1.5-23.9-.4-32.8,2.6,1.5-10.4,3.4-28,.9-47.7.1,0,.2,0,.3-.1,8.5-2.4,24.3-5.9,43.5-2.4,0,2.8.2,5.5.3,7.2.6,8.7,2.5,25.2,11.8,46.9-4.1-1.5-8.4-2.9-12.9-4.1ZM255.4,221.2c-2.8,13.1-6.5,24.6-9.6,33.2-8,22.5-14.6,36.2-17.7,42.6-10.3,21-27.2,49.7-42.6,63.4-5.2-.8-25.8-4.2-47.4-9.8-27.8-7.1-39.7-13.3-44.2-15-10.8-4.2-88.2-31.1-88.6-111.3,0-14.5,8.7-46.9,29.1-62.7,1.2-1,2.5-1.9,3.8-2.7.5-.3.9-.6,1.4-.9.5-.3,1-.5,1.5-.8,11.8-6.2,24.3-5.9,35.8-2.4.8.3,1.7.5,2.5.8.8.3,1.6.6,2.4.9,19.9,7.5,36.3,23.1,41.1,27.1,1.4,1.2,3.3.9,4.3-.2.8-.8,1.1-2.4,1.5-3.9,15-51.8,32.6-66.7,41-72.4,34.6-23.9,74.4,13.6,80,25,4.7,9.8,7.6,20.2,9,30.6,0,.7.2,1.4.3,2.1,0,.7.2,1.4.2,2.1,1.8,16.8.2,33.7-2.7,48.8-.2.9-.3,1.8-.5,2.7-.2.9-.4,1.8-.6,2.7ZM129,24.5c69.4-67.2,88,47.6,59.3,38.5-7.9-2.5-12.2-44.6-40.5-12.2-17.5,20-44.9,63.9-65.9,100.6-.8-.3-1.7-.5-2.5-.8-3.2-.9-6.4-1.7-9.7-2.1-9.5-1.3-17.9-.1-25.2,2.8-1.9.8-3.8,1.6-5.6,2.6,15.2-23.2,79.7-119.2,90.1-129.3ZM702.3,80.8c-7.7-3.1-8.8-45.4-39.4-15.3-21.4,21-57.9,71.4-82.3,108.4,0-1.5-.2-2.9-.3-4.3-1.5-16.4-6-28.5-8.4-34.3-.3-.7-.6-1.4-1-2.2-.4-.9-.9-1.9-1.4-2.9,27.8-35.2,68.4-85.6,76.6-92.4,74.4-61.7,84.1,54.2,56.1,42.9ZM550,160.4c-.3-1.3-.7-2.6-1.2-3.8-.4-1.2-.9-2.4-1.4-3.5-4.5-10-11.7-16.1-16.8-19.7-9.5-6.8-15.1-7.4-15.1-7.4-6.2-1.3-13-.1-17.6,1.8-18.7,7.8-37.7,31.8-49.2,65.5-1.2-1.2-2.9-2.9-5.4-5.7-20.5-22.4-47.3-58-74.1-39.5-13.4,9.2-19.9,18.7-21.8,28.9-.9,4.8-.8,9.7.2,14.9,1,5.2,2.7,10.5,5.1,16,3,7.1,5.7,14.2,31.6,40.1,9,8.9,29.5,28.4,32.7,31.4,17.7,16.6,28.9,25.9,29.8,26.6,1.1.9,2.5.7,3.4.2.2-.2.2-.2,2.2-2,0,0,3.4-3,7.1-6.2,32.2-27.8,50.2-39.7,66.9-60.9,16.3-20.7,21.8-41.8,22.5-44.5,1-3.8,1.6-7.3,2.1-10.7.2-1.9.4-3.8.5-5.5.1-2.4,0-4.6,0-6.8-.2-3.3-.7-6.3-1.5-9.1ZM547.5,175.6c-.3,8.5-2.7,21.5-12.2,38.7-8.7,15.9-19.4,28.3-37.7,43.5-19.7,16.3-23.4,17.7-49.1,41.9-5-3.9-16.8-13.5-31.9-27-1-.9-15-13.1-30.7-29.6-6.2-6.6-21.6-23.1-25.8-32.5-9.7-22-10.6-36.9,6-51.8,7.1-6.4,11-7.9,12.1-8.3,19.5-7.5,41.3,18.7,60.7,38.9.7.7,6.4,6.7,9.1,9.1,1.3,1.2,2.8.4,3.2-.2.1-.2.2-.4.3-.6h-.3c1.4-3.8,7.2-20.3,18.9-36.9.6-.8,10.4-15.3,23-23.2,14.6-9.1,24-5.1,27.4-3.5,14.4,7,20.7,16.2,23.7,23.1.6,1.3,1,2.5,1.3,3.6.5,1.6.8,3,1,4,.2.7.4,2,.6,3.7.2,1.8.4,4.2.3,7.1ZM459.6,253.3s.4,1.6.4,1.6c-.9,1.6-.9,2.2-2.7,1.8-1.4-.4-8.5-3.4-10.7-5.3-2.3-2-6.1-6-7.7-6.9-1.2-.7-6.1-2.8-7-3.5-1.5-1.1-7.7-7.4-8.6-7.9-1-.6-5.6-2.6-6.3-3-.6-.4-5.4-6-5.4-6,0-.9.2-1.8,0-2.6l2.1.5.5-.5c.5.3,6.3,2.9,6.7,3.2.7.5,3.8,4.4,4.8,5.2,1.1.9,9.1,4.8,10.7,6.2.9.8,4.1,4.2,5,5.1,1.8,1.7,8.2,4.1,10.6,6,2,1.6,3.5,3.1,6.5,5.5h0c.4.3.9.4,1.2.8ZM480.9,227.3c-1.2-1.1-4.9-1.8-5.9-2.5-.5-.3-2.2-2.7-2.8-3.3-.9-.9-5.7-1.9-6.3-2.4-.3-.2-1.1-1.3-1.2-1.4,0-.1-1.2-1.5-1.4-1.6-.4-.2-3.9-.6-4.8-.7,0,0-.3,0-.4,0-.7.6-1.2,1.3-1.9,1.9.5.5,1.1,1,1.6,1.5,0,.1,0,.2,0,.3,0,.2,2.1,2.7,2.3,2.8,0,0,.2,0,1,.2.2,0,2.3.3,2.8.5.5.2,3.4,3.3,3.6,3.5,1.3,1.3,1.5,1.1,3.3,1.5,1.8.4,2,.2,3.2,1.6,2.5,2.9,2.4,3.1,3.9,3.7,1.4.6,1.4.6,2.8,1.2,1.8.8,1.8,1,2.4,1,.5,0,1-.5,1.5-.7,0,0,.6-1.5.6-1.6,0-1-.4-.9-.9-1.8-.2-.3-1.7-2.4-3.1-3.8ZM458.1,219.1s0,0,0,0c0,0,0,0,0,0,0,0,0,0,0,0ZM228.9,179.8c-.2-1-.4-2.1-.7-3.1-3.7-13.8-13.4-23.8-35.4-27.5-34.1-5.7-44.9,45.3-57.3,75.2-24.1-26.9-48.8-37.3-64.3-38.4-.6,0-2.4-.2-4.9,0-1,0-2.2.2-3.4.3-1.7.2-3.5.6-5.3,1.2-1,.3-1.9.7-2.9,1.1-4,1.7-8.2,4.5-11.8,9.1-4.7,5.9-11,15.4-13,27.2-5.6,33.7,29,59.2,36.6,64.6,19.2,13.7,40.4,19.3,59.8,24.5,38.8,10.3,42.7,11.8,48.8,13.6,1.5.5,2.8-.3,3.3-1,.6-.8,10.7-20.3,24.4-51.1,7.9-17.7,17.8-39.7,23.3-56.3.6-1.9,1.2-3.8,1.7-5.6.8-2.7,1.4-5.3,1.7-7.6.2-1.3.4-2.5.5-3.7.5-6.8.5-13.3-.3-19.3-.2-1.1-.3-2.2-.5-3.3ZM224.2,202c0,1.8-.4,4-.9,6.6-3.5,16.9-16.2,47.4-23.5,62.8-12,25.3-21.6,42.9-25.3,49.6-.8-.3-1.5-.5-2.3-.8-43.1-14.5-63.7-14.3-91-27.9-18.8-9.4-36.2-25.6-42.9-39.9-10-21.1-.5-37.5,4.6-44.9,5.6-8,9.6-11,13.8-12.7.7-.3,1.4-.5,2.1-.8,1.3-.4,2.7-.8,4.1-1,10.3-1.8,20.6,1.6,24.3,2.9,26.8,9.5,47.7,33.3,47.8,33.4l-.2.2c.2.1.4.3.6.4.7.5,2.4.4,3-1,7.5-16.8,12-31.5,19.2-46.2,11.9-24.3,22.9-29.2,34.9-26.9,18.6,3.6,27.2,11.2,30.4,24.4.3,1.1.5,2.2.7,3.4.7,3.9.9,8.3.9,13.1,0,1.7,0,3.4-.1,5.3ZM180.2,234c.3.9.8,1.6,1.1,2.5,0,0-2.4,7.1-2.8,7.7-.5.8-4.1,4.4-4.8,5.4-.6.9-4.1,9.3-5.1,10.9-.7,1.2-5,5.7-5.7,6.8-.8,1.3-3.2,7.3-4.5,9.6-1,1.8-6.1,7.5-7.6,8.7-1.5,1.2-1.7.6-3.2-.5,0,0-.3-1.6-.3-1.6.1-.5.5-.8.8-1.2h0c2.4-4.5,3.6-7.7,5.1-9.5,1-1.2,5.9-6.9,6.3-7.7,1.6-3.1,2.4-6.7,4-9,1.1-1.5,6.3-7.8,6.7-8.7.6-1.1,2.1-6,2.5-6.8.2-.3,3.1-3.6,5.1-5.8l.5.3,1.8-1.2ZM137.3,249.4l-1.7.9c.5.7.5.8,1.1,1.5,0,.1-.5,1.7-.6,2.2-.3,1.1-.2,1.2-1.1,1.8-.3.2-.7.4-1,.6-.1,0-1.4.8-1.7,1.1-.6.6-2,5.4-2.9,6.2-.5.5-3.1,2.3-3.4,2.7-.7,1-1.4,4.8-2.3,5.9-.6.8-3.2,3.3-3.3,3.5-.5.7-.4.9-1.3,1.2,0,0-1.6,0-1.7,0-.4-.4-.9-.7-1.1-1.2-.3-.8.7-3.9.8-4.2,1-3.3,1.5-3.5,2-4.1.4-.4,2.2-2,2.4-2.2,1.4-1.3,1.3-1.4,1.8-3.3.5-1.9.4-2,1.8-3.4.4-.4,3.7-3.1,3.9-3.5.3-.5,1.1-3.7,1.3-3.9.8-.7,3-1.9,4-2.5.1,0,.3-.1.4-.2,0,0,.1-.1.2,0,1.3.4,1.2.5,2.5,1Z" fill="#714e67"/></g></svg>