<?xml version="1.0" encoding="UTF-8"?><svg id="b" xmlns="http://www.w3.org/2000/svg" viewBox="0 0 666.6 720"><g id="c"><path d="M623.7,352.5c-4.7,0-12.2,2.2-15.6,3.4-42.8,15.5-25.3,65.6-20.4,74.9-.8,1.3-2.3,3.4-5.2,8.1-3.5,5.8-7.7,13.3-7.8,13.8,0,.2-.1.4-.1.6-1.2,1.1-2.4,2.2-3.5,3.3-1.7,1.7-7.5,7-4.9,12.7-20.7,38.1-21.8,71.2-20.7,86.1.4,5.7,2.9,18.5,1.9,35.8-3.2,60.6-44.8,90.4-91.4,101.3,6.7-5.1,13-10.9,18.7-17.4,40-45.4,31.2-100,29.1-113.1-5.3-32.5,1.4-53.3,9.1-69,.1,0,.2,0,.3,0,7.4,1.5,9.2-3.5,9.9-8.8.5-3.7,1.4-6.7,1.2-9.3.5-.5.9-1.1,1.3-1.7,4.2-6.5,3.4-15.9,7.7-25.7,6.7-2.4,31.4-10.7,34.2-44,3.5-40.9-37.2-51.9-55.3-46.3-4.5,1.4-11,5.7-13.9,7.9-36.2,27.5-4.8,70.2,2.7,77.6-.4,1.5-1.2,4-2.6,9.3-1.7,6.6-3.4,15-3.4,15.5,0,.2,0,.4,0,.7-.8,1.4-1.6,2.8-2.4,4.2-1.2,2.3-5.7,10,.1,14.6-9.5,29.9-9.7,54.6-8.9,66.1.4,6.2,4,29.7-.7,55.8-11.5,63.8-62.5,85.7-107.1,85.6-14.4-2.5-27.1-6.5-36.7-11.5-16.2-8.5-24.2-22.1-25.9-25.1-13.4-23.5-8.6-50.7-5.7-67.4,1.6-.6,2.1-1.2,2.4-1.9,0-.2.5-1.9.5-2,2.1-8.5,3.9-16.2,4.7-22.6,4.4,1,8.9,2,13.4,3,14.3,3.2,30.5-5.8,35.7-22.6q1.1-3.4,84.8-393.8c.2-1.3,1.6-7.2-4.2-24.5-3.6-10.8-9.1-23-15-33.6-8.1-14.4-14.2-20.9-18.1-23.8-2.8-3.1-6.1-5.6-9.9-7.4-6.7-3.1-7-2.2-285.2-60.6-16.2-3.4-32.2,7.7-36.3,25-.3,1.3-73.9,375.2-80.3,407.9-1.3,6.7-.7,13.2,1.5,19.1,2.1,18,21.1,44.4,35.4,49.8q2.9,1.1,238.7,52.9c-1.7,5.9-3.4,12.6-4.2,17.9-1.1,7.8,1.6,12.7,6.1,15.6-16.9,105.4,58.3,143.9,126.9,127.6,36.1,1.1,78.7-7.1,110.8-29.4,56.5-39.2,51-99.8,49-117.4-4.9-44.5,9.4-70.3,18.8-87.5.2.1.4.2.6.3,6.7,3.6,9.8-.6,12.1-5.5,1.6-3.4,3.3-6,3.9-8.5.6-.3,1.2-.8,1.8-1.2,5.9-5,8-14.2,15-22.3,7.1-.3,33.1-.9,45.7-31.9,15.4-38-20.2-60.6-39.1-60.6Z" fill="#714e67"/><path d="M210.4,319.3l.7-2.7h0l-.7,2.7ZM414.7,97s0,0,0,0c-26.7,135.7-53.4,271.3-80.1,407-2.2,11-11.4,21.2-23.7,22-7.4.5-7.3-.7-285.5-59.1-8.3-1.8-14.8-7.8-17.9-15.7-.9-2.3-1.6-4.8-1.9-7.4-.3-2.7-.3-5.5.2-8.3,0,0,.5-2.3,1.3-6.5C17,379.1,80.2,58,86.1,27.9c2.5-12.7,12.6-21.6,23.7-22.4,6.9-.5,7.3.5,235.3,48.5,15.6,3.3,32.3,6.8,50.2,10.6,3.3.7,6.2,2,8.8,3.9,1.7,1.2,3.3,2.6,4.6,4.2.4.5.9,1.1,1.3,1.6,7.7,10.6,4.8,22.4,4.8,22.7ZM69.8,342.6c4.3-.6,24.9,1.4,40.6-20.6,2.9-4,4.6-17.1-.2-25-8.3-13.8-27.4-4.4-34.6-.3-3.2-4.3-10.9-13.3-19.6-11.8-.5,0-.9.2-1.4.3-1,.3-2,.8-2.8,1.3-.1,0-.3.2-.4.3-4.7,3.2-7.3,10-6.8,17.3,0,.9.1,1.8.2,2.6,0,.8.2,1.7.3,2.5.4,2.4.8,4.6,1.4,6.6,4.5,15.6,15,22.9,20.9,26.6.4.1.8.6,2.3.3,0,0,0,0,0,0,0,0,0,0,0,0ZM266.3,356.7c-20.2-32.1-52.3-39.3-55.2-40.1h0c-5.1-1.3-27.1-7-52.9,2.1-45.4,16.1-67.1,65-48.8,108.9,18.9,45.5,72.8,67.9,118.2,49.6,48.5-19.5,66.6-76.1,38.6-120.6ZM388.4,93.8c-2.9-4.7-8.2-8.9-15-11.3-3.7-1.4-5.3-1.7-60-13.1-9.6-2-20.8-4.3-33.9-7.1-6.5-1.4-13.4-2.8-20.9-4.4-31.7-6.6-72.5-15.2-125.3-26.2-13.8-2.9-26.7,2-29.1,11.5-.2.6-31.7,161.1-38.9,197.8-.6,2.9-1,5.1-1.2,6.3-.1.7-.2,1.4-.2,2.1,0,2.1.4,4.3,1.3,6.3,2.5,5.4,8.1,10.2,15.6,13,6.4,2.4,6.6,1.8,240.4,50.9,13.4,2.8,26-1.8,28.9-10.8q.4-1.3,40.4-204.8c.1-.8,1.1-5-2.1-10.2Z" fill="#ffe0ef"/><path d="M224,412.2c-8.8,17.6-33,22.3-49.5,9.4-16.8-13.2-16.7-37.8.4-49.5,12.7-8.7,26.3-4.6,26.8-4.5h0c.3,0,.5.2.8.2,19.2,5.3,30.3,26.5,21.4,44.3Z" fill="#f8b5d6"/><path d="M367,86.4c-30.2-6.4-56.6-11.9-79.5-16.7-16-3.4-30.3-6.4-43.2-9.1-1.5-.3-3-.6-4.5-1-107.1-22.6-108.3-23.1-113.3-23.2-8.7-.3-16,3.2-17.1,8.6-12.6,64.2-21.3,108.1-27.2,138.2-1.3,6.4-2.4,12.2-3.4,17.4-2.7,14-4.7,23.8-6.1,30.8-3.3,16.9-3.4,17.1-3.4,17.6-.6,6.5,7.4,13.6,18.1,15.8,234,49.1,234,49.8,240.5,50,9.5.3,16.1-3.7,17-8.5,13.4-67.8,26.7-135.6,40-203.5h0c0,0,0-.2,0-.3,1-6.1-6.5-13.8-18.1-16.3ZM371.6,110c-35.6,180.7-34.4,181.3-37.5,185.7-4.6,6.7-14.9,8.9-24.6,6.8-208.5-43.8-208.6-43.3-214.1-45.3-10.4-3.7-16.9-11.8-15.4-19.5,1.3-6.4,8.3-42.1,15.8-80.2,4.3-21.9,8.8-44.6,12.4-63.1,1.9-9.6,3.5-18,4.8-24.5,1.7-8.8,2.8-14.2,2.8-14.3,2.2-8.6,13.8-13.1,26.3-10.5,24.3,5.1,45.7,9.6,64.6,13.6,2.5.5,5,1,7.4,1.6,16.9,3.5,31.7,6.6,44.7,9.3,92.1,19.2,93.2,19.3,97.4,20.8,5.7,2.1,10.3,5.5,13,9.4,3.5,5.1,2.5,9.3,2.4,10.1Z" fill="#9e799d"/><path d="M612.5,438.2c-.2,1.7-.4,3.3-.6,4.3-5.7,7-8.9,16.3-12.9,20-.6.5-1.1.9-1.7,1.2-.2,0-.4.2-.6.2-1.3.3-2.7,0-4.2-.6-2-.9-4.1-2.5-6.1-4.3-2.2-2-4.2-4.2-5.7-5.9.1-.2.2-.4.3-.6.6-1,1.1-2,1.7-3.1,2.5-4.5,5.2-9,8.7-14.3,1.5-2.3,2.9-4.1,1.5-6.5-2.4-4.1-5.8-14.5-6.9-24-3-26,8.7-42.1,35.2-46.6,6.7-1.1,17.8,2.4,26.6,9.8-9.6,9.5-29.1,27.8-35.2,70.2ZM317.3,110h0s0,0,0,0h0ZM350.9,126.2s0,0,0,0h0s0,0,0,0ZM642.5,399.6c6.3-3.9,14.7-4.6,18.6-4.7,0-9.3-4-17.1-9.4-23-9.1,9.1-28,26.4-33.8,67.6,1.1,0,2.5-.1,4.4-.3,6.4-.7,12.7-2.7,18.4-6.5-3.7-5.3-12.9-23.9,1.8-33.1ZM129.4,210c-.6-.1-1.1,0-1.4.2-.4.2-.7.8-1,1.6-.3.8-.6,2-.9,3.6-.4,1.8-.6,3.1-.6,3.9,0,.9,0,1.4.3,1.8.2.3.7.6,1.3.7.6.1,1.1,0,1.5-.2.4-.3.7-.8,1-1.6s.6-2,.9-3.6c.3-1.6.5-2.8.6-3.7,0-.9,0-1.5-.3-1.9-.2-.4-.7-.7-1.3-.8ZM505.5,439.3c2.1,1.9,1.3,4.1.5,6.7-1.8,6-3,11.2-4.1,16.2-.2,1.1-.4,2.1-.7,3.2,0,0,0,.2,0,.2,0,.2,0,.4-.1.7.7.4,1.4.8,2.2,1.3.8.4,1.6.9,2.4,1.3.8.4,1.7.9,2.6,1.3,2.4,1.1,4.9,2,7.1,2.3.7,0,1.4.1,2,0,.8,0,1.6-.3,2.2-.7.2-.1.4-.2.5-.4.3-.3.6-.7.9-1.1.1-.2.2-.4.4-.6.9-1.5,1.5-3.5,2-5.9,1.3-5.3,2.2-12.3,4.8-18.2,1.4-6.5,8.2-36.4,10.5-66.2.6-7.5.7-11.7,1.3-14.3-10.7-4.6-22.5-4.7-28.6-1.6-24,12.1-30.4,31-19.8,54.9,3.9,8.8,10.3,17.7,13.7,20.9ZM164.9,89.1s0,0,0,0h0s0,0,0,0ZM641.4,421.5c.6,1.8,2,5.2,3.8,7.8,5.7-5,10.6-12.1,13.8-21.9.8-2.4,1.4-4.8,1.7-7.1-23.2,1.3-22,13.3-19.4,21.2ZM534.9,441.2c10.1-47.9,9.4-66.3,10.3-73.4,9.7,5.8,17.5,16,17.1,31.6-.5,22.3-11.8,35-25.7,41.1-.7.3-1.3.5-1.8.7ZM547.9,424.6c2.4-2.2,5.5-4,6.7-10.4,1.3-6.5-.4-7.6-3-8.9-1.4-.7-1.4-1-2.9-.5-.3.1-.6.4-.9.6-.5.2-1.8.6-1.8.6-.5.5-.6,1.3-.9,1.9,0,0-.1,3.4-.7,7-.1.6-1.1,6.2-1.2,7.3-.3,2.6,2.6,4.2,4.7,2.3ZM514.7,477.9c-3.7-.5-7.6-2.1-11.2-4-.8-.4-1.6-.9-2.4-1.3-.5-.3-1-.6-1.5-.9-2.6,4.6-5.3,8.9-3.3,10.8.3.2.6.4.9.6.7.4,1.6.7,2.6.9,1.7.4,3.9.8,6.8,1.5,1.2.3,2.4.6,3.4,1,1,.3,1.9.5,2.7.8,1.2.3,2.2.5,2.8.5.5,0,.8,0,1-.3.5-.7.8-1.7,1-3.4.2-1.2.4-2.8.8-4.8.1-.5.2-1,.3-1.4-.3,0-.6,0-.9,0-1,0-2,0-3.1-.1ZM442.5,695c38.5-23.7,66-68.6,56.1-131.1-2.5-15.9-5.3-40.6,7.5-69.2.5-1.1,1-2.2,1.5-3.3-1.6-.5-3.8-1-7.6-1.8-.7-.1-1.3-.3-1.9-.4-4.6,14.7-8.7,33.7-8.7,54.6,0,12.9,1.6,16.5,1.9,32.8,1.4,77.1-42,111.3-87.7,120.5,12.7.5,25.9-.2,38.9-2.2ZM334.2,136.4s0,0,0,0h0s0,0,0,0ZM235.8,177.9s0,0-.1,0h.1s0,0,0,0ZM148.2,99.2s0,0,0,0h0s0,0,0,0ZM186.4,99.9s0,0,.1-.1h0s0,.1,0,.1ZM206.9,219.8l-1.8,8.8c1.2.3,2.3.4,3.2.4.9,0,1.6-.2,2.3-.8.7-.5,1.2-1.4,1.4-2.8.3-1.7,0-3-.8-3.8-.9-.8-2.3-1.5-4.3-1.9ZM233.6,242c-.4,1.7.4,2.8,2.3,3.2.9.2,1.8,0,2.6-.3l.7-3.6c-.7-.7-1.4-1.1-2.3-1.3-1.9-.4-3,.3-3.3,2ZM315.6,297.8c-5.9-.2-5.8-.8-214.4-44.6-9.5-2-16.4-8.2-15.9-13.8q0-.9,32.9-167.5c.4-2.2.9-4.5,1.3-6.8.3-1.6.6-3.2,1-4.9.2-.9.4-1.9.6-2.8,1-4.9,7.8-7.7,14.9-7.4,3.2.1,4.6.3,36.6,7.1.5,0,.9.2,1.4.3,12,2.5,28.2,6,50.1,10.6,30,6.3,70.7,14.9,126.2,26.6,9.6,2,16.6,8.4,15.9,14,0,.1,0,.2,0,.4h0c-11.9,60.5-23.8,121-35.7,181.5-.8,4.1-6.6,7.6-14.9,7.3ZM118.6,211.7l-4.8-1-1.5,7.4-4.8-1,3.6-17.9,3,.6.6-2.9-11.4-2.5-.6,2.9,2.9.6-3.6,17.9-2.9-.6-.6,2.9,18,3.9,2.1-10.3ZM313,118.9l2.3.5-.4,2.2,2.2.4s0,0,0,.1l-.4,2.2,2.3.5c0,0,0,.1.1.2l-.4,2.1,2.3.5-.4,2.2,2.2.4-.4,2,2.4.5-.4,2.1,2.4.5-.4,2.1,7.3,1.4.4-2.1,2.4.5.4-1.9c0,0,.2,0,.3-.1l2.2.4.4-1.8c0,0,.2,0,.2-.1l2,.4.4-1.9c.1,0,.2-.2.4-.2l2,.4.4-2.1c0,0,.1,0,.2-.1l2.3.5.5-2.3,2.4.5.4-2.2,2.3.5,1.9-9.5-2.3-.5.4-2.1-2.3-.4c0,0,0-.1-.1-.2l.4-2.1-2.2-.4c0,0-.2-.2-.3-.2l.4-2-9.5-1.9-.4,2.2-2.3-.5-.4,2.2s0,0,0,0l-2.2-.4.4-2.2-2.3-.5s0,0,0,0l.4-2.2-9.5-1.9-.4,2.1c0,0-.2,0-.2,0l-2.2-.4-.3,1.7c-.2.1-.4.2-.6.4l-1.9-.4-.4,2.1-2.3-.5-1.9,9.5ZM135.1,210.6c-.9-1.7-2.7-2.8-5.2-3.3-2.7-.6-4.7-.2-6.2,1-1.4,1.2-2.4,3.2-3,6-.3,1.5-.4,2.8-.3,4,0,1.2.4,2.2.9,3,.5.8,1.1,1.5,2,2.1.9.5,1.9.9,3.1,1.2,1.7.4,3.2.4,4.5,0,1.2-.4,2.2-1.2,3-2.4.8-1.2,1.4-2.7,1.8-4.6.6-2.9.4-5.2-.5-6.9ZM137,92.9l-.4,2,2.4.5-.4,2.1,2.4.5-.4,2.1,7.3,1.4.4-2.1,2.4.5.4-1.9c0,0,.2,0,.3-.1l2.2.4.4-1.8c0,0,.2,0,.2-.1l2,.4.4-1.9c.1,0,.2-.2.4-.2l2,.4.4-2.1c0,0,.1,0,.2-.1l2.3.5.5-2.3,2.4.5.4-2.2,2.3.5,1.9-9.5-2.3-.5.4-2.1-2.3-.4c0,0,0-.1-.1-.2l.4-2.1-2.2-.4c0,0-.2-.2-.3-.2l.4-2-9.5-1.9-.4,2.2-2.3-.5-.4,2.2s0,0,0,0l-2.2-.4.4-2.2-2.3-.5s0,0,0,0l.4-2.2-9.5-1.9-.4,2.1c0,0-.2,0-.2,0l-2.2-.4-.3,1.7c-.2.1-.4.2-.6.4l-1.9-.4-.4,2.1-2.3-.5-1.9,9.5,2.3.5-.4,2.2,2.2.4s0,0,0,.1l-.4,2.2,2.3.5c0,0,0,.1.1.2l-.4,2.1,2.3.5-.4,2.2,2.2.4ZM158.9,216.7l.5-2.6-9.1-2-.5,2.6,2.1.5-5,8.4h-.1s-1.4-9.8-1.4-9.8l2,.4.5-2.6-9.1-2-.5,2.6,2.2.5,3,15.3,4.6,1,8.7-12.8,2.1.5ZM173.7,218.5c-1.2-1.4-2.8-2.3-4.8-2.7-1.6-.4-3.1-.4-4.3,0-1.2.3-2.3,1.1-3.1,2.2-.9,1.2-1.5,2.8-1.9,4.9-.4,1.9-.5,3.5-.2,4.8.2,1.3.9,2.5,1.9,3.4,1,.9,2.4,1.5,4.2,1.9,1.7.4,3.2.3,4.6-.2,1.4-.5,2.5-1.4,3.4-2.7l-4.2-1.9c-.3.8-.7,1.4-1.2,1.8-.5.4-1.2.5-1.9.3-.8-.2-1.4-.6-1.7-1.4-.3-.7-.3-1.9,0-3.5v-.7c.1,0,9.8,2.1,9.8,2.1l.5-2.5c.5-2.4.1-4.4-1.1-5.8ZM192,144l-1.2,6.2,6.8,1.3-1.3,6.6,6.6,1.3-1.2,6,7.1,1.4-1.2,6.2,7,1.4-1.2,6.1,21.4,4.2,1.2-6.2,7,1.4,1.1-5.7c.3-.1.6-.3.8-.4l6.3,1.3,1.1-5.4c.2-.1.5-.3.7-.4l5.9,1.2,1.1-5.7c.3-.2.7-.5,1-.7l5.9,1.2,1.2-6.2c.2-.1.4-.3.5-.4l6.8,1.3,1.3-6.7,6.9,1.4,1.3-6.6,6.9,1.4,5.6-28.2-6.7-1.3,1.3-6.4-6.6-1.3c-.1-.2-.2-.3-.4-.5l1.2-6.1-6.3-1.3c-.3-.3-.5-.5-.8-.8l1.2-6.1-27.9-5.5-1.3,6.7-6.9-1.4-1.3,6.4s0,0-.1.1l-6.5-1.3,1.3-6.4-6.7-1.3c0,0,0-.1-.1-.2l1.3-6.5-27.9-5.5-1.2,6.2c-.3,0-.6.2-.8.3l-6.5-1.3-1,5.1c-.6.4-1.2.8-1.7,1.2l-5.7-1.1-1.3,6.4-6.7-1.3-5.6,28.2,6.9,1.4-1.3,6.6,6.6,1.3c0,.1.2.2.2.3l-1.3,6.4,6.7,1.3c.1.2.3.3.4.5ZM215.7,230.6c1.1-.8,1.8-2.1,2.1-3.8.3-1.5.1-2.9-.5-4.2-.6-1.3-1.7-2.4-3.2-3.3-1.5-.9-3.4-1.7-5.7-2.2l-9.8-2.1-.6,2.9,3.2.7-3.6,17.9-3.2-.7-.6,2.9,12.1,2.6.6-2.9-3.3-.7,1.3-6.2c1.3.3,2.5.5,3.7.6,1.2.1,2.5.1,3.8,0,1.3-.2,2.5-.7,3.6-1.5ZM223.4,242.2l4.3-20.9-6.9-1.5-.5,2.7,1.9.4-3.7,18.2-1.9-.4-.6,2.7,8.5,1.8.6-2.7-1.6-.4ZM245.4,247l-2.1-.5,1.9-9.6c.2-1,0-1.9-.5-2.8-.5-.8-1.3-1.5-2.4-2.1-1.1-.6-2.2-1-3.5-1.3-1.3-.3-2.5-.4-3.6-.3-1.1,0-2,.4-2.8.8-.8.5-1.4,1.1-1.8,1.8l4.4,1.8c.4-1.4,1.5-1.9,3.1-1.5,1.1.2,1.8.6,2,1.1.2.5.2,1.1,0,2l-.6,2.8c-.9-1-2.1-1.7-3.7-2-1.8-.4-3.4-.3-4.9.3-1.5.6-2.4,1.7-2.7,3.5-.2,1-.1,1.9.2,2.8.3.9.9,1.6,1.7,2.2.8.6,1.8,1.1,2.9,1.3.9.2,1.8.2,2.6.1.8-.1,1.6-.4,2.2-.8h.1s-.3,1.4-.3,1.4l7.1,1.5.6-2.7ZM266.2,239.8l1.9.4.5-2.6-8.6-1.9-.5,2.6,2.3.5-5.2,8.2h-.1s-1.7-9.7-1.7-9.7l2.1.5.5-2.6-9.2-2-.5,2.6,2.1.5,3.6,14.9-2.1,3-4.3-.9-.5,2.6,7.9,1.7,12-17.7ZM276,253.6l-1.6-.4,4.3-20.9-6.9-1.5-.5,2.7,1.9.4-3.7,18.2-1.9-.4-.6,2.7,8.5,1.8.6-2.7ZM285.7,255.7l2.8-13.7-7-1.5-.6,2.7,2,.4-2.2,11-2-.4-.6,2.7,8.5,1.8.6-2.7-1.5-.3ZM290.1,236.4c.1-.5-.1-1-.6-1.5-.5-.5-1.3-.8-2.2-1-.9-.2-1.7-.2-2.4,0-.7.2-1.1.6-1.2,1.1-.1.5.1,1,.7,1.5.5.5,1.3.9,2.1,1.1.9.2,1.7.2,2.4,0,.7-.2,1.1-.6,1.2-1.1ZM306.2,245.8l-4.6-1-.2,1.2h-.1c-.7-1.2-1.8-1.9-3.2-2.2-1.4-.3-2.7-.1-3.8.5-1.1.6-1.8,1.5-2.1,2.7-.2,1,0,2,.6,2.9s1.7,2,3.3,3.2c1.5,1.1,2.5,2,2.9,2.5.4.5.5,1.1.3,1.9,0,.4-.3.8-.7.9-.4.2-.8.2-1.3.1-.7-.2-1.2-.5-1.5-1.1-.3-.6-.3-1.5-.1-2.7l-4.6-1-1.2,5.7,4.6,1,.2-1.2h.1c.5.6.9,1.1,1.4,1.5.5.3,1.1.6,1.9.7,1.5.3,2.8.2,4-.4,1.2-.6,1.9-1.5,2.1-2.8.2-.8.1-1.5,0-2.2s-.6-1.4-1.3-2.1c-.7-.7-1.6-1.5-2.8-2.4-.8-.6-1.4-1.1-1.9-1.5-.4-.4-.7-.8-.9-1.2-.1-.4-.2-.8,0-1.2,0-.4.3-.7.6-.9.3-.2.7-.2,1.3-.1.7.2,1.2.5,1.4,1,.2.5.2,1.3,0,2.5l4.6,1,1.1-5.4ZM313.5,264.7c1.5.3,2.8.5,4,.5l.5-2.6c-.4,0-.8,0-1.1,0-.3,0-.6,0-1-.1-1.5-.3-2.1-1-1.9-2.1l2-9.7,3.3.7.6-2.7-3.3-.7,1-4.9c-1.6.4-3.4.8-5.4,1.1l-.5,2.7-2.4-.5-.6,2.7,2.4.5-2,9.7c-.3,1.4-.1,2.6.6,3.5.7.9,1.9,1.5,3.8,1.9ZM284.3,585.6c1.2.4,2.6.8,4.3,1,.7,0,1.4.2,2.1.2,0,0,0,0,0,0,.2,0,.4,0,.5,0,.8,0,1.5,0,2.3,0,.2,0,.3,0,.5,0,.8,0,1.6,0,2.3,0,2.6-.1,4.9-.5,6.8-.8.9-.2,1.7-.4,2.3-.5.4-1.7.8-3.4,1.2-5,0-.1,0-.3,0-.4.1-.6.3-1.2.4-1.7.3-1.3.6-2.5.9-3.8,1-4.4,1.7-8.3,2.1-11.8.1-1,.2-1.9.2-2.8,0-.8,0-1.7,0-2.4,0-4.9-1.3-8.5-4.5-10.5-5.7-3.9-17.4-3-20.6-2.8,0,.2-.2.5-.3.9-.6,1.9-1.3,4.1-2,6.4-.2.8-.5,1.5-.7,2.3-.3.9-.5,1.8-.8,2.7-2.5,8.5-4.7,17.4-4.3,21.2,0,.9.3,2.9,1.9,4.9.6.7,1.4,1.4,2.4,2,.7.4,1.6.8,2.6,1.2ZM586.8,466.4c-1.9-1.3-3.7-2.9-5.4-4.5-1.4-1.3-2.6-2.7-3.8-3.9-.9.8-1.7,1.6-2.5,2.4-.5.5-1,1-1.4,1.4-1.6,1.6-2.7,3.1-2.6,4.4,0,.4,0,.7.3,1.1.3.6.8,1,1.4,1.5,1.6,1.2,4.1,2.3,7.6,4.5.5.3,1,.6,1.5.9.8.5,1.6,1,2.3,1.5.9.6,1.6,1.1,2.3,1.5,1.4.8,2.4,1.2,2.8.9,1.2-.9,1.9-3,4.2-7.3.3-.5.5-.9.7-1.3-1.5-.2-3-.8-4.4-1.5-.9-.5-1.9-1-2.8-1.7ZM284.9,147.7c0,0-.1,0-.2.1h.1s0-.1,0-.1ZM131.4,72.9s0,0,0,0h0s0,0,0,0ZM570,473.7c-7.6,14.4-19,41-19.3,72.2-.1,13.3,1.8,16.2,2.3,32.2,2.6,78.3-51.4,113-108.5,122.3-2.5.4-4.9.7-7.4,1.1-2.6.3-5.1.6-7.7.8-18.7,1.6-37.3.7-53.8-2.2-6.1-1.1-11.9-2.4-17.4-4-5.1-1.5-9.9-3.1-14.3-5-1.3-.5-2.6-1.1-4-1.8-6.3-3-14-7.7-21.7-16-24.5-26.6-19.5-61.5-16-81.4-2.2.3-4.6.6-7,.7-4.3,21.8-6.1,56.6,18.9,83.6,3.6,3.9,7.7,7.5,12.4,11,.5.4,1,.7,1.5,1.1,3.2,2.3,6.7,4.4,10.2,6.3,19.2,10.4,42.5,15.6,66.3,16.4,3.2.1,6.5.2,9.7.1,3.1,0,6.1-.2,9.2-.3,24.5-1.4,48.5-7.2,68.3-16.2,44.7-20.6,74.5-60.6,67.8-123.2-1.9-17.4-3.4-44.7,11.6-76.9,2.7-5.8,5.6-11,7.9-15.3-1.4-.9-3.3-2.1-6.5-3.8-1-.5-1.9-1.1-2.6-1.6ZM310.4,680.1c-.4-.3-.8-.7-1.1-1-27.4-25.8-24.5-64.3-21.4-87.1-1.5-.2-3-.5-4.4-1-3.9,25.3-5.4,68.7,24.3,98,19,18.8,46.2,26.8,74.2,25.2-28.5-4.4-54.1-15.5-71.5-34.2ZM168.4,218.3c-.8-.2-1.4,0-1.9.5-.5.5-.9,1.4-1.2,2.9v.7c-.1,0,4.5,1,4.5,1l.3-1.4c.4-2.1-.2-3.2-1.7-3.6Z" fill="#fff"/><path d="M211.1,316.6h0s0,0,0,0l-.7,2.7.7-2.7c-5.1-1.3-27.1-7-52.9,2.1-45.4,16.1-67.1,65-48.8,108.9,18.9,45.5,72.8,67.9,118.2,49.6,48.5-19.5,66.6-76.1,38.6-120.6-20.2-32.1-52.3-39.3-55.2-40.1ZM245.6,460.6c-39.2,31-97.2,19.1-123.7-21.2-25.6-39-12.9-86.9,23.6-108.6,30.2-17.9,59.4-9.9,64.2-8.8h0c3.6,1,14.8,3.8,27.1,12.1,1.8,1.2,11.9,7.9,20.6,19.5,27.1,36,19.4,82.3-11.8,107ZM543.2,422.3c.1-1.1,1.1-6.8,1.2-7.3.6-3.6.7-7,.7-7,.3-.6.4-1.4.9-1.9,0,0,1.3-.5,1.8-.6.3-.3.5-.5.9-.6,1.5-.5,1.5-.2,2.9.5,2.7,1.3,4.3,2.4,3,8.9-1.3,6.4-4.4,8.2-6.7,10.4-2.1,1.9-5,.3-4.7-2.3ZM95.4,257.2c5.5,2,5.6,1.5,214.1,45.3,9.8,2,20-.1,24.6-6.8,3.1-4.5,1.9-5,37.5-185.7.1-.7,1.1-5-2.4-10.1-2.7-4-7.3-7.4-13-9.4-4.2-1.5-5.3-1.6-97.4-20.8-13-2.7-27.8-5.8-44.7-9.3-2.4-.5-4.9-1-7.4-1.6-19-4-40.4-8.5-64.6-13.6-12.5-2.6-24.1,1.9-26.3,10.5,0,.1-1.1,5.5-2.8,14.3-1.3,6.5-2.9,14.9-4.8,24.5-3.6,18.4-8.1,41.1-12.4,63.1-7.5,38.1-14.5,73.8-15.8,80.2-1.5,7.7,5,15.8,15.4,19.5ZM85.3,239.4q0-.9,32.9-167.5c.4-2.2.9-4.5,1.3-6.8.3-1.6.6-3.2,1-4.9.2-.9.4-1.9.6-2.8,1-4.9,7.8-7.7,14.9-7.4,3.2.1,4.6.3,36.6,7.1.5,0,.9.2,1.4.3,12,2.5,28.2,6,50.1,10.6,30,6.3,70.7,14.9,126.2,26.6,9.6,2,16.6,8.4,15.9,14,0,.1,0,.2,0,.4h0c-11.9,60.5-23.8,121-35.7,181.5-.8,4.1-6.6,7.6-14.9,7.3-5.9-.2-5.8-.8-214.4-44.6-9.5-2-16.4-8.2-15.9-13.8ZM80.7,268.7c6.4,2.4,6.6,1.8,240.4,50.9,13.4,2.8,26-1.8,28.9-10.8q.4-1.3,40.4-204.8c.1-.8,1.1-5-2.1-10.2-2.9-4.7-8.2-8.9-15-11.3-3.7-1.4-5.3-1.7-60-13.1-9.6-2-20.8-4.3-33.9-7.1-6.5-1.4-13.4-2.8-20.9-4.4-31.7-6.6-72.5-15.2-125.3-26.2-13.8-2.9-26.7,2-29.1,11.5-.2.6-31.7,161.1-38.9,197.8-.6,2.9-1,5.1-1.2,6.3-.1.7-.2,1.4-.2,2.1,0,2.1.4,4.3,1.3,6.3,2.5,5.4,8.1,10.2,15.6,13ZM69.3,249c0-.5,0-.7,3.4-17.6,1.4-7,3.3-16.9,6.1-30.8,1-5.2,2.2-11,3.4-17.4,5.9-30,14.6-73.9,27.2-138.2,1.1-5.5,8.4-8.9,17.1-8.6,5.1.2,6.2.6,113.3,23.2,1.5.3,3,.6,4.5,1,12.9,2.7,27.2,5.7,43.2,9.1,22.9,4.8,49.3,10.4,79.5,16.7,11.6,2.4,19.1,10.1,18.1,16.3,0,0,0,.2,0,.3h0c-13.3,67.8-26.7,135.6-40,203.5-.9,4.8-7.6,8.8-17,8.5-6.6-.2-6.5-.9-240.5-50-10.7-2.3-18.7-9.3-18.1-15.8ZM228.6,382.5c-8.6-16.8-25.4-20.2-25.4-20.2q-1.3-.3-1.4-.3c-24.4-5.4-46.8,12.9-45.2,36.8,1.5,22.6,23.8,39.4,46.7,35,23.9-4.6,36.3-29.7,25.3-51.3ZM224,412.2c-8.8,17.6-33,22.3-49.5,9.4-16.8-13.2-16.7-37.8.4-49.5,12.7-8.7,26.3-4.6,26.8-4.5h0c.3,0,.5.2.8.2,19.2,5.3,30.3,26.5,21.4,44.3ZM623.7,352.5c-4.7,0-12.2,2.2-15.6,3.4-42.8,15.5-25.3,65.6-20.4,74.9-.8,1.3-2.3,3.4-5.2,8.1-3.5,5.8-7.7,13.3-7.8,13.8,0,.2-.1.4-.1.6-1.2,1.1-2.4,2.2-3.5,3.3-1.7,1.7-7.5,7-4.9,12.7-20.7,38.1-21.8,71.2-20.7,86.1.4,5.7,2.9,18.5,1.9,35.8-3.2,60.6-44.8,90.4-91.4,101.3,6.7-5.1,13-10.9,18.7-17.4,40-45.4,31.2-100,29.1-113.1-5.3-32.5,1.4-53.3,9.1-69,.1,0,.2,0,.3,0,7.4,1.5,9.2-3.5,9.9-8.8.5-3.7,1.4-6.7,1.2-9.3.5-.5.9-1.1,1.3-1.7,4.2-6.5,3.4-15.9,7.7-25.7,6.7-2.4,31.4-10.7,34.2-44,3.5-40.9-37.2-51.9-55.3-46.3-4.5,1.4-11,5.7-13.9,7.9-36.2,27.5-4.8,70.2,2.7,77.6-.4,1.5-1.2,4-2.6,9.3-1.7,6.6-3.4,15-3.4,15.5,0,.2,0,.4,0,.7-.8,1.4-1.6,2.8-2.4,4.2-1.2,2.3-5.7,10,.1,14.6-9.5,29.9-9.7,54.6-8.9,66.1.4,6.2,4,29.7-.7,55.8-11.5,63.8-62.5,85.7-107.1,85.6-14.4-2.5-27.1-6.5-36.7-11.5-16.2-8.5-24.2-22.1-25.9-25.1-13.4-23.5-8.6-50.7-5.7-67.4,1.6-.6,2.1-1.2,2.4-1.9,0-.2.5-1.9.5-2,2.1-8.5,3.9-16.2,4.7-22.6,4.4,1,8.9,2,13.4,3,14.3,3.2,30.5-5.8,35.7-22.6q1.1-3.4,84.8-393.8c.2-1.3,1.6-7.2-4.2-24.5-3.6-10.8-9.1-23-15-33.6-8.1-14.4-14.2-20.9-18.1-23.8-2.8-3.1-6.1-5.6-9.9-7.4-6.7-3.1-7-2.2-285.2-60.6-16.2-3.4-32.2,7.7-36.3,25-.3,1.3-73.9,375.2-80.3,407.9-1.3,6.7-.7,13.2,1.5,19.1,2.1,18,21.1,44.4,35.4,49.8q2.9,1.1,238.7,52.9c-1.7,5.9-3.4,12.6-4.2,17.9-1.1,7.8,1.6,12.7,6.1,15.6-16.9,105.4,58.3,143.9,126.9,127.6,36.1,1.1,78.7-7.1,110.8-29.4,56.5-39.2,51-99.8,49-117.4-4.9-44.5,9.4-70.3,18.8-87.5.2.1.4.2.6.3,6.7,3.6,9.8-.6,12.1-5.5,1.6-3.4,3.3-6,3.9-8.5.6-.3,1.2-.8,1.8-1.2,5.9-5,8-14.2,15-22.3,7.1-.3,33.1-.9,45.7-31.9,15.4-38-20.2-60.6-39.1-60.6ZM562.4,399.4c-.5,22.3-11.8,35-25.7,41.1-.7.3-1.3.5-1.8.7,10.1-47.9,9.4-66.3,10.3-73.4,9.7,5.8,17.5,16,17.1,31.6ZM501.2,465.6c0,0,0-.2,0-.2.2-1.1.4-2.1.7-3.2,1.1-5,2.3-10.1,4.1-16.2.8-2.6,1.6-4.7-.5-6.7-3.5-3.2-9.8-12.1-13.7-20.9-10.6-23.9-4.2-42.8,19.8-54.9,6.1-3.1,17.9-3,28.6,1.6-.6,2.6-.7,6.8-1.3,14.3-2.3,29.8-9.1,59.6-10.5,66.2-2.6,6-3.6,12.9-4.8,18.2-.6,2.4-1.2,4.4-2,5.9-.1.2-.2.4-.4.6-.3.4-.6.8-.9,1.1-.2.2-.4.3-.5.4-.6.4-1.4.6-2.2.7-.6,0-1.3,0-2,0-2.2-.3-4.7-1.2-7.1-2.3-.9-.4-1.8-.8-2.6-1.3-.8-.4-1.6-.9-2.4-1.3-.8-.5-1.5-.9-2.2-1.3,0-.2,0-.4.1-.7ZM499.6,471.8c.5.3,1,.6,1.5.9.8.4,1.6.9,2.4,1.3,3.5,1.8,7.5,3.5,11.2,4,1,.1,2.1.2,3.1.1.3,0,.6,0,.9,0,0,.4-.2.9-.3,1.4-.4,2-.6,3.5-.8,4.8-.3,1.7-.5,2.8-1,3.4-.2.2-.5.3-1,.3-.7,0-1.7-.2-2.8-.5-.8-.2-1.7-.5-2.7-.8-1.1-.3-2.2-.6-3.4-1-2.9-.8-5.1-1.1-6.8-1.5-1-.2-1.9-.5-2.6-.9-.3-.2-.6-.4-.9-.6-2.1-1.8.7-6.1,3.3-10.8ZM491.3,576.7c-.3-16.3-1.9-19.9-1.9-32.8,0-21,4.1-39.9,8.7-54.6.6.2,1.2.3,1.9.4,3.7.7,5.9,1.3,7.6,1.8-.5,1.1-1,2.1-1.5,3.3-12.8,28.5-10,53.3-7.5,69.2,9.9,62.5-17.6,107.3-56.1,131.1-13.1,2-26.3,2.7-38.9,2.2,45.8-9.2,89.2-43.4,87.7-120.5ZM5.7,443.8c-.3-2.7-.3-5.5.2-8.3,0,0,.5-2.3,1.3-6.5C17,379.1,80.2,58,86.1,27.9c2.5-12.7,12.6-21.6,23.7-22.4,6.9-.5,7.3.5,235.3,48.5,15.6,3.3,32.3,6.8,50.2,10.6,3.3.7,6.2,2,8.8,3.9,1.7,1.2,3.3,2.6,4.6,4.2.4.5.9,1.1,1.3,1.6,7.7,10.6,4.8,22.4,4.8,22.7,0,0,0,0,0,0-26.7,135.7-53.4,271.3-80.1,407-2.2,11-11.4,21.2-23.7,22-7.4.5-7.3-.7-285.5-59.1-8.3-1.8-14.8-7.8-17.9-15.7-.9-2.3-1.6-4.8-1.9-7.4ZM41.2,497.7c-8.6-1.9-21.6-16.5-28.7-30.9,1.8,1.4,3.8,2.6,5.9,3.6,6.7,3.1,7,2.2,285.2,60.6,15.9,3.3,31.7-7.3,36.1-24.2q.5-1.8,80.5-408.7c.2-.9,1.2-5.5.4-11.5,12.6,19.4,25.3,51.4,23.7,62.5,0,.1,0,.3,0,.4h0s-84,390.5-84,390.5c-2.9,13.4-13.3,21.3-23.7,22-2.9.2-4.7.1-20.4-3.2.3-16.1-9.3-21.4-30.9-20-1.5,0-1.7-.1-2.7,1-.3.4-.4.9-.5,1.4-.2,0-.3,0-.3,0-1,.5-1,.5-1.4,1.6-.3.8-1.2,3.7-2.4,7.5-40.5-9-111.2-24.9-236.6-52.6ZM279.3,582.5c-1.7-1.9-1.8-4-1.9-4.9-.3-3.7,1.8-12.7,4.3-21.2.3-.9.5-1.8.8-2.7.2-.8.5-1.6.7-2.3.7-2.3,1.4-4.5,2-6.4.1-.4.2-.6.3-.9,3.2-.2,14.8-1.1,20.6,2.8,3.1,2.1,4.4,5.6,4.5,10.5,0,.8,0,1.6,0,2.4,0,.9-.1,1.8-.2,2.8-.4,3.5-1.1,7.4-2.1,11.8-.3,1.2-.6,2.5-.9,3.8-.1.6-.3,1.2-.4,1.7,0,.1,0,.3,0,.4-.4,1.6-.8,3.3-1.2,5-.6.2-1.4.4-2.3.5-1.9.4-4.3.7-6.8.8-.8,0-1.5,0-2.3,0-.2,0-.3,0-.5,0-.8,0-1.5,0-2.3,0-.2,0-.4,0-.5,0,0,0,0,0,0,0-.8,0-1.5-.1-2.1-.2-1.7-.2-3.1-.6-4.3-1-1-.3-1.8-.7-2.6-1.2-1-.6-1.8-1.3-2.4-2ZM307.7,689.1c-29.7-29.3-28.2-72.7-24.3-98,1.4.4,2.9.7,4.4,1-3.1,22.8-6,61.2,21.4,87.1.4.3.8.7,1.1,1,17.4,18.6,43,29.7,71.5,34.2-28,1.6-55.2-6.4-74.2-25.2ZM571.2,494.3c-15,32.2-13.5,59.5-11.6,76.9,6.7,62.5-23.2,102.6-67.8,123.2-19.7,9.1-43.8,14.8-68.3,16.2-3.1.2-6.1.3-9.2.3-3.2,0-6.5,0-9.7-.1-23.9-.8-47.2-6-66.3-16.4-3.6-1.9-7-4-10.2-6.3-.5-.4-1-.7-1.5-1.1-4.7-3.5-8.8-7.2-12.4-11-25-27-23.1-61.8-18.9-83.6,2.4,0,4.8-.3,7-.7-3.5,19.9-8.5,54.8,16,81.4,7.7,8.4,15.4,13,21.7,16,1.4.7,2.7,1.3,4,1.8,4.4,1.8,9.2,3.5,14.3,5,5.5,1.6,11.3,2.9,17.4,4,16.5,2.9,35.1,3.8,53.8,2.2,2.6-.2,5.1-.5,7.7-.8,2.5-.3,5-.7,7.4-1.1,57.2-9.2,111.2-44,108.5-122.3-.5-15.9-2.5-18.9-2.3-32.2.3-31.2,11.7-57.7,19.3-72.2.8.6,1.6,1.1,2.6,1.6,3.2,1.7,5.1,2.9,6.5,3.8-2.4,4.3-5.2,9.5-7.9,15.3ZM593.3,470.8c-2.3,4.3-3,6.4-4.2,7.3-.5.3-1.4,0-2.8-.9-.7-.4-1.5-.9-2.3-1.5-.7-.5-1.5-1-2.3-1.5-.5-.3-1-.6-1.5-.9-3.5-2.2-6-3.2-7.6-4.5-.6-.5-1-.9-1.4-1.5-.2-.3-.3-.7-.3-1.1,0-1.3,1.1-2.8,2.6-4.4.4-.5.9-.9,1.4-1.4.8-.8,1.7-1.6,2.5-2.4,1.2,1.3,2.4,2.6,3.8,3.9,1.7,1.6,3.5,3.2,5.4,4.5.9.6,1.9,1.2,2.8,1.7,1.5.7,2.9,1.3,4.4,1.5-.2.4-.4.8-.7,1.3ZM612.5,438.2c-.2,1.7-.4,3.3-.6,4.3-5.7,7-8.9,16.3-12.9,20-.6.5-1.1.9-1.7,1.2-.2,0-.4.2-.6.2-1.3.3-2.7,0-4.2-.6-2-.9-4.1-2.5-6.1-4.3-2.2-2-4.2-4.2-5.7-5.9.1-.2.2-.4.3-.6.6-1,1.1-2,1.7-3.1,2.5-4.5,5.2-9,8.7-14.3,1.5-2.3,2.9-4.1,1.5-6.5-2.4-4.1-5.8-14.5-6.9-24-3-26,8.7-42.1,35.2-46.6,6.7-1.1,17.8,2.4,26.6,9.8-9.6,9.5-29.1,27.8-35.2,70.2ZM659,407.5c-3.2,9.7-8.1,16.8-13.8,21.9-1.8-2.6-3.2-6-3.8-7.8-2.7-7.9-3.8-19.8,19.4-21.2-.3,2.3-.9,4.6-1.7,7.1ZM642.5,399.6c-14.6,9.2-5.5,27.8-1.8,33.1-5.7,3.7-12,5.7-18.4,6.5-2,.2-3.4.3-4.4.3,5.8-41.2,24.6-58.5,33.8-67.6,5.5,6,9.4,13.7,9.4,23-3.9.2-12.3.8-18.6,4.7ZM44.9,306.7c0,.8.2,1.7.3,2.5.4,2.4.8,4.6,1.4,6.6,4.5,15.6,15,22.9,20.9,26.6.4.1.8.6,2.3.3,0,0,0,0,0,0,0,0,0,0,0,0,4.3-.6,24.9,1.4,40.6-20.6,2.9-4,4.6-17.1-.2-25-8.3-13.8-27.4-4.4-34.6-.3-3.2-4.3-10.9-13.3-19.6-11.8-.5,0-.9.2-1.4.3-1,.3-2,.8-2.8,1.3-.1,0-.3.2-.4.3-4.7,3.2-7.3,10-6.8,17.3,0,.9.1,1.8.2,2.6ZM54,291.8c.9-.8,1.8-1.3,2.7-1.5,7.4-1.7,15.9,11.4,16,11.5,1.1,1.5,2.6,1.2,3.2,1,1.1-.4,12.9-8.2,22.1-7.6,12.2.8,10.5,18.5,8.3,23.2,0,0-6.2,9.9-17.2,14.9-8.8,3.9-15.5,3.3-19.4,3.8-2.7-1.7-9.7-6.5-14.2-14.5-2.4-4.3-4.4-9.8-5.1-18.1,0-.2,0-.3,0-.5-.4-6.1,1.4-10.2,3.7-12.2ZM217,459.6s-.5-.2-.9-.4c-3.2-4.8-5.6-8.4-6.1-9.1-.3-.5-.9-1.4-2.1-1.7-.2,0-1.7-.1-1.8-.1-30-1.6-34-5.1-36.1-6.2-9.8-5.2-15.9,3.4-18.6,5.2-.4,0-.9,0-1.4.1,0,0-1.5,1.4-1.5,1.4,0,2.3-.5,2.9,1.6,3.7,3.2,1.2,5.9-1.8,8-3.7,4.6-4.1,7-3.2,10.4-1.3,7.7,4.3,23.7,5.5,37.4,6.3,1.4,2,3.4,5.1,6.1,9.1.6.8,1.3,1,2.1,1.4,1.2.6,1.3.8,2.6.4.7-.2,1.1-.9,1.6-1.4,0,0,.2-2.1.2-2.1-.2-.7-.9-1.1-1.4-1.6ZM152.1,447.3s0,0,0,0c0,0,0,0,0,0ZM151.3,389.2c.8-.9.9-1,.8-2.2,0-.7-.6-1.3-.9-1.9,0,0-2-.7-2-.7-.7,0-1.3.6-1.9.9,0,0-1.4,1.7-2.7,2.6-.5-1.3-.7-2.8-1.3-4.5-1.3-3.6-4.3-2-4.6-1.6-1.4,1.7-2.8,3.5-4.2,5.2-1.5-5.6-1.4-5.9-2.1-6.6-1.4-1.4-3.3-.7-3.8-.2-1,1.2-2,2.3-2.9,3.5-1.2-6.8-1.2-7.1-1.8-7.9-1-1.2-2.9-1.3-4.1-.2-.5.5-.4.5-4.7,9,0,0,0,0-.1,0-.2.1-1.4,1.1-1.1,2.8.1.7.8,1.2,1.2,1.7,0,0,.1.1.2.1.3.2,1.2.7,2.3.4,1.1-.3,1.6-1.1,1.7-1.3,0,0,.5-1,1.2-2.3.3,1.6.6,3.2.9,4.9,0,.3.4.8.5.8,1.3,1.5,3.4.9,3.9.3,1.1-1.3,2.2-2.6,3.3-3.9,1.5,5.7,1.4,6,2.2,6.8.8.8,2,1,3,.6,1-.4,1.1-.7,5.1-5.8.4,1.2,1.1,2.3,2.1,3.1,4.2,3.1,9-2.8,9.8-3.7ZM118.8,388.8l-.2-.2c.1,0,.2,0,.4,0l-.2.2ZM253.1,419.4c-1.5-5.6-1.4-5.9-2.1-6.6-1.4-1.4-3.3-.7-3.8-.2-1,1.2-2,2.3-2.9,3.5-.4-2.4-.9-4.8-1.4-7.1,0-.1-.1-.3-.2-.4-.9-1.5-3-1.8-4.3-.6-.5.5-.4.5-4.7,9,0,0,0,0-.1,0-.2.1-1.4,1.1-1.1,2.8.1.7.8,1.2,1.2,1.7,0,0,.1.1.2.1.3.2,1.2.7,2.3.4,1.1-.3,1.6-1.1,1.7-1.3,0,0,.5-1,1.2-2.4.8,4.4.7,4.7,1.1,5.3,0,.1.2.3.3.4,1.3,1.5,3.4.9,3.9.3,1.1-1.3,2.2-2.6,3.3-3.9,1.5,5.7,1.4,6,2.2,6.8,1.4,1.4,3.4.7,3.8.1,1.4-1.8,2.9-3.6,4.3-5.4.4,1.2,1.1,2.3,2.1,3.1,4.2,3.1,9-2.8,9.8-3.7.8-.9.9-1,.8-2.2,0-.7-.6-1.3-.9-1.9,0,0-2-.7-2-.7-.7,0-1.3.6-1.9.9,0,0-1.4,1.7-2.7,2.6-.5-1.3-.7-2.8-1.3-4.5-1.3-3.6-4.3-2-4.6-1.6-1.4,1.7-2.8,3.5-4.2,5.2ZM237.3,421.1l-.2-.2c.1,0,.2,0,.4,0l-.2.2ZM171.5,345.9c.4,1.6,1.7,2,2.3,2.1.4,0,.4,0,4.8-.1,20.5-.8,21,0,41.9,10.3,8.3,4.1,11.5,3.9,16.7-1.7.9-.9,2.7-3.1,2.7-3.1.3-.6.7-1.3.7-2,0-.7-.6-1.3-.9-1.9,0,0-2-.7-2-.7-.7,0-1.3.6-1.9.9-.2,0-3.8,4.8-5.7,5.6-1.8.8-5.6-1.3-9.6-3.3-20.6-10.3-22.2-10.4-44.1-9.6-1.3-5.7-1.7-7.2-1.9-8,.2-.5.1-1.1.3-1.6,0,0-1.1-1.8-1.1-1.8-1.3-.9-2.7-.3-2.9-.2-2.8,1.2-1.7,4.7-1.4,5.6,2,8.6,2,8.6,2.2,9.4ZM172.6,336s0,0,0,0c0,0,0,0,0,0Z" fill="#714e67"/><path d="M444.2,149c0,.1,0,.3,0,.4h0s-84,390.5-84,390.5c-2.9,13.4-13.3,21.3-23.7,22-2.9.2-4.7.1-20.4-3.2.3-16.1-9.3-21.4-30.9-20-1.5,0-1.7-.1-2.7,1-.3.4-.4.9-.5,1.4-.2,0-.3,0-.3,0-1,.5-1,.5-1.4,1.6-.3.8-1.2,3.7-2.4,7.5-40.5-9-111.2-24.9-236.6-52.6-8.6-1.9-21.6-16.5-28.7-30.9,1.8,1.4,3.8,2.6,5.9,3.6,6.7,3.1,7,2.2,285.2,60.6,15.9,3.3,31.7-7.3,36.1-24.2q.5-1.8,80.5-408.7c.2-.9,1.2-5.5.4-11.5,12.6,19.4,25.3,51.4,23.7,62.5ZM50.2,304.5c.7,8.3,2.7,13.8,5.1,18.1,4.5,8,11.5,12.8,14.2,14.5,4-.5,10.6.1,19.4-3.8,11-4.9,17.2-14.8,17.2-14.9,2.2-4.6,4-22.3-8.3-23.2-9.2-.6-21,7.2-22.1,7.6-.6.2-2.1.5-3.2-1,0-.1-8.6-13.2-16-11.5-.9.2-1.8.7-2.7,1.5-2.3,2.1-4.1,6.2-3.7,12.2,0,.2,0,.3,0,.5ZM118.8,388.8l.2-.2c-.1,0-.3,0-.4,0l.2.2ZM237.3,421.1l.2-.2c-.1,0-.3,0-.4,0l.2.2ZM172.6,336c0,0,0,0,0,0,0,0,0,0,0,0ZM145.5,330.7c30.2-17.9,59.4-9.9,64.2-8.8h0c3.6,1,14.8,3.8,27.1,12.1,1.8,1.2,11.9,7.9,20.6,19.5,27.1,36,19.4,82.3-11.8,107-39.2,31-97.2,19.1-123.7-21.2-25.6-39-12.9-86.9,23.6-108.6ZM218.4,461.2c-.2-.7-.9-1.1-1.4-1.6,0,0-.5-.2-.9-.4-3.2-4.8-5.6-8.4-6.1-9.1-.3-.5-.9-1.4-2.1-1.7-.2,0-1.7-.1-1.8-.1-30-1.6-34-5.1-36.1-6.2-9.8-5.2-15.9,3.4-18.6,5.2-.4,0-.9,0-1.4.1,0,0-1.5,1.4-1.5,1.4,0,2.3-.5,2.9,1.6,3.7,3.2,1.2,5.9-1.8,8-3.7,4.6-4.1,7-3.2,10.4-1.3,7.7,4.3,23.7,5.5,37.4,6.3,1.4,2,3.4,5.1,6.1,9.1.6.8,1.3,1,2.1,1.4,1.2.6,1.3.8,2.6.4.7-.2,1.1-.9,1.6-1.4,0,0,.2-2.1.2-2.1ZM238.3,408c-.5.5-.4.5-4.7,9,0,0,0,0-.1,0-.2.1-1.4,1.1-1.1,2.8.1.7.8,1.2,1.2,1.7,0,0,.1.1.2.1.3.2,1.2.7,2.3.4,1.1-.3,1.6-1.1,1.7-1.3,0,0,.5-1,1.2-2.4.8,4.4.7,4.7,1.1,5.3,0,.1.2.3.3.4,1.3,1.5,3.4.9,3.9.3,1.1-1.3,2.2-2.6,3.3-3.9,1.5,5.7,1.4,6,2.2,6.8,1.4,1.4,3.4.7,3.8.1,1.4-1.8,2.9-3.6,4.3-5.4.4,1.2,1.1,2.3,2.1,3.1,4.2,3.1,9-2.8,9.8-3.7.8-.9.9-1,.8-2.2,0-.7-.6-1.3-.9-1.9,0,0-2-.7-2-.7-.7,0-1.3.6-1.9.9,0,0-1.4,1.7-2.7,2.6-.5-1.3-.7-2.8-1.3-4.5-1.3-3.6-4.3-2-4.6-1.6-1.4,1.7-2.8,3.5-4.2,5.2-1.5-5.6-1.4-5.9-2.1-6.6-1.4-1.4-3.3-.7-3.8-.2-1,1.2-2,2.3-2.9,3.5-.4-2.4-.9-4.8-1.4-7.1,0-.1-.1-.3-.2-.4-.9-1.5-3-1.8-4.3-.6ZM169.3,336.5c2,8.6,2,8.6,2.2,9.4.4,1.6,1.7,2,2.3,2.1.4,0,.4,0,4.8-.1,20.5-.8,21,0,41.9,10.3,8.3,4.1,11.5,3.9,16.7-1.7.9-.9,2.7-3.1,2.7-3.1.3-.6.7-1.3.7-2,0-.7-.6-1.3-.9-1.9,0,0-2-.7-2-.7-.7,0-1.3.6-1.9.9-.2,0-3.8,4.8-5.7,5.6-1.8.8-5.6-1.3-9.6-3.3-20.6-10.3-22.2-10.4-44.1-9.6-1.3-5.7-1.7-7.2-1.9-8,.2-.5.1-1.1.3-1.6,0,0-1.1-1.8-1.1-1.8-1.3-.9-2.7-.3-2.9-.2-2.8,1.2-1.7,4.7-1.4,5.6ZM156.5,398.8c1.5,22.6,23.8,39.4,46.7,35,23.9-4.6,36.3-29.7,25.3-51.3-8.6-16.8-25.4-20.2-25.4-20.2q-1.3-.3-1.4-.3c-24.4-5.4-46.8,12.9-45.2,36.8ZM128.7,380.4c-1,1.2-2,2.3-2.9,3.5-1.2-6.8-1.2-7.1-1.8-7.9-1-1.2-2.9-1.3-4.1-.2-.5.5-.4.5-4.7,9,0,0,0,0-.1,0-.2.1-1.4,1.1-1.1,2.8.1.7.8,1.2,1.2,1.7,0,0,.1.1.2.1.3.2,1.2.7,2.3.4,1.1-.3,1.6-1.1,1.7-1.3,0,0,.5-1,1.2-2.3.3,1.6.6,3.2.9,4.9,0,.3.4.8.5.8,1.3,1.5,3.4.9,3.9.3,1.1-1.3,2.2-2.6,3.3-3.9,1.5,5.7,1.4,6,2.2,6.8.8.8,2,1,3,.6,1-.4,1.1-.7,5.1-5.8.4,1.2,1.1,2.3,2.1,3.1,4.2,3.1,9-2.8,9.8-3.7.8-.9.9-1,.8-2.2,0-.7-.6-1.3-.9-1.9,0,0-2-.7-2-.7-.7,0-1.3.6-1.9.9,0,0-1.4,1.7-2.7,2.6-.5-1.3-.7-2.8-1.3-4.5-1.3-3.6-4.3-2-4.6-1.6-1.4,1.7-2.8,3.5-4.2,5.2-1.5-5.6-1.4-5.9-2.1-6.6-1.4-1.4-3.3-.7-3.8-.2ZM152.1,447.3s0,0,0,0c0,0,0,0,0,0ZM180.6,127.4l-6.9-1.4,5.6-28.2,6.7,1.3,1.3-6.4,5.7,1.1c.6-.4,1.1-.8,1.7-1.2l1-5.1,6.5,1.3c.3-.1.6-.2.8-.3l1.2-6.2,27.9,5.5-1.3,6.5c0,0,0,.1.1.2l6.7,1.3-1.3,6.4,6.5,1.3s0,0,.1-.1l1.3-6.4,6.9,1.4,1.3-6.7,27.9,5.5-1.2,6.1c.3.2.5.5.8.8l6.3,1.3-1.2,6.1c.1.2.2.3.4.5l6.6,1.3-1.3,6.4,6.7,1.3-5.6,28.2-6.9-1.4-1.3,6.6-6.9-1.4-1.3,6.7-6.8-1.3c-.2.1-.4.3-.5.4l-1.2,6.2-5.9-1.2c-.3.2-.7.5-1,.7l-1.1,5.7-5.9-1.2c-.2.1-.5.3-.7.4l-1.1,5.4-6.3-1.3c-.3.1-.6.3-.8.4l-1.1,5.7-7-1.4-1.2,6.2-21.4-4.2,1.2-6.1-7-1.4,1.2-6.2-7.1-1.4,1.2-6-6.6-1.3,1.3-6.6-6.8-1.3,1.2-6.2c-.1-.2-.3-.3-.4-.5l-6.7-1.3,1.3-6.4c0-.1-.2-.2-.2-.3l-6.6-1.3,1.3-6.6ZM235.8,177.9s0,0-.1,0h.1s0,0,0,0ZM284.7,147.8h.1s0-.1,0-.1c0,0-.1,0-.2.1ZM186.5,99.8h0s0,.1,0,.1c0,0,0,0,.1-.1ZM118.6,211.7l-4.8-1-1.5,7.4-4.8-1,3.6-17.9,3,.6.6-2.9-11.4-2.5-.6,2.9,2.9.6-3.6,17.9-2.9-.6-.6,2.9,18,3.9,2.1-10.3ZM120.4,218.3c0-1.2,0-2.5.3-4,.6-2.8,1.6-4.8,3-6,1.4-1.2,3.5-1.6,6.2-1,2.5.5,4.3,1.7,5.2,3.3s1.1,4,.5,6.9c-.4,1.9-1,3.4-1.8,4.6-.8,1.2-1.8,1.9-3,2.4-1.2.4-2.7.4-4.5,0-1.2-.3-2.3-.7-3.1-1.2-.8-.5-1.5-1.2-2-2.1-.5-.8-.8-1.8-.9-3ZM125.4,219.3c0,.9,0,1.4.3,1.8.2.3.7.6,1.3.7.6.1,1.1,0,1.5-.2.4-.3.7-.8,1-1.6s.6-2,.9-3.6c.3-1.6.5-2.8.6-3.7,0-.9,0-1.5-.3-1.9-.2-.4-.7-.7-1.3-.8-.6-.1-1.1,0-1.4.2-.4.2-.7.8-1,1.6-.3.8-.6,2-.9,3.6-.4,1.8-.6,3.1-.6,3.9ZM148,211.6l-9.1-2-.5,2.6,2.2.5,3,15.3,4.6,1,8.7-12.8,2.1.5.5-2.6-9.1-2-.5,2.6,2.1.5-5,8.4h-.1s-1.4-9.8-1.4-9.8l2,.4.5-2.6ZM168.9,215.7c2,.4,3.6,1.3,4.8,2.7,1.2,1.4,1.6,3.3,1.1,5.8l-.5,2.5-9.6-2.1v.7c-.5,1.6-.5,2.8-.2,3.5.3.7.9,1.2,1.7,1.4.7.2,1.4,0,1.9-.3.5-.4,1-.9,1.2-1.8l4.2,1.9c-.8,1.3-1.9,2.1-3.4,2.7-1.4.5-3,.6-4.6.2-1.8-.4-3.2-1-4.2-1.9-1-.9-1.6-2-1.9-3.4-.2-1.3-.2-3,.2-4.8.4-2.1,1.1-3.7,1.9-4.9.9-1.2,1.9-1.9,3.1-2.2,1.2-.3,2.6-.3,4.3,0ZM168.4,218.3c-.8-.2-1.4,0-1.9.5-.5.5-.9,1.4-1.2,2.9v.7c-.1,0,4.5,1,4.5,1l.3-1.4c.4-2.1-.2-3.2-1.7-3.6ZM197.6,236.5l3.6-17.9-3.2-.7.6-2.9,9.8,2.1c2.3.5,4.2,1.2,5.7,2.2,1.5.9,2.6,2.1,3.2,3.3.6,1.3.8,2.7.5,4.2-.3,1.7-1.1,2.9-2.1,3.8-1.1.8-2.3,1.3-3.6,1.5-1.3.2-2.6.2-3.8,0-1.2-.1-2.5-.4-3.7-.6l-1.3,6.2,3.3.7-.6,2.9-12.1-2.6.6-2.9,3.2.7ZM205.1,228.6c1.2.3,2.3.4,3.2.4.9,0,1.6-.2,2.3-.8.7-.5,1.2-1.4,1.4-2.8.3-1.7,0-3-.8-3.8-.9-.8-2.3-1.5-4.3-1.9l-1.8,8.8ZM216.6,240.7l-.6,2.7,8.5,1.8.6-2.7-1.6-.4,4.3-20.9-6.9-1.5-.5,2.7,1.9.4-3.7,18.2-1.9-.4ZM240.2,236.4c.2-.8.2-1.5,0-2-.2-.5-.9-.8-2-1.1-1.6-.4-2.7.2-3.1,1.5l-4.4-1.8c.4-.7,1-1.3,1.8-1.8.8-.5,1.7-.7,2.8-.8,1.1,0,2.3,0,3.6.3,1.2.3,2.4.7,3.5,1.3,1.1.6,1.9,1.3,2.4,2.1.5.8.7,1.7.5,2.8l-1.9,9.6,2.1.5-.6,2.7-7.1-1.5.3-1.4h-.1c-.6.4-1.4.6-2.2.7-.8.1-1.7,0-2.6-.1-1.1-.2-2.1-.7-2.9-1.3-.8-.6-1.4-1.4-1.7-2.2-.3-.9-.4-1.8-.2-2.8.4-1.8,1.3-2.9,2.7-3.5,1.5-.6,3.1-.7,4.9-.3,1.6.3,2.8,1,3.7,2l.6-2.8ZM239.2,241.3c-.7-.7-1.4-1.1-2.3-1.3-1.9-.4-3,.3-3.3,2-.4,1.7.4,2.8,2.3,3.2.9.2,1.8,0,2.6-.3l.7-3.6ZM246.8,253.2l-.5,2.6,7.9,1.7,12-17.7,1.9.4.5-2.6-8.6-1.9-.5,2.6,2.3.5-5.2,8.2h-.1s-1.7-9.7-1.7-9.7l2.1.5.5-2.6-9.2-2-.5,2.6,2.1.5,3.6,14.9-2.1,3-4.3-.9ZM271.8,230.8l-.5,2.7,1.9.4-3.7,18.2-1.9-.4-.6,2.7,8.5,1.8.6-2.7-1.6-.4,4.3-20.9-6.9-1.5ZM281.5,240.4l-.6,2.7,2,.4-2.2,11-2-.4-.6,2.7,8.5,1.8.6-2.7-1.5-.3,2.8-13.7-7-1.5ZM290.1,236.4c.1-.5-.1-1-.6-1.5-.5-.5-1.3-.8-2.2-1-.9-.2-1.7-.2-2.4,0-.7.2-1.1.6-1.2,1.1-.1.5.1,1,.7,1.5.5.5,1.3.9,2.1,1.1.9.2,1.7.2,2.4,0,.7-.2,1.1-.6,1.2-1.1ZM294.3,244.3c-1.1.6-1.8,1.5-2.1,2.7-.2,1,0,2,.6,2.9s1.7,2,3.3,3.2c1.5,1.1,2.5,2,2.9,2.5.4.5.5,1.1.3,1.9,0,.4-.3.8-.7.9-.4.2-.8.2-1.3.1-.7-.2-1.2-.5-1.5-1.1-.3-.6-.3-1.5-.1-2.7l-4.6-1-1.2,5.7,4.6,1,.2-1.2h.1c.5.6.9,1.1,1.4,1.5.5.3,1.1.6,1.9.7,1.5.3,2.8.2,4-.4,1.2-.6,1.9-1.5,2.1-2.8.2-.8.1-1.5,0-2.2s-.6-1.4-1.3-2.1c-.7-.7-1.6-1.5-2.8-2.4-.8-.6-1.4-1.1-1.9-1.5-.4-.4-.7-.8-.9-1.2-.1-.4-.2-.8,0-1.2,0-.4.3-.7.6-.9.3-.2.7-.2,1.3-.1.7.2,1.2.5,1.4,1,.2.5.2,1.3,0,2.5l4.6,1,1.1-5.4-4.6-1-.2,1.2h-.1c-.7-1.2-1.8-1.9-3.2-2.2-1.4-.3-2.7-.1-3.8.5ZM309.1,259.3c-.3,1.4-.1,2.6.6,3.5.7.9,1.9,1.5,3.8,1.9,1.5.3,2.8.5,4,.5l.5-2.6c-.4,0-.8,0-1.1,0-.3,0-.6,0-1-.1-1.5-.3-2.1-1-1.9-2.1l2-9.7,3.3.7.6-2.7-3.3-.7,1-4.9c-1.6.4-3.4.8-5.4,1.1l-.5,2.7-2.4-.5-.6,2.7,2.4.5-2,9.7ZM129.4,82.1l-2.3-.5,1.9-9.5,2.3.5.4-2.1,1.9.4c.2-.1.4-.3.6-.4l.3-1.7,2.2.4c0,0,.2,0,.2,0l.4-2.1,9.5,1.9-.4,2.2s0,0,0,0l2.3.5-.4,2.2,2.2.4s0,0,0,0l.4-2.2,2.3.5.4-2.2,9.5,1.9-.4,2c0,0,.2.2.3.2l2.2.4-.4,2.1c0,0,0,.1.1.2l2.3.4-.4,2.1,2.3.5-1.9,9.5-2.3-.5-.4,2.2-2.4-.5-.5,2.3-2.3-.5c0,0-.1,0-.2.1l-.4,2.1-2-.4c-.1,0-.2.2-.4.2l-.4,1.9-2-.4c0,0-.2,0-.2.1l-.4,1.8-2.2-.4c0,0-.2,0-.3.1l-.4,1.9-2.4-.5-.4,2.1-7.3-1.4.4-2.1-2.4-.5.4-2.1-2.4-.5.4-2-2.2-.4.4-2.2-2.3-.5.4-2.1c0,0,0-.1-.1-.2l-2.3-.5.4-2.2s0,0,0-.1l-2.2-.4.4-2.2ZM148.2,99.2s0,0,0,0h0s0,0,0,0ZM164.9,89.1h0s0,0,0,0c0,0,0,0,0,0ZM131.4,72.8h0s0,0,0,0c0,0,0,0,0,0ZM315.4,119.3l-2.3-.5,1.9-9.5,2.3.5.4-2.1,1.9.4c.2-.1.4-.3.6-.4l.3-1.7,2.2.4c0,0,.2,0,.2,0l.4-2.1,9.5,1.9-.4,2.2s0,0,0,0l2.3.5-.4,2.2,2.2.4s0,0,0,0l.4-2.2,2.3.5.4-2.2,9.5,1.9-.4,2c0,0,.2.2.3.2l2.2.4-.4,2.1c0,0,0,.1.1.2l2.3.4-.4,2.1,2.3.5-1.9,9.5-2.3-.5-.4,2.2-2.4-.5-.5,2.3-2.3-.5c0,0-.1,0-.2.1l-.4,2.1-2-.4c-.1,0-.2.2-.4.2l-.4,1.9-2-.4c0,0-.2,0-.2.1l-.4,1.8-2.2-.4c0,0-.2,0-.3.1l-.4,1.9-2.4-.5-.4,2.1-7.3-1.4.4-2.1-2.4-.5.4-2.1-2.4-.5.4-2-2.2-.4.4-2.2-2.3-.5.4-2.1c0,0,0-.1-.1-.2l-2.3-.5.4-2.2s0,0,0-.1l-2.2-.4.4-2.2ZM334.2,136.4s0,0,0,0h0s0,0,0,0ZM350.8,126.3h0s0,0,0,0c0,0,0,0,0,0ZM317.4,110h0s0,0,0,0c0,0,0,0,0,0Z" fill="#fe6d68"/></g></svg>