<?xml version="1.0" encoding="UTF-8"?><svg id="b" xmlns="http://www.w3.org/2000/svg" viewBox="0 0 511 720"><g id="c"><path d="M349.6,103.5c-22.8,3.7-35.2,8.8-42.9,10.2-51.2,9.1-65.2-64.8-109.7-94.2C138.6-19.2,25.5-13.3,3,160.4c-18,138.3,50.7,232.7,78.4,265.2,15.2,17.8,27.8,28.8,36.6,35.4-29.1,65.8-87.7,198.6-99.9,229.9-2.5,6.3,1.6,13.7,6.2,18.2,4.2,4.1,12,7.7,18,9.6,11.7,3.6,20.8-.5,23.9-5.5,1.2-1.9,9.4-19.9,10.2-21.6,8.3-18.2,24.4-53.4,93.2-210.1,105.3,14.6,271.6-81.1,318.8-172.8,58.5-113.6.6-228-138.7-205.1Z" fill="#714e67"/><path d="M161.4,480c-27.6,64.9-82.2,192.9-100.1,229.6-1.5,3.1-6.6,4.5-10.9,4.5-6.7,0-15.4-4.7-18.1-6.4-7.9-4.9-9.5-11.5-8.8-14.2.1-.5,2.4-6.2,5.8-14.3,20.6-49,69-156.4,94.9-213.8,3,2,5.1,3.2,6.3,3.8,3.5,1.8,9,4.7,18.7,7.7,3.9,1.2,8,2.2,12.1,3Z" fill="#f5cbe1"/><path d="M221.4,442.7c0,0,0,.1-.1.2-10.5-.6-22.5-1.6-35.5-4.6-1.5-.4-3-.7-4.6-1.2-1.9-.5-3.8-1.1-5.7-1.7-2.4-.7-4.7-1.6-7.1-2.5.8,0,1.6-.2,2.5-.3,2-.3,4.2-.7,6.5-1.2,1.5-.4,3.1-.8,4.7-1.2,11.9-3.3,25.8-9.1,37-16,14.8-9.2,28.2-25.2,31.9-31.3.2-.4,2-3.2,2.2-5.5,9.1-2.2,19.1-5.1,29.4-8.6,13.2-3.9,18.6-6.6,21.1-8.1,2.4-1,4.7-2.1,7.1-3.1,0,0,0,0,0,.1-19.8,50-59.9,67.9-89.3,85.1ZM188.7,75.9l.4,1.4c-5.8,2.3-24.1,13.3-27.7,34.9,9.5.7,18.8,4,27.4,9.3.3,0,.6.2,2,1.3,6.7,4.4,13,10,18.8,16.6,1.5-.9,5.2-2.4,11.8-7.1,7.5-5.3,13-11.7,15.4-14.7h0c-5.3-6.2-11.1-12.3-17.3-18.1-1-.7-2-1.4-3.1-2.1-3.8-2.4-6.8-3.8-7.9-7.5-6.3-5.1-12.9-9.8-19.6-14h-.2ZM69.1,95.5c-.2,0-.5.1-.7,0-7.3,9.3-13.8,20.4-19,33.2.1,1.2.2,3.4.2,3.7.2,10.1-1.9,34.2,9,54.4,10.7,19.8,17.1,27.7,20.6,31.3.4-6.9,1.2-13.7,2.3-20.3.2-1.5.5-3,.9-4.6,4.8-23.8,14.5-44.9,29.2-60-7.3-25.4,8.3-55.2,25.6-70,1.5-1.3,3.8-3,5.9-4.2-11.9-1.2-23.7.1-35.3,4.9-.1.3-.2.6-.3.7-.6.9-1.7.6-7.5,3.2-.6.3-1.1.6-1.7.8-7.1,4.2-14.3,9.8-21.1,16.7-4.6,5.4-7.2,9.7-8.1,10.1ZM38.9,149.4c2.6-9.6,5.1-17.2,6.4-19.7,0-.2,0-.5,0-.7,0-.1-.1-.2,0-.3.8-1.3.9-1.2,1.7-2.5,0,0,0,0,0,0,5.4-13,12.2-24.2,19.7-33.8-2.3-9.9-2.6-20-2.7-21.8-.6-15.5,1.9-29.2,5.9-40.9-17,13.5-32.2,33.9-43.6,62.9-.3,9.9,0,19.8,1.7,28.2,3.5,17.9,4.1,20.3,11,28.5ZM414.7,158.5c31.4-8.8,55.6-5.3,74.6,3.2-20-34.7-59.2-56.4-115-53.1-9.5,5.6-20.5,13.3-32.7,24-3.4,3-6.1,5.6-8.1,7.6,20.2,4.7,41.1,12.8,58.5,26.4,10.4-4.6,20.9-7.5,22.7-8ZM308.1,293.5c3.1-4,6.2-7.8,11.3-16.2,1.5-2.4,1.4-2.5,1.5-2.5.4-.2.7-.3,1.1-.3.1-.4.2-.8.3-1.3.2,0,.4.1.7.2,7-11.8,11.3-23.9,12.1-35.2,0-.5,0-.9,0-1.5,0-.1,0-.3,0-.4-.6-.4-1.2-.9-2.2-1.5-22.3-14.7-37.1-5.8-50.9-.3,0,0,0,.1,0,.2.8,2,2.8,8.3,2.6,16.1,2.4,2.8,7.5,9.4,11,16.9,8.3,17.6,5.3,30-.6,38.7,4.7-4.1,9.1-8.4,13.1-12.9ZM234.7,217.5c-12.5-6.4-17.1-17.7-19.8-22.1-17.9-29.3-45.7-20.5-64.1,3.7.9,0,1.7.7,1.6,1.8-1.6,9.3-2.7,16.2,2.7,30.4,2.7,7.1,5.7,13.4,8.9,23.1.4-3.2,1.3-6.7,2.9-10.2,3.9-8.6,10.8-15.7,14.7-19.5,22.1-21.4,69.5,30,46.5,41.9-7,3.6-18,1.8-22.9.8-.2,0-.6,0-.7-.1-1-1.1-.6-1.4-1.6-2.5.9-.3,1.6-1.3,2.5-1.6.3,0,24.9,6.2,24.7-6.9-.2-15.1-30.8-43-45.6-28.6-23.2,22.5-19.3,39.5-4.7,50,1,.6,1.9,1.1,2.6,1.4,13.4,7,33.8,11.6,42.7,10.4.2,0,.4-.2.6,0,.3.2.6.3.7.5,20.5-.4,42.8-7.3,51.1-24.4.2-1.1.3-2.3.4-3.6,0-.8.2-5.2.7-8.1.2-1,.1-1,.2-1.1.5-.5.9-.7,1.2-.9,0,0,0,0,0,0-.1-1.5.3-1.5.2-3,.3,0,.5.1.8.2,0-.3,0-.6,0-1-.3-5.6-1.3-9.8-2.8-13-3.4-2.2-10.9-7.1-17.3-10.6-4.9-.9-10.3-1.5-15.8-3-1.5.2-3.3.3-5.7,0-.3,0-.7,0-.9,0-1.1-1-.7-1.3-1.8-2.4.2,0,.3-.2.5-.4-.7-.3-1.5-.7-2.2-1ZM342.4,336.8c9.6-6.2,18.2-12.9,25.8-19.8,1.3-9.4,2.2-14.3-1.7-23.8-2.3-5.8-4.2-9.5-7.6-19.4-4.6-13.7-17.5-23.6-21.8-26.9-1.9,9.2-5.8,18.8-11.3,28,.8,1.4,2.3,3.9,3.4,6.6,3.3,7.8,11.1,30.4-12.3,64.2-1,1.5-3.9,5.4-6.8,8.8,3.7-1.7,7.3-3.4,10.8-5.3,6.8-4.1,13.7-7.8,21.5-12.4ZM113.5,394.3c.3,0,20.6,12,48.4,2.9,14.8-4.8,14.8-6.6,25-13.9-13.7-2-26.2-6.3-37.3-12.5-1.9-.6-3.9-1.4-5.8-2.3-.4-.2-.7-.4-1-.6-10.1,1.4-34.7,3.1-63.5-22.8,10.6,20.5,22,36.6,33.6,49.4.2,0,.4,0,.6,0ZM426.3,214.3c4.9,13.8,7.6,29.8,7.4,48.6-.2,20.6-10.5,43.5-25.6,65.6-.3,9.6-1.6,19.3-1.9,21-3.4,23.8-10.7,41.6-20.1,56.2,30.7-20.8,58.1-45,77.9-70.4,3.2-16.3,4.7-39.4-3-64.7-8.3-26.8-23.9-45.5-34.7-56.4ZM289.4,134.2c4.6-4.5,8.5-8.4,11.9-11.8-13.3.9-29-3-45.6-20.7-2.3-2.5-4.5-5.1-6.7-7.7-1.2,7.9-1.5,17.5-2.1,29.6,4.1,5,6.9,8.7,8.8,11.3,4.4-.4,17.1-1.4,33.8-.7ZM220.1,380.6c2.5-.4,5.1-.8,8-1.3,0-.4.2-.7.6-1,3.6-2.7,50.9-35.7,67.9-67.1.8-1.5,1.6-2.9,2.3-4.1-22.6,20.2-52.3,34.6-82.2,34.4-6.9,8.9-32.3,31.6-57.4,30.7,17.3,7.7,37.6,11,60.8,8.3ZM56.3,289.6c1.8,3.1,5,7.1,10.4,12.2,12.6,11.7,30.6,23,41.1,29.5-12-18.1-20.3-39.3-24.8-61.3,0,0-.1,0-.2,0-18-7-29.1-15.2-43.5-48.4,0,.1,0,.3,0,.4.2.8.4,1.6.7,2.3,0,0,.7,1.3,0,2.1,1.3,8.3,3,16.9,5.2,25.7.7,2.6,1.3,5.1,2,7.7.4.4.5.9.7,2,.5,2.2,1.1,4.4,1.6,6.4,1.1,3.9,2.3,7.7,3.4,11.5.3.4.6.8.9,1.2,0,0,0,.5,0,1.2.8,2.6,1.6,5.2,2.5,7.7ZM207.9,85.2c-1.3-12.1-6.4-28.5-.9-46.3-5.2-5.3-10.8-10.1-17.1-14.1-15.5-9.7-34.2-15.9-53.8-16.8-3.7,2.9-9.4,9.2-17.3,23.2-9.7,17.3-7.7,18.3-9.5,26.9-.1.5-.3,1.2-.4,1.9,1.8-.7,3.6-1.3,5.3-1.8,32.1-9.3,65.7,4.9,93.7,26.9ZM43.1,257.2c-.4-1.4-.8-2.9-1.1-4.3-2.4-9.5-4.3-18.7-5.5-27.7,0,0-.2-.2-.3-.3-11.5-10.2-19.3-39.2-26.2-68.2-.4,2.8-.8,5.6-1.2,8.4-2.7,21.3-3.2,41.7-1.9,61.2,7,8.4,20,21.5,36.2,30.8ZM403.6,253.2c.6-14.1-3.6-28-13.6-41.3-2.7-3.6-13.3-17.8-39.1-32.6-1.9-.8-3.5-1.5-4.9-2-.8-.2-1.1-.5-1.4-.8-.1-.2-.3-.4-.4-.6,0-.1,0-.2-.1-.3-.2-.1-.4-.2-.6-.3-8.8-4.5-19.8-6.2-31.4-8-.2.2-.4.3-.6.4-.3.1-12.2,4.1-27.6,13.9-1.7,1.1-3.1,2-4.2,2.8,11.2,1.1,28.6,5,40.8,14,5.7,4.2,9.9,9.2,12.8,14.6.2,0,.5-.2.7-.2,0,0,.1,0,.2.1,7.6,3.8,57.1,23.7,69.4,40.4ZM245.4,446.6s0,0,0,0c-7.5,10.8-11.5,14.1-23.7,26.4,13.3-1.8,28.3-4.9,45.1-9.8,13.6-4,27.6-9.1,41.5-15.1,3.6-3.3,7.1-6.7,10.6-10.1,4.5-4.4,20.9-20.4,27.7-33.8,3.3-6.5,3.5-10.1,3.6-12.7-.2.2-.4.3-.6.5-32,27.1-71.4,50.7-104.2,54.6ZM71,336.3c-4.8-7.1-9.1-18.9-12.2-28-7.8-3.6-30.3-20.9-46.2-38.5,5.7,27.7,14.7,53,25.5,75.5,20.5,14.6,43.8,27.6,55.7,31-7.9-11.3-15.5-24.5-22.8-39.9ZM286.4,139.2c-.2-.3-.3-.6-.3-.9-11.8-.4-21.4.1-27.5.6.1.2.2.3.3.4,3.2,4.6,3,5.3,6.6,8.5.3.3.6.5.9.8,0,0,0,0,0,0,23.1,18.4,56.2,12.4,78.4,23.9.3.2.6.3.9.5.3,0,.6,0,1,.1,0,0,.1,0,.2,0,6,0,32.1-5,50.9,3.9-19-18.4-43.9-28.3-67.9-33.6-.4.4-.7.7-.8.7-1.9,1-2.6-3.1-37.7-4.4-3.8-.1-4.6,0-5.1-.7ZM429.1,247.4c-.5,0-1,0-1.4-.4-.4-.4-13.2-14.1-27.4-24.8-.3-.2-.6-.4-.8-.6,6.1,12.1,8.2,24.6,6.7,37.1,0,.2.1.5.2.7.6,5.9-1.7,12.9-2,13.9-4,12.2-13.1,23.9-20.9,32.5-8.4,9.9-19,19.3-31.4,28.2,0,.2.2.4.2.7.6,10.3-4.2,22.6-4.9,24.5-8.9,22.7-29.9,49.2-59.2,69.7,66-32.6,140.7-112.5,141.5-165.2,0-5.7-.1-11.1-.5-16.3ZM228.3,179.3c-2-3.3-4.2-7.7-6.6-12.6-1.5-.2-3.5-.5-6.4-.6-11.9-.3-15.2,6.7-16.7,9.3,4.8,2,9.5,5.4,13.8,10.4,8.1,9.3,8.3,15.9,17.2,23.7,2.3,2,4.7,3.6,7.2,4.8,0,0,0-.2,0-.3,5.9-1.8,44.3-25.7,72.3-18.7-9.6-4.6-20.3-6.8-28.5-7.8-1.6-.2-3.2-.3-4.8-.4,0,0-.1.1-.2.2,0,0-.1-.1-.2-.2-.1,0-.2,0-.3,0-.3.4-.6.8-.9,1.1,0,0-.7,0-1.2-.3-2.3.4-7,1.1-12,1.6-6.2.6-11.1.6-15,.3-3.7,0-7.1-.6-9.9-2.5-4.2-2.1-6-5.1-7.7-8ZM104.1,319.3c.1,0,.2,0,.3,0,27.1,11,35.6,15.5,70.6,11.1-3.1-1.8-6.2-3.7-9.2-5.9-10.6-7.8-18.6-16.5-24.4-25.7l-.8,1.4c-14.3-8.8-32.3-19.1-57.9-85.7-.2,2.1-.3,4.2-.4,6.3.2.2.3.3.3.4.4.9,0,1.1-.5,9.6.2,30.5,7.6,62.1,22.2,88.4ZM224.7,295s-2.5,1.1-4.6,1.8c-3.8,1.3-29.9,11.3-72.2-14.7-5.1-3.1-10.2-6.7-13.8-9.6,6.4,28.4,26.4,44,34.2,49.7,5.2,3.8,10.5,6.8,16,9.2,4.7,1.1,11.6,2.6,18.1,3.8,14.5-3.1,38.2-10,52.3-30.6,5.3-7.8,8-15.5,10.8-21.2-.7.4-1.5.9-2.2,1.3-10.7,6-24.3,8.8-38,8.9-.1.5-.3.9-.5,1.4ZM112.3,179.5c6.8,31.4,15.1,45.5,19.3,51.5,3.3-12.9,9.2-24.8,16.6-34.4-.4-.2-.6-.5-.7-.6-.5-.7-.3-.8-.4-1.7.7-3.3,9.9-51,37.2-70.5.4-.3.7-.5,1.1-.7-1-.6-2-1.1-3.1-1.7-7.2-3.7-14.4-5.7-21.5-6.2-.2.4-.5.8-1,1-1.5.5-13.3-1.7-30,7.8-4.9,2.8-9.7,6.1-12.8,8.2-1.2,1.1-2.4,2.3-3.5,3.5.5.3.9,1,.6,1.8-2.3,7.2-9.3,7.1-1.7,41.9ZM181.7,441c-1.4-.4-2.8-.8-4.2-1.2-10.9-3.2-22.3-7.9-33.8-14.9-.1,0-.2-.1-.4-.2-1.1,0-2.6-.1-4.5-.4-1.2-.1-2.7-.4-4.3-.6-10.3-1.7-28.5-6.3-59.4-18.2,16.5,21.5,33.1,37.6,46.3,47.7,1.1.8,2.1,1.6,3.2,2.3,1.1.8,2.2,1.5,3.2,2.2,1.9,1.3,3.8,2.4,5.5,3.4.4.2.9.5,1.3.7h0c3.3,1.7,12.9,7.1,29.8,10.4.2-.2.4-.3.6-.5,2.5-2,4.9-4.1,7.1-6.2,1.9-1.8,3.6-3.7,5.3-5.6,1.2-1.4,2.4-2.9,3.6-4.5,3.8-5,7.2-10.2,8.8-12.6-1.3-.3-2.5-.5-3.8-.8-1.4-.3-2.8-.6-4.2-1Z" fill="#fe6d68"/><path d="M69,89.5c-1.6-7.8-4-24.5-.2-44,1.4-7.3,3.5-13.8,5.7-19.3,17.6-12.4,36.8-17.9,55.5-18.2-8.4,8.8-16.4,24.6-19.2,30.6-5.1,10.7-3,11.9-5.8,23-3.2,1.4-6.5,3.1-9.7,5.1-6.8,3.6-11.9,7.8-16.4,12.4-3.4,3.2-6.7,6.6-9.9,10.4ZM114,130.7c.3-.2.5-.4.8-.5,2.4-2.2,5-4.3,7.6-6.2,11.7-8.4,23.7-12,35.4-11.9.9-6.1,4.7-22.7,22.9-34.9.8-.5,1.5-1,2.2-1.4-18.1-8.8-33.5-15-35.8-14.3-6.3,1.7-20.5,14.9-28.6,33-7.9,17.6-5.9,30.8-4.6,36.3ZM245.6,128.4c-.7.3-1.5.1-2-.6-1.4-2.2-3.1-4.9-5-7.8-9.3,11.5-18.1,17-26.1,21.4.9,1.6,1.8,3.2,2.7,4.7.1.2.3.4.4.6,2.8,3.5,5.2,7.2,7.1,10.8,3.4,5.8,6.5,12.1,9.1,18.6,1.1,2.6,2.2,4.6,3.5,6.2.1.1.3.3.4.4,3.8,2.8,10.4,3.5,17,3.3,5.2-.8,11.3-1.9,18.6-2.1,1.1-.2,1.9-.3,2.2-.4,1.1-.9,3.1-2.3,6.3-4.4,5.1-3.2,10.3-6.1,14.3-8.1,3.6-1.8,6.7-3.2,9.2-4.2-8.2-1.3-21.8-4.4-33.5-12-.6-.4-1.1-.7-1.6-1.1-5.7-3.8-10.9-8.7-15.4-15.3-.2-.3-.3-.5-.5-.8-.1,0-.3-.2-.5-.3,0,0,.1-.1.2-.2-2-3-4.1-5.9-6.4-8.9ZM38.1,209.2c11.2,29.7,19.7,39.5,22.2,42.4,7,8.1,14.2,11.5,21.2,14.5-2.5-17.6-3.4-21-2.7-35.2,0-2.9,0-5.8.1-8.7-2.8-2.4-9.8-9.4-23.4-33.7-9.1-16.4-10-34.9-10.1-47.3-1.4,4.5-3,9.9-4.5,15.9-3.2,15.6-4.4,33-2.9,52.1ZM64,310.9c3.1,8,6.3,15.4,9.6,22.5,1,1.6,2,3,3,4.1,15.3,15.9,29.5,21.7,31.1,22.4,14.1,6.1,25.5,6,32,5.4-6.6-4.6-15.3-13.3-16.9-14.9-1.2-1.2-2.2-2.3-3.1-3.3-.4-.3-.8-.6-1.1-1-4.9-4-6.3-4.9-8.4-9.7-10.5-6.5-34.7-20.5-49.1-34.8.8,2.7,1.8,6,3,9.4ZM178.9,427.4c15-3.7,34.9-12,47.5-22.4,10-8.3,21.7-21.2,23.5-26.8-8.4,2-16.1,3.5-22.6,4.5-1.6.3-3.1.5-4.7.7-3.6.6-7.2,1.1-10.7,1.5-14.4,1.7-20,.9-22.3.5-12.2,9.2-12.7,10.6-26.6,15.3-.4.1-20.6,8.1-43.5.6.6.6,1.2,1.2,1.9,1.8,1.3,1.1,2.7,2.2,4.4,3.6,4.2,3.4,9.4,7.3,14.6,10.8,1.3.9,2.5,1.7,3.8,2.6.7.5,1.5,1,2.2,1.4,0,0,.2,0,.2,0,0,0,.9,0,1.3.8,0,0,0,.1,0,.2.4.3.9.5,1.3.8,5.3,3.3,10.1,5.6,13,6,.5,0,1,0,1.6.1,2.3,0,5.2-.2,8.5-.7,2-.3,4.2-.8,6.5-1.4ZM348,338.4c-12.7,7.4-30,16.3-33.5,19.6-8.9,21.5-22.1,43.9-56.6,66.6-9.2,6-16.8,10.3-31.1,18.5,4.9.4,11.8.5,19.1-.2,7.2-.9,14.8-2.9,22.7-5.7.9-.4,1.8-.9,2.6-1.4,25.1-14.6,43.8-33,56-49.4,17.6-23.6,20.4-40.9,20.8-48ZM211.1,87.4c0,.1,0,.2,0,.3,4,3.3,7.9,6.8,11.7,10.3.3.2.6.5.9.7,5.8,4.6,10.6,10.2,14.6,15.6.3.3.6.7.9,1,1.5,1.8,3,3.6,4.5,5.4,0-.3,0-.6,0-.9.6-13.6.9-22.4,2.2-29.6-12.4-15.9-22.9-34-36.3-48.6-1.6,5.9-2.3,12.5-1.9,20,.7,10.5,2.5,15.2,3.3,25.8ZM35.6,219c-.7-3.1-1.4-7.1-1.9-12.2-.3-3.3-.5-7.1-.5-11.3,0-14.5,2-29,3.8-38.3.3-1.5.6-3,.9-4.2-7.9-9-9.4-11.5-13.4-32.3-1.1-5.6-1.6-11.8-1.8-18.2-4.6,13.5-8.4,28.6-11.3,45.6,6.7,29.4,13.8,59.4,24.5,72.1,0-.4-.1-.8-.2-1.2ZM188.3,452.1c-4.2,5.9-8.1,10.7-12.6,15.1-2,2-4.2,3.9-6.5,5.8,1.2.2,2.4.4,3.7.5,11.6,1.5,26,2,43.4,0,3-3.1,6.4-6.6,10.5-10.7,7.3-7.4,9-9.3,13.4-15.5-9.9,0-37.7-.3-47.3-2-1.2,1.8-4.4,6.2-4.7,6.7ZM354.7,389.3c-1.4,1.6,2.8,8.8-11.8,28-3.9,5.1-9.4,11.9-24.8,26.5,20.8-9.4,41.4-20.7,60.9-33.4,2.8-3.9,5.5-7.9,7.9-12.3,13.1-23.4,16.2-47.3,17.2-63.9-17.2,24.8-48.6,54.4-49.4,55.1ZM418,206.3h0c-.5-.7-.6-.6-.7-1.2,0-.1,0-.7-.3-1.4-1.7-3.5-3.7-7-6-10.5-5-7.5-13.9-20.2-50.7-17-1.8.2-3.6.4-5.3.5,4,2,7.2,3.8,7.9,4.3.3.2,23.4,12.9,36.2,36,11.5,8.3,22.8,19.5,28.1,25-.4-7.4-2.1-20.5-8.7-35.1-.2-.2-.4-.3-.5-.5ZM380.2,304.8c12.8-14.7,20.8-30.3,22.9-46-3.6-14.1-58-36.7-60.4-37.7-1.7-.7-4.2-1.8-6.4-2.7.1,1,.3,2.3.6,4,.7,2.7,1.2,5.5,1.4,8.3.7,4.7.8,7.5.9,12.9,19.9,15.1,22.6,28.1,24.5,33.2,3.8,10.8,6.9,16.2,8.2,22.2,1,4.9.7,9.9.2,14.1,2.2-2.1,5-4.9,8.2-8.3ZM301.2,358.4c1.5-.9,2.7-1.7,3.4-2.5,13-14.3,28.3-39.2,24-62.5-1.2-6.8-3.6-11.7-5.3-14.5-.2.3-.4.6-.6.9-1.4,2.3-3.6,5.7-5.9,8.8-6.6,9-8.9,10.2-16.9,24.6-14.2,25.6-47.8,51.9-63.8,63.7,16.8-3.3,33.3-7.3,46.1-11.1,6.5-2.3,12.8-4.7,19-7.3ZM149.9,367.5c24.5,7.8,52.1-15.2,61.6-26.1-1.4,0-2.9-.2-4.3-.4-7.6-.4-12.3-1.4-12.5-1.5-.5-.2-.8-.7-.8-1.1-2.8-.8-5.5-1.7-8.2-2.8-3.4-.8-6.2-1.5-7.7-1.7-9.3,1.1-24.7,3-38.4.7-10.8-1.8-20.2-5.6-31.9-10.5,1.7,2.9,2.7,5,3.5,6.7,1.1,1.5,2.1,3.1,3.2,4.6,1.1,1.5,2.2,2.9,3.3,4.3,1.8,2.2,3.6,4.3,5.5,6.4,3.2,2.6,7.2,6,12.4,10.6,2.7,2.4,4.5,4.1,5.7,5.4,2.8,2,5.7,3.8,8.7,5.6ZM85.1,212.7c20.8,53.2,36.4,69.8,49,78.6-.2-.4-.4-.8-.6-1.2-9.3-17.9-9-31.9-3.6-51.6.2-1,.3-2,.5-2.9-4.1-5.3-14.9-20.9-22.4-60.3-2.8-14.9-2.8-22.8-1.7-27.8-16.6,23.7-25.8,53.8-21.3,65.2ZM137.3,224.5c-1.2,3.3-2.1,6.7-2.9,10.2-.4,1.7-.7,3.4-1,5.1-1.4,8.1-1.7,16.5-.6,24.9.1,1,.3,1.9.5,2.9,9.5,8.7,50.3,36.7,84.1,25.8-.3,0-.6,0-.8,0-15.6-1.2-30.5-6-40.5-13.6-6.3-4-10.9-8.7-12.4-13.9-4.5-16.2-5-16-11-31.6-4.1-10.7-5.4-17.7-4.3-27.3-4.9,7-8.5,12.5-11,17.6ZM492.1,166.8c-6.5-3.2-13.6-5.9-21.6-7.6-31-6.8-61.3,4.5-74,9.8,4.2,3.2,10.8,8.7,16.5,16.6,4.7,6.4,6.7,12.2,7.7,15.7.6,1.1,1.1,2.3,1.7,3.5,10.6,9.8,32,31.4,42,64.8,6.9,22.8,6.3,43.9,3.9,60.1,6.2-8.5,11.5-17,15.8-25.7,25-50.1,26.7-100.2,8.1-137.1ZM366.8,109.1c-15.4,1.5-31.9,4.8-49.6,10.2-3.3,1-6.9,2-10.7,2.6-3.8,3.7-8,7.8-12.8,12.6,11,.7,23.5,2.1,36.4,4.9,6.9-6.8,20.2-19.4,36.8-30.2ZM57.7,304.2c-.6-1.6-1.2-3.3-1.8-5-.7-2-1.4-4.1-2.2-6.2-1.4-4.1-2.7-8.2-4.1-12.5-1.9-6.1-3.7-12.4-5.5-19-4.4-2.3-18.9-10.2-34.9-26.5,0,0-.8-.9-2-2,.9,10.2,2.2,20.1,3.9,29.7,13.8,17.1,35.8,35.2,46.2,41.4,0,0,.2,0,.2.1ZM121.6,410.5c-17.6-14.5-24.4-26.8-26.4-30.8-2.8-.5-13.8-3.4-38-17.9-5.1-3.1-10.4-6.4-15.7-9.9,9.1,18.1,19.4,34.3,29.8,48.4,9.9,3.9,20.2,7.8,30.2,11.2,17.2,5.8,28.1,8.3,35,9.4,0,0,.2,0,.3,0,0,0-.2,0-.2-.1-3.8-2.1-8.8-5.2-14.9-10.3ZM165.1,152.7c-6.9,13.5-10.7,27.8-12.6,36.4,9-7.8,14.3-12.4,20.5-14.9,7.9-3.1,15.5-2.5,23.1-1.3,1.4-2.4,4.2-6.5,9.7-8.6,4.8-1.9,10.2-1.6,14.3-1.1.6,0,1.3.2,1.8.3-.4-1.2-1.2-3-2.3-5.1-2.2-3.7-4.8-7.7-7.9-11.6,0,0,0,0,0-.1-4.9-6-12-13.2-22.2-21.1-.4-.2-.7-.5-1.1-.7-3.6,2.3-13.7,9.3-23.2,27.9ZM258.4,208.2c-7.7,3.5-13,6.5-16.5,8.3.7.2,1.5.5,2.2.7.6,0,1.3-.2,2.1-.3,4.4-.9,6.8-1.4,16.2,3.9,7.3,1.5,13.7,3.8,17.8,10.4,11.9-4.7,21.9-9.2,34.3-7.3,8.5,1.3,15.7,5.5,19.9,8.3-3.5-19.8-15.3-51.8-75.9-24ZM220.9,338c17.3-1,40.8-6.4,63.2-24.8,5.7-4.7,23.8-20.6,3.6-51.4-1.3-1.9-2.5-3.7-3.7-5.1-.5,2.9-1.3,5.8-2.5,8.8-.7,4.2-2.4,8.1-8.3,13.6-4.3,4-5,8.6-10.3,18.9-10.9,21.3-28.8,32.2-51.9,38.4-1.5.4-3.1.8-4.6,1.2,2.7.4,5.5.6,8.2.7,2,0,4.2,0,6.5-.2Z" fill="#fff"/><path d="M349.6,103.5c-22.8,3.7-35.2,8.8-42.9,10.2-51.2,9.1-65.2-64.8-109.7-94.2C138.6-19.2,25.5-13.3,3,160.4c-18,138.3,50.7,232.7,78.4,265.2,15.2,17.8,27.8,28.8,36.6,35.4-29.1,65.8-87.7,198.6-99.9,229.9-2.5,6.3,1.6,13.7,6.2,18.2,4.2,4.1,12,7.7,18,9.6,11.7,3.6,20.8-.5,23.9-5.5,1.2-1.9,9.4-19.9,10.2-21.6,8.3-18.2,24.4-53.4,93.2-210.1,105.3,14.6,271.6-81.1,318.8-172.8,58.5-113.6.6-228-138.7-205.1ZM221.7,473c12.2-12.3,16.2-15.6,23.7-26.4,0,0,0,0,0,0,32.8-3.9,72.2-27.5,104.2-54.6.2-.2.4-.3.6-.5,0,2.6-.3,6.2-3.6,12.7-6.7,13.4-23.1,29.4-27.7,33.8-3.5,3.4-7.1,6.8-10.6,10.1-14,5.9-27.9,11-41.5,15.1-16.8,5-31.8,8.1-45.1,9.8ZM50.4,714.1c-6.7,0-15.4-4.7-18.1-6.4-7.9-4.9-9.5-11.5-8.8-14.2.1-.5,2.4-6.2,5.8-14.3,20.6-49,69-156.4,94.9-213.8,3,2,5.1,3.2,6.3,3.8,3.5,1.8,9,4.7,18.7,7.7,3.9,1.2,8,2.2,12.1,3-27.6,64.9-82.2,192.9-100.1,229.6-1.5,3.1-6.6,4.5-10.9,4.5ZM7.3,232.9c1.1,1.2,1.9,2,2,2,16,16.3,30.5,24.2,34.9,26.5,1.8,6.6,3.6,12.9,5.5,19,1.3,4.3,2.7,8.5,4.1,12.5.7,2.1,1.4,4.2,2.2,6.2.6,1.7,1.2,3.3,1.8,5,0,0-.2,0-.2-.1-10.4-6.2-32.4-24.3-46.2-41.4-1.7-9.6-3.1-19.5-3.9-29.7ZM8.7,165.2c.4-2.9.7-5.7,1.2-8.4,6.9,29,14.7,57.9,26.2,68.2.1,0,.2.2.3.3,1.3,8.9,3.1,18.1,5.5,27.7.4,1.5.8,2.9,1.1,4.3-16.2-9.3-29.3-22.4-36.2-30.8-1.3-19.5-.8-39.9,1.9-61.2ZM301.3,122.5c-3.4,3.4-7.3,7.2-11.9,11.8-16.7-.7-29.4.2-33.8.7-1.9-2.6-4.7-6.2-8.8-11.3.7-12,.9-21.6,2.1-29.6,2.2,2.6,4.4,5.2,6.7,7.7,16.7,17.7,32.3,21.6,45.6,20.7ZM429.7,263.6c-.9,52.7-75.6,132.6-141.5,165.2,29.3-20.5,50.2-47.1,59.2-69.7.7-1.9,5.6-14.1,4.9-24.5,0-.3,0-.5-.2-.7,12.4-8.8,22.9-18.3,31.4-28.2,7.8-8.6,16.8-20.3,20.9-32.5.4-1.1,2.7-8,2-13.9,0-.2-.1-.5-.2-.7,1.5-12.5-.5-25-6.7-37.1.3.2.5.4.8.6,14.2,10.8,27,24.5,27.4,24.8.4.4.9.5,1.4.4.4,5.2.6,10.6.5,16.3ZM318.1,443.8c15.4-14.6,20.9-21.4,24.8-26.5,14.7-19.3,10.5-26.4,11.8-28,.8-.8,32.2-30.3,49.4-55.1-1,16.6-4.1,40.6-17.2,63.9-2.4,4.4-5.1,8.4-7.9,12.3-19.5,12.7-40.1,24-60.9,33.4ZM185.7,438.2c-1.5-.4-3-.7-4.6-1.2-1.9-.5-3.8-1.1-5.7-1.7-2.4-.7-4.7-1.6-7.1-2.5.8,0,1.6-.2,2.5-.3,2-.3,4.2-.7,6.5-1.2,1.5-.4,3.1-.8,4.7-1.2,11.9-3.3,25.8-9.1,37-16,14.8-9.2,28.2-25.2,31.9-31.3.2-.4,2-3.2,2.2-5.5,9.1-2.2,19.1-5.1,29.4-8.6,13.2-3.9,18.6-6.6,21.1-8.1,2.4-1,4.7-2.1,7.1-3.1,0,0,0,0,0,.1-19.8,50-59.9,67.9-89.3,85.1,0,0,0,.1-.1.2-10.5-.6-22.5-1.6-35.5-4.6ZM68.4,95.6c.2,0,.5,0,.7,0,.9-.4,3.5-4.7,8.1-10.1,6.8-7,13.9-12.5,21.1-16.7.6-.3,1.1-.6,1.7-.8,5.8-2.6,6.9-2.3,7.5-3.2,0-.1.2-.4.3-.7,11.5-4.8,23.4-6.2,35.3-4.9-2.2,1.2-4.4,2.9-5.9,4.2-17.3,14.8-32.8,44.6-25.6,70-14.7,15.1-24.4,36.3-29.2,60-.3,1.5-.6,3.1-.9,4.6-1.1,6.6-1.9,13.4-2.3,20.3-3.4-3.5-9.8-11.5-20.6-31.3-11-20.2-8.9-44.2-9-54.4,0-.3,0-2.5-.2-3.7,5.2-12.8,11.7-23.9,19-33.2ZM286.4,139.2c.6.7,1.4.5,5.1.7,35.1,1.3,35.8,5.4,37.7,4.4,0,0,.4-.3.8-.7,23.9,5.2,48.9,15.2,67.9,33.6-18.8-8.8-44.9-3.8-50.9-3.9,0,0-.1,0-.2,0-.4-.1-.7-.1-1-.1-.3-.2-.6-.3-.9-.5-22.2-11.5-55.3-5.4-78.4-23.9,0,0,0,0,0,0-.3-.2-.6-.5-.9-.8-3.7-3.2-3.4-3.9-6.6-8.5,0-.1-.2-.3-.3-.4,6.1-.5,15.8-1,27.5-.6,0,.3.1.7.3.9ZM268.7,437.1c-7.9,2.8-15.5,4.7-22.7,5.7-7.3.7-14.2.6-19.1.2,14.4-8.2,21.9-12.4,31.1-18.5,34.4-22.6,47.7-45,56.6-66.6,3.4-3.3,20.8-12.3,33.5-19.6-.4,7.1-3.2,24.4-20.8,48-12.2,16.4-30.9,34.8-56,49.4-.8.5-1.7,1-2.6,1.4ZM342.4,336.8c-7.8,4.6-14.7,8.3-21.5,12.4-3.5,1.8-7.1,3.6-10.8,5.3,2.9-3.4,5.7-7.4,6.8-8.8,23.5-33.8,15.6-56.4,12.3-64.2-1.1-2.7-2.6-5.2-3.4-6.6,5.5-9.3,9.4-18.8,11.3-28,4.3,3.3,17.2,13.3,21.8,26.9,3.3,9.9,5.2,13.6,7.6,19.4,3.9,9.6,3.1,14.4,1.7,23.8-7.6,6.9-16.2,13.6-25.8,19.8ZM64,310.9c-1.2-3.4-2.2-6.7-3-9.4,14.4,14.3,38.6,28.2,49.1,34.8,2.1,4.8,3.6,5.7,8.4,9.7.4.3.8.6,1.1,1,.9,1,1.9,2.1,3.1,3.3,1.6,1.6,10.4,10.4,16.9,14.9-6.5.6-17.9.8-32-5.4-1.7-.7-15.8-6.5-31.1-22.4-1-1.1-2-2.5-3-4.1-3.3-7-6.5-14.5-9.6-22.5ZM22.6,102.6c.2,6.4.7,12.6,1.8,18.2,4,20.7,5.5,23.2,13.4,32.3-.3,1.2-.6,2.6-.9,4.2-1.8,9.2-3.9,23.8-3.8,38.3,0,4.2.2,8,.5,11.3.5,5.1,1.2,9.2,1.9,12.2,0,.4.1.8.2,1.2-10.7-12.7-17.7-42.8-24.5-72.1,2.9-17,6.7-32.1,11.3-45.6ZM282.3,365.7c-12.7,3.9-29.3,7.8-46.1,11.1,16-11.8,49.6-38,63.8-63.7,8-14.4,10.3-15.6,16.9-24.6,2.3-3.1,4.5-6.5,5.9-8.8.2-.3.4-.6.6-.9,1.6,2.8,4,7.8,5.3,14.5,4.3,23.3-11,48.2-24,62.5-.7.8-1.9,1.6-3.4,2.5-6.1,2.6-12.5,5-19,7.3ZM172.4,428.7c-3.3.6-6.2.8-8.5.7-.6,0-1.1,0-1.6-.1-2.9-.4-7.7-2.7-13-6-.4-.3-.9-.5-1.3-.8,0-.1,0-.2,0-.2-.4-.7-1.3-.7-1.3-.8,0,0-.2,0-.2,0-.7-.5-1.4-.9-2.2-1.4-1.3-.8-2.5-1.7-3.8-2.6-5.2-3.6-10.3-7.5-14.6-10.8-1.7-1.4-3.1-2.5-4.4-3.6-.6-.6-1.2-1.2-1.9-1.8,22.9,7.4,43.1-.5,43.5-.6,13.9-4.7,14.4-6.1,26.6-15.3,2.3.5,7.9,1.3,22.3-.5,3.5-.4,7.2-1,10.7-1.5,1.6-.2,3.1-.4,4.7-.7,6.5-1.1,14.1-2.5,22.6-4.5-1.8,5.6-13.5,18.5-23.5,26.8-12.7,10.4-32.5,18.7-47.5,22.4-2.3.6-4.5,1-6.5,1.4ZM323,273.4c-.2,0-.5-.1-.7-.2,0,.4-.1.8-.3,1.3-.4,0-.8.1-1.1.3-.1,0,0,.1-1.5,2.5-5.1,8.3-8.2,12.1-11.3,16.2-4,4.5-8.4,8.8-13.1,12.9,5.9-8.7,8.9-21.1.6-38.7-3.6-7.6-8.7-14.1-11-16.9.1-7.8-1.8-14.1-2.6-16.1,0,0,0-.1,0-.2,13.8-5.5,28.6-14.4,50.9.3,1,.6,1.7,1.1,2.2,1.5,0,.1,0,.3,0,.4,0,.5,0,1,0,1.5-.8,11.3-5.1,23.5-12.1,35.2ZM114,130.7c-1.3-5.6-3.3-18.7,4.6-36.3,8.1-18.1,22.2-31.3,28.6-33,2.4-.6,17.7,5.5,35.8,14.3-.7.4-1.4.9-2.2,1.4-18.1,12.2-22,28.8-22.9,34.9-11.7-.2-23.7,3.5-35.4,11.9-2.7,1.9-5.2,4-7.6,6.2-.3.2-.5.3-.8.5ZM212.5,141.5c8.1-4.5,16.8-9.9,26.1-21.4,1.9,2.9,3.6,5.5,5,7.8.5.8,1.3.9,2,.6,2.2,3,4.4,5.9,6.4,8.9,0,0-.1.1-.2.2.2,0,.4.2.5.3.2.3.3.5.5.8,4.4,6.6,9.7,11.6,15.4,15.3.5.4,1.1.7,1.6,1.1,11.7,7.5,25.3,10.7,33.5,12-2.5,1-5.6,2.4-9.2,4.2-4,2-9.2,4.8-14.3,8.1-3.3,2.1-5.2,3.4-6.3,4.4-.3,0-1.1.2-2.2.4-7.3.2-13.4,1.3-18.6,2.1-6.7.2-13.3-.5-17-3.3-.1,0-.3-.2-.4-.4-1.3-1.5-2.4-3.5-3.5-6.2-2.6-6.6-5.7-12.8-9.1-18.6-1.9-3.7-4.4-7.3-7.1-10.8-.1-.2-.3-.4-.4-.6-.9-1.6-1.8-3.1-2.7-4.7ZM334.3,232.1c-4.2-2.9-11.4-7-19.9-8.3-12.4-1.9-22.4,2.6-34.3,7.3-4.1-6.6-10.5-8.9-17.8-10.4-9.4-5.4-11.8-4.8-16.2-3.9-.8.2-1.4.3-2.1.3-.7-.2-1.5-.4-2.2-.7,3.6-1.8,8.9-4.8,16.5-8.3,60.6-27.9,72.4,4.2,75.9,24ZM236.8,218.5c-.2.1-.3.3-.5.4,1.1,1,.7,1.3,1.8,2.4.2.2.6,0,.9,0,2.4.2,4.2.1,5.7,0,5.6,1.5,11,2.1,15.8,3,6.4,3.5,13.9,8.4,17.3,10.6,1.5,3.2,2.5,7.4,2.8,13,0,.3,0,.7,0,1-.3,0-.5,0-.8-.2.1,1.5-.3,1.5-.2,3,0,0,0,0,0,0-.3.2-.7.3-1.2.9,0,0,0,0-.2,1.1-.4,2.9-.6,7.2-.7,8.1,0,1.4-.2,2.5-.4,3.6-8.3,17.1-30.6,24-51.1,24.4-.2-.1-.4-.3-.7-.5-.2,0-.4,0-.6,0-9,1.2-29.4-3.4-42.7-10.4-.6-.3-1.5-.8-2.6-1.4-14.7-10.5-18.5-27.5,4.7-50,14.9-14.4,45.4,13.5,45.6,28.6.2,13.1-24.4,6.8-24.7,6.9-.9.3-1.6,1.3-2.5,1.6,1,1.1.6,1.4,1.6,2.5.2.2.5,0,.7.1,4.9.9,15.9,2.8,22.9-.8,23-12-24.4-63.3-46.5-41.9-3.9,3.8-10.8,10.9-14.7,19.5-1.6,3.6-2.6,7-2.9,10.2-3.2-9.7-6.2-16-8.9-23.1-5.4-14.2-4.2-21.1-2.7-30.4.2-1.1-.7-1.9-1.6-1.8,18.3-24.2,46.1-33,64.1-3.7,2.7,4.4,7.3,15.7,19.8,22.1.7.4,1.4.7,2.2,1ZM220.9,338c-2.3.1-4.4.2-6.5.2-2.7,0-5.5-.3-8.2-.7,1.6-.4,3.1-.7,4.6-1.2,23.1-6.2,41-17.2,51.9-38.4,5.3-10.3,6-14.9,10.3-18.9,5.9-5.5,7.6-9.4,8.3-13.6,1.3-3,2.1-5.9,2.5-8.8,1.2,1.5,2.5,3.2,3.7,5.1,20.2,30.7,2.1,46.7-3.6,51.4-22.4,18.5-45.9,23.8-63.2,24.8ZM108.1,175.2c7.5,39.4,18.2,55,22.4,60.3-.2.9-.4,1.9-.5,2.9-5.4,19.7-5.7,33.8,3.6,51.6.2.4.4.8.6,1.2-12.5-8.8-28.1-25.4-49-78.6-4.5-11.4,4.7-41.6,21.3-65.2-1.1,5-1.2,12.9,1.7,27.8ZM217.3,293.4c-33.8,10.9-74.6-17.1-84.1-25.8-.2-1-.3-1.9-.5-2.9-1-8.4-.7-16.8.6-24.9.3-1.7.6-3.4,1-5.1.8-3.5,1.8-6.9,2.9-10.2,2.5-5.2,6-10.6,11-17.6-1.1,9.6.2,16.6,4.3,27.3,6,15.7,6.6,15.5,11,31.6,1.4,5.2,6.1,9.9,12.4,13.9,10,7.7,24.8,12.4,40.5,13.6.3,0,.6,0,.8,0ZM211.6,146.7s0,0,0,.1c3.1,4,5.7,7.9,7.9,11.6,1.1,2.1,1.8,3.8,2.3,5.1-.6,0-1.2-.2-1.8-.3-4.1-.5-9.5-.8-14.3,1.1-5.5,2.1-8.3,6.2-9.7,8.6-7.5-1.1-15.2-1.8-23.1,1.3-6.2,2.5-11.4,7.1-20.5,14.9,1.9-8.5,5.7-22.9,12.6-36.4,9.5-18.6,19.6-25.6,23.2-27.9.4.2.7.5,1.1.7,10.2,7.9,17.3,15.1,22.2,21.1ZM134.1,272.5c3.6,2.9,8.8,6.5,13.8,9.6,42.3,26,68.4,15.9,72.2,14.7,2.1-.7,4.6-1.8,4.6-1.8.2-.4.4-.9.5-1.4,13.6-.1,27.2-3,38-8.9.8-.4,1.5-.9,2.2-1.3-2.8,5.7-5.5,13.4-10.8,21.2-14.1,20.6-37.8,27.5-52.3,30.6-6.5-1.1-13.4-2.7-18.1-3.8-5.4-2.4-10.8-5.4-16-9.2-7.8-5.6-27.8-21.3-34.2-49.7ZM141.2,362c-1.2-1.3-3-3-5.7-5.4-5.1-4.6-9.2-8-12.4-10.6-1.9-2.1-3.7-4.2-5.5-6.4-1.1-1.4-2.2-2.8-3.3-4.3-1.1-1.5-2.2-3-3.2-4.6-.7-1.7-1.7-3.8-3.5-6.7,11.7,4.9,21.2,8.8,31.9,10.5,13.6,2.3,29.1.4,38.4-.7,1.6.3,4.3.9,7.7,1.7,2.7,1.1,5.5,2,8.2,2.8,0,.5.4.9.8,1.1.2,0,4.8,1.1,12.5,1.5,1.4.2,2.9.3,4.3.4-9.6,11-37.1,33.9-61.6,26.1-3-1.7-5.9-3.6-8.7-5.6ZM372,313.1c.6-4.2.9-9.2-.2-14.1-1.3-6-4.4-11.4-8.2-22.2-1.8-5.1-4.6-18.1-24.5-33.2-.1-5.4-.2-8.1-.9-12.9-.2-2.8-.7-5.6-1.4-8.3-.3-1.7-.5-3-.6-4,2.2.9,4.7,2,6.4,2.7,2.4,1,56.7,23.6,60.4,37.7-2.1,15.7-10.1,31.3-22.9,46-3.1,3.4-6,6.2-8.2,8.3ZM236.8,214.1c0,.1,0,.2,0,.3-2.5-1.2-4.9-2.8-7.2-4.8-8.9-7.8-9.1-14.4-17.2-23.7-4.3-5-9-8.4-13.8-10.4,1.5-2.6,4.8-9.6,16.7-9.3,2.9,0,4.9.4,6.4.6,2.3,4.8,4.5,9.2,6.6,12.6,1.8,2.9,3.6,5.9,7.7,8,2.9,1.9,6.2,2.5,9.9,2.5,3.9.4,8.8.3,15-.3,5-.5,9.7-1.2,12-1.6.6.3,1.1.4,1.2.3.3-.4.6-.7.9-1.1.1,0,.2,0,.3,0,0,0,.1.1.2.2,0,0,.1-.1.2-.2,1.6,0,3.1.2,4.8.4,8.3,1,18.9,3.2,28.5,7.8-28-7-66.4,16.9-72.3,18.7ZM184.3,123.8c-27.3,19.5-36.5,67.1-37.2,70.5,0,.9-.2.9.4,1.7,0,0,.3.4.7.6-7.3,9.6-13.2,21.5-16.6,34.4-4.3-6-12.5-20.1-19.3-51.5-7.5-34.8-.5-34.7,1.7-41.9.3-.8-.1-1.4-.6-1.8,1.2-1.2,2.3-2.4,3.5-3.5,3.1-2.1,7.9-5.4,12.8-8.2,16.8-9.5,28.5-7.3,30-7.8.6-.2.9-.6,1-1,7.1.5,14.3,2.5,21.5,6.2,1.1.5,2.1,1.1,3.1,1.7-.3.2-.7.5-1.1.7ZM45.5,141.2c.1,12.4,1,30.9,10.1,47.3,13.5,24.4,20.6,31.3,23.4,33.7-.1,2.9-.1,5.8-.1,8.7-.7,14.2.2,17.6,2.7,35.2-7.1-3-14.2-6.5-21.2-14.5-2.5-2.9-11-12.7-22.2-42.4-1.4-19.1-.2-36.5,2.9-52.1,1.5-5.9,3-11.4,4.5-15.9ZM81.9,230.9c.4-8.5.9-8.7.5-9.6,0-.1-.2-.3-.3-.4,0-2.1.2-4.2.4-6.3,25.6,66.6,43.6,76.9,57.9,85.7l.8-1.4c5.8,9.2,13.8,18,24.4,25.7,3,2.2,6.1,4.2,9.2,5.9-34.9,4.4-43.5-.1-70.6-11.1,0,0-.2,0-.3,0-14.6-26.4-22-57.9-22.2-88.4ZM216.8,341.6c29.9.2,59.6-14.2,82.2-34.4-.7,1.3-1.5,2.6-2.3,4.1-17,31.4-64.3,64.4-67.9,67.1-.4.3-.5.6-.6,1-2.9.5-5.6.9-8,1.3-23.2,2.7-43.4-.6-60.8-8.3,25.1.8,50.5-21.8,57.4-30.7ZM403.6,253.2c-12.3-16.7-61.8-36.6-69.4-40.4,0,0-.1-.1-.2-.1-.2,0-.5.1-.7.2-2.9-5.4-7.1-10.3-12.8-14.6-12.1-9.1-29.6-12.9-40.8-14,1.1-.7,2.4-1.6,4.2-2.8,15.4-9.8,27.2-13.7,27.6-13.9.3,0,.5-.2.6-.4,11.6,1.8,22.7,3.5,31.4,8,.2.1.4.2.6.3,0,.1,0,.2.1.3.1.2.3.4.4.6.4.3.6.6,1.4.8,1.4.5,3.1,1.2,4.9,2,25.8,14.8,36.4,29,39.1,32.6,10,13.2,14.2,27.2,13.6,41.3ZM362.9,181c-.8-.5-3.9-2.3-7.9-4.3,1.7-.2,3.5-.4,5.3-.5,36.8-3.2,45.7,9.5,50.7,17,2.3,3.5,4.3,7.1,6,10.5.2.8.2,1.3.3,1.4.1.6.2.5.7,1.2h0c.2.1.4.3.5.5,6.6,14.6,8.2,27.7,8.7,35.1-5.3-5.5-16.6-16.6-28.1-25-12.8-23-35.9-35.8-36.2-36ZM243.7,119.9c0,.3,0,.6,0,.9-1.5-1.8-2.9-3.6-4.5-5.4-.3-.3-.6-.7-.9-1-4-5.3-8.9-10.9-14.6-15.6-.3-.3-.6-.5-.9-.7-3.7-3.6-7.6-7-11.7-10.3,0-.1,0-.2,0-.3-.8-10.6-2.7-15.2-3.3-25.8-.5-7.5.2-14.1,1.9-20,13.4,14.6,23.9,32.7,36.3,48.6-1.3,7.1-1.6,15.9-2.2,29.6ZM208.5,89.8c1.1,3.7,4.2,5.1,7.9,7.5,1.1.7,2.1,1.4,3.1,2.1,6.1,5.8,11.9,11.9,17.3,18.1h0c-2.4,3-8,9.4-15.4,14.7-6.6,4.7-10.2,6.2-11.8,7.1-5.8-6.6-12.1-12.2-18.8-16.6-1.4-1.1-1.7-1.3-2-1.3-8.6-5.3-17.9-8.5-27.4-9.3,3.6-21.7,21.9-32.6,27.7-34.9l-.4-1.4h.2c6.8,4,13.3,8.8,19.6,13.9ZM40.1,224.1c-.3-.7-.5-1.5-.7-2.3,0-.1,0-.3,0-.4,14.3,33.2,25.5,41.4,43.5,48.4,0,0,.1,0,.2,0,4.5,22,12.8,43.2,24.8,61.3-10.5-6.5-28.5-17.8-41.1-29.5-5.4-5.1-8.6-9-10.4-12.2-.8-2.5-1.7-5.1-2.5-7.7,0-.7.2-1.1,0-1.2-.2-.4-.5-.8-.9-1.2-1.2-3.7-2.3-7.5-3.4-11.5-.5-2.1-1.1-4.2-1.6-6.4-.3-1.1-.3-1.6-.7-2-.7-2.5-1.4-5.1-2-7.7-2.3-8.9-4-17.4-5.2-25.7.7-.8,0-2.1,0-2.1ZM142.8,367.8c.3.2.6.4,1,.6,1.9,1,3.8,1.7,5.8,2.3,11.1,6.2,23.5,10.5,37.3,12.5-10.2,7.4-10.2,9.1-25,13.9-27.7,9.1-48.1-2.9-48.4-2.9-.2,0-.4,0-.6,0-11.6-12.7-23-28.9-33.6-49.4,28.8,25.9,53.4,24.2,63.5,22.8ZM489.4,161.6c-19.1-8.4-43.3-11.9-74.6-3.2-1.9.5-12.3,3.4-22.7,8-17.4-13.7-38.3-21.7-58.5-26.4,2.1-2,4.8-4.6,8.1-7.6,12.2-10.8,23.2-18.5,32.7-24,55.8-3.3,95,18.4,115,53.1ZM330,139.3c-12.9-2.8-25.4-4.2-36.4-4.9,4.8-4.7,9.1-8.9,12.8-12.6,3.8-.6,7.4-1.5,10.7-2.6,17.7-5.4,34.2-8.7,49.6-10.2-16.5,10.8-29.9,23.4-36.8,30.2ZM207,38.9c-5.5,17.8-.4,34.2.9,46.3-28-22-61.6-36.2-93.7-26.9-1.8.5-3.5,1.1-5.3,1.8.2-.7.3-1.4.4-1.9,1.8-8.6-.2-9.6,9.5-26.9,7.8-14,13.6-20.3,17.3-23.2,19.6.8,38.3,7.1,53.8,16.8,6.3,3.9,11.9,8.8,17.1,14.1ZM110.9,38.6c-5.1,10.7-3,11.9-5.8,23-3.2,1.4-6.5,3.1-9.7,5.1-6.8,3.6-11.9,7.8-16.4,12.4-3.4,3.2-6.7,6.6-9.9,10.4-1.6-7.8-4-24.5-.2-44,1.4-7.3,3.5-13.8,5.7-19.3,17.6-12.4,36.8-17.9,55.5-18.2-8.4,8.8-16.4,24.6-19.2,30.6ZM63.9,70.6c0,1.8.4,11.9,2.7,21.8-7.6,9.5-14.4,20.8-19.7,33.8,0,0,0,0,0,0-.8,1.3-.9,1.2-1.7,2.5,0,0,0,.2,0,.3,0,.2,0,.4,0,.7-1.2,2.6-3.8,10.1-6.4,19.7-6.9-8.2-7.5-10.6-11-28.5-1.6-8.5-2-18.3-1.7-28.2,11.4-29,26.6-49.4,43.6-62.9-4,11.7-6.5,25.4-5.9,40.9ZM58.8,308.3c3.1,9.1,7.4,20.9,12.2,28,7.2,15.4,14.9,28.5,22.8,39.9-11.9-3.3-35.1-16.4-55.7-31-10.8-22.5-19.8-47.8-25.5-75.5,15.9,17.6,38.4,34.9,46.2,38.5ZM57.1,361.9c24.2,14.4,35.2,17.3,38,17.9,2,4,8.8,16.3,26.4,30.8,6.1,5,11.1,8.2,14.9,10.3,0,0,.2,0,.2.1,0,0-.2,0-.3,0-6.9-1.1-17.8-3.6-35-9.4-9.9-3.3-20.3-7.3-30.2-11.2-10.4-14.1-20.6-30.3-29.8-48.4,5.2,3.5,10.5,6.8,15.7,9.9ZM134.5,423.6c1.6.3,3,.5,4.3.6,1.9.2,3.4.3,4.5.4.1,0,.2.2.4.2,11.5,7.1,22.9,11.8,33.8,14.9,1.4.4,2.8.8,4.2,1.2,1.4.4,2.8.7,4.2,1,1.3.3,2.5.6,3.8.8-1.6,2.4-5,7.6-8.8,12.6-1.2,1.6-2.4,3.1-3.6,4.5-1.6,1.9-3.4,3.8-5.3,5.6-2.2,2.1-4.6,4.2-7.1,6.2-.2.2-.4.3-.6.5-16.9-3.3-26.5-8.7-29.8-10.4h0c-.4-.2-.9-.5-1.3-.7-1.7-1-3.5-2.1-5.5-3.4-1-.7-2.1-1.4-3.2-2.2-1-.7-2.1-1.5-3.2-2.3-13.2-10.1-29.8-26.2-46.3-47.7,31,11.9,49.2,16.5,59.4,18.2ZM169.2,473.1c2.3-1.9,4.5-3.8,6.5-5.8,4.5-4.4,8.4-9.2,12.6-15.1.3-.5,3.5-5,4.7-6.7,9.6,1.7,37.3,2,47.3,2-4.4,6.2-6.1,8.1-13.4,15.5-4.1,4.1-7.5,7.6-10.5,10.7-17.4,1.9-31.8,1.5-43.4,0-1.3-.2-2.5-.3-3.7-.5ZM386.1,405.7c9.4-14.6,16.7-32.4,20.1-56.2.2-1.7,1.6-11.4,1.9-21,15.1-22.1,25.4-45,25.6-65.6.2-18.8-2.5-34.8-7.4-48.6,10.8,10.9,26.4,29.6,34.7,56.4,7.8,25.2,6.2,48.4,3,64.7-19.8,25.4-47.2,49.6-77.9,70.4ZM484.1,304c-4.3,8.6-9.6,17.2-15.8,25.7,2.5-16.1,3-37.3-3.9-60.1-10.1-33.5-31.4-55-42-64.8-.6-1.2-1.1-2.4-1.7-3.5-.9-3.4-3-9.2-7.7-15.7-5.7-7.9-12.3-13.4-16.5-16.6,12.7-5.3,43-16.6,74-9.8,8,1.8,15.1,4.4,21.6,7.6,18.6,37,16.9,87-8.1,137.1Z" fill="#714e67"/></g></svg>