<?xml version="1.0" encoding="UTF-8"?><svg id="b" xmlns="http://www.w3.org/2000/svg" viewBox="0 0 720 491.9"><g id="c"><path d="M648,284.6c0-.1,0-4.3-3.5-7.8-2-2-4.6-3.3-7.5-3.7-1.4-.2-2.1-.1-6.1.2l-17.5-204.6c0-.9-.8-16-14.3-26.9-7.8-6.3-17.9-9.4-28.3-8.3l-393.1,41.1c5.3-10.9,9.8-22.7,11.3-30.6,4.7-24.9-20.7-48.9-39.2-43.5-13.2,3.9-16.6,19.8-17.5,29.4-6.1-7.4-17.2-19.3-29.7-22.7-24.9-6.8-38.3,22.2-27.4,49.2,4.6,11.4,12.5,20,21.9,26.5l-61.8,6.5C14.6,91.8-.9,110,0,130.6c0,.8,9.9,116.1,18,209.6-1.5.2-3.1.4-4.8.6-5.9.8-10.2,5.6-10.5,11.3-.1,1.9,0,1.9,1,9.2,2.8,22.6,6.7,63.9,8.4,79.1.7,6.3,6.1,11.3,12.6,11.2.3,0,1.4-.1,2.9-.3.2,2.4.4,4.1.5,5.2,1.9,21.7,21,37.4,42.6,35.2l307.1-32.1c6.6,10.8,16.9,19.2,22.8,23.8,1.3,1,1.3,1.3,2.9,1.1.5,0,.9-.4,1.3-.7,6.5-1.3,24.3-13.8,30.7-21.5,2.2-2.7,3.6-5.9,4.2-9.2l166.6-17.4c20.8-2.2,36.8-20.7,35-42.4l-.7-8.6c1.1,0,1.8-.2,2.1-.2,6.4-.5,11.5-6,11.4-12.5,0-.9-2.1-24.1-2.6-30.6-1.3-15.5-3-49.8-3.3-56.7Z" fill="#714e67"/><path d="M706,115.8c-9.4-2.7-17.4,5.4-21.9,11.6-1.3-7.7-4.3-18.7-11.4-24.5-13.6-11.3-31.8,3.9-34.3,24.9-3.1,25.7,16.7,45.2,33.4,58.5,1.2.9,1.2,1.2,2.7,1,.7,0,1.2-.6,1.7-1,7.8-1.8,30.2-18.5,37.9-28.4,11.2-14.4,5.2-38.3-8.1-42.1Z" fill="#714e67"/><path d="M532.3,363.4c-.5-.2-.5,0-15.4,1.7-9.1,1-165.8,17.6-229.7,23.7-80.4,7.6-138.5,12.7-139,12.9-2.3,1-5.9,12.4-6.3,13.5-6.2,19.3-12.9,52.1-17,65.2l250.1-25.5c-3.2-6.8-4.8-14.4-3.1-22.6,3.4-15.9,18.1-24.9,28.9-14.8,5.1,4.8,7.7,12.7,9,18.4,3.9-4.9,10.5-10.8,18.5-7.7,6.7,2.5,11.5,11.3,11.6,20.2l137.7-14c-4.8-8.8-36.6-67.4-45.4-70.9ZM182,449.6c-8,1.6-12,2.4-13.1,2.4-4.6,0-8.1-3.5-8.5-7.6,0-.2-1.5-15.8-1.4-16.7.1-4,3-7.3,7-8,5.5-.9,11.6-2.2,12.6-2.3,3.6-.2,7.9,2,8.8,7.1.9,11.5.8,11.5,1.2,15.9.4,4.2-2.5,8.3-6.7,9.1ZM224.5,465.5c-8,1.6-12,2.4-13.1,2.4-4.6,0-8.1-3.5-8.5-7.6,0-.2-1.5-15.8-1.4-16.7.1-4,3-7.3,7-8,5.5-.9,11.6-2.2,12.6-2.3,3.6-.2,7.9,2,8.8,7.1.9,11.5.8,11.5,1.2,15.9.4,4.2-2.5,8.3-6.7,9.1ZM494.3,433.9c-8,1.6-12,2.4-13.1,2.4-4.6,0-8.1-3.5-8.5-7.6,0-.2-1.5-15.8-1.4-16.7.1-4,3-7.3,7-8,5.5-.9,11.6-2.2,12.6-2.3,3.6-.2,7.9,2,8.8,7.1.9,11.5.8,11.5,1.2,15.9.4,4.2-2.5,8.3-6.7,9.1ZM528,408.7c-8,1.6-12,2.4-13.1,2.4-4.6,0-8.1-3.5-8.5-7.6,0-.2-1.5-15.8-1.4-16.7.1-4,3-7.3,7-8,5.5-.9,11.6-2.2,12.6-2.3,3.6-.2,7.9,2,8.8,7.1.9,11.5.8,11.5,1.2,15.9.4,4.2-2.5,8.3-6.7,9.1Z" fill="#f8fcb9" stroke="#936ba0" stroke-miterlimit="10" stroke-width="3"/><path d="M99.5,371.3c4.9,4.9,9.7,9,14.1,12.4-5.7.6-11.5,1.2-17.2,1.8-11,1.2-20.7-6.7-22.1-17.4,0-.2-1-10.7-2.5-27l11.8-1.2c-.5,2.9-.4,6.1.4,9.3.5,1.8,1.7,8.6,15.4,22.1ZM123.4,337.5c0-.5.2-1,.3-1.5l-1.7.2c.5.5,1,.9,1.4,1.3ZM587.8,314.2l-2.1-23.1c-46,4.4-189.1,18.1-258.8,24.8l-168.9,16.6c3,4,4.6,8.8,3.9,13.9-.8,5.4-4.9,20.5-9.3,33.2,162.8-16.8,322.7-32.3,416.1-42.2,11.6-1.2,20.2-11.6,19.1-23.3Z" fill="#f5cbe1"/><path d="M648.7,371.4c.2,3.4-2.1,6.5-5.4,7.2-.4,0-1.4.2-3.4.3l-8.6-100.2c1.8,0,3.1-.2,3.5-.2,3.3-.2,6.7,2.1,7.2,6.2,0,.1,0,.2,0,.3h0c3.5,39.1,3.6,39.1,4.5,50.2.6,8.1,2.1,35,2.2,36.1ZM12.8,345.7c-3.6.8-6.1,4.2-5.7,8,3.1,29.8,6.6,54.1,10.6,85.9.5,4,4.3,6.3,7.4,6,.7,0,1.3-.2,2-.2-1.6-18.8-4.9-56.9-8.6-100.3-3,.3-5.4.6-5.6.6ZM181.5,425.4h0c0-.1,0-.3,0-.4-.3-1.7-1.9-2.6-3.2-2.4-1,.1-11.5,1.2-12.3,1.5-1.6.5-2.8,2.4-2.5,4.1.2,1.3,2.6,15.6,2.7,15.8.4,1.6,1.9,2.4,3.3,2.3,9.1-1.1,11.9-1.2,12.5-1.4,1.4-.5,2.7-2,2.4-3.9-.4-2.8-.5-2.8-2.8-15.5ZM527.5,384.4h0c0-.1,0-.3,0-.4-.3-1.7-1.9-2.6-3.2-2.4-1,.1-11.5,1.2-12.3,1.5-1.6.5-2.8,2.4-2.5,4.1.2,1.3,2.6,15.6,2.7,15.8.4,1.6,1.9,2.4,3.3,2.3,9.1-1.1,11.9-1.2,12.5-1.4,1.4-.5,2.7-2,2.4-3.9-.4-2.8-.5-2.8-2.8-15.5ZM493.9,409.6h0c0-.1,0-.3,0-.4-.3-1.7-1.9-2.6-3.2-2.4-1,.1-11.5,1.2-12.3,1.5-1.6.5-2.8,2.4-2.5,4.1.2,1.3,2.6,15.6,2.7,15.8.4,1.6,1.9,2.4,3.3,2.3,9.1-1.1,11.9-1.2,12.5-1.4,1.4-.5,2.7-2,2.4-3.9-.4-2.8-.5-2.8-2.8-15.5ZM224,441.2h0c0-.1,0-.3,0-.4-.3-1.7-1.9-2.6-3.2-2.4-1,.1-11.5,1.2-12.3,1.5-1.6.5-2.8,2.4-2.5,4.1.2,1.3,2.6,15.6,2.7,15.8.4,1.6,1.9,2.4,3.3,2.3,9.1-1.1,11.9-1.2,12.5-1.4,1.4-.5,2.7-2,2.4-3.9-.4-2.8-.5-2.8-2.8-15.5Z" fill="#fb96b8"/><path d="M636.8,393.7c-.2-2.8-.4-5.1-.8-8.7,0-.9-.2-1.8-.3-2.9,0-.9-.2-1.8-.3-2.9-1.1-12.4-3.3-37.1-9-100.2,0-.8-.2-1.7-.2-2.5,0-.8-.2-1.7-.2-2.6-4.1-45.8-10-110.9-18.5-204.5,0,0,0,0,0,0,0-.4-.7-15.2-14.3-24.5-6.1-4.2-13.8-6.3-21.9-5.5l-396,40.3c-5.2,10.1-10.7,18.7-14.4,21.6,0,0,0,0,0,0-.4.6-.6,1.5-1.1,1.9-1.3,1-1.4.7-3.1.4-15.8-2.5-36.6-6.8-53.8-16.7l-11,1.1c-4.6.5-56.7,5.9-58.1,6.1-17.9,2.8-31,19.2-29.3,37.5l18.6,207.8.2,2.5.2,2.5,9,100.2.3,2.9.3,2.9.5,5.4c1.6,18.4,17.8,31.9,36.3,29.9l51.8-5.3c.5-1.5,1.3-3.8,2.3-7.5,6.6-23.8,15.9-68.5,22.7-73.3,0,0,.6-.5,1.4-.5,57.1-5,90.9-9,201.5-19.6,28.8-2.8,158.9-15.2,181.9-18.7,3.1-.5,10.2,3.6,44,63.5,2.3,4,4,7.2,5.3,9.4l24.8-2.5c18.6-1.9,32.8-18.5,31.1-37.7ZM26.9,111.2c1.5-.4,2.9-.5,3.1-.5,10.6.9,14.4,11,13.3,17.4-1.6,8.9-10.9,13.7-18.9,9.6-11.1-5.7-9.5-22.9,2.5-26.5ZM70.8,461.3c-1.4,8.4-10.7,13.5-19.2,9.7-9.6-4.3-10.5-16.3-3.5-22.6,1.1-1,2.5-1.9,4.1-2.5.3-.1.7-.3,1-.4,1.9-.6,3.6-.7,3.9-.7,10.7.9,14.8,10.3,13.7,16.5ZM569.5,341.8l-366.5,38.6c-4.1.4-28.2,3-52.6,5.5-2.3,6-4.5,10.8-6.2,12.6-2,2.1-3.7,1.2-3.8,1.2-1-.4-8.7-3.3-19.6-10.7-14,1.4-24.4,2.5-25.4,2.5-15.2.5-25.6-11.3-26.7-23.3-1.4-16.6-17.8-208.2-17.8-209.2-.4-15,11.3-25.6,23-26.7,165.3-16.7,194.5-19.7,472.5-49.4,7-.7,13.8,1.4,19.1,5.7,8.8,7.2,9.3,17,9.3,17.7,1.4,16.7,17.6,208.3,17.6,208.9.4,14.9-11.2,25.5-23,26.7ZM600.8,67.4c-1.7,8.4-10.8,12.7-18.2,8.4-9.9-5.8-8-21.5,3.2-24.6,1.2-.3,2.4-.4,2.6-.4,10,.9,13.5,10.6,12.3,16.6ZM628.2,412.6c-1.7,8.3-10.6,12.6-18.2,8.5-10.4-5.6-8.6-21.6,3-24.7,1.3-.3,2.5-.4,2.7-.4,10.2.9,13.8,10.5,12.6,16.6ZM505.6,244c0-.4-.6-15.8-14.8-25.2-6.1-4-13.5-6-21.3-5.3-111.5,10-164,15-216.9,20.2-8.4.8-102.9,10.2-104.6,10.5-22.5,3.4-35.5,27.8-26,48.1,5.5,11.7,18.1,20.3,33.1,18.9,117.1-11,176.1-15.7,254-23.5,5.4-.5,65.8-6.6,67.4-6.8,8.7-1.3,16.2-5.9,21.4-12.4,9.1-11.2,7.6-23.3,7.5-24.4,0,0,0,0,0,0ZM173.1,298c-12.5,8.6-31.4,4.8-39.1-9.9-7.9-15.1,0-34,16.8-38.8,3.4-1,6.3-1,6.9-1,.1,0,11.4-.2,19.8,9.1,10.8,11.9,9.8,30.9-4.3,40.7ZM420.1,282.1c-18.7,1.7-18.7,1.7-37.3,3.4-38.6,3.6-121.7,13.2-180.1,18.5-1.4.1-2.7-.8-3-2.2,0-.4-4-50-3.9-50.4.1-1.1,1.1-2.1,2.3-2.3,34.3-3.2,34.3-3.1,68.5-6.4,58.6-5.6,148.2-15.7,149.3-15.6.1,0,1,0,1.7.7.9.8.7.9,1.1,2l3.7,49.6c0,1.5-1,2.5-2.2,2.6ZM482.5,268.4c-12.5,8.6-31.4,4.8-39.1-9.9-7.9-15.1,0-34,16.8-38.8,3.4-1,6.3-1,6.9-1,.1,0,11.4-.2,19.8,9.1,10.8,11.9,9.8,30.9-4.3,40.7Z" fill="#ffc9a2"/><path d="M417.2,277.5c-30.8,3.3-36.3,4-58.2,6.1-9.9-12.5-14.6-28.7-10.6-44.4,27.7-2.5,52.7-4.7,64.6-5.8l4.2,44.1ZM201,253.9l4.1,44.2c8.9-.9,17.8-1.8,26.7-2.7,5-14.1,4-30-6-44l-24.7,2.6Z" fill="gray"/><path d="M201.9,193.2c5.6-.5,12-1.1,18.5-1.7-.7,2.2-1.7,3.9-2.6,5-2.3,2.8-3.5,2-3.8,1.9,0,0-.2,0-.2,0,.2,0-.1,0-.6,0-.6-.3-1.4-.4-2.1-.3-4,.9-7.6-2.8-9.3-4.9ZM496.8,179s-.1,0-.2-.1c0,0,0,.2,0,.3h.1ZM402.8,139c-4,.4-8.1.8-12.2,1.3,2.6,3,4.7,6.4,6.4,9.4,1.7-3.5,3.7-7.3,5.9-10.7ZM284.2,172.4c.2-7.3,4.1-15.7,9.2-21.4-5.3.6-10.6,1.1-15.8,1.6.7,2.3,0,2.5-1.2,4.9-2,3.9-5.9,13-7.4,18.3-.5,1.7-.9,3.5-1.3,5.4,5.8-.6,11.7-1.2,17.5-1.8-.7-2.1-1.1-4.4-1-7.1ZM252.4,174.1c2.1,3.5,3.6,6.2,4.8,8.3.7,0,1.4-.1,2-.2.3-.9.7-1.8,1.1-2.9,2.5-6.7,3.4-11.1,5.6-20.9,0-.4.7-2.8,1.2-4.7-5.1.5-10.1,1-15,1.4-2,.2-5.5.5-10,.9.2.1.3.2.5.4,3.9,3.2,6.8,12.7,9.7,17.7ZM568.9,106.7l16.5,181.5-108.1,10.7-321.2,31.3c-5.6-5.8-14.1-9.1-20.8-7.5-6.2,1.5-9.3,6.1-10.9,10.6l-5.1.5c-3.2-2.6-7.1-5.2-11.3-6.7-12.1-4.4-20.9,1.4-23.7,10.1l-12.7,1.2c-4.9-54.4-15-166.2-16.1-178.7-1-11.6,7.5-22,19.1-23.2,184.6-19.5,285.8-29.6,472.3-48.2,5.1-.5,9.9.9,13.7,3.6,7.9,5.6,8.3,14.3,8.3,14.6,0,0,0,0,0,0ZM100.1,201.2c.4.7.5,1.5,1.1,2,.6.5,1.4.4,2.1.7,0,0,18.6-2.2,39.4-4.5.6,8.7,1.4,10,2.3,11,.2.2,1.3,1.5,3.1,1.5,1,0,1.8-.2,2.4-.6,2.4,0,6.5.2,8.7.3,9.1.6,20.1,2.4,27.6.5,3.1-.8,4-2.9,4.2-3.3,0,0,0-3.9,0-4-3.1-3.1-3.4-4.4-7.3-2.5-2,1-5.9,1.7-7.6,1.9-11.5,1.3-19.3-.2-24-.8,0-1.7,0-3.4.2-5.2,13.2-1.5,26.4-2.9,35.3-3.8,1.3-.1,3.4-.3,6-.6,2.2,4.6,7.8,14.1,17.7,14.4.1,0,.2,0,.3,0,.2,0,.5,0,.8.2,5.3.9,12.6-2.4,15.5-13.6.3-1.2.6-2.6.8-4.2,8.5-.8,16.4-1.5,21.5-2,.2.6.5,1.3.8,2.2,2.2,5.7,4.1,9.3,4.1,9.4,2.1,3.3,7.1,2.9,8.8-.6.5-1.2,1.5-6.4,2.7-12.5,7.2-.7,14.5-1.5,22-2.2,7.1,8.3,20.9,9.7,25,10.2.7,0,5.2.6,8.6.5,2.7,0,4-1.5,4.2-1.7.9-1,.9-2.5,1.3-3.7,0,0-1.7-3.5-1.7-3.6-1-.9-2.5-.9-3.7-1.3-.2,0-3.5.5-7.8.6-1.3,0-9.7.4-15.7-2.1,25.3-2.7,51.5-5.7,75.9-8.4.6,2.9,1.3,6.2,2.2,10l9.9-2.7c-1-2.9-1.9-5.7-2.7-8.3,11-1.2,21.5-2.3,31.3-3.3-.9,5.1-1.7,9.1-1.9,10.3-.5,2.9.6,4.4.9,4.7.8,1,2.2,1.3,3.4,2,0,0,3.8-1,3.8-1,1-.8,1.3-2.2,2-3.4.2-.3.8-8.5,1.1-13.6,5.3-.5,11.7-1.1,18.6-1.7.1.5.2,1,.3,1.4.3,2.3-1.7,6.4-1.6,6.6.5,1.2.6,2.7,1.5,3.6,1.5,1.5,1.6,1.5,3.6,1.5,2.1,0,2.2,0,3.6-1.5.9-.9,1-2.4,1.5-3.6,0,0-.8-2.2-1.3-4.1,0-.3-.1-.6-.2-.9-.2-1.1.2-2.4.5-3.8,6.6-.6,13.4-1.2,19.9-1.8,0,0,0,.1.1.2-.7,1-1.5,2.2-2.6,3.8-2.2,3.3-2.5,3.6-8.6,7.8-2.2,1.5-2.5,1.6-2.5,4.3,0,1.3,1,2.4,1.5,3.6,0,0,3.6,1.5,3.6,1.5,1.3,0,2.4-1,3.6-1.5,0,0,2.6-4,4.7-6.7,1.3-1.7,4.2-3.6,7.2-6.2,2.8,2.2,4.9,3.9,6.8,6.4,2.8,3.7,4.4,6.9,5.3,7.6,1.9,1.7,4.1,1.3,4.4,1.2,1.3-.3,2.2-1.4,3.3-2.2l-1.3-6.3.4-.4c0,0-.2-.1-.4-.3h0s-.2-.2-.2-.2c0,0,0,0,0,0-1.4-.9-4.6-3.1-6.8-5.1-2.1-1.9-4-4.9-5.9-7.6.3-.5.6-.9.9-1.4,13-1.2,22.6-2,22.6-2,.7-.2,1.5-.5,2-1.1.8-.9.8-1,.7-2.2-.1-1.2-.2-1.2-1.1-2-.6-.5-1.4-.4-2.2-.7,0,0-7.2.8-17.9,2,.4-.5.8-.9,1.1-1.3,3.6-3.5,7.6-5.8,8.8-6.8,1.7-1.2,1.7-3.5,1.7-3.8,0-2.1,0-2.2-1.5-3.6-1.5-1.5-1.6-1.5-3.6-1.5-.3,0-.3,0-3.6,1.5,0,0-.6.9-.7.9q-1.7,2.6-3.5,5.1c-3.1,4.3-3.6,4.3-9.5,9.5-2.4-2.2-5-3.9-6.3-5.5-.7-.8-2.3-3.7-3.4-6.2-1-2.4-1.1-2.5-3.7-3,0,0-3.8.7-3.8.8-2.6,3.9-3.9,4.7-.5,8,4.1,4,4.9,3.7,7.4,7.8.1.2.2.4.3.5-5.1.6-10.4,1.2-15.8,1.8,0-.2,0-.4,0-.6-.3-1.5-.8-3.2-1-3.9-.3-1.4-.3-1.8,1.4-5.4.9-2.1,0-2.1-1.5-3.8-.8-.9-2.2-1.1-3.4-1.7,0,0-3.7,1.3-3.7,1.3-1,.9-1.1,2.4-1.7,3.5,0,0,1.3,3.9,1.2,4.6-.2,1.7-1.2,3.8-1.5,5.2,0,.5,0,1.2,0,1.9-1.7.2-3.4.4-5.1.6-4.1.5-8.1.9-12.2,1.3,1.3-19.4.3-25.9-.8-29.2,6.2-.6,13.9-1.3,22-2,3.3,3.3,3.2,3.7,3.5,3.4,1.4-1.4,2.7-2.8,4.1-4.1,25.3-2.3,52-4.7,52.1-4.7.7-.2,1.5-.5,2-1.1.8-.9.8-1,.7-2.2-.1-1.2-.2-1.2-1.1-2-.6-.5-1.4-.4-2.2-.7,0,0-25.8,2.9-53.1,6-2.3-2.4-2.3-2.7-2.5-2.4-1,1-2,2-3.1,3.1-3.7.4-7.5.8-11.1,1.2-4.4.5-8.7.9-13.1,1.4-3.3-5.4-8.2-5.3-12.4-2.1-1.2,1-2.5,2.3-3.7,3.8-6.4.6-12.8,1.3-19.2,1.9-.1-.1-.2-.2-.3-.3-9.5-8.2-16.6-4-16.7-3.9-2.2,1.3-3,3.4-3.1,6.1-39,3.6-77.1,6.9-115.2,11.1l-66.5,7.4c-8.3.9-20.2,2-32.5,3.2.4-4.1,1.5-10.1,2.5-13.3.8-.8,1.7-1.8,1.7-1.8.1-.3.8-2.1-.2-4-1.9-3.7-5.8-4.1-8.2-2.3-2.9,2.1-3,6.6-3.2,17.5,0,1.8-.1,3.3-.2,4.5-22.5,2-43.9,3.9-44,3.9-3.6,1.4-2.8,3-2.6,3.3.4.7.5,1.5,1.1,2,.6.5,1.4.4,2.1.7,0,0,20.8-2.4,42.9-4.9-.4,2.9-.9,6.7-1.6,14-.1,1.2-.7,7.2-.4,14.8-20.9,1.9-39.6,3.5-39.7,3.5-3.6,1.4-2.8,3-2.6,3.3ZM188.5,225.3c8.8-.8,56.7-5.2,66.7-6.1,54.2-5,121.3-13.4,168.9-17.9,26.1-2.5,84.5-7.7,84.6-7.7.7-.2,1.5-.5,2-1.1.8-.9.8-1,.7-2.2-.1-1.2-.2-1.2-1.1-2-.6-.5-1.4-.4-2.2-.7,0,0-37.3,4.3-69.8,7.9-63.5,7-123.7,11.4-183.7,18l-66.5,7.4c-25.1,2.7-84.1,7.7-84.2,7.8-3.6,1.4-2.8,3-2.6,3.3.4.7.5,1.5,1.1,2,.6.5,1.4.4,2.1.7,0,0,58.9-6.9,84-9.3ZM511.5,243.6c0-.5-.6-15.9-14.2-26.9-7.8-6.3-17.9-9.4-28.2-8.4q-159.8,16.2-319.7,30.5c-17.6,1.6-31.7,14.8-35.2,31.3-5.3,24.9,14.1,48.2,39.6,47.1,3.6-.2,106.8-10.5,116.1-11.4q86.9-8.7,205.6-19.6c9.3-.8,17.9-4.9,24.4-11.5,13.8-13.8,11.6-31,11.6-31.2ZM564.8,222.9c-5.8-1.1-10.4,2.6-13.4,6.2-.3-1.4-.8-2.9-1.3-4.5-7.3-21.2-26.3-15.5-30.6,1.5-5.1,20.6,15.9,37.6,23.6,43.7,1.2,1,1.2,1.2,2.8,1,.4,0,.8-.3,1.2-.6,5.7-1.2,20.6-11.8,25.7-18.1,8-10,2.2-27.3-7.9-29.2ZM382.6,170.3c11.1-1.1,22.2-2.1,33.4-3.3,1.6-10,3.1-22.3,1.4-27.5-.2-.6-.6-1.4-.8-1.9-1,.1-2.1.2-3.1.3-3.7,4.4-7.9,14.4-10.6,22.1-1.2,3.4-1.4,4.5-2.6,5.6-1.9,1.6-5.9,2.1-7.8-1.9-.2-.5-4.9-11.3-10.5-18.3-1.4-1.7-2.6-2.9-3.7-3.7-1,.1-2.1.2-3.1.3.3,2.9,1.1,6.4,1.2,6.9,1.2,5.4,3.3,12.5,6.2,21.4ZM152.5,189.5c0,1.5-.1,2.9-.2,4.1,13-1.2,25.8-2.4,34.6-3.4l4.6-.5c-6.2-15.6-1-27.2,9.9-29.9-7.3.7-13.2,1.2-15.8,1.5-8.4.8-20.7,2.1-33.2,3.5-.1,7.6.6,15.6.2,24.7ZM296.6,171c.2.3,1.4,4.1,7.5,1.5,7.5-3.2,10.9-11.7,8.3-14.8-1.7-1.9-5.4-2.6-7.5-3-2.8.9-8.7,6.9-11.5,13.5,2.1.6,2.2.7,3.2,2.8ZM197.7,181.2c.1,3.3.9,5.8,1.6,7.7l22.2-2.5c.4-3.9-.2-8.3-2.7-12.1-2-3.1-5.5-5.7-12.3-5.1-3,.3-9.3,1.5-8.9,12ZM373.6,171.2c-3-13.8-3.3-15.5-5.3-23.2-.4-1.8-.8-3.5-1.1-5.1-16.5,1.8-33.7,3.8-50.9,5.6,7.5,5.7,7.7,15.8-1.1,25,0,0-1.4,1.6-3.6,3.4,20.5-1.9,41.1-3.8,61.9-5.7ZM147.5,145.8c-.2-.3-.3-.5-.3-.4.1.2.2.4.3.4ZM228.8,185.5l19.1-2.1c-.1-.3-.2-.6-.4-1-2.1-5.4-2.9-7.7-7.3-13.8-1.1-1.5-2.2-2.7-2.4-2.9-.6-.6-1-.9-1.2-1.1,0,0,0,0,0,0,0,0,0,0,0,0-.8-1-1.9-1.9-2.2-3.2,0,0,.6-3.9.7-3.9.4-.3.8-.6,1.1-.9-8.7.8-19.3,1.8-28.7,2.6.9,0,1.8.1,2.8.3,15.1,2.3,18.7,15.7,18.6,26ZM138.8,273.8c-1.5-.4-2.7-.6-3.6-.8-.3,2.5-.1,5,.5,7.4.1,0,.3,0,.3,0,1.1-.2,1.7-.4,2.7-.7-.2-2.2-.2-2.7.1-5.9ZM143.5,265c.5-.9,1.3-2.1,4.8-2.5,0,0,0,0,.1,0,.5-1.3-.6-3.8-1.6-6-2,1.1-4.2,2.5-6.2,4.7-.4.4-.7.9-1.1,1.3.4.3.7.5,1,.7.6.5,1.6,1,3,1.7ZM143.5,285.6c-.9.5-2.5,1.7-3.8,2.8,1,1.3,2.2,2.5,3.6,3.6.2-.3.4-.6.7-1.1.7-1.1,1.3-1.9,1.8-2.5-1-.5-1.4-1.1-2.3-2.8ZM174.8,280c0-.3.2-.3.9-3.9,0-.4.2-3,2.9-4,.5-.2.9-.2,1.3-.2-.2-1.4-.6-2.9-1.1-4.4-2.3,2-3.6,3.1-5.6.9-1.4-1.5-1.5-1.6-3.1-2.6-.3-.2-2.9-1.7-.4-5.4.2-.3.9-1.2,1.8-2.3-.3-.2-.5-.4-.8-.6-1.3-.9-2.6-1.5-3.9-2-.4,1.1-.8,2.2-1.2,3.3-1.6,4.9-3.7,4-6,2.9-1.6-.8-2-.2-3.4-.9-2.4-1.3-1-4.1-.9-6.8-1.7.1-4.1.5-6.7,1.6,1.3,4.1,3.1,7.5.7,8.7-.8.4-2.9.4-3.7,1.7-1.3,2.1-1.9,1.5-2.9.8-2.1-1.4-2.4-1.7-4.2-2.7-1.4,2.2-2.4,4.6-2.9,7.1,1.1.3,2.4.7,3.8.9.3,0,1.5,0,1.5,1.1,0,6.7.5,7.7-.5,8.1-.3.2-2.2.4-3.3.7,0,0-.3.1-.7.2.6,1.6,1.3,3.2,2.3,4.7.9-.5,2-1.2,3-2.1.3-.3,2.3-2.3,3.4-.5,1,1.6,1,1.8,2.2,2.1.2,0,1.9.2,1.8,1.5,0,.9-1.7,1.8-3.5,4.1-.3.4-.5.7-.7,1.1.5.3.9.6,1.5.9,1.7,1,3.6,1.7,5.5,2.2.3-.6.6-1,.7-1.3,1.7-3.7.4-6.1,2-6.4.6,0,7.5,1.4,8,1.7,1,.6.2,1.4.5,5.9,1.9-.5,3.7-1.1,5.4-2.1-.3-1.1-.8-2.2-1.3-3.5-.7-1.5-1.5-2.7.4-3.7,1.8-1,5.4-2.6,5.9-2.6.7,0,.6.4,2.9,2.9,1-1.4,1.8-2.9,2.4-4.5-.4-.3-.9-.6-1.4-.9-1.4-.7-2.4-1-2.3-1.8ZM173,286.5c-1.4.8-1.7,1-4.7,2.2.2.7,1.1,3.3,1.1,3.6,0,.2.2.5.3.9,2-1.2,3.7-2.8,5.2-4.6-.6-.8-1.2-1.3-2-2.1ZM160.6,259.9c1.4.9,1.8,1.3,2.7,0,.6-1,1.2-3,1.6-4.8-3.9-1.1-7-.9-7.2-.9h0c-.2,0-.4,0-.7,0-.2,1.3-.6,4.5,0,4.7,1,.5,1.7-.2,3.6,1.1ZM178.4,274.5c-.3.4-.3,1-.4,2-.2,1.2-.6,2.4-.9,3.2.5.3,1.2.8,2.1,1.4,0-.2.2-.5.2-.7.5-2,.8-4.3.7-6.7-.6,0-1.1.2-1.7.9ZM173.4,265.7c1.6,1.9,1.5,2.6,2.5,2,.8-.5,1.3-1.2,2-2-1.1-2.3-2.8-4.4-5.1-6.4-.8.9-1.6,2-1.9,3.2-.4,1.5.8,1.1,2.5,3.1ZM155.2,290.7c-.6,3.1-1,4.1-1.7,5.8,2.5.4,5.1.4,7.5,0,0-1.5,0-2.3-.3-4.4-2.7-.4-3.1-.7-5.6-1.4ZM487.7,245c-.3.4-.3,1.1-.4,2-.2,1.3-.6,2.4-.9,3.2.5.3,1.2.8,2.1,1.4,0-.2.2-.5.2-.7.5-2,.8-4.3.7-6.7-.6,0-1.1.1-1.7.9ZM482.3,257c-1.4.8-1.7,1-4.7,2.2.2.7,1.1,3.3,1.1,3.6,0,.2.2.5.3.9,2-1.2,3.7-2.8,5.2-4.6-.6-.8-1.4-1.5-2-2.1ZM452.8,235.5c.5-.9,1.3-2.1,4.8-2.5,0,0,0,0,.1,0,.5-1.3-.6-3.8-1.6-6-2,1.1-4.2,2.5-6.2,4.7-.4.4-.7.9-1.1,1.3.6.4,1.2.9,1.4,1,.5.3,1.6.9,2.6,1.4ZM484.1,250.5c0-.3.2-.3.9-3.9,0-.4.2-3,2.9-4,.5-.2.9-.2,1.3-.2-.2-1.4-.6-2.9-1.1-4.4-2.3,2-3.6,3.1-5.6.9-1.4-1.5-1.5-1.6-3.1-2.6-.3-.2-2.9-1.7-.4-5.4.2-.3.9-1.2,1.8-2.3-.3-.2-.5-.4-.8-.6-1.3-.9-2.6-1.5-3.9-2-.4,1.1-.8,2.2-1.2,3.3-1.6,4.9-3.7,4-6,2.9-1.6-.8-2-.2-3.4-.9-2.4-1.3-1-4.1-.9-6.8-1.7.1-4.1.5-6.7,1.6,1.3,4.1,3.1,7.5.7,8.7-.8.4-2.9.4-3.7,1.7-.2.3-1,1.8-2.1,1.3-1-.5-.9-1-5-3.3-1.4,2.2-2.4,4.6-2.9,7.1,1.1.3,2.4.7,3.8.9.3,0,1.5,0,1.5,1.1,0,6.7.5,7.7-.5,8.1-.3.2-2.2.4-3.3.7,0,0-.3.1-.7.2.6,1.6,1.3,3.2,2.3,4.7.9-.5,2-1.2,3-2.1.3-.3,2.3-2.3,3.4-.5,1,1.6,1,1.8,2.2,2.1.2,0,1.9.2,1.8,1.5,0,.9-1.7,1.8-3.5,4.1-.3.4-.5.7-.7,1.1.5.3.9.6,1.5.9,1.7,1,3.6,1.7,5.5,2.2.3-.6.6-1,.7-1.3,1.7-3.7.4-6.1,2-6.4.6,0,7.5,1.4,8,1.7,1,.6.2,1.4.5,5.9,1.9-.5,3.7-1.1,5.4-2.1-.3-1.1-.8-2.2-1.3-3.5-.4-.8-1.4-2.4,0-3.4,1.1-.8,5.8-2.9,6.3-2.9.7,0,.6.4,2.9,2.9,1-1.4,1.8-2.9,2.4-4.5-.4-.3-.9-.6-1.4-.9-1.4-.7-2.4-1-2.3-1.8ZM482.7,236.2c1.6,1.9,1.5,2.6,2.5,2,.8-.5,1.3-1.2,2-2-1.1-2.3-2.8-4.4-5.1-6.4-.8.9-1.6,2-1.9,3.2-.4,1.5.8,1.1,2.5,3.1ZM469.9,230.4c1.4.9,1.8,1.3,2.7,0,.6-1,1.2-3,1.6-4.8-3.9-1.1-7-.9-7.2-.9h0c-.2,0-.4,0-.7,0-.2,1.3-.6,4.5,0,4.7,1,.5,1.7-.2,3.6,1.1ZM464.5,261.2c-.6,3.1-1,4.1-1.7,5.8,2.5.4,5.1.4,7.5,0,0-1.5,0-2.3-.3-4.4-2.7-.4-3.1-.7-5.6-1.4ZM452.8,256.1c-.9.5-2.5,1.7-3.8,2.8,1,1.3,2.2,2.5,3.6,3.6.2-.3.4-.6.7-1.1.7-1.1,1.3-1.9,1.8-2.5-1-.5-1.4-1.1-2.3-2.8ZM448.1,244.3c-1.5-.4-2.7-.6-3.6-.8-.3,2.5-.1,5,.5,7.4.1,0,.3,0,.3,0,1.1-.2,1.7-.4,2.7-.7-.2-2.2-.2-2.7.1-5.9ZM346.2,239.4c-25.9,2.4-53.9,5-75.8,7.3l-42,4.4c9.4,14.1,10.5,29.9,5.7,44.1,1.7-.2,3.4-.3,5.1-.5,20.8-2.1,101.9-9.4,103.2-9.5,5.5-.5,10.2-.9,14.3-1.3-9.5-12.7-14-28.8-10.4-44.4ZM30.1,116.6c0,0-.1,0-.1,0-.1,0-.3,0-.5,0-7-.2-11.4,8.5-6.1,14.1,6,6.6,17.1.5,15.4-8.1-.7-3.5-4.5-6.5-8.6-6ZM57,450.7c0,0-.1,0-.1,0-.2,0-.3,0-.5,0-7.5-.2-11.9,8.2-6.3,13.4,6.3,6,17.9.5,16.1-7.7-.7-3.2-4.3-6.2-9.1-5.8ZM588.8,56.7c0,0-.2,0-.3,0,0,0,0,0,0,0,0,0,0,0-.1,0-.1,0-.3,0-.4,0-6.1-.3-10.4,7.5-5.5,12.7,5.4,5.8,15.1.5,13.9-7-.6-3.5-4.1-5.9-7.4-5.7ZM623.7,407.5c-.6-3.7-4.6-6.1-8.1-5.6,0,0-.1,0-.1,0-.1,0-.3,0-.4,0-6.6-.2-10.6,7.8-5.6,12.8,5.6,5.6,15.5.3,14.2-7.2Z" fill="#fff"/><path d="M185.3,38.9c-.3,8.4-6.8,23.7-13.7,36.6-.5.8-.9,1.7-1.4,2.5h0c-.4.8-.9,1.6-1.3,2.3-4.3,7.5-8.5,13.6-11.3,16-.8.7-1.3.8-1.7,1.3-12.7-1.7-29.8-4.7-44.7-11.5-1.2-.6-2.4-1.1-3.6-1.7-1.2-.6-2.3-1.2-3.5-1.9-1.9-1.1-3.7-2.2-5.5-3.5-30.4-21.6-26-61.1-7.6-66.1,18.8-5.1,40.7,25.2,41.4,26.2,1.6,2,4.4,1,4.8-1.2.2-1.1-.8-16.2,5.3-25.9,12.4-19.9,43.8,1.9,42.8,26.7ZM151.8,332c-.5-.4-1-.8-1.5-1.1-6.8-4.9-16.3-5.9-20.1,2,0,.2-.2.4-.3.6-.1.2-.2.5-.3.7-.2.4-.3.8-.4,1.3-1.3,4.3-.7,8.1-1.1,9.1-.6,1.6-2.8,2.6-4.5.9-.6-.6-4.5-4.9-9.7-8.5-.5-.4-1.1-.7-1.6-1.1-.6-.4-1.2-.7-1.8-1.1-4-2.3-8.5-3.8-12.8-3-3,.5-5.4,2.3-7,4.9-.3.4-.5.9-.7,1.3-.2.4-.3.8-.5,1.3-1.4,4.3-.9,9.9,2.4,15.4,8,13.3,22.5,23.7,22.5,23.7,2.2,1.7,4.4,3.2,6.4,4.5,1.4.9,2.7,1.8,4,2.5,1.5.9,3,1.8,4.4,2.5,5.1,2.8,9.1,4.5,11.5,5.4,1-1.5,2.3-3.9,3.7-6.9.4-1,.9-2,1.4-3.1.4-1,.8-2,1.3-3.1,5.4-13.4,11.1-31.7,11.2-36.4,0-4-2-7.8-5.1-10.8-.4-.4-.8-.7-1.2-1.1ZM560.1,228.1c-4.6,2.3-7.6,9-8.1,9.5-1.3,1.6-4.2,1.3-4.7-1.2-.1-.7-2.4-15.7-9.6-19.1-8.4-3.9-20.8,12.8-10.3,29.5,5.2,8.3,14.6,15.1,18.3,17.7,0,0,.1,0,.2,0,0,0,0,0,0,0h0c5-1,21.4-11.2,24.7-16.9,5.4-9.4-2.2-23.7-10.5-19.5ZM546,264.4s0,0,0,0h0c0,0,.1,0,0,0ZM545.8,264.5s0,0,.1,0v-.2s0,0,0,0c0,0,0,0,0,.1ZM698,121c-7.7,3.7-13,15-13.6,15.7-1.3,1.7-4.3,1.2-4.8-1.4,0-.6-2.9-29.4-16.6-30.5-12.1-1-28.5,23-16,47.2,6.3,12.1,17.8,21.8,26.9,28.5.4,0,.9,0,1.7-.3,7.4-2.3,31.3-18.4,36.8-27.6,9-15-1.1-38.1-14.4-31.7ZM420.7,432.8c-5.9,2.8-9.7,11.1-10.2,11.8-1.3,1.6-4.2,1.3-4.7-1.3-.2-1.1-3.1-21.5-13.4-24.1-10-2.4-23,16.4-12.7,35.2.2.4.5.9.7,1.3.2.4.5.7.7,1.1h0c.5.8,1,1.6,1.6,2.3,5.1,7,12.2,13.1,20,18.8.4-.2.8-.3.8.2,6.2-1.2,25.9-13.9,29.9-20.5.7-1.2,1.3-2.5,1.7-3.9.2-.8.4-1.6.5-2.5h0c.1-.8.2-1.6.2-2.4.2-10-7.2-19.8-15.2-15.9Z" fill="#fe6d68"/><path d="M183.5,202.4c-2,1-5.9,1.7-7.6,1.9-11.5,1.3-19.3-.2-24-.8,0-1.7,0-3.4.2-5.2,0-1.4.2-3,.3-4.7,0-1.3.1-2.6.2-4.1.4-9.1-.3-17.1-.2-24.7,0-.8,0-1.7,0-2.5,0-.6,0-1.4.2-2.2.4-4.1,1.5-10.1,2.5-13.3.8-.8,1.7-1.8,1.7-1.8.1-.3.8-2.1-.2-4-1.9-3.7-5.8-4.1-8.2-2.3-2.9,2.1-3,6.6-3.2,17.5,0,1.8-.1,3.3-.2,4.5-.1,1.7-.3,3.1-.5,4.9-.4,2.9-.9,6.7-1.6,14-.1,1.2-.7,7.2-.4,14.8,0,.3,0,.5,0,.8,0,1.5.2,2.9.3,4.1.6,8.7,1.4,10,2.3,11,.2.2,1.3,1.5,3.1,1.5,1,0,1.8-.2,2.4-.6,2.4,0,6.5.2,8.7.3,9.1.6,20.1,2.4,27.6.5,3.1-.8,4-2.9,4.2-3.3,0,0,0-3.9,0-4-3.1-3.1-3.4-4.4-7.3-2.5ZM147.5,145.8c0,0-.2-.2-.3-.4,0,0,0,0,.3.4ZM210.2,159.5c-1-.1-1.9-.2-2.8-.3-2.2,0-4.2,0-6.1.6-10.8,2.7-16.1,14.3-9.9,29.9.3.7.6,1.4.9,2,.2.4.5,1.2,1,2.2,2.2,4.6,7.8,14.1,17.7,14.4.1,0,.2,0,.3,0,.2,0,.5,0,.8.2,5.3.9,12.6-2.4,15.5-13.6.3-1.2.6-2.6.8-4.2.2-1.6.3-3.4.3-5.2,0-10.4-3.5-23.7-18.6-26ZM221.5,186.3c-.2,1.9-.6,3.6-1.1,5.2-.7,2.2-1.7,3.9-2.6,5-2.3,2.8-3.5,2-3.8,1.9,0,0-.2,0-.2,0,.2,0-.1,0-.6,0-.6-.3-1.4-.4-2.1-.3-4,.9-7.6-2.8-9.3-4.9-.6-.7-.9-1.3-1-1.4-.2-.3-.9-1.4-1.6-3-.8-1.8-1.5-4.4-1.6-7.7-.4-10.5,5.9-11.7,8.9-12,6.8-.6,10.2,2,12.3,5.1,2.5,3.8,3.1,8.2,2.7,12.1ZM277.6,152.6c.7,2.3,0,2.5-1.2,4.9-2,3.9-5.9,13-7.4,18.3-.5,1.7-.9,3.5-1.3,5.4-.5,2-.9,4-1.3,6-1.2,6-2.2,11.3-2.7,12.5-1.6,3.5-6.6,3.9-8.8.6,0,0-2-3.6-4.1-9.4-.3-.9-.6-1.6-.8-2.2-.8-2.1-1-2.9-2-5.4-.1-.3-.2-.6-.4-1-2.1-5.4-2.9-7.7-7.3-13.8-1.1-1.5-2.2-2.7-2.4-2.9-.6-.6-1-.9-1.2-1.1,0,0,0,0,0,0,0,0,0,0,0,0-.8-1-1.9-1.9-2.2-3.2,0,0,.6-3.9.7-3.9.4-.3.8-.6,1.1-.9.6-.6,1.3-1.1,2.1-1.3.3,0,2.1-.5,4,.8.2.1.3.2.5.4,3.9,3.2,6.8,12.7,9.7,17.7,2.1,3.5,3.6,6.2,4.8,8.3.4.8.8,1.5,1.2,2.1.3-.7.5-1.4.8-2.3.3-.9.7-1.8,1.1-2.9,2.5-6.7,3.4-11.1,5.6-20.9,0-.4.7-2.8,1.2-4.7.3-1.1.6-2,.8-2.1,1-.9,1.7-2.2,3-2.6,0,0,3.9.2,4,.3.9,1,2.2,1.7,2.6,3,0,.2,0,.3.1.5ZM322.2,185.4c-.2,0-3.5.5-7.8.6-1.3,0-9.7.4-15.7-2.1-1.3-.6-2.5-1.2-3.5-2.1,0,0,0,0,0,0,0,0,.2,0,.3,0,6.5,1.8,12.6-1.9,16.2-4.9,2.2-1.8,3.5-3.4,3.6-3.4,8.8-9.2,8.7-19.3,1.1-25-2.6-2-6.1-3.4-10.4-4.1-4.1-.6-8.7,2.1-12.6,6.5-5.1,5.7-9,14.1-9.2,21.4,0,2.7.3,5,1,7.1.7,2.1,1.8,4,3.2,5.5,7.1,8.3,20.9,9.7,25,10.2.7,0,5.2.6,8.6.5,2.7,0,4-1.5,4.2-1.7.9-1,.9-2.5,1.3-3.7,0,0-1.7-3.5-1.7-3.6-1-.9-2.5-.9-3.7-1.3ZM304.1,172.4c-6.1,2.7-7.4-1.1-7.5-1.5-1-2-1.1-2.2-3.2-2.8,2.7-6.6,8.7-12.6,11.5-13.5,2.1.3,5.8,1,7.5,3,2.7,3.1-.7,11.5-8.3,14.8ZM424,136.9c1.1,3.3,2.1,9.8.8,29.2,0,.2,0,.4,0,.6,0,.4-.1,1.8-.3,3.7-.4,5-1,13.3-1.1,13.6-.7,1.1-1,2.6-2,3.4,0,0-3.8,1-3.8,1-1.1-.7-2.6-1-3.4-2-.2-.3-1.3-1.8-.9-4.7.2-1.2,1-5.2,1.9-10.3.2-1.3.5-2.7.7-4.2,1.6-10,3.1-22.3,1.4-27.5-.2-.6-.6-1.4-.8-1.9,0-.2-.2-.3-.2-.4-.4-.7-.7-1-.9-1.1-.7.4-1.3,1-2,1.9-3.7,4.4-7.9,14.4-10.6,22.1-1.2,3.4-1.4,4.5-2.6,5.6-1.9,1.6-5.9,2.1-7.8-1.9-.2-.5-4.9-11.3-10.5-18.3-1.4-1.7-2.6-2.9-3.7-3.7-1.4-1-2.5-1.5-3.3-1.7,0,.6,0,1.3.2,2,.3,2.9,1.1,6.4,1.2,6.9,1.2,5.4,3.3,12.5,6.2,21.4.4,1.4.9,2.8,1.4,4.2.9,2.6,1.8,5.4,2.7,8.3l-9.9,2.7c-.8-3.8-1.6-7.1-2.2-10-.3-1.6-.7-3-1-4.4-3-13.8-3.3-15.5-5.3-23.2-.4-1.8-.8-3.5-1.1-5.1-.3-1.7-.5-3.2-.5-4.5,0-2.7.9-4.8,3.1-6.1.1,0,7.2-4.3,16.7,3.9.1,0,.2.2.3.3,1.3,1.2,2.6,2.5,3.7,3.9,2.6,3,4.7,6.4,6.4,9.4,1.7-3.5,3.7-7.3,5.9-10.7,1-1.6,2.1-3.1,3.2-4.5,1.2-1.5,2.5-2.8,3.7-3.8,4.2-3.2,9.1-3.3,12.4,2.1.4.6.8,1.3,1.1,2,.2.6.5,1.2.8,2ZM452.6,153.1c-1.6,3.6-1.7,4.1-1.4,5.4.2.8.7,2.4,1,3.9,0,.2,0,.4,0,.6,0,1.3-.6,3.1-1.1,4.8-.4,1.4-.7,2.7-.5,3.8,0,.3.1.6.2.9.5,1.9,1.4,4,1.3,4.1-.5,1.2-.6,2.7-1.5,3.6-1.5,1.5-1.6,1.5-3.6,1.5-2.1,0-2.2,0-3.6-1.5-.9-.9-1-2.4-1.5-3.6,0-.2,1.9-4.2,1.6-6.6,0-.4-.2-.9-.3-1.4-.3-1.4-.8-3-1-4.4-.1-.7-.1-1.3,0-1.9.2-1.4,1.2-3.6,1.5-5.2,0-.7-1.2-4.6-1.2-4.6.6-1.2.7-2.7,1.7-3.5,0,0,3.7-1.3,3.7-1.3,1.1.6,2.5.8,3.4,1.7,1.5,1.7,2.4,1.7,1.5,3.8ZM454.6,132.3l-1.6.2,1.6.3-1.4.2,1.4.2c-.3.3-.7.7-1,1-1.4,1.4-2.7,2.8-4.1,4.1-.2.2-.2,0-3.5-3.4-.5-.5-1.1-1.1-1.7-1.7l1.4-.2-1.4-.2,1.6-.3-1.6-.2c.7-.7,1.4-1.4,2.1-2.1,1-1,2-2.1,3.1-3.1.2-.2.2,0,2.5,2.4.7.7,1.5,1.6,2.7,2.7ZM496.8,179s-.1,0-.2-.1c0,0,0,0,0,0l.2.2h0ZM500.5,147.1c0,.3,0,2.6-1.7,3.8-1.3.9-5.2,3.3-8.8,6.8-.3.3-.7.7-1.1,1.3-1.2,1.5-2.7,3.7-4.1,5.9-.3.5-.6.9-.9,1.4,1.9,2.8,3.8,5.7,5.9,7.6,2.2,2,5.4,4.2,6.8,5.1,0,0,0,.2,0,.3h.1c.2,0,.3,0,.4.1l-.4.4,1.3,6.3c-1.1.7-2,1.9-3.3,2.2-.4,0-2.5.5-4.4-1.2-.9-.8-2.5-3.9-5.3-7.6-1.9-2.5-4-4.2-6.8-6.4-3,2.6-5.9,4.5-7.2,6.2-2.1,2.7-4.7,6.6-4.7,6.7-1.2.5-2.3,1.5-3.6,1.5,0,0-3.6-1.5-3.6-1.5-.5-1.2-1.5-2.3-1.5-3.6,0-2.7.3-2.8,2.5-4.3,6.2-4.1,6.4-4.5,8.6-7.8,1.1-1.6,1.9-2.8,2.6-3.8,0,0,0-.1-.1-.2-.9-1.2-1.8-2.7-3-4.7-.1-.2-.2-.4-.3-.5-2.5-4.1-3.3-3.8-7.4-7.8-3.4-3.3-2.1-4.1.5-8,0,0,3.8-.8,3.8-.8,2.5.5,2.7.6,3.7,3,1.1,2.5,2.7,5.4,3.4,6.2,1.3,1.6,3.9,3.4,6.3,5.5,5.9-5.2,6.4-5.2,9.5-9.5q1.8-2.5,3.5-5.1c0,0,.6-.9.7-.9,3.3-1.5,3.3-1.5,3.6-1.5,2.1,0,2.2,0,3.6,1.5,1.5,1.5,1.5,1.6,1.5,3.6Z" fill="#c899d8"/><path d="M648,284.6c0-.1,0-4.3-3.5-7.8-2-2-4.6-3.3-7.5-3.7-1.4-.2-2.1-.1-6.1.2l-17.5-204.6c0-.9-.8-16-14.3-26.9-7.8-6.3-17.9-9.4-28.3-8.3l-393.1,41.1c5.3-10.9,9.8-22.7,11.3-30.6,4.7-24.9-20.7-48.9-39.2-43.5-13.2,3.9-16.6,19.8-17.5,29.4-6.1-7.4-17.2-19.3-29.7-22.7-24.9-6.8-38.3,22.2-27.4,49.2,4.6,11.4,12.5,20,21.9,26.5l-61.8,6.5C14.6,91.8-.9,110,0,130.6c0,.8,9.9,116.1,18,209.6-1.5.2-3.1.4-4.8.6-5.9.8-10.2,5.6-10.5,11.3-.1,1.9,0,1.9,1,9.2,2.8,22.6,6.7,63.9,8.4,79.1.7,6.3,6.1,11.3,12.6,11.2.3,0,1.4-.1,2.9-.3.2,2.4.4,4.1.5,5.2,1.9,21.7,21,37.4,42.6,35.2l307.1-32.1c6.6,10.8,16.9,19.2,22.8,23.8,1.3,1,1.3,1.3,2.9,1.1.5,0,.9-.4,1.3-.7,6.5-1.3,24.3-13.8,30.7-21.5,2.2-2.7,3.6-5.9,4.2-9.2l166.6-17.4c20.8-2.2,36.8-20.7,35-42.4l-.7-8.6c1.1,0,1.8-.2,2.1-.2,6.4-.5,11.5-6,11.4-12.5,0-.9-2.1-24.1-2.6-30.6-1.3-15.5-3-49.8-3.3-56.7ZM643.4,378.6c-.4,0-1.4.2-3.4.3l-8.6-100.2c1.8,0,3.1-.2,3.5-.2,3.3-.2,6.7,2.1,7.2,6.2,0,.1,0,.2,0,.3h0c3.5,39.1,3.6,39.1,4.5,50.2.6,8.1,2.1,35,2.2,36.1.2,3.4-2.1,6.5-5.4,7.2ZM636.8,393.7c1.6,19.2-12.5,35.8-31.1,37.7l-24.8,2.5c-1.2-2.2-3-5.4-5.3-9.4-33.8-59.8-41-63.9-44-63.5-23,3.5-153.1,15.9-181.9,18.7-110.6,10.6-144.4,14.6-201.5,19.6-.7,0-1.3.5-1.4.5-6.8,4.8-16.1,49.5-22.7,73.3-1,3.6-1.7,6-2.3,7.5l-51.8,5.3c-18.5,1.9-34.7-11.5-36.3-29.9l-.5-5.4-.3-2.9-.3-2.9-9-100.2-.2-2.5-.2-2.5L4.6,131.8c-1.6-18.3,11.4-34.7,29.3-37.5,1.4-.2,53.4-5.6,58.1-6.1l11-1.1c17.2,9.9,38,14.2,53.8,16.7,1.6.3,1.8.6,3.1-.4.6-.5.8-1.3,1.1-1.9,0,0,0,0,0,0,3.7-2.9,9.2-11.5,14.4-21.6l396-40.3c8.1-.8,15.8,1.3,21.9,5.5,13.7,9.3,14.3,24.1,14.3,24.5,0,0,0,0,0,0,8.4,93.6,14.3,158.7,18.5,204.5,0,.9.2,1.7.2,2.6,0,.8.2,1.7.2,2.5,5.7,63.1,7.9,87.8,9,100.2,0,1,.2,2,.3,2.9,0,1.1.2,2,.3,2.9.3,3.5.5,5.8.8,8.7ZM435.1,453.6c-.4,1.3-.9,2.6-1.7,3.9-4,6.7-23.7,19.3-29.9,20.5,0-.4-.4-.4-.8-.2-7.9-5.7-14.9-11.7-20-18.8-.6-.8-1.1-1.5-1.6-2.3h0c-.2-.4-.5-.7-.7-1.1-.3-.4-.5-.9-.7-1.3-10.3-18.8,2.7-37.6,12.7-35.2,10.3,2.5,13.2,23,13.4,24.1.5,2.6,3.4,2.9,4.7,1.3.5-.6,4.3-9,10.2-11.8,8.1-3.9,15.4,5.9,15.2,15.9,0,.8,0,1.6-.2,2.4h0c-.1.8-.3,1.7-.5,2.5ZM428.4,428.1c-8-3-14.6,2.8-18.5,7.7-1.3-5.7-3.8-13.6-9-18.4-10.8-10-25.5-1.1-28.9,14.8-1.8,8.1-.2,15.7,3.1,22.6l-250.1,25.5c4.1-13.1,10.8-45.8,17-65.2.4-1.1,4-12.5,6.3-13.5.4-.2,58.6-5.2,139-12.9,63.9-6.1,220.6-22.7,229.7-23.7,14.8-1.6,14.9-1.9,15.4-1.7,8.8,3.5,40.6,62.1,45.4,70.9l-137.7,14c0-8.9-4.8-17.6-11.6-20.2ZM17.7,439.7c-4-31.8-7.5-56.1-10.6-85.9-.4-3.8,2.2-7.2,5.7-8,.3,0,2.6-.3,5.6-.6,3.7,43.5,7,81.6,8.6,100.3-.6,0-1.3.1-2,.2-3.2.4-6.9-1.9-7.4-6ZM91,13c18.8-5.1,40.7,25.2,41.4,26.2,1.6,2,4.4,1,4.8-1.2.2-1.1-.8-16.2,5.3-25.9,12.4-19.9,43.8,1.9,42.8,26.7-.3,8.4-6.8,23.7-13.7,36.6-.5.8-.9,1.7-1.4,2.5h0c-.4.8-.9,1.6-1.3,2.3-4.3,7.5-8.5,13.6-11.3,16-.8.7-1.3.8-1.7,1.3-12.7-1.7-29.8-4.7-44.7-11.5-1.2-.6-2.4-1.1-3.6-1.7-1.2-.6-2.3-1.2-3.5-1.9-1.9-1.1-3.7-2.2-5.5-3.5-30.4-21.6-26-61.1-7.6-66.1ZM565.5,88.5c-5.3-4.4-12.2-6.5-19.1-5.7-277.9,29.6-307.2,32.7-472.5,49.4-11.7,1.2-23.5,11.7-23,26.7,0,1,16.4,192.7,17.8,209.2,1,11.9,11.5,23.7,26.7,23.3,1,0,11.4-1.1,25.4-2.5,10.9,7.4,18.6,10.3,19.6,10.7.1,0,1.8.9,3.8-1.2,1.7-1.7,3.9-6.5,6.2-12.6,24.4-2.5,48.5-5,52.6-5.5l366.5-38.6c11.8-1.2,23.4-11.8,23-26.7,0-.6-16.2-192.2-17.6-208.9,0-.7-.5-10.5-9.3-17.7ZM587.8,314.2c1.1,11.6-7.5,22-19.1,23.3-93.4,9.9-253.2,25.4-416.1,42.2,4.4-12.7,8.5-27.9,9.3-33.2.8-5.1-.9-9.9-3.9-13.9l168.9-16.6c69.6-6.7,212.8-20.4,258.8-24.8l2.1,23.1ZM144.2,386.5c-1.4,3-2.6,5.4-3.7,6.9-2.4-.9-6.4-2.6-11.5-5.4-1.4-.8-2.8-1.6-4.4-2.5-1.3-.8-2.6-1.6-4-2.5-2-1.4-4.2-2.9-6.4-4.5,0,0-14.6-10.4-22.5-23.7-3.3-5.5-3.8-11.1-2.4-15.4.1-.4.3-.9.5-1.3.2-.5.4-.9.7-1.3,1.6-2.6,4-4.4,7-4.9,4.3-.8,8.8.7,12.8,3,.6.3,1.2.7,1.8,1.1.5.3,1.1.7,1.6,1.1,5.2,3.6,9.1,7.9,9.7,8.5,1.7,1.7,4,.7,4.5-.9.4-1-.2-4.8,1.1-9.1.1-.4.3-.8.4-1.3,0-.2.2-.5.3-.7,0-.2.2-.4.3-.6,3.8-7.9,13.3-6.9,20.1-2,.5.4,1,.7,1.5,1.1.4.3.8.7,1.2,1.1,3,3,5.1,6.8,5.1,10.8,0,4.6-5.8,23-11.2,36.4-.4,1.1-.8,2.1-1.3,3.1-.5,1.1-.9,2.1-1.4,3.1ZM74.4,368.1c0-.2-1-10.7-2.5-27l11.8-1.2c-.5,2.9-.4,6.1.4,9.3.5,1.8,1.7,8.6,15.4,22.1,4.9,4.9,9.7,9,14.1,12.4-5.7.6-11.5,1.2-17.2,1.8-11,1.2-20.7-6.7-22.1-17.4ZM74.7,136.6c184.6-19.5,285.8-29.6,472.3-48.2,5.1-.5,9.9.9,13.7,3.6,7.9,5.6,8.3,14.3,8.3,14.6,0,0,0,0,0,0l16.5,181.5-108.1,10.7-321.2,31.3c-5.6-5.8-14.1-9.1-20.8-7.5-6.2,1.5-9.3,6.1-10.9,10.6l-5.1.5c-3.2-2.6-7.1-5.2-11.3-6.7-12.1-4.4-20.9,1.4-23.7,10.1l-12.7,1.2c-4.9-54.4-15-166.2-16.1-178.7-1-11.6,7.5-22,19.1-23.2ZM123.8,336c-.1.5-.2,1-.3,1.5-.4-.4-.9-.9-1.4-1.3l1.7-.2ZM187.4,424.6c-.9-5.1-5.2-7.4-8.8-7.1-1.1,0-7.1,1.4-12.6,2.3-4,.7-6.9,4-7,8,0,.9,1.4,16.5,1.4,16.7.4,4.1,3.9,7.6,8.5,7.6,1.1,0,5.1-.8,13.1-2.4,4.2-.8,7.1-5,6.7-9.1-.4-4.4-.4-4.4-1.2-15.9ZM166.1,443.9c0-.3-2.5-14.6-2.7-15.8-.3-1.7.9-3.6,2.5-4.1.9-.3,11.4-1.4,12.3-1.5,1.3-.1,2.9.8,3.2,2.4,0,.2,0,.3,0,.4h0c2.3,12.7,2.4,12.7,2.8,15.5.3,1.9-1,3.4-2.4,3.9-.6.2-3.4.4-12.5,1.4-1.4.2-2.9-.7-3.3-2.3ZM533.4,383.7c-.9-5.1-5.2-7.4-8.8-7.1-1.1,0-7.1,1.4-12.6,2.3-4,.7-6.9,4-7,8,0,.9,1.4,16.5,1.4,16.7.4,4.1,3.9,7.6,8.5,7.6,1.1,0,5.1-.8,13.1-2.4,4.2-.8,7.1-5,6.7-9.1-.4-4.4-.4-4.4-1.2-15.9ZM512.1,402.9c0-.3-2.5-14.6-2.7-15.8-.3-1.7.9-3.6,2.5-4.1.9-.3,11.4-1.4,12.3-1.5,1.3-.1,2.9.8,3.2,2.4,0,.2,0,.3,0,.4h0c2.3,12.7,2.4,12.7,2.8,15.5.3,1.9-1,3.4-2.4,3.9-.6.2-3.4.4-12.5,1.4-1.4.2-2.9-.7-3.3-2.3ZM499.7,408.9c-.9-5.1-5.2-7.4-8.8-7.1-1.1,0-7.1,1.4-12.6,2.3-4,.7-6.9,4-7,8,0,.9,1.4,16.5,1.4,16.7.4,4.1,3.9,7.6,8.5,7.6,1.1,0,5.1-.8,13.1-2.4,4.2-.8,7.1-5,6.7-9.1-.4-4.4-.4-4.4-1.2-15.9ZM478.4,428.1c0-.3-2.5-14.6-2.7-15.8-.3-1.7.9-3.6,2.5-4.1.9-.3,11.4-1.4,12.3-1.5,1.3-.1,2.9.8,3.2,2.4,0,.2,0,.3,0,.4h0c2.3,12.7,2.4,12.7,2.8,15.5.3,1.9-1,3.4-2.4,3.9-.6.2-3.4.4-12.5,1.4-1.4.2-2.9-.7-3.3-2.3ZM229.9,440.4c-.9-5.1-5.2-7.4-8.8-7.1-1.1,0-7.1,1.4-12.6,2.3-4,.7-6.9,4-7,8,0,.9,1.4,16.5,1.4,16.7.4,4.1,3.9,7.6,8.5,7.6,1.1,0,5.1-.8,13.1-2.4,4.2-.8,7.1-5,6.7-9.1-.4-4.4-.4-4.4-1.2-15.9ZM208.6,459.7c0-.3-2.5-14.6-2.7-15.8-.3-1.7.9-3.6,2.5-4.1.9-.3,11.4-1.4,12.3-1.5,1.3-.1,2.9.8,3.2,2.4,0,.2,0,.3,0,.4h0c2.3,12.7,2.4,12.7,2.8,15.5.3,1.9-1,3.4-2.4,3.9-.6.2-3.4.4-12.5,1.4-1.4.2-2.9-.7-3.3-2.3ZM386.9,136.5c6.4-.6,12.8-1.3,19.2-1.9-1.1,1.3-2.2,2.9-3.2,4.5-4,.4-8.1.8-12.2,1.3-1.2-1.4-2.4-2.7-3.7-3.9ZM98.3,167.9c-.2-.3-1-1.8,2.6-3.3,0,0,21.5-1.9,44-3.9-.1,1.7-.3,3.1-.5,4.9-22.1,2.5-42.9,4.9-42.9,4.9-.7-.2-1.6-.2-2.1-.7-.6-.5-.7-1.3-1.1-2ZM185.5,161.3c-8.4.8-20.7,2.1-33.2,3.5,0-.8,0-1.7,0-2.5,0-.6,0-1.4.2-2.2,12.3-1.1,24.3-2.3,32.5-3.2l66.5-7.4c38-4.2,76.2-7.5,115.2-11.1,0,1.3.2,2.8.5,4.5-16.5,1.8-33.7,3.8-50.9,5.6-2.6-2-6.1-3.4-10.4-4.1-4.1-.6-8.7,2.1-12.6,6.5-5.3.6-10.6,1.1-15.8,1.6,0-.2,0-.3-.1-.5-.4-1.2-1.7-2-2.6-3,0,0-3.9-.3-4-.3-1.2.4-2,1.7-3,2.6-.2.2-.5,1.1-.8,2.1-5.1.5-10.1,1-15,1.4-2,.2-5.5.5-10,.9-1.8-1.2-3.7-.8-4-.8-.8.2-1.5.7-2.1,1.3-8.7.8-19.3,1.8-28.7,2.6-2.2,0-4.2,0-6.1.6-7.3.7-13.2,1.2-15.8,1.5ZM454.6,132.3c-1.1-1.1-2-2-2.7-2.7,27.3-3.1,53-6,53.1-6,.7.2,1.6.2,2.2.7.9.8,1,.8,1.1,2,.1,1.2,0,1.2-.7,2.2-.5.6-1.3.8-2,1.1,0,0-26.7,2.4-52.1,4.7.3-.3.7-.7,1-1l-1.4-.2,1.4-.2-1.6-.3,1.6-.2ZM423.2,134.9c-.3-.8-.7-1.4-1.1-2,4.4-.5,8.7-.9,13.1-1.4,3.7-.4,7.4-.8,11.1-1.2-.7.7-1.4,1.4-2.1,2.1l1.6.2-1.6.3,1.4.2-1.4.2c.7.6,1.2,1.2,1.7,1.7-8.1.7-15.7,1.4-22,2-.3-.8-.6-1.4-.8-2ZM375.2,142c0-.7-.1-1.4-.2-2,.8.2,1.9.6,3.3,1.7-1,.1-2.1.2-3.1.3ZM416.6,137.6c-1,.1-2.1.2-3.1.3.7-.8,1.4-1.5,2-1.9.2.1.5.4.9,1.1,0,0,.1.2.2.4ZM383.9,174.5c-.5-1.4-.9-2.8-1.4-4.2,11.1-1.1,22.2-2.1,33.4-3.3-.2,1.5-.5,2.9-.7,4.2-9.8,1-20.4,2.1-31.3,3.3ZM311.7,176.9c20.5-1.9,41.1-3.8,61.9-5.7.3,1.3.6,2.8,1,4.4-24.4,2.7-50.5,5.7-75.9,8.4-1.3-.6-2.5-1.2-3.5-2.1,0,0,0,0,0,0,0,0,.2,0,.3,0,6.5,1.8,12.6-1.9,16.2-4.9ZM506.9,156.9c.7.2,1.6.2,2.2.7.9.8,1,.8,1.1,2,.1,1.2,0,1.2-.7,2.2-.5.6-1.3.8-2,1.1,0,0-9.5.9-22.6,2,1.4-2.2,2.9-4.4,4.1-5.9,10.7-1.2,17.9-2,17.9-2ZM443.2,168.6c-6.9.6-13.3,1.2-18.6,1.7.1-1.9.2-3.3.3-3.7,0-.2,0-.4,0-.6,4.1-.4,8.1-.8,12.2-1.3,1.7-.2,3.4-.4,5.1-.6.2,1.4.7,2.9,1,4.4ZM259.3,182.2c-.3.9-.6,1.6-.8,2.3-.4-.6-.8-1.3-1.2-2.1.7,0,1.4-.1,2-.2ZM201.9,193.2c-.6-.7-.9-1.3-1-1.4-.2-.3-.9-1.4-1.6-3l22.2-2.5c-.2,1.9-.6,3.6-1.1,5.2-6.5.6-13,1.2-18.5,1.7ZM285.2,179.5c.7,2.1,1.8,4,3.2,5.5-7.5.8-14.8,1.5-22,2.2.4-2,.8-4,1.3-6,5.8-.6,11.7-1.2,17.5-1.8ZM101.2,203.2c-.6-.5-.7-1.3-1.1-2-.2-.3-1-1.8,2.6-3.3,0,0,18.8-1.6,39.7-3.5,0,.3,0,.5,0,.8,0,1.5.2,2.9.3,4.1-20.7,2.3-39.3,4.5-39.4,4.5-.7-.2-1.6-.2-2.1-.7ZM471.1,166c-6.5.6-13.3,1.2-19.9,1.8.5-1.7,1.1-3.4,1.1-4.8,5.4-.6,10.7-1.2,15.8-1.8,1.3,2.1,2.2,3.5,3,4.7ZM187.3,194.5c-8.9.9-22,2.3-35.3,3.8,0-1.4.2-3,.3-4.7,13-1.2,25.8-2.4,34.6-3.4l4.6-.5c.3.7.6,1.4.9,2,.2.4.5,1.2,1,2.2-2.7.2-4.8.4-6,.6ZM248,183.4c1,2.6,1.2,3.4,2,5.4-5.1.5-13,1.2-21.5,2,.2-1.6.3-3.4.3-5.2l19.1-2.1ZM508,187.6c.7.2,1.6.2,2.2.7.9.8,1,.8,1.1,2,.1,1.2,0,1.2-.7,2.2-.5.6-1.3.8-2,1.1,0,0-58.4,5.2-84.6,7.7-47.7,4.6-114.7,12.9-168.9,17.9-9.9.9-57.8,5.3-66.7,6.1-25.1,2.4-83.9,9.3-84,9.3-.7-.2-1.6-.2-2.1-.7-.6-.5-.7-1.3-1.1-2-.2-.3-1-1.8,2.6-3.3.1,0,59.1-5.1,84.2-7.8l66.5-7.4c60-6.6,120.2-11,183.7-18,32.5-3.6,69.7-7.9,69.8-7.9ZM497.3,216.7c-7.8-6.3-17.9-9.4-28.2-8.4q-159.8,16.2-319.7,30.5c-17.6,1.6-31.7,14.8-35.2,31.3-5.3,24.9,14.1,48.2,39.6,47.1,3.6-.2,106.8-10.5,116.1-11.4q86.9-8.7,205.6-19.6c9.3-.8,17.9-4.9,24.4-11.5,13.8-13.8,11.6-31,11.6-31.2,0-.5-.6-15.9-14.2-26.9ZM498.1,268.4c-5.2,6.4-12.7,11-21.4,12.4-1.7.3-62.1,6.3-67.4,6.8-77.9,7.8-137,12.5-254,23.5-15.1,1.4-27.7-7.1-33.1-18.9-9.5-20.3,3.6-44.7,26-48.1,1.7-.3,96.2-9.6,104.6-10.5,52.9-5.3,105.3-10.3,216.9-20.2,7.8-.7,15.2,1.3,21.3,5.3,14.2,9.4,14.8,24.8,14.8,25.2,0,0,0,0,0,0,0,1.1,1.6,13.1-7.5,24.4ZM157.7,248.2c-.6,0-3.4,0-6.9,1-16.9,4.8-24.8,23.7-16.8,38.8,7.7,14.7,26.7,18.5,39.1,9.9,14.1-9.8,15.1-28.7,4.3-40.7-8.4-9.3-19.7-9.1-19.8-9.1ZM143.3,292c-1.4-1.1-2.6-2.3-3.6-3.6,1.4-1.1,2.9-2.3,3.8-2.8.9,1.7,1.3,2.3,2.3,2.8-.5.6-1.1,1.5-1.8,2.5-.3.4-.5.8-.7,1.1ZM146.2,294c-.5-.3-1-.6-1.5-.9.2-.4.4-.7.7-1.1,1.8-2.3,3.5-3.2,3.5-4.1,0-1.2-1.5-1.4-1.8-1.5-1.2-.3-1.2-.5-2.2-2.1-1.1-1.7-3.1.3-3.4.5-1.1.9-2.1,1.5-3,2.1-1-1.5-1.8-3.1-2.3-4.7.4-.1.7-.2.7-.2,1.1-.3,3-.5,3.3-.7,1-.4.6-1.4.5-8.1,0-1-1.2-1-1.5-1.1-1.4-.2-2.7-.6-3.8-.9.5-2.5,1.5-4.9,2.9-7.1,1.8,1,2.1,1.3,4.2,2.7,1,.7,1.6,1.3,2.9-.8.8-1.2,2.9-1.3,3.7-1.7,2.4-1.2.6-4.5-.7-8.7,2.6-1.1,5-1.4,6.7-1.6-.1,2.7-1.5,5.5.9,6.8,1.4.7,1.8.1,3.4.9,2.3,1.1,4.4,2,6-2.9.4-1.1.8-2.3,1.2-3.3,1.3.5,2.6,1.1,3.9,2,.3.2.5.4.8.6-.8,1-1.6,2-1.8,2.3-2.5,3.7,0,5.2.4,5.4,1.6.9,1.7,1.1,3.1,2.6,2.1,2.2,3.4,1,5.6-.9.6,1.4.9,2.9,1.1,4.4-.4,0-.9,0-1.3.2-2.7,1-2.8,3.6-2.9,4-.7,3.6-.9,3.6-.9,3.9,0,.8.9,1.1,2.3,1.8.5.3,1,.6,1.4.9-.6,1.6-1.5,3.1-2.4,4.5-2.3-2.5-2.2-2.9-2.9-2.9-.4,0-4.1,1.5-5.9,2.6-1.8,1.1-1.1,2.2-.4,3.7.6,1.3,1,2.4,1.3,3.5-1.7.9-3.5,1.6-5.4,2.1-.3-4.5.5-5.3-.5-5.9-.5-.3-7.4-1.8-8-1.7-1.6.2-.3,2.6-2,6.4-.1.2-.4.7-.7,1.3-1.9-.5-3.7-1.2-5.5-2.2ZM135.2,273c.9.1,2.1.4,3.6.8-.4,3.2-.4,3.6-.1,5.9-1,.4-1.6.6-2.7.7,0,0-.2,0-.3,0-.6-2.4-.8-4.9-.5-7.4ZM146.7,256.5c1,2.2,2.1,4.7,1.6,6,0,0,0,0-.1,0-3.5.3-4.3,1.6-4.8,2.5-1.4-.7-2.3-1.2-3-1.7-.3-.2-.6-.5-1-.7.3-.4.7-.9,1.1-1.3,2-2.2,4.1-3.7,6.2-4.7ZM157.7,254.1c.2,0,3.3-.2,7.2.9-.4,1.8-1,3.8-1.6,4.8-.9,1.4-1.3,1-2.7,0-2-1.2-2.7-.6-3.6-1.1-.5-.3-.1-3.4,0-4.7.3,0,.5,0,.7,0h0ZM178,265.7c-.8.8-1.2,1.5-2,2-1,.6-1-.2-2.5-2-1.7-2-2.8-1.6-2.5-3.1.3-1.2,1.1-2.3,1.9-3.2,2.3,1.9,4,4.1,5.1,6.4ZM179.4,280.3c0,.3-.2.5-.2.7-.8-.6-1.6-1.1-2.1-1.4.3-.8.7-1.9.9-3.2.1-.9,0-1.5.4-2,.6-.8,1.1-.9,1.7-.9.1,2.4-.1,4.7-.7,6.7ZM153.5,296.5c.7-1.8,1-2.7,1.7-5.8,2.5.7,2.9.9,5.6,1.4.2,2.1.3,2.9.3,4.4-2.5.4-5,.4-7.5,0ZM169.4,292.3c0-.3-.9-2.8-1.1-3.6,3-1.2,3.3-1.5,4.7-2.2.8.8,1.4,1.2,2,2.1-1.5,1.8-3.3,3.3-5.2,4.6-.1-.3-.2-.6-.3-.9ZM467,218.7c-.6,0-3.4,0-6.9,1-16.9,4.8-24.8,23.7-16.8,38.8,7.7,14.7,26.7,18.5,39.1,9.9,14.1-9.8,15.1-28.7,4.3-40.7-8.4-9.3-19.7-9.1-19.8-9.1ZM488.7,250.8c0,.3-.2.5-.2.7-.8-.6-1.6-1.1-2.1-1.4.3-.8.7-1.9.9-3.2.1-.8,0-1.5.4-2,.6-.8,1.1-.9,1.7-.9.1,2.4-.1,4.7-.7,6.7ZM485.4,257.6c-2.3-2.5-2.2-2.9-2.9-2.9-.5,0-5.2,2.1-6.3,2.9-1.4,1-.3,2.6,0,3.4.6,1.3,1,2.4,1.3,3.5-1.7.9-3.5,1.6-5.4,2.1-.3-4.5.5-5.3-.5-5.9-.5-.3-7.4-1.8-8-1.7-1.6.2-.3,2.6-2,6.4-.1.2-.4.7-.7,1.3-1.9-.5-3.7-1.2-5.5-2.2-.5-.3-1-.6-1.5-.9.2-.4.4-.7.7-1.1,1.8-2.3,3.5-3.2,3.5-4.1,0-1.2-1.5-1.4-1.8-1.5-1.2-.3-1.2-.5-2.2-2.1-1.1-1.7-3.1.3-3.4.5-1.1.9-2.1,1.5-3,2.1-1-1.5-1.8-3.1-2.3-4.7.4-.1.7-.2.7-.2,1.1-.3,3-.5,3.3-.7,1-.4.6-1.4.5-8.1,0-1-1.2-1-1.5-1.1-1.4-.2-2.7-.6-3.8-.9.5-2.5,1.5-4.9,2.9-7.1,4.1,2.3,4,2.8,5,3.3,1.1.5,1.9-1.1,2.1-1.3.8-1.2,2.9-1.3,3.7-1.7,2.4-1.2.6-4.5-.7-8.7,2.6-1.1,5-1.4,6.7-1.6-.1,2.7-1.5,5.5.9,6.8,1.4.7,1.8.1,3.4.9,2.3,1.1,4.4,2,6-2.9.4-1.1.8-2.3,1.2-3.3,1.3.5,2.6,1.1,3.9,2,.3.2.5.4.8.6-.8,1-1.6,2-1.8,2.3-2.5,3.7,0,5.2.4,5.4,1.6.9,1.7,1.1,3.1,2.6,2.1,2.2,3.4,1,5.6-.9.6,1.4.9,2.9,1.1,4.4-.4,0-.9,0-1.3.2-2.7,1-2.8,3.6-2.9,4-.7,3.6-.9,3.6-.9,3.9,0,.8.9,1.1,2.3,1.8.5.3,1,.6,1.4.9-.6,1.6-1.5,3.1-2.4,4.5ZM462.8,267c.7-1.8,1-2.7,1.7-5.8,2.5.7,2.9.9,5.6,1.4.2,2.1.3,2.9.3,4.4-2.5.4-5,.4-7.5,0ZM479.1,263.7c-.1-.3-.2-.6-.3-.9,0-.3-.9-2.8-1.1-3.6,3-1.2,3.3-1.5,4.7-2.2.6.6,1.4,1.3,2,2.1-1.5,1.8-3.3,3.3-5.2,4.6ZM449,258.9c1.4-1.1,2.9-2.3,3.8-2.8.9,1.7,1.3,2.3,2.3,2.8-.5.6-1.1,1.5-1.8,2.5-.3.4-.5.8-.7,1.1-1.4-1.1-2.6-2.3-3.6-3.6ZM444.5,243.5c.9.1,2.1.4,3.6.8-.4,3.2-.4,3.6-.1,5.9-1,.4-1.6.6-2.7.7,0,0-.2,0-.3,0-.6-2.4-.8-4.9-.5-7.4ZM456.1,227c1,2.2,2.1,4.7,1.6,6,0,0,0,0-.1,0-3.5.3-4.3,1.6-4.8,2.5-1-.5-2.1-1.1-2.6-1.4-.2-.1-.8-.6-1.4-1,.3-.4.7-.9,1.1-1.3,2-2.2,4.1-3.7,6.2-4.7ZM467,224.6c.2,0,3.3-.2,7.2.9-.4,1.8-1,3.8-1.6,4.8-.9,1.4-1.3,1-2.7,0-2-1.2-2.7-.6-3.6-1.1-.5-.3-.1-3.4,0-4.7.3,0,.5,0,.7,0h0ZM485.3,238.2c-1,.6-1-.2-2.5-2-1.7-2-2.8-1.6-2.5-3.1.3-1.2,1.1-2.3,1.9-3.2,2.3,1.9,4,4.1,5.1,6.4-.8.8-1.2,1.5-2,2ZM417.6,227.9c-.7-.6-1.6-.7-1.7-.7-1.1,0-90.7,10-149.3,15.6-34.3,3.3-34.3,3.2-68.5,6.4-1.2.1-2.2,1.1-2.3,2.3,0,.4,3.8,50,3.9,50.4.3,1.3,1.6,2.3,3,2.2,58.4-5.3,141.5-14.9,180.1-18.5,18.7-1.8,18.7-1.7,37.3-3.4,1.2-.1,2.3-1.2,2.2-2.6l-3.7-49.6c-.4-1.1-.1-1.3-1.1-2ZM270.3,246.6c21.9-2.2,49.9-4.9,75.8-7.3-3.6,15.6.9,31.7,10.4,44.4-4.1.4-8.8.8-14.3,1.3-1.2.1-82.4,7.4-103.2,9.5-1.7.2-3.4.3-5.1.5,4.7-14.2,3.7-30-5.7-44.1l42-4.4ZM348.5,239.2c27.7-2.5,52.7-4.7,64.6-5.8l4.2,44.1c-30.8,3.3-36.3,4-58.2,6.1-9.9-12.5-14.6-28.7-10.6-44.4ZM231.7,295.4c-8.9.9-17.8,1.8-26.7,2.7l-4.1-44.2,24.7-2.6c10,14,11,29.9,6,44ZM30.1,110.7c-.3,0-1.7,0-3.1.5-12,3.6-13.6,20.8-2.5,26.5,8.1,4.1,17.4-.7,18.9-9.6,1.1-6.4-2.6-16.5-13.3-17.4ZM23.3,130.7c-5.2-5.7-.9-14.3,6.1-14.1.2,0,.3,0,.5,0,0,0,0,0,.1,0,4.2-.5,7.9,2.5,8.6,6,1.7,8.6-9.3,14.7-15.4,8.1ZM57.1,444.8c-.3,0-2,0-3.9.7-.4.1-.7.3-1,.4-1.6.6-2.9,1.5-4.1,2.5-7,6.2-6.1,18.3,3.5,22.6,8.5,3.8,17.8-1.3,19.2-9.7,1-6.2-3-15.6-13.7-16.5ZM50,464.1c-5.5-5.3-1.2-13.6,6.3-13.4.2,0,.4,0,.5,0,0,0,0,0,.1,0,4.9-.4,8.4,2.6,9.1,5.8,1.8,8.1-9.8,13.6-16.1,7.7ZM588.4,50.8c-.2,0-1.4,0-2.6.4-11.2,3.1-13.1,18.8-3.2,24.6,7.4,4.3,16.5,0,18.2-8.4,1.2-6.1-2.3-15.7-12.3-16.6ZM582.4,69.4c-4.9-5.2-.6-12.9,5.5-12.7.1,0,.3,0,.4,0,0,0,0,0,.1,0,0,0,0,0,0,0,.1,0,.2,0,.3,0,3.3-.2,6.8,2.1,7.4,5.7,1.3,7.5-8.5,12.8-13.9,7ZM615.6,396c-.2,0-1.4,0-2.7.4-11.6,3.1-13.4,19.2-3,24.7,7.6,4.1,16.5-.2,18.2-8.5,1.3-6.1-2.4-15.7-12.6-16.6ZM609.5,414.7c-5.1-5.1-1-13,5.6-12.8.2,0,.3,0,.4,0,0,0,0,0,.1,0,3.5-.4,7.4,1.9,8.1,5.6,1.3,7.5-8.6,12.7-14.2,7.2ZM543.1,269.8c1.2,1,1.2,1.2,2.8,1,.4,0,.8-.3,1.2-.6,5.7-1.2,20.6-11.8,25.7-18.1,8-10,2.2-27.3-7.9-29.2-5.8-1.1-10.4,2.6-13.4,6.2-.3-1.4-.8-2.9-1.3-4.5-7.3-21.2-26.3-15.5-30.6,1.5-5.1,20.6,15.9,37.6,23.6,43.7ZM537.7,217.3c7.2,3.4,9.5,18.4,9.6,19.1.5,2.6,3.4,2.8,4.7,1.2.5-.6,3.5-7.2,8.1-9.5,8.3-4.2,15.8,10.2,10.5,19.5-3.2,5.6-19.6,15.8-24.7,16.8h0s0,0,0,0c0,0,0,0,0,0v.2s0,0-.1,0c0,0,0,0,0-.1,0,0-.1,0-.2,0-3.7-2.6-13-9.3-18.3-17.7-10.5-16.7,1.9-33.4,10.3-29.5ZM545.8,264.4s0,0,0,0h0s0,0,0,0ZM706,115.8c-9.4-2.7-17.4,5.4-21.9,11.6-1.3-7.7-4.3-18.7-11.4-24.5-13.6-11.3-31.8,3.9-34.3,24.9-3.1,25.7,16.7,45.2,33.4,58.5,1.2.9,1.2,1.2,2.7,1,.7,0,1.2-.6,1.7-1,7.8-1.8,30.2-18.5,37.9-28.4,11.2-14.4,5.2-38.3-8.1-42.1ZM675.7,180.3c-.8.2-1.3.2-1.7.3-9.1-6.8-20.6-16.5-26.9-28.5-12.6-24.1,3.9-48.2,16-47.2,13.8,1.2,16.6,29.9,16.6,30.5.4,2.6,3.4,3,4.8,1.4.6-.7,5.9-12,13.6-15.7,13.3-6.4,23.5,16.7,14.4,31.7-5.6,9.2-29.4,25.3-36.8,27.6Z" fill="#714e67"/></g></svg>