<?xml version="1.0" encoding="UTF-8"?><svg id="b" xmlns="http://www.w3.org/2000/svg" viewBox="0 0 720 297.9"><g id="c"><path d="M382.4,105.2l-12.6.9-.8-13.8-13.2.9-.8-14.2-13.4.9v.2s0,0,0,0l-.8-14.6-52,3.6.8,14.5-12.8.9.8,14.2-12.3.8-.8-14-12.8.9-.8-14.5-52,3.6.8,14.5s0,0,0,0h0c0-.1-13.4.8-13.4.8l.8,14.2-13.2.9.8,13.8-12.5.9,3.4,61.3,12.8-.9.8,14.4,12.9-.9.8,14.6,13.4-.9v-.9c.1.2.3.4.5.6h-.5s.8,14.8.8,14.8l12.7-.9.8,14.3,12.2-.8.7,13,13.2-.9.8,13.6,13-.9.7,13.3,39.9-2.7-.7-13.5,12.9-.9-.8-13.6,13.2-.9-.7-13,12.2-.8-.8-14.3,12.7-.9-.8-13.8s0,0,0,0c.1-.2.3-.3.4-.5l13-.9-.8-14.6s0,0,0,0l12.8-.9-.8-14.4,12.8-.9-3.4-61.3ZM369.1,107.1h0c0,0,0,0,0,0h0ZM290.4,83.7s0,0,0,0h0c0,0,0,0,0,0ZM264.9,100.1h0c0,0,0,0,0,0h0Z" fill="#714e67"/><path d="M32.1,276.2c-3.7-2.4-3.6-4.4-5.6-10.7-.1-.4-.2-.6-.2-.8,0-.5,0-1.1,0-1.7,0-.8-.5-1.3-.6-1.4,0,0-1.4-.6-1.4-.6-1.6.6-2,.5-2,2.2,0,3.9.1,6.8-.6,8.8-1.4,3.7-6.9,5.8-10.7,7.6-1.1.5-1.1,1.8-.4,2.5.6.5,5,1.8,7.2,4,2.3,2.2,3.1,6.7,4.4,10.9.4,1.2,1.9,1.3,2.6.4.5-.7,1.4-7,2.9-10,1.6-3.2,5.5-4.8,7.8-6.2,1.1-.6,1.1-1.9.4-2.7-.4-.4-2-1.1-3.9-2.3Z" fill="#714e67"/><path d="M12.6,199.9c1.8-3.4,3.4-3.7,6.8-5.6.6-.4.9-1.1.8-1.7-.1-.7-.5-1-2.3-2.6-3.7-3.3-3.7-3.5-4.9-9.1-.1-.7-.2-.9-.4-1.1,0-.3-.1-.5-.6-1-.3-.4-.9-.4-1.4-.6,0,0-1.4.5-1.4.5-.4.3-.4.9-.7,1.4,0,0,0,.8,0,1.6-.3,4.9-2,4.1-7.2,8.7-.8.7-1.6,1.2-1.4,2.2,0,.6.4.8,2.9,3.8,3.2,3.7,3.5,5.1,5,7.9.5.9,1.7,1,2.3.3.3-.4,1.2-2.5,2.3-4.6Z" fill="#714e67"/><path d="M122.6,176.6c2.6,2.9,3.7,7.4,4.4,9.6.4,1.3,2.1,1.3,2.6.2.3-.6.6-4.5,1.6-6.6,1.2-2.2,4.3-2.7,7.1-3.6,1-.4,1.4-1.5,1-2.4-.2-.3-.2-.3-.9-1.3-5.6-7.6-6.1-7.4-6.5-9.8-.2-1.1,0-1.3-.6-1.9.1-.9.2-1-.4-1.8-.3-.4-.9-.5-1.3-.7,0,0-1.4.4-1.5.5-.9.7-.7.9-.7,2.1-.6,9.1-4,7.9-7.4,9.6-.2,0-1.2.6-.8,1.9.3.8,2.8,3.4,3.4,4.2Z" fill="#714e67"/><path d="M149.9,50.2c4.2,5.1,5.7,13.2,6.9,18,.4,1.5,2.6,1.4,2.8-.2.4-4-.1-8.8,1.8-12.4,3.2-5.9,14.1-10.4,17.8-12.2.8-.4,1-1.2.9-1.7-.2-1-1.3-1.4-1.4-1.4-12.1-5.8-14.8-9.2-16.3-14.5-1-3.5-2.5-12.8-2.7-13.3,0-.2-.2-.3-.2-.5,0-.4.1-.7.2-1.1.2-1,.4-1.1-.2-2-.3-.4-.9-.5-1.3-.8,0,0-1.5.3-1.5.3,0,0-.7.5-.8,1.3-1.1,7.1-1.8,11.1-3.2,14.3-2.3,5.4-7.4,8-14.4,12.5-.9.5-1,1.7-.3,2.4,3.5,3.5,9.1,7.9,11.9,11.3Z" fill="#714e67"/><path d="M664.3,19.9c4,3,6.3,10.6,6.3,10.7.4,1.1,1.8,1.2,2.4.4.5-.6,2.1-6.7,3.7-9,1.8-2.5,5.5-3.1,8-3.9,1.1-.3,1.4-1.4,1.1-2.2-.2-.4-.2-.5-2.7-2.7-4.9-4.3-5.1-4.3-7.5-11.3-.3-.9-.3-1-1.2-1.5,0,0-.1,0-.2,0-.4-.3-.9-.3-1.4-.5,0,0-1.4.7-1.4.7,0,0-.6.6-.5,1.4,0,.4.2,2.7,0,5-.9,9.3-6.3,9.1-7.5,9.2-1.3,0-1.8,1.2-1.4,2.1.4.9,1,.7,2.2,1.6Z" fill="#714e67"/><path d="M457,53c2.4,2.8,2.7,6.7,3.7,11.5.3,1.4,2.2,1.5,2.7.3.3-.7.2-6.7,1.3-9.8,1.2-3.3,4.6-5.2,7.7-7.5.7-.5.8-1.3.6-2-.1-.3-.2-.6-2.7-2.7-4-3.2-4.9-2.8-6.1-8.6-.2-1-.1-1.1-1-1.6-.2-.1-.5-.2-.7-.2,0,0,0-.1.1-.2.2-.5.3-1,.2-1.5,0,0-.9-1.2-1-1.2-1.7-.2-2-.5-2.8,1-6.9,13.2-6.9,13.2-8.2,15.7-.3.6-.2,1.2,0,1.7.4.6,4.2,2.9,6.2,5.2Z" fill="#714e67"/><path d="M417.7,275.3c-4.7-3.4-5.1-3.4-6.5-10.3,0-.5-.1-.8-.2-1,0-.4-.1-.7-.3-1-.3-.4-.9-.5-1.3-.8,0,0-1.5.4-1.5.4-.4.3-.6.8-.8,1.3,0,.1-.4,4.6-1.1,6.7-.9,2.8-3.2,3.9-6.6,5.9-1,.6-1,1.9-.3,2.5.6.6,4.7,1.6,6.4,4,1.5,2.1,2.2,7,3.2,10.3.4,1.2,1.9,1.3,2.5.4.6-.9,1.5-7,2.4-9.1,1.2-2.7,4.6-3.4,6.6-4.1,1.2-.4,1.4-1.7.9-2.5-.2-.3-.3-.4-3.4-2.7Z" fill="#714e67"/><path d="M38.9,33.8c-.1-1.1-1.2-1.5-1.8-1.8-4.5-2.4-4-3.1-6.2-6.6,0-.4,0-.7.1-1.1.1-1.1.3-1.2-.4-2-.3-.4-.9-.5-1.3-.7,0,0-1.4.5-1.5.5-.4.3-.5.9-.7,1.3,0,0,0,4.6-1.3,7.4-1.5,3.1-4,2.3-5.5,3.1-.6.3-.9,1.1-.7,1.7.2.6.3.5,2.5,2.8,3,3.1,3.1,4.2,4.7,8.3.3.7,1,1,1.6.9.9-.2,1.1-1.1,1.4-2,1.5-4.9.5-6.2,7.5-9.8,0,0,1.6-.5,1.5-2Z" fill="#714e67"/><path d="M720,159c0-.4-.6-1.3-1-2.1-4.6-8.5-4.6-8.6-6.5-18.1-.2-1,0-1.1-1-1.7,0,0-.2,0-.2-.1,0-.3-.2-.6-.7-1-.4-.3-1-.3-1.4-.5,0,0-1.4.7-1.4.7-.3.4-.4.9-.5,1.4,0,.2.8,5.7-.7,8.5-1.5,2.6-6.5,4.3-11.3,7.9-.5.4-1,1.1-.4,2.1,1.3,2.1,4.7,2.8,5.5,4.5.2.5,3,12.5,4,16.2.3,1.2,1.9,1.4,2.6.4.7-1,0-5.5.9-8,1.5-4.4,9.1-7.3,11.3-8.4.9-.5,1-1.3,1-1.8Z" fill="#714e67"/><path d="M706.7,214.8c-.2-.1-10.9-4.2-15.3-5.9,0,0,0,0,0,0,0-.8-.6-1.5-1.3-1.6-2-.3-2.3-.1-43.5-.4-3.3-.1-6.6-.2-9.9-.3v-5.6c15.1.2,30.1.6,45.2.8.3,0,1.5-.5,1.5-1.7.9-18.2,1.7-36.5,2.5-54.7,0-.7-.4-1.2-.4-1.3-.4-.5-.5-.4-10.2-6.5-6.1-3.8-6.1-3.9-6.7-4.1-2-.6-3.1-.5-8.1-.2-5.4-.1-14.5-.2-29.7-.6l-1.1-9.3h.7c.2.7.5,1.4,1,2,0,0,65.4,0,71.1,0,1,0,1.8-.8,1.8-1.8.5-19.5,1-38.9,1.5-58.4,0-.1,0-.7-.5-1.2-.1-.2-10.1-7.7-15-11.4,0-.1,0-.2,0-.3,0-.9-.8-1.7-1.7-1.7h-1.1c-.3-.2-.5-.2-.6-.2-.2,0-107.5-.9-107.7-.9-.2,0-.4.1-.5.2h-15.7c-.8-.1-1.5.5-1.5,1.4l-1.9,198.5-1.2,12.8c0,.6.3,1,.4,1.1q.1.2,7.8,6.1c13.4,10.4,13.3,10.6,14.1,10.8.3,0,113.7-1.1,123.5-1.2.7,0,1.4-.5,1.5-1.2,0-.2,1.9-56.4,2-61.3,0-.6-.3-1.2-.8-1.5ZM700.8,62.7l-9.3-7.1c3.8,1.7,7.4,4,9.3,7.1Z" fill="#714e67"/><path d="M552.6,52.2l-45.1-2c-.5,0-1,.3-1.3.7-5.9-.3-10.6-.5-11.7-.5-.7,0-1.4.5-1.5,1.2-.4,2.2,0,2.2-1.6,44.4-7.7-.1-7.7-.3-8.3-.1-.8.2-1,1-1,1.1-.6,17-1.1,34-1.7,51-7.2.7-7.3.5-7.8.7-.8.3-.9,1.1-.9,1.3.6,10.5,1.2,20.9,1.8,31.4-1.1.1-2,.2-2.7.2-.4-.5-.9-.6-1.1-.6-2.7,0-5.3,0-8,0-.4-14.9-.7-29.8-1-44.7,0,0-.2-.8-.8-1.2-.7-.5-.8-.3-8.6-1.1.6-11.8,1.2-23.6,1.8-35.3,0-.1,0-.2,0-.3-.3-.9-1.1-1.2-1.2-1.3-3.4-.5-6.7-.9-10.1-1.3,2.4-34.4,2.8-34.5,2.1-35.6-.2-.3-.4-.4-.4-.5-.2-.1-9.8-5.8-13.5-7.9-.3-.4-.7-.7-1.3-.8,0,0,0,0-.2,0-.3-.1-.5-.2-.6-.2-.2,0-28-.2-29.8-.2-.3,0-.6,0-.8.2-7,0-12.4,0-12.5,0,0,0-.6.1-1.1.6-.6.6-.4.7-.6,1.4h.8c-.3,0-.5.1-.8,0,.3,19.1.5,38.2.7,57.2,0,1.2,1.2,1.8,1.5,1.8,2.5.1,5.1.2,7.6.3,0,31.7-.4,31.9.4,32.9.6.7.7.5,7.9,3.4-.1,31.9-1.4,32-.2,35.8.3.9,1.2,1.2,1.4,1.2,2.8,0,5.5-.2,8.3-.3.6,25.7-.1,25.8.7,27.9.2.5.6.8.7.8.3.2.4.1,7.5,1.5.4,24.9-.3,25.3,1,26.2.6.4.7.2,9.3,1.2.6,15.1.1,15.2.6,16.4,0,0,.3.7.9.9,0,0,0,0,0,0,1.7,2.3,12.1,16,12.2,16.1,0,0,.5.5,1.2.4,5-.4,59.8-4.5,62.3-4.7.4,0,.6-.2.7-.2,1.2-.8.6-1.2.9-23.7,8.9-.8,8.9-.6,9.6-.9,0,0,.1,0,.2-.1,1.2-.8.6-1.2.6-25,8.9-2.3,9-2.3,9.2-2.4.4-.3.5-.7.6-.7,1.1-3.3,0-3.4-.4-29,8.3-1.6,8.4-1.3,9-1.7,0,0,.6-.3.7-1,.4-2.3,0-2.3,0-32.8,8-1.1,8-.9,8.7-1.2.5-.3.7-.8.7-.9,1-3.2-.1-3.3-1.3-41.3,5.3-2.3,6-1,9.1-3.9,0,0,.4-.3.5-.9,0-.2-1.8-48.3-2-52.5,0-.7-.7-1.4-1.4-1.4Z" fill="#714e67"/><path d="M175.9,212.9s-8.4-9-11.2-10c-.2-.1-.5-.2-.7-.2l-60.4.8-.8-145.1c0-.8-.5-1.3-.6-1.4-.2-.2-10.1-6.1-12.7-7.7,0,0,0,0,0,0-.2-.2-.3-.3-.6-.4-.4-.2-.7-.3-2.5,0-4.4.2-15.5,1.3-46.5,3.5h19.2c-2.3.4-4.8.8-7.5,1.1l-10.6.8c-.4-.6-.8-1.2-1.1-1.9-.2,0-.4,0-.6.2-.3,0-1.2.7-1.2,1.8,0,.9.3,167.6.3,200.7-.1,2.3-.2,4-.3,5,0,0,0,.6.4,1.1,3.8,4.6,7.6,9.1,11.4,13.7.4.5.9.5,1,.5,0,0,124.3-.3,124.4-.3.6,0,.9-.5.9-.6.6-.8.3-.9.2-33.9,0-26.6.3-26.8-.4-27.6ZM165.9,206.2h0s0,0,0,0c-.2-.2-.3-.3-.5-.5,0,0,0,0,0,0,.2.2.4.4.6.6l-.2-.2c-.2,0-.3,0-.5,0,.1,0,.3,0,.5,0h0ZM42.2,263.1l6.6,7.9c-2.9-1.7-5.3-4.7-6.6-7.9Z" fill="#714e67"/><path d="M213.4,125.4c-.6,1.8-.8,1.7-1.9,3.1-12.2,14.2-10,23.5-7,31.4,1.5,3.8,3.3,7.6,5,11.6.4,1.1.5,1,.6,2.2,0,.3.1,2-1,3.5,0,.1-.6.8-1.4,1.2-.2.1-1.6.9-3.4.3-.5-.2-1-.5-1.5-.9-1-1-.8-1.1-1.5-2.4-5.2-9.8-15.6-23.7-7.2-43.2,1.8-4.2,4.4-8.7,8.8-14,1.7-2.1,4-2.2,4.4-2.2.8,0,1.6.1,2.4.4,2.5,1,3.4,3.3,3.6,3.7,1,2.6.3,4.9.1,5.3Z" fill="#fff"/><path d="M206.2,207.2v.9c0,0-13.3.9-13.3.9l-.8-14.6-12.9.9-.8-14.4-12.8.9-3.4-61.3,12.5-.9-.8-13.8,13.2-.9-.8-14.2,13.4-.9h0c0,.1.8,14.7.8,14.7l-13.2.9.8,14.2-12.5.9,3.3,60.1,12.8-.9.8,14.6,12.9-.9.8,13.8ZM348.3,198.9v-.9s-13.4.9-13.4.9l.8,14.3-12.7.9.7,13-12.2.8.8,13.6-13.2.9.7,13.3-13,.9h0c0,.1-26.2,1.9-26.2,1.9l-.7-13.3-13.2.9-.8-13.6-12.2.8-.7-13-12.7.9-.8-14.3-12.9.9h-.5s.8,14.8.8,14.8l12.7-.9.8,14.3,12.2-.8.7,13,13.2-.9.8,13.6,13-.9.7,13.3,39.9-2.7-.7-13.5,12.9-.9-.8-13.6,13.2-.9-.7-13,12.2-.8-.8-14.3,12.7-.9-.8-13.8ZM382.4,105.2l-12.6.9-.8-13.8-13.2.9-.8-14.2-13.4.9v.2s.8,14.5.8,14.5l13.2-.9.8,14.2,12.5-.9h0s0,.1,0,.1l3.3,60-12.8.9.8,14.6-12.9.9.8,14.7h.4s13-.9,13-.9l-.8-14.6h0s0,0,0,0l12.8-.9-.8-14.4,12.8-.9-3.4-61.3ZM199.9,90l51.4-3.5.8,14.5,12.7-.9h0s0,.1,0,.1l.8,14,13.4-.9h0c0-.1,0-.1,0-.1l-.8-14.2,12.8-.9-.8-14.4h0c0,0,0,0,0,0l51.3-3.5h0c0-.1-.8-14.7-.8-14.7l-52,3.6.8,14.5-12.8.9.8,14.2-12.3.8-.8-14-12.8.9-.8-14.5-52,3.6.8,14.5v.2ZM100.6,203.5l-1.4-144.1c-3-.1-6-.3-9-.5l1.9,144.7h8.5ZM173.5,214.5c-.2-1.4-4.7-5.5-7.4-8.1l-.2-.2c-.2,0-.3,0-.5,0-.1,10.4-.6,52.6-.7,52.9-.1.6-.6,1-1.1,1.1,0,0-106.7.8-122.1.9.2.7.4,1.4.6,2.1l6.6,7.9c1,.6,2,1,3,1.2h121.8c-3-19,2.9-38.7-.1-57.7ZM165.9,206.2h0s0,0,0,0ZM440.1,62.2c-3.4-.7-6.8-1.4-10.2-2.1-.4,11.9-.9,23.8-1.3,35.7,3.1.4,6.1.8,9.2,1.2,0-2.3.7-9.3,2.4-34.9ZM447.6,136.4c.4,14.9.6,29.8,1,44.7,2.7,0,5.3,0,8,0,0,0,.8.2,1.2.8.4.7.2.8,1,23.2h6.6c-.3-6.8-.6-13.8-.9-20.7-1.6,0-3.3,0-4.9,0-.1,0-1-.3-1.3-1.1,0,0,0-.2,0-.3-.4-14.9-.7-29.9-1.1-44.8-2.7-.3-5.5-.6-8.2-.9-.1,0-1-.4-1.2-1.2,0,0,0-.2,0-.3.5-11.8,1.1-23.5,1.7-35.3-3.1-.4-6.1-.8-9.2-1.2-.5,11.6-1.2,23.2-1.7,34.8,7.8.9,7.9.7,8.6,1.1.6.4.8,1.1.8,1.2ZM544,108.9c.3-.2.3-.2,9.1-3.9l-2-49.9-10.1-.4c.1,7,.9,44.8.8,45,0,0,0,.6-.6,1-1.8,1.2-5.2,1.4-5.5,3.5-2.7,18.9,2.9,19.2-.5,38.1,0,0-.1.6-.6.9-3.3,2.1-3.7.9-9,2.3-.4,34.5,0,34.8-.8,35.6-.1.1-.2.2-.4.3-.7.3-.7.1-9.3,1.4.6,29.1.9,29.2.3,30,0,0-.3.4-.7.5-.7.2-.7,0-8.6,0-.3,25,.3,25.4-.9,26.2,0,0-.1,0-.2.1-.6.2-.6,0-8.1.4-1.7,19.1-1.4,19.2-2.1,20-1,1.1-1.3.5-51.3.1l62.2,8.9c.3-22.4-.3-22.9.9-23.6,0,0,.1,0,.2-.1.7-.3.8,0,9.6-.9.1-23.6-.5-24,.7-24.8,0,0,.1,0,.2-.1.7-.3.7-.2,9-2.3-.3-25.9-1.3-26-.4-29.1.2-.6.6-.8.7-.8.6-.3.7-.1,9-1.7,0-32.5-.5-32.8.4-33.7.1-.1.2-.2.4-.3.6-.3.7,0,8.6-1.2-1.2-37.5-2.4-37.6-1.3-41,.1-.4.3-.6.4-.6ZM630.2,123.2c-.2-.7-.5-1.4-1-2l.2,2h.7ZM627,132.4c.1-3.9.3-9.3.3-9.6.2-.9,1-1.4,1.3-1.5.2,0,.4,0,.7-.1l71.2.4c-3.9-18.2,5.5-37.6,1.6-55.8-.2-1.1-.7-2.2-1.3-3.1l-9.3-7.1c-.5-.2-.9-.4-1.4-.6-.2,11.4-.8,49.9-.8,50.1-.1.7-.7,1.3-1.4,1.4q-.3,0-71.1,3.4c-.4,0-1,.4-1.3,0-.5-.5-.8-1.2-1-1.9h-.9s1.8,24,1.8,24c4.2.1,8.1.2,11.7.3ZM691.3,215.7c-.3,14.4-1,45.7-1,45.9-.1.7-.8,1.2-1.5,1.2-7.7,0-75.4.5-109.2.7l122.9,12.3,1.8-58.4c-4.3-.5-8.7-1-13-1.7ZM666.9,187.1c-15.3,0-30.7,0-46,0l-.6,19.5c4.7,0,9,0,13,.1,0-2.6,0-7.7.1-7.9.1-.6.6-1.2,1.2-1.4,3.5-1.1,3.6,0,45.3.6l2.3-51.9c-5-.7-8.1-6.6-12.6-8.5-.2,10.2-1.1,47.8-1.1,48-.2,1-1.2,1.4-1.4,1.4Z" fill="#565248"/><path d="M369.1,107.1l-12.5.9-.8-14.2-13.2.9-.8-14.5s0,0,0,0h0c0,.1-51.3,3.6-51.3,3.6,0,0,0,0,0,0l.8,14.4-12.8.9.8,14.2h0s0,.1,0,.1l-13.4.9-.8-14s0,0,0-.1l-12.7.9-.8-14.5-51.4,3.5v-.2s0,0,0,0l.8,14.6-13.2.9.8,14.2-12.5.9,3.3,60.1,12.8-.9.8,14.6,12.9-.9.8,13.8c.2.2.4.4.6.6l12.9-.9.8,14.3,12.7-.9.7,13,12.2-.8.8,13.6,13.2-.9.7,13.3,26.2-1.8h0c0-.1,13-1,13-1l-.7-13.3,13.2-.9-.8-13.6,12.2-.8-.7-13,12.7-.9-.8-14.3,13.4-.9v.9c0,0,0,0,.1,0,.1-.2.3-.3.4-.5h-.4s-.8-14.7-.8-14.7l12.9-.9-.8-14.6,12.8-.9-3.3-60s0,0,0-.1ZM213.4,125.4c-.6,1.8-.8,1.7-1.9,3.1-12.2,14.2-10,23.5-7,31.4,1.5,3.8,3.3,7.6,5,11.6.4,1.1.5,1,.6,2.2,0,.3.1,2-1,3.5,0,.1-.6.8-1.4,1.2-.2.1-1.6.9-3.4.3-.5-.2-1-.5-1.5-.9-1-1-.8-1.1-1.5-2.4-5.2-9.8-15.6-23.7-7.2-43.2,1.8-4.2,4.4-8.7,8.8-14,1.7-2.1,4-2.2,4.4-2.2.8,0,1.6.1,2.4.4,2.5,1,3.4,3.3,3.6,3.7,1,2.6.3,4.9.1,5.3ZM360.9,182.7h0s0,0,0,0h0ZM613.5,108.2v-2c.3.5.6,1.2.9,1.9h-.9ZM688.2,210.4v4.8c0,0-.9,44.5-.9,44.5l-125.1,1v-11.2c.1,0,.3-17.3.3-17.3l.2-17.5,1.7-162.3,13.3.2h1.5s1.5,0,1.5,0l106,1.2-1,49.2-72.3,3.1c-.2,0-.4,0-.6.1-.3,0-1.1.6-1.2,1.5,0,.4-.1,24.1-.1,26.2,0,.7.4,1.2.4,1.2.8.9,1.2,1,15.1,1.2,5.2,0,12.4.2,22.2.4,4.9,0,10.4.2,16.7.3l-.9,46.4c-15.3,0-30.6,0-45.9.2-.1,0-1,.3-1.3,1.1-.5,1.3-.8,21.6-.8,23.4,0,.9.6,1.5,1.2,1.6,2.8,1,3.6.4,34.5.4,9.1,0,20.7,0,35.7.1Z" fill="#fe6d68"/><path d="M100.7,206.4l62-.9v.3s-.7,51.5-.7,51.5l-120.5.6c0-3,0-11.9,0-24.3,0-2.3,0-4.7,0-7.2,0-9.2,0-19.9,0-31.4.1-59.5.3-139,.3-139-.3-.7-.7-1.3-1.1-1.9l10.6-.8,12.5-.9h9.1c0,0,13.3.2,13.3.2v6.2c.1,0,2.8,146.4,2.8,146.4,0,.8.6,1.5,1.5,1.4h9.9ZM508.8,53.9h-1.5c0,0-1.9-.1-1.9-.1l-9.6-.4c-1.5,44-.9,44.4-2,45.3-.3.3-.7.3-.7.3-.6,0-.6,0-8-.2-1.5,47.5-.4,47.7-1.7,51.2-.2.6-.8.9-.9.9-3.6,1.5-3.8.3-7.7.7.6,10.5,1.3,21,1.8,31.5,0,0-.1.8-.7,1.2-.5.4-.7.3-4.7.6-.6,0-1.2,0-1.9.2-.5,0-1,0-1.5.1.7,18.3,2,18.4.9,22.3,0,0,0,.1,0,.2-.3.6-.9,1.1-1.5,1.1-3.3,0-6.7,0-10-.1-.8,0-1.2-.5-1.3-.6-.8-.9-.4-1.1-1.2-23.4-2.7,0-5.4,0-8,0-.1,0-1-.3-1.3-1.1,0,0,0-.2,0-.3-.4-14.9-.7-29.9-1.1-44.8-2.7-.3-5.5-.6-8.2-.9-.1,0-1-.4-1.2-1.2,0,0,0-.2,0-.3.5-11.8,1.1-23.5,1.7-35.3-3.4-.5-6.8-.8-10.2-1.3-.3,0-1.4-.7-1.3-1.8.4-12.7.9-25.4,1.3-38.1,0-1.5.1-3.1.2-4.6l-28.3-1.3h-2c0,0-10.7-.6-10.7-.6.8.4,1.7,1,1.8,1.9.8,17.8-.3,35.6.5,53.4,2.5.1,5.1.2,7.6.4,0,0,.7.2,1,.7.8,1,.4,1.2.3,33.5,2.5,1,5,2,7.5,3,.3.1.8.9.8,1.2,0,11.7-.3,23.4-.3,35,4.3,0,4.3-1.4,8.5-.2,0,0,.5.1.8.5.1.1.2.3.3.6.2.6.3,1,.3,1.8.1,2.2-.1,7.4.2,26.4,7,1.4,7.1,1.2,7.7,1.7.4.3.5.9.5.9.1,8.4.1,16.7.2,25.1,4.7.6,4.9-.8,9,1.1.6.3.8.8.8.9.4,1.2,0,1.3.5,14,0,.7,0,1.5,0,2.3h.4s1.8,0,1.8,0l56.6.5c1.7-19,1.4-19.1,2.1-19.9,0,0,.2-.3.6-.4.3-.1.3,0,8-.4.3-22.2-.7-22.3.4-25.5.2-.6.6-.8.7-.8.6-.3.6-.1,8.8,0-.5-28.9-.8-29-.3-29.8,0,0,.2-.3.5-.4.3-.1.3,0,9.3-1.4.4-31.7-.6-31.8.5-35,.2-.5.5-.7.6-.7.6-.4.7-.2,9-2.3.5-34.7-.6-34.8.5-38,.1-.3.3-.5.4-.6.4-.4.4-.3,5.7-3.7l-.9-43.5-29.3-1.3ZM157.9,23c-.2-.8-.3-1.4-.4-1.9-2.5,8.7-5.7,11-15.9,17.1,6.1,6,8.9,7.8,11.6,11.8,1.8,2.6,3.1,5.9,4.1,9.3.4-2.8,1.2-5.1,3.4-7.6,3.3-3.8,9-7,14-9.5-12-5.9-14.8-9.7-16.8-19ZM10.8,186.9c-.1.1-.2.3-.3.4-1.7,2.1-3,2.1-6.9,5.2,2.7,3.4,2.8,3.5,3.7,4.8.6.9,1.2,2,1.8,3.1,2-4.5,2.9-5.5,6.6-7.7-2.4-2-3.8-3.2-4.9-5.7ZM25.1,273.3c-.3.6-.6,1.2-.9,1.7-1.8,2.7-5.2,4.5-8.8,6,1.8.9,3.6,1.9,4.8,3.3,1.5,1.7,2.3,3.5,3.3,6.6,1.4-6,2.6-7.9,7.9-11.2-3.6-2-5-3.5-6.2-6.5ZM127.9,180.3c.4-1.2.8-2.3,1.6-3.2,1.3-1.5,3.2-2.4,5.6-3.2-2.8-3.4-4.4-5.2-5.3-6.5-1.7,3.9-4.3,4.7-6.6,5.4,1.5,1.9,2.3,2.4,3.4,4.5.5,1,1,2,1.4,3ZM29.7,30.8c-1.5,4-3.7,5-5.6,5.5,1.1,1.2,2.1,2.3,2.7,3.4.4.6.8,1.4,1.1,2.2.3-1.4.6-2.5,1.5-3.8,1-1.5,2.7-2.8,4.2-3.8-2-1.1-2.9-2-3.9-3.4ZM409.3,272c-1.1,2.7-2.6,4-5.8,5.8,1.8,1,3.4,2.1,4.5,3.9.9,1.4,1.2,2.7,1.8,5.2.4-2.2.8-3.6,1.8-5,1.1-1.6,2.8-2.6,4.5-3.4-3.7-2.5-5.5-3.6-6.9-6.5ZM460.2,52.5c.5.9,1,1.8,1.3,2.9.8-3.9,2.6-5.7,7.2-9.4-3.3-2.6-3.9-2.6-5.4-4.3-.2-.2-1.6-1.6-2.8-6-.3.4-.6.9-.9,1.5l-5.4,9.3c2.6,2.1,4.7,3.9,6,5.9ZM674.4,9c-.6,2.6-1.3,4.1-1.6,4.5-1.6,3.1-3.7,4.5-5.6,5.1,2,2,3.5,4.8,4.6,7.3,1.2-3.4,2-5.5,3.6-7.1,1.4-1.4,3.4-2.3,5.4-3-3.4-2.8-5-4-6.5-6.9ZM710.3,146.6c-.3.7-.7,1.3-1.1,1.9-2.1,2.9-5.2,3.6-10.7,7,1.4.9,3.1,1.6,4.2,3.5.5,1,.4,1.3,2.3,9,.3-.7.6-1.5,1.2-2.3,2.2-3.1,6.4-5.4,9.8-7.1-3.3-5.8-4.5-7.8-5.7-12Z" fill="#ffb1be"/><path d="M175.9,212.9s-8.4-9-11.2-10c-.2-.1-.5-.2-.7-.2l-60.4.8-.8-145.1c0-.8-.5-1.3-.6-1.4-.2-.2-10.1-6.1-12.7-7.7,0,0,0,0,0,0-.2-.2-.3-.3-.6-.4-.4-.2-.7-.3-2.5,0-4.4.2-15.5,1.3-46.5,3.5h19.2c-2.3.4-4.8.8-7.5,1.1l12.5-.9h9.1c0,0,13.3.2,13.3.2v6.2c.1,0,2.8,146.4,2.8,146.4,0,.8.6,1.5,1.5,1.4h9.9c0-.1,62-1,62-1v.3s-.7,51.5-.7,51.5l-120.5.6c0-3,0-11.9,0-24.3,0-2.3,0-4.7,0-7.2,0-9.2,0-19.9,0-31.4.1-59.5.3-139,.3-139-.3-.7-.7-1.3-1.1-1.9-.4-.6-.8-1.2-1.1-1.9-.2,0-.4,0-.6.2-.3,0-1.2.7-1.2,1.8,0,.9.3,167.6.3,200.7-.1,2.3-.2,4-.3,5,0,0,0,.6.4,1.1,3.8,4.6,7.6,9.1,11.4,13.7.4.5.9.5,1,.5,0,0,124.3-.3,124.4-.3.6,0,.9-.5.9-.6.6-.8.3-.9.2-33.9,0-26.6.3-26.8-.4-27.6ZM92.2,203.6l-1.9-144.7c3,.2,6,.3,9,.5l1.4,144.1h-8.5ZM42.2,263.1c-.3-.7-.5-1.4-.6-2.1,15.3-.1,122-.9,122.1-.9.6-.1,1-.6,1.1-1.1,0-.3.6-42.4.7-52.9.1,0,.3,0,.5,0,0,0,0,0,0,0-.2-.2-.3-.3-.5-.5,0,0,0,0,0,0,.2.2.4.4.6.6,2.7,2.7,7.2,6.8,7.4,8.1,3,19-2.9,38.7.1,57.8H51.8c-1-.3-2.1-.7-3-1.2-2.9-1.7-5.3-4.7-6.6-7.9ZM552.6,52.2l-45.1-2c-.5,0-1,.3-1.3.7-5.9-.3-10.6-.5-11.7-.5-.7,0-1.4.5-1.5,1.2-.4,2.2,0,2.2-1.6,44.4-7.7-.1-7.7-.3-8.3-.1-.8.2-1,1-1,1.1-.6,17-1.1,34-1.7,51-7.2.7-7.3.5-7.8.7-.8.3-.9,1.1-.9,1.3.6,10.5,1.2,20.9,1.8,31.4-1.1.1-2,.2-2.7.2-.4-.5-.9-.6-1.1-.6-2.7,0-5.3,0-8,0-.4-14.9-.7-29.8-1-44.7,0,0-.2-.8-.8-1.2-.7-.5-.8-.3-8.6-1.1.6-11.8,1.2-23.6,1.8-35.3,0-.1,0-.2,0-.3-.3-.9-1.1-1.2-1.2-1.3-3.4-.5-6.7-.9-10.1-1.3,2.4-34.4,2.8-34.5,2.1-35.6-.2-.3-.4-.4-.4-.5-.2-.1-9.8-5.8-13.5-7.9-.3-.4-.7-.7-1.3-.8,0,0,0,0-.2,0-.3-.1-.5-.2-.6-.2-.2,0-28-.2-29.8-.2-.3,0-.6,0-.8.2-7,0-12.4,0-12.5,0,0,0-.6.1-1.1.6-.6.6-.4.7-.6,1.4h.8c-.3,0-.5.1-.8,0,.3,19.1.5,38.2.7,57.2,0,1.2,1.2,1.8,1.5,1.8,2.5.1,5.1.2,7.6.3,0,31.7-.4,31.9.4,32.9.6.7.7.5,7.9,3.4-.1,31.9-1.4,32-.2,35.8.3.9,1.2,1.2,1.4,1.2,2.8,0,5.5-.2,8.3-.3.6,25.7-.1,25.8.7,27.9.2.5.6.8.7.8.3.2.4.1,7.5,1.5.4,24.9-.3,25.3,1,26.2.6.4.7.2,9.3,1.2.6,15.1.1,15.2.6,16.4,0,0,.3.7.9.9,0,0,0,0,0,0,1.7,2.3,12.1,16,12.2,16.1,0,0,.5.5,1.2.4,5-.4,59.8-4.5,62.3-4.7.4,0,.6-.2.7-.2,1.2-.8.6-1.2.9-23.7,8.9-.8,8.9-.6,9.6-.9,0,0,.1,0,.2-.1,1.2-.8.6-1.2.6-25,8.9-2.3,9-2.3,9.2-2.4.4-.3.5-.7.6-.7,1.1-3.3,0-3.4-.4-29,8.3-1.6,8.4-1.3,9-1.7,0,0,.6-.3.7-1,.4-2.3,0-2.3,0-32.8,8-1.1,8-.9,8.7-1.2.5-.3.7-.8.7-.9,1-3.2-.1-3.3-1.3-41.3,5.3-2.3,6-1,9.1-3.9,0,0,.4-.3.5-.9,0-.2-1.8-48.3-2-52.5,0-.7-.7-1.4-1.4-1.4ZM544,108.9s-.3.3-.4.6c-1.1,3.4.1,3.5,1.3,41-7.9,1.1-8,.9-8.6,1.2-.1,0-.3.2-.4.3-.9.9-.4,1.1-.4,33.7-8.3,1.6-8.4,1.3-9,1.7,0,0-.5.3-.7.8-.9,3.1,0,3.2.4,29.1-8.3,2.1-8.3,2-9,2.3,0,0-.1,0-.2.1-1.2.8-.6,1.2-.7,24.8-8.9.8-8.9.6-9.6.9,0,0-.1,0-.2.1-1.2.8-.6,1.2-.9,23.6l-62.2-8.9c50,.4,50.3.9,51.3-.1.7-.8.4-.9,2.1-20,7.5-.4,7.5-.2,8.1-.4,0,0,.2,0,.2-.1,1.3-.8.6-1.2.9-26.2,7.9,0,8,.2,8.6,0,.4-.1.7-.5.7-.5.6-.8.2-.9-.3-30,8.5-1.3,8.6-1.1,9.3-1.4.1,0,.2-.2.4-.3.9-.9.4-1.1.8-35.6,5.3-1.3,5.7-.2,9-2.3.5-.3.6-.8.6-.9,3.4-18.8-2.2-19.1.5-38.1.3-2.2,3.7-2.4,5.5-3.5.5-.3.6-.9.6-1,0-.2-.7-38-.8-45l10.1.4,2,49.9c-8.8,3.7-8.8,3.6-9.1,3.9ZM414.2,184.6c0-.8-.1-1.3-.3-1.8,0-.2-.2-.4-.3-.6-.3-.4-.7-.5-.8-.5-4.1-1.2-4.2,0-8.5.2,0-11.7.2-23.4.3-35,0-.3-.5-1.1-.8-1.2-2.5-1-5-2-7.5-3,0-32.3.5-32.5-.3-33.5-.4-.5-1-.6-1-.7-2.5-.1-5.1-.2-7.6-.4-.8-17.8.3-35.6-.5-53.4,0-.9-1-1.5-1.8-1.9l10.7.5h2c0,0,28.3,1.4,28.3,1.4,0,1.5-.1,3.1-.2,4.6-.4,12.7-.9,25.4-1.3,38.1,0,1.2,1,1.8,1.3,1.8,3.4.5,6.8.8,10.2,1.3-.5,11.8-1.1,23.5-1.7,35.3,0,.1,0,.2,0,.3.3.9,1.1,1.2,1.2,1.2,2.7.3,5.5.6,8.2.9.4,14.9.7,29.9,1.1,44.8,0,0,0,.2,0,.3.3.8,1.2,1.1,1.3,1.1,2.7,0,5.4,0,8,0,.8,22.3.4,22.5,1.2,23.4,0,0,.5.6,1.3.6,3.3,0,6.7,0,10,.1.7,0,1.3-.4,1.5-1.1,0,0,0-.1,0-.2,1.1-3.9-.2-4-.9-22.3.5,0,1,0,1.5-.1.7,0,1.3-.1,1.9-.2,4-.3,4.2-.3,4.7-.6.6-.4.7-1.1.7-1.2-.6-10.5-1.3-21-1.8-31.5,3.9-.4,4.1.8,7.7-.7,0,0,.6-.3.9-.9,1.3-3.5.1-3.7,1.7-51.2,7.4.2,7.4.3,8,.2,0,0,.4,0,.7-.3,1.2-.9.6-1.3,2-45.3l9.6.4h1.9c0,0,1.5.1,1.5.1l29.3,1.3.9,43.5c-5.2,3.4-5.3,3.3-5.7,3.7,0,0-.3.2-.4.6-1.1,3.2,0,3.3-.5,38-8.3,2.1-8.3,1.9-9,2.3,0,0-.4.3-.6.7-1.1,3.2,0,3.3-.5,35-9,1.3-9,1.3-9.3,1.4-.3.2-.5.4-.5.4-.6.8-.2.9.3,29.8-8.2,0-8.2-.2-8.8,0,0,0-.5.3-.7.8-1.1,3.1,0,3.3-.4,25.5-7.7.3-7.7.3-8,.4-.3.1-.5.4-.6.4-.7.7-.4.9-2.1,19.9l-56.6-.5h-1.8s-.4,0-.4,0c0-.8,0-1.6,0-2.3-.4-12.7,0-12.8-.5-14,0,0-.2-.6-.8-.9-4.1-1.9-4.3-.5-9-1.1-.1-8.4-.1-16.7-.2-25.1,0,0-.1-.6-.5-.9-.6-.5-.7-.3-7.7-1.7-.4-19-.1-24.1-.2-26.4ZM464.5,184.4c.3,6.9.6,13.9.9,20.8h-6.6c-.8-22.6-.6-22.6-1-23.3-.4-.6-1.1-.8-1.2-.8-2.7,0-5.3,0-8,0-.4-14.9-.6-29.8-1-44.7,0,0-.2-.8-.8-1.2-.7-.5-.8-.3-8.6-1.1.6-11.6,1.2-23.2,1.7-34.8,3.1.4,6.2.8,9.2,1.2-.5,11.8-1.1,23.5-1.7,35.3,0,.1,0,.2,0,.3.3.9,1.1,1.2,1.2,1.2,2.7.3,5.5.6,8.2.9.4,14.9.7,29.9,1.1,44.8,0,0,0,.2,0,.3.3.8,1.2,1.1,1.3,1.1,1.6,0,3.3,0,4.9,0ZM437.7,97.1c-3.1-.4-6.1-.8-9.2-1.2.4-11.9.9-23.8,1.3-35.7,3.4.7,6.8,1.4,10.2,2.1-1.7,25.6-2.4,32.5-2.4,34.9ZM706.7,214.8c-.2-.1-10.9-4.2-15.3-5.9,0,0,0,0,0,0,0-.8-.6-1.5-1.3-1.6-2-.3-2.3-.1-43.5-.4-3.3-.1-6.6-.2-9.9-.3v-5.6c15.1.2,30.1.6,45.2.8.3,0,1.5-.5,1.5-1.7.9-18.2,1.7-36.5,2.5-54.7,0-.7-.4-1.2-.4-1.3-.4-.5-.5-.4-10.2-6.5-6.1-3.8-6.1-3.9-6.7-4.1-2-.6-3.1-.5-8.1-.2-5.4-.1-14.5-.2-29.7-.6l-1.1-9.3-.2-2c-.2,0-.4,0-.7.1-.3,0-1.1.5-1.3,1.5,0,.3-.2,5.7-.3,9.6-3.6,0-7.5-.2-11.7-.3l-1.8-24v-2c-.4,0-.6,0-.8.1-.3,0-1.1.6-1.2,1.5,0,.4-.1,24.1-.1,26.2,0,.7.4,1.2.4,1.2.8.9,1.2,1,15.1,1.2,5.2,0,12.4.2,22.2.4,4.9,0,10.4.2,16.7.3l-.9,46.4c-15.3,0-30.6,0-45.9.2-.1,0-1,.3-1.3,1.1-.5,1.3-.8,21.6-.8,23.4,0,.9.6,1.5,1.2,1.6,2.8,1,3.6.4,34.5.4,9.1,0,20.7,0,35.7.1v4.8c0,0-.9,44.5-.9,44.5l-125.1,1v-11.2c.1,0,.3-17.3.3-17.3l.2-17.5,1.7-162.3,13.3.2h1.5s1.5,0,1.5,0l106,1.2-1,49.2-72.3,3.1c.5.5.8,1.2,1,1.9.3.7.6,1.4,1,1.9.3.3.9,0,1.3,0q70.7-3.4,71.1-3.4c.7-.2,1.3-.7,1.4-1.4,0-.2.7-38.7.8-50.1.5.2.9.4,1.4.6,3.8,1.7,7.4,4,9.3,7.1.6,1,1.1,2,1.3,3.1,3.9,18.2-5.5,37.6-1.6,55.8l-71.2-.4c.5.6.7,1.3,1,2,.2.7.5,1.4,1,2,0,0,65.4,0,71.1,0,1,0,1.8-.8,1.8-1.8.5-19.5,1-38.9,1.5-58.4,0-.1,0-.7-.5-1.2-.1-.2-10.1-7.7-15-11.4,0-.1,0-.2,0-.3,0-.9-.8-1.7-1.7-1.7h-1.1c-.3-.2-.5-.2-.6-.2-.2,0-107.5-.9-107.7-.9-.2,0-.4.1-.5.2h-15.7c-.8-.1-1.5.5-1.5,1.4l-1.9,198.5-1.2,12.8c0,.6.3,1,.4,1.1q.1.2,7.8,6.1c13.4,10.4,13.3,10.6,14.1,10.8.3,0,113.7-1.1,123.5-1.2.7,0,1.4-.5,1.5-1.2,0-.2,1.9-56.4,2-61.3,0-.6-.3-1.2-.8-1.5ZM688.8,262.8c.7,0,1.4-.5,1.5-1.2,0-.2.7-31.4,1-45.9,4.3.6,8.6,1.2,13,1.7l-1.8,58.4-122.9-12.3c33.8-.2,101.6-.6,109.2-.7ZM620.2,206.6l.6-19.5c15.3,0,30.7,0,46,0,.2,0,1.2-.4,1.4-1.4,0-.3.9-37.8,1.1-48,4.5,2,7.6,7.8,12.6,8.5l-2.3,51.9c-41.7-.6-41.8-1.7-45.3-.6-.6.2-1.1.7-1.2,1.4,0,.2,0,5.3-.1,7.9-4,0-8.4,0-13-.1ZM178.8,40.3c-12.1-5.8-14.8-9.2-16.3-14.5-1-3.5-2.5-12.8-2.7-13.3,0-.2-.2-.3-.2-.5,0-.4.1-.7.2-1.1.2-1,.4-1.1-.2-2-.3-.4-.9-.5-1.3-.8,0,0-1.5.3-1.5.3,0,0-.7.5-.8,1.3-1.1,7.1-1.8,11.1-3.2,14.3-2.3,5.4-7.4,8-14.4,12.5-.9.5-1,1.7-.3,2.4,3.5,3.5,9.1,7.9,11.9,11.3,4.2,5.1,5.7,13.2,6.9,18,.4,1.5,2.6,1.4,2.8-.2.4-4-.1-8.8,1.8-12.4,3.2-5.9,14.1-10.4,17.8-12.2.8-.4,1-1.2.9-1.7-.2-1-1.3-1.4-1.4-1.4ZM160.7,51.5c-2.2,2.5-3,4.9-3.4,7.6-1.1-3.4-2.4-6.7-4.1-9.3-2.7-4-5.4-5.8-11.6-11.8,10.2-6.1,13.4-8.3,15.9-17.1.1.5.2,1.2.4,1.9,2.1,9.3,4.8,13.1,16.8,19-5,2.5-10.8,5.7-14,9.5ZM12.6,199.9c1.8-3.4,3.4-3.7,6.8-5.6.6-.4.9-1.1.8-1.7-.1-.7-.5-1-2.3-2.6-3.7-3.3-3.7-3.5-4.9-9.1-.1-.7-.2-.9-.4-1.1,0-.3-.1-.5-.6-1-.3-.4-.9-.4-1.4-.6,0,0-1.4.5-1.4.5-.4.3-.4.9-.7,1.4,0,0,0,.8,0,1.6-.3,4.9-2,4.1-7.2,8.7-.8.7-1.6,1.2-1.4,2.2,0,.6.4.8,2.9,3.8,3.2,3.7,3.5,5.1,5,7.9.5.9,1.7,1,2.3.3.3-.4,1.2-2.5,2.3-4.6ZM7.3,197.2c-.9-1.3-1-1.4-3.7-4.8,3.9-3,5.2-3,6.9-5.2.1-.1.2-.3.3-.4,1.1,2.5,2.5,3.7,4.9,5.7-3.7,2.2-4.6,3.3-6.6,7.7-.6-1.1-1.2-2.2-1.8-3.1ZM32.1,276.2c-3.7-2.4-3.6-4.4-5.6-10.7-.1-.4-.2-.6-.2-.8,0-.5,0-1.1,0-1.7,0-.8-.5-1.3-.6-1.4,0,0-1.4-.6-1.4-.6-1.6.6-2,.5-2,2.2,0,3.9.1,6.8-.6,8.8-1.4,3.7-6.9,5.8-10.7,7.6-1.1.5-1.1,1.8-.4,2.5.6.5,5,1.8,7.2,4,2.3,2.2,3.1,6.7,4.4,10.9.4,1.2,1.9,1.3,2.6.4.5-.7,1.4-7,2.9-10,1.6-3.2,5.5-4.8,7.8-6.2,1.1-.6,1.1-1.9.4-2.7-.4-.4-2-1.1-3.9-2.3ZM20.1,284.4c-1.2-1.4-3-2.4-4.8-3.3,3.6-1.6,7-3.4,8.8-6,.4-.6.7-1.1.9-1.7,1.3,3,2.6,4.5,6.2,6.5-5.3,3.3-6.5,5.2-7.9,11.2-1-3.1-1.8-4.9-3.3-6.6ZM122.6,176.6c2.6,2.9,3.7,7.4,4.4,9.6.4,1.3,2.1,1.3,2.6.2.3-.6.6-4.5,1.6-6.6,1.2-2.2,4.3-2.7,7.1-3.6,1-.4,1.4-1.5,1-2.4-.2-.3-.2-.3-.9-1.3-5.6-7.6-6.1-7.4-6.5-9.8-.2-1.1,0-1.3-.6-1.9.1-.9.2-1-.4-1.8-.3-.4-.9-.5-1.3-.7,0,0-1.4.4-1.5.5-.9.7-.7.9-.7,2.1-.6,9.1-4,7.9-7.4,9.6-.2,0-1.2.6-.8,1.9.3.8,2.8,3.4,3.4,4.2ZM129.5,177.1c-.7.9-1.2,2-1.6,3.2-.4-1-.9-2-1.4-3-1.2-2.1-1.9-2.7-3.4-4.5,2.3-.7,4.9-1.5,6.6-5.4,1,1.3,2.6,3.1,5.3,6.5-2.3.8-4.3,1.7-5.6,3.2ZM38.9,33.8c-.1-1.1-1.2-1.5-1.8-1.8-4.5-2.4-4-3.1-6.2-6.6,0-.4,0-.7.1-1.1.1-1.1.3-1.2-.4-2-.3-.4-.9-.5-1.3-.7,0,0-1.4.5-1.5.5-.4.3-.5.9-.7,1.3,0,0,0,4.6-1.3,7.4-1.5,3.1-4,2.3-5.5,3.1-.6.3-.9,1.1-.7,1.7.2.6.3.5,2.5,2.8,3,3.1,3.1,4.2,4.7,8.3.3.7,1,1,1.6.9.9-.2,1.1-1.1,1.4-2,1.5-4.9.5-6.2,7.5-9.8,0,0,1.6-.5,1.5-2ZM29.4,38c-.9,1.3-1.2,2.4-1.5,3.8-.4-.8-.8-1.5-1.1-2.2-.6-1.1-1.6-2.2-2.7-3.4,1.9-.4,4.1-1.5,5.6-5.5,1,1.4,1.9,2.3,3.9,3.4-1.5,1-3.2,2.3-4.2,3.8ZM417.7,275.3c-4.7-3.4-5.1-3.4-6.5-10.3,0-.5-.1-.8-.2-1,0-.4-.1-.7-.3-1-.3-.4-.9-.5-1.3-.8,0,0-1.5.4-1.5.4-.4.3-.6.8-.8,1.3,0,.1-.4,4.6-1.1,6.7-.9,2.8-3.2,3.9-6.6,5.9-1,.6-1,1.9-.3,2.5.6.6,4.7,1.6,6.4,4,1.5,2.1,2.2,7,3.2,10.3.4,1.2,1.9,1.3,2.5.4.6-.9,1.5-7,2.4-9.1,1.2-2.7,4.6-3.4,6.6-4.1,1.2-.4,1.4-1.7.9-2.5-.2-.3-.3-.4-3.4-2.7ZM411.7,281.9c-1,1.4-1.4,2.9-1.8,5-.6-2.5-.9-3.8-1.8-5.2-1.1-1.8-2.7-3-4.5-3.9,3.2-1.8,4.7-3.1,5.8-5.8,1.4,2.9,3.3,4,6.9,6.5-1.7.8-3.4,1.8-4.5,3.4ZM457,53c2.4,2.8,2.7,6.7,3.7,11.5.3,1.4,2.2,1.5,2.7.3.3-.7.2-6.7,1.3-9.8,1.2-3.3,4.6-5.2,7.7-7.5.7-.5.8-1.3.6-2-.1-.3-.2-.6-2.7-2.7-4-3.2-4.9-2.8-6.1-8.6-.2-1-.1-1.1-1-1.6-.2-.1-.5-.2-.7-.2,0,0,0-.1.1-.2.2-.5.3-1,.2-1.5,0,0-.9-1.2-1-1.2-1.7-.2-2-.5-2.8,1-6.9,13.2-6.9,13.2-8.2,15.7-.3.6-.2,1.2,0,1.7.4.6,4.2,2.9,6.2,5.2ZM459.6,37.2c.4-.6.7-1.1.9-1.5,1.2,4.3,2.6,5.8,2.8,6,1.5,1.7,2.2,1.7,5.4,4.3-4.6,3.6-6.4,5.5-7.2,9.4-.4-1.1-.8-2-1.3-2.9-1.3-2.1-3.4-3.9-6-5.9l5.4-9.3ZM664.3,19.9c4,3,6.3,10.6,6.3,10.7.4,1.1,1.8,1.2,2.4.4.5-.6,2.1-6.7,3.7-9,1.8-2.5,5.5-3.1,8-3.9,1.1-.3,1.4-1.4,1.1-2.2-.2-.4-.2-.5-2.7-2.7-4.9-4.3-5.1-4.3-7.5-11.3-.3-.9-.3-1-1.2-1.5,0,0-.1,0-.2,0-.4-.3-.9-.3-1.4-.5,0,0-1.4.7-1.4.7,0,0-.6.6-.5,1.4,0,.4.2,2.7,0,5-.9,9.3-6.3,9.1-7.5,9.2-1.3,0-1.8,1.2-1.4,2.1.4.9,1,.7,2.2,1.6ZM672.8,13.6c.2-.5,1-2,1.6-4.5,1.6,2.9,3.2,4.1,6.5,6.9-2,.7-4.1,1.6-5.4,3-1.7,1.6-2.5,3.7-3.6,7.1-1.1-2.5-2.6-5.3-4.6-7.3,1.8-.6,4-2.1,5.6-5.1ZM720,159c0-.4-.6-1.3-1-2.1-4.6-8.5-4.6-8.6-6.5-18.1-.2-1,0-1.1-1-1.7,0,0-.2,0-.2-.1,0-.3-.2-.6-.7-1-.4-.3-1-.3-1.4-.5,0,0-1.4.7-1.4.7-.3.4-.4.9-.5,1.4,0,.2.8,5.7-.7,8.5-1.5,2.6-6.5,4.3-11.3,7.9-.5.4-1,1.1-.4,2.1,1.3,2.1,4.7,2.8,5.5,4.5.2.5,3,12.5,4,16.2.3,1.2,1.9,1.4,2.6.4.7-1,0-5.5.9-8,1.5-4.4,9.1-7.3,11.3-8.4.9-.5,1-1.3,1-1.8ZM706.2,165.7c-.5.8-.9,1.5-1.2,2.3-1.9-7.7-1.7-8-2.3-9-1.1-1.9-2.9-2.5-4.2-3.5,5.5-3.4,8.6-4.1,10.7-7,.4-.6.8-1.2,1.1-1.9,1.2,4.2,2.4,6.2,5.7,12-3.4,1.7-7.7,4-9.8,7.1Z" fill="#714e67"/></g></svg>