<?xml version="1.0" encoding="UTF-8"?><svg id="b" xmlns="http://www.w3.org/2000/svg" viewBox="0 0 320.3 720"><g id="c"><path d="M310.7,435.9c-6.7-39.9-29.5-87.5-47.2-116.2,0-14.6-4.5-68.3-18.4-292.5,0-.2,0-.4-.1-.6-2.2-21.7-31.4-28.5-53.3-26-16.9,1.9-26.5,8.2-31.5,12.3-2.7-2.2-6.9-5.2-13-7.7-23.4-9.7-60.4-5.9-69.7,13.8-1.4,2.9-2.1,5.9-2.2,8.8,0,0,0,0,0,0h0s0,0,0,0h0c-6.2,96.7-12.7,193.4-18.9,290.1-14.2,24.4-36.2,67.2-47.2,116.2-11,48.9-11.5,111.4-4.6,157.3,1.3,8.8,2.7,15.7,4.1,21,.5,3.9,1,7,1.3,8.8,0,10.9-4.5,54.4,6.6,65.4,10.2,10,24.8,18.6,51,24.7,52.4,12.3,131.4,9,165.4,4.9,70.6-8.6,73.3-30,75.5-37.8,4.6-16,3.4-35.7,1.3-58,6.4-10.2,8.2-20.4,9.3-28.8,2.2-16.9,2.8-89.8-8.3-155.9Z" fill="#714e67"/><path d="M253.8,320.2c-.3.2-.5.3-.7.4-.5.3-.5.3-.7.4-93.7,54.7-167.7,8.6-184.8-3.8-.7-.5-1.4-1-1.9-1.4l.3-4.9.5-9.5,13.4-256.4c4,7.3,9.2,12.3,9.3,12.4.8.8,12.3,15.9,65.8,35,4.8,1.7,4.9,1.9,7.9.9,19.7-6.9,42.4-16.4,57.3-26.6,6.8-4.7,12.7-10.3,17-16.3l15.6,253.4.5,8.8.5,7.6Z" fill="#ffdce8"/><path d="M87.6,39.8c-2.3-4.5-3.2-8.4-3-11.8,0,0,0,0,0,0,.1-1.7.5-3.2,1.1-4.7,5-11.5,25.2-14.9,39.1-13.8,22.8,1.7,31.2,12.5,32.5,13.4h0c2,1.5,4.3.8,5,.4.2-.1.4-.3.6-.4.2-.2.4-.3.6-.4h0c1.4-1.4,6.9-7.2,18.8-10.7,1.9-.5,11.8-3.4,24.6-2.1,13.3,1.3,23.3,5.6,27.1,12.7.8,1.6,1.4,3.2,1.6,5,.2,1.5.1,3-.2,4.7-.7,3.9-2.7,8.3-6.2,13.2-2.4,3.3-6.1,7-7.1,8-15.8,14.6-52.1,27.5-62,31-8.2-2.9-41.5-14.7-58.7-28.2-6.4-5-11.6-11.8-13.9-16.2ZM309.9,589.4c-.4,3.5-.9,7.6-2.1,11.9-.8,3.2-2,6.6-3.7,10-1.1,2.2-2.4,4.4-4,6.6-12.6,17.4-42.9,34.3-119.2,37.1-106.2,3.9-138.5-15.8-148.3-22.5-4.9-3.4-9.3-7.6-9.8-8.3-1.6-2.3-3.2-6.8-4.8-13-1.5-5.8-2.9-13-4.2-21.4-.5-3-.9-6.2-1.3-9.6-4.1-33.9-5.2-82.1,2.8-129.1,8.9-52.2,32.1-99,47.5-125.8,19.7,14.1,91.6,56.3,182.4,10.2,3.3-1.7,8.9-4.7,12.8-7,17.4,29.3,37.1,73,43,106.1,10.6,58.8,11.2,136.5,8.9,154.8ZM202.4,450.5c-20.3.7-32.6,11.4-38.4,18.1-2.9-3.5-7.5-7.9-14.1-11.6-23.4-12.9-57.8-6.8-67.8,17.9-10.6,26.2,10.7,55.7,11.1,56.2,10.5,16.5,35.3,34.7,65.2,50.2,5.1,2.7,5.5,3.1,9.1,1.3,30-15.4,55.4-33.5,66.6-50,2.4-3.6,13-19,14.7-36.5,3.2-32.8-22.9-46.4-46.3-45.7Z" fill="#ffb1be"/><path d="M299,677.5c-1.1,4.5-4.2,29.5-113.9,32.7-112.4,3.3-144.1-17.1-152.1-22.3-5.2-3.4-9.8-7.8-10.2-8.4-4.9-6.8-4.6-30.9-4-46.1,15.5,14.2,49.8,34.7,161,31,70.3-2.3,104.5-16.8,121.5-33.5,2.5,31.4-.5,39.6-2.3,46.6ZM164,573.9c11.2-5.8,46.4-24.5,61.7-45.7.3-.5,4.6-6.6,7.5-12.7,12.5-25.9,7-49.2-19.5-54.8-5.8-1.2-16.5-2-27.5,2.7-11.6,5-16.9,13.5-18.3,15.5h0c-.4.4-.7.8-1,1.1-.8.7-4.3,2.2-6.8-1.1-.4-.6-11.6-19.9-38-19.2-9.5.3-33.5,4.7-33.7,31,0,14.7,8.8,33.2,20.7,45.4,17.4,17.8,44.6,32.3,54.9,37.7Z" fill="#fe6d68"/><path d="M310.7,435.9c-6.7-39.9-29.5-87.5-47.2-116.2,0-14.6-4.5-68.3-18.4-292.5,0-.2,0-.4-.1-.6-2.2-21.7-31.4-28.5-53.3-26-16.9,1.9-26.5,8.2-31.5,12.3-2.7-2.2-6.9-5.2-13-7.7-23.4-9.7-60.4-5.9-69.7,13.8-1.4,2.9-2.1,5.9-2.2,8.8,0,0,0,0,0,0h0s0,0,0,0h0c-6.2,96.7-12.7,193.4-18.9,290.1-14.2,24.4-36.2,67.2-47.2,116.2-11,48.9-11.5,111.4-4.6,157.3,1.3,8.8,2.7,15.7,4.1,21,.5,3.9,1,7,1.3,8.8,0,10.9-4.5,54.4,6.6,65.4,10.2,10,24.8,18.6,51,24.7,52.4,12.3,131.4,9,165.4,4.9,70.6-8.6,73.3-30,75.5-37.8,4.6-16,3.4-35.7,1.3-58,6.4-10.2,8.2-20.4,9.3-28.8,2.2-16.9,2.8-89.8-8.3-155.9ZM309.9,589.4c-.4,3.5-.9,7.6-2.1,11.9-.8,3.2-2,6.6-3.7,10-1.1,2.2-2.4,4.4-4,6.6-12.6,17.4-42.9,34.3-119.2,37.1-106.2,3.9-138.5-15.8-148.3-22.5-4.9-3.4-9.3-7.6-9.8-8.3-1.6-2.3-3.2-6.8-4.8-13-1.5-5.8-2.9-13-4.2-21.4-.5-3-.9-6.2-1.3-9.6-4.1-33.9-5.2-82.1,2.8-129.1,8.9-52.2,32.1-99,47.5-125.8,19.7,14.1,91.6,56.3,182.4,10.2,3.3-1.7,8.9-4.7,12.8-7,17.4,29.3,37.1,73,43,106.1,10.6,58.8,11.2,136.5,8.9,154.8ZM299,677.5c-1.1,4.5-4.2,29.5-113.9,32.7-112.4,3.3-144.1-17.1-152.1-22.3-5.2-3.4-9.8-7.8-10.2-8.4-4.9-6.8-4.6-30.9-4-46.1,15.5,14.2,49.8,34.7,161,31,70.3-2.3,104.5-16.8,121.5-33.5,2.5,31.4-.5,39.6-2.3,46.6ZM66.4,301.5l13.4-256.4c4,7.3,9.2,12.3,9.3,12.4.8.8,12.3,15.9,65.8,35,4.8,1.7,4.9,1.9,7.9.9,19.7-6.9,42.4-16.4,57.3-26.6,6.8-4.7,12.7-10.3,17-16.3l15.6,253.4.5,8.8.5,7.6c-.3.2-.5.3-.7.4-.5.3-.5.3-.7.4-93.7,54.7-167.7,8.6-184.8-3.8-.7-.5-1.4-1-1.9-1.4l.3-4.9.5-9.5ZM84.6,28c.1-1.7.5-3.2,1.1-4.7,5-11.5,25.2-14.9,39.1-13.8,22.8,1.7,31.2,12.5,32.5,13.4h0c2,1.5,4.3.8,5,.4.2-.1.4-.3.6-.4.2-.2.4-.3.6-.4h0c1.4-1.4,6.9-7.2,18.8-10.7,1.9-.5,11.8-3.4,24.6-2.1,13.3,1.3,23.3,5.6,27.1,12.7.8,1.6,1.4,3.2,1.6,5,.2,1.5.1,3-.2,4.7-.7,3.9-2.7,8.3-6.2,13.2-2.4,3.3-6.1,7-7.1,8-15.8,14.6-52.1,27.5-62,31-8.2-2.9-41.5-14.7-58.7-28.2-6.4-5-11.6-11.8-13.9-16.2-2.3-4.5-3.2-8.4-3-11.8,0,0,0,0,0,0ZM202.4,450.5c-20.3.7-32.6,11.4-38.4,18.1-2.9-3.5-7.5-7.9-14.1-11.6-23.4-12.9-57.8-6.8-67.8,17.9-10.6,26.2,10.7,55.7,11.1,56.2,10.5,16.5,35.3,34.7,65.2,50.2,5.1,2.7,5.5,3.1,9.1,1.3,30-15.4,55.4-33.5,66.6-50,2.4-3.6,13-19,14.7-36.5,3.2-32.8-22.9-46.4-46.3-45.7ZM233.3,515.5c-2.9,6.1-7.2,12.2-7.5,12.7-15.3,21.1-50.5,39.9-61.7,45.7-10.4-5.4-37.6-19.9-54.9-37.7-11.8-12.1-20.7-30.6-20.7-45.4.1-26.3,24.2-30.8,33.7-31,26.4-.7,37.6,18.6,38,19.2,2.4,3.3,6,1.8,6.8,1.1.4-.3.7-.8,1-1.1h0c1.4-2,6.7-10.5,18.3-15.5,11-4.8,21.7-4,27.5-2.7,26.5,5.6,32.1,28.9,19.5,54.8Z" fill="#714e67"/></g></svg>