<?xml version="1.0" encoding="UTF-8"?><svg id="b" xmlns="http://www.w3.org/2000/svg" viewBox="0 0 490.8 720"><g id="c"><path d="M451.8,37.7c-16.2-5.4-27.7-3.8-34-2.1-1.5-3.2-4.1-7.7-8.6-12.6-17.3-18.7-52.7-31-69.6-16.9-2.6,2.2-4.5,4.7-5.9,7.3,0,0,0-.2.1-.2-46.7,85.8-93.6,171.4-140.3,257.2-23.3,16.2-61.6,46.1-92.4,86.3-30.7,40-57.8,96.9-70.9,141.9-2.5,8.6-4.1,15.5-5.2,21-1.2,3.8-2,6.9-2.5,8.6-4.7,9.9-27.2,47.9-21.7,62.6,5.1,13.5,14.8,27.5,36.1,44.2,42.7,33.5,116.3,64,149.1,74.6,68.2,22.1,79.7,3.7,85-2.5,10.9-12.6,18.3-31.2,25.8-52.4,10.1-6.6,16.1-15.2,20.7-22.3,9.2-14.5,40.6-80.9,58.5-146,10.8-39.3,10.1-92.5,6.1-126.3,6.3-13.3,24.9-64.4,107.2-275.2.1-.3.2-.6.2-.9,6.9-20.6-16.8-39.1-37.8-46.1Z" fill="#714e67"/><path d="M284.7,660.4c-11.1,29.8-17.3,36-21.8,41.6-3,3.7-16.3,25.2-118-18.4-104.2-44.6-124.5-76.8-129.6-84.9-3.3-5.3-5.6-11.3-5.8-12-1.6-8.4,8.9-30.2,15.9-43.8,8.1,19.5,30.9,52.8,134,96.6,65.3,27.7,102.6,29,125.3,20.9Z" fill="#c899d8"/><path d="M373.3,365.7c-4.5.5-10.9.8-14.7,1-102.6,3.6-150.4-65.4-162.4-86.7-25.4,17.9-66.4,50.9-96.7,94.8-27.3,39.6-46.7,84.1-57.3,116.8-1,3.2-2,6.3-2.9,9.3-2.4,8.3-4.2,15.5-5.3,21.4-1.2,6.3-1.5,11.1-1.1,13.9.1.9,2.4,6.6,5.4,11.8,6.1,10.3,27.4,42,126,83.5,70.8,29.8,105.7,27.2,124.6,16.6,2.4-1.3,4.5-2.8,6.5-4.3,3-2.4,5.5-5,7.6-7.6,2.9-3.5,5.1-7,6.9-10,9.8-15.7,42.2-87,57.5-145.2,8.6-32.7,9.2-81.1,5.7-115.2ZM150.4,424.9c19.7-18.4,53.7-9.3,69.6,12.4,4.5,6.1,6.8,12.2,8,16.6,8.1-3.7,24-8.2,42.8-.3,21.7,9.2,39.8,32.7,22.9,61.4-9,15.3-25.2,24.9-28.9,27.2-17.2,10.3-48.2,16.2-82.1,17.5-4.1.2-4.2-.4-7.8-5-20.7-26.9-35.7-54-38.3-73.5,0-.6-7.1-36.6,13.7-56.1Z" fill="#d9c7fb"/><path d="M472.3,102.5l-93.2,238.3-3.2,8.3-2.8,7.2c-.4,0-.6,0-.8,0-.5,0-.6,0-.8,0-41.6,3.9-74.4-4.4-99.5-17.2-39-19.9-59.4-50.2-67.8-64.6-.4-.7-.8-1.4-1.2-2,.7-1.4,1.5-2.9,2.2-4.3,1.4-2.8,2.8-5.5,4.2-8.3,38.5-75.3,83.2-155.5,121.3-230.5.3,9.1,3.3,16.7,3.4,16.8.3,1.1,4.5,19.8,45.4,59.9,3.6,3.6,3.7,3.8,6.9,4.1,21,2.1,45.7,3,63.7,0,8.2-1.4,16-4.1,22.4-7.7Z" fill="#fbd5dc"/><path d="M481.3,76.1c0,1.7-.2,3.3-.8,4.8-.5,1.5-1.2,2.9-2.1,4.2-5.5,7.9-16.9,12.1-18.2,12.6-17,6.9-48.6,5.5-72.8,3.2-6.3-6.1-31.7-31.1-41.7-50.7-3.7-7.3-5.6-15.7-5.8-20.7-.2-4.4.4-8,1.7-10.8,0-.1.1-.2.2-.4.1-.3.3-.6.4-.9.3-.5.6-1,.9-1.5.6-.9,1.3-1.6,2.1-2.3,9.4-8.4,29.3-2.9,41.6,3.9,20.1,11.2,23.3,24.6,24,26,0,0,.1.2.2.2,1.2,2,3.5,2.3,4.2,2.2.2,0,.3,0,.4,0,.3,0,.7-.2,1-.2h0c.3-.1.6-.2.9-.4,24.1-8.7,61.6,11.9,63.5,29.3,0,.5,0,.9,0,1.4ZM276.8,467.7c-4.8-3.6-14.3-8.9-26.3-9.1-12.7-.3-21.2,5.1-23.3,6.4h0c-.5.2-.9.4-1.4.6-1,.3-4.9.2-5.7-3.9-.1-.7-2.1-23.1-26.6-33.6-8.8-3.8-32.7-9.9-43.9,14.1-6.3,13.4-6,34.1-.3,50.2,8.3,23.6,27.1,48.4,34.2,57.7,12.7-.5,52.8-2.8,75.8-15.6.5-.3,7-4,12.3-8.4,22.4-18.4,27.2-42,5.4-58.3Z" fill="#fb96b8"/><path d="M451.8,37.7c-16.2-5.4-27.7-3.8-34-2.1-1.5-3.2-4.1-7.7-8.6-12.6-17.3-18.7-52.7-31-69.6-16.9-2.6,2.2-4.5,4.7-5.9,7.3,0,0,0-.2.1-.2-46.7,85.8-93.6,171.4-140.3,257.2-23.3,16.2-61.6,46.1-92.4,86.3-30.7,40-57.8,96.9-70.9,141.9-2.5,8.6-4.1,15.5-5.2,21-1.2,3.8-2,6.9-2.5,8.6-4.7,9.9-27.2,47.9-21.7,62.6,5.1,13.5,14.8,27.5,36.1,44.2,42.7,33.5,116.3,64,149.1,74.6,68.2,22.1,79.7,3.7,85-2.5,10.9-12.6,18.3-31.2,25.8-52.4,10.1-6.6,16.1-15.2,20.7-22.3,9.2-14.5,40.6-80.9,58.5-146,10.8-39.3,10.1-92.5,6.1-126.3,6.3-13.3,24.9-64.4,107.2-275.2.1-.3.2-.6.2-.9,6.9-20.6-16.8-39.1-37.8-46.1ZM303.2,636.2c-2.1,2.6-4.6,5.2-7.6,7.6-1.9,1.5-4.1,3-6.5,4.3-18.9,10.5-53.8,13.1-124.6-16.6-98.7-41.5-120-73.2-126-83.5-3.1-5.2-5.3-10.9-5.4-11.8-.5-2.8,0-7.6,1.1-13.9,1.1-5.9,2.8-13.1,5.3-21.4.9-3,1.8-6.1,2.9-9.3,10.6-32.7,30-77.2,57.3-116.8,30.3-43.9,71.3-76.9,96.7-94.8,12,21.2,59.8,90.3,162.4,86.7,3.8-.1,10.2-.5,14.7-1,3.5,34.2,2.9,82.5-5.7,115.2-15.3,58.3-47.7,129.5-57.5,145.2-1.9,3-4.1,6.5-6.9,10ZM144.9,683.7c-104.2-44.6-124.5-76.8-129.6-84.9-3.3-5.3-5.6-11.3-5.8-12-1.6-8.4,8.9-30.2,15.9-43.8,8.1,19.5,30.9,52.8,134,96.6,65.3,27.7,102.6,29,125.3,20.9-11.1,29.8-17.3,36-21.8,41.6-3,3.7-16.3,25.2-118-18.4ZM375.9,349l-2.8,7.2c-.4,0-.6,0-.8,0-.5,0-.6,0-.8,0-41.6,3.9-74.4-4.4-99.5-17.2-39-19.9-59.4-50.2-67.8-64.6-.4-.7-.8-1.4-1.2-2,.7-1.4,1.5-2.9,2.2-4.3,1.4-2.8,2.8-5.5,4.2-8.3,38.5-75.3,83.2-155.5,121.3-230.5.3,9.1,3.3,16.7,3.4,16.8.3,1.1,4.5,19.8,45.4,59.9,3.6,3.6,3.7,3.8,6.9,4.1,21,2.1,45.7,3,63.7,0,8.2-1.4,16-4.1,22.4-7.7l-93.2,238.3-3.2,8.3ZM343.2,16c.6-.9,1.3-1.6,2.1-2.3,9.4-8.4,29.3-2.9,41.6,3.9,20.1,11.2,23.3,24.6,24,26,0,0,.1.2.2.2,1.2,2,3.5,2.3,4.2,2.2.2,0,.3,0,.4,0,.3,0,.7-.2,1-.2h0c.3-.1.6-.2.9-.4,24.1-8.7,61.6,11.9,63.5,29.3,0,.5,0,.9,0,1.4,0,1.7-.2,3.3-.8,4.8-.5,1.5-1.2,2.9-2.1,4.2-5.5,7.9-16.9,12.1-18.2,12.6-17,6.9-48.6,5.5-72.8,3.2-6.3-6.1-31.7-31.1-41.7-50.7-3.7-7.3-5.6-15.7-5.8-20.7-.2-4.4.4-8,1.7-10.8,0-.1.1-.2.2-.4.1-.3.3-.6.4-.9.3-.5.6-1,.9-1.5ZM270.8,453.6c-18.8-8-34.7-3.4-42.8.3-1.2-4.4-3.5-10.4-8-16.6-15.9-21.7-49.9-30.8-69.6-12.4-20.8,19.5-13.8,55.4-13.7,56.1,2.6,19.6,17.6,46.6,38.3,73.5,3.5,4.6,3.7,5.2,7.8,5,34-1.3,64.9-7.1,82.1-17.5,3.7-2.2,19.9-11.9,28.9-27.2,16.8-28.6-1.3-52.2-22.9-61.4ZM271.4,526.1c-5.3,4.4-11.8,8.1-12.3,8.4-22.9,12.8-63.1,15.1-75.8,15.6-7.2-9.3-25.9-34.1-34.2-57.7-5.7-16.1-6-36.8.3-50.2,11.3-24,35.1-17.9,43.9-14.1,24.5,10.5,26.5,32.9,26.6,33.6.8,4.1,4.7,4.2,5.7,3.9.5-.2.9-.4,1.4-.6h0c2.1-1.3,10.6-6.7,23.3-6.4,12.1.3,21.5,5.6,26.3,9.1,21.9,16.4,17.1,40-5.4,58.3Z" fill="#714e67"/></g></svg>