<?xml version="1.0" encoding="UTF-8"?><svg id="b" xmlns="http://www.w3.org/2000/svg" viewBox="0 0 920.7 472.1"><g id="c"><path d="M90.3,389.8c-6.5-.2-12.7-.3-18.8-.3-26.4.2-49.8,5-71.5,12.2v-95.3c23.4-7.8,53.1-13.1,89.7-12-.6,30.7-1.1,62.1.6,95.4ZM99.4,472.1h96.9c-4.5-18.5-7-41.5-4.1-72.4-40.7-5.3-73.5-8.9-102-10,1.3,26.1,4.1,53.4,9.1,82.3ZM309.4,415.3c-1.9,26.4-2.6,49.8-2.6,56.9h131.9c-5.6-16.1-9.7-33-10.3-51.1-.1-4.2-.2-7.9-.2-11.1-42.3,6.1-82.5,9.5-118.8,5.4ZM319.4,314.3c-38.6-2.3-78-6.2-116.8-10.1-1.9,22.5-4.8,50.2-9.2,84.9-.5,3.7-.8,7.2-1.2,10.7,32.1,4.1,69,9.3,112.5,15,1.5.2,3,.4,4.6.6,1.2-16,2.7-33.1,4.9-48.4,2.7-19.1,4.3-36.6,5.2-52.6ZM202.6,304.2c6.2-75.3.3-93.6-6.7-129.4-41.8-8.3-80.1-13.8-108.9-11,4.7,44.1,3.5,86.6,2.7,130.6,4.8.1,9.7.4,14.7.8,31.6,2.3,64.7,5.7,98.2,9ZM920.7,85.6V0h-67c-3.8,26.9-7.3,48.3-16.5,79.7,33.4,11.6,61.6,8.9,83.5,5.9ZM809.5,277.3c38.1,9,78.4,19.5,111.2,27.6v-108c-31.1-7.3-71.3-13.9-113.2-27.8-12,44.9-7.1,77.4,2,108.2ZM837.1,79.7c-7.8-2.7-16-5.6-24.5-8.6-24.7-8.7-48.9-15.3-72.8-19.8-.7,12.3-2.7,23.7-8.3,39.9-7.2,20.8-13.8,38.4-19.9,53.9,29.9,4.2,63.1,13.2,95.8,24,2.1-7.8,4.7-16,7.8-24.6,9.8-26.6,16.7-47.3,21.9-64.9ZM739.8,51.3c.8-13.5,0-28.1.8-51.3h-145.6c-7.7,20.1-14.8,37.8-21.1,54.1,54.7-12.6,109.3-13.6,165.9-2.8ZM438.2,91.2c3.1-20.1,8.4-41.1,16.9-62.3,4.6-11.6,8.2-21,11.2-28.9h-129.7c-15.5,35.4-23.8,63.9-27.5,89.1,45.5,5.3,88.8,6.9,129.1,2.1ZM438.4,200.3c33.2-7.8,68.2-19.7,103.5-30.8,3.3-38.3,14.9-71.4,32.1-115.4-20.8,4.8-41.6,11.3-62.6,19.4-23.1,9-47.5,14.6-73.1,17.7-6.9,44.2-3.3,83.6.2,109.1ZM541.8,169.6c-2.8,33.2.6,70.2,12.3,121.4,50.6-15,84.3-29.2,122.4-32.6,3.2-36.3,15.9-63.8,35.1-113.3-9.8-1.4-19.2-2.2-28.1-2.5-45.3-1.3-93.8,11.9-141.7,26.9ZM676.5,258.4c-2.5,28.2.8,61.8,11.2,115.1.3,1.6.6,3.3.9,4.8,4.5.1,9,.3,13.5.6,45.1,2.8,92.6,7.1,136.1,11.7-2.9-46-18.6-78.6-28.9-113.4-33.2-7.8-64.6-14.6-87.7-17.7-16.4-2.2-31.1-2.4-45.2-1.2ZM838.2,422.5c-.2,3.3,2.8,22.6,5.2,49.7h77.2v-71.9c-24-3-52.2-6.3-82.3-9.5.6,9.9.6,20.4-.1,31.7ZM577.9,385.6c6.1,36.9-.5,53.6,6.1,86.5h121.9c-5.3-23.4-8.3-47.9-17.1-93.7-36.5-1.1-73.7,2.2-110.8,7.3ZM554.2,291c-17.3,5.1-36.6,10.3-58.7,15.2-18.7,4.1-38.6,6.8-59.3,8.4-1,12.5-1.8,24.7-2,36.4-2.1,31.9-5.9,33.6-6,58.8,47.9-6.9,98.6-17.2,149.7-24.2-1.5-9.1-3.8-19.3-7.2-31.4-6.7-23.4-12.1-44.3-16.5-63.3ZM438.4,200.3c-31.2,7.3-60.8,10.9-87.6,6.5-12.1-2-24.5-4.3-37.1-6.9,4.3,31.2,8.3,66.6,5.7,114.3,40.5,2.4,80,3.2,116.8.4,2.3-28.7,5.6-58.6,6.3-85.6,0-3.5-2-13.7-4.1-28.7ZM195.7,173.5c0,.4.2.9.3,1.3,37.7,7.5,78.4,17.2,117.9,25.2-5.2-38.3-10.8-70.2-4.7-110.9-37.7-4.4-76.8-11.2-117.1-18.8-4,29.5-3.9,63.8,3.7,103.2ZM151.4,62.4c13.6,2.7,27.1,5.3,40.5,7.9,3.8-27.6,11.2-51,19.7-70.2H81.8c-6.5,26.2-9.3,43.3-9.4,59.2,22.6-3.1,48.9-2.7,79,3.2ZM72.4,59.2c-30.6,4.1-54.5,14.5-72.4,25.6v111.5c26.1-14.7,56.6-29,85-32.3.7,0,1.4-.2,2.1-.2-1.3-12.4-3.1-25-5.5-37.8-5.6-30-9.3-47.5-9.2-66.9Z" fill="#ffe8f3"/></g></svg>