<?xml version="1.0" encoding="UTF-8"?><svg id="b" xmlns="http://www.w3.org/2000/svg" viewBox="0 0 720 685"><g id="c"><path d="M641.2,269.3l13.4-42.6-39.7-11.9,13.8-43.9c0,0-.1-.1-.2-.2l-.3.8-154.7-46.4-13.6,43.4-38.5-11.5-13.3,42.4h-.2c0,0-.1.3-.1.3l-40.2-12,13.3-42.4-38.4-11.5,13.6-43.4-154.5-46.3c-.2,0-.3.1-.5.2l-13.5,42.9-39.7-11.9-13.4,42.6-37.7-11.3-56.5,179.8,38.5,11.6-13.8,43.8,38.7,11.6-13.2,42.2c.2.4.4.8.6,1.3l39.5,11.9-13.4,42.8,38.2,11.4-12.2,38.8,36.7,11-12.8,40.7,39.6,11.9-12.5,39.9,78.7,23.6v-.4c.1,0,36.7,11,36.7,11,1-.4,2.1-.8,3.1-1.2l11.9-38,39.6,11.9,12.8-40.7,36.7,11,12.2-38.8,38.2,11.4,13.4-42.8,40.2,12-.6,2c.4-.2.8-.5,1.2-.7l-.7-.2,13.9-44.1,38.7,11.6,13.8-43.8,38.5,11.6,56.5-179.8-37.7-11.3ZM202.2,162.8c-3.8,4.6-4.1,4.2-9.1,6.9-51.5,28.2-55.2,57.8-55.1,84.5,0,12.9,1.4,25.9,1.8,39.5.1,3.6.4,3.7-.7,7.2-.3.9-1.8,6-6.9,9.1-.4.2-2.6,1.6-5.3,2-.9.1-5.8.9-10.1-2.9-1.4-1.2-2.5-2.7-3.3-4.3-1.9-3.9-1.2-4.2-1.8-8.7-4.5-34.6-19.6-86.7,26.5-134.7,9.8-10.2,22.5-20.5,41.3-31.4,7.4-4.3,14.2-2,15.3-1.6,2.4.8,4.7,2.1,6.5,3.9,6.1,5.8,6.3,13.5,6.3,14.9.2,8.8-4.6,14.6-5.4,15.6ZM623.8,461.9l1.1.3c-.5.3-1,.7-1.5,1l.4-1.3ZM358.7,90.5l-.7-.2v-.5c.3.2.5.5.7.7ZM571.6,493.5l1.3.4c-.6.3-1.1.7-1.7,1l.4-1.4Z" fill="#ffcfec"/><path d="M207.6,147.2c.2,8.8-4.6,14.6-5.4,15.6-3.8,4.6-4.1,4.2-9.1,6.9-51.5,28.2-55.2,57.8-55.1,84.5,0,12.9,1.4,25.9,1.8,39.5.1,3.6.4,3.7-.7,7.2-.3.9-1.8,6-6.9,9.1-.4.2-2.6,1.6-5.3,2-.9.1-5.8.9-10.1-2.9-1.4-1.2-2.5-2.7-3.3-4.3-1.9-3.9-1.2-4.2-1.8-8.7-4.5-34.6-19.6-86.7,26.5-134.7,9.8-10.2,22.5-20.5,41.3-31.4,7.4-4.3,14.2-2,15.3-1.6,2.4.8,4.7,2.1,6.5,3.9,6.1,5.8,6.3,13.5,6.3,14.9Z" fill="#fff"/><path d="M49.9,385.5l13.8-43.8-38.7-11.6,13.6-43.2L0,275.3,57.6,91.8l37.7,11.3,13-41.4,39.7,11.9,13.4-42.6,40.2,12-.4,1.3-13.5,42.9-39.7-11.9-13.4,42.6-37.7-11.3-56.5,179.8,38.5,11.6-13.8,43.8,38.7,11.6-13.2,42.2-.6,2-40.2-12ZM477.5,512.2l-13.4,42.8-38.2-11.4-12.2,38.8-36.7-11-12.8,40.7-39.6-11.9-11.9,38-.6,1.9-2.5-.8-36.6-11v.4c-.1,0-78.8-23.6-78.8-23.6l12.5-39.9-39.6-11.9,12.8-40.7-36.7-11,12.2-38.8-38.2-11.4,13.4-42.8-39.5-11.9-.6-.2-13.9,44.1,38.2,11.4-13.4,42.8,36.7,11-12.2,38.8,39.6,11.9-12.8,40.7,39.1,11.7-12.5,39.9,120.1,36,12.7-40.3,38.9,11.7,12.8-40.7,39.6,11.9,12.2-38.8,36.7,11,13.4-42.8,38.2,11.4,13.2-42.1.6-2-40.2-12ZM682.3,278.6l13-41.4-39.7-11.9,13.4-42.6-40.2-12v.3c0,0-13.9,43.9-13.9,43.9l39.7,11.9-13.4,42.6,37.7,11.3-56.5,179.8-38.5-11.6-13.8,43.8-38.7-11.6-13.9,44.1.7.2,39.5,11.8,13.3-42.4.4-1.4,1.3.4,37.4,11.2,13.2-41.9.4-1.3,1.1.3,37.4,11.2,57.6-183.5-37.7-11.3ZM201.7,44.2l154.5,46.3-13.6,43.4,38.4,11.5-13.3,42.4,40.2,12v-.4c.1,0,.3,0,.3,0l13.3-42.4,38.5,11.5,13.6-43.4,154.7,46.4.3-.8,13.6-43.3-156.3-46.9-13.6,43.4-38.6-11.6-13.3,42.4-36.9-11.1,13.2-42-37.8-11.3-.7-.2v-.5c.1,0,13.6-42.9,13.6-42.9L215.3,0l-13.9,44.1h.2Z" fill="#fe6d68"/></g></svg>