<?xml version="1.0" encoding="UTF-8"?><svg id="b" xmlns="http://www.w3.org/2000/svg" viewBox="0 0 720 638.8"><g id="c"><path d="M713.6,277.4c0-.3-3.2-35.4-18.1-60.7-4.7-8-15.3-23.7-33.9-26.6-45.7-7.1-145.3-6.2-245-3.6-4.9-5.9-11.7-11.2-19.6-15.3,41.1-41,65.1-66,97.4-97.8l38-37.2c6.1,4.2,14.6,4.5,20.9-.1,9.1-6.8,9.7-19.6,2.5-27.7-5.7-6.5-13.3-6.4-13.4-6.4-.9,0-.9,0-1.2,0-11.9,1.3-18.9,12.7-16.3,23.4-17.5,17.8-52.5,53.2-78.2,78.7-10.6,10.5-43.6,42.9-62.8,61.8-5.1-1.6-10.4-2.7-16-3.3-2-.2-17.4-2.2-34.8,4.2-18.6-18.3-54.5-53.6-65.7-64.7-25.7-25.5-60.7-60.9-78.2-78.7.3-1,.4-2.1.5-3.3.8-11.4-8.2-20-18-20.2-1.4,0-4.9.2-9,2.7-2.3,1.4-4.6,3.5-6.2,6.1-6.1,9.8-2.4,20.8,4.9,25.7,6.7,4.4,14.6,3.7,20.4-.3,38.7,37.9,39.8,38.9,52.8,51.9,11.4,11.3,51.8,52.3,64.6,65.1,7.8,7.9,15.4,15.5,21.6,21.6-6.6,4-13.1,9.6-18.9,17.1-41.8,1.3-79.1,2.5-106.9,2.9-13.4.2-23-.2-42.7,2.8-53.8,8.4-124.5,35.5-136.3,61-9.3,9.6-15.2,22.5-15.7,36.8C.4,295.1,0,560.4,0,581.5c0,28.1,22.1,54.2,53.6,55.8,6.9.3,327.6-.3,475.3-.5,2,.3,4.1.6,6.3.9,57.1,8.7,141.7-31.1,167.1-66.1,3.3-4.6,11.6-14.8,15.6-72.9,4.5-65.7,1.4-166.4-4.2-221.3Z" fill="#565248"/><path d="M412.8,539.2c-3.2,18.8-20.6,34-35.6,35.9-40.7,4.9-157.1,5.4-226.9,2.4,15.8-15.2,34-32.7,52.8-50.7v3.8h15v13.3h46.1v-13.4h14.9v-11.9c.8-.5,1.5-1.1,2.3-1.6h12.9v-10.1c1.1-.9,2.1-1.8,3.2-2.7h10.9v-9.8c1.5-1.5,3.1-2.9,4.5-4.4h10.1v-10.3c1.3-1.4,2.5-2.7,3.8-4h11.7v-13.4c.3-.4.6-.7.9-1.1h13.9v-14.4h14.8v-60.9h-14.5v-2.5l55.2-52.5c2.9,6.1,3.4,10.6,3.4,10.6h0l.3,1.9c6.5,43,10.1,138.7.3,196ZM159.1,359.4c.6-.4,1.2-.7,1.8-1h-1.7v-14.7h60v13.9c.3.2.6.3.8.5h14v11.5c.3.3.5.5.8.8.6.6,1.1,1.2,1.4,1.7h12v-14.1h14.8v-14.4h18.2c15.6-14.3,31-28.4,45-41.2-71.2-2.8-178.7-1.9-217.6,3-15.1,1.9-31.4,17.5-35.6,36.1-2.9,12.5-4.8,27-5.9,42.3-.1,1.6-.2,3.3-.3,4.9-.1,1.7-.2,3.4-.3,5.1-2.7,50.7,1.8,108.4,6.2,139.3l36.5-33,1.8-1.7,1.9-1.7,30.8-27.9v-7.7h-14.8v-14.4h-14.8v-60.9h14.5v-13.7h13.8c.5-.4.9-.9,1.4-1.3v-12.8h15.4v1.4ZM263.6,529.1v-.6c-.4.2-.8.4-1.2.6h1.2ZM129.9,386.8h-.5v.8c.2-.3.3-.5.5-.8ZM352.7,443.3c-.6,1-1.3,2-2.1,3.1h2.1v-3.1ZM144.2,461.1h.6c-.2-.1-.4-.3-.6-.4v.4ZM352.7,386.7h-1.4c.5.6,1,1.3,1.4,1.9v-1.9ZM263.6,358.2v1.5c.5-.5,1.1-1,1.6-1.5h-1.6Z" fill="#ffd8df"/><path d="M185.3,31.2c.9-1,1.6-2.1,2.3-3.2,23.2,22.8,26.4,25.7,55.1,54.1,19.2,18.9,45.7,45.7,86.2,86.6-1.2.5-2.4,1.1-3.6,1.8-9.4-9.4-12.5-12.5-25.2-25l-56-55c-14.7-14.5-42.4-42.6-58.7-59.1ZM167.9,32.2c3.9,1.2,7.8.7,11-1,.7-.4,1.4-.8,2-1.3.6-.5,1.2-1,1.7-1.5.9-.9,1.7-2,2.3-3.1.4-.7.7-1.5,1-2.3.3-.8.5-1.7.6-2.6.1-.9.1-1.8,0-2.8-.5-6.9-6.5-12.9-14-12.9-.4,0-.4,0-.7,0h0c-.3,0-7.4-.6-12.1,5.8-5.1,7-2,18.4,8.1,21.6ZM393.5,168c16.3-16.2,65-64,76.9-75.7,14.7-14.5,42.4-42.6,58.7-59.1-.9-1-1.6-2-2.3-3.2-28.5,27.9-30.8,30.1-55.1,54.1-18.7,18.5-44.3,44.3-83.1,83.4,1.3.5,2.6,1,3.8,1.6.3-.3.7-.7,1-1ZM325.7,174.2c-.7.4-1.4.8-2.1,1.3-1.5.9-2.9,1.9-4.3,3-4.7,3.5-8.5,7.4-11.6,11.3-.5.6-.9,1.1-1.3,1.7-.4.6-.9,1.1-1.3,1.7-2.8,4-4.9,7.8-6.4,10.8,9.9,2.6,32.3,8.3,65.5,7.8,23.7-.4,49-5.2,56.6-7.8-.5-2.5-2-7.8-7-13.9-.5-.6-1-1.2-1.5-1.7-.5-.6-1.1-1.1-1.6-1.7-3-3-6.8-6.1-11.8-9.1-1.6-1-3.4-1.9-5.2-2.8-.8-.4-1.5-.7-2.3-1.1-.8-.4-1.6-.7-2.4-1-1.3-.5-2.5-1-3.9-1.5-.8-.3-1.5-.6-2.3-.8-.8-.3-1.6-.5-2.4-.7-13.8-4.1-29.5-4.9-44.2,0-.8.3-1.6.5-2.3.8-.8.3-1.5.6-2.3.9-1.2.5-2.4,1.1-3.6,1.7-.7.4-1.5.8-2.2,1.2ZM528.6,25c.3.8.6,1.5,1,2.3.6,1.1,1.4,2.2,2.3,3.1.5.5,1.1,1.1,1.7,1.5.6.5,1.3.9,2,1.3,1.1.6,2.3,1,3.6,1.3,9.7,2.1,19.6-6.4,17.6-16.9-.1-.7-.9-4.9-5.1-8-3.9-2.9-7.6-2.9-9.2-2.9h0c-1,0-7.4-.4-12,5.7-2.3,3-3.1,6.6-2.6,10,.1.9.3,1.7.6,2.6ZM589.4,441.4c0-1.8,0-8.1-5.7-13.7-2.3-2.3-6.8-5.4-13.2-5.4-8.3,0-41.4-.5-68.4-.3-10.7,0-19.3,8.8-19.2,19.5,0,3.5.3,42.5.4,43.6.6,9.1,8.3,17.5,18.8,17.6,41.7.3,67.7.7,70,.5,10-.6,17.9-9.3,17.8-19.1l-.5-42.6h0ZM488.2,292.6c16.3-15.3,35.3-15,39.3-15h0c3.2,0,17.3-.2,31.5,8.9,25.8,16.6,30.4,48.9,13,71.3-19.1,24.6-57.4,29-81.9,8-23.1-19.8-23.5-53-1.9-73.2ZM500.4,297c0,.8.3,1.5.8,2,.5.5,2.1,2.3,3.5,3.9,2.2,2.4,4.4,5,5.6,6.1.1.1.3.2.4.3.2.3.5.6.9.9,16.8,16.2,28.8,24.5,40.5,35.7.8.8,1.6,1.5,2.4,2.1,2.8,2.6,5.5,5.2,6.1,6,.5.6,1.2.9,1.9.9s0,0,.1,0c.8,0,1.5-.4,1.9-1.1,10.4-15,9.6-35-2-49.7-12.9-16.3-31.5-17.3-35.1-17.4,0,0-.2,0-.2,0-2.9,0-10.5.5-18.8,4.4-2.4,1.1-4.7,2.5-6.9,4-.6.4-1,1.1-1.1,1.9ZM491.1,354.2c8.7,11.9,22.9,18.3,37.1,18.3s17.9-2.5,25.5-7.8c.6-.4,1-1,1.1-1.7s-.1-1.4-.6-1.9c-.9-1.1-1.8-2.2-2.8-3.2-.8-1.2-1.9-2.4-3.2-3.6-10.5-9.9-36-36.1-41.9-41.7,0,0-.2-.2-.3-.3-.1-.3-.3-.6-.5-.9-1.2-1.3-4.1-3.8-7.1-6.5-1-.8-1.7-1.5-2.1-1.8-.5-.5-1.2-.7-1.9-.7-.7,0-1.3.4-1.8.9-12.1,14.7-12.8,35.7-1.6,51ZM548.6,362.1c-.7-.8-1.3-1.5-2-2.3-11.2,6-23.3,4.8-37-3.8-9.4-5.9-15-13.2-16.2-21.2-1-7,1.4-14.5,7-21.6-1.5-1.4-3.7-3.3-5.2-4.6,0,0,0,0-.1-.1-9.1,12.8-9.2,30.1.1,42.8,12,16.5,35.9,21.1,53.4,10.8ZM542.8,310.8c-9.2-6.7-19.7-5.8-27-2.7.8.7,1.6,1.4,2.4,2.2,6.1,5.4,10,8.7,16.5,14.9,8.5,8.1,10,9.6,16.2,15.1,7.9-11.6,5.8-19.4-8.1-29.5ZM711.9,313.4c-1.4-21.1-2.7-32.1-3-35.4h0c-.4-3.2-6.2-64.4-38.1-80.4-5.1-2.5-9.2-3.2-17.3-4.2-47.8-6-140.9-5.5-234.1-3.4,3.1,4.6,5.1,9.5,5.8,14.6.2,1.3.2,2.4-2.2,3.2-8.1,2.9-42.4,9.1-81.8,7.1-23.2-1.2-39.7-5.2-44.4-6.3-.2,0-1.5-.4-1.5-.4-.5-.4-1.1-.6-1.4-1.1,0,0,0-.1,0-.3-.2-.2-.4-.4-.5-.7-.4-1.1-.2-1.2.3-2.2,1.9-3.8,4-7.2,6.1-10.3-48.2,1.5-89.8,2.8-116.6,3.1-48.7.4-125,25.7-153.4,50.1,7.9-4.3,17-6.8,26.6-6.7l509.5-.5c15.4,0,29.4,6.2,39.7,16.4,17.3,17.2,16.5,38.1,16.5,39.7l-.6,285.8c0,21.2-11.9,39.5-29.3,48.9,8.5-2,17.9-4.9,28.1-8.7,40.3-15.1,71.2-38,81.5-55.3,17.5-29.4,16.2-166.6,10.3-252.7ZM512.6,304c10.8-5.2,23.6-4.2,33.1,2.7,15.5,11.4,18.6,22,10,35.4,1.7,1.6,4.5,4.3,6.5,6.2,7.4-12.8,6.1-29-3.5-41.2-11.5-14.6-28-15.4-31.2-15.5h0s-.1,0-.1,0c-2.5,0-9.3.4-16.7,3.9-1.3.6-2.5,1.3-3.8,2,.5.6,1.1,1.2,1.7,2,1.3,1.5,2.9,3.2,4,4.5ZM498.3,334c1,6.5,5.8,12.6,13.9,17.7,12.3,7.7,22.7,8.8,32.3,3.5-3-3.1-6.7-6.8-10.8-10.5-13-12.2-13.2-12-26.1-25.2-1.1-1.2-2.2-2.3-3.3-3.3-4.8,6.1-6.9,12.2-6.1,17.9Z" fill="#ffb1be"/><path d="M713.6,277.4c0-.3-3.2-35.4-18.1-60.7-4.7-8-15.3-23.7-33.9-26.6-45.7-7.1-145.3-6.2-245-3.6-4.9-5.9-11.7-11.2-19.6-15.3,41.1-41,65.1-66,97.4-97.8l38-37.2c6.1,4.2,14.6,4.5,20.9-.1,9.1-6.8,9.7-19.6,2.5-27.7-5.7-6.5-13.3-6.4-13.4-6.4-.9,0-.9,0-1.2,0-11.9,1.3-18.9,12.7-16.3,23.4-17.5,17.8-52.5,53.2-78.2,78.7-10.6,10.5-43.6,42.9-62.8,61.8-5.1-1.6-10.4-2.7-16-3.3-2-.2-17.4-2.2-34.8,4.2-18.6-18.3-54.5-53.6-65.7-64.7-25.7-25.5-60.7-60.9-78.2-78.7.3-1,.4-2.1.5-3.3.8-11.4-8.2-20-18-20.2-1.4,0-4.9.2-9,2.7-2.3,1.4-4.6,3.5-6.2,6.1-6.1,9.8-2.4,20.8,4.9,25.7,6.7,4.4,14.6,3.7,20.4-.3,38.7,37.9,39.8,38.9,52.8,51.9,11.4,11.3,51.8,52.3,64.6,65.1,7.8,7.9,15.4,15.5,21.6,21.6-6.6,4-13.1,9.6-18.9,17.1-41.8,1.3-79.1,2.5-106.9,2.9-13.4.2-23-.2-42.7,2.8-53.8,8.4-124.5,35.5-136.3,61-9.3,9.6-15.2,22.5-15.7,36.8C.4,295.1,0,560.4,0,581.5c0,28.1,22.1,54.2,53.6,55.8,6.9.3,327.6-.3,475.3-.5,2,.3,4.1.6,6.3.9,57.1,8.7,141.7-31.1,167.1-66.1,3.3-4.6,11.6-14.8,15.6-72.9,4.5-65.7,1.4-166.4-4.2-221.3ZM530.6,12.5c4.6-6.1,11-5.7,12-5.7h0c1.6,0,5.3,0,9.2,2.8,4.2,3.1,4.9,7.3,5.1,8,2,10.5-7.9,19-17.6,16.9-1.3-.3-2.5-.7-3.6-1.3-.7-.4-1.4-.8-2-1.3-.6-.5-1.2-1-1.7-1.5-.9-.9-1.7-2-2.3-3.1-.4-.7-.7-1.5-1-2.3-.3-.8-.5-1.7-.6-2.6-.5-3.4.3-7,2.6-10ZM471.7,84c24.3-24,26.6-26.1,55.1-54.1.6,1.2,1.4,2.3,2.3,3.2-16.3,16.5-44,44.7-58.7,59.1-11.9,11.7-60.6,59.5-76.9,75.7-.3.3-.7.7-1,1-1.3-.5-2.5-1.1-3.8-1.6,38.8-39.1,64.4-65,83.1-83.4ZM182.6,28.5c-.5.6-1.1,1.1-1.7,1.5-.6.5-1.3.9-2,1.3-3.2,1.7-7.1,2.2-11,1-10.1-3.2-13.2-14.6-8.1-21.6,4.7-6.4,11.8-5.9,12.1-5.8h0c.4,0,.4,0,.7,0,7.5,0,13.5,6,14,12.9,0,.9,0,1.9,0,2.8-.1.9-.3,1.8-.6,2.6-.3.8-.6,1.5-1,2.3-.6,1.1-1.4,2.2-2.3,3.1ZM300,145.4l-56-55c-14.7-14.5-42.4-42.6-58.7-59.1.9-1,1.6-2.1,2.3-3.2,23.2,22.8,26.4,25.7,55.1,54.1,19.2,18.9,45.7,45.7,86.2,86.6-1.2.5-2.4,1.1-3.6,1.8-9.4-9.4-12.5-12.5-25.2-25ZM305,193.2c.4-.6.8-1.1,1.3-1.7.4-.6.9-1.1,1.3-1.7,3.1-3.9,6.9-7.8,11.6-11.3,1.4-1.1,2.9-2,4.3-3,.7-.4,1.4-.9,2.1-1.3.7-.4,1.4-.8,2.2-1.2,1.2-.6,2.4-1.2,3.6-1.7.7-.3,1.5-.6,2.3-.9.8-.3,1.5-.6,2.3-.8,14.7-5,30.5-4.2,44.2,0,.8.2,1.6.5,2.4.7.8.3,1.6.5,2.3.8,1.3.5,2.6,1,3.9,1.5.8.3,1.6.7,2.4,1,.8.4,1.5.7,2.3,1.1,1.8.9,3.5,1.8,5.2,2.8,5,3,8.8,6.1,11.8,9.1.6.6,1.1,1.2,1.6,1.7.5.6,1,1.2,1.5,1.7,4.9,6.1,6.5,11.4,7,13.9-7.6,2.6-32.9,7.4-56.6,7.8-33.2.5-55.5-5.1-65.5-7.8,1.5-3.1,3.6-6.9,6.4-10.8ZM528,633.1c-6,0-12.5,0-19.6,0-2,0-4.1,0-6.3,0-101.7-.2-300.3-.6-446-.6-27.8,0-50.5-22.1-51.4-49.7,0-.6,0-37.1-.5-287.5,0-11.7,3.8-22.4,10.3-31.1.7-.9,1.4-1.8,2.1-2.7,1-1.2,2.1-2.3,3.2-3.4,9.4-9.2,22.2-14.9,36.3-14.9l509.5.5c13.1,0,25.1,5,34.1,13,18.1,16.2,17.2,37.4,17.2,38.5h0s.6,285.8.6,285.8c0,28-22,50.8-49.6,52-1.3,0-15.9,0-40,0ZM701.6,566c-10.3,17.3-41.2,40.2-81.5,55.3-10.2,3.8-19.6,6.6-28.1,8.7,17.4-9.4,29.3-27.7,29.3-48.9l.6-285.8c0-1.6.8-22.5-16.5-39.7-10.2-10.2-24.3-16.4-39.7-16.4l-509.5.5c-9.6,0-18.7,2.4-26.6,6.7,28.4-24.4,104.7-49.6,153.4-50.1,26.8-.2,68.5-1.6,116.6-3.1-2.2,3.1-4.2,6.6-6.1,10.3-.5,1.1-.7,1.1-.3,2.2,0,.3.3.5.5.7,0,.2,0,.3,0,.3.3.5,1,.7,1.4,1.1,0,0,1.3.4,1.5.4,4.7,1.1,21.2,5.1,44.4,6.3,39.4,2,73.7-4.1,81.8-7.1,2.4-.9,2.4-1.9,2.2-3.2-.6-5-2.7-10-5.8-14.6,93.2-2.1,186.2-2.6,234.1,3.4,8.1,1,12.3,1.7,17.3,4.2,31.9,16,37.7,77.2,38.1,80.4h0c.3,3.3,1.6,14.3,3,35.4,5.9,86.1,7.2,223.2-10.3,252.7ZM428.6,292.2c-7.9-7.4-18-13-28.1-14.2-58.8-7.1-256.5-6.4-313.7.5-19,2.3-38.8,21.1-44.6,43.5,0,.3-.2.7-.3,1-.2.8-.4,1.6-.6,2.5-.3,1.2-.5,2.4-.8,3.6-14.3,69.3-6.1,180.9.8,224.6,3.7,23.6,25.7,42.9,45.3,45.3,21,2.6,58.6,4.2,101,4.9,9,.1,18.2.2,27.5.3,8.1,0,16.3,0,24.6,0,65.2,0,131-2.1,160.7-5.8,19.3-2.4,40.7-21.5,44.8-44.8,4.5-25.8,6-54.9,6.4-61.5,2.9-54.8.7-125.9-5.8-169.1-.2-1.1-2-16.7-17.2-30.9ZM441.7,553.2c-3.8,21.9-24.1,39.6-41.8,41.8-37.1,4.5-128.4,5.9-205.3,4.5-8.9-.2-17.6-.3-26-.6-2.5,0-4.9-.1-7.3-.2-31.6-.9-58.3-2.4-74.1-4.3-17.4-2.1-37.8-19.7-41.3-41.3-6.9-42.7-15.2-148.7-2.9-217.6.2-1.3.5-2.6.7-3.8.2-1.3.5-2.5.8-3.7.3-1.4.6-2.7.9-4,5-21.6,24-39.8,41.7-42,58.4-7.3,248.5-6.9,310.6.3,1.6.2,12.3.6,24.6,10.7,16.9,13.9,18.6,30.8,18.7,31h0l.3,2.2c7.5,49,11.8,160.3.3,227.1ZM265.2,358.2h.6c-.7.5-1.5,1-2.2,1.5h0c.5-.5,1.1-1,1.6-1.5ZM417,340.6c-.2-.9-1.7-14.5-14.9-26.9-6.8-6.4-15.6-11.3-24.4-12.3-50.5-6.1-220.5-5.5-269.5.5-16.7,2-34.1,18.8-38.7,38.6-2.5,10.6-4.3,22.6-5.6,35.4-.2,1.6-.3,3.1-.4,4.7-.1,1.6-.3,3.2-.4,4.8-4.3,56.5,1.1,124.2,5.9,154.5,3.2,20.5,22.2,37.3,39.2,39.4,8.1,1,19,1.8,31.9,2.5,1.1,0,2.1.1,3.2.2,1.1,0,2.2.1,3.3.2,70.6,3.2,190.5,1.7,231.1-3.4,16.7-2.1,35.2-18.7,38.7-38.9,5-28.9,7.5-71.5,6.4-119.8-1.1-48-4.8-73.1-5.7-79.4ZM412.8,539.2c-3.2,18.8-20.6,34-35.6,35.9-40.7,4.9-157.1,5.4-226.9,2.4,15.8-15.2,34-32.7,52.8-50.7v-4.7c-14.7,14-31.1,29.6-58,55.1-.9,0-1.7,0-2.6-.1-1,0-2-.1-3-.2-1,0-2-.1-3-.2-11.3-.6-20.8-1.4-27.8-2.2-14.8-1.8-32.2-16.9-35.2-35.3,0-.2,0-.5-.1-.7l37.3-34.2,1.8-1.7,1.9-1.7,29.2-26.7v-5.3l-30.8,27.9-1.9,1.7-1.8,1.7-36.5,33c-4.4-30.9-8.9-88.6-6.2-139.3,0-1.7.2-3.4.3-5.1.1-1.7.2-3.3.3-4.9,1.2-15.3,3.1-29.8,5.9-42.3,4.3-18.6,20.5-34.2,35.6-36.1,38.9-4.9,146.4-5.8,217.6-3-14,12.8-29.4,26.9-45,41.2h6.1l45.2-40.9c17.6.8,32.7,1.8,43.4,3.1,1.1.1,9.9.6,20,8.9,4.9,3.9,8.3,8.2,10.7,12.1l-53,50.9v5.6l55.2-52.5c2.9,6.1,3.4,10.6,3.4,10.6h0l.3,1.9c6.5,43,10.1,138.7.3,196ZM487.2,368.5c24.3,21.6,61.3,19.7,82.7-1.6,21.7-21.6,20.7-53.2,2.5-73.9-18.3-20.8-43-20.2-44.9-20.3-2.4,0-20.5-.2-37.3,13-27.2,21.5-28,60.4-2.9,82.8ZM488.2,292.6c16.3-15.3,35.3-15,39.3-15h0c3.2,0,17.3-.2,31.5,8.9,25.8,16.6,30.4,48.9,13,71.3-19.1,24.6-57.4,29-81.9,8-23.1-19.8-23.5-53-1.9-73.2ZM528.2,372.5c8.9,0,17.9-2.5,25.5-7.8.6-.4,1-1,1.1-1.7s-.1-1.4-.6-1.9c-.9-1.1-1.8-2.2-2.8-3.2-.8-1.2-1.9-2.4-3.2-3.6-10.5-9.9-36-36.1-41.9-41.7,0,0-.2-.2-.3-.3-.1-.3-.3-.6-.5-.9-1.2-1.3-4.1-3.8-7.1-6.5-1-.8-1.7-1.5-2.1-1.8-.5-.5-1.2-.7-1.9-.7-.7,0-1.3.4-1.8.9-12.1,14.7-12.8,35.7-1.6,51,8.7,11.9,22.9,18.3,37.1,18.3ZM507.7,319.4c12.9,13.2,13,13,26.1,25.2,4.1,3.8,7.8,7.5,10.8,10.5-9.7,5.4-20,4.3-32.3-3.5-8.2-5.1-13-11.2-13.9-17.7-.8-5.7,1.3-11.8,6.1-17.9,1.1,1.1,2.2,2.2,3.3,3.3ZM495,308.4s0,0,.1.1c1.5,1.3,3.6,3.2,5.2,4.6-5.6,7.1-8,14.6-7,21.6,1.2,8,6.8,15.3,16.2,21.2,13.7,8.6,25.8,9.8,37,3.8.7.7,1.3,1.5,2,2.3-17.5,10.3-41.4,5.7-53.4-10.8-9.3-12.7-9.2-30-.1-42.8ZM502.1,418.5c-12,0-22.1,9.2-23.1,21.1-.2,2.3-.4,40.6-.4,44.2,0,12.4,9.6,22.8,22,23.5,2.2.1,36.9-.3,70.3-.6,11.3,0,22.2-9.2,22.8-22.1,0-.4.5-39.8.5-43.3,0-.5.3-8.5-6.1-15.5-4-4.4-9.6-7.2-15.8-7.6-2.4-.2-33.9.5-70.3.3ZM589.4,441.4h0s.5,42.6.5,42.6c0,9.8-7.8,18.5-17.8,19.1-2.2.1-28.2-.3-70-.5-10.6,0-18.3-8.5-18.8-17.6,0-1.1-.4-40.1-.4-43.6,0-10.7,8.5-19.4,19.2-19.5,27-.2,60.1.2,68.4.3,6.3,0,10.9,3.1,13.2,5.4,5.6,5.6,5.7,11.9,5.7,13.7ZM594.6,534.6c.7.7.7.7.7,1.7,0,1,0,1-.7,1.7-.1.1-.8.8-2.3.7-22.7-1-22.7-1.1-45.3-.7-16.9.3-16.9.4-33.8-.2-12.5-.4-12.5-.6-24.9-.2-3.2,0-6.3.2-9.5.3-2,0-1.9-.5-2.7-2.4,0,0,.7-1.7.7-1.7.4-.4,1.1-.7,1.7-.7.3,0,16.8.9,23.8.8,2.5,0,16.1-.4,18.9-.4,17-.3,34,1.2,52,.9,9.2-.2,19.7-.5,19.8-.5.6.2,1.3.3,1.7.7ZM594.3,551.9c.7.7.7.7.7,1.7,0,1,0,1-.7,1.7-.1.1-.8.8-2.3.7-22.7-1-22.7-1.1-45.3-.7-16.9.3-16.9.4-33.8-.2-12.5-.4-12.5-.6-24.9-.2-3.2,0-6.3.2-9.5.3-2,0-1.9-.5-2.7-2.4,0,0,.7-1.7.7-1.7.4-.4,1.1-.7,1.7-.7.3,0,16.8.9,23.8.8,2.5,0,16.1-.4,18.9-.4,17-.3,34,1.2,52,.9,9.2-.2,19.7-.5,19.8-.5.6.2,1.3.3,1.7.7ZM593.5,567.8c.7.7.7.7.7,1.7,0,1,0,1-.7,1.7-.1.1-.8.8-2.3.7-22.7-1-22.7-1.1-45.3-.7-16.9.3-16.9.4-33.8-.2-12.5-.4-12.5-.6-24.9-.2-3.2,0-6.3.2-9.5.3-2,0-1.9-.5-2.7-2.4,0,0,.7-1.7.7-1.7.4-.4,1.1-.7,1.7-.7.3,0,16.8.9,23.8.8,2.5,0,16.1-.4,18.9-.4,17-.3,34,1.2,52,.9,9.2-.2,19.7-.5,19.8-.5.6.2,1.3.3,1.7.7ZM592,584c.7.7.7.7.7,1.7,0,1,0,1-.7,1.7-.1.1-.8.8-2.3.7-22.7-1-22.7-1.1-45.3-.7-16.9.3-16.9.4-33.8-.2-12.5-.4-12.5-.6-24.9-.2-3.2,0-6.3.2-9.5.3-2,0-1.9-.5-2.7-2.4,0,0,.7-1.7.7-1.7.4-.4,1.1-.7,1.7-.7.3,0,16.8.9,23.8.8,2.5,0,16.1-.4,18.9-.4,17-.3,34,1.2,52,.9,9.2-.2,19.7-.5,19.8-.5.6.2,1.3.3,1.7.7ZM590.7,601c.7.7.7.7.7,1.7,0,1,0,1-.7,1.7-.1.1-.8.8-2.3.7-22.7-1-22.7-1.1-45.3-.7-16.9.3-16.9.4-33.8-.2-12.5-.4-12.5-.6-24.9-.2-3.2,0-6.3.2-9.5.3-2,0-1.9-.5-2.7-2.4,0,0,.7-1.7.7-1.7.4-.4,1.1-.7,1.7-.7.3,0,16.8.9,23.8.8,2.5,0,16.1-.4,18.9-.4,17-.3,34,1.2,52,.9,9.2-.2,19.7-.5,19.8-.5.6.2,1.3.3,1.7.7ZM504.8,302.9c2.2,2.4,4.4,5,5.6,6.1.1.1.3.2.4.3.2.3.5.6.9.9,16.8,16.2,28.8,24.5,40.5,35.7.8.8,1.6,1.5,2.4,2.1,2.8,2.6,5.5,5.2,6.1,6,.5.6,1.2.9,1.9.9s0,0,.1,0c.8,0,1.5-.4,1.9-1.1,10.4-15,9.6-35-2-49.7-12.9-16.3-31.5-17.3-35.1-17.4,0,0-.2,0-.2,0-2.9,0-10.5.5-18.8,4.4-2.4,1.1-4.7,2.5-6.9,4-.6.4-1,1.1-1.1,1.9s.3,1.5.8,2c.5.5,2.1,2.3,3.5,3.9ZM550.9,340.3c-6.1-5.5-7.6-7.1-16.2-15.1-6.5-6.2-10.4-9.4-16.5-14.9-.8-.7-1.6-1.5-2.4-2.2,7.2-3.1,17.8-4,27,2.7,13.9,10.1,16.1,17.9,8.1,29.5ZM510.6,295.6c7.4-3.5,14.2-3.9,16.7-3.9h.1s0,0,0,0c3.2,0,19.8.9,31.2,15.5,9.6,12.2,10.9,28.4,3.5,41.2-2-2-4.8-4.6-6.5-6.2,8.6-13.3,5.6-24-10-35.4-9.5-6.9-22.3-7.9-33.1-2.7-1.2-1.2-2.7-3-4-4.5-.7-.7-1.2-1.4-1.7-2,1.2-.7,2.5-1.4,3.8-2Z" fill="#714e67"/><path d="M441,323.9h0c0-.2-1.8-17.1-18.7-31-12.3-10.1-23-10.6-24.6-10.7-62.1-7.2-252.2-7.6-310.6-.3-17.7,2.2-36.7,20.4-41.7,42-.3,1.3-.6,2.7-.9,4-.3,1.2-.5,2.5-.8,3.7-.2,1.3-.5,2.5-.7,3.8-12.3,68.9-4,174.9,2.9,217.6,3.5,21.5,23.9,39.1,41.3,41.3,15.9,1.9,42.6,3.4,74.1,4.3,2.4,0,4.8.1,7.3.2,8.4.2,17.1.4,26,.6,76.9,1.3,168.2,0,205.3-4.5,17.6-2.1,38-19.9,41.8-41.8,11.5-66.8,7.2-178.2-.3-227.1l-.3-2.2ZM416.3,539.8c-3.5,20.2-22,36.8-38.7,38.9-40.7,5.1-160.5,6.6-231.1,3.4-1.1,0-2.2-.1-3.3-.2-1.1,0-2.2-.1-3.2-.2-12.9-.7-23.8-1.5-31.9-2.5-17-2.1-35.9-18.9-39.2-39.4-4.7-30.2-10.2-97.9-5.9-154.5.1-1.6.3-3.2.4-4.8.1-1.6.3-3.1.4-4.7,1.3-12.7,3.1-24.7,5.6-35.4,4.6-19.8,22-36.6,38.7-38.6,49-6,219-6.6,269.5-.5,8.7,1,17.5,5.9,24.4,12.3,13.2,12.4,14.7,26,14.9,26.9.9,6.3,4.6,31.4,5.7,79.4,1.1,48.4-1.3,90.9-6.4,119.8ZM143.7,372.2h-1.4c.5-.4.9-.9,1.4-1.3v1.3ZM220,358.1h-.8v-.5c.3.2.6.3.8.5ZM236.2,372h-2.2v-2.5c.3.3.5.5.8.8.6.6,1.1,1.2,1.4,1.7ZM279.1,517h2.3c-.8.5-1.5,1.1-2.3,1.6v-1.6ZM350,386.7h-11.8v-12.2c-.8-.7-1.5-1.3-2.1-1.9h-13.1v-11.6c-1.5-.8-3.2-1.7-5.3-2.7h-52c-.7.5-1.5,1-2.2,1.5v12.9h-14.8v14.1h0c0,.1-9.2.1-9.2.1h-6.2v-14.1h-14.8v-14.4h-57.6c-.6.3-1.2.7-1.8,1v13.3h-15.2v14.1h-14c-.2.3-.3.5-.5.8v58.9h14.8v14.2c.2.1.4.3.6.4h14.2v10.6c1.4,1.2,2.8,2.4,4.3,3.7h11.3v10.6c1.2,1.2,2.4,2.4,3.6,3.6h11.1v11.3c.5.5,1,1,1.5,1.6h12.6v13c.2.2.4.4.5.5h14.6v13.3h30.2c0-.1,13.8-.1,13.8-.1.4-.2.8-.4,1.2-.6v-12.6h15.2v-13.5h14.1v-12.9h14.6v-14.2h15.4v4.4c1.3-1.4,2.5-2.7,3.8-4h-3.7v-14.7h14.8v-14.6h12.7c.7-1.1,1.4-2.1,2.1-3.1v-54.7c-.5-.7-.9-1.3-1.4-1.9h-1.3ZM172.5,394.3c-.8,1.7-1,1.6-2.4,2.9-14.9,13.2-13,22.5-10,30.6,1.4,3.9,3.4,7.7,5,11.8.4,1.1.5,1.1.6,2.2,0,.3,0,2-1.4,3.4-.1.1-.7.7-1.7,1.1-.3.1-1.9.8-3.9,0-.6-.2-1.2-.6-1.6-1-1.1-1-.9-1.2-1.6-2.5-5.4-10.1-16.4-24.5-5.5-43.3,2.3-4,5.6-8.3,11-13.3,2.1-2,4.8-1.9,5.2-1.9.9,0,1.9.2,2.7.6,2.8,1.2,3.7,3.5,3.8,3.9,1,2.7,0,4.9-.2,5.2ZM617,295.3h0c0-1.1.9-22.3-17.2-38.5-9.1-8.1-21-13-34.1-13l-509.5-.5c-14.1,0-26.9,5.7-36.3,14.9-1.1,1.1-2.2,2.2-3.2,3.4-.7.9-1.5,1.8-2.1,2.7-6.5,8.7-10.3,19.4-10.3,31.1.4,250.3.4,286.9.5,287.5.9,27.6,23.6,49.8,51.4,49.7,145.7,0,344.2.4,446,.6,2.1,0,4.2,0,6.3,0,7.1,0,13.7,0,19.6,0,24.1,0,38.7,0,40,0,27.6-1.2,49.7-24,49.6-52l-.6-285.8ZM588.1,425.9c6.4,7,6.1,15.1,6.1,15.5,0,3.5-.5,42.9-.5,43.3-.6,12.9-11.5,22-22.8,22.1-33.3.3-68.1.7-70.3.6-12.4-.8-22.1-11.1-22-23.5,0-3.5.2-41.9.4-44.2,1-12,11.1-21.2,23.1-21.1,36.4.2,67.9-.4,70.3-.3,6.2.4,11.8,3.3,15.8,7.6ZM451.5,492.2c-.4,6.6-1.9,35.7-6.4,61.5-4.1,23.3-25.5,42.4-44.8,44.8-29.7,3.7-95.5,5.7-160.7,5.8-8.2,0-16.4,0-24.6,0-9.3,0-18.5-.2-27.5-.3-42.4-.7-80-2.3-101-4.9-19.6-2.4-41.5-21.7-45.3-45.3-6.9-43.8-15.1-155.4-.8-224.6.3-1.2.5-2.4.8-3.6.2-.8.4-1.7.6-2.5,0-.3.2-.7.3-1,5.7-22.4,25.5-41.2,44.6-43.5,57.2-7,254.9-7.6,313.7-.5,10.1,1.2,20.2,6.8,28.1,14.2,15.2,14.2,17,29.9,17.2,30.9,6.4,43.2,8.7,114.3,5.8,169.1ZM490.1,285.7c16.8-13.2,34.9-13,37.3-13,1.9,0,26.6-.5,44.9,20.3,18.2,20.6,19.2,52.3-2.5,73.9-21.4,21.3-58.4,23.3-82.7,1.6-25.1-22.4-24.3-61.3,2.9-82.8ZM590.7,604.4c-.1.1-.8.8-2.3.7-22.7-1-22.7-1.1-45.3-.7-16.9.3-16.9.4-33.8-.2-12.5-.4-12.5-.6-24.9-.2-3.2,0-6.3.2-9.5.3-2,0-1.9-.5-2.7-2.4,0,0,.7-1.7.7-1.7.4-.4,1.1-.7,1.7-.7.3,0,16.8.9,23.8.8,2.5,0,16.1-.4,18.9-.4,17-.3,34,1.2,52,.9,9.2-.2,19.7-.5,19.8-.5.6.2,1.3.3,1.7.7.7.7.7.7.7,1.7,0,1,0,1-.7,1.7ZM592,587.4c-.1.1-.8.8-2.3.7-22.7-1-22.7-1.1-45.3-.7-16.9.3-16.9.4-33.8-.2-12.5-.4-12.5-.6-24.9-.2-3.2,0-6.3.2-9.5.3-2,0-1.9-.5-2.7-2.4,0,0,.7-1.7.7-1.7.4-.4,1.1-.7,1.7-.7.3,0,16.8.9,23.8.8,2.5,0,16.1-.4,18.9-.4,17-.3,34,1.2,52,.9,9.2-.2,19.7-.5,19.8-.5.6.2,1.3.3,1.7.7.7.7.7.7.7,1.7,0,1,0,1-.7,1.7ZM593.5,571.2c-.1.1-.8.8-2.3.7-22.7-1-22.7-1.1-45.3-.7-16.9.3-16.9.4-33.8-.2-12.5-.4-12.5-.6-24.9-.2-3.2,0-6.3.2-9.5.3-2,0-1.9-.5-2.7-2.4,0,0,.7-1.7.7-1.7.4-.4,1.1-.7,1.7-.7.3,0,16.8.9,23.8.8,2.5,0,16.1-.4,18.9-.4,17-.3,34,1.2,52,.9,9.2-.2,19.7-.5,19.8-.5.6.2,1.3.3,1.7.7.7.7.7.7.7,1.7,0,1,0,1-.7,1.7ZM594.2,555.3c-.1.1-.8.8-2.3.7-22.7-1-22.7-1.1-45.3-.7-16.9.3-16.9.4-33.8-.2-12.5-.4-12.5-.6-24.9-.2-3.2,0-6.3.2-9.5.3-2,0-1.9-.5-2.7-2.4,0,0,.7-1.7.7-1.7.4-.4,1.1-.7,1.7-.7.3,0,16.8.9,23.8.8,2.5,0,16.1-.4,18.9-.4,17-.3,34,1.2,52,.9,9.2-.2,19.7-.5,19.8-.5.6.2,1.3.3,1.7.7.7.7.7.7.7,1.7,0,1,0,1-.7,1.7ZM594.5,538c-.1.1-.8.8-2.3.7-22.7-1-22.7-1.1-45.3-.7-16.9.3-16.9.4-33.8-.2-12.5-.4-12.5-.6-24.9-.2-3.2,0-6.3.2-9.5.3-2,0-1.9-.5-2.7-2.4,0,0,.7-1.7.7-1.7.4-.4,1.1-.7,1.7-.7.3,0,16.8.9,23.8.8,2.5,0,16.1-.4,18.9-.4,17-.3,34,1.2,52,.9,9.2-.2,19.7-.5,19.8-.5.6.2,1.3.3,1.7.7.7.7.7.7.7,1.7,0,1,0,1-.7,1.7ZM338.5,461h.9c-.3.4-.6.7-.9,1.1v-1.1ZM294.2,504.1h3.2c-1.1.9-2.1,1.8-3.2,2.7v-2.7ZM308.3,489.9h4.5c-1.5,1.5-3,2.9-4.5,4.4v-4.4Z" fill="#fe6d68"/><path d="M187.9,517.1h15.2v5c-14.7,14-31.1,29.6-58,55.1-.9,0-1.7,0-2.6-.1-1,0-2-.1-3-.2-1,0-2-.1-3-.2-11.3-.6-20.8-1.4-27.8-2.2-14.8-1.8-32.2-16.9-35.2-35.3,0-.2,0-.5-.1-.7l37.3-34.2,1.8-1.7,1.9-1.7,29.2-26.7v1.6h15.4v-4c1.4,1.2,2.8,2.4,4.3,3.7h-4.2v14.7h14.6v14.2h14.1v12.9ZM406.6,326.7c-2.4-3.9-5.8-8.2-10.7-12.1-10.2-8.3-19-8.8-20-8.9-10.7-1.3-25.8-2.3-43.4-3.1l-45.2,40.9h35.6v14.7h-5.2c2.1,1,3.7,1.9,5.3,2.7v-3h15.4v14.1h15.2v5.6l53-50.9ZM174.5,486v3.6h3.6c-1.2-1.2-2.4-2.4-3.6-3.6ZM189.2,500.9v1.6h1.5c-.5-.5-1-1-1.5-1.6ZM203.3,516h.5c-.2-.2-.4-.4-.5-.5v.5ZM338.2,374.5v-1.9h-2.1c.6.6,1.3,1.3,2.1,1.9ZM157,445.5c.5.4,1,.8,1.6,1,2,.7,3.6,0,3.9,0,.9-.4,1.5-1,1.7-1.1,1.4-1.4,1.4-3.1,1.4-3.4,0-1.2-.1-1.1-.6-2.2-1.6-4.1-3.6-7.9-5-11.8-3-8.1-4.9-17.4,10-30.6,1.5-1.3,1.6-1.2,2.4-2.9.2-.4,1.2-2.6.2-5.2-.2-.4-1.1-2.7-3.8-3.9-.8-.4-1.8-.6-2.7-.6-.4,0-3.1,0-5.2,1.9-5.4,5-8.7,9.3-11,13.3-10.9,18.8.2,33.2,5.5,43.3.7,1.3.5,1.4,1.6,2.5Z" fill="#fff"/><path d="M143.7,358h15.4v14.7h-15.2v14.1h-14.5v59.7h14.8v14.6h14.8v14.7h-15.4v-14.6h-14.8v-14.4h-14.8v-60.9h14.5v-13.7h15.2v-14.1ZM307.6,489.5h-14.6v12.9h-14.1v13.5h-15.2v13.3h-15c0,.1-30.2.1-30.2.1v-13.3h-15.2v-13.5h-14.1v-12.9h-14.6v-14.2h-15.4v14.7h14.6v14.2h14.1v12.9h15.2v13.5h15v13.3h46.1v-13.4h14.9v-13.5h15.2v-12.9h14.1v-14.2h14.6v-14.7h-15.4v14.2ZM353.6,385.8v-13.7h-15.2v-14.1h-15.4v14.7h15.2v14.1h14.5v59.7h-14.8v14.6h-14.8v14.7h15.4v-14.6h14.8v-14.4h14.8v-60.9h-14.5ZM218.5,358.4v14.4h14.8v14.1h15.4c0-.1,0-.1,0-.1v-14.1h14.8v-12.9h0v-1.5h59.4v-14.7h-60v14.4h-14.8v14.1h-14.2v-13.9h-14.8v-14.4h-60v14.7h59.4Z" fill="#565248"/></g></svg>