<?xml version="1.0" encoding="UTF-8"?><svg id="b" xmlns="http://www.w3.org/2000/svg" viewBox="0 0 572.2 720"><g id="c"><path d="M555.9,578c-6.9-7.6-14.5-12.4-21.7-15.6-7.2-7.4-21.2-11.8-36-14,.6-2.6,1.1-5.2,1.4-7.7.8-5.1,1-9,1-12.1,25.8-5.6,33.6-7.4,36-29.1,5.7-51.3,7.6-64.3,1.4-93.1,0-.2.2-.3.3-.5,9.3-17.9,2.7-44.5-3.2-67.7-4.6-18-20.8-122.4-22.4-185.5-.4-15.2,0-17.3.9-37.8.5-13.7,1.9-18.3,3.4-27,.3-1.9-1.1-3.1-1.4-3.5-14.7-17.4-32-22.7-47.1-25.5-18.6-3.5-35.6-3.7-57.8-9.1-7.2-16.6-16.5-23.2-28.7-25.7-20.2-29.6-48.6-27.4-62.9-18.1-4,2.6-4,3.4-4.2,4-.3,1.1-1,13.1-2.1,27.5-17.1,7.3-29.4,21.9-30.8,45.1-.3,4.1.9,13.3,1.8,26-.1-.5-.1-.7-.1-.7-.1-.3-.2-.7-.3-1.1-.2-.4-1-1.7-2.6-1.9-.9,0-1.8,0-4.7,2.5-10.9,9.3-19.3,28,1.9,37.5-4.8,1.3-9.2,3.4-11.6,6.4-5.8,7.2.5,15.2,3.1,18.3,3.9,4.6,7.8,9.1,11.5,13.4-2.2,13.9-5.6,28.5-10.8,43.5-1,.1-1.8.6-1.8.7-6.6,3.2-22.9,11-25.7,20.5-2.6,8.9,6.2,13.9,9.8,15.8.4.2.8.4,1.3.7-1.5,2.8-3.1,5.6-4.8,8.3-10.9-2.9-19.3,13.7-22.1,19.5-.3.6-2.4,4.9-3.7,8.1-1,2.5,1.1,4.2,2.1,4.4.3,0,.6,0,.9,0-12.9,15.3-28.4,30.2-47.3,44.2,0,0-.1,0-.2,0-11.7-5.8-27.2,12.1-33.5,14.2-.1,0-.2,0-.2,0-.4,0-.7,0-1.1,0-.2,0-1.2.2-1.9,1-1.9,2-.7,5.3,2.7,5.6.5.1,1.2.3,1.9.5-9.7,5.6-20.1,11-31.2,16.2-1.8.8-12.9,6-22.4,9.6-2.4.9-88.4,22.4-82.2,97.4.9,11.3,3.4,20.4,7.3,27.8-2,7.5-2.8,19.3,3.4,30.8,3.5,6.5,8.5,11.8,14.7,16.1,1,8.8,2.2,17.7,2.6,21.2-.2.3-.5.5-.7.8,0,0-.7,1.3-.1,2.8l-24.2,29.7c-3.9,4.8-6.2,7.4-7.5,8.9-7.9,4.4-8.3,13-.5,20.1,3.2,3,26.4,18.8,47.1,30.6,35.5,20.2,48.9,20.6,53.4,13.2.8-1.4,1-2.1.6-2.8.4-.4.7-.8.8-1.3.4-1.3,2.5-20.2,4.2-38.6,6.9,3.6,17.9,7.9,31.9,7.4,2.2,11.4,7.1,21.5,12.6,29,21,28.8,59.9,28.7,62.4,28.7.8,0,1.5,0,2.3,0,17.2,4.8,36.5,2.8,52.8-7.4,33.6-20.9,40-66.1,13.6-95-6.9-7.6-14.5-12.4-21.7-15.6-6.2-6.3-17.3-10.5-29.7-12.9.1-.4.2-.8.4-1.2,24.2-4.8,74.1-14.8,114.5-19.9,1.1-.1,2.2-.3,3.3-.4-10.3,14.9-12.9,34.9-5,52.8,12.2,27.6,44.4,39.2,70.7,26.1,1.5,2.8,3.1,5.3,4.8,7.7,21,28.8,59.9,28.7,62.4,28.7.8,0,1.5,0,2.3,0,17.2,4.8,36.5,2.8,52.8-7.4,33.6-20.9,40-66.1,13.6-95ZM414,494.4c.5,4,.6,6.9,1.2,13.7.7,9.5,1.4,20.5,7.7,27.2-41.7,6.7-87,10.1-102.4,10.2-7,0-13.9.4-20.6,1.1,41.1-17.6,78.2-37.5,114.3-52.2Z" fill="#714e67"/><path d="M417,638.3c-12.6,6.3-28,6.6-41.4-.7-26-14-32.7-49.1-13.7-72.1.4-.5.8-1,1.3-1.5,16.5-1.8,23.4-2.1,43.4-5-6.4,7.1-14.5,17.6-17,28.1-4,17,7.9,26.7,22,32.4,1,6.7,2.9,13,5.4,18.6Z" fill="#f177a0"/><path d="M149.6,617.9c-6.3,11.9-8,24.2-6.8,35.6-11.7.2-21.9-3.1-30.3-8,.3-3.7.6-7.3.8-10.6.3-4.4.5-7.4.5-9.5,8-5.6,16-11.2,24.1-16.8,3.6,3,7,5.8,11.8,9.3ZM474.5,534.7c-13.7,3.6-27.2,8.4-39.5,6.7-1.4-.2-2.7-.5-4-.9-6.6,1.1-13.9,2.3-21.9,3.4-4.2.6-8.5,1.2-13.1,1.7-3.1.4-6.3.8-9.6,1.2-.1,0-.3,0-.4,0-4.1.5-8.5,1-13,1.4-19.1,2-40.3,3.6-52.7,3.7-15.3,0-30,1.9-44,4.2-2.7,1.1-5.5,2.1-8.3,3.2-43.6,16.2-69.7,19.8-94.8,22.8-28.8,3.4-93.5,9.5-130.3-10,.5,4.5,1.2,9.7,1.9,15.5,25,11.4,34.7,15.6,44.4,20.3,1.2.6,2.4,1.2,3.6,1.8,1.1.6,2.3,1.2,3.5,1.8,3.8,2,8.2,4.3,13.7,7.4.3.2.6.3.9.5,0,0,0,0,0,0,8.5-5.9,16.9-11.8,25.4-17.7,0,0,1.8-.9,3.4.4.4.3,5.7,4.8,10.3,8.3,1,.8,1.8,1.4,2.6,2,2.5-3.7,5.4-7.2,8.7-10.4.8-.8,1.6-1.5,2.5-2.3.8-.7,1.7-1.4,2.6-2.1,2.6-2,5.4-3.9,8.3-5.5,15-8.4,28.8-8.3,32.2-8.3,7.2,0,14.9.6,22.5,1.7.1-.5.3-1,.5-1.5,0-.2.8-2.5.9-2.8,0-.2.7-1.4,2.2-1.8,22.7-4.6,48.3-9.3,52.6-10.1,36.6-6.7,57.9-9.6,74.3-11.4,1.8-.2,3.6-.4,5.3-.6,2.1-.2,4.1-.4,6.1-.6,13.1-1.3,24.3-2.4,41-5,0,0,.1,0,.2,0,2.1-.3,2.1-.4,2.6-.4,1.7,0,3,1.4,3.2,3,0,.8-.2,1.7-.9,2.5-5.3,5.7-29.3,28.7-20.4,44.5,2.6,4.7,7.8,8.3,13.7,11.1-.5-11.3,1.9-23.2,8.9-34.7,3-5,6.8-9.5,11.1-13.5.8-.7,1.6-1.5,2.4-2.2.8-.7,1.7-1.3,2.5-2,2.4-1.8,4.9-3.5,7.6-5,15-8.4,28.8-8.3,32.2-8.3,5.2,0,10.7.4,16.2.9,1.4-6.2,2.3-12.7,2.4-17.5-5.7,1.3-12.3,2.8-19.6,4.7Z" fill="#9d9d9d"/><path d="M520.7,621.9c-2.5,11-17.4,15-25.6,6.5-8.4-8.6-2.6-23.3,11-23.6,10.5.2,16.4,9,14.6,17ZM237.7,642c-13.6.2-19.4,14.9-11,23.6,8.2,8.4,23.1,4.5,25.6-6.5,1.8-8-4.1-16.8-14.6-17ZM533,413.6c-12.5,13.6-36.3,19.6-65.5,26.2-117.4,26.5-111.5,77-295.4,101.5-1.4.2-2.7.4-4.1.5-1.3.2-2.7.3-4,.5-9.6,1.2-19.7,2.3-30.4,3.4-30.3,3-55.4,4.3-74.8,1-1.6-.3-3.1-.6-4.7-.9-1.5-.3-3-.7-4.5-1.1-11.2-3.1-20.1-8.2-26.5-16.1-.8,8.6,1.1,20.3,12.1,30.3,1.1,1,2.2,1.9,3.4,2.8,1.1.8,2.2,1.6,3.5,2.4,12.4,7.8,32.2,13.8,63.4,15,.9,0,33.5,2.1,88.4-6.3,15.3-2.3,30.7-6.1,46.1-10.8,6.3-1.9,12.6-4,18.8-6.2,5.4-1.9,10.7-3.9,16-6,51.3-20,100-46.9,139.3-62.5.2,0,1.6-.6,1.9-.7,1.4-.3,3.4.4,3.8,2.7,1.5,8,1.5,24.7,3.6,33.2,1.3,5.2,3.4,9.2,8.2,11.3,2.5,1.1,5.8,1.6,10,1.4,3.1-.1,6.8-.6,11.1-1.5,11.2-2.4,11.3-3.8,43.7-10.9,1-.2,2.1-.5,3.1-.7,0,0,0,0,.1,0,22.9-5,27.8-6,30-20.5,0-.1,4.2-34.7,5.2-50.7.9-14.6.3-24.7-2.1-37.5Z" fill="#565248"/><path d="M107.1,624.5c0,0,.1,0,.2,0,0,3.1-.4,9.3-1,16.9,0,1.2-.2,2.4-.3,3.7-.1,1.2-.2,2.4-.3,3.7-.8,9.2-1.8,19.4-2.8,28-.6-1.9-1.5-4-3-6.2-11.1-17.4-43.6-32.4-46.5-33.7-15.4-6.9-27.6-9.1-36.4-8.5,1.6-2,3.8-4.6,7.2-8.9,9.9-12.2,16.3-19.9,18.7-22.9,7,3.8,21.4,9.9,35,15.6,1.1.4,2.1.9,3.1,1.3,1.2.5,2.4,1,3.5,1.5,9.9,4.1,18.6,7.6,22.6,9.5ZM98.1,690.9c-.5-.7-.7-1.5-.8-2.3-.1-1.2,0-2.4.1-3.9,0-1.2,0-2.6-.2-4.1-.6-2.9-2.2-6.6-6.4-11.2-10.1-11.3-32.8-24.4-48.8-30.1-13.7-4.9-23.7-5.3-29.6-3.8-1.3.3-2.4.8-3.3,1.3-1.1.6-1.9,1.4-2.4,2.2-.3.6-.5,1.3-.4,1.9.4,4,6.3,7.8,7.9,8.9,23.7,16.8,70.9,46.1,84.4,43,.5-.1.9-.3,1.1-.5-1-.4-1.7-1.3-1.8-1.5ZM450.4,649.9c-4.1-7.3-6.5-15-7.4-22.8-.1-1.1-.2-2.1-.3-3.2,0-.6,0-1.1,0-1.7,0-.5,0-1,0-1.5,0-2.2,0-4.4.3-6.6.5-4.9,1.5-9.8,3.2-14.4.9-2.6,2-5.1,3.2-7.6,5.9-11.8,15.7-21.9,28.7-28.4,3.6-1.8,7.2-3.1,10.5-4.1,1.3-.4,2.5-.7,3.7-1,1.3-.3,2.4-.5,3.6-.7,5.6-1,9.8-1,11.7-1,0,0,0,0,.2,0-3.2-.8-6.9-1.5-11-2.1-1-.2-2.1-.3-3.2-.4-1.1-.1-2.1-.3-3.2-.4-4.4-.4-9.3-.7-14.6-.8-14.8.1-26.8,5-35.9,12-.9.7-1.7,1.3-2.5,2-.8.7-1.6,1.4-2.4,2.2-5.4,5.1-9.4,10.9-12.2,16.6-4.3,8.8-6.1,18.7-5.2,29.2.1,1.2.3,2.3.4,3.5.2,1.2.4,2.4.7,3.6.8,3.7,1.9,7.5,3.4,11.4.2.5.4,1,.6,1.5.4,1,.9,2,1.3,3,.5,1,1,2,1.5,2.9,8.2,15,19.4,21.3,23.7,23.6,7,3.8,14.9,6.4,22.4,7.9-8.5-5.5-15.9-13.1-21.2-22.5ZM562,639.9c-8.9,22.8-31.4,36.7-55,36.6-2.7,0-5.4-.2-8.1-.6-3-.4-5.9-1.1-8.8-2-1.6-.5-3.2-1-4.8-1.7-20.3-8.1-33.4-26-35.9-45.8-.1-1.1-.2-2.2-.3-3.3,0-1.1-.1-2.3-.1-3.4,0-7.4,1.5-14.8,4.6-22,5.1-11.8,15.5-23.8,30.8-30.1,1.5-.6,3.1-1.2,4.7-1.7,1.3-.4,2.7-.8,4.1-1.1,4.4-1.1,9.2-1.7,14.2-1.7,2.4,0,10.4,0,20.1,3.4.9.3,1.9.7,2.8,1.1,1.9.8,3.7,1.7,5.5,2.6,1.5.8,3,1.7,4.5,2.7,21.8,14.4,31.6,42,21.8,67ZM540.5,608.6c-.8-1.8-1.8-3.6-3-5.3-.9-1.3-1.9-2.4-3-3.6,0,0,0,0-.1-.1-9.2-9.3-19.7-9.3-22.1-9.3-.3,0-.5,0-.8,0-18.9.4-33.8,18.4-29.3,37.9,4.5,19.3,25.8,29.4,43.4,20.9.7-.3,1.4-.7,2.1-1.1,1-.6,1.9-1.2,2.7-1.8,2-1.4,3.7-3,5.2-4.7,7.9-9.1,9.7-22.1,4.9-32.9ZM182,687c-6.7-12.1-9-25.3-7.3-38,1-7.3,3.2-14.3,6.6-20.8,4.9-9.3,12.2-17.5,21.6-23.6,1.3-.8,2.5-1.6,3.9-2.4.9-.5,1.8-1,2.7-1.5.5-.3,1-.5,1.6-.7,5.9-2.7,11.5-4.3,16.1-5.1,1.2-.2,2.3-.4,3.4-.5,1.2-.2,2.4-.3,3.4-.3,2.3-.2,4-.2,5-.2,0,0,0,0,.2,0-1.5-.4-3.1-.7-4.9-1.1-1-.2-2.1-.4-3.2-.6-1-.2-2.1-.3-3.2-.5-6-.8-12.8-1.4-20.7-1.6-14.6.1-26.4,4.9-35.5,11.6-.9.6-1.7,1.3-2.5,2-.8.7-1.6,1.4-2.4,2.1-3.4,3.2-6.3,6.7-8.7,10.2-.6.9-1.2,1.8-1.7,2.7-.6.9-1.1,1.9-1.6,2.8-.2.4-.4.8-.6,1.2-4.4,9.1-6.2,19.3-5.1,30.1.1,1.1.3,2.1.4,3.2.2,1,.4,2.1.6,3.2.8,3.7,1.9,7.4,3.4,11.2,8,20.4,22.2,28.3,27.2,31,7,3.8,14.9,6.4,22.4,7.9-8.5-5.5-15.9-13.1-21.2-22.5ZM293.6,677c-8.9,22.8-31.4,36.7-55,36.6-2.7,0-5.4-.2-8.1-.6-3-.4-5.9-1.1-8.8-2-1.6-.5-3.2-1-4.8-1.7-30.1-11.9-44.4-45.5-31.7-74.5,4.6-10.7,13.6-21.5,26.5-28.1,1.4-.7,2.8-1.4,4.3-2,1.6-.7,3.2-1.2,4.9-1.8,1.6-.5,3.3-1,5-1.3,1.1-.2,2.2-.5,3.4-.6,1.1-.2,2.2-.3,3.3-.4,2.1-.2,4.2-.4,6.4-.4,2.4,0,10.4,0,20.1,3.4.9.3,1.9.7,2.8,1.1,1.9.8,3.7,1.7,5.5,2.6,1.5.8,3,1.7,4.5,2.7,21.8,14.4,31.6,42,21.8,67ZM272,645.7c-.8-1.8-1.8-3.6-3-5.3-.9-1.3-1.9-2.4-3-3.6,0,0,0,0-.1-.1-9.2-9.3-19.7-9.3-22.1-9.3-.3,0-.5,0-.8,0-18.9.4-33.8,18.4-29.3,37.9,4.5,19.3,25.8,29.4,43.4,20.9.7-.3,1.4-.7,2.1-1.1,1-.6,1.9-1.2,2.7-1.8,2-1.4,3.7-3,5.2-4.7,7.9-9.1,9.7-22.1,4.9-32.9ZM357.3,434.6c4.6-14.9,5.9-29.2,3-36.2-2.5-6-18.4-13.8-22-6.9-3.7,7.2,4.1,24.3,4.3,25.1.5,2.1-1.4,4.5-4.1,3.8-1.6-.4-24.2-7.8-29.5,7.8-1.5,4.5-1.4,9.4-.9,14,0,.7,1.1,2.1,3,3.6,3.9,3.2,11.5,6.9,21.5,6.3,12-.7,20.2-7.4,20.6-7.4.8-.2,1.6-.6,2.4-.5,0,0,.4.2.8.5l1.7-3.3c-.5-.4-1.2-.7-1.5-1.3-.8-1.5-.4-1.6,0-3.2.2-.7.5-1.5.7-2.2ZM433.2,252.8c.5.6,1.2,1.2,1.4,2,0,0,0,.4-.1.9l3.7.2c.1-.7.2-1.4.6-1.9,1.1-1.3,1.3-1.1,3-1.3,16.4-1.8,31.1-6.7,36.5-12.5,4.4-4.8,4.9-22.5-2.8-22.9-8.1-.4-20.4,13.7-21.1,14.3-1.7,1.3-4.6.6-5.1-2.2-.3-1.5-2.4-21.2-15.2-23.5-1.3-.2-2.6-.3-4.1-.1-4.7.5-9.1,2.6-13.1,4.9-1.7,1-4.7,10.3-1.1,21.2.6,1.7,1.3,3.4,2.2,5.2,5.6,10.6,15.1,15.4,15.3,15.7Z" fill="#fb96b8"/><path d="M126.4,465.2c-18.4,12-58.4,1.7-58.4,1.7-.8,0-1.7,0-2.4.4-.5.3-.8.9-1.2,1.5l-8.3-3.6c.2-.4.4-.8.4-.8.1-.8-.4-1.6-.6-2.3-.2-.5-10.4-11.7-15.7-30.2,12.7-12.3,28.1-20.1,39.6-24.8,3.8-1.5,6.6-2.5,8.9-3.3,2,12.3.8,24.1.7,25.7-.1,2.8,2.6,4.1,4.6,3.2,1.1-.5,20.6-15.9,33.1-14,17.3,2.6,9.1,40.3-.8,46.7ZM414.3,346.5c-.8-1.5-.4-1.6,0-3.2,5.1-15.7,6.8-31.1,3.7-38.4-2.5-6-18.4-13.8-22-6.9-3.7,7.2,4.1,24.3,4.3,25.1.5,2.1-1.4,4.5-4.1,3.8-1.6-.4-24.2-7.8-29.5,7.8-1.5,4.5-1.4,9.4-.9,14,.2,2.3,9.8,10.7,24.5,9.9,12-.7,20.2-7.4,20.6-7.4.8-.2,1.6-.6,2.4-.5,0,0,.4.2.8.5l1.7-3.3c-.5-.4-1.2-.7-1.5-1.3Z" fill="#ff7477"/><path d="M203.3,367.7c-2.1-9.8-4.8-17.7-7.3-24.2,2.3-1.9,4.5-3.8,6.6-5.6,3.5,1.2,7.1,2.4,11,3.6,5,16.2,7.5,33.3,8.7,47.8-5.8-7.4-12.4-14.9-19.1-21.6ZM223.1,321c-.8-.2-1.6-.4-2.4-.6-1.9,2-3.8,4-5.8,5.9-.8.8-1.6,1.6-2.5,2.4-.8.8-1.7,1.6-2.5,2.4-.6.6-1.3,1.2-1.9,1.8,1,.3,2,.7,3,1,1.3.4,2.5.8,3.8,1.2,1.2.4,2.5.8,3.8,1.1,11.4,3.4,24.3,6.3,37.4,7.8-3-6.7-6-12.8-9.1-18-7.1-.9-15-2.4-23.9-5ZM285.4,328.2c-.5-.1-1.1-.2-1.7-.3.2.5.5,1,.7,1.5.3-.4.6-.7,1-1.1ZM264,279.2c-2.4-.7-5-1.2-7.8-1.5,2.4,2.9,4.3,6.6,5.9,9.5,1.8,3.1,3.5,6.3,5.3,9.4,11.9,3.1,24.9,5.6,37.9,6.3,2.6-3.6,5-7.2,7.4-10.8-5.3-2.1-10.8-4.5-16.5-7-8.9-.7-19.6-2.2-32.1-5.9ZM276.1,235.4c2.3,3.1,7,7.3,16.5,12.6,13.3-2.9,27.5-7,40.4-13.1-4.7-3.5-9.6-7.7-14.8-12.4-9.1,4.1-20.9,8.6-36.7,11.5-1.8.3-3.6.8-5.4,1.4ZM349.1,176.5c.4-2.3.8-4.5,1.2-6.9-5.6-1.4-11.4-3-17.5-4.9-5.5,2.3-11.9,4.7-19.4,6.7,1.5,1.8,3.2,3.8,5.1,5.9,2.2,2.5,4.6,5,7.2,7.5,7.9-2.3,15.9-5,23.5-8.4ZM285.9,192.8c1-.1,2.1-.3,3.2-.4-.9-1-1.7-1.9-2.6-2.9-.2,1.1-.4,2.2-.6,3.3ZM234.6,418.2c-.2-.4-.5-.8-.6-1.1-1.2-2.1-2.7-4.3-4.2-6.7-1-1.6-2.1-3.2-3.3-4.9-.8-1.1-1.6-2.3-2.4-3.4-.3-.4-.6-.9-.9-1.3-.3-.4-.7-.9-1-1.3-.6-.9-1.3-1.7-2-2.6-4.5-6-9.6-12.1-14.9-17.9-1.3-1.4-2.6-2.8-3.9-4.1-1.3-1.4-2.7-2.7-4-4-6.1-5.9-12.2-11-18.1-14.5-1-.6-2.1-1.2-3.1-1.7h0c-.1,0-.3-.1-.4-.2-1.3-.7-2.9-.6-4.7-.1-5.3,1.5-12.1,7.2-17.7,11.1.1,0,.2,0,.3.1,1.1.4,2.3,1,3.6,1.5h0c1.1.5,2.2,1.1,3.4,1.7,9.4,4.9,22.2,13.6,36.1,29.4,3.9,4.4,7.3,8.7,10.3,12.9.7.9,1.3,1.8,1.9,2.7.6.9,1.3,1.8,1.9,2.7,4.5,6.7,7.7,12.7,10,17.4,1.3,2.6,2.3,4.8,3,6.6.5,1.2.8,2.1,1.1,2.8,3.5.8,11.6,1.9,14.2-5.3,1.6-4.5.3-9.7-1.5-13.9-1.1-2.5-2.3-4.6-3.1-6ZM293.9,370.9c-.5-2.2-1.2-4.5-1.9-6.8-1.4-4.4-3.1-9-5.1-13.8-.4-1-.8-2-1.3-3-.4-1-.9-2-1.3-3-.5-1.1-.9-2.1-1.4-3.2-.5-1.1-1-2.1-1.5-3.2-.5-1-1-2.1-1.5-3.1-1.1-2.4-2.3-4.8-3.5-7.2-.5-1.1-1.1-2.1-1.6-3.2-.5-1.1-1.1-2.2-1.7-3.2-3.2-6.3-6.6-12.6-10-18.8-.7-1.3-1.4-2.6-2.2-3.9-.7-1.3-1.5-2.7-2.2-4-1.7-3.1-3.4-6.1-5.1-9-.9-1.6-1.7-2.8-2.5-3.7-.9-1-1.7-1.7-2.4-2.1h0c-1.3-.8-2.5-.8-3.5-.4-.9.3-1.6.8-2.3,1.3-4.9,3.8-9.4,12.8-12,18.6,0,0,0,0,0,0,.9.3,1.9.8,3,1.4.8.5,1.7,1.1,2.7,1.8,3.9,3,8.8,8.4,14.5,17.9.6,1.1,1.3,2.2,2,3.4.6,1.1,1.2,2.2,1.9,3.4,1.6,3,3.3,6.3,5,9.9,1.2,2.6,2.4,5.3,3.6,7.9.5,1.1.9,2.2,1.4,3.3.3.8.6,1.5.9,2.2.1.3.3.7.4,1,.3.8.6,1.5.9,2.3.4,1.1.9,2.2,1.3,3.3,7.2,18.7,11.6,35.2,13.1,41.2,8.7-.2,15.4-3.3,14-18.4-.3-2.7-.8-5.6-1.5-8.8ZM353.7,277.8c-1.4-.4-2.8-.7-4.3-1.1-5.3-1.5-11.3-3.2-17.6-5.3-1-.3-2-.7-3.1-1-1-.3-2-.7-3.1-1.1-6.3-2.2-12.9-4.7-19.4-7.5-5.7-2.4-10.5-4.8-14.6-7-1.5-.8-3-1.6-4.3-2.4-1.5-.9-2.8-1.7-4.1-2.5-5.3-3.5-8.9-6.6-11.2-9.3-.9-1-1.6-1.9-2.1-2.8,0,0,0-.1-.1-.2-.7-1-1.1-2-1.5-2.9-.3.2-.7.4-1.1.6-7.8,4-21.3,11.9-18,17.7,1.2,2.2,4.3,4.1,7.5,5.7,1,.5,1.9,1,2.9,1.5.4.2.7.4,1.1.6.6.3,1.2.6,1.7.9,9.9,5.1,22.4,11.4,35.2,17.2,2.7,1.2,5.3,2.4,8,3.5,2.6,1.1,5.3,2.2,7.9,3.3.8.3,1.7.7,2.5,1,1,.4,2,.8,3,1.2,1,.4,2.1.8,3.1,1.1,3.3,1.2,6.6,2.3,9.8,3.3,1.2.4,2.3.7,3.4,1,1.1.3,2.2.6,3.3.9.9.2,1.9.5,2.8.7,2.2.5,4.4.9,6.5,1.1,7.7,1,13.9.3,17.5-2.9,3.5-3.1,3.9-8.2,3.8-11.5-3-.6-8.5-1.9-15.6-3.7ZM363.3,225c-1.4-1-2.9-2.1-4.6-3.3-1.6-1.2-3.3-2.5-5-3.8-1.4-1.1-2.8-2.2-4.3-3.3-.9-.7-1.9-1.5-2.8-2.3-.9-.8-1.9-1.5-2.8-2.3-.4-.3-.8-.7-1.2-1-1.1-.9-2.2-1.8-3.3-2.8-5.1-4.3-10.3-9-15.5-14-.9-.9-1.8-1.7-2.7-2.6-.4-.4-.7-.7-1.1-1.1-.5-.5-1-1-1.5-1.5-4.9-5.1-8.9-9.6-12-13.6-.7-1-1.5-1.9-2.1-2.8-.7-1-1.4-1.9-2-2.9-4.7-7-6.5-12.1-7.1-15.7-1.5-.6-3-1.1-4.5-1.7-.5-.2-1-.4-1.6-.6-.5,0-1.1.1-1.6.2h0c-1.1.2-2.2.3-3.2.5-7.3,1.3-14.4,3.8-13.9,8.4.4,3.5,4.5,7.8,7.7,11.5,1.3,1.5,2.6,3.1,4,4.7.9,1.1,1.8,2.1,2.8,3.2,0,0,0,0,0,0,.3.4.7.8,1,1.1.6.7,1.2,1.4,1.8,2.1,2.8,3.2,5.8,6.6,8.9,9.9.9.9,1.7,1.9,2.6,2.9.9.9,1.7,1.9,2.6,2.8,5.7,6.1,11.6,12.3,17.6,17.9.8.8,1.7,1.6,2.5,2.4.9.8,1.7,1.6,2.6,2.3,5.1,4.6,10,8.7,14.8,12,0,0,0,0,.1.1.9.6,1.8,1.2,2.7,1.8,0,0,.2.1.3.2.9.6,1.7,1.1,2.6,1.6.2.1.4.2.5.3,6.9,3.9,12.9,5.7,17.5,4.1,4.4-1.5,6.7-6.1,7.9-9.2-.6-.4-1.2-.8-2-1.4-1.5-1-3.4-2.4-5.6-4ZM398.1,150.9c-2.3-.2-6.3-.7-11.4-1.4-2-.3-4.1-.6-6.4-.9-5.4-.8-11.7-1.9-18.6-3.2-1-.2-2.1-.4-3.2-.6-1-.2-2.1-.4-3.2-.6-5.6-1.2-11.5-2.5-17.6-4-4.6-1.2-8.9-2.3-12.8-3.4-.6.2-1.4.5-1.4.5-.7-.4-1.6-.5-2.2-1.1-.1-.2-.2-.3-.3-.5-1-.3-2-.6-2.9-.9-4.1-1.3-7.7-2.6-10.9-3.8-1-.4-2.1-.8-3-1.2-1.1-.4-2.1-.8-3-1.2-4.2-1.8-7.6-3.4-10.2-4.9-1.2-.7-2.3-1.3-3.3-1.9,0,0,0,0,0,0-1.3-.9-2.4-1.6-3.3-2.3-2.1-1.6-3-2.7-3.3-3-.9-.9-1.6-1.9-2.1-2.7-5.5,5.3-10.6,14.2-5.7,20.4,2.5,3.1,6.1,4.8,11.4,6.9,1,.4,2.1.8,3.2,1.2h0c.7.3,1.4.5,2.2.8.2,0,.4.2.7.3.1,0,.2,0,.4.1,1.9.7,3.9,1.5,5.9,2.2.2,0,.5.2.8.3.3.1.7.3,1,.4.7.2,1.3.5,2,.7,0,0,0,0,.1,0,.3.1.5.2.8.3.7.3,1.4.5,2.1.8,9,3.3,18.8,6.7,28.5,9.8,1.5.5,3.1,1,4.6,1.4s3.1.9,4.6,1.4c3.3.9,6.6,1.8,9.8,2.6,1.1.3,2.1.5,3.1.7,1.1.2,2.1.5,3.2.7,3.1.7,6.1,1.2,9,1.7,1.5.2,2.9.4,4.2.6,1.4.2,2.7.3,4,.4.5,0,1,0,1.5,0,2.3.1,4.5,0,6.5,0,1,0,1.9-.2,2.9-.3,11.5-1.8,13.3-8.1,12.2-16.2Z" fill="#d3fa98"/><path d="M536.7,620.5c0,2.8-.3,5.7-1.2,8.4-1.1,3.4-3,6.5-5.6,9.2-.3.3-.5.5-.8.8-12.2,11.5-30.8,7.5-38.2-5.6,8.6,8.3,23.6,8.4,32-1.7,10.6-12.8,2.1-32.8-16.7-33.2-.2,0-.4,0-.5,0-1.1,0-2.2.1-3.3.3.5-.2,1-.4,1.5-.6,4-1.4,6.8-1.5,8.4-1.5h0c.3,0,5,0,9.8,2,5.6,2.5,9.6,6.5,12,11.3,1.7,3.3,2.6,6.9,2.7,10.5ZM253.6,635.9c-4.8-2.1-9.5-2-9.8-2.1h0c-1.6,0-4.5,0-8.4,1.5-.5.2-1,.4-1.5.6,1.1-.2,2.1-.3,3.3-.3.2,0,.4,0,.5,0,18.8.3,27.3,20.4,16.7,33.2-8.3,10.1-23.4,10-32,1.7,7.4,13.1,26,17.1,38.2,5.6.3-.3.5-.5.8-.8,2.6-2.7,4.5-5.8,5.6-9.2.9-2.7,1.3-5.6,1.2-8.4-.1-3.6-1-7.2-2.7-10.5-2.4-4.7-6.4-8.8-12-11.3ZM419.9,82.4s0,0,0,.1c18.7-1.1,39.9-.8,59.5-1,5.2,0,14.6-.2,23.3-.8-11.9-10.1-25.4-14.2-46.2-17.1-15.9-2.1-28.4-3.2-42.9-6.4,1.5,4.3,2.8,9,4.1,14.4,1,4.4,2.2,10.2,2.2,10.8ZM415.3,420.5c-1.4,6.8-2.5,14-3.5,21.6-.5,4.3-.9,8.1-.9,8.1,0,0,0,.2,0,.3-62.5,25.4-86.3,58.4-204.8,79.1-7.7,1.3-15.9,2.6-24.4,3.9-5.6-22.7-8.5-39.3-6.3-54.9,2.5-17.9,11.8-34.4,31.1-57,4.1,6.3,7.6,12.6,10.3,18.8-.2,1.1,0,2.2,1.1,2.6,0,.2.1.3.2.5,1.7,4.3,1.5,5.1,4,5.8,18.9,5.3,28.9-8.6,22.2-26-1.9-5.1-7.4-14.3-14.9-24.6-.3-.4-.6-.8-.9-1.2.3-.3.5-.5.8-.8,6.7-6.9,14-14.4,22.2-22.6,4.1-4.1,8.1-8.2,11.9-12.1,3.2,8.5,6.2,17.6,8.9,26.9,3.5,12.1,3.2,13.4,4.2,14.4,1.1,1.2,2.7,1.1,2.8,1.1,4.1.2,9.3-.2,13.7-2.6,10.2-5.6,11-18.5,6.3-35.6,1.2-1,1.9-1.7,2-1.8.4-.7,1-1.4,1-2.2,0-1.3,0-1.4-.8-2.3-.9-1-.9-1-2.2-1-1.2,0-1.3,0-2,.6-1.2-3.5-2.5-7.2-4.1-10.9-.4-1-.8-2-1.2-3-.4-1-.8-2-1.3-2.9-1-2.3-2-4.6-3.1-6.9,1-1.2,2-2.3,3-3.5.8-.9,1.5-1.8,2.2-2.7.7-.9,1.5-1.7,2.2-2.6,4.9-6,9.4-11.8,13.5-17.3.8-1.1,1.5-2.1,2.3-3.1.8-1.1,1.5-2.1,2.3-3.2,2.1-3,4-5.8,5.8-8.7,4.8,1.8,9.4,3.3,13.7,4.6,1.1.3,2.1.6,3.2.9,1.1.3,2.2.6,3.2.8,0,0,0,0,0,0,0,0,0,0,0,0-.5,1.2-1.1,2.5-1.7,3.8,0,0,0,.2-.1.2-4.1,8.9-4.9,8.9-4.3,10.9.2.8,1,1.2,1.6,1.9,0,0,2.4.2,2.5.2,1.2-.4,1.3-.4,1.9-1.6,1.3-2.5,3.7-7.2,6.7-14.2.4,0,.9.2,1.3.2,11,1.5,17.9-.4,22.2-3.7,2.7-2.1,4.4-4.8,5.4-7.7,1.4-4,1.5-8.3,1.2-11.7-.2-3.1-2.1-3.3-3.7-3.6-5-1.1-10.2-2.3-15.3-3.6,2.2-6.9,6.3-20.1,6.3-20.5,0-.8,0-1.7-.3-2.4-.6-1.1-.7-1.2-1.9-1.5-1.2-.4-1.3-.3-2.4.3-1.2.6-1.5,1.7-1.5,1.9-3,10.4-5.1,17-6.3,20.6-5.4-1.5-10.7-3.1-15.9-4.8,3.6-8.1,6.4-16,8.7-23.9,23.4,12.8,31.5-1.9,34.4-11,1-3-.7-3.8-2-4.7-1.7-1.1-3.4-2.3-5-3.5,1.6-6.2,3.1-12.5,3.1-12.7,0-.8,0-1.7-.4-2.4-.7-1.1-.7-1.1-2-1.4-1.3-.3-1.3-.3-2.4.4-1.1.7-1.2.7-1.4,2-.9,3.9-1.7,7.2-2.5,10.1-4.8-3.5-9.6-7.2-14.3-11,1.4-8.2,2.7-17,4.2-26.4.2-1.3.4-2.6.7-3.9.2-1.3.4-2.6.7-3.9.1-.7.2-1.3.3-2,.8.2,1.6.3,2.3.5,1.6.3,3.2.6,4.7.9,1.6.3,3.2.5,4.7.7,2.3.3,4.6.5,6.7.6-.8,3.9-2.1,9.6-3.8,17.5-.3,1.3.4,2.2.5,2.4.4.7,1.3.9,2,1.4,0,0,2.4-.4,2.4-.4.7-.4.9-1.3,1.4-2,0,0,2.5-11.4,4.1-18.8,24.1-.9,24.1-17,22.4-26.1-.6-3.1-2.5-3-4-3.2-3.9-.4-8-.9-12.1-1.4,1.5-7.4,3.5-17.7,3.5-17.9,0-.8,0-1.7-.5-2.4-.7-1.1-.8-1.1-2-1.3-1.3-.2-1.3-.2-2.4.5-1.1.7-1.1.8-1.4,2-1.6,8.5-2.7,14.3-3.5,18.1-6-.9-12.2-1.9-18.4-3.1.6-2.3,1.2-4.7,1.8-7.1,7.1-15.4,7.3-26.1,15.3-33.7,1.5-1.5,3.3-2.7,5.3-3.9,2-.7,3.9-1.3,5.9-1.6-.4.5-.6,1.1-.9,1.7,0,0,0,0-.6,3.2-1.7,9.1-1.7,9.1-1.7,9.4,0,.8,0,1.7.5,2.4.5.7,1.4.9,2,1.3,0,0,2.4-.5,2.4-.5.7-.5.9-1.4,1.3-2,0,0,2.3-12.6,2.3-12.6,0-.8,0-1.7-.5-2.4-.4-.6-.6-.9-.9-1,5.5-.7,10.7-.6,14.8-1.5,1.5-.3,1.8-.2,2.5-1.3,6.7-.6,12.8-.8,16.5-.9,29.6-1.1,60.5.2,79.5-1.9.6.6,1.1,1.2,1.7,1.8-.6,3.4-1.4,7.5-2,12-.3,2.1-.6,4.3-.7,6.6-.5,5.5-.4,9.6-1.1,23.1-2.1,38.5,6.2,109.4,13.5,158.5-36.8,15.4-87.4,44.3-104.8,132ZM308.2,350c0,.8.7,1.5,1,2.2,0,0,2.3.9,2.3.9.2,0,1.3,0,2.2-1,3.3-3.6,9.2-10.1,15.6-19.8,1-1.5,1.3-1.5.9-3.2-.3-1.3-.3-1.3-1.4-2-1.1-.7-1.2-.7-2.4-.4-.8.2-1.4.9-2,1.4-.2.1-5.2,8.6-14.9,19.2-1.1,1.2-1.4,1.2-1.4,2.8ZM248.4,411.5c1.3,0,2.1-.8,2.3-1,11-11,18.2-17.5,18.3-17.7.5-.7,1-1.4,1-2.2,0-1.3,0-1.4-.8-2.3-.9-1-1-1-2.2-1-.8,0-1.6.5-2.3.8-.4.2-18.2,17.4-18.5,17.9-.2.3-2.2,3.6,0,4.5.8.3,1.4.9,2.3.9ZM203.6,519c-2.5-8-4.2-15.2-4.2-23.7,0-1.5.1-1.6-.9-2.7-.9-.9-1-1-2.2-1-1.3,0-1.4,0-2.3.9-1.1,1-1,1.2-1,2.7,0,7.7,1.2,15.1,4.2,24.9.5,1.6.3,1.9,1.8,2.6.7.4,1.6.2,2.4.2,0,0,1.9-1.6,1.9-1.6.6-1.1.6-1.2.2-2.4ZM204.8,471.5c1.5-3.6,3.9-8.5,7.5-14.3.9-1.5,1.3-1.5.9-3.2-.3-1.2-.3-1.3-1.4-2-.2-.1-1.1-.7-2.4-.4-.2,0-1.3.3-2,1.4-2.2,3.6-6.8,11.2-10.1,20.3-.3.9-.7,1.9-1,2.8-.5,1.6-.8,1.7,0,3.1.4.7,1.2,1,1.9,1.6,0,0,2.4-.2,2.4-.2.7-.4,1-1.2,1.6-1.9.1-.1.7-2.7,2.6-7.2ZM364.4,432.8c6.9-25.1,2.2-35.6,2-36.2-3.2-9.1-19.8-17.7-29.2-12.8-9.9,5.1-6.2,20.2-3.1,28.9-20.1-3.8-35.5,4.7-32.5,30.2.2,1.4.9,3,2.1,4.6,6.9,9.1,29.8,18,52.3,2.8,1.4-.9,1.7-.8,2-2.5.1-.8-.3-1.6-.5-2.4,0,0-.7-.5-1.3-.9l1.7-3.3c.1,0,.3.2.4.3,0,0,2.4-.2,2.5-.2.7-.4,1.1-1.2,1.6-1.8,0,0,.6-1.8,1.2-3.9.3-1,.6-1.9.8-2.9ZM424.3,303.2c-3.2-9.1-19.8-17.7-29.2-12.8-9.9,5.1-6.2,20.2-3.1,28.9-20.1-3.8-35.5,4.7-32.5,30.2,1.2,9.8,28,25.2,54.4,7.4,1.4-.9,1.7-.8,2-2.5.1-.8-.3-1.6-.5-2.4,0,0-.7-.5-1.3-.9l1.7-3.3c.1,0,.3.2.4.3,0,0,2.4-.2,2.5-.2.7-.4,1.1-1.2,1.6-1.8,0,0,.6-1.8,1.2-3.9,8.1-27.2,3.1-38.4,2.8-39.1ZM445.7,258.7c28.1-3.8,36.3-13.1,36.8-13.5,6.9-6.7,7.9-25.4-.4-31.9-8.7-6.9-20.9,2.7-27.6,9.1-2.7-11.1-8.3-19.3-16.5-22-6.5-2.2-14.7-1-24.5,4.9-5.7,3.4-8.8,18.4-2.1,32.9,3.3,7.1,8.9,14.2,17.9,19.7,1.4.9,1.4,1.2,3.1.8.8-.2,1.3-.9,2-1.4,0,0,.1-.8.2-1.5l3.7.2c0,.2,0,.3-.1.5,0,0,1.2,2.2,1.2,2.2.6.5,1.6.5,2.3.7,0,0,1.9-.2,4.1-.5ZM190.7,347.8c-1.9,1.5-3.9,3-5.9,4.5,3.2,2.1,6.6,4.7,9.9,7.5-1.2-4.4-2.6-8.3-4-12ZM309.1,166c5.3-1.3,9.9-2.8,14-4.3-6.6-2.2-13.5-4.6-20.5-7.2,1.1,2.8,3,6.6,6.5,11.5ZM328.4,263.4c1.1-2.4,2.1-4.9,3.1-7.3,2.1-5.4,3.9-10.7,5.5-16-6.3,3.1-14.1,6.2-23.2,9-4.2,1.3-8.3,2.4-12.4,3.4,8,3.8,17.2,7.5,26.9,10.9ZM347.9,184c-4.7,1.9-10,3.9-15.8,5.7-.4.1-.8.2-1.2.4,4.4,4.2,9.1,8.4,14.1,12.5,1-6,1.9-12.2,2.9-18.6ZM232.5,307.1c-2.2,2.7-4.5,5.3-6.8,7.9,6.3,1.8,11.9,3,17,3.9-3.6-5.4-7-9.4-10.2-11.8ZM313.2,217.7c-6-5.9-12.3-12.4-18.9-19.6-3.4.5-6.7.9-9.8,1.3-2.1,9.5-4.7,19.3-8.1,29.2,1.2-.3,2.4-.6,3.6-.8,14.6-2.8,24.6-6.3,33.2-10.1ZM276.4,275.7c-5.5-2.7-11.1-5.5-16.9-8.5-.7,1.4-1.5,2.7-2.3,4.1,2.9.4,5.7.9,8.2,1.6,4,1.1,7.6,2,11,2.8ZM280.4,321.1c3.7.2,6.8.7,9.4,1.8,3.8-4.6,7.4-9.2,10.9-13.9-4.6-.4-9.5-1-14.8-1.9-4.9-.8-9.8-1.8-14.4-2.9,3.1,5.7,6.1,11.3,8.9,16.8ZM228.7,388.1c5-5.2,10.4-10.6,16.2-16.4,5.4-5.4,10.7-10.8,16-16.3-.6-1.5-1.2-3.1-1.9-4.6-4.3-.4-8.9-1-13.8-1.8-8.5-1.4-16.6-3.3-24.2-5.4.8,2.8,1.5,5.6,2.3,8.7,2.9,12.5,4.6,24.8,5.5,35.7ZM302.4,122c2.7-14.9,5.9-35.6,8.3-59,.6-5.8,1.1-12,1.6-18-13.5,6.9-22.8,19.4-23.9,38.1-.3,4.7,1.4,16.3,2.2,32.7,2.7,1.8,6.5,3.9,11.7,6.1ZM467.5,433.2c-8.1,1.8-15.5,3.7-22.6,5.7,0,0,0-.2-.1-.3-.8-1-.8-1.1-2.1-1.2-1.3-.2-1.4-.1-2.4.6-.6.5-.8,1.4-1.2,2.1,0,0,0,.2,0,.5-7.7,2.3-14.8,4.8-21.4,7.3,1.1-10.4,2.6-20,4.5-29,17.1-81.3,63.6-108.9,98.9-123.8.7,4.7,1.4,9.1,2.1,13.2-4.5,2.2-10.7,5.5-17.3,9.8-1.4.9-1.7.8-2.1,2.5-.2.8.3,1.6.4,2.4,0,0,2,1.4,2,1.4.8.2,1.6-.3,2.4-.5.2,0,5.4-3.8,15.6-9,1.4,8.2,2.6,14.9,3.6,19.6,1.8,8.6,5.7,21.1,7.8,36,1.4,9.9,1.5,18,0,24.7-.5,2.1-1.1,4-1.9,5.9-.7,1.5-1.4,3-2.3,4.3-8.6,13.4-28.3,19.9-63.7,27.8ZM473.5,349.4c0,.8.8,1.4,1.2,2.1,0,0,2.3.7,2.4.7.8,0,1.4-.8,2.1-1.2,0,0,4.3-5.8,11.2-12.5,5.5-5.3,6.2-5,6.4-7,0-1.3,0-1.4-.8-2.3-.8-1-.9-1-2.2-1.1-.2,0-1.3,0-2.3.8-2.9,2.5-9.6,8.4-16.8,17.5-1.1,1.3-1.4,1.3-1.2,3ZM453.4,385.9c.3.8,1.2,1.2,1.7,1.7,0,0,2.4,0,2.5,0,.8-.3,1.2-1.2,1.7-1.7,0,0,2.6-6.6,6.8-14.7,4-7.5,4.7-7.4,4.2-9.3-.3-1.2-.4-1.3-1.4-2-1.1-.7-1.2-.7-2.4-.4-.2,0-1.3.3-2,1.5-1.9,3.2-6.3,10.6-10.8,21.6-.6,1.6-1,1.6-.3,3.2ZM450.9,411.9c.1-.5.3-1,.4-1.6,2.5-9.6,3.3-9.8,2.3-11.5-.6-1.1-.7-1.2-1.9-1.6-1.2-.4-1.3-.4-2.4.2-1.1.6-1.2.7-1.6,1.9-.8,2.5-2.2,7.4-3.8,14.2-.6,2.7-1.3,5.8-2,9.1-.3,1.7-.6,1.8.3,3.2.5.7,1.4.9,2,1.4,0,0,2.4-.5,2.4-.5.7-.4.9-1.4,1.4-2,0,0,1-5.6,2.8-12.8ZM168.7,480.2c2.2-20.4,12.1-38.6,34.1-64.1-4.7-6.7-10.1-13.2-15.9-19.2-13.2-13.6-24.7-20.6-32.6-24.1-17,10.2-36.1,19.7-57.6,28.3-.6.2-1.2.5-1.8.7,1.2,6.6,1.6,13.9,1.4,21.5,10.4-6.8,30.7-18.1,41.7-6,11.9,13,3.4,45.8-7.8,53.1-2.2,1.4-15.8,11.3-53.6,4.8-4.9-.8-8.6-1.7-9.5-1.9-1.5-.3-1.7-.2-2.5-1.6,0,0-.4-2.4-.4-2.4.1-.1.2-.3.3-.5l-8.3-3.6c-.3.6-.8,1.4-.8,1.4-.8.2-1.5.7-2.4.6-1.6-.2-1.5-.4-2.5-1.7-7.3-9.4-12.2-19-15.3-28.4-5.6,6.4-10.3,13.7-13.6,22.2-3.6,9.5-6.6,23.5-3.1,42.6.7,4,1.7,7.7,3,11,.5,1.2,1,2.4,1.6,3.6.6,1.3,1.3,2.5,2,3.6,6.5,10.6,17,16.8,32.5,19.8,1.6.3,3.1.6,4.8.8,1.6.2,3.3.4,5.1.6,20.3,2,47.4,0,82.8-3.9,2.6-.3,5.2-.6,7.7-.9,1.4-.2,2.9-.3,4.3-.5,1.4-.2,2.7-.3,4.1-.5,3.1-.4,6.1-.8,9-1.2-5.4-22-8.3-38.7-6.6-54.2ZM312.6,126c2.7,1,5.6,1.9,8.5,2.8.3-3.4.7-7.5.8-8.1,4.3-44.1,9.7-68.7,15.3-82.2.5-1.2,1-2.3,1.5-3.3.6-1.2,1.2-2.3,1.8-3.3,4.1-6.9,8.2-8.8,12.1-8.9,7.6-.2,14.4-.4,20.6,0-17.8-21.6-40.5-19.1-52-10.5-.6,7.6-1.2,15.1-1.7,22.7,0,1.1-.2,2.3-.3,3.4,0,1.2-.2,2.3-.3,3.5-1.7,22.3-4.1,47.1-10.5,82.3,1.3.5,2.7,1,4.2,1.5ZM352.8,29.6c-1.1,0-2.7.6-4.5,2.6-.7.8-1.5,1.8-2.3,3.1-.6.9-1.1,2-1.7,3.2-4.1,8.6-8.9,25.2-13.1,57-1.7,12.8-2.9,25.2-3.6,32.5,0,1.1-.2,2-.3,2.9-.1,1.5-.2,2.6-.3,3.2l10.7-.3c5.9,1.5,11.9,2.9,18,4.2,0-.6.2-1.8.7-4.8.5-2.5,1.3-6.2,2.6-11.9,1.5-6.2,3.7-14.1,8.6-20.8.8-1,1.6-2,2.5-3,2.8-3,6.3-5.7,10.8-7.7.4-.2.9-.4,1.3-.6.7-.4,1.3-.7,2-1.1,8.5-4.4,19-6.5,28.4-8-1.8-8.6-3.9-17-6.7-24.4-.5-1.3-1-2.5-1.5-3.7-.6-1.4-1.3-2.6-1.9-3.9-3.4-6.3-7.7-11.4-13.3-14.3-.8-.4-1.6-.8-2.4-1.1-1.4-.6-2.9-1.1-4.5-1.5-1.4-.3-2.8-.6-4.3-.8-7-1-15.4-.8-25.4-.6Z" fill="#fff"/><path d="M555.9,578c-6.9-7.6-14.5-12.4-21.7-15.6-7.2-7.4-21.2-11.8-36-14,.6-2.6,1.1-5.2,1.4-7.7.8-5.1,1-9,1-12.1,25.8-5.6,33.6-7.4,36-29.1,5.7-51.3,7.6-64.3,1.4-93.1,0-.2.2-.3.3-.5,9.3-17.9,2.7-44.5-3.2-67.7-4.6-18-20.8-122.4-22.4-185.5-.4-15.2,0-17.3.9-37.8.5-13.7,1.9-18.3,3.4-27,.3-1.9-1.1-3.1-1.4-3.5-14.7-17.4-32-22.7-47.1-25.5-18.6-3.5-35.6-3.7-57.8-9.1-7.2-16.6-16.5-23.2-28.7-25.7-20.2-29.6-48.6-27.4-62.9-18.1-4,2.6-4,3.4-4.2,4-.3,1.1-1,13.1-2.1,27.5-17.1,7.3-29.4,21.9-30.8,45.1-.3,4.1.9,13.3,1.8,26-.1-.5-.1-.7-.1-.7-.1-.3-.2-.7-.3-1.1-.2-.4-1-1.7-2.6-1.9-.9,0-1.8,0-4.7,2.5-10.9,9.3-19.3,28,1.9,37.5-4.8,1.3-9.2,3.4-11.6,6.4-5.8,7.2.5,15.2,3.1,18.3,3.9,4.6,7.8,9.1,11.5,13.4-2.2,13.9-5.6,28.5-10.8,43.5-1,.1-1.8.6-1.8.7-6.6,3.2-22.9,11-25.7,20.5-2.6,8.9,6.2,13.9,9.8,15.8.4.2.8.4,1.3.7-1.5,2.8-3.1,5.6-4.8,8.3-10.9-2.9-19.3,13.7-22.1,19.5-.3.6-2.4,4.9-3.7,8.1-1,2.5,1.1,4.2,2.1,4.4.3,0,.6,0,.9,0-12.9,15.3-28.4,30.2-47.3,44.2,0,0-.1,0-.2,0-11.7-5.8-27.2,12.1-33.5,14.2-.1,0-.2,0-.2,0-.4,0-.7,0-1.1,0-.2,0-1.2.2-1.9,1-1.9,2-.7,5.3,2.7,5.6.5.1,1.2.3,1.9.5-9.7,5.6-20.1,11-31.2,16.2-1.8.8-12.9,6-22.4,9.6-2.4.9-88.4,22.4-82.2,97.4.9,11.3,3.4,20.4,7.3,27.8-2,7.5-2.8,19.3,3.4,30.8,3.5,6.5,8.5,11.8,14.7,16.1,1,8.8,2.2,17.7,2.6,21.2-.2.3-.5.5-.7.8,0,0-.7,1.3-.1,2.8l-24.2,29.7c-3.9,4.8-6.2,7.4-7.5,8.9-7.9,4.4-8.3,13-.5,20.1,3.2,3,26.4,18.8,47.1,30.6,35.5,20.2,48.9,20.6,53.4,13.2.8-1.4,1-2.1.6-2.8.4-.4.7-.8.8-1.3.4-1.3,2.5-20.2,4.2-38.6,6.9,3.6,17.9,7.9,31.9,7.4,2.2,11.4,7.1,21.5,12.6,29,21,28.8,59.9,28.7,62.4,28.7.8,0,1.5,0,2.3,0,17.2,4.8,36.5,2.8,52.8-7.4,33.6-20.9,40-66.1,13.6-95-6.9-7.6-14.5-12.4-21.7-15.6-6.2-6.3-17.3-10.5-29.7-12.9.1-.4.2-.8.4-1.2,24.2-4.8,74.1-14.8,114.5-19.9,1.1-.1,2.2-.3,3.3-.4-10.3,14.9-12.9,34.9-5,52.8,12.2,27.6,44.4,39.2,70.7,26.1,1.5,2.8,3.1,5.3,4.8,7.7,21,28.8,59.9,28.7,62.4,28.7.8,0,1.5,0,2.3,0,17.2,4.8,36.5,2.8,52.8-7.4,33.6-20.9,40-66.1,13.6-95ZM449.2,664.5c-4.3-2.3-15.6-8.6-23.7-23.6-.5-.9-1-1.9-1.5-2.9-.5-1-.9-2-1.3-3-.2-.5-.4-1-.6-1.5-1.5-3.9-2.6-7.7-3.4-11.4-.3-1.2-.5-2.4-.7-3.6-.2-1.2-.3-2.4-.4-3.5-1-10.5.9-20.3,5.2-29.2,2.7-5.7,6.8-11.5,12.2-16.6.8-.7,1.6-1.5,2.4-2.2.8-.7,1.6-1.4,2.5-2,9.1-6.9,21.1-11.8,35.9-12,5.3,0,10.2.4,14.6.8,1.1.1,2.2.2,3.2.4,1.1.1,2.2.3,3.2.4,4.1.6,7.7,1.3,11,2.1,0,0-.2,0-.2,0-1.9,0-6.1,0-11.7,1-1.1.2-2.3.4-3.6.7-1.2.3-2.4.6-3.7,1-3.3,1-6.8,2.3-10.5,4.1-13,6.5-22.8,16.6-28.7,28.4-1.2,2.5-2.3,5-3.2,7.6-1.6,4.7-2.7,9.5-3.2,14.4-.2,2.2-.3,4.4-.3,6.6,0,.5,0,1,0,1.5,0,.6,0,1.1,0,1.7,0,1.1.2,2.1.3,3.2.9,7.8,3.3,15.5,7.4,22.8,5.3,9.4,12.6,17,21.2,22.5-7.6-1.5-15.4-4.1-22.4-7.9ZM375.6,637.6c-26-14-32.7-49.1-13.7-72.1.4-.5.8-1,1.3-1.5,16.5-1.8,23.4-2.1,43.4-5-6.4,7.1-14.5,17.6-17,28.1-4,17,7.9,26.7,22,32.4,1,6.7,2.9,13,5.4,18.6-12.6,6.3-28,6.6-41.4-.7ZM233.2,579.5c-1.6.3-2.2,1.5-2.2,1.8-.1.2-.8,2.5-.9,2.8-.2.5-.3,1-.5,1.5-7.6-1.1-15.3-1.7-22.5-1.7-3.4,0-17.2,0-32.2,8.3-2.9,1.6-5.7,3.5-8.3,5.5-.9.7-1.8,1.4-2.6,2.1-.8.7-1.7,1.5-2.5,2.3-3.3,3.1-6.2,6.6-8.7,10.4-.7-.6-1.6-1.2-2.6-2-4.6-3.5-9.9-8.1-10.3-8.3-1.6-1.3-3.4-.5-3.4-.4-8.5,5.9-16.9,11.8-25.4,17.7,0,0,0,0,0,0-.3-.2-.6-.3-.9-.5-5.5-3-9.9-5.4-13.7-7.4-1.2-.6-2.4-1.2-3.5-1.8-1.2-.6-2.4-1.2-3.6-1.8-9.6-4.7-19.4-8.9-44.4-20.3-.7-5.8-1.4-11-1.9-15.5,36.8,19.6,101.5,13.4,130.3,10,25-3,51.2-6.6,94.8-22.8,2.8-1,5.5-2.1,8.3-3.2,14-2.2,28.6-4.1,44-4.2,12.4,0,33.5-1.7,52.7-3.7,4.5-.5,8.9-.9,13-1.4.1,0,.3,0,.4,0,3.3-.4,6.5-.8,9.6-1.2,4.6-.6,8.9-1.2,13.1-1.7,8-1.1,15.3-2.3,21.9-3.4,1.2.4,2.5.7,4,.9,12.3,1.7,25.7-3.1,39.5-6.7,7.4-1.9,13.9-3.4,19.6-4.7-.1,4.8-1,11.3-2.4,17.5-5.5-.6-11-.9-16.2-.9-3.4,0-17.2,0-32.2,8.3-2.7,1.5-5.2,3.2-7.6,5-.9.6-1.7,1.3-2.5,2-.8.7-1.6,1.4-2.4,2.2-4.3,4-8,8.5-11.1,13.5-7,11.5-9.4,23.4-8.9,34.7-6-2.8-11.1-6.4-13.7-11.1-8.9-15.8,15.1-38.8,20.4-44.5.7-.8,1-1.6.9-2.5-.1-1.6-1.4-3-3.2-3-.5,0-.6,0-2.6.4,0,0-.1,0-.2,0-16.7,2.6-27.9,3.7-41,5-2,.2-4,.4-6.1.6-1.7.2-3.5.4-5.3.6-16.4,1.9-37.7,4.8-74.3,11.4-4.2.8-29.9,5.4-52.6,10.1ZM293.6,677c-8.9,22.8-31.4,36.7-55,36.6-2.7,0-5.4-.2-8.1-.6-3-.4-5.9-1.1-8.8-2-1.6-.5-3.2-1-4.8-1.7-30.1-11.9-44.4-45.5-31.7-74.5,4.6-10.7,13.6-21.5,26.5-28.1,1.4-.7,2.8-1.4,4.3-2,1.6-.7,3.2-1.2,4.9-1.8,1.6-.5,3.3-1,5-1.3,1.1-.2,2.2-.5,3.4-.6,1.1-.2,2.2-.3,3.3-.4,2.1-.2,4.2-.4,6.4-.4,2.4,0,10.4,0,20.1,3.4.9.3,1.9.7,2.8,1.1,1.9.8,3.7,1.7,5.5,2.6,1.5.8,3,1.7,4.5,2.7,21.8,14.4,31.6,42,21.8,67ZM238.9,593.9c-1,0-2.8,0-5,.2-1,0-2.2.2-3.4.3-1.1.1-2.2.3-3.4.5-4.6.8-10.2,2.4-16.1,5.1-.5.2-1,.5-1.6.7-.9.5-1.8,1-2.7,1.5-1.3.7-2.6,1.5-3.9,2.4-9.4,6.1-16.7,14.3-21.6,23.6-3.4,6.5-5.7,13.6-6.6,20.8-1.7,12.7.6,26,7.3,38,5.3,9.4,12.6,17,21.2,22.5-7.6-1.5-15.4-4.1-22.4-7.9-4.9-2.7-19.1-10.5-27.2-31-1.5-3.8-2.6-7.6-3.4-11.2-.2-1.1-.4-2.1-.6-3.2-.2-1.1-.3-2.1-.4-3.2-1.2-10.8.7-21,5.1-30.1.2-.4.4-.8.6-1.2.5-.9,1-1.9,1.6-2.8.5-.9,1.1-1.8,1.7-2.7,2.4-3.6,5.3-7,8.7-10.2.8-.7,1.6-1.4,2.4-2.1.8-.7,1.7-1.4,2.5-2,9-6.8,20.9-11.5,35.5-11.6,7.9.1,14.8.7,20.7,1.6,1.1.2,2.2.3,3.2.5,1.1.2,2.2.4,3.2.6,1.7.3,3.3.7,4.9,1.1,0,0-.2,0-.2,0ZM112.4,645.5c.3-3.7.6-7.3.8-10.6.3-4.4.5-7.4.5-9.5,8-5.6,16-11.2,24.1-16.8,3.6,3,7,5.8,11.8,9.3-6.3,11.9-8,24.2-6.8,35.6-11.7.2-21.9-3.1-30.3-8ZM98.1,690.9c.1.2.8,1.1,1.8,1.5-.3.2-.6.4-1.1.5-13.5,3.1-60.7-26.2-84.4-43-1.6-1.1-7.6-4.9-7.9-8.9,0-.7,0-1.3.4-1.9.4-.8,1.3-1.5,2.4-2.2.9-.5,2-.9,3.3-1.3,5.9-1.5,15.9-1.1,29.6,3.8,15.9,5.7,38.6,18.8,48.8,30.1,4.2,4.7,5.8,8.3,6.4,11.2.3,1.5.3,2.9.2,4.1,0,1.5-.2,2.8-.1,3.9,0,.8.3,1.6.8,2.3ZM105.6,648.9c-.8,9.2-1.8,19.4-2.8,28-.6-1.9-1.5-4-3-6.2-11.1-17.4-43.6-32.4-46.5-33.7-15.4-6.9-27.6-9.1-36.4-8.5,1.6-2,3.8-4.6,7.2-8.9,9.9-12.2,16.3-19.9,18.7-22.9,7,3.8,21.4,9.9,35,15.6,1.1.4,2.1.9,3.1,1.3,1.2.5,2.4,1,3.5,1.5,9.9,4.1,18.6,7.6,22.6,9.5,0,0,.1,0,.2,0,0,3.1-.4,9.3-1,16.9,0,1.2-.2,2.4-.3,3.7-.1,1.2-.2,2.4-.3,3.7ZM23.2,528.7c6.5,7.9,15.3,13,26.5,16.1,1.4.4,2.9.8,4.5,1.1,1.5.3,3.1.6,4.7.9,19.4,3.3,44.5,2,74.8-1,10.6-1.1,20.7-2.2,30.4-3.4,1.3-.2,2.7-.3,4-.5,1.4-.2,2.7-.4,4.1-.5,183.8-24.5,177.9-75,295.4-101.5,29.2-6.6,53-12.5,65.5-26.2,2.4,12.8,3,22.9,2.1,37.5-1,16-5.2,50.6-5.2,50.7-2.2,14.5-7.1,15.6-30,20.5,0,0,0,0-.1,0-1.1.2-2.1.5-3.1.7-32.5,7.1-32.5,8.5-43.7,10.9-4.3.9-8,1.4-11.1,1.5-4.2.2-7.5-.3-10-1.4-4.8-2-7-6.1-8.2-11.3-2.1-8.5-2.2-25.2-3.6-33.2-.4-2.2-2.4-3-3.8-2.7-.3,0-1.8.7-1.9.7-39.2,15.5-87.9,42.5-139.3,62.5-5.3,2.1-10.6,4.1-16,6-6.3,2.2-12.5,4.3-18.8,6.2-15.3,4.7-30.7,8.5-46.1,10.8-54.9,8.3-87.5,6.3-88.4,6.3-31.2-1.2-51-7.2-63.4-15-1.2-.8-2.4-1.6-3.5-2.4-1.2-.9-2.4-1.9-3.4-2.8-11-10-12.9-21.7-12.1-30.3ZM50.5,465.6c1,1.3.9,1.5,2.5,1.7.8,0,1.6-.4,2.4-.6,0,0,.4-.7.8-1.4.2-.4.4-.8.4-.8.1-.8-.4-1.6-.6-2.3-.2-.5-10.4-11.7-15.7-30.2,12.7-12.3,28.1-20.1,39.6-24.8,3.8-1.5,6.6-2.5,8.9-3.3,2,12.3.8,24.1.7,25.7-.1,2.8,2.6,4.1,4.6,3.2,1.1-.5,20.6-15.9,33.1-14,17.3,2.6,9.1,40.3-.8,46.7-18.4,12-58.4,1.7-58.4,1.7-.8,0-1.7,0-2.4.4-.5.3-.8.9-1.2,1.5,0,.2-.2.3-.3.5,0,0,.4,2.4.4,2.4.8,1.3,1,1.2,2.5,1.6.9.2,4.6,1.1,9.5,1.9,37.7,6.5,51.4-3.3,53.6-4.8,11.2-7.4,19.7-40.1,7.8-53.1-11-12.1-31.3-.9-41.7,6,.3-7.6-.2-14.9-1.4-21.5.6-.2,1.2-.4,1.8-.7,21.4-8.7,40.5-18.2,57.6-28.3,7.9,3.5,19.4,10.5,32.6,24.1,5.8,6,11.2,12.5,15.9,19.2-22,25.5-31.9,43.7-34.1,64.1-1.7,15.5,1.2,32.2,6.6,54.2-3,.4-6,.8-9,1.2-1.4.2-2.7.3-4.1.5-1.4.2-2.8.4-4.3.5-2.6.3-5.1.6-7.7.9-35.3,4-62.5,5.9-82.8,3.9-1.7-.2-3.4-.4-5.1-.6-1.7-.2-3.2-.5-4.8-.8-15.5-3-26.1-9.2-32.5-19.8-.7-1.2-1.4-2.3-2-3.6-.6-1.1-1.1-2.3-1.6-3.6-1.3-3.3-2.3-7-3-11-3.5-19.1-.5-33.1,3.1-42.6,3.3-8.5,8-15.9,13.6-22.2,3.1,9.4,8,19,15.3,28.4ZM153.5,365.5c5.5-3.9,12.4-9.6,17.7-11.1,1.8-.5,3.4-.6,4.7.1.1,0,.3.1.4.2h0c1,.5,2.1,1.1,3.1,1.7,5.8,3.5,12,8.6,18.1,14.5,1.3,1.3,2.7,2.6,4,4,1.3,1.3,2.6,2.7,3.9,4.1,5.3,5.8,10.4,11.9,14.9,17.9.7.9,1.3,1.7,2,2.6.3.4.7.9,1,1.3.3.4.6.9.9,1.3.8,1.1,1.6,2.3,2.4,3.4,1.2,1.7,2.3,3.3,3.3,4.9,1.6,2.4,3,4.6,4.2,6.7.2.3.4.6.6,1.1.8,1.4,2,3.5,3.1,6,1.8,4.2,3.1,9.4,1.5,13.9-2.6,7.1-10.8,6.1-14.2,5.3-.3-.7-.6-1.7-1.1-2.8-.7-1.7-1.7-4-3-6.6-2.3-4.7-5.6-10.7-10-17.4-.6-.9-1.2-1.8-1.9-2.7-.6-.9-1.3-1.8-1.9-2.7-3-4.1-6.4-8.4-10.3-12.9-13.9-15.8-26.7-24.6-36.1-29.4-1.2-.6-2.3-1.2-3.4-1.7h0c-1.3-.6-2.5-1.1-3.6-1.5-.1,0-.2,0-.3-.1ZM230.8,298.9c2.6-5.8,7.1-14.8,12-18.6.7-.5,1.4-1,2.3-1.3,1-.3,2.2-.3,3.5.4h0c.8.4,1.6,1.1,2.4,2.1.8.9,1.6,2.1,2.5,3.7,1.7,2.9,3.4,5.9,5.1,9,.7,1.3,1.5,2.7,2.2,4,.7,1.3,1.4,2.6,2.2,3.9,3.4,6.2,6.8,12.5,10,18.8.6,1.1,1.1,2.2,1.7,3.2.5,1.1,1.1,2.1,1.6,3.2,1.2,2.4,2.4,4.8,3.5,7.2.5,1.1,1,2.1,1.5,3.1.5,1.1,1,2.1,1.5,3.2.5,1.1,1,2.1,1.4,3.2.4,1,.9,2,1.3,3,.4,1,.9,2,1.3,3,2,4.8,3.7,9.5,5.1,13.8.7,2.4,1.4,4.6,1.9,6.8.8,3.1,1.3,6.1,1.5,8.8,1.4,15-5.3,18.2-14,18.4-1.5-6-5.9-22.4-13.1-41.2-.4-1.1-.8-2.2-1.3-3.3-.3-.7-.6-1.5-.9-2.3-.1-.3-.3-.7-.4-1-.3-.7-.6-1.5-.9-2.2-.5-1.1-.9-2.2-1.4-3.3-1.1-2.6-2.3-5.3-3.6-7.9-1.7-3.6-3.4-6.9-5-9.9-.6-1.2-1.3-2.3-1.9-3.4-.7-1.2-1.3-2.3-2-3.4-5.7-9.5-10.6-14.9-14.5-17.9-.9-.7-1.8-1.3-2.7-1.8-1.1-.6-2.1-1.1-3-1.4,0,0,0,0,0,0ZM249.2,252.9c-3.3-5.9,10.2-13.7,18-17.7.4-.2.7-.4,1.1-.6.3.9.8,1.8,1.5,2.9,0,0,0,.1.1.2.6.9,1.3,1.8,2.1,2.8,2.3,2.7,5.9,5.8,11.2,9.3,1.3.8,2.6,1.7,4.1,2.5,1.3.8,2.8,1.6,4.3,2.4,4.1,2.2,9,4.6,14.6,7,6.5,2.8,13,5.3,19.4,7.5,1,.4,2.1.7,3.1,1.1,1,.3,2.1.7,3.1,1,6.3,2.1,12.3,3.8,17.6,5.3,1.5.4,2.9.8,4.3,1.1,7.1,1.9,12.6,3.1,15.6,3.7,0,3.3-.3,8.4-3.8,11.5-3.6,3.2-9.8,3.9-17.5,2.9-2.1-.3-4.2-.7-6.5-1.1-.9-.2-1.8-.4-2.8-.7-1.1-.3-2.2-.6-3.3-.9-1.1-.3-2.3-.6-3.4-1-3.2-1-6.4-2.1-9.8-3.3-1-.4-2.1-.7-3.1-1.1-1-.4-2-.8-3-1.2-.8-.3-1.7-.7-2.5-1-2.6-1.1-5.3-2.2-7.9-3.3-2.7-1.2-5.4-2.3-8-3.5-12.8-5.8-25.2-12.1-35.2-17.2-.6-.3-1.2-.6-1.7-.9-.4-.2-.7-.4-1.1-.6-.9-.5-1.9-1-2.9-1.5-3.2-1.7-6.3-3.5-7.5-5.7ZM284.4,150.3c1.1-.2,2.2-.4,3.2-.5h0c.6,0,1.1-.2,1.6-.2.5.2,1,.4,1.6.6,1.5.6,3,1.1,4.5,1.7.6,3.7,2.4,8.8,7.1,15.7.6.9,1.3,1.9,2,2.9.7.9,1.4,1.8,2.1,2.8,3.1,4,7,8.5,12,13.6.5.5,1,1,1.5,1.5.4.4.7.7,1.1,1.1.9.9,1.8,1.8,2.7,2.6,5.1,5,10.4,9.7,15.5,14,1.1,1,2.2,1.9,3.3,2.8.4.3.8.7,1.2,1,1,.8,1.9,1.6,2.8,2.3,1,.8,1.9,1.5,2.8,2.3,1.5,1.2,2.9,2.3,4.3,3.3,1.8,1.4,3.5,2.6,5,3.8,1.6,1.2,3.2,2.3,4.6,3.3,2.2,1.6,4.1,2.9,5.6,4,.8.5,1.4,1,2,1.4-1.2,3.1-3.5,7.7-7.9,9.2-4.6,1.6-10.7-.1-17.5-4.1-.2-.1-.4-.2-.5-.3-.8-.5-1.7-1-2.6-1.6,0,0-.2-.1-.3-.2-.9-.6-1.8-1.2-2.7-1.8,0,0,0,0-.1-.1-4.7-3.3-9.7-7.4-14.8-12-.8-.8-1.7-1.5-2.6-2.3-.8-.8-1.7-1.6-2.5-2.4-5.9-5.6-11.9-11.8-17.6-17.9-.9-.9-1.7-1.9-2.6-2.8-.9-1-1.7-1.9-2.6-2.9-3.1-3.4-6-6.7-8.9-9.9-.6-.7-1.2-1.4-1.8-2.1-.3-.4-.7-.8-1-1.1,0,0,0,0,0,0-1-1.1-1.9-2.2-2.8-3.2-1.4-1.6-2.7-3.2-4-4.7-3.2-3.8-7.3-8-7.7-11.5-.6-4.6,6.5-7.1,13.9-8.4ZM273.3,134.1c-5-6.2.1-15.1,5.7-20.4.5.8,1.2,1.8,2.1,2.7.3.3,1.2,1.4,3.3,3,.9.7,2,1.4,3.3,2.3,0,0,0,0,0,0,1,.6,2,1.3,3.3,1.9,2.7,1.5,6,3.1,10.2,4.9,1,.4,2,.8,3,1.2,1,.4,2,.8,3,1.2,3.2,1.2,6.9,2.5,10.9,3.8.9.3,1.9.6,2.9.9,0,.2.2.4.3.5.5.6,1.4.8,2.2,1.1,0,0,.8-.3,1.4-.5,3.9,1.1,8.1,2.3,12.8,3.4,6.1,1.5,12,2.9,17.6,4,1.1.2,2.1.4,3.2.6,1.1.2,2.1.4,3.2.6,6.9,1.3,13.2,2.4,18.6,3.2,2.3.3,4.4.6,6.4.9,5.1.7,9,1.1,11.4,1.4,1,8.1-.8,14.4-12.2,16.2-.9.1-1.9.2-2.9.3-2,.2-4.2.2-6.5,0-.5,0-1,0-1.5,0-1.3,0-2.7-.2-4-.4-1.4-.2-2.8-.4-4.2-.6-2.9-.4-5.9-1-9-1.7-1-.2-2.1-.5-3.2-.7-1-.2-2.1-.5-3.1-.7-3.2-.8-6.5-1.7-9.8-2.6-1.5-.4-3.1-.9-4.6-1.4s-3.1-.9-4.6-1.4c-9.7-3-19.5-6.5-28.5-9.8-.7-.3-1.4-.5-2.1-.8-.3-.1-.5-.2-.8-.3,0,0,0,0-.1,0-.7-.3-1.4-.5-2-.7-.4-.1-.7-.3-1-.4-.3,0-.5-.2-.8-.3-2-.8-4-1.5-5.9-2.2-.1,0-.2,0-.4-.1-.2,0-.4-.2-.7-.3-.7-.3-1.5-.6-2.2-.8h0c-1.1-.4-2.2-.8-3.2-1.2-5.3-2-8.9-3.8-11.4-6.9ZM319.4,35.3c.6-7.6,1.1-15.1,1.7-22.7,11.5-8.5,34.2-11.1,52,10.5-6.2-.4-13-.2-20.6,0-3.9.1-8,2.1-12.1,8.9-.6,1-1.2,2.1-1.8,3.3-.5,1-1,2.1-1.5,3.3-5.6,13.5-11,38.1-15.3,82.2,0,.6-.5,4.6-.8,8.1-2.9-.9-5.8-1.9-8.5-2.8-1.5-.5-2.8-1-4.2-1.5,6.4-35.2,8.7-59.9,10.5-82.3,0-1.2.2-2.3.3-3.5,0-1.1.2-2.3.3-3.4ZM389.3,33.5c5.7,3,9.9,8,13.3,14.3.7,1.3,1.3,2.5,1.9,3.9.5,1.2,1,2.4,1.5,3.7,2.8,7.3,4.9,15.7,6.7,24.4-9.4,1.5-19.8,3.6-28.4,8-.7.4-1.4.7-2,1.1-.5.2-.9.4-1.3.6-4.5,2-8,4.7-10.8,7.7-.9,1-1.7,2-2.5,3-5,6.8-7.1,14.6-8.6,20.8-1.3,5.7-2.1,9.4-2.6,11.9-.6,3-.7,4.2-.7,4.8-6.1-1.3-12.2-2.7-18-4.2l-10.7.3c0-.5.1-1.6.3-3.2,0-.8.2-1.8.3-2.9.7-7.2,1.9-19.7,3.6-32.5,4.2-31.8,9-48.4,13.1-57,.6-1.2,1.2-2.3,1.7-3.2.8-1.3,1.5-2.3,2.3-3.1,1.9-2.1,3.4-2.6,4.5-2.6,10-.3,18.3-.5,25.4.6,1.5.2,2.9.5,4.3.8,1.6.4,3.1.9,4.5,1.5.8.3,1.6.7,2.4,1.1ZM523.1,308.3c-4.5,2.2-10.7,5.5-17.3,9.8-1.4.9-1.7.8-2.1,2.5-.2.8.3,1.6.4,2.4,0,0,2,1.4,2,1.4.8.2,1.6-.3,2.4-.5.2,0,5.4-3.8,15.6-9,1.4,8.2,2.6,14.9,3.6,19.6,1.8,8.6,5.7,21.1,7.8,36,1.4,9.9,1.5,18,0,24.7-.5,2.1-1.1,4-1.9,5.9-.7,1.5-1.4,3-2.3,4.3-8.6,13.4-28.3,19.9-63.7,27.8-8.1,1.8-15.5,3.7-22.6,5.7,0,0,0-.2-.1-.3-.8-1-.8-1.1-2.1-1.2-1.3-.2-1.4-.1-2.4.6-.6.5-.8,1.4-1.2,2.1,0,0,0,.2,0,.5-7.7,2.3-14.8,4.8-21.4,7.3,1.1-10.4,2.6-20,4.5-29,17.1-81.3,63.6-108.9,98.9-123.8.7,4.7,1.4,9.1,2.1,13.2ZM242.6,318.9c-5.1-.9-10.6-2.1-17-3.9,2.4-2.6,4.6-5.3,6.8-7.9,3.2,2.4,6.6,6.4,10.2,11.8ZM286.5,189.5c.9,1,1.7,1.9,2.6,2.9-1.1.1-2.2.3-3.2.4.2-1.1.4-2.2.6-3.3ZM309.1,166c-3.5-4.9-5.4-8.6-6.5-11.5,7,2.6,13.9,5,20.5,7.2-4.2,1.5-8.7,3-14,4.3ZM332.8,164.8c6.1,1.9,12,3.5,17.5,4.9-.4,2.3-.8,4.6-1.2,6.9-7.6,3.4-15.5,6.2-23.5,8.4-2.5-2.5-5-5.1-7.2-7.5-1.9-2.1-3.6-4.1-5.1-5.9,7.5-2.1,13.9-4.4,19.4-6.7ZM332.1,189.7c5.8-1.8,11.1-3.7,15.8-5.7-1,6.4-2,12.6-2.9,18.6-4.9-4.2-9.7-8.4-14.1-12.5.4-.1.8-.2,1.2-.4ZM292.6,248c-9.4-5.3-14.2-9.6-16.5-12.6,1.8-.6,3.7-1.1,5.4-1.4,15.8-2.9,27.6-7.4,36.7-11.5,5.1,4.8,10.1,8.9,14.8,12.4-12.9,6.1-27.1,10.2-40.4,13.1ZM313.8,249.1c9.1-2.8,16.9-5.9,23.2-9-1.5,5.3-3.3,10.6-5.5,16-1,2.5-2,4.9-3.1,7.3-9.8-3.4-18.9-7.1-26.9-10.9,4.1-1,8.2-2.2,12.4-3.4ZM283.8,327.9c.6,0,1.1.2,1.7.3-.3.4-.6.7-1,1.1-.2-.5-.5-1-.7-1.5ZM271.6,304.3c4.7,1.1,9.5,2.1,14.4,2.9,5.3.9,10.2,1.5,14.8,1.9-3.5,4.7-7.1,9.3-10.9,13.9-2.6-1.1-5.8-1.6-9.4-1.8-2.8-5.5-5.8-11.1-8.9-16.8ZM264,279.2c12.6,3.6,23.2,5.2,32.1,5.9,5.7,2.6,11.2,4.9,16.5,7-2.4,3.6-4.8,7.3-7.4,10.8-12.9-.7-26-3.2-37.9-6.3-1.7-3.1-3.5-6.3-5.3-9.4-1.7-2.9-3.5-6.6-5.9-9.5,2.8.3,5.4.8,7.8,1.5ZM260.8,355.3c-5.2,5.5-10.6,10.9-16,16.3-5.8,5.8-11.1,11.2-16.2,16.4-.9-10.9-2.6-23.2-5.5-35.7-.7-3.1-1.5-5.9-2.3-8.7,7.6,2.1,15.7,4,24.2,5.4,4.9.8,9.6,1.4,13.8,1.8.6,1.5,1.2,3,1.9,4.6ZM415.3,420.5c-1.4,6.8-2.5,14-3.5,21.6-.5,4.3-.9,8.1-.9,8.1,0,0,0,.2,0,.3-62.5,25.4-86.3,58.4-204.8,79.1-7.7,1.3-15.9,2.6-24.4,3.9-5.6-22.7-8.5-39.3-6.3-54.9,2.5-17.9,11.8-34.4,31.1-57,4.1,6.3,7.6,12.6,10.3,18.8-.2,1.1,0,2.2,1.1,2.6,0,.2.1.3.2.5,1.7,4.3,1.5,5.1,4,5.8,18.9,5.3,28.9-8.6,22.2-26-1.9-5.1-7.4-14.3-14.9-24.6-.3-.4-.6-.8-.9-1.2.3-.3.5-.5.8-.8,6.7-6.9,14-14.4,22.2-22.6,4.1-4.1,8.1-8.2,11.9-12.1,3.2,8.5,6.2,17.6,8.9,26.9,3.5,12.1,3.2,13.4,4.2,14.4,1.1,1.2,2.7,1.1,2.8,1.1,4.1.2,9.3-.2,13.7-2.6,10.2-5.6,11-18.5,6.3-35.6,1.2-1,1.9-1.7,2-1.8.4-.7,1-1.4,1-2.2,0-1.3,0-1.4-.8-2.3-.9-1-.9-1-2.2-1-1.2,0-1.3,0-2,.6-1.2-3.5-2.5-7.2-4.1-10.9-.4-1-.8-2-1.2-3-.4-1-.8-2-1.3-2.9-1-2.3-2-4.6-3.1-6.9,1-1.2,2-2.3,3-3.5.8-.9,1.5-1.8,2.2-2.7.7-.9,1.5-1.7,2.2-2.6,4.9-6,9.4-11.8,13.5-17.3.8-1.1,1.5-2.1,2.3-3.1.8-1.1,1.5-2.1,2.3-3.2,2.1-3,4-5.8,5.8-8.7,4.8,1.8,9.4,3.3,13.7,4.6,1.1.3,2.1.6,3.2.9,1.1.3,2.2.6,3.2.8,0,0,0,0,0,0,0,0,0,0,0,0-.5,1.2-1.1,2.5-1.7,3.8,0,0,0,.2-.1.2-4.1,8.9-4.9,8.9-4.3,10.9.2.8,1,1.2,1.6,1.9,0,0,2.4.2,2.5.2,1.2-.4,1.3-.4,1.9-1.6,1.3-2.5,3.7-7.2,6.7-14.2.4,0,.9.2,1.3.2,11,1.5,17.9-.4,22.2-3.7,2.7-2.1,4.4-4.8,5.4-7.7,1.4-4,1.5-8.3,1.2-11.7-.2-3.1-2.1-3.3-3.7-3.6-5-1.1-10.2-2.3-15.3-3.6,2.2-6.9,6.3-20.1,6.3-20.5,0-.8,0-1.7-.3-2.4-.6-1.1-.7-1.2-1.9-1.5-1.2-.4-1.3-.3-2.4.3-1.2.6-1.5,1.7-1.5,1.9-3,10.4-5.1,17-6.3,20.6-5.4-1.5-10.7-3.1-15.9-4.8,3.6-8.1,6.4-16,8.7-23.9,23.4,12.8,31.5-1.9,34.4-11,1-3-.7-3.8-2-4.7-1.7-1.1-3.4-2.3-5-3.5,1.6-6.2,3.1-12.5,3.1-12.7,0-.8,0-1.7-.4-2.4-.7-1.1-.7-1.1-2-1.4-1.3-.3-1.3-.3-2.4.4-1.1.7-1.2.7-1.4,2-.9,3.9-1.7,7.2-2.5,10.1-4.8-3.5-9.6-7.2-14.3-11,1.4-8.2,2.7-17,4.2-26.4.2-1.3.4-2.6.7-3.9.2-1.3.4-2.6.7-3.9.1-.7.2-1.3.3-2,.8.2,1.6.3,2.3.5,1.6.3,3.2.6,4.7.9,1.6.3,3.2.5,4.7.7,2.3.3,4.6.5,6.7.6-.8,3.9-2.1,9.6-3.8,17.5-.3,1.3.4,2.2.5,2.4.4.7,1.3.9,2,1.4,0,0,2.4-.4,2.4-.4.7-.4.9-1.3,1.4-2,0,0,2.5-11.4,4.1-18.8,24.1-.9,24.1-17,22.4-26.1-.6-3.1-2.5-3-4-3.2-3.9-.4-8-.9-12.1-1.4,1.5-7.4,3.5-17.7,3.5-17.9,0-.8,0-1.7-.5-2.4-.7-1.1-.8-1.1-2-1.3-1.3-.2-1.3-.2-2.4.5-1.1.7-1.1.8-1.4,2-1.6,8.5-2.7,14.3-3.5,18.1-6-.9-12.2-1.9-18.4-3.1.6-2.3,1.2-4.7,1.8-7.1,7.1-15.4,7.3-26.1,15.3-33.7,1.5-1.5,3.3-2.7,5.3-3.9,2-.7,3.9-1.3,5.9-1.6-.4.5-.6,1.1-.9,1.7,0,0,0,0-.6,3.2-1.7,9.1-1.7,9.1-1.7,9.4,0,.8,0,1.7.5,2.4.5.7,1.4.9,2,1.3,0,0,2.4-.5,2.4-.5.7-.5.9-1.4,1.3-2,0,0,2.3-12.6,2.3-12.6,0-.8,0-1.7-.5-2.4-.4-.6-.6-.9-.9-1,5.5-.7,10.7-.6,14.8-1.5,1.5-.3,1.8-.2,2.5-1.3,6.7-.6,12.8-.8,16.5-.9,29.6-1.1,60.5.2,79.5-1.9.6.6,1.1,1.2,1.7,1.8-.6,3.4-1.4,7.5-2,12-.3,2.1-.6,4.3-.7,6.6-.5,5.5-.4,9.6-1.1,23.1-2.1,38.5,6.2,109.4,13.5,158.5-36.8,15.4-87.4,44.3-104.8,132ZM479.4,81.5c-19.6.2-40.9,0-59.5,1,0,0,0,0,0-.1,0-.6-1.2-6.4-2.2-10.8-1.3-5.4-2.6-10.1-4.1-14.4,14.5,3.2,27,4.2,42.9,6.4,20.8,2.8,34.4,6.9,46.2,17.1-8.6.6-18,.7-23.3.8ZM310.6,63.1c-2.3,23.3-5.6,44-8.3,59-5.2-2.3-9-4.3-11.7-6.1-.9-16.4-2.5-28.1-2.2-32.7,1-18.7,10.3-31.2,23.9-38.1-.5,6-1,12.2-1.6,18ZM284.5,199.4c3.1-.4,6.4-.8,9.8-1.3,6.5,7.1,12.8,13.7,18.9,19.6-8.6,3.8-18.5,7.3-33.2,10.1-1.2.2-2.3.5-3.6.8,3.4-9.9,6-19.7,8.1-29.2ZM259.5,267.2c5.8,3,11.4,5.8,16.9,8.5-3.4-.8-7.1-1.7-11-2.8-2.5-.7-5.2-1.2-8.2-1.6.8-1.4,1.5-2.7,2.3-4.1ZM220.7,320.4c.8.2,1.6.4,2.4.6,8.9,2.6,16.9,4.1,23.9,5,3,5.3,6.1,11.3,9.1,18-13.1-1.4-26-4.4-37.4-7.8-1.3-.4-2.5-.8-3.8-1.1-1.3-.4-2.6-.8-3.8-1.2-1-.3-2-.7-3-1,.6-.6,1.3-1.2,1.9-1.8.8-.8,1.7-1.6,2.5-2.4.8-.8,1.7-1.6,2.5-2.4,2-2,3.9-3.9,5.8-5.9ZM202.6,337.9c3.5,1.2,7.1,2.4,11,3.6,5,16.2,7.5,33.3,8.7,47.8-5.8-7.4-12.4-14.9-19.1-21.6-2.1-9.8-4.8-17.7-7.3-24.2,2.3-1.9,4.5-3.8,6.6-5.6ZM190.7,347.8c1.4,3.7,2.8,7.7,4,12-3.3-2.8-6.6-5.4-9.9-7.5,2-1.5,3.9-3,5.9-4.5ZM422.9,535.4c-41.7,6.7-87,10.1-102.4,10.2-7,0-13.9.4-20.6,1.1,41.1-17.6,78.2-37.5,114.3-52.2.5,4,.6,6.9,1.2,13.7.7,9.5,1.4,20.5,7.7,27.2ZM490.1,674c-1.6-.5-3.2-1-4.8-1.7-20.3-8.1-33.4-26-35.9-45.8-.1-1.1-.2-2.2-.3-3.3,0-1.1-.1-2.3-.1-3.4,0-7.4,1.5-14.8,4.6-22,5.1-11.8,15.5-23.8,30.8-30.1,1.5-.6,3.1-1.2,4.7-1.7,1.3-.4,2.7-.8,4.1-1.1,4.4-1.1,9.2-1.7,14.2-1.7,2.4,0,10.4,0,20.1,3.4.9.3,1.9.7,2.8,1.1,1.9.8,3.7,1.7,5.5,2.6,1.5.8,3,1.7,4.5,2.7,21.8,14.4,31.6,42,21.8,67-8.9,22.8-31.4,36.7-55,36.6-2.7,0-5.4-.2-8.1-.6-3-.4-5.9-1.1-8.8-2ZM525.5,649.1c.7-.3,1.4-.7,2.1-1.1,1-.6,1.9-1.2,2.7-1.8,2-1.4,3.7-3,5.2-4.7,7.9-9.1,9.7-22.1,4.9-32.9-.8-1.8-1.8-3.6-3-5.3-.9-1.3-1.9-2.4-3-3.6,0,0,0,0-.1-.1-9.2-9.3-19.7-9.3-22.1-9.3-.3,0-.5,0-.8,0-18.9.4-33.8,18.4-29.3,37.9,4.5,19.3,25.8,29.4,43.4,20.9ZM506.1,604.9c10.5.2,16.4,9,14.6,17-2.5,11-17.4,15-25.6,6.5-8.4-8.6-2.6-23.3,11-23.6ZM522.9,631.7c10.6-12.8,2.1-32.8-16.7-33.2-.2,0-.4,0-.5,0-1.1,0-2.2.1-3.3.3.5-.2,1-.4,1.5-.6,4-1.4,6.8-1.5,8.4-1.5h0c.3,0,5,0,9.8,2,5.6,2.5,9.6,6.5,12,11.3,1.7,3.3,2.6,6.9,2.7,10.5,0,2.8-.3,5.7-1.2,8.4-1.1,3.4-3,6.5-5.6,9.2-.3.3-.5.5-.8.8-12.2,11.5-30.8,7.5-38.2-5.6,8.6,8.3,23.6,8.4,32-1.7ZM265.9,636.7c-9.2-9.3-19.7-9.3-22.1-9.3-.3,0-.5,0-.8,0-18.9.4-33.8,18.4-29.3,37.9,4.5,19.3,25.8,29.4,43.4,20.9.7-.3,1.4-.7,2.1-1.1,1-.6,1.9-1.2,2.7-1.8,2-1.4,3.7-3,5.2-4.7,7.9-9.1,9.7-22.1,4.9-32.9-.8-1.8-1.8-3.6-3-5.3-.9-1.3-1.9-2.4-3-3.6,0,0,0,0-.1-.1ZM261.4,675.3c-.3.3-.5.5-.8.8-12.2,11.5-30.8,7.5-38.2-5.6,8.6,8.3,23.6,8.4,32-1.7,10.6-12.8,2.1-32.8-16.7-33.2-.2,0-.4,0-.5,0-1.1,0-2.2.1-3.3.3.5-.2,1-.4,1.5-.6,4-1.4,6.8-1.5,8.4-1.5h0c.3,0,5,0,9.8,2,5.6,2.5,9.6,6.5,12,11.3,1.7,3.3,2.6,6.9,2.7,10.5,0,2.8-.3,5.7-1.2,8.4-1.1,3.4-3,6.5-5.6,9.2ZM237.7,642c10.5.2,16.4,9,14.6,17-2.5,11-17.4,15-25.6,6.5-8.4-8.6-2.6-23.3,11-23.6ZM269.2,388.3c.9.9.9,1,.8,2.3,0,.8-.5,1.6-1,2.2-.1.2-7.4,6.7-18.3,17.7-.1.1-.9.9-2.3,1-.8,0-1.5-.6-2.3-.9-2.2-.9-.2-4.2,0-4.5.3-.5,18.2-17.8,18.5-17.9.7-.3,1.5-.9,2.3-.8,1.3,0,1.4,0,2.2,1ZM308.2,350c0-1.6.2-1.6,1.4-2.8,9.7-10.6,14.7-19.1,14.9-19.2.7-.5,1.2-1.2,2-1.4,1.2-.3,1.3-.3,2.4.4,1.1.7,1.1.8,1.4,2,.4,1.7,0,1.7-.9,3.2-6.4,9.7-12.3,16.3-15.6,19.8-.9,1-2,1-2.2,1,0,0-2.3-.8-2.3-.9-.3-.7-1-1.4-1-2.2ZM213.1,453.9c.4,1.7,0,1.7-.9,3.2-3.6,5.9-5.9,10.7-7.5,14.3-1.9,4.5-2.5,7.1-2.6,7.2-.5.6-.8,1.5-1.6,1.9,0,0-2.4.2-2.4.2-.6-.5-1.5-.8-1.9-1.6-.8-1.4-.5-1.6,0-3.1.3-.9.6-1.9,1-2.8,3.3-9.2,7.9-16.7,10.1-20.3.7-1.1,1.8-1.4,2-1.4,1.3-.3,2.3.3,2.4.4,1.1.7,1.1.7,1.4,2ZM203.6,519c.4,1.2.4,1.3-.2,2.4,0,0-1.9,1.6-1.9,1.6-.8,0-1.7.2-2.4-.2-1.5-.8-1.3-1-1.8-2.6-3.1-9.9-4.3-17.2-4.2-24.9,0-1.5,0-1.6,1-2.7.9-.9,1-.9,2.3-.9,1.3,0,1.3,0,2.2,1,1,1.1.9,1.2.9,2.7,0,8.5,1.7,15.8,4.2,23.7ZM473.5,349.4c-.2-1.7.1-1.7,1.2-3,7.2-9.1,13.9-15,16.8-17.5,1-.9,2.1-.8,2.3-.8,1.3,0,1.3.1,2.2,1.1.8,1,.9,1,.8,2.3-.2,2-.9,1.7-6.4,7-6.9,6.7-11.1,12.4-11.2,12.5-.7.4-1.3,1.1-2.1,1.2,0,0-2.4-.6-2.4-.7-.4-.7-1.1-1.3-1.2-2.1ZM468.9,359.9c1.1.7,1.1.7,1.4,2,.5,1.9-.3,1.8-4.2,9.3-4.2,8-6.8,14.6-6.8,14.7-.6.6-1,1.4-1.7,1.7,0,0-2.4,0-2.5,0-.6-.6-1.4-1-1.7-1.7-.7-1.6-.4-1.6.3-3.2,4.5-11,8.9-18.5,10.8-21.6.7-1.1,1.8-1.4,2-1.5,1.2-.3,1.3-.3,2.4.4ZM453.6,398.8c1,1.8.2,1.9-2.3,11.5-.1.5-.3,1.1-.4,1.6-1.8,7.3-2.8,12.8-2.8,12.8-.4.7-.7,1.6-1.4,2,0,0-2.4.5-2.4.5-.7-.4-1.6-.7-2-1.4-1-1.4-.7-1.5-.3-3.2.7-3.3,1.3-6.4,2-9.1,1.6-6.8,3.1-11.7,3.8-14.2.4-1.2.4-1.3,1.6-1.9,1.1-.6,1.2-.6,2.4-.2,1.2.4,1.3.4,1.9,1.6ZM366.5,396.6c.2.6,4.9,11.1-2,36.2-.3.9-.5,1.9-.8,2.9-.6,2-1.2,3.9-1.2,3.9-.5.6-.9,1.5-1.6,1.8,0,0-2.4.2-2.5.2-.1-.1-.2-.2-.4-.3-.5-.4-1.2-.7-1.5-1.3-.8-1.5-.4-1.6,0-3.2.2-.7.5-1.5.7-2.2,4.6-14.9,5.9-29.2,3-36.2-2.5-6-18.4-13.8-22-6.9-3.7,7.2,4.1,24.3,4.3,25.1.5,2.1-1.4,4.5-4.1,3.8-1.6-.4-24.2-7.8-29.5,7.8-1.5,4.5-1.4,9.4-.9,14,0,.7,1.1,2.1,3,3.6,3.9,3.2,11.5,6.9,21.5,6.3,12-.7,20.2-7.4,20.6-7.4.8-.2,1.6-.6,2.4-.5,0,0,.4.2.8.5.6.4,1.3.9,1.3.9.2.8.6,1.6.5,2.4-.3,1.6-.6,1.6-2,2.5-22.5,15.1-45.4,6.2-52.3-2.8-1.2-1.6-1.9-3.1-2.1-4.6-3-25.5,12.4-34.1,32.5-30.2-3.1-8.7-6.8-23.8,3.1-28.9,9.3-4.9,25.9,3.7,29.2,12.8ZM482.5,245.2c-.5.5-8.7,9.7-36.8,13.5-2.1.3-4.1.5-4.1.5-.8-.2-1.7-.2-2.3-.7,0,0-1.2-2.2-1.2-2.2,0-.1,0-.3.1-.5.1-.7.2-1.4.6-1.9,1.1-1.3,1.3-1.1,3-1.3,16.4-1.8,31.1-6.7,36.5-12.5,4.4-4.8,4.9-22.5-2.8-22.9-8.1-.4-20.4,13.7-21.1,14.3-1.7,1.3-4.6.6-5.1-2.2-.3-1.5-2.4-21.2-15.2-23.5-1.3-.2-2.6-.3-4.1-.1-4.7.5-9.1,2.6-13.1,4.9-1.7,1-4.7,10.3-1.1,21.2.6,1.7,1.3,3.4,2.2,5.2,5.6,10.6,15.1,15.4,15.3,15.7.5.6,1.2,1.2,1.4,2,0,0,0,.4-.1.9-.1.7-.2,1.5-.2,1.5-.7.5-1.2,1.2-2,1.4-1.6.4-1.7.1-3.1-.8-8.9-5.5-14.6-12.5-17.9-19.7-6.7-14.5-3.5-29.5,2.1-32.9,9.7-5.9,17.9-7.1,24.5-4.9,8.2,2.8,13.8,10.9,16.5,22,6.7-6.4,18.9-16,27.6-9.1,8.3,6.5,7.3,25.1.4,31.9ZM424.3,303.2c.2.6,5.3,11.9-2.8,39.1-.6,2-1.2,3.9-1.2,3.9-.5.6-.9,1.5-1.6,1.8,0,0-2.4.2-2.5.2-.1-.1-.2-.2-.4-.3-.5-.4-1.2-.7-1.5-1.3-.8-1.5-.4-1.6,0-3.2,5.1-15.7,6.8-31.1,3.7-38.4-2.5-6-18.4-13.8-22-6.9-3.7,7.2,4.1,24.3,4.3,25.1.5,2.1-1.4,4.5-4.1,3.8-1.6-.4-24.2-7.8-29.5,7.8-1.5,4.5-1.4,9.4-.9,14,.2,2.3,9.8,10.7,24.5,9.9,12-.7,20.2-7.4,20.6-7.4.8-.2,1.6-.6,2.4-.5,0,0,.4.2.8.5.6.4,1.3.9,1.3.9.2.8.6,1.6.5,2.4-.3,1.6-.6,1.6-2,2.5-26.4,17.8-53.2,2.4-54.4-7.4-3-25.5,12.4-34.1,32.5-30.2-3.1-8.7-6.8-23.8,3.1-28.9,9.3-4.9,25.9,3.7,29.2,12.8Z" fill="#714e67"/></g></svg>