<?xml version="1.0" encoding="UTF-8"?><svg id="b" xmlns="http://www.w3.org/2000/svg" viewBox="0 0 720 633.1"><g id="c"><path d="M650.7,278.9c-13.9-21.4-1-48,8.1-64.9,50.2-93.3-18.7-143.4-92.7-113.2-16.3,6.6-24.3,3.5-33.6-23.5-10.6-30.9-19.4-83.3-73.1-75.5-28.2,4.1-62.6,25.4-81.1,31.9-18.9,6.6-32.5.6-57.8-18.2-50.9-37.7-123.1,4.7-126,6.3-.9.7-1,.6-1.3,1-1.3,1.4-5.6,5.7-9.1,11.8-14,24.3.6,42.6-22.1,62.2-32.4,27.9-94.3,29.5-132.1,43.2-49.6,17.9-29.2,53.5,1.8,86.5,9.5,10.2,25.1,23.2,26.4,40.2,2.9,38.2-73.2,67.1-41.3,131.5,5.8,11.7,13.2,23.7,34.2,27.7,32.2,6,70.6-8.4,84.2,25.9,5.9,14.8,4.8,29.8,6.2,47.1,7.8,98.4,58.1,99.2,101.3,84.8,30.1-10,63.5-30.1,71.1-25.9,18.8,10.3,73.3,109.8,167.1,62.6,31.9-16,44-34.7,46.7-38.8,31-46.6,8.6-95.5,82.3-117.6,19.7-5.9,68-9.8,93.7-48.1,2.2-3.2,13.5-20.1,16.2-45.9,5.4-52.1-50-62-68.9-91.2ZM444.4,312.7c-13.1,4.1-25.6,8.2-33.6,17.4-7,8-9.8,19-11.3,27.9-10.7-2.3-33.2-6.1-51.8-1.1-16.2,4.3-22.7,13.3-25.4,18-5.8-8.5-12.5-31.5-15.3-35.6-9.8-14.1-26-21.6-39.3-25.6,20.4-13.3,19.4-38.7,16.3-57.3,23.1-2.4,26.9-2.6,43.4-18.7,10.9,4.6,20.1,8,28.7,7.4,8.5-.7,15.4-6,23.8-12.6,24.4,11.4,27.9,11.4,54.6,7.7,1,8.1,2.4,14.7,6.5,19.9,4,5.1,10.4,7.8,18.7,10.5-8.1,8.6-12.1,12.9-14.4,19.4-2.4,7-1.9,15.1-1,22.8Z" fill="#714e67"/><path d="M675.6,315.9c-2.9,2.8-6.3,5.4-10.1,7.5-28.8,16.2-65.5-.2-72.2-32-6-28.6,15.2-55.5,44.3-57.6,2.6-7.7,6.2-15.7,10.7-24.1,46.4-85.7-14.1-124.4-78-98.5-10.4,4.2-28.9,10.1-41.9-14.5-3.9-7.4-6.9-16.4-9.8-25.7-31.5,8.9-63-16-58.3-47.2.6-4,1.8-7.7,3.4-11.2-18.3,2-39.6,12.3-63,23.6-29.9,14.4-45.2,19.2-85-10.4-9-6.7-33.3-24.3-83.9-8-7.8,2.5-14.9,5.6-16.2,6.2-7.1,3.1-12.7,6.1-14.8,7.2-8.7,9.4-11.5,16.2-12.8,31.5-1.3,15.4-1,36.1-37.8,55.3-50.6,26.4-139.1,22.2-138.9,53.9.2,21,34.9,53,41.4,60.2,15,16.8,18.4,31.3,15.8,44.4,5.3,1.8,11.4,4.9,17.2,10.2,23.7,21.4,20.1,60.5-9,76.9-18.7,10.6-40.8,7.3-55.8-5-2.4,12.3,0,26,10.3,42.6,20.4,32.8,86.1-5.6,111.2,39.9,8.5,15.5,8.8,33.6,9.4,48.4.6,0,1.2,0,1.7,0,.4,0,.9,0,1.3,0,4.3,0,19.2.2,33.3,12.8,21.7,19.6,20.5,54.1-2.3,72.4,11.2,5.6,23.5,5.1,34.4,3.2,37.4-6.4,78.6-36.7,95.8-31.2,16.6,5.3,42.3,54.4,88.5,70.5,37.6,13.1,70.6-5.3,87.2-16.3,58.1-38.6,30.4-95.2,78.5-130.6,21.3-15.6,48.1-20,58.3-22.4,29.5-6.9,71.6-20.7,79.5-76.6,4-28.4-13.2-41.7-32.5-55.5ZM454.7,98c32.4.6,46.3,35.6,26.6,56.4-18.1,19.1-51.2,12.8-60.2-11.2-7.7-20.4,6.8-44.7,33.6-45.2ZM282.3,16.5h.9c31.7.6,46,35.5,26,56.9-16.6,17.7-47.4,13.5-58-8.9-10.4-22,6-47.4,31.1-48ZM77.5,192.9c-10.4-22,6-47.4,31.1-48h.9c31.7.6,46,35.5,26,56.9-16.6,17.7-47.4,13.5-58-8.9ZM462.1,583.4c-28.8,16.2-65.5-.2-72.2-32-6.1-29.3,16.3-56.9,46.6-57.7.4,0,.9,0,1.3,0,4.3,0,19.2.2,33.3,12.8,23.7,21.4,20.1,60.5-9,76.9ZM567.7,426.7c-18.1,19.1-51.2,12.8-60.2-11.2-7.7-20.4,6.8-44.7,33.6-45.2,32.4.6,46.3,35.6,26.6,56.4ZM576.3,252.3c-2.4,2.6-3,1.3-21.8,2.8-29.7,2.3-59.7,7.5-80.5,16.5-5.3,6.2-15.9,15.3-18.1,22.2-2.2,6.8-.3,16.4.1,21.4,11.1.8,25.5,2.1,44.5,4,31,3.1,29.8,8.2,58.5,19.8,2.1.9,2.2.9,3,3,.9,2.1.9,2.2,0,4.3-.8,2.1-.9,2.2-3,3.1-2.8,1.2-2.9.6-5.6-.5-26.7-10.8-25.4-15.6-54-18.5-28.2-2.8-46.2-4.2-58.1-4.9-11.3,3.7-20.4,7.4-25.4,16.8-3.3,6.2-4.8,14.2-5.7,19.3,31.6,23.1,56.6,51.3,59.1,118.3,0,2.3-1.3,3.8-1.5,4-1.6,1.7-3.6,1.8-3.9,1.8-2.3,0-2.4,0-4-1.5-2.4-2.2-1.7-2.6-1.9-5.8-2.6-62.7-27.3-88-55-108.1-.1,0-.2,0-.4,0,0,0-38.6-10.7-60.3.5-9.7,5-10.6,11.3-13.4,14.3-.5.5-1.7,1.6-3.5,2.3-11.5,30.5-12.8,65.5-12.9,65.6-1.4,3.4-1.6,3.6-1.9,3.9-1.7,1.5-1.8,1.5-4.1,1.4-2.3-.1-2.4-.2-3.9-1.9-.9-1.1-1.1-2.6-1.4-4-.1-.8.8-10.1.9-10.9,2.5-25.2,7.5-44.1,12.6-57.7-.7-.8-1.5-1.7-2.2-2.9-2-3.1-3.9-7-5.8-11.3-31.6,12.8-55.4,39-65.2,69.4-3.2,9.7-4.7,17-9.8,29.8-.9,2.2-2.7,2.9-3,3.1-2.1.9-4,.2-4.3,0-2.1-.9-2.2-.9-3.1-3-1.1-2.6-.7-2.7.3-5.3,8.4-21.2,8.4-35.1,24-58.4,18.8-27.9,44.3-41,56.9-46.1-2.1-5.5-3.8-10.5-5.2-13.5-2.2-3-12.4-18-45.5-24.1-6.3-1.2-8.5-.8-10.3-2.2-14.6,1.2-32.4,3.7-47.2,9.2-26.5,9.9-32.3,24.6-61.2,34.4-2.2.8-4-.1-4.3-.3-2.1-1.1-2.7-2.9-2.8-3.2-.7-2.2-.7-2.3.3-4.3,1.5-2.9,2.1-2.4,5.1-3.5,35.5-12.7,34.7-38.1,111.8-43.7-3.1-11-27.8-57.7-108.6-52-2.8.2-3,.5-5.1-1.3,0,0-1.9-3.8-1.9-3.9.5-1.3.4-3,1.4-4,1.8-2.1,2.1-1.8,4.9-2,89.5-6.3,118.3,48.2,120.7,62.6.2,0,.4,0,.6,0,10.2-4,23.4-13.8,17.1-49.9-10-17.9-27.1-38.7-38.7-49.6-26-24.7-48-28.4-68.6-31.6-.3,0-2.3-.4-3.7-2.2,0,0-1-4.2-1-4.2.7-1.2,1.1-2.8,2.2-3.6,1.2-.8,2.7-.9,4.2-1,.6,0,9.3,1.6,10.1,1.7,25.6,4.7,56.9,14.7,95.4,69.8,2.3,3.3,4.3,6.3,6,9.1,11.6-1.4,21.2-1.1,28.6-5.7,3.1-1.9,6.2-4.7,8.9-7.2,11.8-85.1-52.8-136.7-65.4-142.8h0c-1.2-.7-2.5-1.1-3.3-2.1,0,0-1.2-4-1.2-4,2.5-4.4,2.5-6,7.4-4.7,10.9,2.9,82.3,56.7,74.5,146.9,1,.3,1.9.8,2.7,1.2,22.7,9.7,26.3,8.3,37.3,0,3.4-2.6,5.2-4.1,6.4-5-.9-14.4-1-31.7,1.7-42.4,5.2-20,19.6-40.8,25.3-48.9,0,0,0-.1.1-.2,0,0,0,0,0,0,0,0,0,0,.1,0t0,0s0,0,0,0c1.1-.8,2-2.1,3.3-2.5,4.1-1.1,4,.8,4.2.5,0,0,2.6,3.3,2.6,3.4.1.4.7,2.5-.9,4.8-5.1,7.4-23,32.5-25.2,52.5-1,9.8-.8,22.4,0,33.6,9.4,4.5,17.4,8.5,27.8,8.2,5.5-.1,14.5-1.5,20.3-2.3,10.6-36.3,37-60.7,70-71.3,2.2-.7,2.3-.7,4.3.4,2,1.1,2.1,1.1,2.8,3.3.7,2.2.7,2.3-.4,4.3-1.4,2.7-1.9,2.3-4.8,3.3-27,9-48.6,28.7-58.8,55.7-1,2.7-1.9,5.3-2.6,7.8,0,.3.2.6.2.9.9,6.8,1.1,17.2,6.5,21.5,3.9,3,12.2,5.3,17.4,7,14.9-6.6,41-14.4,84.7-17.7,9.7-.7,17-1,18.3-1,2.3,0,2.4,0,4,1.5,1.6,1.5,1.7,1.6,1.8,3.9,0,2.2,0,2.3-1.5,4Z" fill="#cafafd"/><path d="M666.2,309.2c-.2.2-.4.4-.7.6-24,19.6-60.2,4.2-61.9-26.2-.9-16.2,10.2-34.4,30.9-38-3.6,19,.7,35.8,16.2,50.8,4.8,4.7,10.1,8.8,15.5,12.7ZM455.3,509.2c-8.4-4.5-16.9-4.3-17.5-4.3h0c-25,.5-38.7,20.8-37.6,38.7,1.8,30.4,38,45.8,61.9,26.2,19.6-16.1,17.6-47.8-6.8-60.6ZM172.5,505.1c-8.4-4.5-16.9-4.3-17.5-4.3h0c-.8,0-1.5.1-2.3.2,3.2,35.9,12.2,56.1,23.6,66.9,1-.7,2-1.4,3-2.2,19.6-16.1,17.6-47.8-6.8-60.6ZM70.1,289.5c-1.7-.9-3.4-1.6-5-2.1-7.2,16.3-22.1,30.8-32.3,45.7-3.1,4.6-5.8,9.2-8,13.9,12.8,13.5,35.4,16.8,52,3.2,19.6-16.1,17.6-47.8-6.8-60.6ZM120.9,158.8c-5.5-2.8-10.5-2.6-11.3-2.6,0,0-10.7-.6-18.4,8.1-12.5,14.2-2.7,35.8,16.5,37.2,20.1,1.5,33-19.9,21.6-35.5-2.2-3-5.1-5.5-8.5-7.2ZM294.5,30.4c-5.5-2.8-10.5-2.6-11.3-2.6,0,0-10.7-.6-18.4,8.1-12.5,14.2-2.7,35.8,16.5,37.2,20.1,1.5,33-19.9,21.6-35.5-2.2-3-5.1-5.5-8.5-7.2ZM476.5,12.9c-7.1,10.2-7.7,24,.8,35.3,8.9,11.8,24.4,15.7,37.9,12.1-7.2-22.4-16.1-43.8-38.7-47.4ZM466.7,112.1c-5.8-3.1-11.2-2.9-12-2.9-.2,0-10.6-.5-18.4,7.7-13.1,13.8-3.6,35.4,15.9,37.3,20.4,1.9,34.2-18.9,23.1-34.7-2.1-3-5-5.6-8.5-7.4ZM553.1,384.5c-5.8-3.1-11.2-2.9-12-2.9-.2,0-10.6-.5-18.4,7.7-13.1,13.8-3.6,35.4,15.9,37.3,20.4,1.9,34.2-18.9,23.1-34.7-2.1-3-5-5.6-8.5-7.4Z" fill="#fff"/><path d="M576,244.4c-1.7-1.5-1.8-1.6-4-1.5-1.4,0-8.7.3-18.3,1-43.7,3.3-69.8,11.1-84.7,17.7-5.2-1.7-13.5-4-17.4-7-5.4-4.3-5.5-14.7-6.5-21.5,0-.3-.1-.6-.2-.9.7-2.5,1.6-5.1,2.6-7.8,10.1-27,31.8-46.7,58.8-55.7,2.9-1,3.4-.6,4.8-3.3,1-2,1.1-2.1.4-4.3-.7-2.2-.8-2.2-2.8-3.3-2-1-2.1-1.1-4.3-.4-33,10.6-59.4,35-70,71.3-5.8.8-14.8,2.2-20.3,2.3-10.4.3-18.4-3.7-27.8-8.2-.7-11.2-.9-23.8,0-33.6,2.1-20.1,20.1-45.1,25.2-52.5,1.6-2.3,1-4.4.9-4.8,0,0-2.6-3.4-2.6-3.4-.2.3-.1-1.6-4.2-.5-1.3.4-2.2,1.6-3.3,2.5,0,0,0,0,0,0t0,0s0,0-.1,0c0,0,0,0,0,0,0,0,0,.1-.1.2-5.7,8.1-20.1,28.9-25.3,48.9-2.8,10.7-2.6,28-1.7,42.4-1.2,1-3.1,2.5-6.4,5-11,8.3-14.5,9.7-37.3,0-.8-.3-1.7-.8-2.7-1.2,7.9-90.1-63.6-143.9-74.5-146.9-4.9-1.3-5,.2-7.4,4.7,0,0,1.2,4,1.2,4,.8,1,2.1,1.4,3.3,2h0c12.6,6.3,77.2,57.8,65.4,142.9-2.7,2.5-5.8,5.3-8.9,7.2-7.4,4.6-17.1,4.3-28.6,5.7-1.8-2.8-3.7-5.8-6-9.1-38.5-55.1-69.9-65-95.4-69.8-.8-.2-9.5-1.8-10.1-1.7-1.4.1-3,.2-4.2,1-1.2.8-1.5,2.4-2.2,3.6,0,0,1,4.2,1,4.2,1.4,1.9,3.3,2.2,3.7,2.2,20.6,3.3,42.6,7,68.6,31.6,11.5,11,28.6,31.7,38.7,49.6,6.3,36.2-6.9,45.9-17.1,49.9-.2,0-.4,0-.6,0-2.4-14.4-31.2-68.9-120.7-62.6-2.8.2-3.1,0-4.9,2-.9,1.1-.9,2.7-1.4,4,0,0,1.9,3.8,1.9,3.9,2.1,1.8,2.3,1.5,5.1,1.3,80.7-5.7,105.5,41,108.6,52-77.1,5.6-76.3,31-111.8,43.7-3.1,1.1-3.7.6-5.1,3.5-1,2-1,2.1-.3,4.3.1.3.7,2.2,2.8,3.2.3.2,2.1,1.1,4.3.3,28.9-9.8,34.6-24.5,61.2-34.4,14.8-5.5,32.6-8.1,47.2-9.2,1.8,1.3,4,1,10.3,2.2,33.1,6.1,43.3,21.1,45.5,24.1,1.4,3,3.2,8.1,5.2,13.5-12.7,5.2-38.2,18.2-56.9,46.1-15.6,23.3-15.6,37.2-24,58.4-1,2.6-1.4,2.7-.3,5.3.9,2.1,1,2.2,3.1,3,.3.1,2.2.9,4.3,0,.3-.1,2.2-.9,3-3.1,5.1-12.8,6.6-20.1,9.8-29.8,9.9-30.4,33.7-56.6,65.2-69.4,1.8,4.2,3.7,8.2,5.8,11.3.7,1.1,1.5,2,2.2,2.9-5.1,13.6-10.1,32.5-12.6,57.7,0,.9-1,10.2-.9,10.9.3,1.4.5,3,1.4,4,1.5,1.7,1.6,1.8,3.9,1.9,2.3.1,2.4,0,4.1-1.4.2-.2.5-.5,1.9-3.9,0-.1,1.3-35.2,12.9-65.6,1.7-.7,3-1.8,3.5-2.3,2.8-3,3.7-9.3,13.4-14.3,21.6-11.2,60.2-.5,60.3-.5.1,0,.2,0,.4,0,27.7,20.1,52.4,45.4,55,108.1.1,3.2-.5,3.6,1.9,5.8,1.6,1.5,1.8,1.6,4,1.5.3,0,2.3,0,3.9-1.8.2-.3,1.6-1.7,1.5-4-2.6-67-27.6-95.2-59.1-118.3.8-5.1,2.4-13.1,5.7-19.3,5-9.4,14.1-13.2,25.4-16.8,11.9.7,29.9,2.1,58.1,4.9,28.6,2.9,27.3,7.7,54,18.5,2.8,1.1,2.9,1.7,5.6.5,2.1-.9,2.2-1,3-3.1.8-2.1.8-2.2,0-4.3-.9-2.1-1-2.2-3-3-28.7-11.5-27.5-16.7-58.5-19.8-18.9-1.9-33.3-3.2-44.5-4-.5-4.9-2.3-14.6-.1-21.4,2.3-6.9,12.8-16.1,18.1-22.2,20.7-9.1,50.7-14.3,80.5-16.5,18.8-1.4,19.4-.2,21.8-2.8,1.5-1.7,1.6-1.8,1.5-4,0-2.3-.1-2.4-1.8-3.9ZM445.4,289.9c-2.4,7-1.9,15.1-1,22.8-13.1,4.1-25.6,8.2-33.6,17.4-7,8-9.8,19-11.3,27.9-10.7-2.3-33.2-6.1-51.8-1.1-16.2,4.3-22.7,13.3-25.4,18-5.8-8.5-12.5-31.5-15.3-35.6-9.8-14.1-26-21.6-39.3-25.6,20.4-13.3,19.4-38.7,16.3-57.3,23.1-2.4,26.9-2.6,43.4-18.7,10.9,4.6,20.1,8,28.7,7.4,8.5-.7,15.4-6,23.8-12.6,24.4,11.4,27.9,11.4,54.6,7.7,1,8.1,2.4,14.7,6.5,19.9,4,5.1,10.4,7.8,18.7,10.5-8.1,8.6-12.1,12.9-14.4,19.4ZM471,506.5c-14-12.6-29-12.8-33.3-12.8-.4,0-.8,0-1.3,0-30.3.8-52.7,28.4-46.6,57.7,6.6,31.9,43.3,48.3,72.2,32,29.1-16.4,32.6-55.5,9-76.9ZM462.1,569.8c-24,19.6-60.2,4.2-61.9-26.2-1-17.9,12.6-38.2,37.6-38.7h0c.7,0,9.1-.2,17.5,4.3,24.4,12.8,26.4,44.5,6.8,60.6ZM109.6,144.9h-.9c-25.2.6-41.6,26-31.1,48,10.6,22.4,41.5,26.5,58,8.9,20-21.3,5.8-56.3-26-56.9ZM107.7,201.5c-19.2-1.4-29-23-16.5-37.2,7.7-8.7,18.4-8.1,18.4-8.1.8,0,5.8-.1,11.3,2.6,3.4,1.7,6.4,4.3,8.5,7.2,11.3,15.6-1.6,36.9-21.6,35.5ZM309.2,73.3c20-21.3,5.8-56.3-26-56.9h-.9c-25.2.6-41.6,26-31.1,48,10.6,22.4,41.5,26.5,58,8.9ZM283.2,27.7c.8,0,5.8-.1,11.3,2.6,3.4,1.7,6.4,4.3,8.5,7.2,11.3,15.6-1.6,36.9-21.6,35.5-19.2-1.4-29-23-16.5-37.2,7.7-8.7,18.4-8.1,18.4-8.1ZM481.3,154.4c19.7-20.8,5.8-55.8-26.6-56.4-26.8.5-41.3,24.7-33.6,45.2,9,24,42.1,30.4,60.2,11.2ZM454.7,109.2c.8,0,6.2-.1,12,2.9,3.5,1.8,6.4,4.4,8.5,7.4,11.1,15.8-2.7,36.7-23.1,34.7-19.5-1.9-29-23.5-15.9-37.3,7.8-8.3,18.3-7.7,18.4-7.7ZM541.1,370.3c-26.8.5-41.3,24.7-33.6,45.2,9,24,42.1,30.4,60.2,11.2,19.7-20.8,5.8-55.8-26.6-56.4ZM538.5,426.6c-19.5-1.9-29-23.5-15.9-37.3,7.8-8.3,18.3-7.7,18.4-7.7.8,0,6.2-.1,12,2.9,3.5,1.8,6.4,4.4,8.5,7.4,11.1,15.8-2.7,36.7-23.1,34.7ZM650.7,278.9c-13.9-21.4-1-48,8.1-64.9,50.2-93.3-18.7-143.4-92.7-113.2-16.3,6.6-24.3,3.5-33.6-23.5-10.6-30.9-19.4-83.3-73.1-75.5-28.2,4.1-62.6,25.4-81.1,31.9-18.9,6.6-32.5.6-57.8-18.2-50.9-37.7-123.1,4.7-126,6.3-.9.7-1,.6-1.3,1-1.3,1.4-5.6,5.7-9.1,11.8-14,24.3.6,42.6-22.1,62.2-32.4,27.9-94.3,29.5-132.1,43.2-49.6,17.9-29.2,53.5,1.8,86.5,9.5,10.2,25.1,23.2,26.4,40.2,2.9,38.2-73.2,67.1-41.3,131.5,5.8,11.7,13.2,23.7,34.2,27.7,32.2,6,70.6-8.4,84.2,25.9,5.9,14.8,4.8,29.8,6.2,47.1,7.8,98.4,58.1,99.2,101.3,84.8,30.1-10,63.5-30.1,71.1-25.9,18.8,10.3,73.3,109.8,167.1,62.6,31.9-16,44-34.7,46.7-38.8,31-46.6,8.6-95.5,82.3-117.6,19.7-5.9,68-9.8,93.7-48.1,2.2-3.2,13.5-20.1,16.2-45.9,5.4-52.1-50-62-68.9-91.2ZM570.3,470.4c-48.1,35.4-20.4,92-78.5,130.6-16.5,11-49.6,29.5-87.2,16.3-46.2-16.2-71.9-65.3-88.5-70.5-17.3-5.5-58.4,24.8-95.8,31.2-10.9,1.9-23.2,2.4-34.4-3.2,22.8-18.2,24-52.8,2.3-72.4-14-12.6-29-12.8-33.3-12.8-.4,0-.8,0-1.3,0-.6,0-1.2,0-1.7,0-.7-14.8-.9-33-9.4-48.4-25.1-45.5-90.8-7.1-111.2-39.9-10.4-16.6-12.7-30.3-10.3-42.6,15,12.3,37,15.6,55.8,5,29.1-16.4,32.6-55.5,9-76.9-5.9-5.3-11.9-8.4-17.2-10.2,2.6-13.1-.9-27.6-15.8-44.4-6.5-7.3-41.2-39.2-41.4-60.2-.3-31.7,88.3-27.6,138.9-53.9,36.8-19.2,36.6-39.9,37.8-55.3,1.3-15.3,4-22.1,12.8-31.5,2.1-1.1,7.6-4.1,14.8-7.2,1.3-.5,8.4-3.6,16.2-6.2,50.6-16.2,74.9,1.3,83.9,8,39.8,29.5,55.2,24.7,85,10.4,23.4-11.3,44.7-21.6,63-23.6-1.6,3.5-2.8,7.2-3.4,11.2-4.7,31.2,26.8,56,58.3,47.2,2.9,9.3,5.9,18.3,9.8,25.7,13,24.6,31.5,18.7,41.9,14.5,63.9-25.9,124.4,12.8,78,98.5-4.5,8.4-8.2,16.4-10.7,24.1-29.1,2.1-50.2,29-44.3,57.6,6.6,31.9,43.3,48.3,72.2,32,3.8-2.1,7.2-4.7,10.1-7.5,19.3,13.7,36.5,27.1,32.5,55.5-7.9,55.9-50,69.7-79.5,76.6-10.3,2.4-37,6.7-58.3,22.4ZM152.7,501c.8,0,1.5-.1,2.3-.2h0c.7,0,9.1-.2,17.5,4.3,24.4,12.8,26.4,44.5,6.8,60.6-1,.8-2,1.5-3,2.2-11.3-10.8-20.3-31-23.6-66.9ZM65.1,287.4c1.6.6,3.3,1.3,5,2.1,24.4,12.8,26.4,44.5,6.8,60.6-16.7,13.6-39.2,10.3-52-3.2,2.1-4.7,4.8-9.3,8-13.9,10.2-14.8,25.1-29.3,32.3-45.7ZM665.6,309.8c-24,19.6-60.2,4.2-61.9-26.2-.9-16.2,10.2-34.4,30.9-38-3.6,19,.7,35.8,16.2,50.8,4.8,4.7,10.1,8.8,15.5,12.7-.2.2-.4.4-.7.6ZM477.4,48.1c-8.5-11.2-7.9-25-.8-35.3,22.7,3.6,31.5,25,38.7,47.4-13.5,3.6-29-.4-37.9-12.1Z" fill="#714e67"/></g></svg>