<?xml version="1.0" encoding="UTF-8"?><svg id="b" xmlns="http://www.w3.org/2000/svg" viewBox="0 0 720 701.5"><g id="c"><path d="M711.4,339.5c-78.9-25.5-157.9-50.5-236.8-76-11.2-84.1-21.8-168.2-33-252.3,0-.6-2.1-5.8-6.6-8.7-9.8-6.4-20.4.9-22,4.5-33.8,75.5-66.9,151.2-100.7,226.6-100.5,16.9-201,33.1-301.5,50-.8.1-6.9,2.8-9.5,8.9-4.5,10.5,4.1,19.5,7.6,20.6,90.7,27.8,181.7,54.9,272.4,82.7,10.8,98,21,196.1,31.8,294.1,0,.9.6,1.7.9,2.5,4,8.4,14.7,11.7,22.7,6.9,9.6-5.8,6.7-8.6,110.3-282.3,87.5-16.3,175-32,262.5-48.3.6-.1,5.4-2.3,8.1-6.5,6.6-10.4-1.8-21.3-6.2-22.7Z" fill="#714e67" fill-rule="evenodd"/><path d="M323.4,248.1L426.3,15.9l33.7,259.6,244,78.1-268.8,49.3-106.7,282.7-32.4-302L16,298.8l307.4-50.7Z" fill="#f8fcb9" fill-rule="evenodd"/><path d="M312.3,233.7c33.8-75.4,66.9-151.2,100.7-226.6,1.6-3.6,12.2-10.9,22-4.5,4.4,2.9,6.5,8,6.6,8.7,11.2,84.1,21.8,168.2,33,252.3,78.9,25.6,157.9,50.5,236.8,76,4.5,1.4,12.8,12.3,6.2,22.7-2.7,4.3-7.5,6.4-8.1,6.5-87.5,16.3-175,32-262.5,48.3-103.5,273.6-100.6,276.5-110.3,282.3-8,4.8-18.7,1.6-22.7-6.9-.4-.8-.8-1.6-.9-2.5-10.8-98-21-196.1-31.8-294.1-90.7-27.8-181.7-54.9-272.4-82.7-3.5-1.1-12.1-10-7.6-20.6,2.6-6.1,8.7-8.8,9.5-8.9,100.5-16.9,201-33.1,301.5-50ZM338,254.5c-1.1,1.4-1.8,3-2.9,4.4-1.2,1.5-5.5,4.1-6.6,4.3-80.9,13.6-161.8,26.8-242.7,40.2,72.4,22,144.9,43.7,217.3,65.9,2.8.9,8,7,8.3,10,8.7,79.4,17.1,158.8,25.7,238.1,82.7-219.9,80.9-222.9,90.1-228.3.8-.5,1.6-1,2.5-1.2,69.7-13,139.4-25.6,209.1-38.4-62-19.9-124.1-39.6-186.1-59.7-2.7-.9-7.7-6.8-8.1-9.7-9.1-68.6-17.9-137.2-26.8-205.7l-79.8,180.1Z" fill="#714e67" fill-rule="evenodd"/></g></svg>