<?xml version="1.0" encoding="UTF-8"?><svg id="b" xmlns="http://www.w3.org/2000/svg" viewBox="0 0 720 693.2"><g id="c"><path d="M716.6,424.3c-67.7-52.2-135.6-104-203.3-156.2l87.6-243.2c.1-1.4.6-2.8.8-4.2,0-.7-.3-3.9-1.6-6.2-4.4-8.1-14.3-7.2-16.8-5.5-71.5,49.4-142.7,99.2-214.2,148.6C301.3,105.6,233.6,53.3,165.7,1.5c-.4-.3-4.3-2-8.3-1.3-9,1.6-11.3,11.3-10.5,14.1,23.5,82.8,47.5,165.4,71.1,248.2-71.3,49.8-142.9,99.2-214.1,149-.6.4-1,1.1-1.4,1.6-6,8.3-.1,20.2,10.2,20.4,85.2,1.6,170.5,3,255.7,4.6,23.9,82.6,47.4,165.3,71.3,247.9.1.5,2.3,4.2,6,6,8.3,4,15.8-2.4,16.8-5.2,29.7-81.7,58.9-163.6,88.6-245.4,86,1.3,172.1,3.2,258.2,4.4.5,0,4.6-.9,7.5-3.9,6.3-6.7,2.4-15.8,0-17.6Z" fill="#714e67" fill-rule="evenodd"/><path d="M588.8,20.5l-90.8,252.1,209.1,160.5-265.2-4.8-90.7,252-73.2-255-265.2-4.8,220-152.8L159.7,12.9l209.1,160.5L588.8,20.5Z" fill="#dcc4f1" fill-rule="evenodd"/><path d="M600.9,24.9l-87.6,243.2c67.7,52.2,135.6,104,203.3,156.2,2.3,1.8,6.2,10.9,0,17.6-2.8,3-7,3.9-7.5,3.9-86.1-1.3-172.1-3.1-258.2-4.4-29.7,81.7-58.9,163.6-88.6,245.4-1,2.8-8.5,9.2-16.8,5.2-3.7-1.8-5.9-5.5-6-6-24-82.5-47.4-165.3-71.3-247.9-85.2-1.6-170.5-3-255.7-4.6-10.3-.2-16.2-12.1-10.2-20.4.4-.6.8-1.2,1.4-1.6,71.3-49.8,142.9-99.2,214.1-149-23.5-82.8-47.6-165.4-71.1-248.2-.8-2.8,1.5-12.4,10.5-14.1,4-.7,7.9,1,8.3,1.3,67.9,51.9,135.5,104.1,203.5,156,71.5-49.4,142.7-99.2,214.2-148.6,2.5-1.7,12.4-2.6,16.8,5.5,1.3,2.3,1.6,5.5,1.6,6.2-.1,1.4-.6,2.8-.8,4.2ZM563.2,53.9c-63,43.6-125.8,87.5-188.8,131-2.4,1.7-9.4,1.5-11.7-.3-60.1-45.9-120-92-180-138,20.9,73.2,42.1,146.4,62.9,219.6.8,2.7-1.5,9.2-3.9,10.9-62.9,43.9-126,87.6-189,131.4,75.2,1.3,150.4,2.6,225.6,4,7.2,0,11.1,6.1,11.4,7.4,21.1,72.9,41.9,145.9,62.9,218.9,26.1-72.2,51.9-144.5,78.1-216.7,1-2.7,6.6-6.6,9.5-6.5,76.1,1.2,152.3,2.7,228.4,4-59.9-46.1-120-92-179.9-138.2-2.3-1.8-4.3-8.5-3.3-11.2,25.8-72.1,51.9-144.1,77.8-216.3Z" fill="#714e67" fill-rule="evenodd"/></g></svg>