<?xml version="1.0" encoding="UTF-8"?><svg id="b" xmlns="http://www.w3.org/2000/svg" viewBox="0 0 611.4 720"><g id="c"><path d="M610.7,142.1c-3-38-15.6-37.7-32-44.6-29.2-12.2-110.1-40.8-179.5-62.1C260.3-7.3,238-.5,231.4,1.9c-3.4,1.3-12.2,7.5-16.4,10.6-33.6,25.4-64.1,70.8-100.6,128.3C50.2,243.2-52.2,419.8,31.5,560.7c80.8,136.1,248,184.3,361,147.3,91-29.7,177.8-92.5,206.1-371.4,11.8-116.5,14.2-167,12.1-194.6Z" fill="#714e67"/><path d="M96.6,321.1c-20.4-38,44.6-67.1,57-95.5,5.9-13.3,20.7-37.1,33.9-43.2,7.8-3.6,10.9,0,12.8-.1.4,0,.7,0,1.1-.1h0c21.3-5.3,40.9-7.5,71.1-1.4,27.8,5.6,50.5,14.8,77.5.6,11.2-5.9,14.8-10.9,20.7-13.6,19.7-9.1,29.4,28.5,43.3,35.8,53.9,28.2,86.1,33.5,97.6,61.6,3.7,9,5.1,20.3,5.4,32.1-.7-2.2-1.5-4.5-2.4-6.7-5.5-12.8-15.3-23.2-28-28.7-7.1-3.1-7.3-2.5-257-75-28.8-8.4-59.7,9.8-69.9,40.9-.6,1.8-45.7,157.4-49.7,171.1-8.7,30.1,4.7,60.9,30.4,72,7.1,3.1,7.3,2.5,257,75,25.9,7.5,53.4-6.4,66.2-31.9-2.1,5.2-4.2,10.2-6.5,14.9-6.8,14.1-11.5,18.4-11.7,18.5-9.5,7.4-56.1,4.7-83.9-6.9-9.1-3.8-9.5-5.7-11.9-5.5-2,.2-3,1.8-3.1,2-11.9,14.9-19.7,17.4-26.1,15.6-17.6-4.7-34.2-36.8-78.7-38.7-31.2-1.3-53.1-23-70-30.4-4.3-1.9-26.6-8.2-41.2-14.1-28.2-11.5-35-23.3-24-69.7,6.7-28.2,16.9-37.3,6.7-55.4-5.6-9.9-12.1-14.4-16.8-23.1ZM513.1,359.7c-.1-.2-.7-1.1-.6-2.4.3-3.6.8-7.9,1.3-12.6-30.5,105.2-40.4,140.2-44.7,154.3,7.7-21.6,13.6-41.9,18.6-46.7,1.8-1.8,5.1-2.4,12.1-6.6,20.6-12.3,12.5-22.1,24.7-57,4.7-13.6,4-15.8-2.5-21.4-4.1-3.6-8.3-6.5-9-7.6ZM591.2,335.9c-28.4,279.6-115.5,336.4-199.7,364.6-108.5,36.2-272.8-8.8-353-142.8C-43.4,421,56,248.1,120.8,144.8c13.6-21.4,40.2-63.6,64.8-93,15.4-18.3,28.7-30.3,42.7-39.4,5-3.3,5.9-3.7,9-4.2,2-.4,4.4-.5,7.1-.6-1.3,1.9-.8,4.1-.8,4.4,0,.6.7,6.7.8,6.8.3.8.6,1.4.9,1.8,0,1.9,0,4.1-.2,6.8,0,.3-.7,3.9,2.5,5.1,1,.4,1.5.3,23.6,8.2,85.1,30,257.3,91.3,290.8,81.7.7-.2,7-2,6.8-6,0-.9-.8-1.7-1.2-2.6,0,0-2.7-1-2.7-1-1.1,0-2.1.7-2.5,1.1,0,0,0,0-.2.1,0,0,0,0,.2-.1,0,0-1,1.1-3.9,1.6-41.8,7-258.7-73.2-306-89.2.1-4.3.3-12.4-.4-16-.2-1-.5-1.9-.8-2.5,70.4,4.4,284.4,79.7,322.7,95.9,10,4.2,13.4,4.8,17.6,7.6,14.6,9.7,18,42.2-.6,224.7ZM87.9,320.1c4.4,11,11.1,16,17,24.6,12.5,18.6.1,21.4-8.2,65.8-10.4,55,12.2,60.4,69.9,78.9,15,4.8,39.4,30.4,74.9,31.9,37.7,1.6,53.1,26.8,70.9,36.1,15.8,8.2,27.7-.9,38.5-13.8,4.3,2.4,13.3,6.7,29.1,10.4,11.8,2.7,24.5,4.4,35.9,4.9,29.8,1.2,35.1-6.2,35.8-7.1,19.7-22.4,34.2-85.9,41.3-93.9,5.9-2.7,16-7.4,22.3-14.8,5.8-6.8,7.3-14.3,9.1-23.5,3.7-18.7,4.8-20.7,8.2-30.8,6-18,1.5-21.5-12.3-32.6,2.1-20.4,2.5-21.3,3.6-35.1,6.6-88-25.6-82.9-102.5-122.2-5-2.5-6.2-2.4-13.8-13.7-9-13.5-23.5-38.5-47.5-19.3-29.6,23.7-50.2,15.3-82.2,8.4-29.2-6.3-50.3-6.2-77,.4-25.4-10-50.9,40.8-53.9,47.7-10.5,25-75.8,55.8-59,97.8ZM115,506.5c-5.6-16.2-20.1-21.5-20.3-21.6-.3-.1-.6-.2-.9-.3-17.5-7-38.8.8-46.1,19.3-8.9,22.8,8.7,47.9,33.8,48.1,24.2.2,41.3-22.8,33.5-45.5ZM150.3,617.9c24.2.2,41.3-22.8,33.5-45.5-5.6-16.2-20.1-21.5-20.3-21.6-.3-.1-.6-.2-.9-.3-17.5-7-38.8.8-46.1,19.3-8.9,22.8,8.7,47.9,33.8,48.1ZM261.8,684.6c-.1-.2-1-1.2-2.5-1.3-6-.7-47.5-9-81.1-24.5-1.8-.8-1.9-1.2-3.7-.5-.9.3-1.4,1.3-2.1,1.9,0,0-.1,2.9-.1,2.9.5,1.5,1.7,2,2,2.1,36.3,16.9,78.7,24.8,83.7,25.5,1.9.2,2,.4,3.4-.8,1.2-1,1.2-1.1,1.3-2.6.1-1.5,0-1.6-.9-2.7ZM273.6,618.8c-5.6-16.2-20.1-21.5-20.3-21.6-.3-.1-.6-.2-.8-.3-17.5-7-38.8.8-46.1,19.3-8.9,22.8,8.7,47.9,33.8,48.1,24.2.2,41.3-22.8,33.5-45.5ZM367,628.9c-4.8-16.5-19.1-22.4-19.3-22.5-.3-.1-.6-.3-.8-.4-17.2-7.8-38.8-1-47,17.2-10,22.4,6.5,48.2,31.5,49.6,24.2,1.4,42.3-20.8,35.6-43.9ZM444.8,597.8c-6.2-16-21-20.7-21.2-20.7-.3-.1-.6-.2-.9-.3-17.8-6.3-38.8,2.3-45.3,21.2-8,23.2,10.7,47.5,35.7,46.7,24.2-.7,40.4-24.5,31.6-46.9ZM568,393.2c-.3-3.2-1.1-2.9-4.2-3.8,0,0-2.5,1.4-2.5,1.4-.2.2-1,1.2-.8,2.7,1.2,12.1-7.4,53.2-20.4,93.7-32.8,102.3-74.3,136.6-90.9,147.5-1.7,1.2-2.1,1-2.5,3-.3,1.5-.3,1.6.5,2.8.8,1.3.9,1.3,2.4,1.6,1.5.3,1.6.3,2.8-.5,8.8-5.8,43-28.1,75.6-101.1,24.9-55.7,41.7-129.7,40.1-147.4ZM582,278.6c0-2.9-.7-2.7-3.2-4.2,0,0-2.8.7-2.8.7-.8.6-1,1.6-1.5,2.5,0,0-1,7.1-1.4,10.3-10,74.6-9.2,76.3-9.2,76.7,0,3.5,1.1,3.3,4.4,4,0,0,2.4-1.5,2.4-1.6.5-.7.5-1.7.6-2.6h0c0-8.6,10.6-85.8,10.6-85.9ZM582.2,142.6c0-1.1-.9-13.2-1-13.7-.3-.9-.6-1.9-1.3-2.5-.7-.6-1.8-.6-2.7-.9,0,0-2.6,1.3-2.6,1.3-1,1.2-.9,2.5-.9,2.7,4.3,52.4,3.2,97.3,1.6,109.9-.6,4.4,2.7,4.9,3.1,4.9,1.5.2,2.6-.6,2.8-.7.2-.1,1.3-1,1.5-2.5,2-15.1,2.3-57.1-.5-98.6Z" fill="#ff9abd"/><path d="M251.3,400.3c.7,1.4,1.4,2.8,2.1,4.3l-3-.8.9-3.5ZM315.2,461.9l.2-.6c-.4.1-.8.2-1.1.4l1,.3ZM239.3,294.2c.2-.2.4-.4.6-.7h-.4c0-.1-.2.7-.2.7ZM232.3,369.3h.5c-.1,0-.3-.2-.4-.4v.4ZM509.8,331.7c-16.4,56.5-32.8,113-49.2,169.5-6.7,23.1-29.3,42-54.5,38.7-7.9-1-7.8-1.7-257.5-74.2-25-7.3-39-35.2-31.9-62.9.3-1.1,45.6-157.2,49.6-170.8,7.6-26.1,31.2-42.4,54.7-39.4,7.9,1,7.8,1.7,257.5,74.2,11.6,3.4,20.5,11,26.3,20.7,12.8,21.4,5.3,43.7,5.1,44.2ZM441.6,344.5l-12.2-3.2,3.6-13.4-12.9-3.3,3.8-13.8-13-3.4-.8,3c-1.1-1.1-2.3-2.3-3.7-3.8l4.4,1.1,3.9-14.3-50.7-13.1-3.8,14.1-12.5-3.2-3.7,13.7-10.1-2.6c-.2-.6-.4-1.2-.8-2-.1-.3-.3-.6-.4-.9l3-11.2-11.8-3c-.2-.2-.4-.5-.6-.7l3.7-13.6-50.7-13.1-3.9,14.3,1.5.4c-.6.2-1.2.4-1.8.6l.4-1.3-13-3.4-3.4,12.6c-.5.3-1,.6-1.5,1l-11.7-3-3.6,13.4-12.2-3.2-16.2,59.6,12.5,3.2-3.8,14,12.5,3.2-3.9,14.2,13,3.4,1.1-4c.9,1.5,1.7,3,2.6,4.6l-3.5-.9-3.9,14.3,12.4,3.2-3.8,13.9,11.9,3.1-3.4,12.6,12.8,3.3-3.6,13.2,12.7,3.3-3.5,13,39,10,3.6-13.1,12.6,3.3,3.2-11.6c.8-.4,1.6-.7,2.3-1.1l10.9,2.8,2.7-9.9c1.1-.6,2.3-1.3,3.4-2l9.2,2.4,2.6-9.6c1.7-1.1,3.4-2.2,5-3.3l8.5,2.2,2.7-10c1.4-1,2.9-2.1,4.3-3.1l9.9,2.6,3.6-13.1c.4-.3.7-.6,1.1-.9l11.8,3,3.8-14,12.5,3.2,16.2-59.6ZM360.1,296.2c.7-.3,1.5-.7,2.2-1l-1.8-.5-.4,1.5ZM419.3,326.9l.5-1.9-1.8-.5c.3.7.8,1.5,1.2,2.3ZM259.3,419.6l1.3.3c-.3-.6-.6-1.2-.9-1.8l-.4,1.5ZM427.8,343.9l.5-1.9-1.2-.3c.2.7.5,1.4.7,2.2ZM267.6,435.9h.5c-.1,0-.2-.3-.3-.5v.5ZM412.5,400.4l.8-3c-.8.8-1.7,1.7-2.6,2.6l1.8.5Z" fill="#c8ece5"/><path d="M275.5,305.1c.2,2.8-1.3,4.7-1.5,5.1-1.1,1.5-1.3,1.4-2.8,2.3-16.2,9.7-17,19.2-16.6,27.8.2,4.1.8,8.3,1.1,12.7,0,1.2.2,1.2-.1,2.3,0,.3-.5,1.9-2.1,3-.1,0-.8.5-1.7.7-.3,0-1.8.4-3.3-.8-.4-.4-.8-.8-1.1-1.3-.7-1.2-.5-1.3-.7-2.8-1.9-11-7.4-27.6,6.8-43.5,3-3.4,7-6.9,12.8-10.6,2.3-1.5,4.5-.8,4.9-.7.8.2,1.5.6,2.1,1.2,2,1.8,2.2,4.3,2.2,4.7Z" fill="#fff"/><path d="M227.9,383.5l3.9-14.2-12.5-3.2,3.8-14-12.5-3.2,16.2-59.6,12.2,3.2,3.6-13.4,11.7,3,1.2.3.3-1.3,3.4-12.6,13,3.4-.4,1.3-3.5,13-12.9-3.3-3.8,13.8-11.8-3.1h-.4c0-.1-.2.7-.2.7l-15.7,57.6,12.5,3.2-3.8,13.9v.4c-.1,0,.4.1.4.1l12,3.1-2.8,10.4-1.1,4-13-3.4ZM366.6,418.8l-3.8,13.9-12.4-3.2-3.4,12.6-11.9-3.1-3.6,13.2-12.8-3.3-3.4,12.3-.2.6-1-.3-11.7-3h0c0,.1-25.5-6.5-25.5-6.5l3.5-13-12.4-3.2h-.5c0-.1.1-.7.1-.7l3.4-12.7-10.6-2.7-1.3-.3.4-1.5,3-11.1-9.4-2.4-3-.8.9-3.5,2.8-10.4-9.5-2.5-3.5-.9-3.9,14.3,12.4,3.2-3.8,13.9,11.9,3.1-3.4,12.6,12.8,3.3-3.6,13.2,12.7,3.3-3.5,13,39,10,3.6-13.1,12.6,3.3,3.2-11.6.4-1.6,1.9.5,10.9,2.8,2.7-9.9.7-2.7,2.7.7,9.2,2.4,2.6-9.6,1.2-4.3,3.8,1,8.5,2.2,2.7-10,1.2-4.3-13-3.4ZM429.4,341.3l3.6-13.4-12.9-3.3,3.8-13.8-13-3.4-.8,3-3.1,11.4,11.1,2.9,1.8.5-.5,1.9-3.2,11.9,11.1,2.8,1.2.3-.5,1.9-14.5,53.5-.8,3-1.8-.5-10.7-2.8-3.9,14.2-12.5-3.2-3.9,14.3,3.1.8,9.9,2.6,3.6-13.1.3-1.1.8.2,11.8,3,3.8-14,12.5,3.2,16.2-59.6-12.2-3.2ZM273.7,272.5l48.7,12.6-3.8,14.1,12.5,3.2-3.7,13.7,13,3.4h0c0-.1,0-.1,0-.1l3.7-13.7,12.5,3.2,3.4-12.6.4-1.5,1.8.5,44,11.3,4.4,1.1,3.9-14.3-50.7-13.1-3.8,14.1-12.5-3.2-3.7,13.7-10.1-2.6-1.9-.5.7-2.4,3-11.2-11.8-3-.7-.2v-.5c.1,0,3.8-13.6,3.8-13.6l-50.7-13.1-3.9,14.3,1.5.4Z" fill="#fb96b8"/><path d="M396.3,412.7l.3-1.1.8.2c-.4.3-.7.6-1.1.9ZM347,446.8c1.1-.6,2.3-1.3,3.4-2l-2.7-.7-.7,2.7ZM362.2,437.6c1.7-1.1,3.4-2.2,5-3.3l-3.8-1-1.2,4.3ZM255.8,281c-.5.3-1,.6-1.5,1l1.2.3.3-1.3ZM323.2,284.5v.5c-.1,0,.6.2.6.2-.2-.2-.4-.5-.6-.7ZM379.7,422.5l3.1.8c-1.4,1-2.8,2.1-4.3,3.1l1.2-4.3-13-3.4-3.8,13.9-12.4-3.2-3.4,12.6-11.9-3.1-3.6,13.2-12.8-3.3-3.4,12.3c-.4.1-.8.2-1.1.4l-11.7-3h0c0,.1-25.5-6.5-25.5-6.5l3.5-13-12.4-3.2c-.1-.2-.2-.4-.3-.7l3.4-12.7-10.6-2.7c-.3-.6-.6-1.2-.9-1.8l3-11.1-9.4-2.4c-.7-1.4-1.4-2.9-2.1-4.3l2.8-10.4-9.5-2.5c-.9-1.6-1.7-3.1-2.6-4.6l2.8-10.4-12-3.1c-.1-.2-.3-.3-.4-.5l3.8-13.9-12.5-3.2,15.7-57.6c.2-.2.4-.4.6-.7l11.8,3.1,3.8-13.8,12.9,3.3,3.5-13c.6-.2,1.2-.4,1.8-.6l48.7,12.6-3.8,14.1,12.5,3.2-3.7,13.7,13,3.4h0c0-.1,0-.1,0-.1l3.7-13.7,12.5,3.2,3.4-12.6c.7-.3,1.5-.7,2.2-1l44,11.3c1.5,1.5,2.7,2.6,3.7,3.8l-3.1,11.4,11.1,2.9c.3.7.8,1.5,1.2,2.3l-3.2,11.9,11.1,2.8c.2.7.5,1.4.7,2.2l-14.5,53.5c-.8.8-1.7,1.7-2.6,2.6l-10.7-2.8-3.9,14.2-12.5-3.2-3.9,14.3ZM275.5,305.1c0-.4-.2-2.9-2.2-4.7-.6-.5-1.4-.9-2.1-1.2-.4-.1-2.6-.8-4.9.7-5.9,3.7-9.8,7.2-12.8,10.6-14.2,16-8.7,32.5-6.8,43.5.2,1.4,0,1.5.7,2.8.3.5.7,1,1.1,1.3,1.5,1.2,3,.9,3.3.8.9-.2,1.6-.6,1.7-.7,1.6-1.1,2-2.7,2.1-3,.3-1.1.2-1.2.1-2.3-.3-4.4-.9-8.5-1.1-12.7-.4-8.6.5-18.1,16.6-27.8,1.6-.9,1.7-.8,2.8-2.3.3-.3,1.7-2.3,1.5-5.1ZM332.9,300.3c-.1-.3-.3-.6-.4-.9l-.7,2.4,1.9.5c-.2-.6-.4-1.2-.8-2ZM331.4,453.4l-.4,1.6c.8-.4,1.6-.7,2.3-1.1l-1.9-.5ZM91.8,491.9h0c-2.4-1-9.7-3.9-19.4-1.1-18.4,5.3-26.1,27.8-12.6,43.7,11.1,13,32.7,14,44.1-.4,4.9-6.2,6.9-15,4.5-23.4-3.9-13.7-15.4-18.1-16.6-18.7ZM160.6,557.7h0c-2.4-1-9.7-3.9-19.4-1.1-18.4,5.3-26.1,27.8-12.6,43.7,11.1,13,32.7,14,44.1-.4,4.9-6.2,6.9-15,4.5-23.4-3.9-13.7-15.4-18.1-16.6-18.7ZM250.4,604.2h0c-2.4-1-9.7-3.9-19.4-1.1-18.4,5.3-26.1,27.8-12.6,43.7,11.1,13,32.7,14,44.1-.4,4.9-6.2,6.9-15,4.5-23.4-3.9-13.7-15.4-18.1-16.6-18.7ZM344.5,613.2h0c-2.4-1.1-9.6-4.4-19.4-2-18.6,4.4-27.3,26.6-14.6,43.1,10.5,13.5,32,15.5,44,1.6,5.1-5.9,7.6-14.7,5.6-23.2-3.3-13.8-14.6-18.8-15.7-19.4ZM438.4,602.1c-4.4-13.5-16.2-17.5-17.3-18h0c-2.5-.9-9.9-3.5-19.5-.3-18.1,6.1-24.9,28.9-10.8,44.2,11.6,12.6,33.2,12.7,44-2.2,4.6-6.4,6.3-15.3,3.6-23.6Z" fill="#ffdce8"/><path d="M610.7,142.1c-3-38-15.6-37.7-32-44.6-29.2-12.2-110.1-40.8-179.5-62.1C260.3-7.3,238-.5,231.4,1.9c-3.4,1.3-12.2,7.5-16.4,10.6-33.6,25.4-64.1,70.8-100.6,128.3C50.2,243.2-52.2,419.8,31.5,560.7c80.8,136.1,248,184.3,361,147.3,91-29.7,177.8-92.5,206.1-371.4,11.8-116.5,14.2-167,12.1-194.6ZM38.4,557.6C-43.4,421,56,248.1,120.8,144.8c13.6-21.4,40.2-63.6,64.8-93,15.4-18.3,28.7-30.3,42.7-39.4,5-3.3,5.9-3.7,9-4.2,2-.4,4.4-.5,7.1-.6-1.3,1.9-.8,4.1-.8,4.4,0,.6.7,6.7.8,6.8.3.8.6,1.4.9,1.8,0,1.9,0,4.1-.2,6.8,0,.3-.7,3.9,2.5,5.1,1,.4,1.5.3,23.6,8.2,85.1,30,257.3,91.3,290.8,81.7.7-.2,7-2,6.8-6,0-.9-.8-1.7-1.2-2.6,0,0-2.7-1-2.7-1-1.1,0-2.1.7-2.5,1.1,0,0-1,1.1-3.9,1.6-41.8,7-258.7-73.2-306-89.2.1-4.3.3-12.4-.4-16-.2-1-.5-1.9-.8-2.5,70.4,4.4,284.4,79.7,322.7,95.9,10,4.2,13.4,4.8,17.6,7.6,14.6,9.7,18,42.2-.6,224.7-28.4,279.6-115.5,336.4-199.7,364.6-108.5,36.2-272.8-8.8-353-142.8ZM104.9,344.8c12.5,18.6.1,21.4-8.2,65.8-10.4,55,12.2,60.4,69.9,78.9,15,4.8,39.4,30.4,74.9,31.9,37.7,1.6,53.1,26.8,70.9,36.1,15.8,8.2,27.7-.9,38.5-13.8,4.3,2.4,13.3,6.7,29.1,10.4,11.8,2.7,24.5,4.4,35.9,4.9,29.8,1.2,35.1-6.2,35.8-7.1,19.7-22.4,34.2-85.9,41.3-93.9,5.9-2.7,16-7.4,22.3-14.8,5.8-6.8,7.3-14.3,9.1-23.5,3.7-18.7,4.8-20.7,8.2-30.8,6-18,1.5-21.5-12.3-32.6,2.1-20.4,2.5-21.3,3.6-35.1,6.6-88-25.6-82.9-102.5-122.2-5-2.5-6.2-2.4-13.8-13.7-9-13.5-23.5-38.5-47.5-19.3-29.6,23.7-50.2,15.3-82.2,8.4-29.2-6.3-50.3-6.2-77,.4-25.4-10-50.9,40.8-53.9,47.7-10.5,25-75.8,55.8-59,97.8,4.4,11,11.1,16,17,24.6ZM509.8,331.7c-16.4,56.5-32.8,113-49.2,169.5-6.7,23.1-29.3,42-54.5,38.7-7.9-1-7.8-1.7-257.5-74.2-25-7.3-39-35.2-31.9-62.9.3-1.1,45.6-157.2,49.6-170.8,7.6-26.1,31.2-42.4,54.7-39.4,7.9,1,7.8,1.7,257.5,74.2,11.6,3.4,20.5,11,26.3,20.7,12.8,21.4,5.3,43.7,5.1,44.2ZM522.1,367.3c6.5,5.6,7.2,7.9,2.5,21.4-12.2,34.9-4.1,44.7-24.7,57-7,4.2-10.3,4.8-12.1,6.6-5,4.8-10.9,25.1-18.6,46.7,4.3-14.1,14.1-49.1,44.7-154.3-.5,4.8-1,9-1.3,12.6-.1,1.3.5,2.2.6,2.4.7,1.1,4.9,4,9,7.6ZM153.7,225.6c5.9-13.3,20.7-37.1,33.9-43.2,7.8-3.6,10.9,0,12.8-.1.4,0,.7,0,1.1-.1h0c21.3-5.3,40.9-7.5,71.1-1.4,27.8,5.6,50.5,14.8,77.5.6,11.2-5.9,14.8-10.9,20.7-13.6,19.7-9.1,29.4,28.5,43.3,35.8,53.9,28.2,86.1,33.5,97.6,61.6,3.7,9,5.1,20.3,5.4,32.1-.7-2.2-1.5-4.5-2.4-6.7-5.5-12.8-15.3-23.2-28-28.7-7.1-3.1-7.3-2.5-257-75-28.8-8.4-59.7,9.8-69.9,40.9-.6,1.8-45.7,157.4-49.7,171.1-8.7,30.1,4.7,60.9,30.4,72,7.1,3.1,7.3,2.5,257,75,25.9,7.5,53.4-6.4,66.2-31.9-2.1,5.2-4.2,10.2-6.5,14.9-6.8,14.1-11.5,18.4-11.7,18.5-9.5,7.4-56.1,4.7-83.9-6.9-9.1-3.8-9.5-5.7-11.9-5.5-2,.2-3,1.8-3.1,2-11.9,14.9-19.7,17.4-26.1,15.6-17.6-4.7-34.2-36.8-78.7-38.7-31.2-1.3-53.1-23-70-30.4-4.3-1.9-26.6-8.2-41.2-14.1-28.2-11.5-35-23.3-24-69.7,6.7-28.2,16.9-37.3,6.7-55.4-5.6-9.9-12.1-14.4-16.8-23.1-20.4-38,44.6-67.1,57-95.5ZM562.4,114c0,0,.2-.1.2-.1-.1.1-.2.2-.2.1ZM573.7,129.6c0-.2-.1-1.5.9-2.7,0,0,2.6-1.3,2.6-1.3.9.3,2,.3,2.7.9.7.6,1,1.6,1.3,2.5.1.5.9,12.6,1,13.7,2.8,41.5,2.5,83.5.5,98.6-.2,1.5-1.3,2.4-1.5,2.5-.2.1-1.2.9-2.8.7-.4,0-3.7-.5-3.1-4.9,1.6-12.6,2.7-57.5-1.6-109.9ZM564,364.7c0-.5-.7-2.2,9.2-76.7.4-3.2,1.4-10.3,1.4-10.3.5-.8.7-1.9,1.5-2.5,0,0,2.8-.7,2.8-.7,2.5,1.5,3.2,1.3,3.2,4.2,0,0-10.5,77.3-10.6,85.9h0c-.2.9-.1,1.9-.6,2.6,0,0-2.4,1.6-2.4,1.6-3.4-.7-4.4-.5-4.4-4ZM540,487.2c13-40.5,21.7-81.6,20.4-93.7-.2-1.5.7-2.6.8-2.7,0,0,2.5-1.4,2.5-1.4,3.1.9,3.9.6,4.2,3.8,1.7,17.7-15.2,91.7-40.1,147.4-32.5,72.9-66.7,95.2-75.6,101.1-1.3.8-1.3.8-2.8.5-1.5-.3-1.6-.4-2.4-1.6-.8-1.3-.8-1.3-.5-2.8.4-2,.8-1.8,2.5-3,16.6-10.9,58.1-45.2,90.9-147.5ZM261.8,684.6c1,1.2,1,1.2.9,2.7-.1,1.5-.2,1.6-1.3,2.6-1.4,1.2-1.6,1-3.4.8-5-.6-47.4-8.6-83.7-25.5-.2,0-1.4-.7-2-2.1,0,0,.1-2.9.1-2.9.7-.6,1.2-1.6,2.1-1.9,1.8-.7,1.9-.3,3.7.5,33.5,15.5,75.1,23.8,81.1,24.5,1.5.2,2.4,1.2,2.5,1.3ZM115,506.5c-5.6-16.2-20.1-21.5-20.3-21.6-.3-.1-.6-.2-.9-.3-17.5-7-38.8.8-46.1,19.3-8.9,22.8,8.7,47.9,33.8,48.1,24.2.2,41.3-22.8,33.5-45.5ZM103.8,534c-11.4,14.5-33,13.5-44.1.4-13.5-15.8-5.8-38.4,12.6-43.7,9.7-2.8,17,.2,19.4,1.2h0c1.2.5,12.7,5,16.6,18.7,2.4,8.4.3,17.3-4.5,23.4ZM183.8,572.4c-5.6-16.2-20.1-21.5-20.3-21.6-.3-.1-.6-.2-.9-.3-17.5-7-38.8.8-46.1,19.3-8.9,22.8,8.7,47.9,33.8,48.1,24.2.2,41.3-22.8,33.5-45.5ZM128.6,600.3c-13.5-15.8-5.8-38.4,12.6-43.7,9.7-2.8,17,.2,19.4,1.2h0c1.2.5,12.7,5,16.6,18.7,2.4,8.4.3,17.3-4.5,23.4-11.4,14.5-33,13.5-44.1.4ZM253.3,597.3c-.3-.1-.6-.2-.8-.3-17.5-7-38.8.8-46.1,19.3-8.9,22.8,8.7,47.9,33.8,48.1,24.2.2,41.3-22.8,33.5-45.5-5.6-16.2-20.1-21.5-20.3-21.6ZM262.4,646.3c-11.4,14.5-33,13.5-44.1.4-13.5-15.8-5.8-38.4,12.6-43.7,9.7-2.8,17,.2,19.4,1.2h0c1.2.5,12.7,5,16.6,18.7,2.4,8.4.3,17.3-4.5,23.4ZM347.7,606.4c-.3-.1-.6-.3-.8-.4-17.2-7.8-38.8-1-47,17.2-10,22.4,6.5,48.2,31.5,49.6,24.2,1.4,42.3-20.8,35.6-43.9-4.8-16.5-19.1-22.4-19.3-22.5ZM310.5,654.2c-12.7-16.5-4-38.6,14.6-43.1,9.8-2.3,17,1,19.4,2.1h0c1.1.6,12.4,5.6,15.7,19.4,2,8.5-.5,17.3-5.6,23.2-12,13.9-33.6,11.9-44-1.6ZM444.8,597.8c-6.2-16-21-20.7-21.2-20.7-.3-.1-.6-.2-.9-.3-17.8-6.3-38.8,2.3-45.3,21.2-8,23.2,10.7,47.5,35.7,46.7,24.2-.7,40.4-24.5,31.6-46.9ZM401.6,583.8c9.6-3.2,17-.5,19.5.4h0c1.2.5,12.9,4.5,17.3,18,2.7,8.3,1,17.2-3.6,23.6-10.8,14.9-32.4,14.8-44,2.2-14.1-15.3-7.4-38.1,10.8-44.2Z" fill="#714e67"/></g></svg>